solid OpenSCAD_Model
  facet normal -1 0 0
    outer loop
      vertex 0 0 0
      vertex 0 20 50
      vertex 0 20 0
    endloop
  endfacet
  facet normal -1 -0 0
    outer loop
      vertex 0 20 50
      vertex 0 0 0
      vertex 0 0 50
    endloop
  endfacet
  facet normal -0 0 1
    outer loop
      vertex 14.5415 6.94099 50
      vertex 20 0 50
      vertex 20 20 50
    endloop
  endfacet
  facet normal 0 0 1
    outer loop
      vertex 20 0 50
      vertex 14.6926 5.94524 50
      vertex 14.743 4.79999 50
    endloop
  endfacet
  facet normal 0 0 1
    outer loop
      vertex 20 0 50
      vertex 14.5415 6.94099 50
      vertex 14.6926 5.94524 50
    endloop
  endfacet
  facet normal 0 0 1
    outer loop
      vertex 20 20 50
      vertex 14.2896 7.78725 50
      vertex 14.5415 6.94099 50
    endloop
  endfacet
  facet normal 0 0 1
    outer loop
      vertex 20 20 50
      vertex 13.937 8.48399 50
      vertex 14.2896 7.78725 50
    endloop
  endfacet
  facet normal 0 0 1
    outer loop
      vertex 20 20 50
      vertex 13.479 9.02824 50
      vertex 13.937 8.48399 50
    endloop
  endfacet
  facet normal 0 0 1
    outer loop
      vertex 20 20 50
      vertex 12.91 9.41699 50
      vertex 13.479 9.02824 50
    endloop
  endfacet
  facet normal 0 0 1
    outer loop
      vertex 20 20 50
      vertex 12.23 9.65024 50
      vertex 12.91 9.41699 50
    endloop
  endfacet
  facet normal 0 0 1
    outer loop
      vertex 20 20 50
      vertex 11.439 9.728 50
      vertex 12.23 9.65024 50
    endloop
  endfacet
  facet normal 0 0 1
    outer loop
      vertex 20 20 50
      vertex 10.6269 9.65106 50
      vertex 11.439 9.728 50
    endloop
  endfacet
  facet normal -0 0 1
    outer loop
      vertex 0 20 50
      vertex 10.6269 9.65106 50
      vertex 20 20 50
    endloop
  endfacet
  facet normal 0 -0 1
    outer loop
      vertex 6.60199 9.536 50
      vertex 10.6269 9.65106 50
      vertex 0 20 50
    endloop
  endfacet
  facet normal -0 0 1
    outer loop
      vertex 6.68649 4.81274 50
      vertex 8.08696 4.79999 50
      vertex 8.13727 5.95618 50
    endloop
  endfacet
  facet normal 0 0 1
    outer loop
      vertex 5.86305 5.61649 50
      vertex 8.13727 5.95618 50
      vertex 8.28821 6.95775 50
    endloop
  endfacet
  facet normal 0 0 1
    outer loop
      vertex 8.08696 4.79999 50
      vertex 7.10649 3.73874 50
      vertex 7.159 3.10799 50
    endloop
  endfacet
  facet normal 0 0 1
    outer loop
      vertex 6.60199 8.49799 50
      vertex 8.28821 6.95775 50
      vertex 8.53978 7.80469 50
    endloop
  endfacet
  facet normal 0 0 1
    outer loop
      vertex 8.08696 4.79999 50
      vertex 6.94899 4.30699 50
      vertex 7.10649 3.73874 50
    endloop
  endfacet
  facet normal 0 0 1
    outer loop
      vertex 8.08696 4.79999 50
      vertex 6.68649 4.81274 50
      vertex 6.94899 4.30699 50
    endloop
  endfacet
  facet normal 0 0 1
    outer loop
      vertex 6.60199 8.49799 50
      vertex 8.53978 7.80469 50
      vertex 8.89197 8.49699 50
    endloop
  endfacet
  facet normal -0 0 1
    outer loop
      vertex 6.60199 8.49799 50
      vertex 8.89197 8.49699 50
      vertex 6.60199 9.536 50
    endloop
  endfacet
  facet normal 0 0 1
    outer loop
      vertex 9.35339 9.03555 50
      vertex 6.60199 9.536 50
      vertex 8.89197 8.49699 50
    endloop
  endfacet
  facet normal 0 0 1
    outer loop
      vertex 10.6269 9.65106 50
      vertex 6.60199 9.536 50
      vertex 9.93172 9.42024 50
    endloop
  endfacet
  facet normal 0 0 1
    outer loop
      vertex 9.93172 9.42024 50
      vertex 6.60199 9.536 50
      vertex 9.35339 9.03555 50
    endloop
  endfacet
  facet normal 0 0 1
    outer loop
      vertex 0 0 50
      vertex 0.835999 4.39799 50
      vertex 1.15599 9.536 50
    endloop
  endfacet
  facet normal 0 0 1
    outer loop
      vertex 0 0 50
      vertex 1.15599 9.536 50
      vertex 0 20 50
    endloop
  endfacet
  facet normal 0 0 1
    outer loop
      vertex 6.60199 9.536 50
      vertex 0 20 50
      vertex 1.15599 9.536 50
    endloop
  endfacet
  facet normal -0 0 1
    outer loop
      vertex 14.69 3.67137 50
      vertex 20 0 50
      vertex 14.743 4.79999 50
    endloop
  endfacet
  facet normal -0 0 1
    outer loop
      vertex 14.5312 2.68449 50
      vertex 20 0 50
      vertex 14.69 3.67137 50
    endloop
  endfacet
  facet normal -0 0 1
    outer loop
      vertex 14.2665 1.83937 50
      vertex 20 0 50
      vertex 14.5312 2.68449 50
    endloop
  endfacet
  facet normal -0 0 1
    outer loop
      vertex 13.896 1.13599 50
      vertex 20 0 50
      vertex 14.2665 1.83937 50
    endloop
  endfacet
  facet normal -0 0 1
    outer loop
      vertex 13.4226 0.582993 50
      vertex 20 0 50
      vertex 13.896 1.13599 50
    endloop
  endfacet
  facet normal -0 0 1
    outer loop
      vertex 12.8485 0.187988 50
      vertex 20 0 50
      vertex 13.4226 0.582993 50
    endloop
  endfacet
  facet normal 0 0 1
    outer loop
      vertex 20 0 50
      vertex 12.8485 0.187988 50
      vertex 12.3131 0 50
    endloop
  endfacet
  facet normal 0 0 1
    outer loop
      vertex 7.159 3.10799 50
      vertex 8.13878 3.66568 50
      vertex 8.08696 4.79999 50
    endloop
  endfacet
  facet normal -0 0 1
    outer loop
      vertex 7.159 3.10799 50
      vertex 8.2942 2.67574 50
      vertex 8.13878 3.66568 50
    endloop
  endfacet
  facet normal 0 0 1
    outer loop
      vertex 7.10268 2.39462 50
      vertex 8.2942 2.67574 50
      vertex 7.159 3.10799 50
    endloop
  endfacet
  facet normal 0 0 1
    outer loop
      vertex 8.2942 2.67574 50
      vertex 7.10268 2.39462 50
      vertex 8.55327 1.83018 50
    endloop
  endfacet
  facet normal 0 0 1
    outer loop
      vertex 6.93375 1.76149 50
      vertex 8.55327 1.83018 50
      vertex 7.10268 2.39462 50
    endloop
  endfacet
  facet normal 0 0 1
    outer loop
      vertex 8.55327 1.83018 50
      vertex 6.93375 1.76149 50
      vertex 8.91595 1.129 50
    endloop
  endfacet
  facet normal -0 0 1
    outer loop
      vertex 6.65218 1.20862 50
      vertex 8.91595 1.129 50
      vertex 6.93375 1.76149 50
    endloop
  endfacet
  facet normal 0 0 1
    outer loop
      vertex 6.258 0.735992 50
      vertex 8.91595 1.129 50
      vertex 6.65218 1.20862 50
    endloop
  endfacet
  facet normal 0 0 1
    outer loop
      vertex 8.91595 1.129 50
      vertex 6.258 0.735992 50
      vertex 9.38234 0.579056 50
    endloop
  endfacet
  facet normal 0 0 1
    outer loop
      vertex 5.76399 0.357986 50
      vertex 9.38234 0.579056 50
      vertex 6.258 0.735992 50
    endloop
  endfacet
  facet normal 0 0 1
    outer loop
      vertex 9.38234 0.579056 50
      vertex 5.76399 0.357986 50
      vertex 9.95146 0.186249 50
    endloop
  endfacet
  facet normal 0 0 1
    outer loop
      vertex 5.183 0.0879974 50
      vertex 9.95146 0.186249 50
      vertex 5.76399 0.357986 50
    endloop
  endfacet
  facet normal 0 0 1
    outer loop
      vertex 9.95146 0.186249 50
      vertex 5.183 0.0879974 50
      vertex 10.4824 0 50
    endloop
  endfacet
  facet normal 0 0 1
    outer loop
      vertex 10.4824 0 50
      vertex 5.183 0.0879974 50
      vertex 4.82012 0 50
    endloop
  endfacet
  facet normal 0 0 1
    outer loop
      vertex 8.28821 6.95775 50
      vertex 6.60199 8.49799 50
      vertex 5.86305 5.61649 50
    endloop
  endfacet
  facet normal 0 0 1
    outer loop
      vertex 8.13727 5.95618 50
      vertex 6.31898 5.256 50
      vertex 6.68649 4.81274 50
    endloop
  endfacet
  facet normal 0 0 1
    outer loop
      vertex 8.13727 5.95618 50
      vertex 5.86305 5.61649 50
      vertex 6.31898 5.256 50
    endloop
  endfacet
  facet normal 0 0 1
    outer loop
      vertex 6.60199 8.49799 50
      vertex 5.33524 5.87399 50
      vertex 5.86305 5.61649 50
    endloop
  endfacet
  facet normal 0 0 1
    outer loop
      vertex 6.60199 8.49799 50
      vertex 4.73555 6.02849 50
      vertex 5.33524 5.87399 50
    endloop
  endfacet
  facet normal 0 0 1
    outer loop
      vertex 6.60199 8.49799 50
      vertex 4.064 6.07999 50
      vertex 4.73555 6.02849 50
    endloop
  endfacet
  facet normal -0 0 1
    outer loop
      vertex 2.26799 8.49799 50
      vertex 4.064 6.07999 50
      vertex 6.60199 8.49799 50
    endloop
  endfacet
  facet normal 0 0 1
    outer loop
      vertex 4.064 6.07999 50
      vertex 2.26799 8.49799 50
      vertex 3.49625 6.04187 50
    endloop
  endfacet
  facet normal 0 0 1
    outer loop
      vertex 3.49625 6.04187 50
      vertex 2.26799 8.49799 50
      vertex 2.97699 5.92749 50
    endloop
  endfacet
  facet normal 0 0 1
    outer loop
      vertex 2.97699 5.92749 50
      vertex 2.26799 8.49799 50
      vertex 2.50624 5.73686 50
    endloop
  endfacet
  facet normal 0 0 1
    outer loop
      vertex 2.50624 5.73686 50
      vertex 2.26799 8.49799 50
      vertex 2.084 5.46999 50
    endloop
  endfacet
  facet normal 0 0 1
    outer loop
      vertex 4.26605 5.04843 50
      vertex 5.89099 3.08099 50
      vertex 5.85587 3.50755 50
    endloop
  endfacet
  facet normal 0 0 1
    outer loop
      vertex 5.89099 3.08099 50
      vertex 3.814 5.08299 50
      vertex 5.85605 2.59262 50
    endloop
  endfacet
  facet normal 0 0 1
    outer loop
      vertex 4.66924 4.94475 50
      vertex 5.85587 3.50755 50
      vertex 5.75049 3.89124 50
    endloop
  endfacet
  facet normal 0 0 1
    outer loop
      vertex 3.78699 0.868988 50
      vertex 5.85605 2.59262 50
      vertex 3.814 5.08299 50
    endloop
  endfacet
  facet normal 0 0 1
    outer loop
      vertex 4.66924 4.94475 50
      vertex 5.75049 3.89124 50
      vertex 5.57487 4.23206 50
    endloop
  endfacet
  facet normal 0 0 1
    outer loop
      vertex 5.89099 3.08099 50
      vertex 4.26605 5.04843 50
      vertex 3.814 5.08299 50
    endloop
  endfacet
  facet normal 0 0 1
    outer loop
      vertex 4.66924 4.94475 50
      vertex 5.57487 4.23206 50
      vertex 5.32899 4.53 50
    endloop
  endfacet
  facet normal 0 -0 1
    outer loop
      vertex 4.25368 0.905869 50
      vertex 5.85605 2.59262 50
      vertex 3.78699 0.868988 50
    endloop
  endfacet
  facet normal 0 0 1
    outer loop
      vertex 4.66924 4.94475 50
      vertex 5.32899 4.53 50
      vertex 5.02356 4.77193 50
    endloop
  endfacet
  facet normal 0 0 1
    outer loop
      vertex 5.85587 3.50755 50
      vertex 4.66924 4.94475 50
      vertex 4.26605 5.04843 50
    endloop
  endfacet
  facet normal 0 -0 1
    outer loop
      vertex 4.66675 1.01649 50
      vertex 5.57655 1.78162 50
      vertex 4.25368 0.905869 50
    endloop
  endfacet
  facet normal 0 0 1
    outer loop
      vertex 5.57655 1.78162 50
      vertex 4.66675 1.01649 50
      vertex 5.33199 1.459 50
    endloop
  endfacet
  facet normal 0 0 1
    outer loop
      vertex 5.33199 1.459 50
      vertex 4.66675 1.01649 50
      vertex 5.02618 1.20087 50
    endloop
  endfacet
  facet normal 0 0 1
    outer loop
      vertex 5.75124 2.15948 50
      vertex 4.25368 0.905869 50
      vertex 5.57655 1.78162 50
    endloop
  endfacet
  facet normal 0 0 1
    outer loop
      vertex 5.85605 2.59262 50
      vertex 4.25368 0.905869 50
      vertex 5.75124 2.15948 50
    endloop
  endfacet
  facet normal -0 0 1
    outer loop
      vertex 3.56975 5.07324 50
      vertex 3.78699 0.868988 50
      vertex 3.814 5.08299 50
    endloop
  endfacet
  facet normal 0 0 1
    outer loop
      vertex 1.79199 2.28699 50
      vertex 3.56975 5.07324 50
      vertex 3.334 5.04399 50
    endloop
  endfacet
  facet normal 0 0 1
    outer loop
      vertex 1.79199 2.28699 50
      vertex 3.334 5.04399 50
      vertex 3.10674 4.99524 50
    endloop
  endfacet
  facet normal 0 0 1
    outer loop
      vertex 3.56975 5.07324 50
      vertex 1.79199 2.28699 50
      vertex 3.78699 0.868988 50
    endloop
  endfacet
  facet normal 0 0 1
    outer loop
      vertex 1.79199 2.28699 50
      vertex 3.10674 4.99524 50
      vertex 2.88799 4.92699 50
    endloop
  endfacet
  facet normal 0 0 1
    outer loop
      vertex 1.79199 2.28699 50
      vertex 2.88799 4.92699 50
      vertex 2.67349 4.83543 50
    endloop
  endfacet
  facet normal 0 0 1
    outer loop
      vertex 3.78699 0.868988 50
      vertex 1.79199 2.28699 50
      vertex 3.05968 0.957611 50
    endloop
  endfacet
  facet normal 0 0 1
    outer loop
      vertex 1.79199 2.28699 50
      vertex 2.67349 4.83543 50
      vertex 2.459 4.71674 50
    endloop
  endfacet
  facet normal 0 0 1
    outer loop
      vertex 1.79199 2.28699 50
      vertex 2.459 4.71674 50
      vertex 2.24449 4.57092 50
    endloop
  endfacet
  facet normal -0 -0 1
    outer loop
      vertex 2.06218 1.66661 50
      vertex 3.05968 0.957611 50
      vertex 1.79199 2.28699 50
    endloop
  endfacet
  facet normal 0 0 1
    outer loop
      vertex 1.79199 2.28699 50
      vertex 2.24449 4.57092 50
      vertex 2.03 4.39799 50
    endloop
  endfacet
  facet normal 0 0 1
    outer loop
      vertex 3.05968 0.957611 50
      vertex 2.06218 1.66661 50
      vertex 2.48474 1.2235 50
    endloop
  endfacet
  facet normal -0 0 1
    outer loop
      vertex 0.835999 4.39799 50
      vertex 1.79199 2.28699 50
      vertex 2.03 4.39799 50
    endloop
  endfacet
  facet normal 0 0 1
    outer loop
      vertex 1.79199 2.28699 50
      vertex 0.835999 4.39799 50
      vertex 0.557999 2.14499 50
    endloop
  endfacet
  facet normal 0 0 1
    outer loop
      vertex 2.54999 0.017746 50
      vertex 0 0 50
      vertex 2.64298 0 50
    endloop
  endfacet
  facet normal 0 0 1
    outer loop
      vertex 2.04175 0.199936 50
      vertex 0 0 50
      vertex 2.54999 0.017746 50
    endloop
  endfacet
  facet normal 0 0 1
    outer loop
      vertex 1.59799 0.454987 50
      vertex 0 0 50
      vertex 2.04175 0.199936 50
    endloop
  endfacet
  facet normal 0 0 1
    outer loop
      vertex 1.22475 0.779617 50
      vertex 0 0 50
      vertex 1.59799 0.454987 50
    endloop
  endfacet
  facet normal 0 0 1
    outer loop
      vertex 0.926987 1.16949 50
      vertex 0 0 50
      vertex 1.22475 0.779617 50
    endloop
  endfacet
  facet normal 0 0 1
    outer loop
      vertex 0.704742 1.62462 50
      vertex 0 0 50
      vertex 0.926987 1.16949 50
    endloop
  endfacet
  facet normal 0 0 1
    outer loop
      vertex 0.557999 2.14499 50
      vertex 0 0 50
      vertex 0.704742 1.62462 50
    endloop
  endfacet
  facet normal 0 0 1
    outer loop
      vertex 0.835999 4.39799 50
      vertex 0 0 50
      vertex 0.557999 2.14499 50
    endloop
  endfacet
  facet normal 0 0 1
    outer loop
      vertex 9.32097 4.79999 50
      vertex 13.502 4.79999 50
      vertex 13.472 5.76561 50
    endloop
  endfacet
  facet normal -0 0 1
    outer loop
      vertex 9.35178 5.77699 50
      vertex 13.472 5.76561 50
      vertex 13.382 6.58849 50
    endloop
  endfacet
  facet normal 0 0 1
    outer loop
      vertex 13.502 4.79999 50
      vertex 9.32097 4.79999 50
      vertex 13.4705 3.86505 50
    endloop
  endfacet
  facet normal -0 0 1
    outer loop
      vertex 9.44421 6.60599 50
      vertex 13.382 6.58849 50
      vertex 13.232 7.26862 50
    endloop
  endfacet
  facet normal 0 -0 1
    outer loop
      vertex 9.35222 3.84837 50
      vertex 13.4705 3.86505 50
      vertex 9.32097 4.79999 50
    endloop
  endfacet
  facet normal -0 0 1
    outer loop
      vertex 9.59827 7.28699 50
      vertex 13.232 7.26862 50
      vertex 13.022 7.806 50
    endloop
  endfacet
  facet normal 0 0 1
    outer loop
      vertex 13.4705 3.86505 50
      vertex 9.35222 3.84837 50
      vertex 13.376 3.05925 50
    endloop
  endfacet
  facet normal 0 0 1
    outer loop
      vertex 11.9515 8.67975 50
      vertex 13.022 7.806 50
      vertex 12.743 8.21375 50
    endloop
  endfacet
  facet normal 0 -0 1
    outer loop
      vertex 9.44597 3.03349 50
      vertex 13.376 3.05925 50
      vertex 9.35222 3.84837 50
    endloop
  endfacet
  facet normal 0 0 1
    outer loop
      vertex 11.9515 8.67975 50
      vertex 12.743 8.21375 50
      vertex 12.3862 8.50499 50
    endloop
  endfacet
  facet normal 0 0 1
    outer loop
      vertex 13.376 3.05925 50
      vertex 9.44597 3.03349 50
      vertex 13.2185 2.38255 50
    endloop
  endfacet
  facet normal 0 0 1
    outer loop
      vertex 13.022 7.806 50
      vertex 11.9515 8.67975 50
      vertex 11.439 8.73799 50
    endloop
  endfacet
  facet normal 0 -0 1
    outer loop
      vertex 9.60222 2.35536 50
      vertex 13.2185 2.38255 50
      vertex 9.44597 3.03349 50
    endloop
  endfacet
  facet normal -0 0 1
    outer loop
      vertex 9.81396 7.81999 50
      vertex 13.022 7.806 50
      vertex 11.439 8.73799 50
    endloop
  endfacet
  facet normal 0 0 1
    outer loop
      vertex 13.2185 2.38255 50
      vertex 9.60222 2.35536 50
      vertex 12.998 1.83499 50
    endloop
  endfacet
  facet normal 0 0 1
    outer loop
      vertex 9.81396 7.81999 50
      vertex 11.439 8.73799 50
      vertex 10.9133 8.68062 50
    endloop
  endfacet
  facet normal 0 -0 1
    outer loop
      vertex 9.82097 1.814 50
      vertex 12.998 1.83499 50
      vertex 9.60222 2.35536 50
    endloop
  endfacet
  facet normal 0 -0 1
    outer loop
      vertex 11.412 0.868988 50
      vertex 12.998 1.83499 50
      vertex 9.82097 1.814 50
    endloop
  endfacet
  facet normal 0 0 1
    outer loop
      vertex 9.81396 7.81999 50
      vertex 10.9133 8.68062 50
      vertex 10.4672 8.5085 50
    endloop
  endfacet
  facet normal 0 0 1
    outer loop
      vertex 12.998 1.83499 50
      vertex 11.412 0.868988 50
      vertex 12.7098 1.41237 50
    endloop
  endfacet
  facet normal 0 0 1
    outer loop
      vertex 9.81396 7.81999 50
      vertex 10.4672 8.5085 50
      vertex 10.1008 8.22162 50
    endloop
  endfacet
  facet normal 0 -0 1
    outer loop
      vertex 11.9168 0.929367 50
      vertex 12.7098 1.41237 50
      vertex 11.412 0.868988 50
    endloop
  endfacet
  facet normal 0 0 1
    outer loop
      vertex 13.022 7.806 50
      vertex 9.81396 7.81999 50
      vertex 9.59827 7.28699 50
    endloop
  endfacet
  facet normal 0 0 1
    outer loop
      vertex 12.7098 1.41237 50
      vertex 11.9168 0.929367 50
      vertex 12.3495 1.11049 50
    endloop
  endfacet
  facet normal 0 0 1
    outer loop
      vertex 13.232 7.26862 50
      vertex 9.59827 7.28699 50
      vertex 9.44421 6.60599 50
    endloop
  endfacet
  facet normal 0 0 1
    outer loop
      vertex 11.412 0.868988 50
      vertex 9.82097 1.814 50
      vertex 10.9038 0.928055 50
    endloop
  endfacet
  facet normal 0 0 1
    outer loop
      vertex 13.382 6.58849 50
      vertex 9.44421 6.60599 50
      vertex 9.35178 5.77699 50
    endloop
  endfacet
  facet normal -0 -0 1
    outer loop
      vertex 10.1083 1.40056 50
      vertex 10.9038 0.928055 50
      vertex 9.82097 1.814 50
    endloop
  endfacet
  facet normal 0 0 1
    outer loop
      vertex 13.472 5.76561 50
      vertex 9.35178 5.77699 50
      vertex 9.32097 4.79999 50
    endloop
  endfacet
  facet normal 0 0 1
    outer loop
      vertex 10.9038 0.928055 50
      vertex 10.1083 1.40056 50
      vertex 10.4692 1.10524 50
    endloop
  endfacet
  facet normal 1 -0 0
    outer loop
      vertex 20 0 50
      vertex 20 20 0
      vertex 20 20 50
    endloop
  endfacet
  facet normal 1 0 0
    outer loop
      vertex 20 20 0
      vertex 20 0 50
      vertex 20 0 0
    endloop
  endfacet
  facet normal 0 0 -1
    outer loop
      vertex 0 0 0
      vertex 20 20 0
      vertex 20 0 0
    endloop
  endfacet
  facet normal -0 0 -1
    outer loop
      vertex 20 20 0
      vertex 0 0 0
      vertex 0 20 0
    endloop
  endfacet
  facet normal 0 -1 0
    outer loop
      vertex 0 0 50
      vertex 2.64298 0 47
      vertex 2.64298 0 50
    endloop
  endfacet
  facet normal 0 -1 0
    outer loop
      vertex 0 0 0
      vertex 4.82012 0 47
      vertex 2.64298 0 47
    endloop
  endfacet
  facet normal 0 -1 -0
    outer loop
      vertex 4.82012 0 47
      vertex 0 0 0
      vertex 10.4824 0 47
    endloop
  endfacet
  facet normal 0 -1 0
    outer loop
      vertex 20 0 0
      vertex 10.4824 0 47
      vertex 0 0 0
    endloop
  endfacet
  facet normal 0 -1 0
    outer loop
      vertex 0 0 0
      vertex 2.64298 0 47
      vertex 0 0 50
    endloop
  endfacet
  facet normal 0 -1 0
    outer loop
      vertex 4.82012 0 47
      vertex 10.4824 0 50
      vertex 4.82012 0 50
    endloop
  endfacet
  facet normal 0 -1 -0
    outer loop
      vertex 10.4824 0 50
      vertex 4.82012 0 47
      vertex 10.4824 0 47
    endloop
  endfacet
  facet normal 0 -1 0
    outer loop
      vertex 12.3131 0 47
      vertex 20 0 50
      vertex 12.3131 0 50
    endloop
  endfacet
  facet normal 0 -1 0
    outer loop
      vertex 10.4824 0 47
      vertex 20 0 0
      vertex 12.3131 0 47
    endloop
  endfacet
  facet normal 0 -1 0
    outer loop
      vertex 12.3131 0 47
      vertex 20 0 0
      vertex 20 0 50
    endloop
  endfacet
  facet normal 0 1 -0
    outer loop
      vertex 20 20 0
      vertex 0 20 50
      vertex 20 20 50
    endloop
  endfacet
  facet normal 0 1 0
    outer loop
      vertex 0 20 50
      vertex 20 20 0
      vertex 0 20 0
    endloop
  endfacet
  facet normal -0 0 1
    outer loop
      vertex 13.472 5.76561 47
      vertex 14.743 4.79999 47
      vertex 14.6926 5.94524 47
    endloop
  endfacet
  facet normal -0 0 1
    outer loop
      vertex 13.382 6.58849 47
      vertex 14.6926 5.94524 47
      vertex 14.5415 6.94099 47
    endloop
  endfacet
  facet normal 0 0 1
    outer loop
      vertex 13.4705 3.86505 47
      vertex 14.743 4.79999 47
      vertex 13.502 4.79999 47
    endloop
  endfacet
  facet normal -0 0 1
    outer loop
      vertex 13.232 7.26862 47
      vertex 14.5415 6.94099 47
      vertex 14.2896 7.78725 47
    endloop
  endfacet
  facet normal 0 0 1
    outer loop
      vertex 14.743 4.79999 47
      vertex 13.4705 3.86505 47
      vertex 14.69 3.67137 47
    endloop
  endfacet
  facet normal -0 0 1
    outer loop
      vertex 13.022 7.806 47
      vertex 14.2896 7.78725 47
      vertex 13.937 8.48399 47
    endloop
  endfacet
  facet normal 0 0 1
    outer loop
      vertex 13.376 3.05925 47
      vertex 14.69 3.67137 47
      vertex 13.4705 3.86505 47
    endloop
  endfacet
  facet normal 0 0 1
    outer loop
      vertex 14.69 3.67137 47
      vertex 13.376 3.05925 47
      vertex 14.5312 2.68449 47
    endloop
  endfacet
  facet normal 0 0 1
    outer loop
      vertex 12.743 8.21375 47
      vertex 13.937 8.48399 47
      vertex 13.479 9.02824 47
    endloop
  endfacet
  facet normal 0 0 1
    outer loop
      vertex 14.743 4.79999 47
      vertex 13.472 5.76561 47
      vertex 13.502 4.79999 47
    endloop
  endfacet
  facet normal 0 0 1
    outer loop
      vertex 14.6926 5.94524 47
      vertex 13.382 6.58849 47
      vertex 13.472 5.76561 47
    endloop
  endfacet
  facet normal 0 0 1
    outer loop
      vertex 14.5415 6.94099 47
      vertex 13.232 7.26862 47
      vertex 13.382 6.58849 47
    endloop
  endfacet
  facet normal 0 0 1
    outer loop
      vertex 14.2896 7.78725 47
      vertex 13.022 7.806 47
      vertex 13.232 7.26862 47
    endloop
  endfacet
  facet normal 0 0 1
    outer loop
      vertex 12.3862 8.50499 47
      vertex 13.479 9.02824 47
      vertex 12.91 9.41699 47
    endloop
  endfacet
  facet normal 0 0 1
    outer loop
      vertex 13.937 8.48399 47
      vertex 12.743 8.21375 47
      vertex 13.022 7.806 47
    endloop
  endfacet
  facet normal 0 0 1
    outer loop
      vertex 13.479 9.02824 47
      vertex 12.3862 8.50499 47
      vertex 12.743 8.21375 47
    endloop
  endfacet
  facet normal 0 0 1
    outer loop
      vertex 12.23 9.65024 47
      vertex 12.3862 8.50499 47
      vertex 12.91 9.41699 47
    endloop
  endfacet
  facet normal 0 0 1
    outer loop
      vertex 12.23 9.65024 47
      vertex 11.9515 8.67975 47
      vertex 12.3862 8.50499 47
    endloop
  endfacet
  facet normal 0 0 1
    outer loop
      vertex 11.439 9.728 47
      vertex 11.9515 8.67975 47
      vertex 12.23 9.65024 47
    endloop
  endfacet
  facet normal 0 0 1
    outer loop
      vertex 11.439 9.728 47
      vertex 11.439 8.73799 47
      vertex 11.9515 8.67975 47
    endloop
  endfacet
  facet normal 0 0 1
    outer loop
      vertex 11.439 9.728 47
      vertex 10.9133 8.68062 47
      vertex 11.439 8.73799 47
    endloop
  endfacet
  facet normal -0 0 1
    outer loop
      vertex 10.6269 9.65106 47
      vertex 10.9133 8.68062 47
      vertex 11.439 9.728 47
    endloop
  endfacet
  facet normal 0 0 1
    outer loop
      vertex 10.6269 9.65106 47
      vertex 10.4672 8.5085 47
      vertex 10.9133 8.68062 47
    endloop
  endfacet
  facet normal -0 0 1
    outer loop
      vertex 9.93172 9.42024 47
      vertex 10.4672 8.5085 47
      vertex 10.6269 9.65106 47
    endloop
  endfacet
  facet normal 0 0 1
    outer loop
      vertex 10.4672 8.5085 47
      vertex 9.93172 9.42024 47
      vertex 10.1008 8.22162 47
    endloop
  endfacet
  facet normal -0 0 1
    outer loop
      vertex 9.35339 9.03555 47
      vertex 10.1008 8.22162 47
      vertex 9.93172 9.42024 47
    endloop
  endfacet
  facet normal -0 0 1
    outer loop
      vertex 8.89197 8.49699 47
      vertex 10.1008 8.22162 47
      vertex 9.35339 9.03555 47
    endloop
  endfacet
  facet normal 0 0 1
    outer loop
      vertex 10.1008 8.22162 47
      vertex 8.89197 8.49699 47
      vertex 9.81396 7.81999 47
    endloop
  endfacet
  facet normal 0 0 1
    outer loop
      vertex 8.53978 7.80469 47
      vertex 9.81396 7.81999 47
      vertex 8.89197 8.49699 47
    endloop
  endfacet
  facet normal 0 0 1
    outer loop
      vertex 9.81396 7.81999 47
      vertex 8.53978 7.80469 47
      vertex 9.59827 7.28699 47
    endloop
  endfacet
  facet normal 0 0 1
    outer loop
      vertex 8.28821 6.95775 47
      vertex 9.59827 7.28699 47
      vertex 8.53978 7.80469 47
    endloop
  endfacet
  facet normal 0 0 1
    outer loop
      vertex 9.59827 7.28699 47
      vertex 8.28821 6.95775 47
      vertex 9.44421 6.60599 47
    endloop
  endfacet
  facet normal 0 0 1
    outer loop
      vertex 8.13727 5.95618 47
      vertex 9.44421 6.60599 47
      vertex 8.28821 6.95775 47
    endloop
  endfacet
  facet normal 0 -0 1
    outer loop
      vertex 8.13878 3.66568 47
      vertex 9.32097 4.79999 47
      vertex 8.08696 4.79999 47
    endloop
  endfacet
  facet normal 0 0 1
    outer loop
      vertex 9.44421 6.60599 47
      vertex 8.13727 5.95618 47
      vertex 9.35178 5.77699 47
    endloop
  endfacet
  facet normal 0 -0 1
    outer loop
      vertex 8.2942 2.67574 47
      vertex 9.32097 4.79999 47
      vertex 8.13878 3.66568 47
    endloop
  endfacet
  facet normal 0 0 1
    outer loop
      vertex 8.08696 4.79999 47
      vertex 9.35178 5.77699 47
      vertex 8.13727 5.95618 47
    endloop
  endfacet
  facet normal 0 -0 1
    outer loop
      vertex 8.55327 1.83018 47
      vertex 9.32097 4.79999 47
      vertex 8.2942 2.67574 47
    endloop
  endfacet
  facet normal 0 0 1
    outer loop
      vertex 9.35178 5.77699 47
      vertex 8.08696 4.79999 47
      vertex 9.32097 4.79999 47
    endloop
  endfacet
  facet normal 0 0 1
    outer loop
      vertex 9.32097 4.79999 47
      vertex 8.55327 1.83018 47
      vertex 8.91595 1.129 47
    endloop
  endfacet
  facet normal 0 0 1
    outer loop
      vertex 13.2185 2.38255 47
      vertex 14.5312 2.68449 47
      vertex 13.376 3.05925 47
    endloop
  endfacet
  facet normal 0 0 1
    outer loop
      vertex 14.5312 2.68449 47
      vertex 13.2185 2.38255 47
      vertex 14.2665 1.83937 47
    endloop
  endfacet
  facet normal 0 0 1
    outer loop
      vertex 12.998 1.83499 47
      vertex 14.2665 1.83937 47
      vertex 13.2185 2.38255 47
    endloop
  endfacet
  facet normal 0 0 1
    outer loop
      vertex 14.2665 1.83937 47
      vertex 12.998 1.83499 47
      vertex 13.896 1.13599 47
    endloop
  endfacet
  facet normal -0 0 1
    outer loop
      vertex 12.7098 1.41237 47
      vertex 13.896 1.13599 47
      vertex 12.998 1.83499 47
    endloop
  endfacet
  facet normal 0 0 1
    outer loop
      vertex 13.896 1.13599 47
      vertex 12.7098 1.41237 47
      vertex 13.4226 0.582993 47
    endloop
  endfacet
  facet normal -0 0 1
    outer loop
      vertex 12.3495 1.11049 47
      vertex 13.4226 0.582993 47
      vertex 12.7098 1.41237 47
    endloop
  endfacet
  facet normal 0 0 1
    outer loop
      vertex 13.4226 0.582993 47
      vertex 12.3495 1.11049 47
      vertex 12.8485 0.187988 47
    endloop
  endfacet
  facet normal 0 0 1
    outer loop
      vertex 12.3495 1.11049 47
      vertex 12.3131 0 47
      vertex 12.8485 0.187988 47
    endloop
  endfacet
  facet normal -0 0 1
    outer loop
      vertex 11.9168 0.929367 47
      vertex 12.3131 0 47
      vertex 12.3495 1.11049 47
    endloop
  endfacet
  facet normal -0 0 1
    outer loop
      vertex 11.412 0.868988 47
      vertex 12.3131 0 47
      vertex 11.9168 0.929367 47
    endloop
  endfacet
  facet normal 0 0 1
    outer loop
      vertex 10.4824 0 47
      vertex 11.412 0.868988 47
      vertex 10.9038 0.928055 47
    endloop
  endfacet
  facet normal 0 0 1
    outer loop
      vertex 11.412 0.868988 47
      vertex 10.4824 0 47
      vertex 12.3131 0 47
    endloop
  endfacet
  facet normal 0 0 1
    outer loop
      vertex 10.4692 1.10524 47
      vertex 10.4824 0 47
      vertex 10.9038 0.928055 47
    endloop
  endfacet
  facet normal 0 0 1
    outer loop
      vertex 9.38234 0.579056 47
      vertex 10.4692 1.10524 47
      vertex 10.1083 1.40056 47
    endloop
  endfacet
  facet normal 0 0 1
    outer loop
      vertex 10.4692 1.10524 47
      vertex 9.95146 0.186249 47
      vertex 10.4824 0 47
    endloop
  endfacet
  facet normal 0 0 1
    outer loop
      vertex 8.91595 1.129 47
      vertex 10.1083 1.40056 47
      vertex 9.82097 1.814 47
    endloop
  endfacet
  facet normal 0 0 1
    outer loop
      vertex 8.91595 1.129 47
      vertex 9.82097 1.814 47
      vertex 9.60222 2.35536 47
    endloop
  endfacet
  facet normal 0 0 1
    outer loop
      vertex 8.91595 1.129 47
      vertex 9.60222 2.35536 47
      vertex 9.44597 3.03349 47
    endloop
  endfacet
  facet normal 0 0 1
    outer loop
      vertex 10.4692 1.10524 47
      vertex 9.38234 0.579056 47
      vertex 9.95146 0.186249 47
    endloop
  endfacet
  facet normal 0 0 1
    outer loop
      vertex 8.91595 1.129 47
      vertex 9.44597 3.03349 47
      vertex 9.35222 3.84837 47
    endloop
  endfacet
  facet normal 0 0 1
    outer loop
      vertex 8.91595 1.129 47
      vertex 9.35222 3.84837 47
      vertex 9.32097 4.79999 47
    endloop
  endfacet
  facet normal 0 0 1
    outer loop
      vertex 10.1083 1.40056 47
      vertex 8.91595 1.129 47
      vertex 9.38234 0.579056 47
    endloop
  endfacet
  facet normal 0 0 1
    outer loop
      vertex 6.60199 9.536 47
      vertex 2.26799 8.49799 47
      vertex 6.60199 8.49799 47
    endloop
  endfacet
  facet normal -0 0 1
    outer loop
      vertex 1.15599 9.536 47
      vertex 2.26799 8.49799 47
      vertex 6.60199 9.536 47
    endloop
  endfacet
  facet normal 0 0 1
    outer loop
      vertex 1.15599 9.536 47
      vertex 2.084 5.46999 47
      vertex 2.26799 8.49799 47
    endloop
  endfacet
  facet normal 0 0 1
    outer loop
      vertex 0.835999 4.39799 47
      vertex 2.084 5.46999 47
      vertex 1.15599 9.536 47
    endloop
  endfacet
  facet normal 0 0 1
    outer loop
      vertex 2.084 5.46999 47
      vertex 0.835999 4.39799 47
      vertex 2.03 4.39799 47
    endloop
  endfacet
  facet normal -0 0 1
    outer loop
      vertex 5.85587 3.50755 47
      vertex 7.159 3.10799 47
      vertex 7.10649 3.73874 47
    endloop
  endfacet
  facet normal 0 0 1
    outer loop
      vertex 5.85587 3.50755 47
      vertex 7.10649 3.73874 47
      vertex 6.94899 4.30699 47
    endloop
  endfacet
  facet normal 0 0 1
    outer loop
      vertex 7.159 3.10799 47
      vertex 5.89099 3.08099 47
      vertex 7.10268 2.39462 47
    endloop
  endfacet
  facet normal 0 0 1
    outer loop
      vertex 5.75049 3.89124 47
      vertex 6.94899 4.30699 47
      vertex 6.68649 4.81274 47
    endloop
  endfacet
  facet normal -0 0 1
    outer loop
      vertex 5.85605 2.59262 47
      vertex 7.10268 2.39462 47
      vertex 5.89099 3.08099 47
    endloop
  endfacet
  facet normal 0 0 1
    outer loop
      vertex 5.57487 4.23206 47
      vertex 6.68649 4.81274 47
      vertex 6.31898 5.256 47
    endloop
  endfacet
  facet normal 0 0 1
    outer loop
      vertex 7.10268 2.39462 47
      vertex 5.85605 2.59262 47
      vertex 6.93375 1.76149 47
    endloop
  endfacet
  facet normal -0 0 1
    outer loop
      vertex 5.75124 2.15948 47
      vertex 6.93375 1.76149 47
      vertex 5.85605 2.59262 47
    endloop
  endfacet
  facet normal 0 0 1
    outer loop
      vertex 5.32899 4.53 47
      vertex 6.31898 5.256 47
      vertex 5.86305 5.61649 47
    endloop
  endfacet
  facet normal 0 0 1
    outer loop
      vertex 7.159 3.10799 47
      vertex 5.85587 3.50755 47
      vertex 5.89099 3.08099 47
    endloop
  endfacet
  facet normal 0 0 1
    outer loop
      vertex 6.94899 4.30699 47
      vertex 5.75049 3.89124 47
      vertex 5.85587 3.50755 47
    endloop
  endfacet
  facet normal 0 0 1
    outer loop
      vertex 6.68649 4.81274 47
      vertex 5.57487 4.23206 47
      vertex 5.75049 3.89124 47
    endloop
  endfacet
  facet normal 0 0 1
    outer loop
      vertex 5.02356 4.77193 47
      vertex 5.86305 5.61649 47
      vertex 5.33524 5.87399 47
    endloop
  endfacet
  facet normal 0 0 1
    outer loop
      vertex 6.31898 5.256 47
      vertex 5.32899 4.53 47
      vertex 5.57487 4.23206 47
    endloop
  endfacet
  facet normal 0 0 1
    outer loop
      vertex 5.86305 5.61649 47
      vertex 5.02356 4.77193 47
      vertex 5.32899 4.53 47
    endloop
  endfacet
  facet normal 0 0 1
    outer loop
      vertex 4.66924 4.94475 47
      vertex 5.33524 5.87399 47
      vertex 4.73555 6.02849 47
    endloop
  endfacet
  facet normal 0 0 1
    outer loop
      vertex 5.33524 5.87399 47
      vertex 4.66924 4.94475 47
      vertex 5.02356 4.77193 47
    endloop
  endfacet
  facet normal 0 0 1
    outer loop
      vertex 4.73555 6.02849 47
      vertex 4.26605 5.04843 47
      vertex 4.66924 4.94475 47
    endloop
  endfacet
  facet normal 0 0 1
    outer loop
      vertex 4.064 6.07999 47
      vertex 4.26605 5.04843 47
      vertex 4.73555 6.02849 47
    endloop
  endfacet
  facet normal 0 0 1
    outer loop
      vertex 4.064 6.07999 47
      vertex 3.814 5.08299 47
      vertex 4.26605 5.04843 47
    endloop
  endfacet
  facet normal -0 0 1
    outer loop
      vertex 3.49625 6.04187 47
      vertex 3.814 5.08299 47
      vertex 4.064 6.07999 47
    endloop
  endfacet
  facet normal 0 0 1
    outer loop
      vertex 3.814 5.08299 47
      vertex 3.49625 6.04187 47
      vertex 3.56975 5.07324 47
    endloop
  endfacet
  facet normal 0 0 1
    outer loop
      vertex 3.49625 6.04187 47
      vertex 3.334 5.04399 47
      vertex 3.56975 5.07324 47
    endloop
  endfacet
  facet normal -0 0 1
    outer loop
      vertex 2.97699 5.92749 47
      vertex 3.334 5.04399 47
      vertex 3.49625 6.04187 47
    endloop
  endfacet
  facet normal 0 0 1
    outer loop
      vertex 3.334 5.04399 47
      vertex 2.97699 5.92749 47
      vertex 3.10674 4.99524 47
    endloop
  endfacet
  facet normal -0 0 1
    outer loop
      vertex 2.50624 5.73686 47
      vertex 3.10674 4.99524 47
      vertex 2.97699 5.92749 47
    endloop
  endfacet
  facet normal 0 0 1
    outer loop
      vertex 3.10674 4.99524 47
      vertex 2.50624 5.73686 47
      vertex 2.88799 4.92699 47
    endloop
  endfacet
  facet normal 0 0 1
    outer loop
      vertex 2.88799 4.92699 47
      vertex 2.50624 5.73686 47
      vertex 2.67349 4.83543 47
    endloop
  endfacet
  facet normal -0 0 1
    outer loop
      vertex 2.084 5.46999 47
      vertex 2.67349 4.83543 47
      vertex 2.50624 5.73686 47
    endloop
  endfacet
  facet normal 0 0 1
    outer loop
      vertex 2.67349 4.83543 47
      vertex 2.084 5.46999 47
      vertex 2.459 4.71674 47
    endloop
  endfacet
  facet normal 0 0 1
    outer loop
      vertex 2.459 4.71674 47
      vertex 2.084 5.46999 47
      vertex 2.24449 4.57092 47
    endloop
  endfacet
  facet normal 0 0 1
    outer loop
      vertex 2.24449 4.57092 47
      vertex 2.084 5.46999 47
      vertex 2.03 4.39799 47
    endloop
  endfacet
  facet normal 0 0 1
    outer loop
      vertex 6.93375 1.76149 47
      vertex 5.75124 2.15948 47
      vertex 6.65218 1.20862 47
    endloop
  endfacet
  facet normal -0 0 1
    outer loop
      vertex 5.57655 1.78162 47
      vertex 6.65218 1.20862 47
      vertex 5.75124 2.15948 47
    endloop
  endfacet
  facet normal 0 0 1
    outer loop
      vertex 6.65218 1.20862 47
      vertex 5.57655 1.78162 47
      vertex 6.258 0.735992 47
    endloop
  endfacet
  facet normal -0 0 1
    outer loop
      vertex 5.33199 1.459 47
      vertex 6.258 0.735992 47
      vertex 5.57655 1.78162 47
    endloop
  endfacet
  facet normal 0 0 1
    outer loop
      vertex 6.258 0.735992 47
      vertex 5.33199 1.459 47
      vertex 5.76399 0.357986 47
    endloop
  endfacet
  facet normal -0 0 1
    outer loop
      vertex 5.02618 1.20087 47
      vertex 5.76399 0.357986 47
      vertex 5.33199 1.459 47
    endloop
  endfacet
  facet normal 0 0 1
    outer loop
      vertex 5.76399 0.357986 47
      vertex 5.02618 1.20087 47
      vertex 5.183 0.0879974 47
    endloop
  endfacet
  facet normal -0 0 1
    outer loop
      vertex 4.66675 1.01649 47
      vertex 5.183 0.0879974 47
      vertex 5.02618 1.20087 47
    endloop
  endfacet
  facet normal 0 0 1
    outer loop
      vertex 5.183 0.0879974 47
      vertex 4.66675 1.01649 47
      vertex 4.82012 0 47
    endloop
  endfacet
  facet normal -0 0 1
    outer loop
      vertex 4.25368 0.905869 47
      vertex 4.82012 0 47
      vertex 4.66675 1.01649 47
    endloop
  endfacet
  facet normal -0 0 1
    outer loop
      vertex 3.78699 0.868988 47
      vertex 4.82012 0 47
      vertex 4.25368 0.905869 47
    endloop
  endfacet
  facet normal 0 0 1
    outer loop
      vertex 2.64298 0 47
      vertex 3.78699 0.868988 47
      vertex 3.05968 0.957611 47
    endloop
  endfacet
  facet normal 0 0 1
    outer loop
      vertex 3.78699 0.868988 47
      vertex 2.64298 0 47
      vertex 4.82012 0 47
    endloop
  endfacet
  facet normal 0 0 1
    outer loop
      vertex 3.05968 0.957611 47
      vertex 2.54999 0.017746 47
      vertex 2.64298 0 47
    endloop
  endfacet
  facet normal 0 0 1
    outer loop
      vertex 2.48474 1.2235 47
      vertex 2.54999 0.017746 47
      vertex 3.05968 0.957611 47
    endloop
  endfacet
  facet normal 0 0 1
    outer loop
      vertex 1.59799 0.454987 47
      vertex 2.48474 1.2235 47
      vertex 2.06218 1.66661 47
    endloop
  endfacet
  facet normal 0 0 1
    outer loop
      vertex 2.48474 1.2235 47
      vertex 2.04175 0.199936 47
      vertex 2.54999 0.017746 47
    endloop
  endfacet
  facet normal 0 0 1
    outer loop
      vertex 0.704742 1.62462 47
      vertex 2.06218 1.66661 47
      vertex 1.79199 2.28699 47
    endloop
  endfacet
  facet normal 0 0 1
    outer loop
      vertex 2.48474 1.2235 47
      vertex 1.59799 0.454987 47
      vertex 2.04175 0.199936 47
    endloop
  endfacet
  facet normal 0 0 1
    outer loop
      vertex 2.06218 1.66661 47
      vertex 1.22475 0.779617 47
      vertex 1.59799 0.454987 47
    endloop
  endfacet
  facet normal 0 0 1
    outer loop
      vertex 2.06218 1.66661 47
      vertex 0.926987 1.16949 47
      vertex 1.22475 0.779617 47
    endloop
  endfacet
  facet normal 0 0 1
    outer loop
      vertex 2.06218 1.66661 47
      vertex 0.704742 1.62462 47
      vertex 0.926987 1.16949 47
    endloop
  endfacet
  facet normal 0 -0 1
    outer loop
      vertex 0.704742 1.62462 47
      vertex 1.79199 2.28699 47
      vertex 0.557999 2.14499 47
    endloop
  endfacet
  facet normal -0.331317 0.94352 0
    outer loop
      vertex 12.8485 0.187988 47
      vertex 12.3131 0 50
      vertex 12.8485 0.187988 50
    endloop
  endfacet
  facet normal -0.331317 0.94352 0
    outer loop
      vertex 12.3131 0 50
      vertex 12.8485 0.187988 47
      vertex 12.3131 0 47
    endloop
  endfacet
  facet normal -0.566813 0.823846 0
    outer loop
      vertex 13.4226 0.582993 47
      vertex 12.8485 0.187988 50
      vertex 13.4226 0.582993 50
    endloop
  endfacet
  facet normal -0.566813 0.823846 0
    outer loop
      vertex 12.8485 0.187988 50
      vertex 13.4226 0.582993 47
      vertex 12.8485 0.187988 47
    endloop
  endfacet
  facet normal -0.759678 0.650299 0
    outer loop
      vertex 13.4226 0.582993 47
      vertex 13.896 1.13599 50
      vertex 13.896 1.13599 47
    endloop
  endfacet
  facet normal -0.759678 0.650299 0
    outer loop
      vertex 13.896 1.13599 50
      vertex 13.4226 0.582993 47
      vertex 13.4226 0.582993 50
    endloop
  endfacet
  facet normal -0.884733 0.466098 0
    outer loop
      vertex 13.896 1.13599 47
      vertex 14.2665 1.83937 50
      vertex 14.2665 1.83937 47
    endloop
  endfacet
  facet normal -0.884733 0.466098 0
    outer loop
      vertex 14.2665 1.83937 50
      vertex 13.896 1.13599 47
      vertex 13.896 1.13599 50
    endloop
  endfacet
  facet normal -0.954294 0.298869 0
    outer loop
      vertex 14.2665 1.83937 47
      vertex 14.5312 2.68449 50
      vertex 14.5312 2.68449 47
    endloop
  endfacet
  facet normal -0.954294 0.298869 0
    outer loop
      vertex 14.5312 2.68449 50
      vertex 14.2665 1.83937 47
      vertex 14.2665 1.83937 50
    endloop
  endfacet
  facet normal -0.987298 0.158881 0
    outer loop
      vertex 14.5312 2.68449 47
      vertex 14.69 3.67137 50
      vertex 14.69 3.67137 47
    endloop
  endfacet
  facet normal -0.987298 0.158881 0
    outer loop
      vertex 14.69 3.67137 50
      vertex 14.5312 2.68449 47
      vertex 14.5312 2.68449 50
    endloop
  endfacet
  facet normal -0.998901 0.0468625 0
    outer loop
      vertex 14.69 3.67137 47
      vertex 14.743 4.79999 50
      vertex 14.743 4.79999 47
    endloop
  endfacet
  facet normal -0.998901 0.0468625 0
    outer loop
      vertex 14.743 4.79999 50
      vertex 14.69 3.67137 47
      vertex 14.69 3.67137 50
    endloop
  endfacet
  facet normal -0.999034 -0.0439519 0
    outer loop
      vertex 14.743 4.79999 47
      vertex 14.6926 5.94524 50
      vertex 14.6926 5.94524 47
    endloop
  endfacet
  facet normal -0.999034 -0.0439519 0
    outer loop
      vertex 14.6926 5.94524 50
      vertex 14.743 4.79999 47
      vertex 14.743 4.79999 50
    endloop
  endfacet
  facet normal -0.988679 -0.150049 0
    outer loop
      vertex 14.6926 5.94524 47
      vertex 14.5415 6.94099 50
      vertex 14.5415 6.94099 47
    endloop
  endfacet
  facet normal -0.988679 -0.150049 0
    outer loop
      vertex 14.5415 6.94099 50
      vertex 14.6926 5.94524 47
      vertex 14.6926 5.94524 50
    endloop
  endfacet
  facet normal -0.958447 -0.28527 0
    outer loop
      vertex 14.5415 6.94099 47
      vertex 14.2896 7.78725 50
      vertex 14.2896 7.78725 47
    endloop
  endfacet
  facet normal -0.958447 -0.28527 0
    outer loop
      vertex 14.2896 7.78725 50
      vertex 14.5415 6.94099 47
      vertex 14.5415 6.94099 50
    endloop
  endfacet
  facet normal -0.892244 -0.451554 0
    outer loop
      vertex 14.2896 7.78725 47
      vertex 13.937 8.48399 50
      vertex 13.937 8.48399 47
    endloop
  endfacet
  facet normal -0.892244 -0.451554 0
    outer loop
      vertex 13.937 8.48399 50
      vertex 14.2896 7.78725 47
      vertex 14.2896 7.78725 50
    endloop
  endfacet
  facet normal -0.765125 -0.643882 0
    outer loop
      vertex 13.937 8.48399 47
      vertex 13.479 9.02824 50
      vertex 13.479 9.02824 47
    endloop
  endfacet
  facet normal -0.765125 -0.643882 0
    outer loop
      vertex 13.479 9.02824 50
      vertex 13.937 8.48399 47
      vertex 13.937 8.48399 50
    endloop
  endfacet
  facet normal -0.564123 -0.825691 0
    outer loop
      vertex 12.91 9.41699 47
      vertex 13.479 9.02824 50
      vertex 12.91 9.41699 50
    endloop
  endfacet
  facet normal -0.564123 -0.825691 -0
    outer loop
      vertex 13.479 9.02824 50
      vertex 12.91 9.41699 47
      vertex 13.479 9.02824 47
    endloop
  endfacet
  facet normal -0.324456 -0.945901 0
    outer loop
      vertex 12.23 9.65024 47
      vertex 12.91 9.41699 50
      vertex 12.23 9.65024 50
    endloop
  endfacet
  facet normal -0.324456 -0.945901 -0
    outer loop
      vertex 12.91 9.41699 50
      vertex 12.23 9.65024 47
      vertex 12.91 9.41699 47
    endloop
  endfacet
  facet normal -0.0978328 -0.995203 0
    outer loop
      vertex 11.439 9.728 47
      vertex 12.23 9.65024 50
      vertex 11.439 9.728 50
    endloop
  endfacet
  facet normal -0.0978328 -0.995203 -0
    outer loop
      vertex 12.23 9.65024 50
      vertex 11.439 9.728 47
      vertex 12.23 9.65024 47
    endloop
  endfacet
  facet normal 0.0943165 -0.995542 0
    outer loop
      vertex 10.6269 9.65106 47
      vertex 11.439 9.728 50
      vertex 10.6269 9.65106 50
    endloop
  endfacet
  facet normal 0.0943165 -0.995542 0
    outer loop
      vertex 11.439 9.728 50
      vertex 10.6269 9.65106 47
      vertex 11.439 9.728 47
    endloop
  endfacet
  facet normal 0.315115 -0.949053 0
    outer loop
      vertex 9.93172 9.42024 47
      vertex 10.6269 9.65106 50
      vertex 9.93172 9.42024 50
    endloop
  endfacet
  facet normal 0.315115 -0.949053 0
    outer loop
      vertex 10.6269 9.65106 50
      vertex 9.93172 9.42024 47
      vertex 10.6269 9.65106 47
    endloop
  endfacet
  facet normal 0.553843 -0.832621 0
    outer loop
      vertex 9.35339 9.03555 47
      vertex 9.93172 9.42024 50
      vertex 9.35339 9.03555 50
    endloop
  endfacet
  facet normal 0.553843 -0.832621 0
    outer loop
      vertex 9.93172 9.42024 50
      vertex 9.35339 9.03555 47
      vertex 9.93172 9.42024 47
    endloop
  endfacet
  facet normal 0.759393 -0.650632 0
    outer loop
      vertex 8.89197 8.49699 50
      vertex 9.35339 9.03555 47
      vertex 9.35339 9.03555 50
    endloop
  endfacet
  facet normal 0.759393 -0.650632 0
    outer loop
      vertex 9.35339 9.03555 47
      vertex 8.89197 8.49699 50
      vertex 8.89197 8.49699 47
    endloop
  endfacet
  facet normal 0.891298 -0.453418 0
    outer loop
      vertex 8.53978 7.80469 50
      vertex 8.89197 8.49699 47
      vertex 8.89197 8.49699 50
    endloop
  endfacet
  facet normal 0.891298 -0.453418 0
    outer loop
      vertex 8.89197 8.49699 47
      vertex 8.53978 7.80469 50
      vertex 8.53978 7.80469 47
    endloop
  endfacet
  facet normal 0.958605 -0.28474 0
    outer loop
      vertex 8.28821 6.95775 50
      vertex 8.53978 7.80469 47
      vertex 8.53978 7.80469 50
    endloop
  endfacet
  facet normal 0.958605 -0.28474 0
    outer loop
      vertex 8.53978 7.80469 47
      vertex 8.28821 6.95775 50
      vertex 8.28821 6.95775 47
    endloop
  endfacet
  facet normal 0.988834 -0.14902 0
    outer loop
      vertex 8.13727 5.95618 50
      vertex 8.28821 6.95775 47
      vertex 8.28821 6.95775 50
    endloop
  endfacet
  facet normal 0.988834 -0.14902 0
    outer loop
      vertex 8.28821 6.95775 47
      vertex 8.13727 5.95618 50
      vertex 8.13727 5.95618 47
    endloop
  endfacet
  facet normal 0.999055 -0.043471 0
    outer loop
      vertex 8.08696 4.79999 50
      vertex 8.13727 5.95618 47
      vertex 8.13727 5.95618 50
    endloop
  endfacet
  facet normal 0.999055 -0.043471 0
    outer loop
      vertex 8.13727 5.95618 47
      vertex 8.08696 4.79999 50
      vertex 8.08696 4.79999 47
    endloop
  endfacet
  facet normal 0.998958 0.0456356 0
    outer loop
      vertex 8.13878 3.66568 50
      vertex 8.08696 4.79999 47
      vertex 8.08696 4.79999 50
    endloop
  endfacet
  facet normal 0.998958 0.0456356 0
    outer loop
      vertex 8.08696 4.79999 47
      vertex 8.13878 3.66568 50
      vertex 8.13878 3.66568 47
    endloop
  endfacet
  facet normal 0.987898 0.155105 0
    outer loop
      vertex 8.2942 2.67574 50
      vertex 8.13878 3.66568 47
      vertex 8.13878 3.66568 50
    endloop
  endfacet
  facet normal 0.987898 0.155105 0
    outer loop
      vertex 8.13878 3.66568 47
      vertex 8.2942 2.67574 50
      vertex 8.2942 2.67574 47
    endloop
  endfacet
  facet normal 0.95613 0.292943 0
    outer loop
      vertex 8.55327 1.83018 50
      vertex 8.2942 2.67574 47
      vertex 8.2942 2.67574 50
    endloop
  endfacet
  facet normal 0.95613 0.292943 0
    outer loop
      vertex 8.2942 2.67574 47
      vertex 8.55327 1.83018 50
      vertex 8.55327 1.83018 47
    endloop
  endfacet
  facet normal 0.888216 0.459426 0
    outer loop
      vertex 8.91595 1.129 50
      vertex 8.55327 1.83018 47
      vertex 8.55327 1.83018 50
    endloop
  endfacet
  facet normal 0.888216 0.459426 0
    outer loop
      vertex 8.55327 1.83018 47
      vertex 8.91595 1.129 50
      vertex 8.91595 1.129 47
    endloop
  endfacet
  facet normal 0.762668 0.64679 0
    outer loop
      vertex 9.38234 0.579056 50
      vertex 8.91595 1.129 47
      vertex 8.91595 1.129 50
    endloop
  endfacet
  facet normal 0.762668 0.64679 0
    outer loop
      vertex 8.91595 1.129 47
      vertex 9.38234 0.579056 50
      vertex 9.38234 0.579056 47
    endloop
  endfacet
  facet normal 0.568036 0.823004 -0
    outer loop
      vertex 9.95146 0.186249 47
      vertex 9.38234 0.579056 50
      vertex 9.95146 0.186249 50
    endloop
  endfacet
  facet normal 0.568036 0.823004 0
    outer loop
      vertex 9.38234 0.579056 50
      vertex 9.95146 0.186249 47
      vertex 9.38234 0.579056 47
    endloop
  endfacet
  facet normal 0.330996 0.943632 -0
    outer loop
      vertex 10.4824 0 47
      vertex 9.95146 0.186249 50
      vertex 10.4824 0 50
    endloop
  endfacet
  facet normal 0.330996 0.943632 0
    outer loop
      vertex 9.95146 0.186249 50
      vertex 10.4824 0 47
      vertex 9.95146 0.186249 47
    endloop
  endfacet
  facet normal -0.377549 -0.92599 0
    outer loop
      vertex 10.4692 1.10524 47
      vertex 10.9038 0.928055 50
      vertex 10.4692 1.10524 50
    endloop
  endfacet
  facet normal -0.377549 -0.92599 -0
    outer loop
      vertex 10.9038 0.928055 50
      vertex 10.4692 1.10524 47
      vertex 10.9038 0.928055 47
    endloop
  endfacet
  facet normal -0.633252 -0.773946 0
    outer loop
      vertex 10.1083 1.40056 47
      vertex 10.4692 1.10524 50
      vertex 10.1083 1.40056 50
    endloop
  endfacet
  facet normal -0.633252 -0.773946 -0
    outer loop
      vertex 10.4692 1.10524 50
      vertex 10.1083 1.40056 47
      vertex 10.4692 1.10524 47
    endloop
  endfacet
  facet normal -0.821185 -0.570662 0
    outer loop
      vertex 10.1083 1.40056 47
      vertex 9.82097 1.814 50
      vertex 9.82097 1.814 47
    endloop
  endfacet
  facet normal -0.821185 -0.570662 0
    outer loop
      vertex 9.82097 1.814 50
      vertex 10.1083 1.40056 47
      vertex 10.1083 1.40056 50
    endloop
  endfacet
  facet normal -0.92717 -0.374641 0
    outer loop
      vertex 9.82097 1.814 47
      vertex 9.60222 2.35536 50
      vertex 9.60222 2.35536 47
    endloop
  endfacet
  facet normal -0.92717 -0.374641 0
    outer loop
      vertex 9.60222 2.35536 50
      vertex 9.82097 1.814 47
      vertex 9.82097 1.814 50
    endloop
  endfacet
  facet normal -0.974467 -0.22453 0
    outer loop
      vertex 9.60222 2.35536 47
      vertex 9.44597 3.03349 50
      vertex 9.44597 3.03349 47
    endloop
  endfacet
  facet normal -0.974467 -0.22453 0
    outer loop
      vertex 9.44597 3.03349 50
      vertex 9.60222 2.35536 47
      vertex 9.60222 2.35536 50
    endloop
  endfacet
  facet normal -0.993447 -0.114294 0
    outer loop
      vertex 9.44597 3.03349 47
      vertex 9.35222 3.84837 50
      vertex 9.35222 3.84837 47
    endloop
  endfacet
  facet normal -0.993447 -0.114294 0
    outer loop
      vertex 9.35222 3.84837 50
      vertex 9.44597 3.03349 47
      vertex 9.44597 3.03349 50
    endloop
  endfacet
  facet normal -0.999461 -0.0328212 0
    outer loop
      vertex 9.35222 3.84837 47
      vertex 9.32097 4.79999 50
      vertex 9.32097 4.79999 47
    endloop
  endfacet
  facet normal -0.999461 -0.0328212 0
    outer loop
      vertex 9.32097 4.79999 50
      vertex 9.35222 3.84837 47
      vertex 9.35222 3.84837 50
    endloop
  endfacet
  facet normal -0.999503 0.0315169 0
    outer loop
      vertex 9.32097 4.79999 47
      vertex 9.35178 5.77699 50
      vertex 9.35178 5.77699 47
    endloop
  endfacet
  facet normal -0.999503 0.0315169 0
    outer loop
      vertex 9.35178 5.77699 50
      vertex 9.32097 4.79999 47
      vertex 9.32097 4.79999 50
    endloop
  endfacet
  facet normal -0.993841 0.110819 0
    outer loop
      vertex 9.35178 5.77699 47
      vertex 9.44421 6.60599 50
      vertex 9.44421 6.60599 47
    endloop
  endfacet
  facet normal -0.993841 0.110819 0
    outer loop
      vertex 9.44421 6.60599 50
      vertex 9.35178 5.77699 47
      vertex 9.35178 5.77699 50
    endloop
  endfacet
  facet normal -0.975355 0.220641 0
    outer loop
      vertex 9.44421 6.60599 47
      vertex 9.59827 7.28699 50
      vertex 9.59827 7.28699 47
    endloop
  endfacet
  facet normal -0.975355 0.220641 0
    outer loop
      vertex 9.59827 7.28699 50
      vertex 9.44421 6.60599 47
      vertex 9.44421 6.60599 50
    endloop
  endfacet
  facet normal -0.926972 0.37513 0
    outer loop
      vertex 9.59827 7.28699 47
      vertex 9.81396 7.81999 50
      vertex 9.81396 7.81999 47
    endloop
  endfacet
  facet normal -0.926972 0.37513 0
    outer loop
      vertex 9.81396 7.81999 50
      vertex 9.59827 7.28699 47
      vertex 9.59827 7.28699 50
    endloop
  endfacet
  facet normal -0.813802 0.581142 0
    outer loop
      vertex 9.81396 7.81999 47
      vertex 10.1008 8.22162 50
      vertex 10.1008 8.22162 47
    endloop
  endfacet
  facet normal -0.813802 0.581142 0
    outer loop
      vertex 10.1008 8.22162 50
      vertex 9.81396 7.81999 47
      vertex 9.81396 7.81999 50
    endloop
  endfacet
  facet normal -0.616444 0.787399 0
    outer loop
      vertex 10.4672 8.5085 47
      vertex 10.1008 8.22162 50
      vertex 10.4672 8.5085 50
    endloop
  endfacet
  facet normal -0.616444 0.787399 0
    outer loop
      vertex 10.1008 8.22162 50
      vertex 10.4672 8.5085 47
      vertex 10.1008 8.22162 47
    endloop
  endfacet
  facet normal -0.359995 0.932954 0
    outer loop
      vertex 10.9133 8.68062 47
      vertex 10.4672 8.5085 50
      vertex 10.9133 8.68062 50
    endloop
  endfacet
  facet normal -0.359995 0.932954 0
    outer loop
      vertex 10.4672 8.5085 50
      vertex 10.9133 8.68062 47
      vertex 10.4672 8.5085 47
    endloop
  endfacet
  facet normal -0.108493 0.994097 0
    outer loop
      vertex 11.439 8.73799 47
      vertex 10.9133 8.68062 50
      vertex 11.439 8.73799 50
    endloop
  endfacet
  facet normal -0.108493 0.994097 0
    outer loop
      vertex 10.9133 8.68062 50
      vertex 11.439 8.73799 47
      vertex 10.9133 8.68062 47
    endloop
  endfacet
  facet normal 0.112905 0.993606 -0
    outer loop
      vertex 11.9515 8.67975 47
      vertex 11.439 8.73799 50
      vertex 11.9515 8.67975 50
    endloop
  endfacet
  facet normal 0.112905 0.993606 0
    outer loop
      vertex 11.439 8.73799 50
      vertex 11.9515 8.67975 47
      vertex 11.439 8.73799 47
    endloop
  endfacet
  facet normal 0.373013 0.927826 -0
    outer loop
      vertex 12.3862 8.50499 47
      vertex 11.9515 8.67975 50
      vertex 12.3862 8.50499 50
    endloop
  endfacet
  facet normal 0.373013 0.927826 0
    outer loop
      vertex 11.9515 8.67975 50
      vertex 12.3862 8.50499 47
      vertex 11.9515 8.67975 47
    endloop
  endfacet
  facet normal 0.632337 0.774693 -0
    outer loop
      vertex 12.743 8.21375 47
      vertex 12.3862 8.50499 50
      vertex 12.743 8.21375 50
    endloop
  endfacet
  facet normal 0.632337 0.774693 0
    outer loop
      vertex 12.3862 8.50499 50
      vertex 12.743 8.21375 47
      vertex 12.3862 8.50499 47
    endloop
  endfacet
  facet normal 0.825357 0.564611 0
    outer loop
      vertex 13.022 7.806 50
      vertex 12.743 8.21375 47
      vertex 12.743 8.21375 50
    endloop
  endfacet
  facet normal 0.825357 0.564611 0
    outer loop
      vertex 12.743 8.21375 47
      vertex 13.022 7.806 50
      vertex 13.022 7.806 47
    endloop
  endfacet
  facet normal 0.931404 0.363987 0
    outer loop
      vertex 13.232 7.26862 50
      vertex 13.022 7.806 47
      vertex 13.022 7.806 50
    endloop
  endfacet
  facet normal 0.931404 0.363987 0
    outer loop
      vertex 13.022 7.806 47
      vertex 13.232 7.26862 50
      vertex 13.232 7.26862 47
    endloop
  endfacet
  facet normal 0.976534 0.215362 0
    outer loop
      vertex 13.382 6.58849 50
      vertex 13.232 7.26862 47
      vertex 13.232 7.26862 50
    endloop
  endfacet
  facet normal 0.976534 0.215362 0
    outer loop
      vertex 13.232 7.26862 47
      vertex 13.382 6.58849 50
      vertex 13.382 6.58849 47
    endloop
  endfacet
  facet normal 0.994072 0.10872 0
    outer loop
      vertex 13.472 5.76561 50
      vertex 13.382 6.58849 47
      vertex 13.382 6.58849 50
    endloop
  endfacet
  facet normal 0.994072 0.10872 0
    outer loop
      vertex 13.382 6.58849 47
      vertex 13.472 5.76561 50
      vertex 13.472 5.76561 47
    endloop
  endfacet
  facet normal 0.999517 0.0310676 0
    outer loop
      vertex 13.502 4.79999 50
      vertex 13.472 5.76561 47
      vertex 13.472 5.76561 50
    endloop
  endfacet
  facet normal 0.999517 0.0310676 0
    outer loop
      vertex 13.472 5.76561 47
      vertex 13.502 4.79999 50
      vertex 13.502 4.79999 47
    endloop
  endfacet
  facet normal 0.999433 -0.0336831 0
    outer loop
      vertex 13.4705 3.86505 50
      vertex 13.502 4.79999 47
      vertex 13.502 4.79999 50
    endloop
  endfacet
  facet normal 0.999433 -0.0336831 0
    outer loop
      vertex 13.502 4.79999 47
      vertex 13.4705 3.86505 50
      vertex 13.4705 3.86505 47
    endloop
  endfacet
  facet normal 0.993194 -0.116474 0
    outer loop
      vertex 13.376 3.05925 50
      vertex 13.4705 3.86505 47
      vertex 13.4705 3.86505 50
    endloop
  endfacet
  facet normal 0.993194 -0.116474 0
    outer loop
      vertex 13.4705 3.86505 47
      vertex 13.376 3.05925 50
      vertex 13.376 3.05925 47
    endloop
  endfacet
  facet normal 0.973967 -0.226691 0
    outer loop
      vertex 13.2185 2.38255 50
      vertex 13.376 3.05925 47
      vertex 13.376 3.05925 50
    endloop
  endfacet
  facet normal 0.973967 -0.226691 0
    outer loop
      vertex 13.376 3.05925 47
      vertex 13.2185 2.38255 50
      vertex 13.2185 2.38255 47
    endloop
  endfacet
  facet normal 0.92761 -0.373551 0
    outer loop
      vertex 12.998 1.83499 50
      vertex 13.2185 2.38255 47
      vertex 13.2185 2.38255 50
    endloop
  endfacet
  facet normal 0.92761 -0.373551 0
    outer loop
      vertex 13.2185 2.38255 47
      vertex 12.998 1.83499 50
      vertex 12.998 1.83499 47
    endloop
  endfacet
  facet normal 0.82626 -0.56329 0
    outer loop
      vertex 12.7098 1.41237 50
      vertex 12.998 1.83499 47
      vertex 12.998 1.83499 50
    endloop
  endfacet
  facet normal 0.82626 -0.56329 0
    outer loop
      vertex 12.998 1.83499 47
      vertex 12.7098 1.41237 50
      vertex 12.7098 1.41237 47
    endloop
  endfacet
  facet normal 0.642143 -0.766585 0
    outer loop
      vertex 12.3495 1.11049 47
      vertex 12.7098 1.41237 50
      vertex 12.3495 1.11049 50
    endloop
  endfacet
  facet normal 0.642143 -0.766585 0
    outer loop
      vertex 12.7098 1.41237 50
      vertex 12.3495 1.11049 47
      vertex 12.7098 1.41237 47
    endloop
  endfacet
  facet normal 0.386186 -0.922421 0
    outer loop
      vertex 11.9168 0.929367 47
      vertex 12.3495 1.11049 50
      vertex 11.9168 0.929367 50
    endloop
  endfacet
  facet normal 0.386186 -0.922421 0
    outer loop
      vertex 12.3495 1.11049 50
      vertex 11.9168 0.929367 47
      vertex 12.3495 1.11049 47
    endloop
  endfacet
  facet normal 0.118744 -0.992925 0
    outer loop
      vertex 11.412 0.868988 47
      vertex 11.9168 0.929367 50
      vertex 11.412 0.868988 50
    endloop
  endfacet
  facet normal 0.118744 -0.992925 0
    outer loop
      vertex 11.9168 0.929367 50
      vertex 11.412 0.868988 47
      vertex 11.9168 0.929367 47
    endloop
  endfacet
  facet normal -0.115455 -0.993313 0
    outer loop
      vertex 10.9038 0.928055 47
      vertex 11.412 0.868988 50
      vertex 10.9038 0.928055 50
    endloop
  endfacet
  facet normal -0.115455 -0.993313 -0
    outer loop
      vertex 11.412 0.868988 50
      vertex 10.9038 0.928055 47
      vertex 11.412 0.868988 47
    endloop
  endfacet
  facet normal -0.235666 0.971834 0
    outer loop
      vertex 5.183 0.0879974 47
      vertex 4.82012 0 50
      vertex 5.183 0.0879974 50
    endloop
  endfacet
  facet normal -0.235666 0.971834 0
    outer loop
      vertex 4.82012 0 50
      vertex 5.183 0.0879974 47
      vertex 4.82012 0 47
    endloop
  endfacet
  facet normal -0.421422 0.906865 0
    outer loop
      vertex 5.76399 0.357986 47
      vertex 5.183 0.0879974 50
      vertex 5.76399 0.357986 50
    endloop
  endfacet
  facet normal -0.421422 0.906865 0
    outer loop
      vertex 5.183 0.0879974 50
      vertex 5.76399 0.357986 47
      vertex 5.183 0.0879974 47
    endloop
  endfacet
  facet normal -0.607692 0.794173 0
    outer loop
      vertex 6.258 0.735992 47
      vertex 5.76399 0.357986 50
      vertex 6.258 0.735992 50
    endloop
  endfacet
  facet normal -0.607692 0.794173 0
    outer loop
      vertex 5.76399 0.357986 50
      vertex 6.258 0.735992 47
      vertex 5.76399 0.357986 47
    endloop
  endfacet
  facet normal -0.767961 0.640497 0
    outer loop
      vertex 6.258 0.735992 47
      vertex 6.65218 1.20862 50
      vertex 6.65218 1.20862 47
    endloop
  endfacet
  facet normal -0.767961 0.640497 0
    outer loop
      vertex 6.65218 1.20862 50
      vertex 6.258 0.735992 47
      vertex 6.258 0.735992 50
    endloop
  endfacet
  facet normal -0.891092 0.453822 0
    outer loop
      vertex 6.65218 1.20862 47
      vertex 6.93375 1.76149 50
      vertex 6.93375 1.76149 47
    endloop
  endfacet
  facet normal -0.891092 0.453822 0
    outer loop
      vertex 6.93375 1.76149 50
      vertex 6.65218 1.20862 47
      vertex 6.65218 1.20862 50
    endloop
  endfacet
  facet normal -0.966199 0.257797 0
    outer loop
      vertex 6.93375 1.76149 47
      vertex 7.10268 2.39462 50
      vertex 7.10268 2.39462 47
    endloop
  endfacet
  facet normal -0.966199 0.257797 0
    outer loop
      vertex 7.10268 2.39462 50
      vertex 6.93375 1.76149 47
      vertex 6.93375 1.76149 50
    endloop
  endfacet
  facet normal -0.996898 0.0787053 0
    outer loop
      vertex 7.10268 2.39462 47
      vertex 7.159 3.10799 50
      vertex 7.159 3.10799 47
    endloop
  endfacet
  facet normal -0.996898 0.0787053 0
    outer loop
      vertex 7.159 3.10799 50
      vertex 7.10268 2.39462 47
      vertex 7.10268 2.39462 50
    endloop
  endfacet
  facet normal -0.996553 -0.0829557 0
    outer loop
      vertex 7.159 3.10799 47
      vertex 7.10649 3.73874 50
      vertex 7.10649 3.73874 47
    endloop
  endfacet
  facet normal -0.996553 -0.0829557 0
    outer loop
      vertex 7.10649 3.73874 50
      vertex 7.159 3.10799 47
      vertex 7.159 3.10799 50
    endloop
  endfacet
  facet normal -0.963669 -0.267098 0
    outer loop
      vertex 7.10649 3.73874 47
      vertex 6.94899 4.30699 50
      vertex 6.94899 4.30699 47
    endloop
  endfacet
  facet normal -0.963669 -0.267098 0
    outer loop
      vertex 6.94899 4.30699 50
      vertex 7.10649 3.73874 47
      vertex 7.10649 3.73874 50
    endloop
  endfacet
  facet normal -0.887572 -0.46067 0
    outer loop
      vertex 6.94899 4.30699 47
      vertex 6.68649 4.81274 50
      vertex 6.68649 4.81274 47
    endloop
  endfacet
  facet normal -0.887572 -0.46067 0
    outer loop
      vertex 6.68649 4.81274 50
      vertex 6.94899 4.30699 47
      vertex 6.94899 4.30699 50
    endloop
  endfacet
  facet normal -0.769815 -0.638267 0
    outer loop
      vertex 6.68649 4.81274 47
      vertex 6.31898 5.256 50
      vertex 6.31898 5.256 47
    endloop
  endfacet
  facet normal -0.769815 -0.638267 0
    outer loop
      vertex 6.31898 5.256 50
      vertex 6.68649 4.81274 47
      vertex 6.68649 4.81274 50
    endloop
  endfacet
  facet normal -0.620219 -0.784429 0
    outer loop
      vertex 5.86305 5.61649 47
      vertex 6.31898 5.256 50
      vertex 5.86305 5.61649 50
    endloop
  endfacet
  facet normal -0.620219 -0.784429 -0
    outer loop
      vertex 6.31898 5.256 50
      vertex 5.86305 5.61649 47
      vertex 6.31898 5.256 47
    endloop
  endfacet
  facet normal -0.438473 -0.898744 0
    outer loop
      vertex 5.33524 5.87399 47
      vertex 5.86305 5.61649 50
      vertex 5.33524 5.87399 50
    endloop
  endfacet
  facet normal -0.438473 -0.898744 -0
    outer loop
      vertex 5.86305 5.61649 50
      vertex 5.33524 5.87399 47
      vertex 5.86305 5.61649 47
    endloop
  endfacet
  facet normal -0.249481 -0.96838 0
    outer loop
      vertex 4.73555 6.02849 47
      vertex 5.33524 5.87399 50
      vertex 4.73555 6.02849 50
    endloop
  endfacet
  facet normal -0.249481 -0.96838 -0
    outer loop
      vertex 5.33524 5.87399 50
      vertex 4.73555 6.02849 47
      vertex 5.33524 5.87399 47
    endloop
  endfacet
  facet normal -0.0764609 -0.997073 0
    outer loop
      vertex 4.064 6.07999 47
      vertex 4.73555 6.02849 50
      vertex 4.064 6.07999 50
    endloop
  endfacet
  facet normal -0.0764609 -0.997073 -0
    outer loop
      vertex 4.73555 6.02849 50
      vertex 4.064 6.07999 47
      vertex 4.73555 6.02849 47
    endloop
  endfacet
  facet normal 0.0669853 -0.997754 0
    outer loop
      vertex 3.49625 6.04187 47
      vertex 4.064 6.07999 50
      vertex 3.49625 6.04187 50
    endloop
  endfacet
  facet normal 0.0669853 -0.997754 0
    outer loop
      vertex 4.064 6.07999 50
      vertex 3.49625 6.04187 47
      vertex 4.064 6.07999 47
    endloop
  endfacet
  facet normal 0.215119 -0.976588 0
    outer loop
      vertex 2.97699 5.92749 47
      vertex 3.49625 6.04187 50
      vertex 2.97699 5.92749 50
    endloop
  endfacet
  facet normal 0.215119 -0.976588 0
    outer loop
      vertex 3.49625 6.04187 50
      vertex 2.97699 5.92749 47
      vertex 3.49625 6.04187 47
    endloop
  endfacet
  facet normal 0.37534 -0.926887 0
    outer loop
      vertex 2.50624 5.73686 47
      vertex 2.97699 5.92749 50
      vertex 2.50624 5.73686 50
    endloop
  endfacet
  facet normal 0.37534 -0.926887 0
    outer loop
      vertex 2.97699 5.92749 50
      vertex 2.50624 5.73686 47
      vertex 2.97699 5.92749 47
    endloop
  endfacet
  facet normal 0.534276 -0.84531 0
    outer loop
      vertex 2.084 5.46999 47
      vertex 2.50624 5.73686 50
      vertex 2.084 5.46999 50
    endloop
  endfacet
  facet normal 0.534276 -0.84531 0
    outer loop
      vertex 2.50624 5.73686 50
      vertex 2.084 5.46999 47
      vertex 2.50624 5.73686 47
    endloop
  endfacet
  facet normal -0.998159 0.0606512 0
    outer loop
      vertex 2.084 5.46999 47
      vertex 2.26799 8.49799 50
      vertex 2.26799 8.49799 47
    endloop
  endfacet
  facet normal -0.998159 0.0606512 0
    outer loop
      vertex 2.26799 8.49799 50
      vertex 2.084 5.46999 47
      vertex 2.084 5.46999 50
    endloop
  endfacet
  facet normal 0 1 -0
    outer loop
      vertex 6.60199 8.49799 47
      vertex 2.26799 8.49799 50
      vertex 6.60199 8.49799 50
    endloop
  endfacet
  facet normal 0 1 0
    outer loop
      vertex 2.26799 8.49799 50
      vertex 6.60199 8.49799 47
      vertex 2.26799 8.49799 47
    endloop
  endfacet
  facet normal -1 0 0
    outer loop
      vertex 6.60199 8.49799 47
      vertex 6.60199 9.536 50
      vertex 6.60199 9.536 47
    endloop
  endfacet
  facet normal -1 -0 0
    outer loop
      vertex 6.60199 9.536 50
      vertex 6.60199 8.49799 47
      vertex 6.60199 8.49799 50
    endloop
  endfacet
  facet normal 0 -1 0
    outer loop
      vertex 1.15599 9.536 47
      vertex 6.60199 9.536 50
      vertex 1.15599 9.536 50
    endloop
  endfacet
  facet normal 0 -1 -0
    outer loop
      vertex 6.60199 9.536 50
      vertex 1.15599 9.536 47
      vertex 6.60199 9.536 47
    endloop
  endfacet
  facet normal 0.998066 -0.0621591 0
    outer loop
      vertex 0.835999 4.39799 50
      vertex 1.15599 9.536 47
      vertex 1.15599 9.536 50
    endloop
  endfacet
  facet normal 0.998066 -0.0621591 0
    outer loop
      vertex 1.15599 9.536 47
      vertex 0.835999 4.39799 50
      vertex 0.835999 4.39799 47
    endloop
  endfacet
  facet normal 0 1 -0
    outer loop
      vertex 2.03 4.39799 47
      vertex 0.835999 4.39799 50
      vertex 2.03 4.39799 50
    endloop
  endfacet
  facet normal 0 1 0
    outer loop
      vertex 0.835999 4.39799 50
      vertex 2.03 4.39799 47
      vertex 0.835999 4.39799 47
    endloop
  endfacet
  facet normal -0.627642 0.778502 0
    outer loop
      vertex 2.24449 4.57092 47
      vertex 2.03 4.39799 50
      vertex 2.24449 4.57092 50
    endloop
  endfacet
  facet normal -0.627642 0.778502 0
    outer loop
      vertex 2.03 4.39799 50
      vertex 2.24449 4.57092 47
      vertex 2.03 4.39799 47
    endloop
  endfacet
  facet normal -0.562172 0.827021 0
    outer loop
      vertex 2.459 4.71674 47
      vertex 2.24449 4.57092 50
      vertex 2.459 4.71674 50
    endloop
  endfacet
  facet normal -0.562172 0.827021 0
    outer loop
      vertex 2.24449 4.57092 50
      vertex 2.459 4.71674 47
      vertex 2.24449 4.57092 47
    endloop
  endfacet
  facet normal -0.484194 0.874961 0
    outer loop
      vertex 2.67349 4.83543 47
      vertex 2.459 4.71674 50
      vertex 2.67349 4.83543 50
    endloop
  endfacet
  facet normal -0.484194 0.874961 0
    outer loop
      vertex 2.459 4.71674 50
      vertex 2.67349 4.83543 47
      vertex 2.459 4.71674 47
    endloop
  endfacet
  facet normal -0.392569 0.919723 0
    outer loop
      vertex 2.88799 4.92699 47
      vertex 2.67349 4.83543 50
      vertex 2.88799 4.92699 50
    endloop
  endfacet
  facet normal -0.392569 0.919723 0
    outer loop
      vertex 2.67349 4.83543 50
      vertex 2.88799 4.92699 47
      vertex 2.67349 4.83543 47
    endloop
  endfacet
  facet normal -0.29785 0.954613 0
    outer loop
      vertex 3.10674 4.99524 47
      vertex 2.88799 4.92699 50
      vertex 3.10674 4.99524 50
    endloop
  endfacet
  facet normal -0.29785 0.954613 0
    outer loop
      vertex 2.88799 4.92699 50
      vertex 3.10674 4.99524 47
      vertex 2.88799 4.92699 47
    endloop
  endfacet
  facet normal -0.209744 0.977756 0
    outer loop
      vertex 3.334 5.04399 47
      vertex 3.10674 4.99524 50
      vertex 3.334 5.04399 50
    endloop
  endfacet
  facet normal -0.209744 0.977756 0
    outer loop
      vertex 3.10674 4.99524 50
      vertex 3.334 5.04399 47
      vertex 3.10674 4.99524 47
    endloop
  endfacet
  facet normal -0.123133 0.99239 0
    outer loop
      vertex 3.56975 5.07324 47
      vertex 3.334 5.04399 50
      vertex 3.56975 5.07324 50
    endloop
  endfacet
  facet normal -0.123133 0.99239 0
    outer loop
      vertex 3.334 5.04399 50
      vertex 3.56975 5.07324 47
      vertex 3.334 5.04399 47
    endloop
  endfacet
  facet normal -0.0398883 0.999204 0
    outer loop
      vertex 3.814 5.08299 47
      vertex 3.56975 5.07324 50
      vertex 3.814 5.08299 50
    endloop
  endfacet
  facet normal -0.0398883 0.999204 0
    outer loop
      vertex 3.56975 5.07324 50
      vertex 3.814 5.08299 47
      vertex 3.56975 5.07324 47
    endloop
  endfacet
  facet normal 0.0762307 0.99709 -0
    outer loop
      vertex 4.26605 5.04843 47
      vertex 3.814 5.08299 50
      vertex 4.26605 5.04843 50
    endloop
  endfacet
  facet normal 0.0762307 0.99709 0
    outer loop
      vertex 3.814 5.08299 50
      vertex 4.26605 5.04843 47
      vertex 3.814 5.08299 47
    endloop
  endfacet
  facet normal 0.249059 0.968488 -0
    outer loop
      vertex 4.66924 4.94475 47
      vertex 4.26605 5.04843 50
      vertex 4.66924 4.94475 50
    endloop
  endfacet
  facet normal 0.249059 0.968488 0
    outer loop
      vertex 4.26605 5.04843 50
      vertex 4.66924 4.94475 47
      vertex 4.26605 5.04843 47
    endloop
  endfacet
  facet normal 0.438382 0.898789 -0
    outer loop
      vertex 5.02356 4.77193 47
      vertex 4.66924 4.94475 50
      vertex 5.02356 4.77193 50
    endloop
  endfacet
  facet normal 0.438382 0.898789 0
    outer loop
      vertex 4.66924 4.94475 50
      vertex 5.02356 4.77193 47
      vertex 4.66924 4.94475 47
    endloop
  endfacet
  facet normal 0.620901 0.783889 -0
    outer loop
      vertex 5.32899 4.53 47
      vertex 5.02356 4.77193 50
      vertex 5.32899 4.53 50
    endloop
  endfacet
  facet normal 0.620901 0.783889 0
    outer loop
      vertex 5.02356 4.77193 50
      vertex 5.32899 4.53 47
      vertex 5.02356 4.77193 47
    endloop
  endfacet
  facet normal 0.771275 0.636502 0
    outer loop
      vertex 5.57487 4.23206 50
      vertex 5.32899 4.53 47
      vertex 5.32899 4.53 50
    endloop
  endfacet
  facet normal 0.771275 0.636502 0
    outer loop
      vertex 5.32899 4.53 47
      vertex 5.57487 4.23206 50
      vertex 5.57487 4.23206 47
    endloop
  endfacet
  facet normal 0.888933 0.458038 0
    outer loop
      vertex 5.75049 3.89124 50
      vertex 5.57487 4.23206 47
      vertex 5.57487 4.23206 50
    endloop
  endfacet
  facet normal 0.888933 0.458038 0
    outer loop
      vertex 5.57487 4.23206 47
      vertex 5.75049 3.89124 50
      vertex 5.75049 3.89124 47
    endloop
  endfacet
  facet normal 0.964292 0.26484 0
    outer loop
      vertex 5.85587 3.50755 50
      vertex 5.75049 3.89124 47
      vertex 5.75049 3.89124 50
    endloop
  endfacet
  facet normal 0.964292 0.26484 0
    outer loop
      vertex 5.75049 3.89124 47
      vertex 5.85587 3.50755 50
      vertex 5.85587 3.50755 47
    endloop
  endfacet
  facet normal 0.996627 0.0820688 0
    outer loop
      vertex 5.89099 3.08099 50
      vertex 5.85587 3.50755 47
      vertex 5.85587 3.50755 50
    endloop
  endfacet
  facet normal 0.996627 0.0820688 0
    outer loop
      vertex 5.85587 3.50755 47
      vertex 5.89099 3.08099 50
      vertex 5.89099 3.08099 47
    endloop
  endfacet
  facet normal 0.99745 -0.0713666 0
    outer loop
      vertex 5.85605 2.59262 50
      vertex 5.89099 3.08099 47
      vertex 5.89099 3.08099 50
    endloop
  endfacet
  facet normal 0.99745 -0.0713666 0
    outer loop
      vertex 5.89099 3.08099 47
      vertex 5.85605 2.59262 50
      vertex 5.85605 2.59262 47
    endloop
  endfacet
  facet normal 0.971948 -0.235197 0
    outer loop
      vertex 5.75124 2.15948 50
      vertex 5.85605 2.59262 47
      vertex 5.85605 2.59262 50
    endloop
  endfacet
  facet normal 0.971948 -0.235197 0
    outer loop
      vertex 5.85605 2.59262 47
      vertex 5.75124 2.15948 50
      vertex 5.75124 2.15948 47
    endloop
  endfacet
  facet normal 0.907702 -0.419616 0
    outer loop
      vertex 5.57655 1.78162 50
      vertex 5.75124 2.15948 47
      vertex 5.75124 2.15948 50
    endloop
  endfacet
  facet normal 0.907702 -0.419616 0
    outer loop
      vertex 5.75124 2.15948 47
      vertex 5.57655 1.78162 50
      vertex 5.57655 1.78162 47
    endloop
  endfacet
  facet normal 0.7969 -0.604111 0
    outer loop
      vertex 5.33199 1.459 50
      vertex 5.57655 1.78162 47
      vertex 5.57655 1.78162 50
    endloop
  endfacet
  facet normal 0.7969 -0.604111 0
    outer loop
      vertex 5.57655 1.78162 47
      vertex 5.33199 1.459 50
      vertex 5.33199 1.459 47
    endloop
  endfacet
  facet normal 0.645036 -0.764152 0
    outer loop
      vertex 5.02618 1.20087 47
      vertex 5.33199 1.459 50
      vertex 5.02618 1.20087 50
    endloop
  endfacet
  facet normal 0.645036 -0.764152 0
    outer loop
      vertex 5.33199 1.459 50
      vertex 5.02618 1.20087 47
      vertex 5.33199 1.459 47
    endloop
  endfacet
  facet normal 0.456406 -0.889771 0
    outer loop
      vertex 4.66675 1.01649 47
      vertex 5.02618 1.20087 50
      vertex 4.66675 1.01649 50
    endloop
  endfacet
  facet normal 0.456406 -0.889771 0
    outer loop
      vertex 5.02618 1.20087 50
      vertex 4.66675 1.01649 47
      vertex 5.02618 1.20087 47
    endloop
  endfacet
  facet normal 0.258697 -0.965958 0
    outer loop
      vertex 4.25368 0.905869 47
      vertex 4.66675 1.01649 50
      vertex 4.25368 0.905869 50
    endloop
  endfacet
  facet normal 0.258697 -0.965958 0
    outer loop
      vertex 4.66675 1.01649 50
      vertex 4.25368 0.905869 47
      vertex 4.66675 1.01649 47
    endloop
  endfacet
  facet normal 0.0787801 -0.996892 0
    outer loop
      vertex 3.78699 0.868988 47
      vertex 4.25368 0.905869 50
      vertex 3.78699 0.868988 50
    endloop
  endfacet
  facet normal 0.0787801 -0.996892 0
    outer loop
      vertex 4.25368 0.905869 50
      vertex 3.78699 0.868988 47
      vertex 4.25368 0.905869 47
    endloop
  endfacet
  facet normal -0.120956 -0.992658 0
    outer loop
      vertex 3.05968 0.957611 47
      vertex 3.78699 0.868988 50
      vertex 3.05968 0.957611 50
    endloop
  endfacet
  facet normal -0.120956 -0.992658 -0
    outer loop
      vertex 3.78699 0.868988 50
      vertex 3.05968 0.957611 47
      vertex 3.78699 0.868988 47
    endloop
  endfacet
  facet normal -0.419747 -0.907641 0
    outer loop
      vertex 2.48474 1.2235 47
      vertex 3.05968 0.957611 50
      vertex 2.48474 1.2235 50
    endloop
  endfacet
  facet normal -0.419747 -0.907641 -0
    outer loop
      vertex 3.05968 0.957611 50
      vertex 2.48474 1.2235 47
      vertex 3.05968 0.957611 47
    endloop
  endfacet
  facet normal -0.723692 -0.690124 0
    outer loop
      vertex 2.48474 1.2235 47
      vertex 2.06218 1.66661 50
      vertex 2.06218 1.66661 47
    endloop
  endfacet
  facet normal -0.723692 -0.690124 0
    outer loop
      vertex 2.06218 1.66661 50
      vertex 2.48474 1.2235 47
      vertex 2.48474 1.2235 50
    endloop
  endfacet
  facet normal -0.916822 -0.399296 0
    outer loop
      vertex 2.06218 1.66661 47
      vertex 1.79199 2.28699 50
      vertex 1.79199 2.28699 47
    endloop
  endfacet
  facet normal -0.916822 -0.399296 0
    outer loop
      vertex 1.79199 2.28699 50
      vertex 2.06218 1.66661 47
      vertex 2.06218 1.66661 50
    endloop
  endfacet
  facet normal 0.114318 -0.993444 0
    outer loop
      vertex 0.557999 2.14499 47
      vertex 1.79199 2.28699 50
      vertex 0.557999 2.14499 50
    endloop
  endfacet
  facet normal 0.114318 -0.993444 0
    outer loop
      vertex 1.79199 2.28699 50
      vertex 0.557999 2.14499 47
      vertex 1.79199 2.28699 47
    endloop
  endfacet
  facet normal 0.962463 0.271413 0
    outer loop
      vertex 0.704742 1.62462 50
      vertex 0.557999 2.14499 47
      vertex 0.557999 2.14499 50
    endloop
  endfacet
  facet normal 0.962463 0.271413 0
    outer loop
      vertex 0.557999 2.14499 47
      vertex 0.704742 1.62462 50
      vertex 0.704742 1.62462 47
    endloop
  endfacet
  facet normal 0.898587 0.438795 0
    outer loop
      vertex 0.926987 1.16949 50
      vertex 0.704742 1.62462 47
      vertex 0.704742 1.62462 50
    endloop
  endfacet
  facet normal 0.898587 0.438795 0
    outer loop
      vertex 0.704742 1.62462 47
      vertex 0.926987 1.16949 50
      vertex 0.926987 1.16949 47
    endloop
  endfacet
  facet normal 0.794733 0.606959 0
    outer loop
      vertex 1.22475 0.779617 50
      vertex 0.926987 1.16949 47
      vertex 0.926987 1.16949 50
    endloop
  endfacet
  facet normal 0.794733 0.606959 0
    outer loop
      vertex 0.926987 1.16949 47
      vertex 1.22475 0.779617 50
      vertex 1.22475 0.779617 47
    endloop
  endfacet
  facet normal 0.656259 0.754536 -0
    outer loop
      vertex 1.59799 0.454987 47
      vertex 1.22475 0.779617 50
      vertex 1.59799 0.454987 50
    endloop
  endfacet
  facet normal 0.656259 0.754536 0
    outer loop
      vertex 1.22475 0.779617 50
      vertex 1.59799 0.454987 47
      vertex 1.22475 0.779617 47
    endloop
  endfacet
  facet normal 0.498311 0.866998 -0
    outer loop
      vertex 2.04175 0.199936 47
      vertex 1.59799 0.454987 50
      vertex 2.04175 0.199936 50
    endloop
  endfacet
  facet normal 0.498311 0.866998 0
    outer loop
      vertex 1.59799 0.454987 50
      vertex 2.04175 0.199936 47
      vertex 1.59799 0.454987 47
    endloop
  endfacet
  facet normal 0.337446 0.941345 -0
    outer loop
      vertex 2.54999 0.017746 47
      vertex 2.04175 0.199936 50
      vertex 2.54999 0.017746 50
    endloop
  endfacet
  facet normal 0.337446 0.941345 0
    outer loop
      vertex 2.04175 0.199936 50
      vertex 2.54999 0.017746 47
      vertex 2.04175 0.199936 47
    endloop
  endfacet
  facet normal 0.187448 0.982275 -0
    outer loop
      vertex 2.64298 0 47
      vertex 2.54999 0.017746 50
      vertex 2.64298 0 50
    endloop
  endfacet
  facet normal 0.187448 0.982275 0
    outer loop
      vertex 2.54999 0.017746 50
      vertex 2.64298 0 47
      vertex 2.54999 0.017746 47
    endloop
  endfacet
endsolid OpenSCAD_Model
