solid OpenSCAD_Model
  facet normal -1 0 0
    outer loop
      vertex 0 0 0
      vertex 0 5 10
      vertex 0 5 0
    endloop
  endfacet
  facet normal -1 -0 0
    outer loop
      vertex 0 5 10
      vertex 0 0 0
      vertex 0 0 10
    endloop
  endfacet
  facet normal -0 0 1
    outer loop
      vertex 0 5 10
      vertex 13.5 0 10
      vertex 13.5 5 10
    endloop
  endfacet
  facet normal 0 0 1
    outer loop
      vertex 13.5 0 10
      vertex 0 5 10
      vertex 0 0 10
    endloop
  endfacet
  facet normal 1 0 0
    outer loop
      vertex 18.5 22.5 0
      vertex 18.5 21.4999 3.75116
      vertex 18.5 21.5 3.75
    endloop
  endfacet
  facet normal 1 -0 0
    outer loop
      vertex 18.5 21.4815 12.0153
      vertex 18.5 22.5 0
      vertex 18.5 21.4816 12.0165
    endloop
  endfacet
  facet normal 1 -0 0
    outer loop
      vertex 18.5 21.4815 3.98465
      vertex 18.5 22.5 0
      vertex 18.5 21.4815 12.0153
    endloop
  endfacet
  facet normal 1 0 0
    outer loop
      vertex 18.5 22.5 0
      vertex 18.5 21.4815 3.98465
      vertex 18.5 21.4999 3.75116
    endloop
  endfacet
  facet normal 1 -0 0
    outer loop
      vertex 18.5 21.4266 11.7865
      vertex 18.5 21.4815 3.98465
      vertex 18.5 21.4815 12.0153
    endloop
  endfacet
  facet normal 1 0 0
    outer loop
      vertex 18.5 21.4266 11.7865
      vertex 18.5 21.4266 4.21353
      vertex 18.5 21.4815 3.98465
    endloop
  endfacet
  facet normal 1 -0 0
    outer loop
      vertex 18.5 21.3365 11.569
      vertex 18.5 21.4266 4.21353
      vertex 18.5 21.4266 11.7865
    endloop
  endfacet
  facet normal 1 0 0
    outer loop
      vertex 18.5 21.3365 11.569
      vertex 18.5 21.3365 4.43099
      vertex 18.5 21.4266 4.21353
    endloop
  endfacet
  facet normal 1 -0 0
    outer loop
      vertex 18.5 21.2135 11.3683
      vertex 18.5 21.3365 4.43099
      vertex 18.5 21.3365 11.569
    endloop
  endfacet
  facet normal 1 0 0
    outer loop
      vertex 18.5 21.2135 11.3683
      vertex 18.5 21.2135 4.63168
      vertex 18.5 21.3365 4.43099
    endloop
  endfacet
  facet normal 1 -0 0
    outer loop
      vertex 18.5 21.0607 11.1893
      vertex 18.5 21.2135 4.63168
      vertex 18.5 21.2135 11.3683
    endloop
  endfacet
  facet normal 1 0 0
    outer loop
      vertex 18.5 21.0607 11.1893
      vertex 18.5 21.0607 4.81066
      vertex 18.5 21.2135 4.63168
    endloop
  endfacet
  facet normal 1 -0 0
    outer loop
      vertex 18.5 20.8817 11.0365
      vertex 18.5 21.0607 4.81066
      vertex 18.5 21.0607 11.1893
    endloop
  endfacet
  facet normal 1 0 0
    outer loop
      vertex 18.5 20.8817 11.0365
      vertex 18.5 20.8817 4.96353
      vertex 18.5 21.0607 4.81066
    endloop
  endfacet
  facet normal 1 -0 0
    outer loop
      vertex 18.5 20.681 10.9135
      vertex 18.5 20.8817 4.96353
      vertex 18.5 20.8817 11.0365
    endloop
  endfacet
  facet normal 1 0 0
    outer loop
      vertex 18.5 20.681 10.9135
      vertex 18.5 20.681 5.08651
      vertex 18.5 20.8817 4.96353
    endloop
  endfacet
  facet normal 1 -0 0
    outer loop
      vertex 18.5 20.4635 10.8234
      vertex 18.5 20.681 5.08651
      vertex 18.5 20.681 10.9135
    endloop
  endfacet
  facet normal 1 0 0
    outer loop
      vertex 18.5 20.4635 10.8234
      vertex 18.5 20.4635 5.17659
      vertex 18.5 20.681 5.08651
    endloop
  endfacet
  facet normal 1 -0 0
    outer loop
      vertex 18.5 20.2347 10.7685
      vertex 18.5 20.4635 5.17659
      vertex 18.5 20.4635 10.8234
    endloop
  endfacet
  facet normal 1 0 0
    outer loop
      vertex 18.5 20.2347 10.7685
      vertex 18.5 20.2347 5.23153
      vertex 18.5 20.4635 5.17659
    endloop
  endfacet
  facet normal 1 -0 0
    outer loop
      vertex 18.5 20.2335 10.7684
      vertex 18.5 20.2347 5.23153
      vertex 18.5 20.2347 10.7685
    endloop
  endfacet
  facet normal 1 0 0
    outer loop
      vertex 18.5 20.2335 10.7684
      vertex 18.5 20.0012 5.24991
      vertex 18.5 20.2347 5.23153
    endloop
  endfacet
  facet normal 1 -0 0
    outer loop
      vertex 18.5 20 10.75
      vertex 18.5 20.0012 5.24991
      vertex 18.5 20.2335 10.7684
    endloop
  endfacet
  facet normal 1 0 0
    outer loop
      vertex 18.5 20 10.75
      vertex 18.5 20 5.25
      vertex 18.5 20.0012 5.24991
    endloop
  endfacet
  facet normal 1 0 0
    outer loop
      vertex 18.5 20 10.75
      vertex 18.5 19.9988 5.24991
      vertex 18.5 20 5.25
    endloop
  endfacet
  facet normal 1 0 0
    outer loop
      vertex 18.5 19.7665 10.7684
      vertex 18.5 19.9988 5.24991
      vertex 18.5 20 10.75
    endloop
  endfacet
  facet normal 1 0 0
    outer loop
      vertex 18.5 19.7653 5.23153
      vertex 18.5 19.7665 10.7684
      vertex 18.5 19.7653 10.7685
    endloop
  endfacet
  facet normal 1 0 0
    outer loop
      vertex 18.5 19.7665 10.7684
      vertex 18.5 19.7653 5.23153
      vertex 18.5 19.9988 5.24991
    endloop
  endfacet
  facet normal 1 0 0
    outer loop
      vertex 18.5 19.5365 10.8234
      vertex 18.5 19.7653 5.23153
      vertex 18.5 19.7653 10.7685
    endloop
  endfacet
  facet normal 1 0 0
    outer loop
      vertex 18.5 19.5365 10.8234
      vertex 18.5 19.5365 5.17659
      vertex 18.5 19.7653 5.23153
    endloop
  endfacet
  facet normal 1 0 0
    outer loop
      vertex 18.5 19.319 10.9135
      vertex 18.5 19.5365 5.17659
      vertex 18.5 19.5365 10.8234
    endloop
  endfacet
  facet normal 1 0 0
    outer loop
      vertex 18.5 19.319 10.9135
      vertex 18.5 19.319 5.08651
      vertex 18.5 19.5365 5.17659
    endloop
  endfacet
  facet normal 1 0 0
    outer loop
      vertex 18.5 19.1183 11.0365
      vertex 18.5 19.319 5.08651
      vertex 18.5 19.319 10.9135
    endloop
  endfacet
  facet normal 1 0 0
    outer loop
      vertex 18.5 19.1183 11.0365
      vertex 18.5 19.1183 4.96353
      vertex 18.5 19.319 5.08651
    endloop
  endfacet
  facet normal 1 0 0
    outer loop
      vertex 18.5 18.9393 11.1893
      vertex 18.5 19.1183 4.96353
      vertex 18.5 19.1183 11.0365
    endloop
  endfacet
  facet normal 1 0 0
    outer loop
      vertex 18.5 18.9393 11.1893
      vertex 18.5 18.9393 4.81066
      vertex 18.5 19.1183 4.96353
    endloop
  endfacet
  facet normal 1 0 0
    outer loop
      vertex 18.5 18.7865 11.3683
      vertex 18.5 18.9393 4.81066
      vertex 18.5 18.9393 11.1893
    endloop
  endfacet
  facet normal 1 0 0
    outer loop
      vertex 18.5 18.7865 11.3683
      vertex 18.5 18.7865 4.63168
      vertex 18.5 18.9393 4.81066
    endloop
  endfacet
  facet normal 1 0 0
    outer loop
      vertex 18.5 18.6635 11.569
      vertex 18.5 18.7865 4.63168
      vertex 18.5 18.7865 11.3683
    endloop
  endfacet
  facet normal 1 0 0
    outer loop
      vertex 18.5 18.6635 11.569
      vertex 18.5 18.6635 4.43099
      vertex 18.5 18.7865 4.63168
    endloop
  endfacet
  facet normal 1 0 0
    outer loop
      vertex 18.5 18.5734 11.7865
      vertex 18.5 18.6635 4.43099
      vertex 18.5 18.6635 11.569
    endloop
  endfacet
  facet normal 1 0 0
    outer loop
      vertex 18.5 18.5734 11.7865
      vertex 18.5 18.5734 4.21353
      vertex 18.5 18.6635 4.43099
    endloop
  endfacet
  facet normal 1 0 0
    outer loop
      vertex 18.5 0 0
      vertex 18.5 18.5734 11.7865
      vertex 18.5 18.5185 12.0153
    endloop
  endfacet
  facet normal 1 0 0
    outer loop
      vertex 18.5 18.5734 11.7865
      vertex 18.5 0 0
      vertex 18.5 18.5734 4.21353
    endloop
  endfacet
  facet normal 1 0 0
    outer loop
      vertex 18.5 18.5734 4.21353
      vertex 18.5 0 0
      vertex 18.5 18.5185 3.98465
    endloop
  endfacet
  facet normal 1 0 0
    outer loop
      vertex 18.5 0 20
      vertex 18.5 18.5185 12.0153
      vertex 18.5 18.5 12.25
    endloop
  endfacet
  facet normal 1 0 0
    outer loop
      vertex 18.5 18.5185 3.98465
      vertex 18.5 0 0
      vertex 18.5 18.5001 3.75116
    endloop
  endfacet
  facet normal 1 0 0
    outer loop
      vertex 18.5 22.5 20
      vertex 18.5 21.5 12.25
      vertex 18.5 22.5 0
    endloop
  endfacet
  facet normal 1 0 0
    outer loop
      vertex 18.5 22.5 20
      vertex 18.5 21.4999 12.2512
      vertex 18.5 21.5 12.25
    endloop
  endfacet
  facet normal 1 0 0
    outer loop
      vertex 18.5 22.5 20
      vertex 18.5 21.4815 12.4847
      vertex 18.5 21.4999 12.2512
    endloop
  endfacet
  facet normal 1 0 0
    outer loop
      vertex 18.5 22.5 20
      vertex 18.5 21.4266 12.7135
      vertex 18.5 21.4815 12.4847
    endloop
  endfacet
  facet normal 1 0 0
    outer loop
      vertex 18.5 22.5 20
      vertex 18.5 21.3365 12.931
      vertex 18.5 21.4266 12.7135
    endloop
  endfacet
  facet normal 1 0 0
    outer loop
      vertex 18.5 22.5 20
      vertex 18.5 21.2135 13.1317
      vertex 18.5 21.3365 12.931
    endloop
  endfacet
  facet normal 1 0 0
    outer loop
      vertex 18.5 22.5 20
      vertex 18.5 21.0607 13.3107
      vertex 18.5 21.2135 13.1317
    endloop
  endfacet
  facet normal 1 0 0
    outer loop
      vertex 18.5 22.5 20
      vertex 18.5 20.8817 13.4635
      vertex 18.5 21.0607 13.3107
    endloop
  endfacet
  facet normal 1 0 0
    outer loop
      vertex 18.5 22.5 20
      vertex 18.5 20.681 13.5865
      vertex 18.5 20.8817 13.4635
    endloop
  endfacet
  facet normal 1 0 0
    outer loop
      vertex 18.5 22.5 20
      vertex 18.5 20.4635 13.6766
      vertex 18.5 20.681 13.5865
    endloop
  endfacet
  facet normal 1 0 0
    outer loop
      vertex 18.5 22.5 20
      vertex 18.5 20.2347 13.7315
      vertex 18.5 20.4635 13.6766
    endloop
  endfacet
  facet normal 1 0 0
    outer loop
      vertex 18.5 22.5 20
      vertex 18.5 20.0012 13.7499
      vertex 18.5 20.2347 13.7315
    endloop
  endfacet
  facet normal 1 0 0
    outer loop
      vertex 18.5 22.5 20
      vertex 18.5 20 13.75
      vertex 18.5 20.0012 13.7499
    endloop
  endfacet
  facet normal 1 0 0
    outer loop
      vertex 18.5 22.5 20
      vertex 18.5 19.9988 13.7499
      vertex 18.5 20 13.75
    endloop
  endfacet
  facet normal 1 0 0
    outer loop
      vertex 18.5 22.5 20
      vertex 18.5 19.7653 13.7315
      vertex 18.5 19.9988 13.7499
    endloop
  endfacet
  facet normal 1 0 0
    outer loop
      vertex 18.5 22.5 20
      vertex 18.5 19.5365 13.6766
      vertex 18.5 19.7653 13.7315
    endloop
  endfacet
  facet normal 1 0 0
    outer loop
      vertex 18.5 22.5 20
      vertex 18.5 19.319 13.5865
      vertex 18.5 19.5365 13.6766
    endloop
  endfacet
  facet normal 1 0 0
    outer loop
      vertex 18.5 22.5 20
      vertex 18.5 19.1183 13.4635
      vertex 18.5 19.319 13.5865
    endloop
  endfacet
  facet normal 1 0 0
    outer loop
      vertex 18.5 22.5 20
      vertex 18.5 18.9393 13.3107
      vertex 18.5 19.1183 13.4635
    endloop
  endfacet
  facet normal 1 -0 0
    outer loop
      vertex 18.5 0 20
      vertex 18.5 18.9393 13.3107
      vertex 18.5 22.5 20
    endloop
  endfacet
  facet normal 1 0 0
    outer loop
      vertex 18.5 18.9393 13.3107
      vertex 18.5 0 20
      vertex 18.5 18.7865 13.1317
    endloop
  endfacet
  facet normal 1 0 0
    outer loop
      vertex 18.5 18.5185 12.0153
      vertex 18.5 0 20
      vertex 18.5 0 0
    endloop
  endfacet
  facet normal 1 0 0
    outer loop
      vertex 18.5 18.5185 12.4847
      vertex 18.5 0 20
      vertex 18.5 18.5 12.25
    endloop
  endfacet
  facet normal 1 0 0
    outer loop
      vertex 18.5 18.5734 12.7135
      vertex 18.5 0 20
      vertex 18.5 18.5185 12.4847
    endloop
  endfacet
  facet normal 1 0 0
    outer loop
      vertex 18.5 18.6635 12.931
      vertex 18.5 0 20
      vertex 18.5 18.5734 12.7135
    endloop
  endfacet
  facet normal 1 0 0
    outer loop
      vertex 18.5 18.7865 13.1317
      vertex 18.5 0 20
      vertex 18.5 18.6635 12.931
    endloop
  endfacet
  facet normal 1 -0 0
    outer loop
      vertex 18.5 21.4816 12.0165
      vertex 18.5 22.5 0
      vertex 18.5 21.5 12.25
    endloop
  endfacet
  facet normal 1 -0 0
    outer loop
      vertex 18.5 21.4816 3.51651
      vertex 18.5 22.5 0
      vertex 18.5 21.5 3.75
    endloop
  endfacet
  facet normal 1 -0 0
    outer loop
      vertex 18.5 21.4815 3.51535
      vertex 18.5 22.5 0
      vertex 18.5 21.4816 3.51651
    endloop
  endfacet
  facet normal 1 -0 0
    outer loop
      vertex 18.5 21.4266 3.28648
      vertex 18.5 22.5 0
      vertex 18.5 21.4815 3.51535
    endloop
  endfacet
  facet normal 1 -0 0
    outer loop
      vertex 18.5 21.3365 3.06901
      vertex 18.5 22.5 0
      vertex 18.5 21.4266 3.28648
    endloop
  endfacet
  facet normal 1 -0 0
    outer loop
      vertex 18.5 21.2135 2.86832
      vertex 18.5 22.5 0
      vertex 18.5 21.3365 3.06901
    endloop
  endfacet
  facet normal 1 -0 0
    outer loop
      vertex 18.5 21.0607 2.68934
      vertex 18.5 22.5 0
      vertex 18.5 21.2135 2.86832
    endloop
  endfacet
  facet normal 1 -0 0
    outer loop
      vertex 18.5 20.8817 2.53648
      vertex 18.5 22.5 0
      vertex 18.5 21.0607 2.68934
    endloop
  endfacet
  facet normal 1 -0 0
    outer loop
      vertex 18.5 20.681 2.41349
      vertex 18.5 22.5 0
      vertex 18.5 20.8817 2.53648
    endloop
  endfacet
  facet normal 1 -0 0
    outer loop
      vertex 18.5 20.4635 2.32342
      vertex 18.5 22.5 0
      vertex 18.5 20.681 2.41349
    endloop
  endfacet
  facet normal 1 -0 0
    outer loop
      vertex 18.5 20.2347 2.26847
      vertex 18.5 22.5 0
      vertex 18.5 20.4635 2.32342
    endloop
  endfacet
  facet normal 1 -0 0
    outer loop
      vertex 18.5 20.2335 2.26838
      vertex 18.5 22.5 0
      vertex 18.5 20.2347 2.26847
    endloop
  endfacet
  facet normal 1 -0 0
    outer loop
      vertex 18.5 20 2.25
      vertex 18.5 22.5 0
      vertex 18.5 20.2335 2.26838
    endloop
  endfacet
  facet normal 1 0 0
    outer loop
      vertex 18.5 19.7665 2.26838
      vertex 18.5 22.5 0
      vertex 18.5 20 2.25
    endloop
  endfacet
  facet normal 1 0 0
    outer loop
      vertex 18.5 19.7653 2.26847
      vertex 18.5 22.5 0
      vertex 18.5 19.7665 2.26838
    endloop
  endfacet
  facet normal 1 0 0
    outer loop
      vertex 18.5 19.5365 2.32342
      vertex 18.5 22.5 0
      vertex 18.5 19.7653 2.26847
    endloop
  endfacet
  facet normal 1 0 0
    outer loop
      vertex 18.5 19.319 2.41349
      vertex 18.5 22.5 0
      vertex 18.5 19.5365 2.32342
    endloop
  endfacet
  facet normal 1 0 0
    outer loop
      vertex 18.5 0 0
      vertex 18.5 19.319 2.41349
      vertex 18.5 19.1183 2.53648
    endloop
  endfacet
  facet normal 1 0 0
    outer loop
      vertex 18.5 18.5001 3.75116
      vertex 18.5 0 0
      vertex 18.5 18.5 3.75
    endloop
  endfacet
  facet normal 1 0 0
    outer loop
      vertex 18.5 18.5 3.75
      vertex 18.5 0 0
      vertex 18.5 18.5184 3.51651
    endloop
  endfacet
  facet normal 1 0 0
    outer loop
      vertex 18.5 18.5184 3.51651
      vertex 18.5 0 0
      vertex 18.5 18.5185 3.51535
    endloop
  endfacet
  facet normal 1 0 0
    outer loop
      vertex 18.5 18.5185 3.51535
      vertex 18.5 0 0
      vertex 18.5 18.5734 3.28648
    endloop
  endfacet
  facet normal 1 0 0
    outer loop
      vertex 18.5 18.5734 3.28648
      vertex 18.5 0 0
      vertex 18.5 18.6635 3.06901
    endloop
  endfacet
  facet normal 1 0 0
    outer loop
      vertex 18.5 18.6635 3.06901
      vertex 18.5 0 0
      vertex 18.5 18.7865 2.86832
    endloop
  endfacet
  facet normal 1 0 0
    outer loop
      vertex 18.5 19.319 2.41349
      vertex 18.5 0 0
      vertex 18.5 22.5 0
    endloop
  endfacet
  facet normal 1 0 0
    outer loop
      vertex 18.5 18.9393 2.68934
      vertex 18.5 0 0
      vertex 18.5 19.1183 2.53648
    endloop
  endfacet
  facet normal 1 0 0
    outer loop
      vertex 18.5 18.7865 2.86832
      vertex 18.5 0 0
      vertex 18.5 18.9393 2.68934
    endloop
  endfacet
  facet normal 0 0 -1
    outer loop
      vertex 18.5 0 0
      vertex 13.5 5 0
      vertex 18.5 22.5 0
    endloop
  endfacet
  facet normal 0 0 -1
    outer loop
      vertex 0 0 0
      vertex 13.5 5 0
      vertex 18.5 0 0
    endloop
  endfacet
  facet normal -0 0 -1
    outer loop
      vertex 13.5 5 0
      vertex 0 0 0
      vertex 0 5 0
    endloop
  endfacet
  facet normal -0 0 -1
    outer loop
      vertex 18.5 22.5 0
      vertex 13.5 5 0
      vertex 13.5 22.5 0
    endloop
  endfacet
  facet normal 0 -1 0
    outer loop
      vertex 2.78158 0 6.77784
      vertex 0 0 10
      vertex 2.5 0 6.8
    endloop
  endfacet
  facet normal 0 -1 0
    outer loop
      vertex 0 0 10
      vertex 2.21842 0 6.77784
      vertex 2.5 0 6.8
    endloop
  endfacet
  facet normal 0 -1 0
    outer loop
      vertex 0 0 10
      vertex 1.94377 0 6.7119
      vertex 2.21842 0 6.77784
    endloop
  endfacet
  facet normal 0 -1 0
    outer loop
      vertex 0 0 10
      vertex 1.68282 0 6.60381
      vertex 1.94377 0 6.7119
    endloop
  endfacet
  facet normal 0 -1 0
    outer loop
      vertex 0 0 10
      vertex 1.44199 0 6.45623
      vertex 1.68282 0 6.60381
    endloop
  endfacet
  facet normal 0 -1 0
    outer loop
      vertex 0 0 10
      vertex 1.22721 0 6.27279
      vertex 1.44199 0 6.45623
    endloop
  endfacet
  facet normal 0 -1 0
    outer loop
      vertex 0 0 10
      vertex 1.04377 0 6.05801
      vertex 1.22721 0 6.27279
    endloop
  endfacet
  facet normal 0 -1 0
    outer loop
      vertex 0 0 10
      vertex 0.896188 0 5.81718
      vertex 1.04377 0 6.05801
    endloop
  endfacet
  facet normal 0 -1 0
    outer loop
      vertex 0 0 10
      vertex 0.788097 0 5.55623
      vertex 0.896188 0 5.81718
    endloop
  endfacet
  facet normal 0 -1 0
    outer loop
      vertex 0 0 10
      vertex 0.72216 0 5.28158
      vertex 0.788097 0 5.55623
    endloop
  endfacet
  facet normal 0 -1 0
    outer loop
      vertex 0 0 10
      vertex 0.7 0 5
      vertex 0.72216 0 5.28158
    endloop
  endfacet
  facet normal 0 -1 0
    outer loop
      vertex 0 0 0
      vertex 0.7 0 5
      vertex 0 0 10
    endloop
  endfacet
  facet normal 0 -1 -0
    outer loop
      vertex 2.21842 0 3.22216
      vertex 0 0 0
      vertex 2.5 0 3.2
    endloop
  endfacet
  facet normal 0 -1 -0
    outer loop
      vertex 1.94377 0 3.2881
      vertex 0 0 0
      vertex 2.21842 0 3.22216
    endloop
  endfacet
  facet normal 0 -1 -0
    outer loop
      vertex 1.68282 0 3.39619
      vertex 0 0 0
      vertex 1.94377 0 3.2881
    endloop
  endfacet
  facet normal 0 -1 -0
    outer loop
      vertex 1.44199 0 3.54377
      vertex 0 0 0
      vertex 1.68282 0 3.39619
    endloop
  endfacet
  facet normal 0 -1 -0
    outer loop
      vertex 1.22721 0 3.72721
      vertex 0 0 0
      vertex 1.44199 0 3.54377
    endloop
  endfacet
  facet normal 0 -1 -0
    outer loop
      vertex 1.04377 0 3.94199
      vertex 0 0 0
      vertex 1.22721 0 3.72721
    endloop
  endfacet
  facet normal 0 -1 -0
    outer loop
      vertex 0.896188 0 4.18282
      vertex 0 0 0
      vertex 1.04377 0 3.94199
    endloop
  endfacet
  facet normal 0 -1 -0
    outer loop
      vertex 0.788097 0 4.44377
      vertex 0 0 0
      vertex 0.896188 0 4.18282
    endloop
  endfacet
  facet normal 0 -1 -0
    outer loop
      vertex 0.72216 0 4.71842
      vertex 0 0 0
      vertex 0.788097 0 4.44377
    endloop
  endfacet
  facet normal 0 -1 -0
    outer loop
      vertex 0.7 0 5
      vertex 0 0 0
      vertex 0.72216 0 4.71842
    endloop
  endfacet
  facet normal 0 -1 0
    outer loop
      vertex 13.5 0 10
      vertex 18.5 0 20
      vertex 13.5 0 20
    endloop
  endfacet
  facet normal 0 -1 0
    outer loop
      vertex 3.05623 0 6.7119
      vertex 0 0 10
      vertex 2.78158 0 6.77784
    endloop
  endfacet
  facet normal 0 -1 0
    outer loop
      vertex 3.31718 0 6.60381
      vertex 0 0 10
      vertex 3.05623 0 6.7119
    endloop
  endfacet
  facet normal 0 -1 0
    outer loop
      vertex 0 0 10
      vertex 3.31718 0 6.60381
      vertex 13.5 0 10
    endloop
  endfacet
  facet normal 0 -1 0
    outer loop
      vertex 3.55801 0 6.45623
      vertex 13.5 0 10
      vertex 3.31718 0 6.60381
    endloop
  endfacet
  facet normal 0 -1 0
    outer loop
      vertex 3.77279 0 6.27279
      vertex 13.5 0 10
      vertex 3.55801 0 6.45623
    endloop
  endfacet
  facet normal 0 -1 0
    outer loop
      vertex 3.95623 0 6.05801
      vertex 13.5 0 10
      vertex 3.77279 0 6.27279
    endloop
  endfacet
  facet normal 0 -1 0
    outer loop
      vertex 4.10381 0 5.81718
      vertex 13.5 0 10
      vertex 3.95623 0 6.05801
    endloop
  endfacet
  facet normal 0 -1 0
    outer loop
      vertex 4.2119 0 5.55623
      vertex 13.5 0 10
      vertex 4.10381 0 5.81718
    endloop
  endfacet
  facet normal 0 -1 0
    outer loop
      vertex 4.27784 0 5.28158
      vertex 13.5 0 10
      vertex 4.2119 0 5.55623
    endloop
  endfacet
  facet normal 0 -1 0
    outer loop
      vertex 4.29989 0 5.00139
      vertex 13.5 0 10
      vertex 4.27784 0 5.28158
    endloop
  endfacet
  facet normal 0 -1 0
    outer loop
      vertex 4.3 0 5
      vertex 13.5 0 10
      vertex 4.29989 0 5.00139
    endloop
  endfacet
  facet normal 0 -1 0
    outer loop
      vertex 4.27795 0 4.71981
      vertex 13.5 0 10
      vertex 4.3 0 5
    endloop
  endfacet
  facet normal 0 -1 0
    outer loop
      vertex 4.27784 0 4.71842
      vertex 13.5 0 10
      vertex 4.27795 0 4.71981
    endloop
  endfacet
  facet normal 0 -1 0
    outer loop
      vertex 4.2119 0 4.44377
      vertex 13.5 0 10
      vertex 4.27784 0 4.71842
    endloop
  endfacet
  facet normal 0 -1 0
    outer loop
      vertex 18.5 0 0
      vertex 4.2119 0 4.44377
      vertex 4.10381 0 4.18282
    endloop
  endfacet
  facet normal 0 -1 0
    outer loop
      vertex 18.5 0 0
      vertex 4.10381 0 4.18282
      vertex 3.95623 0 3.94199
    endloop
  endfacet
  facet normal 0 -1 0
    outer loop
      vertex 18.5 0 0
      vertex 3.95623 0 3.94199
      vertex 3.77279 0 3.72721
    endloop
  endfacet
  facet normal 0 -1 0
    outer loop
      vertex 18.5 0 0
      vertex 3.77279 0 3.72721
      vertex 3.55801 0 3.54377
    endloop
  endfacet
  facet normal 0 -1 0
    outer loop
      vertex 0 0 0
      vertex 2.78158 0 3.22216
      vertex 2.5 0 3.2
    endloop
  endfacet
  facet normal 0 -1 0
    outer loop
      vertex 0 0 0
      vertex 3.05623 0 3.2881
      vertex 2.78158 0 3.22216
    endloop
  endfacet
  facet normal 0 -1 0
    outer loop
      vertex 0 0 0
      vertex 3.31718 0 3.39619
      vertex 3.05623 0 3.2881
    endloop
  endfacet
  facet normal 0 -1 0
    outer loop
      vertex 0 0 0
      vertex 3.55801 0 3.54377
      vertex 3.31718 0 3.39619
    endloop
  endfacet
  facet normal 0 -1 0
    outer loop
      vertex 18.5 0 0
      vertex 3.55801 0 3.54377
      vertex 0 0 0
    endloop
  endfacet
  facet normal 0 -1 0
    outer loop
      vertex 13.5 0 10
      vertex 18.5 0 0
      vertex 18.5 0 20
    endloop
  endfacet
  facet normal 0 -1 0
    outer loop
      vertex 4.2119 0 4.44377
      vertex 18.5 0 0
      vertex 13.5 0 10
    endloop
  endfacet
  facet normal 0 1 0
    outer loop
      vertex 18.5 22.5 20
      vertex 13.5 22.5 10
      vertex 13.5 22.5 20
    endloop
  endfacet
  facet normal 0 1 -0
    outer loop
      vertex 18.5 22.5 0
      vertex 13.5 22.5 10
      vertex 18.5 22.5 20
    endloop
  endfacet
  facet normal 0 1 0
    outer loop
      vertex 13.5 22.5 10
      vertex 18.5 22.5 0
      vertex 13.5 22.5 0
    endloop
  endfacet
  facet normal -1 0 0
    outer loop
      vertex 13.5 21.4816 3.98349
      vertex 13.5 22.5 0
      vertex 13.5 21.5 3.75
    endloop
  endfacet
  facet normal -1 0 0
    outer loop
      vertex 13.5 22.5 0
      vertex 13.5 21.4999 3.74884
      vertex 13.5 21.5 3.75
    endloop
  endfacet
  facet normal -1 0 0
    outer loop
      vertex 13.5 22.5 0
      vertex 13.5 21.4815 3.51535
      vertex 13.5 21.4999 3.74884
    endloop
  endfacet
  facet normal -1 0 0
    outer loop
      vertex 13.5 22.5 0
      vertex 13.5 21.4266 3.28648
      vertex 13.5 21.4815 3.51535
    endloop
  endfacet
  facet normal -1 0 0
    outer loop
      vertex 13.5 22.5 0
      vertex 13.5 21.3365 3.06901
      vertex 13.5 21.4266 3.28648
    endloop
  endfacet
  facet normal -1 0 0
    outer loop
      vertex 13.5 22.5 0
      vertex 13.5 21.2135 2.86832
      vertex 13.5 21.3365 3.06901
    endloop
  endfacet
  facet normal -1 0 0
    outer loop
      vertex 13.5 22.5 0
      vertex 13.5 21.0607 2.68934
      vertex 13.5 21.2135 2.86832
    endloop
  endfacet
  facet normal -1 0 0
    outer loop
      vertex 13.5 22.5 0
      vertex 13.5 20.8817 2.53648
      vertex 13.5 21.0607 2.68934
    endloop
  endfacet
  facet normal -1 0 0
    outer loop
      vertex 13.5 22.5 0
      vertex 13.5 20.681 2.41349
      vertex 13.5 20.8817 2.53648
    endloop
  endfacet
  facet normal -1 0 0
    outer loop
      vertex 13.5 22.5 0
      vertex 13.5 20.4635 2.32342
      vertex 13.5 20.681 2.41349
    endloop
  endfacet
  facet normal -1 0 0
    outer loop
      vertex 13.5 22.5 0
      vertex 13.5 20.2347 2.26847
      vertex 13.5 20.4635 2.32342
    endloop
  endfacet
  facet normal -1 0 0
    outer loop
      vertex 13.5 22.5 0
      vertex 13.5 20.0012 2.25009
      vertex 13.5 20.2347 2.26847
    endloop
  endfacet
  facet normal -1 0 0
    outer loop
      vertex 13.5 22.5 0
      vertex 13.5 20 2.25
      vertex 13.5 20.0012 2.25009
    endloop
  endfacet
  facet normal -1 0 0
    outer loop
      vertex 13.5 22.5 0
      vertex 13.5 19.9988 2.25009
      vertex 13.5 20 2.25
    endloop
  endfacet
  facet normal -1 0 0
    outer loop
      vertex 13.5 22.5 0
      vertex 13.5 19.7653 2.26847
      vertex 13.5 19.9988 2.25009
    endloop
  endfacet
  facet normal -1 0 0
    outer loop
      vertex 13.5 22.5 0
      vertex 13.5 19.5365 2.32342
      vertex 13.5 19.7653 2.26847
    endloop
  endfacet
  facet normal -1 0 0
    outer loop
      vertex 13.5 22.5 0
      vertex 13.5 19.319 2.41349
      vertex 13.5 19.5365 2.32342
    endloop
  endfacet
  facet normal -1 0 0
    outer loop
      vertex 13.5 5 0
      vertex 13.5 19.319 2.41349
      vertex 13.5 22.5 0
    endloop
  endfacet
  facet normal -1 0 0
    outer loop
      vertex 13.5 5 0
      vertex 13.5 18.5001 3.74884
      vertex 13.5 18.5185 3.51535
    endloop
  endfacet
  facet normal -1 -0 0
    outer loop
      vertex 13.5 18.5001 3.74884
      vertex 13.5 5 0
      vertex 13.5 18.5 3.75
    endloop
  endfacet
  facet normal -1 -0 0
    outer loop
      vertex 13.5 18.5734 3.28648
      vertex 13.5 5 0
      vertex 13.5 18.5185 3.51535
    endloop
  endfacet
  facet normal -1 -0 0
    outer loop
      vertex 13.5 18.6635 3.06901
      vertex 13.5 5 0
      vertex 13.5 18.5734 3.28648
    endloop
  endfacet
  facet normal -1 -0 0
    outer loop
      vertex 13.5 18.7865 2.86832
      vertex 13.5 5 0
      vertex 13.5 18.6635 3.06901
    endloop
  endfacet
  facet normal -1 -0 0
    outer loop
      vertex 13.5 18.9393 2.68934
      vertex 13.5 5 0
      vertex 13.5 18.7865 2.86832
    endloop
  endfacet
  facet normal -1 -0 0
    outer loop
      vertex 13.5 19.1183 2.53648
      vertex 13.5 5 0
      vertex 13.5 18.9393 2.68934
    endloop
  endfacet
  facet normal -1 -0 0
    outer loop
      vertex 13.5 19.319 2.41349
      vertex 13.5 5 0
      vertex 13.5 19.1183 2.53648
    endloop
  endfacet
  facet normal -1 0 0
    outer loop
      vertex 13.5 22.5 0
      vertex 13.5 21.4816 3.98349
      vertex 13.5 22.5 10
    endloop
  endfacet
  facet normal -1 0 0
    outer loop
      vertex 13.5 21.4815 3.98465
      vertex 13.5 22.5 10
      vertex 13.5 21.4816 3.98349
    endloop
  endfacet
  facet normal -1 0 0
    outer loop
      vertex 13.5 21.4266 4.21353
      vertex 13.5 22.5 10
      vertex 13.5 21.4815 3.98465
    endloop
  endfacet
  facet normal -1 0 0
    outer loop
      vertex 13.5 21.3365 4.43099
      vertex 13.5 22.5 10
      vertex 13.5 21.4266 4.21353
    endloop
  endfacet
  facet normal -1 0 0
    outer loop
      vertex 13.5 21.2135 4.63168
      vertex 13.5 22.5 10
      vertex 13.5 21.3365 4.43099
    endloop
  endfacet
  facet normal -1 0 0
    outer loop
      vertex 13.5 21.0607 4.81066
      vertex 13.5 22.5 10
      vertex 13.5 21.2135 4.63168
    endloop
  endfacet
  facet normal -1 0 0
    outer loop
      vertex 13.5 20.8817 4.96353
      vertex 13.5 22.5 10
      vertex 13.5 21.0607 4.81066
    endloop
  endfacet
  facet normal -1 0 0
    outer loop
      vertex 13.5 20.681 5.08651
      vertex 13.5 22.5 10
      vertex 13.5 20.8817 4.96353
    endloop
  endfacet
  facet normal -1 0 0
    outer loop
      vertex 13.5 20.4635 5.17659
      vertex 13.5 22.5 10
      vertex 13.5 20.681 5.08651
    endloop
  endfacet
  facet normal -1 0 0
    outer loop
      vertex 13.5 20.2347 5.23153
      vertex 13.5 22.5 10
      vertex 13.5 20.4635 5.17659
    endloop
  endfacet
  facet normal -1 0 0
    outer loop
      vertex 13.5 20.2335 5.23162
      vertex 13.5 22.5 10
      vertex 13.5 20.2347 5.23153
    endloop
  endfacet
  facet normal -1 0 0
    outer loop
      vertex 13.5 20 5.25
      vertex 13.5 22.5 10
      vertex 13.5 20.2335 5.23162
    endloop
  endfacet
  facet normal -1 0 0
    outer loop
      vertex 13.5 19.7665 5.23162
      vertex 13.5 22.5 10
      vertex 13.5 20 5.25
    endloop
  endfacet
  facet normal -1 0 0
    outer loop
      vertex 13.5 19.7653 5.23153
      vertex 13.5 22.5 10
      vertex 13.5 19.7665 5.23162
    endloop
  endfacet
  facet normal -1 0 0
    outer loop
      vertex 13.5 19.5365 5.17659
      vertex 13.5 22.5 10
      vertex 13.5 19.7653 5.23153
    endloop
  endfacet
  facet normal -1 0 0
    outer loop
      vertex 13.5 19.319 5.08651
      vertex 13.5 22.5 10
      vertex 13.5 19.5365 5.17659
    endloop
  endfacet
  facet normal -1 0 0
    outer loop
      vertex 13.5 19.1183 4.96353
      vertex 13.5 22.5 10
      vertex 13.5 19.319 5.08651
    endloop
  endfacet
  facet normal -1 0 0
    outer loop
      vertex 13.5 5 10
      vertex 13.5 19.1183 4.96353
      vertex 13.5 18.9393 4.81066
    endloop
  endfacet
  facet normal -1 0 0
    outer loop
      vertex 13.5 5 10
      vertex 13.5 18.9393 4.81066
      vertex 13.5 18.7865 4.63168
    endloop
  endfacet
  facet normal -1 0 0
    outer loop
      vertex 13.5 5 0
      vertex 13.5 18.5184 3.98349
      vertex 13.5 18.5 3.75
    endloop
  endfacet
  facet normal -1 0 0
    outer loop
      vertex 13.5 5 0
      vertex 13.5 18.5185 3.98465
      vertex 13.5 18.5184 3.98349
    endloop
  endfacet
  facet normal -1 0 0
    outer loop
      vertex 13.5 5 10
      vertex 13.5 18.5185 3.98465
      vertex 13.5 5 0
    endloop
  endfacet
  facet normal -1 0 0
    outer loop
      vertex 13.5 18.5185 3.98465
      vertex 13.5 5 10
      vertex 13.5 18.5734 4.21353
    endloop
  endfacet
  facet normal -1 0 0
    outer loop
      vertex 13.5 18.5734 4.21353
      vertex 13.5 5 10
      vertex 13.5 18.6635 4.43099
    endloop
  endfacet
  facet normal -1 0 0
    outer loop
      vertex 13.5 18.6635 4.43099
      vertex 13.5 5 10
      vertex 13.5 18.7865 4.63168
    endloop
  endfacet
  facet normal -1 0 0
    outer loop
      vertex 13.5 19.1183 4.96353
      vertex 13.5 5 10
      vertex 13.5 22.5 10
    endloop
  endfacet
  facet normal 0 1 -0
    outer loop
      vertex 3.31718 5 6.60381
      vertex 0 5 10
      vertex 13.5 5 10
    endloop
  endfacet
  facet normal 0 1 0
    outer loop
      vertex 0 5 10
      vertex 2.78158 5 6.77784
      vertex 2.5 5 6.8
    endloop
  endfacet
  facet normal 0 1 0
    outer loop
      vertex 0 5 10
      vertex 3.05623 5 6.7119
      vertex 2.78158 5 6.77784
    endloop
  endfacet
  facet normal 0 1 0
    outer loop
      vertex 0 5 10
      vertex 3.31718 5 6.60381
      vertex 3.05623 5 6.7119
    endloop
  endfacet
  facet normal 0 1 0
    outer loop
      vertex 13.5 5 10
      vertex 3.55801 5 6.45623
      vertex 3.31718 5 6.60381
    endloop
  endfacet
  facet normal 0 1 0
    outer loop
      vertex 13.5 5 10
      vertex 3.77279 5 6.27279
      vertex 3.55801 5 6.45623
    endloop
  endfacet
  facet normal 0 1 0
    outer loop
      vertex 13.5 5 10
      vertex 3.95623 5 6.05801
      vertex 3.77279 5 6.27279
    endloop
  endfacet
  facet normal 0 1 0
    outer loop
      vertex 13.5 5 10
      vertex 4.10381 5 5.81718
      vertex 3.95623 5 6.05801
    endloop
  endfacet
  facet normal 0 1 0
    outer loop
      vertex 13.5 5 10
      vertex 4.2119 5 5.55623
      vertex 4.10381 5 5.81718
    endloop
  endfacet
  facet normal 0 1 0
    outer loop
      vertex 13.5 5 10
      vertex 4.27784 5 5.28158
      vertex 4.2119 5 5.55623
    endloop
  endfacet
  facet normal 0 1 0
    outer loop
      vertex 13.5 5 10
      vertex 4.27795 5 5.28019
      vertex 4.27784 5 5.28158
    endloop
  endfacet
  facet normal 0 1 0
    outer loop
      vertex 13.5 5 10
      vertex 4.3 5 5
      vertex 4.27795 5 5.28019
    endloop
  endfacet
  facet normal 0 1 -0
    outer loop
      vertex 13.5 5 0
      vertex 4.3 5 5
      vertex 13.5 5 10
    endloop
  endfacet
  facet normal 0 1 0
    outer loop
      vertex 4.3 5 5
      vertex 13.5 5 0
      vertex 4.29989 5 4.99861
    endloop
  endfacet
  facet normal 0 1 0
    outer loop
      vertex 4.29989 5 4.99861
      vertex 13.5 5 0
      vertex 4.27784 5 4.71842
    endloop
  endfacet
  facet normal 0 1 0
    outer loop
      vertex 4.27784 5 4.71842
      vertex 13.5 5 0
      vertex 4.2119 5 4.44377
    endloop
  endfacet
  facet normal 0 1 0
    outer loop
      vertex 4.2119 5 4.44377
      vertex 13.5 5 0
      vertex 4.10381 5 4.18282
    endloop
  endfacet
  facet normal 0 1 0
    outer loop
      vertex 4.10381 5 4.18282
      vertex 13.5 5 0
      vertex 3.95623 5 3.94199
    endloop
  endfacet
  facet normal 0 1 0
    outer loop
      vertex 3.95623 5 3.94199
      vertex 13.5 5 0
      vertex 3.77279 5 3.72721
    endloop
  endfacet
  facet normal 0 1 0
    outer loop
      vertex 3.05623 5 3.2881
      vertex 0 5 0
      vertex 2.78158 5 3.22216
    endloop
  endfacet
  facet normal 0 1 0
    outer loop
      vertex 3.31718 5 3.39619
      vertex 0 5 0
      vertex 3.05623 5 3.2881
    endloop
  endfacet
  facet normal 0 1 0
    outer loop
      vertex 0 5 0
      vertex 3.31718 5 3.39619
      vertex 13.5 5 0
    endloop
  endfacet
  facet normal 0 1 0
    outer loop
      vertex 3.55801 5 3.54377
      vertex 13.5 5 0
      vertex 3.31718 5 3.39619
    endloop
  endfacet
  facet normal 0 1 0
    outer loop
      vertex 3.77279 5 3.72721
      vertex 13.5 5 0
      vertex 3.55801 5 3.54377
    endloop
  endfacet
  facet normal 0 1 -0
    outer loop
      vertex 2.21842 5 6.77784
      vertex 0 5 10
      vertex 2.5 5 6.8
    endloop
  endfacet
  facet normal 0 1 -0
    outer loop
      vertex 1.94377 5 6.7119
      vertex 0 5 10
      vertex 2.21842 5 6.77784
    endloop
  endfacet
  facet normal 0 1 -0
    outer loop
      vertex 1.68282 5 6.60381
      vertex 0 5 10
      vertex 1.94377 5 6.7119
    endloop
  endfacet
  facet normal 0 1 -0
    outer loop
      vertex 1.44199 5 6.45623
      vertex 0 5 10
      vertex 1.68282 5 6.60381
    endloop
  endfacet
  facet normal 0 1 -0
    outer loop
      vertex 1.22721 5 6.27279
      vertex 0 5 10
      vertex 1.44199 5 6.45623
    endloop
  endfacet
  facet normal 0 1 -0
    outer loop
      vertex 1.04377 5 6.05801
      vertex 0 5 10
      vertex 1.22721 5 6.27279
    endloop
  endfacet
  facet normal 0 1 -0
    outer loop
      vertex 0.896188 5 5.81718
      vertex 0 5 10
      vertex 1.04377 5 6.05801
    endloop
  endfacet
  facet normal 0 1 -0
    outer loop
      vertex 0.788097 5 5.55623
      vertex 0 5 10
      vertex 0.896188 5 5.81718
    endloop
  endfacet
  facet normal 0 1 -0
    outer loop
      vertex 0.72216 5 5.28158
      vertex 0 5 10
      vertex 0.788097 5 5.55623
    endloop
  endfacet
  facet normal 0 1 -0
    outer loop
      vertex 0.7 5 5
      vertex 0 5 10
      vertex 0.72216 5 5.28158
    endloop
  endfacet
  facet normal 0 1 0
    outer loop
      vertex 0 5 0
      vertex 0.7 5 5
      vertex 0.72216 5 4.71842
    endloop
  endfacet
  facet normal 0 1 0
    outer loop
      vertex 2.78158 5 3.22216
      vertex 0 5 0
      vertex 2.5 5 3.2
    endloop
  endfacet
  facet normal 0 1 0
    outer loop
      vertex 2.5 5 3.2
      vertex 0 5 0
      vertex 2.21842 5 3.22216
    endloop
  endfacet
  facet normal 0 1 0
    outer loop
      vertex 0.7 5 5
      vertex 0 5 0
      vertex 0 5 10
    endloop
  endfacet
  facet normal 0 1 0
    outer loop
      vertex 0.788097 5 4.44377
      vertex 0 5 0
      vertex 0.72216 5 4.71842
    endloop
  endfacet
  facet normal 0 1 0
    outer loop
      vertex 0.896188 5 4.18282
      vertex 0 5 0
      vertex 0.788097 5 4.44377
    endloop
  endfacet
  facet normal 0 1 0
    outer loop
      vertex 1.04377 5 3.94199
      vertex 0 5 0
      vertex 0.896188 5 4.18282
    endloop
  endfacet
  facet normal 0 1 0
    outer loop
      vertex 1.22721 5 3.72721
      vertex 0 5 0
      vertex 1.04377 5 3.94199
    endloop
  endfacet
  facet normal 0 1 0
    outer loop
      vertex 1.44199 5 3.54377
      vertex 0 5 0
      vertex 1.22721 5 3.72721
    endloop
  endfacet
  facet normal 0 1 0
    outer loop
      vertex 1.68282 5 3.39619
      vertex 0 5 0
      vertex 1.44199 5 3.54377
    endloop
  endfacet
  facet normal 0 1 0
    outer loop
      vertex 1.94377 5 3.2881
      vertex 0 5 0
      vertex 1.68282 5 3.39619
    endloop
  endfacet
  facet normal 0 1 0
    outer loop
      vertex 2.21842 5 3.22216
      vertex 0 5 0
      vertex 1.94377 5 3.2881
    endloop
  endfacet
  facet normal -1 0 0
    outer loop
      vertex 13.5 21.4816 12.4835
      vertex 13.5 22.5 10
      vertex 13.5 21.5 12.25
    endloop
  endfacet
  facet normal -1 0 0
    outer loop
      vertex 13.5 22.5 10
      vertex 13.5 21.4999 12.2488
      vertex 13.5 21.5 12.25
    endloop
  endfacet
  facet normal -1 0 0
    outer loop
      vertex 13.5 22.5 10
      vertex 13.5 21.4815 12.0153
      vertex 13.5 21.4999 12.2488
    endloop
  endfacet
  facet normal -1 0 0
    outer loop
      vertex 13.5 22.5 10
      vertex 13.5 21.4266 11.7865
      vertex 13.5 21.4815 12.0153
    endloop
  endfacet
  facet normal -1 0 0
    outer loop
      vertex 13.5 22.5 10
      vertex 13.5 21.3365 11.569
      vertex 13.5 21.4266 11.7865
    endloop
  endfacet
  facet normal -1 0 0
    outer loop
      vertex 13.5 22.5 10
      vertex 13.5 21.2135 11.3683
      vertex 13.5 21.3365 11.569
    endloop
  endfacet
  facet normal -1 0 0
    outer loop
      vertex 13.5 22.5 10
      vertex 13.5 21.0607 11.1893
      vertex 13.5 21.2135 11.3683
    endloop
  endfacet
  facet normal -1 0 0
    outer loop
      vertex 13.5 22.5 10
      vertex 13.5 20.8817 11.0365
      vertex 13.5 21.0607 11.1893
    endloop
  endfacet
  facet normal -1 0 0
    outer loop
      vertex 13.5 22.5 10
      vertex 13.5 20.681 10.9135
      vertex 13.5 20.8817 11.0365
    endloop
  endfacet
  facet normal -1 0 0
    outer loop
      vertex 13.5 22.5 10
      vertex 13.5 20.4635 10.8234
      vertex 13.5 20.681 10.9135
    endloop
  endfacet
  facet normal -1 0 0
    outer loop
      vertex 13.5 22.5 10
      vertex 13.5 20.2347 10.7685
      vertex 13.5 20.4635 10.8234
    endloop
  endfacet
  facet normal -1 0 0
    outer loop
      vertex 13.5 22.5 10
      vertex 13.5 20.0012 10.7501
      vertex 13.5 20.2347 10.7685
    endloop
  endfacet
  facet normal -1 0 0
    outer loop
      vertex 13.5 22.5 10
      vertex 13.5 20 10.75
      vertex 13.5 20.0012 10.7501
    endloop
  endfacet
  facet normal -1 0 0
    outer loop
      vertex 13.5 22.5 10
      vertex 13.5 19.9988 10.7501
      vertex 13.5 20 10.75
    endloop
  endfacet
  facet normal -1 0 0
    outer loop
      vertex 13.5 22.5 10
      vertex 13.5 19.7653 10.7685
      vertex 13.5 19.9988 10.7501
    endloop
  endfacet
  facet normal -1 0 0
    outer loop
      vertex 13.5 5 10
      vertex 13.5 19.7653 10.7685
      vertex 13.5 22.5 10
    endloop
  endfacet
  facet normal -1 -0 0
    outer loop
      vertex 13.5 18.5185 12.0153
      vertex 13.5 5 10
      vertex 13.5 18.5 12.25
    endloop
  endfacet
  facet normal -1 -0 0
    outer loop
      vertex 13.5 18.5734 11.7865
      vertex 13.5 5 10
      vertex 13.5 18.5185 12.0153
    endloop
  endfacet
  facet normal -1 -0 0
    outer loop
      vertex 13.5 18.6635 11.569
      vertex 13.5 5 10
      vertex 13.5 18.5734 11.7865
    endloop
  endfacet
  facet normal -1 -0 0
    outer loop
      vertex 13.5 18.7865 11.3683
      vertex 13.5 5 10
      vertex 13.5 18.6635 11.569
    endloop
  endfacet
  facet normal -1 -0 0
    outer loop
      vertex 13.5 18.9393 11.1893
      vertex 13.5 5 10
      vertex 13.5 18.7865 11.3683
    endloop
  endfacet
  facet normal -1 -0 0
    outer loop
      vertex 13.5 19.1183 11.0365
      vertex 13.5 5 10
      vertex 13.5 18.9393 11.1893
    endloop
  endfacet
  facet normal -1 -0 0
    outer loop
      vertex 13.5 19.319 10.9135
      vertex 13.5 5 10
      vertex 13.5 19.1183 11.0365
    endloop
  endfacet
  facet normal -1 -0 0
    outer loop
      vertex 13.5 19.5365 10.8234
      vertex 13.5 5 10
      vertex 13.5 19.319 10.9135
    endloop
  endfacet
  facet normal -1 -0 0
    outer loop
      vertex 13.5 19.7653 10.7685
      vertex 13.5 5 10
      vertex 13.5 19.5365 10.8234
    endloop
  endfacet
  facet normal -1 0 0
    outer loop
      vertex 13.5 21.4815 12.4847
      vertex 13.5 22.5 10
      vertex 13.5 21.4816 12.4835
    endloop
  endfacet
  facet normal -1 0 0
    outer loop
      vertex 13.5 22.5 10
      vertex 13.5 21.4815 12.4847
      vertex 13.5 22.5 20
    endloop
  endfacet
  facet normal -1 0 0
    outer loop
      vertex 13.5 21.4266 12.7135
      vertex 13.5 22.5 20
      vertex 13.5 21.4815 12.4847
    endloop
  endfacet
  facet normal -1 0 0
    outer loop
      vertex 13.5 21.3365 12.931
      vertex 13.5 22.5 20
      vertex 13.5 21.4266 12.7135
    endloop
  endfacet
  facet normal -1 0 0
    outer loop
      vertex 13.5 21.2135 13.1317
      vertex 13.5 22.5 20
      vertex 13.5 21.3365 12.931
    endloop
  endfacet
  facet normal -1 0 0
    outer loop
      vertex 13.5 21.0607 13.3107
      vertex 13.5 22.5 20
      vertex 13.5 21.2135 13.1317
    endloop
  endfacet
  facet normal -1 0 0
    outer loop
      vertex 13.5 20.8817 13.4635
      vertex 13.5 22.5 20
      vertex 13.5 21.0607 13.3107
    endloop
  endfacet
  facet normal -1 0 0
    outer loop
      vertex 13.5 20.681 13.5865
      vertex 13.5 22.5 20
      vertex 13.5 20.8817 13.4635
    endloop
  endfacet
  facet normal -1 0 0
    outer loop
      vertex 13.5 20.4635 13.6766
      vertex 13.5 22.5 20
      vertex 13.5 20.681 13.5865
    endloop
  endfacet
  facet normal -1 0 0
    outer loop
      vertex 13.5 20.2347 13.7315
      vertex 13.5 22.5 20
      vertex 13.5 20.4635 13.6766
    endloop
  endfacet
  facet normal -1 0 0
    outer loop
      vertex 13.5 20.2335 13.7316
      vertex 13.5 22.5 20
      vertex 13.5 20.2347 13.7315
    endloop
  endfacet
  facet normal -1 0 0
    outer loop
      vertex 13.5 20 13.75
      vertex 13.5 22.5 20
      vertex 13.5 20.2335 13.7316
    endloop
  endfacet
  facet normal -1 0 0
    outer loop
      vertex 13.5 19.7665 13.7316
      vertex 13.5 22.5 20
      vertex 13.5 20 13.75
    endloop
  endfacet
  facet normal -1 0 0
    outer loop
      vertex 13.5 19.7653 13.7315
      vertex 13.5 22.5 20
      vertex 13.5 19.7665 13.7316
    endloop
  endfacet
  facet normal -1 0 0
    outer loop
      vertex 13.5 19.5365 13.6766
      vertex 13.5 22.5 20
      vertex 13.5 19.7653 13.7315
    endloop
  endfacet
  facet normal -1 0 0
    outer loop
      vertex 13.5 19.319 13.5865
      vertex 13.5 22.5 20
      vertex 13.5 19.5365 13.6766
    endloop
  endfacet
  facet normal -1 0 0
    outer loop
      vertex 13.5 19.1183 13.4635
      vertex 13.5 22.5 20
      vertex 13.5 19.319 13.5865
    endloop
  endfacet
  facet normal -1 0 0
    outer loop
      vertex 13.5 18.9393 13.3107
      vertex 13.5 22.5 20
      vertex 13.5 19.1183 13.4635
    endloop
  endfacet
  facet normal -1 0 0
    outer loop
      vertex 13.5 0 20
      vertex 13.5 18.9393 13.3107
      vertex 13.5 18.7865 13.1317
    endloop
  endfacet
  facet normal -1 0 0
    outer loop
      vertex 13.5 5 10
      vertex 13.5 18.7865 13.1317
      vertex 13.5 18.6635 12.931
    endloop
  endfacet
  facet normal -1 0 0
    outer loop
      vertex 13.5 5 10
      vertex 13.5 18.5185 12.4847
      vertex 13.5 18.5 12.25
    endloop
  endfacet
  facet normal -1 0 0
    outer loop
      vertex 13.5 5 10
      vertex 13.5 18.5734 12.7135
      vertex 13.5 18.5185 12.4847
    endloop
  endfacet
  facet normal -1 0 0
    outer loop
      vertex 13.5 5 10
      vertex 13.5 18.6635 12.931
      vertex 13.5 18.5734 12.7135
    endloop
  endfacet
  facet normal -1 -0 0
    outer loop
      vertex 13.5 18.7865 13.1317
      vertex 13.5 5 10
      vertex 13.5 0 20
    endloop
  endfacet
  facet normal -1 0 0
    outer loop
      vertex 13.5 0 20
      vertex 13.5 5 10
      vertex 13.5 0 10
    endloop
  endfacet
  facet normal -1 0 0
    outer loop
      vertex 13.5 18.9393 13.3107
      vertex 13.5 0 20
      vertex 13.5 22.5 20
    endloop
  endfacet
  facet normal -0 0 1
    outer loop
      vertex 13.5 22.5 20
      vertex 18.5 0 20
      vertex 18.5 22.5 20
    endloop
  endfacet
  facet normal 0 0 1
    outer loop
      vertex 18.5 0 20
      vertex 13.5 22.5 20
      vertex 13.5 0 20
    endloop
  endfacet
  facet normal 0 -0.0783707 0.996924
    outer loop
      vertex 13.5 20.2347 2.26847
      vertex 18.5 20.2335 2.26838
      vertex 18.5 20.2347 2.26847
    endloop
  endfacet
  facet normal -2.11887e-08 -0.0784613 0.996917
    outer loop
      vertex 18.5 20.2335 2.26838
      vertex 13.5 20.2347 2.26847
      vertex 13.5 20.0012 2.25009
    endloop
  endfacet
  facet normal -2.1039e-07 -0.0784573 0.996917
    outer loop
      vertex 13.5 20.0012 2.25009
      vertex 18.5 20 2.25
      vertex 18.5 20.2335 2.26838
    endloop
  endfacet
  facet normal -1.90148e-07 -0.0783707 0.996924
    outer loop
      vertex 18.5 20 2.25
      vertex 13.5 20.0012 2.25009
      vertex 13.5 20 2.25
    endloop
  endfacet
  facet normal -0 0.649449 0.760405
    outer loop
      vertex 13.5 19.1183 2.53648
      vertex 18.5 18.9393 2.68934
      vertex 18.5 19.1183 2.53648
    endloop
  endfacet
  facet normal 0 0.649449 0.760405
    outer loop
      vertex 18.5 18.9393 2.68934
      vertex 13.5 19.1183 2.53648
      vertex 13.5 18.9393 2.68934
    endloop
  endfacet
  facet normal -1.49868e-08 0.996908 0.0785741
    outer loop
      vertex 18.5 18.5 3.75
      vertex 13.5 18.5001 3.74884
      vertex 13.5 18.5 3.75
    endloop
  endfacet
  facet normal 1.26406e-08 0.996918 0.078456
    outer loop
      vertex 13.5 18.5001 3.74884
      vertex 18.5 18.5 3.75
      vertex 18.5 18.5184 3.51651
    endloop
  endfacet
  facet normal -1.49868e-08 -0.996908 0.0785741
    outer loop
      vertex 13.5 21.4999 3.74884
      vertex 18.5 21.5 3.75
      vertex 13.5 21.5 3.75
    endloop
  endfacet
  facet normal 1.07471e-08 -0.996917 0.0784641
    outer loop
      vertex 18.5 21.5 3.75
      vertex 13.5 21.4999 3.74884
      vertex 18.5 21.4816 3.51651
    endloop
  endfacet
  facet normal 0 -0.760407 0.649447
    outer loop
      vertex 13.5 21.0607 2.68934
      vertex 18.5 21.2135 2.86832
      vertex 13.5 21.2135 2.86832
    endloop
  endfacet
  facet normal 0 -0.760407 0.649447
    outer loop
      vertex 18.5 21.2135 2.86832
      vertex 13.5 21.0607 2.68934
      vertex 18.5 21.0607 2.68934
    endloop
  endfacet
  facet normal 0 -0.522498 0.85264
    outer loop
      vertex 13.5 20.8817 2.53648
      vertex 18.5 20.681 2.41349
      vertex 18.5 20.8817 2.53648
    endloop
  endfacet
  facet normal 0 -0.522498 0.85264
    outer loop
      vertex 18.5 20.681 2.41349
      vertex 13.5 20.8817 2.53648
      vertex 13.5 20.681 2.41349
    endloop
  endfacet
  facet normal 1.90145e-07 -0.0785741 -0.996908
    outer loop
      vertex 13.5 20 5.25
      vertex 18.5 20.0012 5.24991
      vertex 18.5 20 5.25
    endloop
  endfacet
  facet normal 1.62617e-07 -0.0784563 -0.996918
    outer loop
      vertex 18.5 20.0012 5.24991
      vertex 13.5 20 5.25
      vertex 13.5 20.2335 5.23162
    endloop
  endfacet
  facet normal 0 -0.233447 0.972369
    outer loop
      vertex 13.5 20.4635 2.32342
      vertex 18.5 20.2347 2.26847
      vertex 18.5 20.4635 2.32342
    endloop
  endfacet
  facet normal 0 -0.233447 0.972369
    outer loop
      vertex 18.5 20.2347 2.26847
      vertex 13.5 20.4635 2.32342
      vertex 13.5 20.2347 2.26847
    endloop
  endfacet
  facet normal -5.09702e-08 0.0784607 0.996917
    outer loop
      vertex 13.5 19.7653 2.26847
      vertex 18.5 19.7665 2.26838
      vertex 13.5 19.9988 2.25009
    endloop
  endfacet
  facet normal 0 0.078243 0.996934
    outer loop
      vertex 18.5 19.7665 2.26838
      vertex 13.5 19.7653 2.26847
      vertex 18.5 19.7653 2.26847
    endloop
  endfacet
  facet normal -1.90148e-07 0.0783707 0.996924
    outer loop
      vertex 13.5 19.9988 2.25009
      vertex 18.5 20 2.25
      vertex 13.5 20 2.25
    endloop
  endfacet
  facet normal -2.1039e-07 0.0784573 0.996917
    outer loop
      vertex 18.5 20 2.25
      vertex 13.5 19.9988 2.25009
      vertex 18.5 19.7665 2.26838
    endloop
  endfacet
  facet normal 0 0.382681 -0.92388
    outer loop
      vertex 13.5 19.319 5.08651
      vertex 18.5 19.5365 5.17659
      vertex 18.5 19.319 5.08651
    endloop
  endfacet
  facet normal 0 0.382681 -0.92388
    outer loop
      vertex 18.5 19.5365 5.17659
      vertex 13.5 19.319 5.08651
      vertex 13.5 19.5365 5.17659
    endloop
  endfacet
  facet normal 0 -0.997035 -0.0769469
    outer loop
      vertex 13.5 21.4816 3.98349
      vertex 18.5 21.4815 3.98465
      vertex 13.5 21.4815 3.98465
    endloop
  endfacet
  facet normal 3.52763e-07 -0.996918 -0.0784563
    outer loop
      vertex 18.5 21.4815 3.98465
      vertex 13.5 21.4816 3.98349
      vertex 18.5 21.4999 3.75116
    endloop
  endfacet
  facet normal 0 -0.972369 0.23345
    outer loop
      vertex 13.5 21.4266 3.28648
      vertex 18.5 21.4815 3.51535
      vertex 13.5 21.4815 3.51535
    endloop
  endfacet
  facet normal 0 -0.972369 0.23345
    outer loop
      vertex 18.5 21.4815 3.51535
      vertex 13.5 21.4266 3.28648
      vertex 18.5 21.4266 3.28648
    endloop
  endfacet
  facet normal -3.52763e-07 -0.996918 0.0784563
    outer loop
      vertex 13.5 21.4815 3.51535
      vertex 18.5 21.4816 3.51651
      vertex 13.5 21.4999 3.74884
    endloop
  endfacet
  facet normal 0 -0.997035 0.0769469
    outer loop
      vertex 18.5 21.4816 3.51651
      vertex 13.5 21.4815 3.51535
      vertex 18.5 21.4815 3.51535
    endloop
  endfacet
  facet normal 0 -0.92388 0.382681
    outer loop
      vertex 13.5 21.3365 3.06901
      vertex 18.5 21.4266 3.28648
      vertex 13.5 21.4266 3.28648
    endloop
  endfacet
  facet normal 0 -0.92388 0.382681
    outer loop
      vertex 18.5 21.4266 3.28648
      vertex 13.5 21.3365 3.06901
      vertex 18.5 21.3365 3.06901
    endloop
  endfacet
  facet normal 0 -0.852637 0.522503
    outer loop
      vertex 13.5 21.2135 2.86832
      vertex 18.5 21.3365 3.06901
      vertex 13.5 21.3365 3.06901
    endloop
  endfacet
  facet normal 0 -0.852637 0.522503
    outer loop
      vertex 18.5 21.3365 3.06901
      vertex 13.5 21.2135 2.86832
      vertex 18.5 21.2135 2.86832
    endloop
  endfacet
  facet normal 0 -0.649449 0.760405
    outer loop
      vertex 13.5 21.0607 2.68934
      vertex 18.5 20.8817 2.53648
      vertex 18.5 21.0607 2.68934
    endloop
  endfacet
  facet normal 0 -0.649449 0.760405
    outer loop
      vertex 18.5 20.8817 2.53648
      vertex 13.5 21.0607 2.68934
      vertex 13.5 20.8817 2.53648
    endloop
  endfacet
  facet normal 0 0.923878 -0.382688
    outer loop
      vertex 18.5 18.5734 4.21353
      vertex 13.5 18.6635 4.43099
      vertex 18.5 18.6635 4.43099
    endloop
  endfacet
  facet normal 0 0.923878 -0.382688
    outer loop
      vertex 13.5 18.6635 4.43099
      vertex 18.5 18.5734 4.21353
      vertex 13.5 18.5734 4.21353
    endloop
  endfacet
  facet normal 0 0.760407 0.649447
    outer loop
      vertex 18.5 18.9393 2.68934
      vertex 13.5 18.7865 2.86832
      vertex 18.5 18.7865 2.86832
    endloop
  endfacet
  facet normal 0 0.760407 0.649447
    outer loop
      vertex 13.5 18.7865 2.86832
      vertex 18.5 18.9393 2.68934
      vertex 13.5 18.9393 2.68934
    endloop
  endfacet
  facet normal -0 0.522498 0.85264
    outer loop
      vertex 13.5 19.319 2.41349
      vertex 18.5 19.1183 2.53648
      vertex 18.5 19.319 2.41349
    endloop
  endfacet
  facet normal 0 0.522498 0.85264
    outer loop
      vertex 18.5 19.1183 2.53648
      vertex 13.5 19.319 2.41349
      vertex 13.5 19.1183 2.53648
    endloop
  endfacet
  facet normal 0 -0.649449 -0.760405
    outer loop
      vertex 13.5 20.8817 4.96353
      vertex 18.5 21.0607 4.81066
      vertex 18.5 20.8817 4.96353
    endloop
  endfacet
  facet normal -0 -0.649449 -0.760405
    outer loop
      vertex 18.5 21.0607 4.81066
      vertex 13.5 20.8817 4.96353
      vertex 13.5 21.0607 4.81066
    endloop
  endfacet
  facet normal -2.65845e-08 -0.0784603 -0.996917
    outer loop
      vertex 13.5 20.2335 5.23162
      vertex 18.5 20.2347 5.23153
      vertex 18.5 20.0012 5.24991
    endloop
  endfacet
  facet normal -0 -0.0785741 -0.996908
    outer loop
      vertex 18.5 20.2347 5.23153
      vertex 13.5 20.2335 5.23162
      vertex 13.5 20.2347 5.23153
    endloop
  endfacet
  facet normal 1.62617e-07 0.0784563 -0.996918
    outer loop
      vertex 13.5 20 5.25
      vertex 18.5 19.9988 5.24991
      vertex 13.5 19.7665 5.23162
    endloop
  endfacet
  facet normal 1.90145e-07 0.0785741 -0.996908
    outer loop
      vertex 18.5 19.9988 5.24991
      vertex 13.5 20 5.25
      vertex 18.5 20 5.25
    endloop
  endfacet
  facet normal 0 0.078446 -0.996918
    outer loop
      vertex 13.5 19.7665 5.23162
      vertex 18.5 19.7653 5.23153
      vertex 13.5 19.7653 5.23153
    endloop
  endfacet
  facet normal 3.19663e-09 0.0784597 -0.996917
    outer loop
      vertex 18.5 19.7653 5.23153
      vertex 13.5 19.7665 5.23162
      vertex 18.5 19.9988 5.24991
    endloop
  endfacet
  facet normal -1.07471e-08 -0.996917 -0.0784641
    outer loop
      vertex 13.5 21.5 3.75
      vertex 18.5 21.4999 3.75116
      vertex 13.5 21.4816 3.98349
    endloop
  endfacet
  facet normal 1.49868e-08 -0.996908 -0.0785741
    outer loop
      vertex 18.5 21.4999 3.75116
      vertex 13.5 21.5 3.75
      vertex 18.5 21.5 3.75
    endloop
  endfacet
  facet normal 0 -0.92388 -0.382681
    outer loop
      vertex 13.5 21.4266 4.21353
      vertex 18.5 21.3365 4.43099
      vertex 13.5 21.3365 4.43099
    endloop
  endfacet
  facet normal 0 -0.92388 -0.382681
    outer loop
      vertex 18.5 21.3365 4.43099
      vertex 13.5 21.4266 4.21353
      vertex 18.5 21.4266 4.21353
    endloop
  endfacet
  facet normal 0 -0.382681 0.92388
    outer loop
      vertex 13.5 20.681 2.41349
      vertex 18.5 20.4635 2.32342
      vertex 18.5 20.681 2.41349
    endloop
  endfacet
  facet normal 0 -0.382681 0.92388
    outer loop
      vertex 18.5 20.4635 2.32342
      vertex 13.5 20.681 2.41349
      vertex 13.5 20.4635 2.32342
    endloop
  endfacet
  facet normal 0 0.649449 -0.760405
    outer loop
      vertex 13.5 18.9393 4.81066
      vertex 18.5 19.1183 4.96353
      vertex 18.5 18.9393 4.81066
    endloop
  endfacet
  facet normal 0 0.649449 -0.760405
    outer loop
      vertex 18.5 19.1183 4.96353
      vertex 13.5 18.9393 4.81066
      vertex 13.5 19.1183 4.96353
    endloop
  endfacet
  facet normal 1.49868e-08 0.996908 -0.0785741
    outer loop
      vertex 13.5 18.5 3.75
      vertex 18.5 18.5001 3.75116
      vertex 18.5 18.5 3.75
    endloop
  endfacet
  facet normal -1.26406e-08 0.996918 -0.078456
    outer loop
      vertex 18.5 18.5001 3.75116
      vertex 13.5 18.5 3.75
      vertex 13.5 18.5184 3.98349
    endloop
  endfacet
  facet normal 0 0.852641 0.522497
    outer loop
      vertex 18.5 18.7865 2.86832
      vertex 13.5 18.6635 3.06901
      vertex 18.5 18.6635 3.06901
    endloop
  endfacet
  facet normal 0 0.852641 0.522497
    outer loop
      vertex 13.5 18.6635 3.06901
      vertex 18.5 18.7865 2.86832
      vertex 13.5 18.7865 2.86832
    endloop
  endfacet
  facet normal -0 0.996908 0.0785741
    outer loop
      vertex 13.5 18.5185 3.51535
      vertex 18.5 18.5184 3.51651
      vertex 18.5 18.5185 3.51535
    endloop
  endfacet
  facet normal 2.75304e-08 0.996918 0.0784563
    outer loop
      vertex 18.5 18.5184 3.51651
      vertex 13.5 18.5185 3.51535
      vertex 13.5 18.5001 3.74884
    endloop
  endfacet
  facet normal -0 0.233447 0.972369
    outer loop
      vertex 13.5 19.7653 2.26847
      vertex 18.5 19.5365 2.32342
      vertex 18.5 19.7653 2.26847
    endloop
  endfacet
  facet normal 0 0.233447 0.972369
    outer loop
      vertex 18.5 19.5365 2.32342
      vertex 13.5 19.7653 2.26847
      vertex 13.5 19.5365 2.32342
    endloop
  endfacet
  facet normal -0 0.382681 0.92388
    outer loop
      vertex 13.5 19.5365 2.32342
      vertex 18.5 19.319 2.41349
      vertex 18.5 19.5365 2.32342
    endloop
  endfacet
  facet normal 0 0.382681 0.92388
    outer loop
      vertex 18.5 19.319 2.41349
      vertex 13.5 19.5365 2.32342
      vertex 13.5 19.319 2.41349
    endloop
  endfacet
  facet normal 0 -0.522498 -0.85264
    outer loop
      vertex 13.5 20.681 5.08651
      vertex 18.5 20.8817 4.96353
      vertex 18.5 20.681 5.08651
    endloop
  endfacet
  facet normal -0 -0.522498 -0.85264
    outer loop
      vertex 18.5 20.8817 4.96353
      vertex 13.5 20.681 5.08651
      vertex 13.5 20.8817 4.96353
    endloop
  endfacet
  facet normal 0 0.233447 -0.972369
    outer loop
      vertex 13.5 19.5365 5.17659
      vertex 18.5 19.7653 5.23153
      vertex 18.5 19.5365 5.17659
    endloop
  endfacet
  facet normal 0 0.233447 -0.972369
    outer loop
      vertex 18.5 19.7653 5.23153
      vertex 13.5 19.5365 5.17659
      vertex 13.5 19.7653 5.23153
    endloop
  endfacet
  facet normal 0 -0.760407 -0.649447
    outer loop
      vertex 13.5 21.2135 4.63168
      vertex 18.5 21.0607 4.81066
      vertex 13.5 21.0607 4.81066
    endloop
  endfacet
  facet normal 0 -0.760407 -0.649447
    outer loop
      vertex 18.5 21.0607 4.81066
      vertex 13.5 21.2135 4.63168
      vertex 18.5 21.2135 4.63168
    endloop
  endfacet
  facet normal 0 -0.852637 -0.522503
    outer loop
      vertex 13.5 21.3365 4.43099
      vertex 18.5 21.2135 4.63168
      vertex 13.5 21.2135 4.63168
    endloop
  endfacet
  facet normal 0 -0.852637 -0.522503
    outer loop
      vertex 18.5 21.2135 4.63168
      vertex 13.5 21.3365 4.43099
      vertex 18.5 21.3365 4.43099
    endloop
  endfacet
  facet normal 0 -0.972369 -0.23345
    outer loop
      vertex 13.5 21.4815 3.98465
      vertex 18.5 21.4266 4.21353
      vertex 13.5 21.4266 4.21353
    endloop
  endfacet
  facet normal 0 -0.972369 -0.23345
    outer loop
      vertex 18.5 21.4266 4.21353
      vertex 13.5 21.4815 3.98465
      vertex 18.5 21.4815 3.98465
    endloop
  endfacet
  facet normal 0 0.852641 -0.522497
    outer loop
      vertex 18.5 18.6635 4.43099
      vertex 13.5 18.7865 4.63168
      vertex 18.5 18.7865 4.63168
    endloop
  endfacet
  facet normal 0 0.852641 -0.522497
    outer loop
      vertex 13.5 18.7865 4.63168
      vertex 18.5 18.6635 4.43099
      vertex 13.5 18.6635 4.43099
    endloop
  endfacet
  facet normal 0 0.760407 -0.649447
    outer loop
      vertex 18.5 18.7865 4.63168
      vertex 13.5 18.9393 4.81066
      vertex 18.5 18.9393 4.81066
    endloop
  endfacet
  facet normal 0 0.760407 -0.649447
    outer loop
      vertex 13.5 18.9393 4.81066
      vertex 18.5 18.7865 4.63168
      vertex 13.5 18.7865 4.63168
    endloop
  endfacet
  facet normal 0 0.522498 -0.85264
    outer loop
      vertex 13.5 19.1183 4.96353
      vertex 18.5 19.319 5.08651
      vertex 18.5 19.1183 4.96353
    endloop
  endfacet
  facet normal 0 0.522498 -0.85264
    outer loop
      vertex 18.5 19.319 5.08651
      vertex 13.5 19.1183 4.96353
      vertex 13.5 19.319 5.08651
    endloop
  endfacet
  facet normal 0 0.972371 -0.233443
    outer loop
      vertex 18.5 18.5185 3.98465
      vertex 13.5 18.5734 4.21353
      vertex 18.5 18.5734 4.21353
    endloop
  endfacet
  facet normal 0 0.972371 -0.233443
    outer loop
      vertex 13.5 18.5734 4.21353
      vertex 18.5 18.5185 3.98465
      vertex 13.5 18.5185 3.98465
    endloop
  endfacet
  facet normal 0 0.996908 -0.0785741
    outer loop
      vertex 18.5 18.5185 3.98465
      vertex 13.5 18.5184 3.98349
      vertex 13.5 18.5185 3.98465
    endloop
  endfacet
  facet normal -2.75304e-08 0.996918 -0.0784563
    outer loop
      vertex 13.5 18.5184 3.98349
      vertex 18.5 18.5185 3.98465
      vertex 18.5 18.5001 3.75116
    endloop
  endfacet
  facet normal 0 -0.233447 -0.972369
    outer loop
      vertex 13.5 20.2347 5.23153
      vertex 18.5 20.4635 5.17659
      vertex 18.5 20.2347 5.23153
    endloop
  endfacet
  facet normal -0 -0.233447 -0.972369
    outer loop
      vertex 18.5 20.4635 5.17659
      vertex 13.5 20.2347 5.23153
      vertex 13.5 20.4635 5.17659
    endloop
  endfacet
  facet normal 0 -0.382681 -0.92388
    outer loop
      vertex 13.5 20.4635 5.17659
      vertex 18.5 20.681 5.08651
      vertex 18.5 20.4635 5.17659
    endloop
  endfacet
  facet normal -0 -0.382681 -0.92388
    outer loop
      vertex 18.5 20.681 5.08651
      vertex 13.5 20.4635 5.17659
      vertex 13.5 20.681 5.08651
    endloop
  endfacet
  facet normal 0 0.923878 0.382688
    outer loop
      vertex 18.5 18.6635 3.06901
      vertex 13.5 18.5734 3.28648
      vertex 18.5 18.5734 3.28648
    endloop
  endfacet
  facet normal 0 0.923878 0.382688
    outer loop
      vertex 13.5 18.5734 3.28648
      vertex 18.5 18.6635 3.06901
      vertex 13.5 18.6635 3.06901
    endloop
  endfacet
  facet normal 0 0.972371 0.233443
    outer loop
      vertex 18.5 18.5734 3.28648
      vertex 13.5 18.5185 3.51535
      vertex 18.5 18.5185 3.51535
    endloop
  endfacet
  facet normal 0 0.972371 0.233443
    outer loop
      vertex 13.5 18.5185 3.51535
      vertex 18.5 18.5734 3.28648
      vertex 13.5 18.5734 3.28648
    endloop
  endfacet
  facet normal 0 -0.0785741 0.996908
    outer loop
      vertex 13.5 20.2347 10.7685
      vertex 18.5 20.2335 10.7684
      vertex 18.5 20.2347 10.7685
    endloop
  endfacet
  facet normal 2.65845e-08 -0.0784603 0.996917
    outer loop
      vertex 18.5 20.2335 10.7684
      vertex 13.5 20.2347 10.7685
      vertex 13.5 20.0012 10.7501
    endloop
  endfacet
  facet normal -1.62617e-07 -0.0784563 0.996918
    outer loop
      vertex 13.5 20.0012 10.7501
      vertex 18.5 20 10.75
      vertex 18.5 20.2335 10.7684
    endloop
  endfacet
  facet normal -1.90145e-07 -0.0785741 0.996908
    outer loop
      vertex 18.5 20 10.75
      vertex 13.5 20.0012 10.7501
      vertex 13.5 20 10.75
    endloop
  endfacet
  facet normal -1.07471e-08 -0.996917 -0.0784641
    outer loop
      vertex 13.5 21.5 12.25
      vertex 18.5 21.4999 12.2512
      vertex 13.5 21.4816 12.4835
    endloop
  endfacet
  facet normal 1.49868e-08 -0.996908 -0.0785741
    outer loop
      vertex 18.5 21.4999 12.2512
      vertex 13.5 21.5 12.25
      vertex 18.5 21.5 12.25
    endloop
  endfacet
  facet normal -2.65845e-08 -0.0784603 -0.996917
    outer loop
      vertex 13.5 20.2335 13.7316
      vertex 18.5 20.2347 13.7315
      vertex 18.5 20.0012 13.7499
    endloop
  endfacet
  facet normal -0 -0.0785741 -0.996908
    outer loop
      vertex 18.5 20.2347 13.7315
      vertex 13.5 20.2335 13.7316
      vertex 13.5 20.2347 13.7315
    endloop
  endfacet
  facet normal -0 0.382681 0.92388
    outer loop
      vertex 13.5 19.5365 10.8234
      vertex 18.5 19.319 10.9135
      vertex 18.5 19.5365 10.8234
    endloop
  endfacet
  facet normal 0 0.382681 0.92388
    outer loop
      vertex 18.5 19.319 10.9135
      vertex 13.5 19.5365 10.8234
      vertex 13.5 19.319 10.9135
    endloop
  endfacet
  facet normal 0 -0.972369 0.23345
    outer loop
      vertex 13.5 21.4266 11.7865
      vertex 18.5 21.4815 12.0153
      vertex 13.5 21.4815 12.0153
    endloop
  endfacet
  facet normal 0 -0.972369 0.23345
    outer loop
      vertex 18.5 21.4815 12.0153
      vertex 13.5 21.4266 11.7865
      vertex 18.5 21.4266 11.7865
    endloop
  endfacet
  facet normal 0 -0.522498 0.85264
    outer loop
      vertex 13.5 20.8817 11.0365
      vertex 18.5 20.681 10.9135
      vertex 18.5 20.8817 11.0365
    endloop
  endfacet
  facet normal 0 -0.522498 0.85264
    outer loop
      vertex 18.5 20.681 10.9135
      vertex 13.5 20.8817 11.0365
      vertex 13.5 20.681 10.9135
    endloop
  endfacet
  facet normal 0 -0.233447 0.972369
    outer loop
      vertex 13.5 20.4635 10.8234
      vertex 18.5 20.2347 10.7685
      vertex 18.5 20.4635 10.8234
    endloop
  endfacet
  facet normal 0 -0.233447 0.972369
    outer loop
      vertex 18.5 20.2347 10.7685
      vertex 13.5 20.4635 10.8234
      vertex 13.5 20.2347 10.7685
    endloop
  endfacet
  facet normal 0 0.923878 -0.382688
    outer loop
      vertex 18.5 18.5734 12.7135
      vertex 13.5 18.6635 12.931
      vertex 18.5 18.6635 12.931
    endloop
  endfacet
  facet normal 0 0.923878 -0.382688
    outer loop
      vertex 13.5 18.6635 12.931
      vertex 18.5 18.5734 12.7135
      vertex 13.5 18.5734 12.7135
    endloop
  endfacet
  facet normal 0 0.760407 0.649447
    outer loop
      vertex 18.5 18.9393 11.1893
      vertex 13.5 18.7865 11.3683
      vertex 18.5 18.7865 11.3683
    endloop
  endfacet
  facet normal 0 0.760407 0.649447
    outer loop
      vertex 13.5 18.7865 11.3683
      vertex 18.5 18.9393 11.1893
      vertex 13.5 18.9393 11.1893
    endloop
  endfacet
  facet normal -1.90145e-07 0.0785741 0.996908
    outer loop
      vertex 13.5 19.9988 10.7501
      vertex 18.5 20 10.75
      vertex 13.5 20 10.75
    endloop
  endfacet
  facet normal -1.62617e-07 0.0784563 0.996918
    outer loop
      vertex 18.5 20 10.75
      vertex 13.5 19.9988 10.7501
      vertex 18.5 19.7665 10.7684
    endloop
  endfacet
  facet normal -0 0.649449 0.760405
    outer loop
      vertex 13.5 19.1183 11.0365
      vertex 18.5 18.9393 11.1893
      vertex 18.5 19.1183 11.0365
    endloop
  endfacet
  facet normal 0 0.649449 0.760405
    outer loop
      vertex 18.5 18.9393 11.1893
      vertex 13.5 19.1183 11.0365
      vertex 13.5 18.9393 11.1893
    endloop
  endfacet
  facet normal 0 -0.92388 -0.382681
    outer loop
      vertex 13.5 21.4266 12.7135
      vertex 18.5 21.3365 12.931
      vertex 13.5 21.3365 12.931
    endloop
  endfacet
  facet normal 0 -0.92388 -0.382681
    outer loop
      vertex 18.5 21.3365 12.931
      vertex 13.5 21.4266 12.7135
      vertex 18.5 21.4266 12.7135
    endloop
  endfacet
  facet normal -1.49868e-08 -0.996908 0.0785741
    outer loop
      vertex 13.5 21.4999 12.2488
      vertex 18.5 21.5 12.25
      vertex 13.5 21.5 12.25
    endloop
  endfacet
  facet normal 1.07471e-08 -0.996917 0.0784641
    outer loop
      vertex 18.5 21.5 12.25
      vertex 13.5 21.4999 12.2488
      vertex 18.5 21.4816 12.0165
    endloop
  endfacet
  facet normal 0 -0.852637 0.522503
    outer loop
      vertex 13.5 21.2135 11.3683
      vertex 18.5 21.3365 11.569
      vertex 13.5 21.3365 11.569
    endloop
  endfacet
  facet normal 0 -0.852637 0.522503
    outer loop
      vertex 18.5 21.3365 11.569
      vertex 13.5 21.2135 11.3683
      vertex 18.5 21.2135 11.3683
    endloop
  endfacet
  facet normal 0 0.522498 -0.85264
    outer loop
      vertex 13.5 19.1183 13.4635
      vertex 18.5 19.319 13.5865
      vertex 18.5 19.1183 13.4635
    endloop
  endfacet
  facet normal 0 0.522498 -0.85264
    outer loop
      vertex 18.5 19.319 13.5865
      vertex 13.5 19.1183 13.4635
      vertex 13.5 19.319 13.5865
    endloop
  endfacet
  facet normal 0 0.996918 -0.0784569
    outer loop
      vertex 18.5 18.5 12.25
      vertex 13.5 18.5185 12.4847
      vertex 18.5 18.5185 12.4847
    endloop
  endfacet
  facet normal 0 0.996918 -0.0784569
    outer loop
      vertex 13.5 18.5185 12.4847
      vertex 18.5 18.5 12.25
      vertex 13.5 18.5 12.25
    endloop
  endfacet
  facet normal -3.19663e-09 0.0784597 0.996917
    outer loop
      vertex 13.5 19.7653 10.7685
      vertex 18.5 19.7665 10.7684
      vertex 13.5 19.9988 10.7501
    endloop
  endfacet
  facet normal 0 0.078446 0.996918
    outer loop
      vertex 18.5 19.7665 10.7684
      vertex 13.5 19.7653 10.7685
      vertex 18.5 19.7653 10.7685
    endloop
  endfacet
  facet normal -0 0.522498 0.85264
    outer loop
      vertex 13.5 19.319 10.9135
      vertex 18.5 19.1183 11.0365
      vertex 18.5 19.319 10.9135
    endloop
  endfacet
  facet normal 0 0.522498 0.85264
    outer loop
      vertex 18.5 19.1183 11.0365
      vertex 13.5 19.319 10.9135
      vertex 13.5 19.1183 11.0365
    endloop
  endfacet
  facet normal 0 -0.649449 -0.760405
    outer loop
      vertex 13.5 20.8817 13.4635
      vertex 18.5 21.0607 13.3107
      vertex 18.5 20.8817 13.4635
    endloop
  endfacet
  facet normal -0 -0.649449 -0.760405
    outer loop
      vertex 18.5 21.0607 13.3107
      vertex 13.5 20.8817 13.4635
      vertex 13.5 21.0607 13.3107
    endloop
  endfacet
  facet normal 0 0.382681 -0.92388
    outer loop
      vertex 13.5 19.319 13.5865
      vertex 18.5 19.5365 13.6766
      vertex 18.5 19.319 13.5865
    endloop
  endfacet
  facet normal 0 0.382681 -0.92388
    outer loop
      vertex 18.5 19.5365 13.6766
      vertex 13.5 19.319 13.5865
      vertex 13.5 19.5365 13.6766
    endloop
  endfacet
  facet normal 0 0.078446 -0.996918
    outer loop
      vertex 13.5 19.7665 13.7316
      vertex 18.5 19.7653 13.7315
      vertex 13.5 19.7653 13.7315
    endloop
  endfacet
  facet normal 3.19663e-09 0.0784597 -0.996917
    outer loop
      vertex 18.5 19.7653 13.7315
      vertex 13.5 19.7665 13.7316
      vertex 18.5 19.9988 13.7499
    endloop
  endfacet
  facet normal 1.62617e-07 0.0784563 -0.996918
    outer loop
      vertex 13.5 20 13.75
      vertex 18.5 19.9988 13.7499
      vertex 13.5 19.7665 13.7316
    endloop
  endfacet
  facet normal 1.90145e-07 0.0785741 -0.996908
    outer loop
      vertex 18.5 19.9988 13.7499
      vertex 13.5 20 13.75
      vertex 18.5 20 13.75
    endloop
  endfacet
  facet normal 1.90145e-07 -0.0785741 -0.996908
    outer loop
      vertex 13.5 20 13.75
      vertex 18.5 20.0012 13.7499
      vertex 18.5 20 13.75
    endloop
  endfacet
  facet normal 1.62617e-07 -0.0784563 -0.996918
    outer loop
      vertex 18.5 20.0012 13.7499
      vertex 13.5 20 13.75
      vertex 13.5 20.2335 13.7316
    endloop
  endfacet
  facet normal 0 -0.997035 -0.0769469
    outer loop
      vertex 13.5 21.4816 12.4835
      vertex 18.5 21.4815 12.4847
      vertex 13.5 21.4815 12.4847
    endloop
  endfacet
  facet normal 3.52763e-07 -0.996918 -0.0784563
    outer loop
      vertex 18.5 21.4815 12.4847
      vertex 13.5 21.4816 12.4835
      vertex 18.5 21.4999 12.2512
    endloop
  endfacet
  facet normal -3.52763e-07 -0.996918 0.0784563
    outer loop
      vertex 13.5 21.4815 12.0153
      vertex 18.5 21.4816 12.0165
      vertex 13.5 21.4999 12.2488
    endloop
  endfacet
  facet normal 0 -0.997035 0.0769469
    outer loop
      vertex 18.5 21.4816 12.0165
      vertex 13.5 21.4815 12.0153
      vertex 18.5 21.4815 12.0153
    endloop
  endfacet
  facet normal 0 -0.92388 0.382681
    outer loop
      vertex 13.5 21.3365 11.569
      vertex 18.5 21.4266 11.7865
      vertex 13.5 21.4266 11.7865
    endloop
  endfacet
  facet normal 0 -0.92388 0.382681
    outer loop
      vertex 18.5 21.4266 11.7865
      vertex 13.5 21.3365 11.569
      vertex 18.5 21.3365 11.569
    endloop
  endfacet
  facet normal 0 -0.760407 0.649447
    outer loop
      vertex 13.5 21.0607 11.1893
      vertex 18.5 21.2135 11.3683
      vertex 13.5 21.2135 11.3683
    endloop
  endfacet
  facet normal 0 -0.760407 0.649447
    outer loop
      vertex 18.5 21.2135 11.3683
      vertex 13.5 21.0607 11.1893
      vertex 18.5 21.0607 11.1893
    endloop
  endfacet
  facet normal 0 -0.649449 0.760405
    outer loop
      vertex 13.5 21.0607 11.1893
      vertex 18.5 20.8817 11.0365
      vertex 18.5 21.0607 11.1893
    endloop
  endfacet
  facet normal 0 -0.649449 0.760405
    outer loop
      vertex 18.5 20.8817 11.0365
      vertex 13.5 21.0607 11.1893
      vertex 13.5 20.8817 11.0365
    endloop
  endfacet
  facet normal 0 -0.382681 0.92388
    outer loop
      vertex 13.5 20.681 10.9135
      vertex 18.5 20.4635 10.8234
      vertex 18.5 20.681 10.9135
    endloop
  endfacet
  facet normal 0 -0.382681 0.92388
    outer loop
      vertex 18.5 20.4635 10.8234
      vertex 13.5 20.681 10.9135
      vertex 13.5 20.4635 10.8234
    endloop
  endfacet
  facet normal 0 0.649449 -0.760405
    outer loop
      vertex 13.5 18.9393 13.3107
      vertex 18.5 19.1183 13.4635
      vertex 18.5 18.9393 13.3107
    endloop
  endfacet
  facet normal 0 0.649449 -0.760405
    outer loop
      vertex 18.5 19.1183 13.4635
      vertex 13.5 18.9393 13.3107
      vertex 13.5 19.1183 13.4635
    endloop
  endfacet
  facet normal 0 0.972371 -0.233443
    outer loop
      vertex 18.5 18.5185 12.4847
      vertex 13.5 18.5734 12.7135
      vertex 18.5 18.5734 12.7135
    endloop
  endfacet
  facet normal 0 0.972371 -0.233443
    outer loop
      vertex 13.5 18.5734 12.7135
      vertex 18.5 18.5185 12.4847
      vertex 13.5 18.5185 12.4847
    endloop
  endfacet
  facet normal 0 0.996918 0.0784565
    outer loop
      vertex 18.5 18.5185 12.0153
      vertex 13.5 18.5 12.25
      vertex 18.5 18.5 12.25
    endloop
  endfacet
  facet normal 0 0.996918 0.0784565
    outer loop
      vertex 13.5 18.5 12.25
      vertex 18.5 18.5185 12.0153
      vertex 13.5 18.5185 12.0153
    endloop
  endfacet
  facet normal 0 0.852641 0.522497
    outer loop
      vertex 18.5 18.7865 11.3683
      vertex 13.5 18.6635 11.569
      vertex 18.5 18.6635 11.569
    endloop
  endfacet
  facet normal 0 0.852641 0.522497
    outer loop
      vertex 13.5 18.6635 11.569
      vertex 18.5 18.7865 11.3683
      vertex 13.5 18.7865 11.3683
    endloop
  endfacet
  facet normal -0 0.233447 0.972369
    outer loop
      vertex 13.5 19.7653 10.7685
      vertex 18.5 19.5365 10.8234
      vertex 18.5 19.7653 10.7685
    endloop
  endfacet
  facet normal 0 0.233447 0.972369
    outer loop
      vertex 18.5 19.5365 10.8234
      vertex 13.5 19.7653 10.7685
      vertex 13.5 19.5365 10.8234
    endloop
  endfacet
  facet normal 0 -0.382681 -0.92388
    outer loop
      vertex 13.5 20.4635 13.6766
      vertex 18.5 20.681 13.5865
      vertex 18.5 20.4635 13.6766
    endloop
  endfacet
  facet normal -0 -0.382681 -0.92388
    outer loop
      vertex 18.5 20.681 13.5865
      vertex 13.5 20.4635 13.6766
      vertex 13.5 20.681 13.5865
    endloop
  endfacet
  facet normal 0 -0.522498 -0.85264
    outer loop
      vertex 13.5 20.681 13.5865
      vertex 18.5 20.8817 13.4635
      vertex 18.5 20.681 13.5865
    endloop
  endfacet
  facet normal -0 -0.522498 -0.85264
    outer loop
      vertex 18.5 20.8817 13.4635
      vertex 13.5 20.681 13.5865
      vertex 13.5 20.8817 13.4635
    endloop
  endfacet
  facet normal 0 0.233447 -0.972369
    outer loop
      vertex 13.5 19.5365 13.6766
      vertex 18.5 19.7653 13.7315
      vertex 18.5 19.5365 13.6766
    endloop
  endfacet
  facet normal 0 0.233447 -0.972369
    outer loop
      vertex 18.5 19.7653 13.7315
      vertex 13.5 19.5365 13.6766
      vertex 13.5 19.7653 13.7315
    endloop
  endfacet
  facet normal 0 -0.760407 -0.649447
    outer loop
      vertex 13.5 21.2135 13.1317
      vertex 18.5 21.0607 13.3107
      vertex 13.5 21.0607 13.3107
    endloop
  endfacet
  facet normal 0 -0.760407 -0.649447
    outer loop
      vertex 18.5 21.0607 13.3107
      vertex 13.5 21.2135 13.1317
      vertex 18.5 21.2135 13.1317
    endloop
  endfacet
  facet normal 0 -0.852637 -0.522503
    outer loop
      vertex 13.5 21.3365 12.931
      vertex 18.5 21.2135 13.1317
      vertex 13.5 21.2135 13.1317
    endloop
  endfacet
  facet normal 0 -0.852637 -0.522503
    outer loop
      vertex 18.5 21.2135 13.1317
      vertex 13.5 21.3365 12.931
      vertex 18.5 21.3365 12.931
    endloop
  endfacet
  facet normal 0 0.852641 -0.522497
    outer loop
      vertex 18.5 18.6635 12.931
      vertex 13.5 18.7865 13.1317
      vertex 18.5 18.7865 13.1317
    endloop
  endfacet
  facet normal 0 0.852641 -0.522497
    outer loop
      vertex 13.5 18.7865 13.1317
      vertex 18.5 18.6635 12.931
      vertex 13.5 18.6635 12.931
    endloop
  endfacet
  facet normal 0 0.760407 -0.649447
    outer loop
      vertex 18.5 18.7865 13.1317
      vertex 13.5 18.9393 13.3107
      vertex 18.5 18.9393 13.3107
    endloop
  endfacet
  facet normal 0 0.760407 -0.649447
    outer loop
      vertex 13.5 18.9393 13.3107
      vertex 18.5 18.7865 13.1317
      vertex 13.5 18.7865 13.1317
    endloop
  endfacet
  facet normal 0 -0.233447 -0.972369
    outer loop
      vertex 13.5 20.2347 13.7315
      vertex 18.5 20.4635 13.6766
      vertex 18.5 20.2347 13.7315
    endloop
  endfacet
  facet normal -0 -0.233447 -0.972369
    outer loop
      vertex 18.5 20.4635 13.6766
      vertex 13.5 20.2347 13.7315
      vertex 13.5 20.4635 13.6766
    endloop
  endfacet
  facet normal 0 -0.972369 -0.23345
    outer loop
      vertex 13.5 21.4815 12.4847
      vertex 18.5 21.4266 12.7135
      vertex 13.5 21.4266 12.7135
    endloop
  endfacet
  facet normal 0 -0.972369 -0.23345
    outer loop
      vertex 18.5 21.4266 12.7135
      vertex 13.5 21.4815 12.4847
      vertex 18.5 21.4815 12.4847
    endloop
  endfacet
  facet normal 0 0.923878 0.382688
    outer loop
      vertex 18.5 18.6635 11.569
      vertex 13.5 18.5734 11.7865
      vertex 18.5 18.5734 11.7865
    endloop
  endfacet
  facet normal 0 0.923878 0.382688
    outer loop
      vertex 13.5 18.5734 11.7865
      vertex 18.5 18.6635 11.569
      vertex 13.5 18.6635 11.569
    endloop
  endfacet
  facet normal 0 0.972371 0.233443
    outer loop
      vertex 18.5 18.5734 11.7865
      vertex 13.5 18.5185 12.0153
      vertex 18.5 18.5185 12.0153
    endloop
  endfacet
  facet normal 0 0.972371 0.233443
    outer loop
      vertex 13.5 18.5185 12.0153
      vertex 18.5 18.5734 11.7865
      vertex 13.5 18.5734 11.7865
    endloop
  endfacet
  facet normal -0.996917 -3.86735e-09 -0.0784576
    outer loop
      vertex 4.27784 0 5.28158
      vertex 4.27795 5 5.28019
      vertex 4.29989 0 5.00139
    endloop
  endfacet
  facet normal -0.996919 0 -0.0784438
    outer loop
      vertex 4.27795 5 5.28019
      vertex 4.27784 0 5.28158
      vertex 4.27784 5 5.28158
    endloop
  endfacet
  facet normal -0.97237 0 -0.233444
    outer loop
      vertex 4.27784 0 5.28158
      vertex 4.2119 5 5.55623
      vertex 4.27784 5 5.28158
    endloop
  endfacet
  facet normal -0.97237 -0 -0.233444
    outer loop
      vertex 4.2119 5 5.55623
      vertex 4.27784 0 5.28158
      vertex 4.2119 0 5.55623
    endloop
  endfacet
  facet normal -0.996919 -1.4962e-08 -0.0784438
    outer loop
      vertex 4.29989 0 5.00139
      vertex 4.3 5 5
      vertex 4.3 0 5
    endloop
  endfacet
  facet normal -0.996917 -1.87575e-08 -0.0784573
    outer loop
      vertex 4.3 5 5
      vertex 4.29989 0 5.00139
      vertex 4.27795 5 5.28019
    endloop
  endfacet
  facet normal -0.649448 0 -0.760406
    outer loop
      vertex 3.55801 0 6.45623
      vertex 3.77279 5 6.27279
      vertex 3.77279 0 6.27279
    endloop
  endfacet
  facet normal -0.649448 0 -0.760406
    outer loop
      vertex 3.77279 5 6.27279
      vertex 3.55801 0 6.45623
      vertex 3.55801 5 6.45623
    endloop
  endfacet
  facet normal -0.233444 0 0.97237
    outer loop
      vertex 2.78158 5 3.22216
      vertex 3.05623 0 3.2881
      vertex 3.05623 5 3.2881
    endloop
  endfacet
  facet normal -0.233444 0 0.97237
    outer loop
      vertex 3.05623 0 3.2881
      vertex 2.78158 5 3.22216
      vertex 2.78158 0 3.22216
    endloop
  endfacet
  facet normal -0.382685 0 -0.923879
    outer loop
      vertex 3.05623 0 6.7119
      vertex 3.31718 5 6.60381
      vertex 3.31718 0 6.60381
    endloop
  endfacet
  facet normal -0.382685 0 -0.923879
    outer loop
      vertex 3.31718 5 6.60381
      vertex 3.05623 0 6.7119
      vertex 3.05623 5 6.7119
    endloop
  endfacet
  facet normal -0.522499 0 -0.85264
    outer loop
      vertex 3.31718 0 6.60381
      vertex 3.55801 5 6.45623
      vertex 3.55801 0 6.45623
    endloop
  endfacet
  facet normal -0.522499 0 -0.85264
    outer loop
      vertex 3.55801 5 6.45623
      vertex 3.31718 0 6.60381
      vertex 3.31718 5 6.60381
    endloop
  endfacet
  facet normal 0.923879 0 -0.382685
    outer loop
      vertex 0.896188 0 5.81718
      vertex 0.788097 5 5.55623
      vertex 0.896188 5 5.81718
    endloop
  endfacet
  facet normal 0.923879 0 -0.382685
    outer loop
      vertex 0.788097 5 5.55623
      vertex 0.896188 0 5.81718
      vertex 0.788097 0 5.55623
    endloop
  endfacet
  facet normal 0.85264 0 -0.522499
    outer loop
      vertex 1.04377 0 6.05801
      vertex 0.896188 5 5.81718
      vertex 1.04377 5 6.05801
    endloop
  endfacet
  facet normal 0.85264 0 -0.522499
    outer loop
      vertex 0.896188 5 5.81718
      vertex 1.04377 0 6.05801
      vertex 0.896188 0 5.81718
    endloop
  endfacet
  facet normal 0.233444 0 -0.97237
    outer loop
      vertex 1.94377 0 6.7119
      vertex 2.21842 5 6.77784
      vertex 2.21842 0 6.77784
    endloop
  endfacet
  facet normal 0.233444 0 -0.97237
    outer loop
      vertex 2.21842 5 6.77784
      vertex 1.94377 0 6.7119
      vertex 1.94377 5 6.7119
    endloop
  endfacet
  facet normal -0.85264 0 0.522499
    outer loop
      vertex 3.95623 0 3.94199
      vertex 4.10381 5 4.18282
      vertex 3.95623 5 3.94199
    endloop
  endfacet
  facet normal -0.85264 0 0.522499
    outer loop
      vertex 4.10381 5 4.18282
      vertex 3.95623 0 3.94199
      vertex 4.10381 0 4.18282
    endloop
  endfacet
  facet normal 0.522499 0 0.85264
    outer loop
      vertex 1.44199 5 3.54377
      vertex 1.68282 0 3.39619
      vertex 1.68282 5 3.39619
    endloop
  endfacet
  facet normal 0.522499 0 0.85264
    outer loop
      vertex 1.68282 0 3.39619
      vertex 1.44199 5 3.54377
      vertex 1.44199 0 3.54377
    endloop
  endfacet
  facet normal 0.97237 -0 0.233444
    outer loop
      vertex 0.72216 0 4.71842
      vertex 0.788097 5 4.44377
      vertex 0.72216 5 4.71842
    endloop
  endfacet
  facet normal 0.97237 0 0.233444
    outer loop
      vertex 0.788097 5 4.44377
      vertex 0.72216 0 4.71842
      vertex 0.788097 0 4.44377
    endloop
  endfacet
  facet normal -0.760406 0 -0.649448
    outer loop
      vertex 3.95623 0 6.05801
      vertex 3.77279 5 6.27279
      vertex 3.95623 5 6.05801
    endloop
  endfacet
  facet normal -0.760406 -0 -0.649448
    outer loop
      vertex 3.77279 5 6.27279
      vertex 3.95623 0 6.05801
      vertex 3.77279 0 6.27279
    endloop
  endfacet
  facet normal -0.233444 0 -0.97237
    outer loop
      vertex 2.78158 0 6.77784
      vertex 3.05623 5 6.7119
      vertex 3.05623 0 6.7119
    endloop
  endfacet
  facet normal -0.233444 0 -0.97237
    outer loop
      vertex 3.05623 5 6.7119
      vertex 2.78158 0 6.77784
      vertex 2.78158 5 6.77784
    endloop
  endfacet
  facet normal 0.97237 0 -0.233444
    outer loop
      vertex 0.788097 0 5.55623
      vertex 0.72216 5 5.28158
      vertex 0.788097 5 5.55623
    endloop
  endfacet
  facet normal 0.97237 0 -0.233444
    outer loop
      vertex 0.72216 5 5.28158
      vertex 0.788097 0 5.55623
      vertex 0.72216 0 5.28158
    endloop
  endfacet
  facet normal 0.649448 0 -0.760406
    outer loop
      vertex 1.22721 0 6.27279
      vertex 1.44199 5 6.45623
      vertex 1.44199 0 6.45623
    endloop
  endfacet
  facet normal 0.649448 0 -0.760406
    outer loop
      vertex 1.44199 5 6.45623
      vertex 1.22721 0 6.27279
      vertex 1.22721 5 6.27279
    endloop
  endfacet
  facet normal 0.760406 0 -0.649448
    outer loop
      vertex 1.22721 0 6.27279
      vertex 1.04377 5 6.05801
      vertex 1.22721 5 6.27279
    endloop
  endfacet
  facet normal 0.760406 0 -0.649448
    outer loop
      vertex 1.04377 5 6.05801
      vertex 1.22721 0 6.27279
      vertex 1.04377 0 6.05801
    endloop
  endfacet
  facet normal -0.97237 0 0.233444
    outer loop
      vertex 4.2119 0 4.44377
      vertex 4.27784 5 4.71842
      vertex 4.2119 5 4.44377
    endloop
  endfacet
  facet normal -0.97237 0 0.233444
    outer loop
      vertex 4.27784 5 4.71842
      vertex 4.2119 0 4.44377
      vertex 4.27784 0 4.71842
    endloop
  endfacet
  facet normal -0.649448 0 0.760406
    outer loop
      vertex 3.55801 5 3.54377
      vertex 3.77279 0 3.72721
      vertex 3.77279 5 3.72721
    endloop
  endfacet
  facet normal -0.649448 0 0.760406
    outer loop
      vertex 3.77279 0 3.72721
      vertex 3.55801 5 3.54377
      vertex 3.55801 0 3.54377
    endloop
  endfacet
  facet normal -0.760406 0 0.649448
    outer loop
      vertex 3.77279 0 3.72721
      vertex 3.95623 5 3.94199
      vertex 3.77279 5 3.72721
    endloop
  endfacet
  facet normal -0.760406 0 0.649448
    outer loop
      vertex 3.95623 5 3.94199
      vertex 3.77279 0 3.72721
      vertex 3.95623 0 3.94199
    endloop
  endfacet
  facet normal -0.923879 0 0.382685
    outer loop
      vertex 4.10381 0 4.18282
      vertex 4.2119 5 4.44377
      vertex 4.10381 5 4.18282
    endloop
  endfacet
  facet normal -0.923879 0 0.382685
    outer loop
      vertex 4.2119 5 4.44377
      vertex 4.10381 0 4.18282
      vertex 4.2119 0 4.44377
    endloop
  endfacet
  facet normal -0.996919 0 0.0784438
    outer loop
      vertex 4.27795 0 4.71981
      vertex 4.27784 5 4.71842
      vertex 4.27784 0 4.71842
    endloop
  endfacet
  facet normal -0.996917 3.86735e-09 0.0784576
    outer loop
      vertex 4.27784 5 4.71842
      vertex 4.27795 0 4.71981
      vertex 4.29989 5 4.99861
    endloop
  endfacet
  facet normal -0.996917 1.87575e-08 0.0784573
    outer loop
      vertex 4.3 0 5
      vertex 4.29989 5 4.99861
      vertex 4.27795 0 4.71981
    endloop
  endfacet
  facet normal -0.996919 1.4962e-08 0.0784438
    outer loop
      vertex 4.29989 5 4.99861
      vertex 4.3 0 5
      vertex 4.3 5 5
    endloop
  endfacet
  facet normal 0.233444 0 0.97237
    outer loop
      vertex 1.94377 5 3.2881
      vertex 2.21842 0 3.22216
      vertex 2.21842 5 3.22216
    endloop
  endfacet
  facet normal 0.233444 0 0.97237
    outer loop
      vertex 2.21842 0 3.22216
      vertex 1.94377 5 3.2881
      vertex 1.94377 0 3.2881
    endloop
  endfacet
  facet normal 0.382685 0 0.923879
    outer loop
      vertex 1.68282 5 3.39619
      vertex 1.94377 0 3.2881
      vertex 1.94377 5 3.2881
    endloop
  endfacet
  facet normal 0.382685 0 0.923879
    outer loop
      vertex 1.94377 0 3.2881
      vertex 1.68282 5 3.39619
      vertex 1.68282 0 3.39619
    endloop
  endfacet
  facet normal 0.760406 -0 0.649448
    outer loop
      vertex 1.04377 0 3.94199
      vertex 1.22721 5 3.72721
      vertex 1.04377 5 3.94199
    endloop
  endfacet
  facet normal 0.760406 0 0.649448
    outer loop
      vertex 1.22721 5 3.72721
      vertex 1.04377 0 3.94199
      vertex 1.22721 0 3.72721
    endloop
  endfacet
  facet normal 0.649448 0 0.760406
    outer loop
      vertex 1.22721 5 3.72721
      vertex 1.44199 0 3.54377
      vertex 1.44199 5 3.54377
    endloop
  endfacet
  facet normal 0.649448 0 0.760406
    outer loop
      vertex 1.44199 0 3.54377
      vertex 1.22721 5 3.72721
      vertex 1.22721 0 3.72721
    endloop
  endfacet
  facet normal -0.923879 0 -0.382685
    outer loop
      vertex 4.2119 0 5.55623
      vertex 4.10381 5 5.81718
      vertex 4.2119 5 5.55623
    endloop
  endfacet
  facet normal -0.923879 -0 -0.382685
    outer loop
      vertex 4.10381 5 5.81718
      vertex 4.2119 0 5.55623
      vertex 4.10381 0 5.81718
    endloop
  endfacet
  facet normal -0.85264 0 -0.522499
    outer loop
      vertex 4.10381 0 5.81718
      vertex 3.95623 5 6.05801
      vertex 4.10381 5 5.81718
    endloop
  endfacet
  facet normal -0.85264 -0 -0.522499
    outer loop
      vertex 3.95623 5 6.05801
      vertex 4.10381 0 5.81718
      vertex 3.95623 0 6.05801
    endloop
  endfacet
  facet normal -0.0784575 0 -0.996917
    outer loop
      vertex 2.5 0 6.8
      vertex 2.78158 5 6.77784
      vertex 2.78158 0 6.77784
    endloop
  endfacet
  facet normal -0.0784575 0 -0.996917
    outer loop
      vertex 2.78158 5 6.77784
      vertex 2.5 0 6.8
      vertex 2.5 5 6.8
    endloop
  endfacet
  facet normal 0.0784573 0 -0.996917
    outer loop
      vertex 2.21842 0 6.77784
      vertex 2.5 5 6.8
      vertex 2.5 0 6.8
    endloop
  endfacet
  facet normal 0.0784573 0 -0.996917
    outer loop
      vertex 2.5 5 6.8
      vertex 2.21842 0 6.77784
      vertex 2.21842 5 6.77784
    endloop
  endfacet
  facet normal 0.996917 0 -0.0784575
    outer loop
      vertex 0.72216 0 5.28158
      vertex 0.7 5 5
      vertex 0.72216 5 5.28158
    endloop
  endfacet
  facet normal 0.996917 0 -0.0784575
    outer loop
      vertex 0.7 5 5
      vertex 0.72216 0 5.28158
      vertex 0.7 0 5
    endloop
  endfacet
  facet normal 0.996917 -0 0.0784573
    outer loop
      vertex 0.7 0 5
      vertex 0.72216 5 4.71842
      vertex 0.7 5 5
    endloop
  endfacet
  facet normal 0.996917 0 0.0784573
    outer loop
      vertex 0.72216 5 4.71842
      vertex 0.7 0 5
      vertex 0.72216 0 4.71842
    endloop
  endfacet
  facet normal 0.382685 0 -0.923879
    outer loop
      vertex 1.68282 0 6.60381
      vertex 1.94377 5 6.7119
      vertex 1.94377 0 6.7119
    endloop
  endfacet
  facet normal 0.382685 0 -0.923879
    outer loop
      vertex 1.94377 5 6.7119
      vertex 1.68282 0 6.60381
      vertex 1.68282 5 6.60381
    endloop
  endfacet
  facet normal 0.522499 0 -0.85264
    outer loop
      vertex 1.44199 0 6.45623
      vertex 1.68282 5 6.60381
      vertex 1.68282 0 6.60381
    endloop
  endfacet
  facet normal 0.522499 0 -0.85264
    outer loop
      vertex 1.68282 5 6.60381
      vertex 1.44199 0 6.45623
      vertex 1.44199 5 6.45623
    endloop
  endfacet
  facet normal -0.382685 0 0.923879
    outer loop
      vertex 3.05623 5 3.2881
      vertex 3.31718 0 3.39619
      vertex 3.31718 5 3.39619
    endloop
  endfacet
  facet normal -0.382685 0 0.923879
    outer loop
      vertex 3.31718 0 3.39619
      vertex 3.05623 5 3.2881
      vertex 3.05623 0 3.2881
    endloop
  endfacet
  facet normal -0.522499 0 0.85264
    outer loop
      vertex 3.31718 5 3.39619
      vertex 3.55801 0 3.54377
      vertex 3.55801 5 3.54377
    endloop
  endfacet
  facet normal -0.522499 0 0.85264
    outer loop
      vertex 3.55801 0 3.54377
      vertex 3.31718 5 3.39619
      vertex 3.31718 0 3.39619
    endloop
  endfacet
  facet normal 0.0784575 0 0.996917
    outer loop
      vertex 2.21842 5 3.22216
      vertex 2.5 0 3.2
      vertex 2.5 5 3.2
    endloop
  endfacet
  facet normal 0.0784575 0 0.996917
    outer loop
      vertex 2.5 0 3.2
      vertex 2.21842 5 3.22216
      vertex 2.21842 0 3.22216
    endloop
  endfacet
  facet normal -0.0784573 0 0.996917
    outer loop
      vertex 2.5 5 3.2
      vertex 2.78158 0 3.22216
      vertex 2.78158 5 3.22216
    endloop
  endfacet
  facet normal -0.0784573 0 0.996917
    outer loop
      vertex 2.78158 0 3.22216
      vertex 2.5 5 3.2
      vertex 2.5 0 3.2
    endloop
  endfacet
  facet normal 0.923879 -0 0.382685
    outer loop
      vertex 0.788097 0 4.44377
      vertex 0.896188 5 4.18282
      vertex 0.788097 5 4.44377
    endloop
  endfacet
  facet normal 0.923879 0 0.382685
    outer loop
      vertex 0.896188 5 4.18282
      vertex 0.788097 0 4.44377
      vertex 0.896188 0 4.18282
    endloop
  endfacet
  facet normal 0.85264 -0 0.522499
    outer loop
      vertex 0.896188 0 4.18282
      vertex 1.04377 5 3.94199
      vertex 0.896188 5 4.18282
    endloop
  endfacet
  facet normal 0.85264 0 0.522499
    outer loop
      vertex 1.04377 5 3.94199
      vertex 0.896188 0 4.18282
      vertex 1.04377 0 3.94199
    endloop
  endfacet
endsolid OpenSCAD_Model
