solid OpenSCAD_Model
  facet normal -1 0 0
    outer loop
      vertex -3.75 -3.75 3
      vertex -3.75 3.75 -3
      vertex -3.75 -3.75 -3
    endloop
  endfacet
  facet normal -1 0 0
    outer loop
      vertex -3.75 -3.75 3
      vertex -3.75 3.75 3
      vertex -3.75 3.75 -3
    endloop
  endfacet
  facet normal 0 -1 0
    outer loop
      vertex 3.75 -3.75 -3
      vertex -3.75 -3.75 3
      vertex -3.75 -3.75 -3
    endloop
  endfacet
  facet normal 0 -1 0
    outer loop
      vertex 3.75 -3.75 -3
      vertex 3.75 -3.75 3
      vertex -3.75 -3.75 3
    endloop
  endfacet
  facet normal 0 0 -1
    outer loop
      vertex -3.75 3.75 -3
      vertex -3 3.67394e-16 -3
      vertex -3.75 -3.75 -3
    endloop
  endfacet
  facet normal 0 -0 -1
    outer loop
      vertex -3 3.67394e-16 -3
      vertex -2.42705 -1.76336 -3
      vertex -3.75 -3.75 -3
    endloop
  endfacet
  facet normal 0 -0 -1
    outer loop
      vertex 3.75 3.75 -3
      vertex 3.75 -3.75 -3
      vertex 3 0 -3
    endloop
  endfacet
  facet normal 0 -0 -1
    outer loop
      vertex -2.42705 -1.76336 -3
      vertex -0.927051 -2.85317 -3
      vertex -3.75 -3.75 -3
    endloop
  endfacet
  facet normal 0 -0 -1
    outer loop
      vertex 0.927051 -2.85317 -3
      vertex 3.75 -3.75 -3
      vertex -3.75 -3.75 -3
    endloop
  endfacet
  facet normal -0 0 -1
    outer loop
      vertex 0.927051 -2.85317 -3
      vertex -3.75 -3.75 -3
      vertex -0.927051 -2.85317 -3
    endloop
  endfacet
  facet normal 0 -0 -1
    outer loop
      vertex 2.42705 -1.76336 -3
      vertex 3.75 -3.75 -3
      vertex 0.927051 -2.85317 -3
    endloop
  endfacet
  facet normal 0 0 -1
    outer loop
      vertex 3.75 3.75 -3
      vertex 3 0 -3
      vertex 2.42705 1.76336 -3
    endloop
  endfacet
  facet normal 0 -0 -1
    outer loop
      vertex 3 0 -3
      vertex 3.75 -3.75 -3
      vertex 2.42705 -1.76336 -3
    endloop
  endfacet
  facet normal 0 0 -1
    outer loop
      vertex 3.75 3.75 -3
      vertex 2.42705 1.76336 -3
      vertex 0.927051 2.85317 -3
    endloop
  endfacet
  facet normal -0 0 -1
    outer loop
      vertex 3.75 3.75 -3
      vertex -0.927051 2.85317 -3
      vertex -3.75 3.75 -3
    endloop
  endfacet
  facet normal 0 0 -1
    outer loop
      vertex 0.927051 2.85317 -3
      vertex -0.927051 2.85317 -3
      vertex 3.75 3.75 -3
    endloop
  endfacet
  facet normal -0 0 -1
    outer loop
      vertex -0.927051 2.85317 -3
      vertex -2.42705 1.76336 -3
      vertex -3.75 3.75 -3
    endloop
  endfacet
  facet normal -0 0 -1
    outer loop
      vertex -2.42705 1.76336 -3
      vertex -3 3.67394e-16 -3
      vertex -3.75 3.75 -3
    endloop
  endfacet
  facet normal 0 1 0
    outer loop
      vertex -3.75 3.75 3
      vertex 3.75 3.75 -3
      vertex -3.75 3.75 -3
    endloop
  endfacet
  facet normal -0 1 0
    outer loop
      vertex -3.75 3.75 3
      vertex 3.75 3.75 3
      vertex 3.75 3.75 -3
    endloop
  endfacet
  facet normal 0 0 1
    outer loop
      vertex 3.75 3.75 3
      vertex -3.75 3.75 3
      vertex -0.927051 2.85317 3
    endloop
  endfacet
  facet normal 0 0 1
    outer loop
      vertex -2.42705 -1.76336 3
      vertex -3 3.67394e-16 3
      vertex -3.75 -3.75 3
    endloop
  endfacet
  facet normal 0 0 1
    outer loop
      vertex -3 3.67394e-16 3
      vertex -3.75 3.75 3
      vertex -3.75 -3.75 3
    endloop
  endfacet
  facet normal 0 0 1
    outer loop
      vertex -2.42705 1.76336 3
      vertex -3.75 3.75 3
      vertex -3 3.67394e-16 3
    endloop
  endfacet
  facet normal 0 0 1
    outer loop
      vertex 3.75 3.75 3
      vertex -0.927051 2.85317 3
      vertex 0.927051 2.85317 3
    endloop
  endfacet
  facet normal 0 0 1
    outer loop
      vertex -0.927051 2.85317 3
      vertex -3.75 3.75 3
      vertex -2.42705 1.76336 3
    endloop
  endfacet
  facet normal 0 0 1
    outer loop
      vertex 3.75 3.75 3
      vertex 0.927051 2.85317 3
      vertex 2.42705 1.76336 3
    endloop
  endfacet
  facet normal 0 0 1
    outer loop
      vertex 3.75 3.75 3
      vertex 2.42705 1.76336 3
      vertex 3 0 3
    endloop
  endfacet
  facet normal 0 0 1
    outer loop
      vertex 3.75 3.75 3
      vertex 3 0 3
      vertex 3.75 -3.75 3
    endloop
  endfacet
  facet normal 0 0 1
    outer loop
      vertex 3 0 3
      vertex 2.42705 -1.76336 3
      vertex 3.75 -3.75 3
    endloop
  endfacet
  facet normal 0 0 1
    outer loop
      vertex -2.42705 -1.76336 3
      vertex -3.75 -3.75 3
      vertex -0.927051 -2.85317 3
    endloop
  endfacet
  facet normal 0 0 1
    outer loop
      vertex 2.42705 -1.76336 3
      vertex 0.927051 -2.85317 3
      vertex 3.75 -3.75 3
    endloop
  endfacet
  facet normal 0 0 1
    outer loop
      vertex 0.927051 -2.85317 3
      vertex -3.75 -3.75 3
      vertex 3.75 -3.75 3
    endloop
  endfacet
  facet normal 0 0 1
    outer loop
      vertex -0.927051 -2.85317 3
      vertex -3.75 -3.75 3
      vertex 0.927051 -2.85317 3
    endloop
  endfacet
  facet normal 1 0 0
    outer loop
      vertex 3.75 3.75 -3
      vertex 3.75 -3.75 3
      vertex 3.75 -3.75 -3
    endloop
  endfacet
  facet normal 1 0 -0
    outer loop
      vertex 3.75 3.75 -3
      vertex 3.75 3.75 3
      vertex 3.75 -3.75 3
    endloop
  endfacet
  facet normal 0.951057 0.309017 -0
    outer loop
      vertex -3 3.67394e-16 -3
      vertex -3 3.67394e-16 3
      vertex -2.42705 -1.76336 3
    endloop
  endfacet
  facet normal 0.951057 0.309017 -0
    outer loop
      vertex -2.42705 -1.76336 -3
      vertex -3 3.67394e-16 -3
      vertex -2.42705 -1.76336 3
    endloop
  endfacet
  facet normal -0.587785 0.809017 0
    outer loop
      vertex 2.42705 -1.76336 -3
      vertex 0.927051 -2.85317 3
      vertex 2.42705 -1.76336 3
    endloop
  endfacet
  facet normal -0.587785 0.809017 0
    outer loop
      vertex 2.42705 -1.76336 -3
      vertex 0.927051 -2.85317 -3
      vertex 0.927051 -2.85317 3
    endloop
  endfacet
  facet normal 0.587785 0.809017 -0
    outer loop
      vertex -0.927051 -2.85317 -3
      vertex -2.42705 -1.76336 3
      vertex -0.927051 -2.85317 3
    endloop
  endfacet
  facet normal 0.587785 0.809017 0
    outer loop
      vertex -0.927051 -2.85317 -3
      vertex -2.42705 -1.76336 -3
      vertex -2.42705 -1.76336 3
    endloop
  endfacet
  facet normal 0.951057 -0.309017 0
    outer loop
      vertex -3 3.67394e-16 3
      vertex -2.42705 1.76336 -3
      vertex -2.42705 1.76336 3
    endloop
  endfacet
  facet normal 0.951057 -0.309017 0
    outer loop
      vertex -3 3.67394e-16 3
      vertex -3 3.67394e-16 -3
      vertex -2.42705 1.76336 -3
    endloop
  endfacet
  facet normal -0.951057 -0.309017 0
    outer loop
      vertex 2.42705 1.76336 -3
      vertex 3 0 -3
      vertex 3 0 3
    endloop
  endfacet
  facet normal -0.951057 -0.309017 -0
    outer loop
      vertex 2.42705 1.76336 3
      vertex 2.42705 1.76336 -3
      vertex 3 0 3
    endloop
  endfacet
  facet normal 2.39517e-16 1 -0
    outer loop
      vertex 0.927051 -2.85317 -3
      vertex -0.927051 -2.85317 3
      vertex 0.927051 -2.85317 3
    endloop
  endfacet
  facet normal 2.39517e-16 1 0
    outer loop
      vertex 0.927051 -2.85317 -3
      vertex -0.927051 -2.85317 -3
      vertex -0.927051 -2.85317 3
    endloop
  endfacet
  facet normal -0.951057 0.309017 0
    outer loop
      vertex 3 0 -3
      vertex 2.42705 -1.76336 3
      vertex 3 0 3
    endloop
  endfacet
  facet normal -0.951057 0.309017 0
    outer loop
      vertex 3 0 -3
      vertex 2.42705 -1.76336 -3
      vertex 2.42705 -1.76336 3
    endloop
  endfacet
  facet normal -2.39517e-16 -1 0
    outer loop
      vertex -0.927051 2.85317 3
      vertex 0.927051 2.85317 -3
      vertex 0.927051 2.85317 3
    endloop
  endfacet
  facet normal -2.39517e-16 -1 -0
    outer loop
      vertex -0.927051 2.85317 3
      vertex -0.927051 2.85317 -3
      vertex 0.927051 2.85317 -3
    endloop
  endfacet
  facet normal -0.587785 -0.809017 0
    outer loop
      vertex 0.927051 2.85317 3
      vertex 2.42705 1.76336 -3
      vertex 2.42705 1.76336 3
    endloop
  endfacet
  facet normal -0.587785 -0.809017 -0
    outer loop
      vertex 0.927051 2.85317 3
      vertex 0.927051 2.85317 -3
      vertex 2.42705 1.76336 -3
    endloop
  endfacet
  facet normal 0.587785 -0.809017 0
    outer loop
      vertex -2.42705 1.76336 3
      vertex -0.927051 2.85317 -3
      vertex -0.927051 2.85317 3
    endloop
  endfacet
  facet normal 0.587785 -0.809017 0
    outer loop
      vertex -2.42705 1.76336 3
      vertex -2.42705 1.76336 -3
      vertex -0.927051 2.85317 -3
    endloop
  endfacet
endsolid OpenSCAD_Model
