solid OpenSCAD_Model
  facet normal -1 0 0
    outer loop
      vertex 0 50 0
      vertex 0 0 0
      vertex 0 0 2
    endloop
  endfacet
  facet normal -1 -0 -0
    outer loop
      vertex 0 50 2
      vertex 0 50 0
      vertex 0 0 2
    endloop
  endfacet
  facet normal 0 -1 0
    outer loop
      vertex 0 0 2
      vertex 0 0 0
      vertex 40 0 0
    endloop
  endfacet
  facet normal -0 -1 -0
    outer loop
      vertex 40 0 2
      vertex 0 0 2
      vertex 40 0 0
    endloop
  endfacet
  facet normal -0 0 -1
    outer loop
      vertex 1 30 0
      vertex 0 0 0
      vertex 0 50 0
    endloop
  endfacet
  facet normal 0 0 -1
    outer loop
      vertex 16.3145 5.72263 0
      vertex 16.2135 5.88168 0
      vertex 18.807 11.0375 0
    endloop
  endfacet
  facet normal -0 0 -1
    outer loop
      vertex 1.14982 27.6187 0
      vertex 0 0 0
      vertex 1 30 0
    endloop
  endfacet
  facet normal -0 0 -1
    outer loop
      vertex 1.59692 25.2749 0
      vertex 0 0 0
      vertex 1.14982 27.6187 0
    endloop
  endfacet
  facet normal -0 0 -1
    outer loop
      vertex 2.33425 23.0056 0
      vertex 0 0 0
      vertex 1.59692 25.2749 0
    endloop
  endfacet
  facet normal -0 0 -1
    outer loop
      vertex 3.35017 20.8467 0
      vertex 0 0 0
      vertex 2.33425 23.0056 0
    endloop
  endfacet
  facet normal -0 0 -1
    outer loop
      vertex 4.62868 18.8321 0
      vertex 0 0 0
      vertex 3.35017 20.8467 0
    endloop
  endfacet
  facet normal -0 0 -1
    outer loop
      vertex 6.1496 16.9936 0
      vertex 0 0 0
      vertex 4.62868 18.8321 0
    endloop
  endfacet
  facet normal -0 0 -1
    outer loop
      vertex 7.88894 15.3602 0
      vertex 0 0 0
      vertex 6.1496 16.9936 0
    endloop
  endfacet
  facet normal -0 0 -1
    outer loop
      vertex 9.81929 13.9578 0
      vertex 0 0 0
      vertex 7.88894 15.3602 0
    endloop
  endfacet
  facet normal 0 0 -1
    outer loop
      vertex 11.9102 12.8083 0
      vertex 13.9065 6.02682 0
      vertex 13.7865 5.88168 0
    endloop
  endfacet
  facet normal 0 0 -1
    outer loop
      vertex 14.1287 11.9299 0
      vertex 16.4398 11.3365 0
      vertex 14.9058 6.49704 0
    endloop
  endfacet
  facet normal 0 -0 -1
    outer loop
      vertex 21.193 11.0375 0
      vertex 28.5 5 0
      vertex 16.5 5 0
    endloop
  endfacet
  facet normal 0 -0 -1
    outer loop
      vertex 16.4882 4.812 0
      vertex 28.5118 4.812 0
      vertex 16.4529 4.62697 0
    endloop
  endfacet
  facet normal 0 -0 -1
    outer loop
      vertex 14.7189 3.52657 0
      vertex 14.9058 3.50296 0
      vertex 0 0 0
    endloop
  endfacet
  facet normal 0 -0 -1
    outer loop
      vertex 14.9058 3.50296 0
      vertex 15.0942 3.50296 0
      vertex 0 0 0
    endloop
  endfacet
  facet normal 0 0 -1
    outer loop
      vertex 30.8037 6.26649 0
      vertex 30.6387 6.35724 0
      vertex 30.1807 13.9578 0
    endloop
  endfacet
  facet normal 0 0 -1
    outer loop
      vertex 33.8504 16.9936 0
      vertex 31.3947 5.55219 0
      vertex 31.3145 5.72263 0
    endloop
  endfacet
  facet normal 0 0 -1
    outer loop
      vertex 40 0 0
      vertex 31.4529 5.37303 0
      vertex 31.3947 5.55219 0
    endloop
  endfacet
  facet normal -0 -0 -1
    outer loop
      vertex 29.7189 3.52657 0
      vertex 40 0 0
      vertex 15.2811 3.52657 0
    endloop
  endfacet
  facet normal 0 -0 -1
    outer loop
      vertex 31.4529 4.62697 0
      vertex 40 0 0
      vertex 31.3947 4.44781 0
    endloop
  endfacet
  facet normal 0 -0 -1
    outer loop
      vertex 35.3713 18.8321 0
      vertex 40 0 0
      vertex 33.8504 16.9936 0
    endloop
  endfacet
  facet normal 0 -0 -1
    outer loop
      vertex 36.6498 20.8467 0
      vertex 40 0 0
      vertex 35.3713 18.8321 0
    endloop
  endfacet
  facet normal 0 -0 -1
    outer loop
      vertex 37.6658 23.0056 0
      vertex 40 0 0
      vertex 36.6498 20.8467 0
    endloop
  endfacet
  facet normal 0 -0 -1
    outer loop
      vertex 38.4031 25.2749 0
      vertex 40 0 0
      vertex 37.6658 23.0056 0
    endloop
  endfacet
  facet normal 0 -0 -1
    outer loop
      vertex 38.8502 27.6187 0
      vertex 40 0 0
      vertex 38.4031 25.2749 0
    endloop
  endfacet
  facet normal 0 -0 -1
    outer loop
      vertex 39 30 0
      vertex 40 0 0
      vertex 38.8502 27.6187 0
    endloop
  endfacet
  facet normal 0 -0 -1
    outer loop
      vertex 40 50 0
      vertex 40 0 0
      vertex 39 30 0
    endloop
  endfacet
  facet normal 0 0 -1
    outer loop
      vertex 40 50 0
      vertex 39 30 0
      vertex 38.8502 32.3813 0
    endloop
  endfacet
  facet normal 0 0 -1
    outer loop
      vertex 40 50 0
      vertex 38.8502 32.3813 0
      vertex 38.4031 34.7251 0
    endloop
  endfacet
  facet normal 0 0 -1
    outer loop
      vertex 40 50 0
      vertex 38.4031 34.7251 0
      vertex 37.6658 36.9944 0
    endloop
  endfacet
  facet normal 0 0 -1
    outer loop
      vertex 40 50 0
      vertex 37.6658 36.9944 0
      vertex 36.6498 39.1533 0
    endloop
  endfacet
  facet normal 0 0 -1
    outer loop
      vertex 40 50 0
      vertex 36.6498 39.1533 0
      vertex 35.3713 41.1679 0
    endloop
  endfacet
  facet normal 0 0 -1
    outer loop
      vertex 40 50 0
      vertex 35.3713 41.1679 0
      vertex 33.8504 43.0064 0
    endloop
  endfacet
  facet normal 0 0 -1
    outer loop
      vertex 40 50 0
      vertex 33.8504 43.0064 0
      vertex 32.1111 44.6398 0
    endloop
  endfacet
  facet normal 0 0 -1
    outer loop
      vertex 40 50 0
      vertex 32.1111 44.6398 0
      vertex 30.1807 46.0422 0
    endloop
  endfacet
  facet normal 0 0 -1
    outer loop
      vertex 40 50 0
      vertex 30.1807 46.0422 0
      vertex 28.0898 47.1917 0
    endloop
  endfacet
  facet normal 0 0 -1
    outer loop
      vertex 40 50 0
      vertex 28.0898 47.1917 0
      vertex 25.8713 48.0701 0
    endloop
  endfacet
  facet normal 0 0 -1
    outer loop
      vertex 40 50 0
      vertex 25.8713 48.0701 0
      vertex 23.5602 48.6635 0
    endloop
  endfacet
  facet normal -0 0 -1
    outer loop
      vertex 40 50 0
      vertex 21.193 48.9625 0
      vertex 0 50 0
    endloop
  endfacet
  facet normal 0 0 -1
    outer loop
      vertex 40 50 0
      vertex 23.5602 48.6635 0
      vertex 21.193 48.9625 0
    endloop
  endfacet
  facet normal 0 0 -1
    outer loop
      vertex 0 50 0
      vertex 21.193 48.9625 0
      vertex 18.807 48.9625 0
    endloop
  endfacet
  facet normal 0 0 -1
    outer loop
      vertex 0 50 0
      vertex 18.807 48.9625 0
      vertex 16.4398 48.6635 0
    endloop
  endfacet
  facet normal 0 0 -1
    outer loop
      vertex 0 50 0
      vertex 16.4398 48.6635 0
      vertex 14.1287 48.0701 0
    endloop
  endfacet
  facet normal 0 0 -1
    outer loop
      vertex 0 50 0
      vertex 14.1287 48.0701 0
      vertex 11.9102 47.1917 0
    endloop
  endfacet
  facet normal 0 0 -1
    outer loop
      vertex 0 50 0
      vertex 11.9102 47.1917 0
      vertex 9.81929 46.0422 0
    endloop
  endfacet
  facet normal 0 0 -1
    outer loop
      vertex 0 50 0
      vertex 9.81929 46.0422 0
      vertex 7.88894 44.6398 0
    endloop
  endfacet
  facet normal 0 0 -1
    outer loop
      vertex 0 50 0
      vertex 7.88894 44.6398 0
      vertex 6.1496 43.0064 0
    endloop
  endfacet
  facet normal 0 0 -1
    outer loop
      vertex 0 50 0
      vertex 6.1496 43.0064 0
      vertex 4.62868 41.1679 0
    endloop
  endfacet
  facet normal 0 0 -1
    outer loop
      vertex 0 50 0
      vertex 4.62868 41.1679 0
      vertex 3.35017 39.1533 0
    endloop
  endfacet
  facet normal 0 0 -1
    outer loop
      vertex 0 50 0
      vertex 3.35017 39.1533 0
      vertex 2.33425 36.9944 0
    endloop
  endfacet
  facet normal 0 0 -1
    outer loop
      vertex 0 50 0
      vertex 2.33425 36.9944 0
      vertex 1.59692 34.7251 0
    endloop
  endfacet
  facet normal 0 0 -1
    outer loop
      vertex 0 50 0
      vertex 1.14982 32.3813 0
      vertex 1 30 0
    endloop
  endfacet
  facet normal 0 0 -1
    outer loop
      vertex 0 50 0
      vertex 1.59692 34.7251 0
      vertex 1.14982 32.3813 0
    endloop
  endfacet
  facet normal 0 0 -1
    outer loop
      vertex 9.81929 13.9578 0
      vertex 13.5471 5.37303 0
      vertex 13.5118 5.188 0
    endloop
  endfacet
  facet normal 0 -0 -1
    outer loop
      vertex 16.4529 4.62697 0
      vertex 28.5471 4.62697 0
      vertex 16.3947 4.44781 0
    endloop
  endfacet
  facet normal 0 -0 -1
    outer loop
      vertex 13.5 5 0
      vertex 13.5118 4.812 0
      vertex 0 0 0
    endloop
  endfacet
  facet normal 0 0 -1
    outer loop
      vertex 21.193 11.0375 0
      vertex 16.4529 5.37303 0
      vertex 16.3947 5.55219 0
    endloop
  endfacet
  facet normal 0 -0 -1
    outer loop
      vertex 13.5118 4.812 0
      vertex 13.5471 4.62697 0
      vertex 0 0 0
    endloop
  endfacet
  facet normal 0 -0 -1
    outer loop
      vertex 13.5471 4.62697 0
      vertex 13.6053 4.44781 0
      vertex 0 0 0
    endloop
  endfacet
  facet normal 0 -0 -1
    outer loop
      vertex 13.6053 4.44781 0
      vertex 13.6855 4.27737 0
      vertex 0 0 0
    endloop
  endfacet
  facet normal 0 -0 -1
    outer loop
      vertex 13.6855 4.27737 0
      vertex 13.7865 4.11832 0
      vertex 0 0 0
    endloop
  endfacet
  facet normal 0 -0 -1
    outer loop
      vertex 13.7865 4.11832 0
      vertex 13.9065 3.97318 0
      vertex 0 0 0
    endloop
  endfacet
  facet normal 0 -0 -1
    outer loop
      vertex 13.9065 3.97318 0
      vertex 14.0439 3.84423 0
      vertex 0 0 0
    endloop
  endfacet
  facet normal 0 -0 -1
    outer loop
      vertex 14.0439 3.84423 0
      vertex 14.1963 3.73351 0
      vertex 0 0 0
    endloop
  endfacet
  facet normal 0 -0 -1
    outer loop
      vertex 14.1963 3.73351 0
      vertex 14.3613 3.64276 0
      vertex 0 0 0
    endloop
  endfacet
  facet normal 0 -0 -1
    outer loop
      vertex 14.3613 3.64276 0
      vertex 14.5365 3.57341 0
      vertex 0 0 0
    endloop
  endfacet
  facet normal 0 -0 -1
    outer loop
      vertex 14.5365 3.57341 0
      vertex 14.7189 3.52657 0
      vertex 0 0 0
    endloop
  endfacet
  facet normal 0 -0 -1
    outer loop
      vertex 15.0942 3.50296 0
      vertex 40 0 0
      vertex 0 0 0
    endloop
  endfacet
  facet normal 0 -0 -1
    outer loop
      vertex 15.2811 3.52657 0
      vertex 40 0 0
      vertex 15.0942 3.50296 0
    endloop
  endfacet
  facet normal 0 -0 -1
    outer loop
      vertex 29.0439 3.84423 0
      vertex 29.1963 3.73351 0
      vertex 15.8037 3.73351 0
    endloop
  endfacet
  facet normal 0 0 -1
    outer loop
      vertex 28.7865 4.11832 0
      vertex 16.2135 4.11832 0
      vertex 28.6855 4.27737 0
    endloop
  endfacet
  facet normal 0 0 -1
    outer loop
      vertex 16.2135 4.11832 0
      vertex 16.3145 4.27737 0
      vertex 28.6855 4.27737 0
    endloop
  endfacet
  facet normal 0 0 -1
    outer loop
      vertex 16.3145 4.27737 0
      vertex 28.6053 4.44781 0
      vertex 28.6855 4.27737 0
    endloop
  endfacet
  facet normal 0 -0 -1
    outer loop
      vertex 16.3947 4.44781 0
      vertex 28.6053 4.44781 0
      vertex 16.3145 4.27737 0
    endloop
  endfacet
  facet normal 0 -0 -1
    outer loop
      vertex 28.5471 4.62697 0
      vertex 28.6053 4.44781 0
      vertex 16.3947 4.44781 0
    endloop
  endfacet
  facet normal 0 -0 -1
    outer loop
      vertex 28.5118 4.812 0
      vertex 28.5471 4.62697 0
      vertex 16.4529 4.62697 0
    endloop
  endfacet
  facet normal 0 -0 -1
    outer loop
      vertex 28.5 5 0
      vertex 28.5118 4.812 0
      vertex 16.4882 4.812 0
    endloop
  endfacet
  facet normal -0 0 -1
    outer loop
      vertex 28.5 5 0
      vertex 16.4882 4.812 0
      vertex 16.5 5 0
    endloop
  endfacet
  facet normal 0 -0 -1
    outer loop
      vertex 23.5602 11.3365 0
      vertex 28.5118 5.188 0
      vertex 21.193 11.0375 0
    endloop
  endfacet
  facet normal 0 0 -1
    outer loop
      vertex 16.5 5 0
      vertex 16.4882 5.188 0
      vertex 21.193 11.0375 0
    endloop
  endfacet
  facet normal 0 0 -1
    outer loop
      vertex 16.4882 5.188 0
      vertex 16.4529 5.37303 0
      vertex 21.193 11.0375 0
    endloop
  endfacet
  facet normal -0 0 -1
    outer loop
      vertex 21.193 11.0375 0
      vertex 16.3947 5.55219 0
      vertex 18.807 11.0375 0
    endloop
  endfacet
  facet normal 0 0 -1
    outer loop
      vertex 16.3947 5.55219 0
      vertex 16.3145 5.72263 0
      vertex 18.807 11.0375 0
    endloop
  endfacet
  facet normal 0 0 -1
    outer loop
      vertex 18.807 11.0375 0
      vertex 16.2135 5.88168 0
      vertex 16.0935 6.02682 0
    endloop
  endfacet
  facet normal 0 0 -1
    outer loop
      vertex 18.807 11.0375 0
      vertex 16.0935 6.02682 0
      vertex 15.9561 6.15577 0
    endloop
  endfacet
  facet normal 0 0 -1
    outer loop
      vertex 18.807 11.0375 0
      vertex 15.9561 6.15577 0
      vertex 15.8037 6.26649 0
    endloop
  endfacet
  facet normal -0 0 -1
    outer loop
      vertex 18.807 11.0375 0
      vertex 15.8037 6.26649 0
      vertex 16.4398 11.3365 0
    endloop
  endfacet
  facet normal 0 0 -1
    outer loop
      vertex 15.8037 6.26649 0
      vertex 15.6387 6.35724 0
      vertex 16.4398 11.3365 0
    endloop
  endfacet
  facet normal 0 0 -1
    outer loop
      vertex 15.6387 6.35724 0
      vertex 15.4635 6.42659 0
      vertex 16.4398 11.3365 0
    endloop
  endfacet
  facet normal 0 0 -1
    outer loop
      vertex 15.4635 6.42659 0
      vertex 15.2811 6.47343 0
      vertex 16.4398 11.3365 0
    endloop
  endfacet
  facet normal 0 0 -1
    outer loop
      vertex 15.2811 6.47343 0
      vertex 15.0942 6.49704 0
      vertex 16.4398 11.3365 0
    endloop
  endfacet
  facet normal 0 0 -1
    outer loop
      vertex 15.0942 6.49704 0
      vertex 14.9058 6.49704 0
      vertex 16.4398 11.3365 0
    endloop
  endfacet
  facet normal -0 0 -1
    outer loop
      vertex 14.9058 6.49704 0
      vertex 14.7189 6.47343 0
      vertex 14.1287 11.9299 0
    endloop
  endfacet
  facet normal -0 0 -1
    outer loop
      vertex 14.7189 6.47343 0
      vertex 14.5365 6.42659 0
      vertex 14.1287 11.9299 0
    endloop
  endfacet
  facet normal -0 0 -1
    outer loop
      vertex 14.5365 6.42659 0
      vertex 14.3613 6.35724 0
      vertex 14.1287 11.9299 0
    endloop
  endfacet
  facet normal -0 0 -1
    outer loop
      vertex 14.3613 6.35724 0
      vertex 14.1963 6.26649 0
      vertex 14.1287 11.9299 0
    endloop
  endfacet
  facet normal -0 0 -1
    outer loop
      vertex 14.1963 6.26649 0
      vertex 14.0439 6.15577 0
      vertex 14.1287 11.9299 0
    endloop
  endfacet
  facet normal 0 0 -1
    outer loop
      vertex 14.0439 6.15577 0
      vertex 11.9102 12.8083 0
      vertex 14.1287 11.9299 0
    endloop
  endfacet
  facet normal 0 0 -1
    outer loop
      vertex 13.9065 6.02682 0
      vertex 11.9102 12.8083 0
      vertex 14.0439 6.15577 0
    endloop
  endfacet
  facet normal -0 0 -1
    outer loop
      vertex 13.7865 5.88168 0
      vertex 13.6855 5.72263 0
      vertex 11.9102 12.8083 0
    endloop
  endfacet
  facet normal -0 0 -1
    outer loop
      vertex 13.6855 5.72263 0
      vertex 13.6053 5.55219 0
      vertex 11.9102 12.8083 0
    endloop
  endfacet
  facet normal 0 0 -1
    outer loop
      vertex 13.6053 5.55219 0
      vertex 9.81929 13.9578 0
      vertex 11.9102 12.8083 0
    endloop
  endfacet
  facet normal 0 0 -1
    outer loop
      vertex 13.5471 5.37303 0
      vertex 9.81929 13.9578 0
      vertex 13.6053 5.55219 0
    endloop
  endfacet
  facet normal -0 0 -1
    outer loop
      vertex 13.5118 5.188 0
      vertex 0 0 0
      vertex 9.81929 13.9578 0
    endloop
  endfacet
  facet normal -0 0 -1
    outer loop
      vertex 13.5 5 0
      vertex 0 0 0
      vertex 13.5118 5.188 0
    endloop
  endfacet
  facet normal 0 0 -1
    outer loop
      vertex 25.8713 11.9299 0
      vertex 29.3613 6.35724 0
      vertex 29.1963 6.26649 0
    endloop
  endfacet
  facet normal 0 -0 -1
    outer loop
      vertex 16.2135 4.11832 0
      vertex 28.7865 4.11832 0
      vertex 16.0935 3.97318 0
    endloop
  endfacet
  facet normal 0 -0 -1
    outer loop
      vertex 28.7865 4.11832 0
      vertex 28.9065 3.97318 0
      vertex 16.0935 3.97318 0
    endloop
  endfacet
  facet normal -0 0 -1
    outer loop
      vertex 28.9065 3.97318 0
      vertex 15.9561 3.84423 0
      vertex 16.0935 3.97318 0
    endloop
  endfacet
  facet normal 0 0 -1
    outer loop
      vertex 29.0439 3.84423 0
      vertex 15.9561 3.84423 0
      vertex 28.9065 3.97318 0
    endloop
  endfacet
  facet normal 0 0 -1
    outer loop
      vertex 15.8037 3.73351 0
      vertex 15.9561 3.84423 0
      vertex 29.0439 3.84423 0
    endloop
  endfacet
  facet normal 0 0 -1
    outer loop
      vertex 15.6387 3.64276 0
      vertex 15.8037 3.73351 0
      vertex 29.1963 3.73351 0
    endloop
  endfacet
  facet normal 0 0 -1
    outer loop
      vertex 15.6387 3.64276 0
      vertex 29.1963 3.73351 0
      vertex 29.3613 3.64276 0
    endloop
  endfacet
  facet normal 0 -0 -1
    outer loop
      vertex 15.6387 3.64276 0
      vertex 29.3613 3.64276 0
      vertex 15.4635 3.57341 0
    endloop
  endfacet
  facet normal 0 -0 -1
    outer loop
      vertex 29.3613 3.64276 0
      vertex 29.5365 3.57341 0
      vertex 15.4635 3.57341 0
    endloop
  endfacet
  facet normal -0 0 -1
    outer loop
      vertex 29.5365 3.57341 0
      vertex 15.2811 3.52657 0
      vertex 15.4635 3.57341 0
    endloop
  endfacet
  facet normal 0 0 -1
    outer loop
      vertex 29.7189 3.52657 0
      vertex 15.2811 3.52657 0
      vertex 29.5365 3.57341 0
    endloop
  endfacet
  facet normal -0 -0 -1
    outer loop
      vertex 29.9058 3.50296 0
      vertex 40 0 0
      vertex 29.7189 3.52657 0
    endloop
  endfacet
  facet normal -0 -0 -1
    outer loop
      vertex 30.0942 3.50296 0
      vertex 40 0 0
      vertex 29.9058 3.50296 0
    endloop
  endfacet
  facet normal 0 -0 -1
    outer loop
      vertex 30.2811 3.52657 0
      vertex 40 0 0
      vertex 30.0942 3.50296 0
    endloop
  endfacet
  facet normal 0 -0 -1
    outer loop
      vertex 30.4635 3.57341 0
      vertex 40 0 0
      vertex 30.2811 3.52657 0
    endloop
  endfacet
  facet normal 0 -0 -1
    outer loop
      vertex 30.6387 3.64276 0
      vertex 40 0 0
      vertex 30.4635 3.57341 0
    endloop
  endfacet
  facet normal 0 -0 -1
    outer loop
      vertex 30.8037 3.73351 0
      vertex 40 0 0
      vertex 30.6387 3.64276 0
    endloop
  endfacet
  facet normal 0 -0 -1
    outer loop
      vertex 30.9561 3.84423 0
      vertex 40 0 0
      vertex 30.8037 3.73351 0
    endloop
  endfacet
  facet normal 0 -0 -1
    outer loop
      vertex 31.0935 3.97318 0
      vertex 40 0 0
      vertex 30.9561 3.84423 0
    endloop
  endfacet
  facet normal 0 -0 -1
    outer loop
      vertex 31.2135 4.11832 0
      vertex 40 0 0
      vertex 31.0935 3.97318 0
    endloop
  endfacet
  facet normal 0 -0 -1
    outer loop
      vertex 31.3145 4.27737 0
      vertex 40 0 0
      vertex 31.2135 4.11832 0
    endloop
  endfacet
  facet normal 0 -0 -1
    outer loop
      vertex 31.3947 4.44781 0
      vertex 40 0 0
      vertex 31.3145 4.27737 0
    endloop
  endfacet
  facet normal 0 0 -1
    outer loop
      vertex 31.4882 4.812 0
      vertex 31.5 5 0
      vertex 40 0 0
    endloop
  endfacet
  facet normal 0 -0 -1
    outer loop
      vertex 31.4882 4.812 0
      vertex 40 0 0
      vertex 31.4529 4.62697 0
    endloop
  endfacet
  facet normal 0 0 -1
    outer loop
      vertex 31.5 5 0
      vertex 31.4882 5.188 0
      vertex 40 0 0
    endloop
  endfacet
  facet normal 0 0 -1
    outer loop
      vertex 31.4882 5.188 0
      vertex 31.4529 5.37303 0
      vertex 40 0 0
    endloop
  endfacet
  facet normal 0 0 -1
    outer loop
      vertex 40 0 0
      vertex 31.3947 5.55219 0
      vertex 33.8504 16.9936 0
    endloop
  endfacet
  facet normal 0 0 -1
    outer loop
      vertex 33.8504 16.9936 0
      vertex 31.3145 5.72263 0
      vertex 32.1111 15.3602 0
    endloop
  endfacet
  facet normal 0 0 -1
    outer loop
      vertex 31.3145 5.72263 0
      vertex 31.2135 5.88168 0
      vertex 32.1111 15.3602 0
    endloop
  endfacet
  facet normal 0 0 -1
    outer loop
      vertex 31.2135 5.88168 0
      vertex 31.0935 6.02682 0
      vertex 32.1111 15.3602 0
    endloop
  endfacet
  facet normal 0 0 -1
    outer loop
      vertex 31.0935 6.02682 0
      vertex 30.9561 6.15577 0
      vertex 32.1111 15.3602 0
    endloop
  endfacet
  facet normal 0 0 -1
    outer loop
      vertex 30.9561 6.15577 0
      vertex 30.1807 13.9578 0
      vertex 32.1111 15.3602 0
    endloop
  endfacet
  facet normal 0 0 -1
    outer loop
      vertex 30.8037 6.26649 0
      vertex 30.1807 13.9578 0
      vertex 30.9561 6.15577 0
    endloop
  endfacet
  facet normal 0 0 -1
    outer loop
      vertex 30.6387 6.35724 0
      vertex 30.4635 6.42659 0
      vertex 30.1807 13.9578 0
    endloop
  endfacet
  facet normal 0 0 -1
    outer loop
      vertex 30.4635 6.42659 0
      vertex 30.2811 6.47343 0
      vertex 30.1807 13.9578 0
    endloop
  endfacet
  facet normal 0 0 -1
    outer loop
      vertex 30.2811 6.47343 0
      vertex 28.0898 12.8083 0
      vertex 30.1807 13.9578 0
    endloop
  endfacet
  facet normal 0 0 -1
    outer loop
      vertex 30.0942 6.49704 0
      vertex 28.0898 12.8083 0
      vertex 30.2811 6.47343 0
    endloop
  endfacet
  facet normal 0 0 -1
    outer loop
      vertex 29.9058 6.49704 0
      vertex 28.0898 12.8083 0
      vertex 30.0942 6.49704 0
    endloop
  endfacet
  facet normal 0 0 -1
    outer loop
      vertex 29.7189 6.47343 0
      vertex 28.0898 12.8083 0
      vertex 29.9058 6.49704 0
    endloop
  endfacet
  facet normal 0 0 -1
    outer loop
      vertex 29.5365 6.42659 0
      vertex 28.0898 12.8083 0
      vertex 29.7189 6.47343 0
    endloop
  endfacet
  facet normal 0 0 -1
    outer loop
      vertex 29.3613 6.35724 0
      vertex 28.0898 12.8083 0
      vertex 29.5365 6.42659 0
    endloop
  endfacet
  facet normal 0 0 -1
    outer loop
      vertex 25.8713 11.9299 0
      vertex 28.0898 12.8083 0
      vertex 29.3613 6.35724 0
    endloop
  endfacet
  facet normal 0 0 -1
    outer loop
      vertex 29.0439 6.15577 0
      vertex 25.8713 11.9299 0
      vertex 29.1963 6.26649 0
    endloop
  endfacet
  facet normal 0 0 -1
    outer loop
      vertex 28.9065 6.02682 0
      vertex 25.8713 11.9299 0
      vertex 29.0439 6.15577 0
    endloop
  endfacet
  facet normal 0 0 -1
    outer loop
      vertex 28.7865 5.88168 0
      vertex 25.8713 11.9299 0
      vertex 28.9065 6.02682 0
    endloop
  endfacet
  facet normal 0 0 -1
    outer loop
      vertex 23.5602 11.3365 0
      vertex 25.8713 11.9299 0
      vertex 28.7865 5.88168 0
    endloop
  endfacet
  facet normal 0 0 -1
    outer loop
      vertex 23.5602 11.3365 0
      vertex 28.7865 5.88168 0
      vertex 28.6855 5.72263 0
    endloop
  endfacet
  facet normal 0 0 -1
    outer loop
      vertex 23.5602 11.3365 0
      vertex 28.6855 5.72263 0
      vertex 28.6053 5.55219 0
    endloop
  endfacet
  facet normal 0 0 -1
    outer loop
      vertex 23.5602 11.3365 0
      vertex 28.6053 5.55219 0
      vertex 28.5471 5.37303 0
    endloop
  endfacet
  facet normal 0 0 -1
    outer loop
      vertex 21.193 11.0375 0
      vertex 28.5118 5.188 0
      vertex 28.5 5 0
    endloop
  endfacet
  facet normal 0 0 -1
    outer loop
      vertex 23.5602 11.3365 0
      vertex 28.5471 5.37303 0
      vertex 28.5118 5.188 0
    endloop
  endfacet
  facet normal -0 0 1
    outer loop
      vertex 21.193 11.0375 2
      vertex 28.5118 5.188 2
      vertex 23.5602 11.3365 2
    endloop
  endfacet
  facet normal 0 0 1
    outer loop
      vertex 1.14982 32.3813 2
      vertex 0 50 2
      vertex 1 30 2
    endloop
  endfacet
  facet normal 0 0 1
    outer loop
      vertex 1 30 2
      vertex 0 0 2
      vertex 1.14982 27.6187 2
    endloop
  endfacet
  facet normal 0 0 1
    outer loop
      vertex 0 50 2
      vertex 0 0 2
      vertex 1 30 2
    endloop
  endfacet
  facet normal 0 0 1
    outer loop
      vertex 1.59692 34.7251 2
      vertex 0 50 2
      vertex 1.14982 32.3813 2
    endloop
  endfacet
  facet normal 0 0 1
    outer loop
      vertex 2.33425 36.9944 2
      vertex 0 50 2
      vertex 1.59692 34.7251 2
    endloop
  endfacet
  facet normal 0 0 1
    outer loop
      vertex 3.35017 39.1533 2
      vertex 0 50 2
      vertex 2.33425 36.9944 2
    endloop
  endfacet
  facet normal 0 0 1
    outer loop
      vertex 4.62868 41.1679 2
      vertex 0 50 2
      vertex 3.35017 39.1533 2
    endloop
  endfacet
  facet normal 0 0 1
    outer loop
      vertex 6.1496 43.0064 2
      vertex 0 50 2
      vertex 4.62868 41.1679 2
    endloop
  endfacet
  facet normal 0 0 1
    outer loop
      vertex 7.88894 44.6398 2
      vertex 0 50 2
      vertex 6.1496 43.0064 2
    endloop
  endfacet
  facet normal 0 0 1
    outer loop
      vertex 9.81929 46.0422 2
      vertex 0 50 2
      vertex 7.88894 44.6398 2
    endloop
  endfacet
  facet normal 0 0 1
    outer loop
      vertex 11.9102 47.1917 2
      vertex 0 50 2
      vertex 9.81929 46.0422 2
    endloop
  endfacet
  facet normal 0 0 1
    outer loop
      vertex 14.1287 48.0701 2
      vertex 0 50 2
      vertex 11.9102 47.1917 2
    endloop
  endfacet
  facet normal 0 0 1
    outer loop
      vertex 16.4398 48.6635 2
      vertex 0 50 2
      vertex 14.1287 48.0701 2
    endloop
  endfacet
  facet normal 0 0 1
    outer loop
      vertex 18.807 48.9625 2
      vertex 0 50 2
      vertex 16.4398 48.6635 2
    endloop
  endfacet
  facet normal 0 0 1
    outer loop
      vertex 21.193 48.9625 2
      vertex 0 50 2
      vertex 18.807 48.9625 2
    endloop
  endfacet
  facet normal 0 0 1
    outer loop
      vertex 40 50 2
      vertex 0 50 2
      vertex 21.193 48.9625 2
    endloop
  endfacet
  facet normal 0 0 1
    outer loop
      vertex 40 50 2
      vertex 21.193 48.9625 2
      vertex 23.5602 48.6635 2
    endloop
  endfacet
  facet normal 0 0 1
    outer loop
      vertex 40 50 2
      vertex 23.5602 48.6635 2
      vertex 25.8713 48.0701 2
    endloop
  endfacet
  facet normal 0 0 1
    outer loop
      vertex 40 50 2
      vertex 25.8713 48.0701 2
      vertex 28.0898 47.1917 2
    endloop
  endfacet
  facet normal 0 0 1
    outer loop
      vertex 40 50 2
      vertex 28.0898 47.1917 2
      vertex 30.1807 46.0422 2
    endloop
  endfacet
  facet normal 0 0 1
    outer loop
      vertex 40 50 2
      vertex 30.1807 46.0422 2
      vertex 32.1111 44.6398 2
    endloop
  endfacet
  facet normal 0 0 1
    outer loop
      vertex 40 50 2
      vertex 32.1111 44.6398 2
      vertex 33.8504 43.0064 2
    endloop
  endfacet
  facet normal 0 0 1
    outer loop
      vertex 40 50 2
      vertex 33.8504 43.0064 2
      vertex 35.3713 41.1679 2
    endloop
  endfacet
  facet normal 0 0 1
    outer loop
      vertex 40 50 2
      vertex 35.3713 41.1679 2
      vertex 36.6498 39.1533 2
    endloop
  endfacet
  facet normal 0 0 1
    outer loop
      vertex 40 50 2
      vertex 36.6498 39.1533 2
      vertex 37.6658 36.9944 2
    endloop
  endfacet
  facet normal 0 0 1
    outer loop
      vertex 40 50 2
      vertex 37.6658 36.9944 2
      vertex 38.4031 34.7251 2
    endloop
  endfacet
  facet normal 0 0 1
    outer loop
      vertex 40 50 2
      vertex 38.4031 34.7251 2
      vertex 38.8502 32.3813 2
    endloop
  endfacet
  facet normal 0 0 1
    outer loop
      vertex 40 50 2
      vertex 39 30 2
      vertex 40 0 2
    endloop
  endfacet
  facet normal 0 0 1
    outer loop
      vertex 40 50 2
      vertex 38.8502 32.3813 2
      vertex 39 30 2
    endloop
  endfacet
  facet normal 0 0 1
    outer loop
      vertex 40 0 2
      vertex 39 30 2
      vertex 38.8502 27.6187 2
    endloop
  endfacet
  facet normal 0 0 1
    outer loop
      vertex 38.8502 27.6187 2
      vertex 38.4031 25.2749 2
      vertex 40 0 2
    endloop
  endfacet
  facet normal 0 0 1
    outer loop
      vertex 38.4031 25.2749 2
      vertex 37.6658 23.0056 2
      vertex 40 0 2
    endloop
  endfacet
  facet normal 0 0 1
    outer loop
      vertex 37.6658 23.0056 2
      vertex 36.6498 20.8467 2
      vertex 40 0 2
    endloop
  endfacet
  facet normal 0 0 1
    outer loop
      vertex 36.6498 20.8467 2
      vertex 35.3713 18.8321 2
      vertex 40 0 2
    endloop
  endfacet
  facet normal 0 0 1
    outer loop
      vertex 35.3713 18.8321 2
      vertex 33.8504 16.9936 2
      vertex 40 0 2
    endloop
  endfacet
  facet normal -0 -0 1
    outer loop
      vertex 30.6387 6.35724 2
      vertex 30.8037 6.26649 2
      vertex 30.1807 13.9578 2
    endloop
  endfacet
  facet normal 0 0 1
    outer loop
      vertex 28.7865 5.88168 2
      vertex 23.5602 11.3365 2
      vertex 28.6855 5.72263 2
    endloop
  endfacet
  facet normal 0 0 1
    outer loop
      vertex 23.5602 11.3365 2
      vertex 28.5471 5.37303 2
      vertex 28.6053 5.55219 2
    endloop
  endfacet
  facet normal 0 0 1
    outer loop
      vertex 28.5118 5.188 2
      vertex 21.193 11.0375 2
      vertex 28.5 5 2
    endloop
  endfacet
  facet normal 0 0 1
    outer loop
      vertex 14.9058 6.49704 2
      vertex 15.0942 6.49704 2
      vertex 16.4398 11.3365 2
    endloop
  endfacet
  facet normal 0 -0 1
    outer loop
      vertex 15.9561 6.15577 2
      vertex 18.807 11.0375 2
      vertex 15.8037 6.26649 2
    endloop
  endfacet
  facet normal 0 0 1
    outer loop
      vertex 13.5471 4.62697 2
      vertex 13.5118 4.812 2
      vertex 0 0 2
    endloop
  endfacet
  facet normal 0 0 1
    outer loop
      vertex 13.5118 5.188 2
      vertex 0 0 2
      vertex 13.5 5 2
    endloop
  endfacet
  facet normal 0 0 1
    outer loop
      vertex 0 0 2
      vertex 13.5118 4.812 2
      vertex 13.5 5 2
    endloop
  endfacet
  facet normal 0 0 1
    outer loop
      vertex 0 0 2
      vertex 9.81929 13.9578 2
      vertex 7.88894 15.3602 2
    endloop
  endfacet
  facet normal 0 0 1
    outer loop
      vertex 0 0 2
      vertex 7.88894 15.3602 2
      vertex 6.1496 16.9936 2
    endloop
  endfacet
  facet normal 0 0 1
    outer loop
      vertex 0 0 2
      vertex 6.1496 16.9936 2
      vertex 4.62868 18.8321 2
    endloop
  endfacet
  facet normal 0 0 1
    outer loop
      vertex 0 0 2
      vertex 4.62868 18.8321 2
      vertex 3.35017 20.8467 2
    endloop
  endfacet
  facet normal 0 0 1
    outer loop
      vertex 0 0 2
      vertex 3.35017 20.8467 2
      vertex 2.33425 23.0056 2
    endloop
  endfacet
  facet normal 0 0 1
    outer loop
      vertex 0 0 2
      vertex 1.59692 25.2749 2
      vertex 1.14982 27.6187 2
    endloop
  endfacet
  facet normal 0 0 1
    outer loop
      vertex 0 0 2
      vertex 2.33425 23.0056 2
      vertex 1.59692 25.2749 2
    endloop
  endfacet
  facet normal -0 0 1
    outer loop
      vertex 16.4882 4.812 2
      vertex 16.4529 4.62697 2
      vertex 28.5118 4.812 2
    endloop
  endfacet
  facet normal 0 0 1
    outer loop
      vertex 13.5118 5.188 2
      vertex 9.81929 13.9578 2
      vertex 0 0 2
    endloop
  endfacet
  facet normal 0 0 1
    outer loop
      vertex 13.6053 5.55219 2
      vertex 9.81929 13.9578 2
      vertex 13.5471 5.37303 2
    endloop
  endfacet
  facet normal 0 0 1
    outer loop
      vertex 13.5471 5.37303 2
      vertex 9.81929 13.9578 2
      vertex 13.5118 5.188 2
    endloop
  endfacet
  facet normal 0 0 1
    outer loop
      vertex 13.6053 5.55219 2
      vertex 11.9102 12.8083 2
      vertex 9.81929 13.9578 2
    endloop
  endfacet
  facet normal 0 0 1
    outer loop
      vertex 13.6855 5.72263 2
      vertex 11.9102 12.8083 2
      vertex 13.6053 5.55219 2
    endloop
  endfacet
  facet normal 0 0 1
    outer loop
      vertex 13.9065 6.02682 2
      vertex 11.9102 12.8083 2
      vertex 13.7865 5.88168 2
    endloop
  endfacet
  facet normal 0 0 1
    outer loop
      vertex 13.7865 5.88168 2
      vertex 11.9102 12.8083 2
      vertex 13.6855 5.72263 2
    endloop
  endfacet
  facet normal 0 -0 1
    outer loop
      vertex 13.9065 6.02682 2
      vertex 14.0439 6.15577 2
      vertex 11.9102 12.8083 2
    endloop
  endfacet
  facet normal 0 0 1
    outer loop
      vertex 14.1963 6.26649 2
      vertex 14.1287 11.9299 2
      vertex 14.0439 6.15577 2
    endloop
  endfacet
  facet normal 0 -0 1
    outer loop
      vertex 14.0439 6.15577 2
      vertex 14.1287 11.9299 2
      vertex 11.9102 12.8083 2
    endloop
  endfacet
  facet normal 0 -0 1
    outer loop
      vertex 14.1963 6.26649 2
      vertex 14.3613 6.35724 2
      vertex 14.1287 11.9299 2
    endloop
  endfacet
  facet normal 0 -0 1
    outer loop
      vertex 14.5365 6.42659 2
      vertex 14.7189 6.47343 2
      vertex 14.1287 11.9299 2
    endloop
  endfacet
  facet normal 0 -0 1
    outer loop
      vertex 14.3613 6.35724 2
      vertex 14.5365 6.42659 2
      vertex 14.1287 11.9299 2
    endloop
  endfacet
  facet normal 0 -0 1
    outer loop
      vertex 14.7189 6.47343 2
      vertex 14.9058 6.49704 2
      vertex 14.1287 11.9299 2
    endloop
  endfacet
  facet normal 0 -0 1
    outer loop
      vertex 14.9058 6.49704 2
      vertex 16.4398 11.3365 2
      vertex 14.1287 11.9299 2
    endloop
  endfacet
  facet normal -0 0 1
    outer loop
      vertex 15.0942 6.49704 2
      vertex 15.2811 6.47343 2
      vertex 16.4398 11.3365 2
    endloop
  endfacet
  facet normal -0 0 1
    outer loop
      vertex 15.2811 6.47343 2
      vertex 15.4635 6.42659 2
      vertex 16.4398 11.3365 2
    endloop
  endfacet
  facet normal -0 0 1
    outer loop
      vertex 15.4635 6.42659 2
      vertex 15.6387 6.35724 2
      vertex 16.4398 11.3365 2
    endloop
  endfacet
  facet normal -0 0 1
    outer loop
      vertex 15.6387 6.35724 2
      vertex 15.8037 6.26649 2
      vertex 16.4398 11.3365 2
    endloop
  endfacet
  facet normal 0 0 1
    outer loop
      vertex 15.8037 6.26649 2
      vertex 18.807 11.0375 2
      vertex 16.4398 11.3365 2
    endloop
  endfacet
  facet normal -0 0 1
    outer loop
      vertex 15.9561 6.15577 2
      vertex 16.0935 6.02682 2
      vertex 18.807 11.0375 2
    endloop
  endfacet
  facet normal -0 0 1
    outer loop
      vertex 16.0935 6.02682 2
      vertex 16.2135 5.88168 2
      vertex 18.807 11.0375 2
    endloop
  endfacet
  facet normal -0 0 1
    outer loop
      vertex 16.2135 5.88168 2
      vertex 16.3145 5.72263 2
      vertex 18.807 11.0375 2
    endloop
  endfacet
  facet normal -0 0 1
    outer loop
      vertex 16.3145 5.72263 2
      vertex 16.3947 5.55219 2
      vertex 18.807 11.0375 2
    endloop
  endfacet
  facet normal 0 0 1
    outer loop
      vertex 16.3947 5.55219 2
      vertex 21.193 11.0375 2
      vertex 18.807 11.0375 2
    endloop
  endfacet
  facet normal 0 -0 1
    outer loop
      vertex 16.4529 5.37303 2
      vertex 21.193 11.0375 2
      vertex 16.3947 5.55219 2
    endloop
  endfacet
  facet normal 0 -0 1
    outer loop
      vertex 16.4882 5.188 2
      vertex 21.193 11.0375 2
      vertex 16.4529 5.37303 2
    endloop
  endfacet
  facet normal 0 -0 1
    outer loop
      vertex 16.5 5 2
      vertex 21.193 11.0375 2
      vertex 16.4882 5.188 2
    endloop
  endfacet
  facet normal 0 0 1
    outer loop
      vertex 16.4882 4.812 2
      vertex 28.5 5 2
      vertex 16.5 5 2
    endloop
  endfacet
  facet normal 0 0 1
    outer loop
      vertex 28.5118 4.812 2
      vertex 28.5 5 2
      vertex 16.4882 4.812 2
    endloop
  endfacet
  facet normal 0 0 1
    outer loop
      vertex 28.6053 4.44781 2
      vertex 16.3947 4.44781 2
      vertex 16.3145 4.27737 2
    endloop
  endfacet
  facet normal 0 0 1
    outer loop
      vertex 32.1111 15.3602 2
      vertex 30.9561 6.15577 2
      vertex 31.0935 6.02682 2
    endloop
  endfacet
  facet normal 0 0 1
    outer loop
      vertex 15.9561 3.84423 2
      vertex 28.9065 3.97318 2
      vertex 16.0935 3.97318 2
    endloop
  endfacet
  facet normal 0 0 1
    outer loop
      vertex 15.8037 3.73351 2
      vertex 29.1963 3.73351 2
      vertex 29.0439 3.84423 2
    endloop
  endfacet
  facet normal -0 0 1
    outer loop
      vertex 15.6387 3.64276 2
      vertex 15.4635 3.57341 2
      vertex 29.3613 3.64276 2
    endloop
  endfacet
  facet normal 0 0 1
    outer loop
      vertex 15.4635 3.57341 2
      vertex 29.5365 3.57341 2
      vertex 29.3613 3.64276 2
    endloop
  endfacet
  facet normal 0 0 1
    outer loop
      vertex 15.2811 3.52657 2
      vertex 29.5365 3.57341 2
      vertex 15.4635 3.57341 2
    endloop
  endfacet
  facet normal 0 0 1
    outer loop
      vertex 29.7189 3.52657 2
      vertex 29.5365 3.57341 2
      vertex 15.2811 3.52657 2
    endloop
  endfacet
  facet normal -0 0 1
    outer loop
      vertex 31.0935 3.97318 2
      vertex 40 0 2
      vertex 31.2135 4.11832 2
    endloop
  endfacet
  facet normal -0 0 1
    outer loop
      vertex 30.4635 3.57341 2
      vertex 40 0 2
      vertex 30.6387 3.64276 2
    endloop
  endfacet
  facet normal -0 0 1
    outer loop
      vertex 15.0942 3.50296 2
      vertex 40 0 2
      vertex 15.2811 3.52657 2
    endloop
  endfacet
  facet normal 0 0 1
    outer loop
      vertex 40 0 2
      vertex 15.0942 3.50296 2
      vertex 0 0 2
    endloop
  endfacet
  facet normal 0 0 1
    outer loop
      vertex 15.0942 3.50296 2
      vertex 14.9058 3.50296 2
      vertex 0 0 2
    endloop
  endfacet
  facet normal 0 0 1
    outer loop
      vertex 14.9058 3.50296 2
      vertex 14.7189 3.52657 2
      vertex 0 0 2
    endloop
  endfacet
  facet normal 0 0 1
    outer loop
      vertex 14.7189 3.52657 2
      vertex 14.5365 3.57341 2
      vertex 0 0 2
    endloop
  endfacet
  facet normal 0 0 1
    outer loop
      vertex 14.5365 3.57341 2
      vertex 14.3613 3.64276 2
      vertex 0 0 2
    endloop
  endfacet
  facet normal 0 0 1
    outer loop
      vertex 14.3613 3.64276 2
      vertex 14.1963 3.73351 2
      vertex 0 0 2
    endloop
  endfacet
  facet normal 0 0 1
    outer loop
      vertex 14.1963 3.73351 2
      vertex 14.0439 3.84423 2
      vertex 0 0 2
    endloop
  endfacet
  facet normal 0 0 1
    outer loop
      vertex 14.0439 3.84423 2
      vertex 13.9065 3.97318 2
      vertex 0 0 2
    endloop
  endfacet
  facet normal 0 0 1
    outer loop
      vertex 13.9065 3.97318 2
      vertex 13.7865 4.11832 2
      vertex 0 0 2
    endloop
  endfacet
  facet normal 0 0 1
    outer loop
      vertex 13.7865 4.11832 2
      vertex 13.6855 4.27737 2
      vertex 0 0 2
    endloop
  endfacet
  facet normal 0 0 1
    outer loop
      vertex 13.6855 4.27737 2
      vertex 13.6053 4.44781 2
      vertex 0 0 2
    endloop
  endfacet
  facet normal 0 0 1
    outer loop
      vertex 13.6053 4.44781 2
      vertex 13.5471 4.62697 2
      vertex 0 0 2
    endloop
  endfacet
  facet normal 0 0 1
    outer loop
      vertex 21.193 11.0375 2
      vertex 16.5 5 2
      vertex 28.5 5 2
    endloop
  endfacet
  facet normal 0 0 1
    outer loop
      vertex 28.7865 4.11832 2
      vertex 28.6855 4.27737 2
      vertex 16.2135 4.11832 2
    endloop
  endfacet
  facet normal 0 -0 1
    outer loop
      vertex 28.5118 5.188 2
      vertex 28.5471 5.37303 2
      vertex 23.5602 11.3365 2
    endloop
  endfacet
  facet normal 0 0 1
    outer loop
      vertex 23.5602 11.3365 2
      vertex 28.6053 5.55219 2
      vertex 28.6855 5.72263 2
    endloop
  endfacet
  facet normal 0 0 1
    outer loop
      vertex 25.8713 11.9299 2
      vertex 23.5602 11.3365 2
      vertex 28.7865 5.88168 2
    endloop
  endfacet
  facet normal 0 0 1
    outer loop
      vertex 25.8713 11.9299 2
      vertex 28.7865 5.88168 2
      vertex 28.9065 6.02682 2
    endloop
  endfacet
  facet normal 0 -0 1
    outer loop
      vertex 28.9065 6.02682 2
      vertex 29.0439 6.15577 2
      vertex 25.8713 11.9299 2
    endloop
  endfacet
  facet normal 0 -0 1
    outer loop
      vertex 29.0439 6.15577 2
      vertex 29.1963 6.26649 2
      vertex 25.8713 11.9299 2
    endloop
  endfacet
  facet normal 0 -0 1
    outer loop
      vertex 29.1963 6.26649 2
      vertex 29.3613 6.35724 2
      vertex 25.8713 11.9299 2
    endloop
  endfacet
  facet normal 0 0 1
    outer loop
      vertex 29.3613 6.35724 2
      vertex 28.0898 12.8083 2
      vertex 25.8713 11.9299 2
    endloop
  endfacet
  facet normal 0 0 1
    outer loop
      vertex 29.5365 6.42659 2
      vertex 28.0898 12.8083 2
      vertex 29.3613 6.35724 2
    endloop
  endfacet
  facet normal 0 0 1
    outer loop
      vertex 29.7189 6.47343 2
      vertex 28.0898 12.8083 2
      vertex 29.5365 6.42659 2
    endloop
  endfacet
  facet normal 0 0 1
    outer loop
      vertex 29.9058 6.49704 2
      vertex 28.0898 12.8083 2
      vertex 29.7189 6.47343 2
    endloop
  endfacet
  facet normal 0 0 1
    outer loop
      vertex 30.0942 6.49704 2
      vertex 28.0898 12.8083 2
      vertex 29.9058 6.49704 2
    endloop
  endfacet
  facet normal 0 0 1
    outer loop
      vertex 30.2811 6.47343 2
      vertex 28.0898 12.8083 2
      vertex 30.0942 6.49704 2
    endloop
  endfacet
  facet normal 0 0 1
    outer loop
      vertex 30.1807 13.9578 2
      vertex 28.0898 12.8083 2
      vertex 30.2811 6.47343 2
    endloop
  endfacet
  facet normal 0 0 1
    outer loop
      vertex 30.1807 13.9578 2
      vertex 30.2811 6.47343 2
      vertex 30.4635 6.42659 2
    endloop
  endfacet
  facet normal 0 0 1
    outer loop
      vertex 30.1807 13.9578 2
      vertex 30.4635 6.42659 2
      vertex 30.6387 6.35724 2
    endloop
  endfacet
  facet normal 0 0 1
    outer loop
      vertex 30.9561 6.15577 2
      vertex 30.1807 13.9578 2
      vertex 30.8037 6.26649 2
    endloop
  endfacet
  facet normal 0 0 1
    outer loop
      vertex 32.1111 15.3602 2
      vertex 30.1807 13.9578 2
      vertex 30.9561 6.15577 2
    endloop
  endfacet
  facet normal -0 0 1
    outer loop
      vertex 31.0935 6.02682 2
      vertex 31.2135 5.88168 2
      vertex 32.1111 15.3602 2
    endloop
  endfacet
  facet normal -0 0 1
    outer loop
      vertex 31.2135 5.88168 2
      vertex 31.3145 5.72263 2
      vertex 32.1111 15.3602 2
    endloop
  endfacet
  facet normal 0 0 1
    outer loop
      vertex 31.3145 5.72263 2
      vertex 33.8504 16.9936 2
      vertex 32.1111 15.3602 2
    endloop
  endfacet
  facet normal 0 -0 1
    outer loop
      vertex 31.3947 5.55219 2
      vertex 33.8504 16.9936 2
      vertex 31.3145 5.72263 2
    endloop
  endfacet
  facet normal 0 0 1
    outer loop
      vertex 40 0 2
      vertex 33.8504 16.9936 2
      vertex 31.3947 5.55219 2
    endloop
  endfacet
  facet normal 0 0 1
    outer loop
      vertex 40 0 2
      vertex 31.3947 5.55219 2
      vertex 31.4529 5.37303 2
    endloop
  endfacet
  facet normal 0 0 1
    outer loop
      vertex 40 0 2
      vertex 31.4529 5.37303 2
      vertex 31.4882 5.188 2
    endloop
  endfacet
  facet normal 0 0 1
    outer loop
      vertex 40 0 2
      vertex 31.4882 5.188 2
      vertex 31.5 5 2
    endloop
  endfacet
  facet normal 0 0 1
    outer loop
      vertex 40 0 2
      vertex 31.5 5 2
      vertex 31.4882 4.812 2
    endloop
  endfacet
  facet normal 0 0 1
    outer loop
      vertex 40 0 2
      vertex 31.4882 4.812 2
      vertex 31.4529 4.62697 2
    endloop
  endfacet
  facet normal 0 0 1
    outer loop
      vertex 40 0 2
      vertex 31.4529 4.62697 2
      vertex 31.3947 4.44781 2
    endloop
  endfacet
  facet normal 0 0 1
    outer loop
      vertex 40 0 2
      vertex 31.3947 4.44781 2
      vertex 31.3145 4.27737 2
    endloop
  endfacet
  facet normal 0 0 1
    outer loop
      vertex 40 0 2
      vertex 31.3145 4.27737 2
      vertex 31.2135 4.11832 2
    endloop
  endfacet
  facet normal -0 0 1
    outer loop
      vertex 30.9561 3.84423 2
      vertex 40 0 2
      vertex 31.0935 3.97318 2
    endloop
  endfacet
  facet normal -0 0 1
    outer loop
      vertex 30.8037 3.73351 2
      vertex 40 0 2
      vertex 30.9561 3.84423 2
    endloop
  endfacet
  facet normal -0 0 1
    outer loop
      vertex 30.6387 3.64276 2
      vertex 40 0 2
      vertex 30.8037 3.73351 2
    endloop
  endfacet
  facet normal 0 0 1
    outer loop
      vertex 29.7189 3.52657 2
      vertex 15.2811 3.52657 2
      vertex 40 0 2
    endloop
  endfacet
  facet normal -0 0 1
    outer loop
      vertex 30.2811 3.52657 2
      vertex 40 0 2
      vertex 30.4635 3.57341 2
    endloop
  endfacet
  facet normal -0 0 1
    outer loop
      vertex 30.0942 3.50296 2
      vertex 40 0 2
      vertex 30.2811 3.52657 2
    endloop
  endfacet
  facet normal -0 0 1
    outer loop
      vertex 29.9058 3.50296 2
      vertex 40 0 2
      vertex 30.0942 3.50296 2
    endloop
  endfacet
  facet normal 0 0 1
    outer loop
      vertex 29.7189 3.52657 2
      vertex 40 0 2
      vertex 29.9058 3.50296 2
    endloop
  endfacet
  facet normal 0 0 1
    outer loop
      vertex 15.6387 3.64276 2
      vertex 29.3613 3.64276 2
      vertex 29.1963 3.73351 2
    endloop
  endfacet
  facet normal 0 0 1
    outer loop
      vertex 15.6387 3.64276 2
      vertex 29.1963 3.73351 2
      vertex 15.8037 3.73351 2
    endloop
  endfacet
  facet normal 0 0 1
    outer loop
      vertex 15.8037 3.73351 2
      vertex 29.0439 3.84423 2
      vertex 15.9561 3.84423 2
    endloop
  endfacet
  facet normal 0 0 1
    outer loop
      vertex 29.0439 3.84423 2
      vertex 28.9065 3.97318 2
      vertex 15.9561 3.84423 2
    endloop
  endfacet
  facet normal 0 0 1
    outer loop
      vertex 28.9065 3.97318 2
      vertex 28.7865 4.11832 2
      vertex 16.0935 3.97318 2
    endloop
  endfacet
  facet normal 0 0 1
    outer loop
      vertex 28.7865 4.11832 2
      vertex 16.2135 4.11832 2
      vertex 16.0935 3.97318 2
    endloop
  endfacet
  facet normal 0 0 1
    outer loop
      vertex 28.6855 4.27737 2
      vertex 16.3145 4.27737 2
      vertex 16.2135 4.11832 2
    endloop
  endfacet
  facet normal 0 0 1
    outer loop
      vertex 28.6053 4.44781 2
      vertex 16.3145 4.27737 2
      vertex 28.6855 4.27737 2
    endloop
  endfacet
  facet normal 0 0 1
    outer loop
      vertex 28.5471 4.62697 2
      vertex 16.3947 4.44781 2
      vertex 28.6053 4.44781 2
    endloop
  endfacet
  facet normal 0 0 1
    outer loop
      vertex 16.4529 4.62697 2
      vertex 28.5471 4.62697 2
      vertex 28.5118 4.812 2
    endloop
  endfacet
  facet normal -0 0 1
    outer loop
      vertex 16.4529 4.62697 2
      vertex 16.3947 4.44781 2
      vertex 28.5471 4.62697 2
    endloop
  endfacet
  facet normal 1 0 0
    outer loop
      vertex 40 0 2
      vertex 40 0 0
      vertex 40 50 0
    endloop
  endfacet
  facet normal 1 0 0
    outer loop
      vertex 40 50 2
      vertex 40 0 2
      vertex 40 50 0
    endloop
  endfacet
  facet normal -0.998027 -0.0627931 0
    outer loop
      vertex 31.5 5 0
      vertex 31.5 5 2
      vertex 31.4882 5.188 2
    endloop
  endfacet
  facet normal -0.998027 -0.0627931 0
    outer loop
      vertex 31.4882 5.188 0
      vertex 31.5 5 0
      vertex 31.4882 5.188 2
    endloop
  endfacet
  facet normal -0.982288 -0.187377 0
    outer loop
      vertex 31.4882 5.188 0
      vertex 31.4882 5.188 2
      vertex 31.4529 5.37303 2
    endloop
  endfacet
  facet normal -0.982288 -0.187377 0
    outer loop
      vertex 31.4529 5.37303 0
      vertex 31.4882 5.188 0
      vertex 31.4529 5.37303 2
    endloop
  endfacet
  facet normal -0.951056 -0.309018 0
    outer loop
      vertex 31.4529 5.37303 0
      vertex 31.4529 5.37303 2
      vertex 31.3947 5.55219 2
    endloop
  endfacet
  facet normal -0.951056 -0.309018 0
    outer loop
      vertex 31.3947 5.55219 0
      vertex 31.4529 5.37303 0
      vertex 31.3947 5.55219 2
    endloop
  endfacet
  facet normal -0.904826 -0.425781 0
    outer loop
      vertex 31.3947 5.55219 0
      vertex 31.3947 5.55219 2
      vertex 31.3145 5.72263 2
    endloop
  endfacet
  facet normal -0.904826 -0.425781 0
    outer loop
      vertex 31.3145 5.72263 0
      vertex 31.3947 5.55219 0
      vertex 31.3145 5.72263 2
    endloop
  endfacet
  facet normal -0.844329 -0.535825 0
    outer loop
      vertex 31.3145 5.72263 0
      vertex 31.3145 5.72263 2
      vertex 31.2135 5.88168 2
    endloop
  endfacet
  facet normal -0.844329 -0.535825 0
    outer loop
      vertex 31.2135 5.88168 0
      vertex 31.3145 5.72263 0
      vertex 31.2135 5.88168 2
    endloop
  endfacet
  facet normal -0.770513 -0.637424 0
    outer loop
      vertex 31.2135 5.88168 0
      vertex 31.2135 5.88168 2
      vertex 31.0935 6.02682 2
    endloop
  endfacet
  facet normal -0.770513 -0.637424 0
    outer loop
      vertex 31.0935 6.02682 0
      vertex 31.2135 5.88168 0
      vertex 31.0935 6.02682 2
    endloop
  endfacet
  facet normal -0.684548 -0.728968 0
    outer loop
      vertex 31.0935 6.02682 0
      vertex 31.0935 6.02682 2
      vertex 30.9561 6.15577 2
    endloop
  endfacet
  facet normal -0.684548 -0.728968 0
    outer loop
      vertex 30.9561 6.15577 0
      vertex 31.0935 6.02682 0
      vertex 30.9561 6.15577 2
    endloop
  endfacet
  facet normal -0.587785 -0.809017 0
    outer loop
      vertex 30.9561 6.15577 0
      vertex 30.9561 6.15577 2
      vertex 30.8037 6.26649 2
    endloop
  endfacet
  facet normal -0.587785 -0.809017 0
    outer loop
      vertex 30.8037 6.26649 0
      vertex 30.9561 6.15577 0
      vertex 30.8037 6.26649 2
    endloop
  endfacet
  facet normal -0.481754 -0.876307 0
    outer loop
      vertex 30.8037 6.26649 0
      vertex 30.8037 6.26649 2
      vertex 30.6387 6.35724 2
    endloop
  endfacet
  facet normal -0.481754 -0.876307 0
    outer loop
      vertex 30.6387 6.35724 0
      vertex 30.8037 6.26649 0
      vertex 30.6387 6.35724 2
    endloop
  endfacet
  facet normal -0.368126 -0.929776 0
    outer loop
      vertex 30.6387 6.35724 0
      vertex 30.6387 6.35724 2
      vertex 30.4635 6.42659 2
    endloop
  endfacet
  facet normal -0.368126 -0.929776 0
    outer loop
      vertex 30.4635 6.42659 0
      vertex 30.6387 6.35724 0
      vertex 30.4635 6.42659 2
    endloop
  endfacet
  facet normal -0.248686 -0.968584 0
    outer loop
      vertex 30.4635 6.42659 0
      vertex 30.4635 6.42659 2
      vertex 30.2811 6.47343 2
    endloop
  endfacet
  facet normal -0.248686 -0.968584 0
    outer loop
      vertex 30.2811 6.47343 0
      vertex 30.4635 6.42659 0
      vertex 30.2811 6.47343 2
    endloop
  endfacet
  facet normal -0.125333 -0.992115 0
    outer loop
      vertex 30.2811 6.47343 0
      vertex 30.2811 6.47343 2
      vertex 30.0942 6.49704 2
    endloop
  endfacet
  facet normal -0.125333 -0.992115 0
    outer loop
      vertex 30.0942 6.49704 0
      vertex 30.2811 6.47343 0
      vertex 30.0942 6.49704 2
    endloop
  endfacet
  facet normal 0 -1 0
    outer loop
      vertex 30.0942 6.49704 0
      vertex 30.0942 6.49704 2
      vertex 29.9058 6.49704 2
    endloop
  endfacet
  facet normal 0 -1 0
    outer loop
      vertex 29.9058 6.49704 0
      vertex 30.0942 6.49704 0
      vertex 29.9058 6.49704 2
    endloop
  endfacet
  facet normal 0.125333 -0.992115 0
    outer loop
      vertex 29.9058 6.49704 0
      vertex 29.9058 6.49704 2
      vertex 29.7189 6.47343 2
    endloop
  endfacet
  facet normal 0.125333 -0.992115 0
    outer loop
      vertex 29.7189 6.47343 0
      vertex 29.9058 6.49704 0
      vertex 29.7189 6.47343 2
    endloop
  endfacet
  facet normal 0.248686 -0.968584 0
    outer loop
      vertex 29.7189 6.47343 0
      vertex 29.7189 6.47343 2
      vertex 29.5365 6.42659 2
    endloop
  endfacet
  facet normal 0.248686 -0.968584 0
    outer loop
      vertex 29.5365 6.42659 0
      vertex 29.7189 6.47343 0
      vertex 29.5365 6.42659 2
    endloop
  endfacet
  facet normal 0.368126 -0.929776 0
    outer loop
      vertex 29.5365 6.42659 0
      vertex 29.5365 6.42659 2
      vertex 29.3613 6.35724 2
    endloop
  endfacet
  facet normal 0.368126 -0.929776 0
    outer loop
      vertex 29.3613 6.35724 0
      vertex 29.5365 6.42659 0
      vertex 29.3613 6.35724 2
    endloop
  endfacet
  facet normal 0.481754 -0.876307 0
    outer loop
      vertex 29.3613 6.35724 0
      vertex 29.3613 6.35724 2
      vertex 29.1963 6.26649 2
    endloop
  endfacet
  facet normal 0.481754 -0.876307 0
    outer loop
      vertex 29.1963 6.26649 0
      vertex 29.3613 6.35724 0
      vertex 29.1963 6.26649 2
    endloop
  endfacet
  facet normal 0.587785 -0.809017 0
    outer loop
      vertex 29.1963 6.26649 0
      vertex 29.1963 6.26649 2
      vertex 29.0439 6.15577 2
    endloop
  endfacet
  facet normal 0.587785 -0.809017 0
    outer loop
      vertex 29.0439 6.15577 0
      vertex 29.1963 6.26649 0
      vertex 29.0439 6.15577 2
    endloop
  endfacet
  facet normal 0.684548 -0.728968 0
    outer loop
      vertex 29.0439 6.15577 0
      vertex 29.0439 6.15577 2
      vertex 28.9065 6.02682 2
    endloop
  endfacet
  facet normal 0.684548 -0.728968 0
    outer loop
      vertex 28.9065 6.02682 0
      vertex 29.0439 6.15577 0
      vertex 28.9065 6.02682 2
    endloop
  endfacet
  facet normal 0.770513 -0.637424 0
    outer loop
      vertex 28.9065 6.02682 0
      vertex 28.9065 6.02682 2
      vertex 28.7865 5.88168 2
    endloop
  endfacet
  facet normal 0.770513 -0.637424 0
    outer loop
      vertex 28.7865 5.88168 0
      vertex 28.9065 6.02682 0
      vertex 28.7865 5.88168 2
    endloop
  endfacet
  facet normal 0.844329 -0.535825 0
    outer loop
      vertex 28.7865 5.88168 0
      vertex 28.7865 5.88168 2
      vertex 28.6855 5.72263 2
    endloop
  endfacet
  facet normal 0.844329 -0.535825 0
    outer loop
      vertex 28.6855 5.72263 0
      vertex 28.7865 5.88168 0
      vertex 28.6855 5.72263 2
    endloop
  endfacet
  facet normal 0.904826 -0.425781 0
    outer loop
      vertex 28.6855 5.72263 0
      vertex 28.6855 5.72263 2
      vertex 28.6053 5.55219 2
    endloop
  endfacet
  facet normal 0.904826 -0.425781 0
    outer loop
      vertex 28.6053 5.55219 0
      vertex 28.6855 5.72263 0
      vertex 28.6053 5.55219 2
    endloop
  endfacet
  facet normal 0.951056 -0.309018 0
    outer loop
      vertex 28.6053 5.55219 0
      vertex 28.6053 5.55219 2
      vertex 28.5471 5.37303 2
    endloop
  endfacet
  facet normal 0.951056 -0.309018 0
    outer loop
      vertex 28.5471 5.37303 0
      vertex 28.6053 5.55219 0
      vertex 28.5471 5.37303 2
    endloop
  endfacet
  facet normal 0.982288 -0.187377 0
    outer loop
      vertex 28.5471 5.37303 0
      vertex 28.5471 5.37303 2
      vertex 28.5118 5.188 2
    endloop
  endfacet
  facet normal 0.982288 -0.187377 0
    outer loop
      vertex 28.5118 5.188 0
      vertex 28.5471 5.37303 0
      vertex 28.5118 5.188 2
    endloop
  endfacet
  facet normal 0.998027 -0.0627931 0
    outer loop
      vertex 28.5118 5.188 0
      vertex 28.5118 5.188 2
      vertex 28.5 5 2
    endloop
  endfacet
  facet normal 0.998027 -0.0627931 0
    outer loop
      vertex 28.5 5 0
      vertex 28.5118 5.188 0
      vertex 28.5 5 2
    endloop
  endfacet
  facet normal 0.998027 0.0627931 0
    outer loop
      vertex 28.5 5 2
      vertex 28.5118 4.812 2
      vertex 28.5118 4.812 0
    endloop
  endfacet
  facet normal 0.998027 0.0627931 -0
    outer loop
      vertex 28.5 5 0
      vertex 28.5 5 2
      vertex 28.5118 4.812 0
    endloop
  endfacet
  facet normal 0.982288 0.187377 0
    outer loop
      vertex 28.5118 4.812 2
      vertex 28.5471 4.62697 2
      vertex 28.5471 4.62697 0
    endloop
  endfacet
  facet normal 0.982288 0.187377 -0
    outer loop
      vertex 28.5118 4.812 0
      vertex 28.5118 4.812 2
      vertex 28.5471 4.62697 0
    endloop
  endfacet
  facet normal 0.951056 0.309018 0
    outer loop
      vertex 28.5471 4.62697 2
      vertex 28.6053 4.44781 2
      vertex 28.6053 4.44781 0
    endloop
  endfacet
  facet normal 0.951056 0.309018 -0
    outer loop
      vertex 28.5471 4.62697 0
      vertex 28.5471 4.62697 2
      vertex 28.6053 4.44781 0
    endloop
  endfacet
  facet normal 0.904826 0.425781 0
    outer loop
      vertex 28.6053 4.44781 2
      vertex 28.6855 4.27737 2
      vertex 28.6855 4.27737 0
    endloop
  endfacet
  facet normal 0.904826 0.425781 -0
    outer loop
      vertex 28.6053 4.44781 0
      vertex 28.6053 4.44781 2
      vertex 28.6855 4.27737 0
    endloop
  endfacet
  facet normal 0.844329 0.535825 0
    outer loop
      vertex 28.6855 4.27737 2
      vertex 28.7865 4.11832 2
      vertex 28.7865 4.11832 0
    endloop
  endfacet
  facet normal 0.844329 0.535825 -0
    outer loop
      vertex 28.6855 4.27737 0
      vertex 28.6855 4.27737 2
      vertex 28.7865 4.11832 0
    endloop
  endfacet
  facet normal 0.770513 0.637424 0
    outer loop
      vertex 28.7865 4.11832 2
      vertex 28.9065 3.97318 2
      vertex 28.9065 3.97318 0
    endloop
  endfacet
  facet normal 0.770513 0.637424 -0
    outer loop
      vertex 28.7865 4.11832 0
      vertex 28.7865 4.11832 2
      vertex 28.9065 3.97318 0
    endloop
  endfacet
  facet normal 0.684548 0.728968 0
    outer loop
      vertex 28.9065 3.97318 2
      vertex 29.0439 3.84423 2
      vertex 29.0439 3.84423 0
    endloop
  endfacet
  facet normal 0.684548 0.728968 -0
    outer loop
      vertex 28.9065 3.97318 0
      vertex 28.9065 3.97318 2
      vertex 29.0439 3.84423 0
    endloop
  endfacet
  facet normal 0.587785 0.809017 0
    outer loop
      vertex 29.0439 3.84423 2
      vertex 29.1963 3.73351 2
      vertex 29.1963 3.73351 0
    endloop
  endfacet
  facet normal 0.587785 0.809017 -0
    outer loop
      vertex 29.0439 3.84423 0
      vertex 29.0439 3.84423 2
      vertex 29.1963 3.73351 0
    endloop
  endfacet
  facet normal 0.481754 0.876307 0
    outer loop
      vertex 29.1963 3.73351 2
      vertex 29.3613 3.64276 2
      vertex 29.3613 3.64276 0
    endloop
  endfacet
  facet normal 0.481754 0.876307 -0
    outer loop
      vertex 29.1963 3.73351 0
      vertex 29.1963 3.73351 2
      vertex 29.3613 3.64276 0
    endloop
  endfacet
  facet normal 0.368126 0.929776 0
    outer loop
      vertex 29.3613 3.64276 2
      vertex 29.5365 3.57341 2
      vertex 29.5365 3.57341 0
    endloop
  endfacet
  facet normal 0.368126 0.929776 -0
    outer loop
      vertex 29.3613 3.64276 0
      vertex 29.3613 3.64276 2
      vertex 29.5365 3.57341 0
    endloop
  endfacet
  facet normal 0.248686 0.968584 0
    outer loop
      vertex 29.5365 3.57341 2
      vertex 29.7189 3.52657 2
      vertex 29.7189 3.52657 0
    endloop
  endfacet
  facet normal 0.248686 0.968584 -0
    outer loop
      vertex 29.5365 3.57341 0
      vertex 29.5365 3.57341 2
      vertex 29.7189 3.52657 0
    endloop
  endfacet
  facet normal 0.125333 0.992115 0
    outer loop
      vertex 29.7189 3.52657 2
      vertex 29.9058 3.50296 2
      vertex 29.9058 3.50296 0
    endloop
  endfacet
  facet normal 0.125333 0.992115 -0
    outer loop
      vertex 29.7189 3.52657 0
      vertex 29.7189 3.52657 2
      vertex 29.9058 3.50296 0
    endloop
  endfacet
  facet normal -0 1 0
    outer loop
      vertex 29.9058 3.50296 2
      vertex 30.0942 3.50296 2
      vertex 30.0942 3.50296 0
    endloop
  endfacet
  facet normal 0 1 0
    outer loop
      vertex 29.9058 3.50296 0
      vertex 29.9058 3.50296 2
      vertex 30.0942 3.50296 0
    endloop
  endfacet
  facet normal -0.125333 0.992115 0
    outer loop
      vertex 30.0942 3.50296 2
      vertex 30.2811 3.52657 2
      vertex 30.2811 3.52657 0
    endloop
  endfacet
  facet normal -0.125333 0.992115 0
    outer loop
      vertex 30.0942 3.50296 0
      vertex 30.0942 3.50296 2
      vertex 30.2811 3.52657 0
    endloop
  endfacet
  facet normal -0.248686 0.968584 0
    outer loop
      vertex 30.2811 3.52657 2
      vertex 30.4635 3.57341 2
      vertex 30.4635 3.57341 0
    endloop
  endfacet
  facet normal -0.248686 0.968584 0
    outer loop
      vertex 30.2811 3.52657 0
      vertex 30.2811 3.52657 2
      vertex 30.4635 3.57341 0
    endloop
  endfacet
  facet normal -0.368126 0.929776 0
    outer loop
      vertex 30.4635 3.57341 2
      vertex 30.6387 3.64276 2
      vertex 30.6387 3.64276 0
    endloop
  endfacet
  facet normal -0.368126 0.929776 0
    outer loop
      vertex 30.4635 3.57341 0
      vertex 30.4635 3.57341 2
      vertex 30.6387 3.64276 0
    endloop
  endfacet
  facet normal -0.481754 0.876307 0
    outer loop
      vertex 30.6387 3.64276 2
      vertex 30.8037 3.73351 2
      vertex 30.8037 3.73351 0
    endloop
  endfacet
  facet normal -0.481754 0.876307 0
    outer loop
      vertex 30.6387 3.64276 0
      vertex 30.6387 3.64276 2
      vertex 30.8037 3.73351 0
    endloop
  endfacet
  facet normal -0.587785 0.809017 0
    outer loop
      vertex 30.8037 3.73351 2
      vertex 30.9561 3.84423 2
      vertex 30.9561 3.84423 0
    endloop
  endfacet
  facet normal -0.587785 0.809017 0
    outer loop
      vertex 30.8037 3.73351 0
      vertex 30.8037 3.73351 2
      vertex 30.9561 3.84423 0
    endloop
  endfacet
  facet normal -0.684548 0.728968 0
    outer loop
      vertex 30.9561 3.84423 2
      vertex 31.0935 3.97318 2
      vertex 31.0935 3.97318 0
    endloop
  endfacet
  facet normal -0.684548 0.728968 0
    outer loop
      vertex 30.9561 3.84423 0
      vertex 30.9561 3.84423 2
      vertex 31.0935 3.97318 0
    endloop
  endfacet
  facet normal -0.770513 0.637424 0
    outer loop
      vertex 31.0935 3.97318 2
      vertex 31.2135 4.11832 2
      vertex 31.2135 4.11832 0
    endloop
  endfacet
  facet normal -0.770513 0.637424 0
    outer loop
      vertex 31.0935 3.97318 0
      vertex 31.0935 3.97318 2
      vertex 31.2135 4.11832 0
    endloop
  endfacet
  facet normal -0.844329 0.535825 0
    outer loop
      vertex 31.2135 4.11832 2
      vertex 31.3145 4.27737 2
      vertex 31.3145 4.27737 0
    endloop
  endfacet
  facet normal -0.844329 0.535825 0
    outer loop
      vertex 31.2135 4.11832 0
      vertex 31.2135 4.11832 2
      vertex 31.3145 4.27737 0
    endloop
  endfacet
  facet normal -0.904826 0.425781 0
    outer loop
      vertex 31.3145 4.27737 2
      vertex 31.3947 4.44781 2
      vertex 31.3947 4.44781 0
    endloop
  endfacet
  facet normal -0.904826 0.425781 0
    outer loop
      vertex 31.3145 4.27737 0
      vertex 31.3145 4.27737 2
      vertex 31.3947 4.44781 0
    endloop
  endfacet
  facet normal -0.951056 0.309018 0
    outer loop
      vertex 31.3947 4.44781 2
      vertex 31.4529 4.62697 2
      vertex 31.4529 4.62697 0
    endloop
  endfacet
  facet normal -0.951056 0.309018 0
    outer loop
      vertex 31.3947 4.44781 0
      vertex 31.3947 4.44781 2
      vertex 31.4529 4.62697 0
    endloop
  endfacet
  facet normal -0.982288 0.187377 0
    outer loop
      vertex 31.4529 4.62697 2
      vertex 31.4882 4.812 2
      vertex 31.4882 4.812 0
    endloop
  endfacet
  facet normal -0.982288 0.187377 0
    outer loop
      vertex 31.4529 4.62697 0
      vertex 31.4529 4.62697 2
      vertex 31.4882 4.812 0
    endloop
  endfacet
  facet normal -0.998027 0.0627931 0
    outer loop
      vertex 31.4882 4.812 2
      vertex 31.5 5 2
      vertex 31.5 5 0
    endloop
  endfacet
  facet normal -0.998027 0.0627931 0
    outer loop
      vertex 31.4882 4.812 0
      vertex 31.4882 4.812 2
      vertex 31.5 5 0
    endloop
  endfacet
  facet normal -0.998027 -0.0627931 0
    outer loop
      vertex 16.5 5 0
      vertex 16.5 5 2
      vertex 16.4882 5.188 2
    endloop
  endfacet
  facet normal -0.998027 -0.0627931 0
    outer loop
      vertex 16.4882 5.188 0
      vertex 16.5 5 0
      vertex 16.4882 5.188 2
    endloop
  endfacet
  facet normal -0.982288 -0.187377 0
    outer loop
      vertex 16.4882 5.188 0
      vertex 16.4882 5.188 2
      vertex 16.4529 5.37303 2
    endloop
  endfacet
  facet normal -0.982288 -0.187377 0
    outer loop
      vertex 16.4529 5.37303 0
      vertex 16.4882 5.188 0
      vertex 16.4529 5.37303 2
    endloop
  endfacet
  facet normal -0.951056 -0.309018 0
    outer loop
      vertex 16.4529 5.37303 0
      vertex 16.4529 5.37303 2
      vertex 16.3947 5.55219 2
    endloop
  endfacet
  facet normal -0.951056 -0.309018 0
    outer loop
      vertex 16.3947 5.55219 0
      vertex 16.4529 5.37303 0
      vertex 16.3947 5.55219 2
    endloop
  endfacet
  facet normal -0.904826 -0.425781 0
    outer loop
      vertex 16.3947 5.55219 0
      vertex 16.3947 5.55219 2
      vertex 16.3145 5.72263 2
    endloop
  endfacet
  facet normal -0.904826 -0.425781 0
    outer loop
      vertex 16.3145 5.72263 0
      vertex 16.3947 5.55219 0
      vertex 16.3145 5.72263 2
    endloop
  endfacet
  facet normal -0.844329 -0.535825 0
    outer loop
      vertex 16.3145 5.72263 0
      vertex 16.3145 5.72263 2
      vertex 16.2135 5.88168 2
    endloop
  endfacet
  facet normal -0.844329 -0.535825 0
    outer loop
      vertex 16.2135 5.88168 0
      vertex 16.3145 5.72263 0
      vertex 16.2135 5.88168 2
    endloop
  endfacet
  facet normal -0.770513 -0.637424 0
    outer loop
      vertex 16.2135 5.88168 0
      vertex 16.2135 5.88168 2
      vertex 16.0935 6.02682 2
    endloop
  endfacet
  facet normal -0.770513 -0.637424 0
    outer loop
      vertex 16.0935 6.02682 0
      vertex 16.2135 5.88168 0
      vertex 16.0935 6.02682 2
    endloop
  endfacet
  facet normal -0.684548 -0.728968 0
    outer loop
      vertex 16.0935 6.02682 0
      vertex 16.0935 6.02682 2
      vertex 15.9561 6.15577 2
    endloop
  endfacet
  facet normal -0.684548 -0.728968 0
    outer loop
      vertex 15.9561 6.15577 0
      vertex 16.0935 6.02682 0
      vertex 15.9561 6.15577 2
    endloop
  endfacet
  facet normal -0.587785 -0.809017 0
    outer loop
      vertex 15.9561 6.15577 0
      vertex 15.9561 6.15577 2
      vertex 15.8037 6.26649 2
    endloop
  endfacet
  facet normal -0.587785 -0.809017 0
    outer loop
      vertex 15.8037 6.26649 0
      vertex 15.9561 6.15577 0
      vertex 15.8037 6.26649 2
    endloop
  endfacet
  facet normal -0.481754 -0.876307 0
    outer loop
      vertex 15.8037 6.26649 0
      vertex 15.8037 6.26649 2
      vertex 15.6387 6.35724 2
    endloop
  endfacet
  facet normal -0.481754 -0.876307 0
    outer loop
      vertex 15.6387 6.35724 0
      vertex 15.8037 6.26649 0
      vertex 15.6387 6.35724 2
    endloop
  endfacet
  facet normal -0.368126 -0.929776 0
    outer loop
      vertex 15.6387 6.35724 0
      vertex 15.6387 6.35724 2
      vertex 15.4635 6.42659 2
    endloop
  endfacet
  facet normal -0.368126 -0.929776 0
    outer loop
      vertex 15.4635 6.42659 0
      vertex 15.6387 6.35724 0
      vertex 15.4635 6.42659 2
    endloop
  endfacet
  facet normal -0.248686 -0.968584 0
    outer loop
      vertex 15.4635 6.42659 0
      vertex 15.4635 6.42659 2
      vertex 15.2811 6.47343 2
    endloop
  endfacet
  facet normal -0.248686 -0.968584 0
    outer loop
      vertex 15.2811 6.47343 0
      vertex 15.4635 6.42659 0
      vertex 15.2811 6.47343 2
    endloop
  endfacet
  facet normal -0.125333 -0.992115 0
    outer loop
      vertex 15.2811 6.47343 0
      vertex 15.2811 6.47343 2
      vertex 15.0942 6.49704 2
    endloop
  endfacet
  facet normal -0.125333 -0.992115 0
    outer loop
      vertex 15.0942 6.49704 0
      vertex 15.2811 6.47343 0
      vertex 15.0942 6.49704 2
    endloop
  endfacet
  facet normal 0 -1 0
    outer loop
      vertex 15.0942 6.49704 0
      vertex 15.0942 6.49704 2
      vertex 14.9058 6.49704 2
    endloop
  endfacet
  facet normal 0 -1 0
    outer loop
      vertex 14.9058 6.49704 0
      vertex 15.0942 6.49704 0
      vertex 14.9058 6.49704 2
    endloop
  endfacet
  facet normal 0.125333 -0.992115 0
    outer loop
      vertex 14.9058 6.49704 0
      vertex 14.9058 6.49704 2
      vertex 14.7189 6.47343 2
    endloop
  endfacet
  facet normal 0.125333 -0.992115 0
    outer loop
      vertex 14.7189 6.47343 0
      vertex 14.9058 6.49704 0
      vertex 14.7189 6.47343 2
    endloop
  endfacet
  facet normal 0.248686 -0.968584 0
    outer loop
      vertex 14.7189 6.47343 0
      vertex 14.7189 6.47343 2
      vertex 14.5365 6.42659 2
    endloop
  endfacet
  facet normal 0.248686 -0.968584 0
    outer loop
      vertex 14.5365 6.42659 0
      vertex 14.7189 6.47343 0
      vertex 14.5365 6.42659 2
    endloop
  endfacet
  facet normal 0.368126 -0.929776 0
    outer loop
      vertex 14.5365 6.42659 0
      vertex 14.5365 6.42659 2
      vertex 14.3613 6.35724 2
    endloop
  endfacet
  facet normal 0.368126 -0.929776 0
    outer loop
      vertex 14.3613 6.35724 0
      vertex 14.5365 6.42659 0
      vertex 14.3613 6.35724 2
    endloop
  endfacet
  facet normal 0.481754 -0.876307 0
    outer loop
      vertex 14.3613 6.35724 0
      vertex 14.3613 6.35724 2
      vertex 14.1963 6.26649 2
    endloop
  endfacet
  facet normal 0.481754 -0.876307 0
    outer loop
      vertex 14.1963 6.26649 0
      vertex 14.3613 6.35724 0
      vertex 14.1963 6.26649 2
    endloop
  endfacet
  facet normal 0.587785 -0.809017 0
    outer loop
      vertex 14.1963 6.26649 0
      vertex 14.1963 6.26649 2
      vertex 14.0439 6.15577 2
    endloop
  endfacet
  facet normal 0.587785 -0.809017 0
    outer loop
      vertex 14.0439 6.15577 0
      vertex 14.1963 6.26649 0
      vertex 14.0439 6.15577 2
    endloop
  endfacet
  facet normal 0.684548 -0.728968 0
    outer loop
      vertex 14.0439 6.15577 0
      vertex 14.0439 6.15577 2
      vertex 13.9065 6.02682 2
    endloop
  endfacet
  facet normal 0.684548 -0.728968 0
    outer loop
      vertex 13.9065 6.02682 0
      vertex 14.0439 6.15577 0
      vertex 13.9065 6.02682 2
    endloop
  endfacet
  facet normal 0.770513 -0.637424 0
    outer loop
      vertex 13.9065 6.02682 0
      vertex 13.9065 6.02682 2
      vertex 13.7865 5.88168 2
    endloop
  endfacet
  facet normal 0.770513 -0.637424 0
    outer loop
      vertex 13.7865 5.88168 0
      vertex 13.9065 6.02682 0
      vertex 13.7865 5.88168 2
    endloop
  endfacet
  facet normal 0.844329 -0.535825 0
    outer loop
      vertex 13.7865 5.88168 0
      vertex 13.7865 5.88168 2
      vertex 13.6855 5.72263 2
    endloop
  endfacet
  facet normal 0.844329 -0.535825 0
    outer loop
      vertex 13.6855 5.72263 0
      vertex 13.7865 5.88168 0
      vertex 13.6855 5.72263 2
    endloop
  endfacet
  facet normal 0.904826 -0.425781 0
    outer loop
      vertex 13.6855 5.72263 0
      vertex 13.6855 5.72263 2
      vertex 13.6053 5.55219 2
    endloop
  endfacet
  facet normal 0.904826 -0.425781 0
    outer loop
      vertex 13.6053 5.55219 0
      vertex 13.6855 5.72263 0
      vertex 13.6053 5.55219 2
    endloop
  endfacet
  facet normal 0.951056 -0.309018 0
    outer loop
      vertex 13.6053 5.55219 0
      vertex 13.6053 5.55219 2
      vertex 13.5471 5.37303 2
    endloop
  endfacet
  facet normal 0.951056 -0.309018 0
    outer loop
      vertex 13.5471 5.37303 0
      vertex 13.6053 5.55219 0
      vertex 13.5471 5.37303 2
    endloop
  endfacet
  facet normal 0.982288 -0.187377 0
    outer loop
      vertex 13.5471 5.37303 0
      vertex 13.5471 5.37303 2
      vertex 13.5118 5.188 2
    endloop
  endfacet
  facet normal 0.982288 -0.187377 0
    outer loop
      vertex 13.5118 5.188 0
      vertex 13.5471 5.37303 0
      vertex 13.5118 5.188 2
    endloop
  endfacet
  facet normal 0.998027 -0.0627931 0
    outer loop
      vertex 13.5118 5.188 0
      vertex 13.5118 5.188 2
      vertex 13.5 5 2
    endloop
  endfacet
  facet normal 0.998027 -0.0627931 0
    outer loop
      vertex 13.5 5 0
      vertex 13.5118 5.188 0
      vertex 13.5 5 2
    endloop
  endfacet
  facet normal 0.998027 0.0627931 0
    outer loop
      vertex 13.5 5 2
      vertex 13.5118 4.812 2
      vertex 13.5118 4.812 0
    endloop
  endfacet
  facet normal 0.998027 0.0627931 -0
    outer loop
      vertex 13.5 5 0
      vertex 13.5 5 2
      vertex 13.5118 4.812 0
    endloop
  endfacet
  facet normal 0.982288 0.187377 0
    outer loop
      vertex 13.5118 4.812 2
      vertex 13.5471 4.62697 2
      vertex 13.5471 4.62697 0
    endloop
  endfacet
  facet normal 0.982288 0.187377 -0
    outer loop
      vertex 13.5118 4.812 0
      vertex 13.5118 4.812 2
      vertex 13.5471 4.62697 0
    endloop
  endfacet
  facet normal 0.951056 0.309018 0
    outer loop
      vertex 13.5471 4.62697 2
      vertex 13.6053 4.44781 2
      vertex 13.6053 4.44781 0
    endloop
  endfacet
  facet normal 0.951056 0.309018 -0
    outer loop
      vertex 13.5471 4.62697 0
      vertex 13.5471 4.62697 2
      vertex 13.6053 4.44781 0
    endloop
  endfacet
  facet normal 0.904826 0.425781 0
    outer loop
      vertex 13.6053 4.44781 2
      vertex 13.6855 4.27737 2
      vertex 13.6855 4.27737 0
    endloop
  endfacet
  facet normal 0.904826 0.425781 -0
    outer loop
      vertex 13.6053 4.44781 0
      vertex 13.6053 4.44781 2
      vertex 13.6855 4.27737 0
    endloop
  endfacet
  facet normal 0.844329 0.535825 0
    outer loop
      vertex 13.6855 4.27737 2
      vertex 13.7865 4.11832 2
      vertex 13.7865 4.11832 0
    endloop
  endfacet
  facet normal 0.844329 0.535825 -0
    outer loop
      vertex 13.6855 4.27737 0
      vertex 13.6855 4.27737 2
      vertex 13.7865 4.11832 0
    endloop
  endfacet
  facet normal 0.770513 0.637424 0
    outer loop
      vertex 13.7865 4.11832 2
      vertex 13.9065 3.97318 2
      vertex 13.9065 3.97318 0
    endloop
  endfacet
  facet normal 0.770513 0.637424 -0
    outer loop
      vertex 13.7865 4.11832 0
      vertex 13.7865 4.11832 2
      vertex 13.9065 3.97318 0
    endloop
  endfacet
  facet normal 0.684548 0.728968 0
    outer loop
      vertex 13.9065 3.97318 2
      vertex 14.0439 3.84423 2
      vertex 14.0439 3.84423 0
    endloop
  endfacet
  facet normal 0.684548 0.728968 -0
    outer loop
      vertex 13.9065 3.97318 0
      vertex 13.9065 3.97318 2
      vertex 14.0439 3.84423 0
    endloop
  endfacet
  facet normal 0.587785 0.809017 0
    outer loop
      vertex 14.0439 3.84423 2
      vertex 14.1963 3.73351 2
      vertex 14.1963 3.73351 0
    endloop
  endfacet
  facet normal 0.587785 0.809017 -0
    outer loop
      vertex 14.0439 3.84423 0
      vertex 14.0439 3.84423 2
      vertex 14.1963 3.73351 0
    endloop
  endfacet
  facet normal 0.481754 0.876307 0
    outer loop
      vertex 14.1963 3.73351 2
      vertex 14.3613 3.64276 2
      vertex 14.3613 3.64276 0
    endloop
  endfacet
  facet normal 0.481754 0.876307 -0
    outer loop
      vertex 14.1963 3.73351 0
      vertex 14.1963 3.73351 2
      vertex 14.3613 3.64276 0
    endloop
  endfacet
  facet normal 0.368126 0.929776 0
    outer loop
      vertex 14.3613 3.64276 2
      vertex 14.5365 3.57341 2
      vertex 14.5365 3.57341 0
    endloop
  endfacet
  facet normal 0.368126 0.929776 -0
    outer loop
      vertex 14.3613 3.64276 0
      vertex 14.3613 3.64276 2
      vertex 14.5365 3.57341 0
    endloop
  endfacet
  facet normal 0.248686 0.968584 0
    outer loop
      vertex 14.5365 3.57341 2
      vertex 14.7189 3.52657 2
      vertex 14.7189 3.52657 0
    endloop
  endfacet
  facet normal 0.248686 0.968584 -0
    outer loop
      vertex 14.5365 3.57341 0
      vertex 14.5365 3.57341 2
      vertex 14.7189 3.52657 0
    endloop
  endfacet
  facet normal 0.125333 0.992115 0
    outer loop
      vertex 14.7189 3.52657 2
      vertex 14.9058 3.50296 2
      vertex 14.9058 3.50296 0
    endloop
  endfacet
  facet normal 0.125333 0.992115 -0
    outer loop
      vertex 14.7189 3.52657 0
      vertex 14.7189 3.52657 2
      vertex 14.9058 3.50296 0
    endloop
  endfacet
  facet normal -0 1 0
    outer loop
      vertex 14.9058 3.50296 2
      vertex 15.0942 3.50296 2
      vertex 15.0942 3.50296 0
    endloop
  endfacet
  facet normal 0 1 0
    outer loop
      vertex 14.9058 3.50296 0
      vertex 14.9058 3.50296 2
      vertex 15.0942 3.50296 0
    endloop
  endfacet
  facet normal -0.125333 0.992115 0
    outer loop
      vertex 15.0942 3.50296 2
      vertex 15.2811 3.52657 2
      vertex 15.2811 3.52657 0
    endloop
  endfacet
  facet normal -0.125333 0.992115 0
    outer loop
      vertex 15.0942 3.50296 0
      vertex 15.0942 3.50296 2
      vertex 15.2811 3.52657 0
    endloop
  endfacet
  facet normal -0.248686 0.968584 0
    outer loop
      vertex 15.2811 3.52657 2
      vertex 15.4635 3.57341 2
      vertex 15.4635 3.57341 0
    endloop
  endfacet
  facet normal -0.248686 0.968584 0
    outer loop
      vertex 15.2811 3.52657 0
      vertex 15.2811 3.52657 2
      vertex 15.4635 3.57341 0
    endloop
  endfacet
  facet normal -0.368126 0.929776 0
    outer loop
      vertex 15.4635 3.57341 2
      vertex 15.6387 3.64276 2
      vertex 15.6387 3.64276 0
    endloop
  endfacet
  facet normal -0.368126 0.929776 0
    outer loop
      vertex 15.4635 3.57341 0
      vertex 15.4635 3.57341 2
      vertex 15.6387 3.64276 0
    endloop
  endfacet
  facet normal -0.481754 0.876307 0
    outer loop
      vertex 15.6387 3.64276 2
      vertex 15.8037 3.73351 2
      vertex 15.8037 3.73351 0
    endloop
  endfacet
  facet normal -0.481754 0.876307 0
    outer loop
      vertex 15.6387 3.64276 0
      vertex 15.6387 3.64276 2
      vertex 15.8037 3.73351 0
    endloop
  endfacet
  facet normal -0.587785 0.809017 0
    outer loop
      vertex 15.8037 3.73351 2
      vertex 15.9561 3.84423 2
      vertex 15.9561 3.84423 0
    endloop
  endfacet
  facet normal -0.587785 0.809017 0
    outer loop
      vertex 15.8037 3.73351 0
      vertex 15.8037 3.73351 2
      vertex 15.9561 3.84423 0
    endloop
  endfacet
  facet normal -0.684548 0.728968 0
    outer loop
      vertex 15.9561 3.84423 2
      vertex 16.0935 3.97318 2
      vertex 16.0935 3.97318 0
    endloop
  endfacet
  facet normal -0.684548 0.728968 0
    outer loop
      vertex 15.9561 3.84423 0
      vertex 15.9561 3.84423 2
      vertex 16.0935 3.97318 0
    endloop
  endfacet
  facet normal -0.770513 0.637424 0
    outer loop
      vertex 16.0935 3.97318 2
      vertex 16.2135 4.11832 2
      vertex 16.2135 4.11832 0
    endloop
  endfacet
  facet normal -0.770513 0.637424 0
    outer loop
      vertex 16.0935 3.97318 0
      vertex 16.0935 3.97318 2
      vertex 16.2135 4.11832 0
    endloop
  endfacet
  facet normal -0.844329 0.535825 0
    outer loop
      vertex 16.2135 4.11832 2
      vertex 16.3145 4.27737 2
      vertex 16.3145 4.27737 0
    endloop
  endfacet
  facet normal -0.844329 0.535825 0
    outer loop
      vertex 16.2135 4.11832 0
      vertex 16.2135 4.11832 2
      vertex 16.3145 4.27737 0
    endloop
  endfacet
  facet normal -0.904826 0.425781 0
    outer loop
      vertex 16.3145 4.27737 2
      vertex 16.3947 4.44781 2
      vertex 16.3947 4.44781 0
    endloop
  endfacet
  facet normal -0.904826 0.425781 0
    outer loop
      vertex 16.3145 4.27737 0
      vertex 16.3145 4.27737 2
      vertex 16.3947 4.44781 0
    endloop
  endfacet
  facet normal -0.951056 0.309018 0
    outer loop
      vertex 16.3947 4.44781 2
      vertex 16.4529 4.62697 2
      vertex 16.4529 4.62697 0
    endloop
  endfacet
  facet normal -0.951056 0.309018 0
    outer loop
      vertex 16.3947 4.44781 0
      vertex 16.3947 4.44781 2
      vertex 16.4529 4.62697 0
    endloop
  endfacet
  facet normal -0.982288 0.187377 0
    outer loop
      vertex 16.4529 4.62697 2
      vertex 16.4882 4.812 2
      vertex 16.4882 4.812 0
    endloop
  endfacet
  facet normal -0.982288 0.187377 0
    outer loop
      vertex 16.4529 4.62697 0
      vertex 16.4529 4.62697 2
      vertex 16.4882 4.812 0
    endloop
  endfacet
  facet normal -0.998027 0.0627931 0
    outer loop
      vertex 16.4882 4.812 2
      vertex 16.5 5 2
      vertex 16.5 5 0
    endloop
  endfacet
  facet normal -0.998027 0.0627931 0
    outer loop
      vertex 16.4882 4.812 0
      vertex 16.4882 4.812 2
      vertex 16.5 5 0
    endloop
  endfacet
  facet normal 0 1 0
    outer loop
      vertex 40 50 0
      vertex 0 50 0
      vertex 0 50 2
    endloop
  endfacet
  facet normal 0 1 0
    outer loop
      vertex 40 50 2
      vertex 40 50 0
      vertex 0 50 2
    endloop
  endfacet
  facet normal -0.998027 -0.0627904 0
    outer loop
      vertex 39 30 0
      vertex 39 30 2
      vertex 38.8502 32.3813 2
    endloop
  endfacet
  facet normal -0.998027 -0.0627904 0
    outer loop
      vertex 38.8502 32.3813 0
      vertex 39 30 0
      vertex 38.8502 32.3813 2
    endloop
  endfacet
  facet normal -0.982287 -0.187381 0
    outer loop
      vertex 38.8502 32.3813 0
      vertex 38.8502 32.3813 2
      vertex 38.4031 34.7251 2
    endloop
  endfacet
  facet normal -0.982287 -0.187381 0
    outer loop
      vertex 38.4031 34.7251 0
      vertex 38.8502 32.3813 0
      vertex 38.4031 34.7251 2
    endloop
  endfacet
  facet normal -0.951057 -0.309017 0
    outer loop
      vertex 38.4031 34.7251 0
      vertex 38.4031 34.7251 2
      vertex 37.6658 36.9944 2
    endloop
  endfacet
  facet normal -0.951057 -0.309017 0
    outer loop
      vertex 37.6658 36.9944 0
      vertex 38.4031 34.7251 0
      vertex 37.6658 36.9944 2
    endloop
  endfacet
  facet normal -0.904827 -0.425779 0
    outer loop
      vertex 37.6658 36.9944 0
      vertex 37.6658 36.9944 2
      vertex 36.6498 39.1533 2
    endloop
  endfacet
  facet normal -0.904827 -0.425779 0
    outer loop
      vertex 36.6498 39.1533 0
      vertex 37.6658 36.9944 0
      vertex 36.6498 39.1533 2
    endloop
  endfacet
  facet normal -0.844328 -0.535827 0
    outer loop
      vertex 36.6498 39.1533 0
      vertex 36.6498 39.1533 2
      vertex 35.3713 41.1679 2
    endloop
  endfacet
  facet normal -0.844328 -0.535827 0
    outer loop
      vertex 35.3713 41.1679 0
      vertex 36.6498 39.1533 0
      vertex 35.3713 41.1679 2
    endloop
  endfacet
  facet normal -0.770513 -0.637424 0
    outer loop
      vertex 35.3713 41.1679 0
      vertex 35.3713 41.1679 2
      vertex 33.8504 43.0064 2
    endloop
  endfacet
  facet normal -0.770513 -0.637424 0
    outer loop
      vertex 33.8504 43.0064 0
      vertex 35.3713 41.1679 0
      vertex 33.8504 43.0064 2
    endloop
  endfacet
  facet normal -0.684547 -0.728969 0
    outer loop
      vertex 33.8504 43.0064 0
      vertex 33.8504 43.0064 2
      vertex 32.1111 44.6398 2
    endloop
  endfacet
  facet normal -0.684547 -0.728969 0
    outer loop
      vertex 32.1111 44.6398 0
      vertex 33.8504 43.0064 0
      vertex 32.1111 44.6398 2
    endloop
  endfacet
  facet normal -0.587785 -0.809017 0
    outer loop
      vertex 32.1111 44.6398 0
      vertex 32.1111 44.6398 2
      vertex 30.1807 46.0422 2
    endloop
  endfacet
  facet normal -0.587785 -0.809017 0
    outer loop
      vertex 30.1807 46.0422 0
      vertex 32.1111 44.6398 0
      vertex 30.1807 46.0422 2
    endloop
  endfacet
  facet normal -0.481754 -0.876307 0
    outer loop
      vertex 30.1807 46.0422 0
      vertex 30.1807 46.0422 2
      vertex 28.0898 47.1917 2
    endloop
  endfacet
  facet normal -0.481754 -0.876307 0
    outer loop
      vertex 28.0898 47.1917 0
      vertex 30.1807 46.0422 0
      vertex 28.0898 47.1917 2
    endloop
  endfacet
  facet normal -0.368125 -0.929777 0
    outer loop
      vertex 28.0898 47.1917 0
      vertex 28.0898 47.1917 2
      vertex 25.8713 48.0701 2
    endloop
  endfacet
  facet normal -0.368125 -0.929777 0
    outer loop
      vertex 25.8713 48.0701 0
      vertex 28.0898 47.1917 0
      vertex 25.8713 48.0701 2
    endloop
  endfacet
  facet normal -0.24869 -0.968583 0
    outer loop
      vertex 25.8713 48.0701 0
      vertex 25.8713 48.0701 2
      vertex 23.5602 48.6635 2
    endloop
  endfacet
  facet normal -0.24869 -0.968583 0
    outer loop
      vertex 23.5602 48.6635 0
      vertex 25.8713 48.0701 0
      vertex 23.5602 48.6635 2
    endloop
  endfacet
  facet normal -0.125333 -0.992115 0
    outer loop
      vertex 23.5602 48.6635 0
      vertex 23.5602 48.6635 2
      vertex 21.193 48.9625 2
    endloop
  endfacet
  facet normal -0.125333 -0.992115 0
    outer loop
      vertex 21.193 48.9625 0
      vertex 23.5602 48.6635 0
      vertex 21.193 48.9625 2
    endloop
  endfacet
  facet normal 0 -1 0
    outer loop
      vertex 21.193 48.9625 0
      vertex 21.193 48.9625 2
      vertex 18.807 48.9625 2
    endloop
  endfacet
  facet normal 0 -1 0
    outer loop
      vertex 18.807 48.9625 0
      vertex 21.193 48.9625 0
      vertex 18.807 48.9625 2
    endloop
  endfacet
  facet normal 0.125333 -0.992115 0
    outer loop
      vertex 18.807 48.9625 0
      vertex 18.807 48.9625 2
      vertex 16.4398 48.6635 2
    endloop
  endfacet
  facet normal 0.125333 -0.992115 0
    outer loop
      vertex 16.4398 48.6635 0
      vertex 18.807 48.9625 0
      vertex 16.4398 48.6635 2
    endloop
  endfacet
  facet normal 0.24869 -0.968583 0
    outer loop
      vertex 16.4398 48.6635 0
      vertex 16.4398 48.6635 2
      vertex 14.1287 48.0701 2
    endloop
  endfacet
  facet normal 0.24869 -0.968583 0
    outer loop
      vertex 14.1287 48.0701 0
      vertex 16.4398 48.6635 0
      vertex 14.1287 48.0701 2
    endloop
  endfacet
  facet normal 0.368125 -0.929777 0
    outer loop
      vertex 14.1287 48.0701 0
      vertex 14.1287 48.0701 2
      vertex 11.9102 47.1917 2
    endloop
  endfacet
  facet normal 0.368125 -0.929777 0
    outer loop
      vertex 11.9102 47.1917 0
      vertex 14.1287 48.0701 0
      vertex 11.9102 47.1917 2
    endloop
  endfacet
  facet normal 0.481754 -0.876307 0
    outer loop
      vertex 11.9102 47.1917 0
      vertex 11.9102 47.1917 2
      vertex 9.81929 46.0422 2
    endloop
  endfacet
  facet normal 0.481754 -0.876307 0
    outer loop
      vertex 9.81929 46.0422 0
      vertex 11.9102 47.1917 0
      vertex 9.81929 46.0422 2
    endloop
  endfacet
  facet normal 0.587785 -0.809017 0
    outer loop
      vertex 9.81929 46.0422 0
      vertex 9.81929 46.0422 2
      vertex 7.88894 44.6398 2
    endloop
  endfacet
  facet normal 0.587785 -0.809017 0
    outer loop
      vertex 7.88894 44.6398 0
      vertex 9.81929 46.0422 0
      vertex 7.88894 44.6398 2
    endloop
  endfacet
  facet normal 0.684547 -0.728969 0
    outer loop
      vertex 7.88894 44.6398 0
      vertex 7.88894 44.6398 2
      vertex 6.1496 43.0064 2
    endloop
  endfacet
  facet normal 0.684547 -0.728969 0
    outer loop
      vertex 6.1496 43.0064 0
      vertex 7.88894 44.6398 0
      vertex 6.1496 43.0064 2
    endloop
  endfacet
  facet normal 0.770513 -0.637424 0
    outer loop
      vertex 6.1496 43.0064 0
      vertex 6.1496 43.0064 2
      vertex 4.62868 41.1679 2
    endloop
  endfacet
  facet normal 0.770513 -0.637424 0
    outer loop
      vertex 4.62868 41.1679 0
      vertex 6.1496 43.0064 0
      vertex 4.62868 41.1679 2
    endloop
  endfacet
  facet normal 0.844328 -0.535827 0
    outer loop
      vertex 4.62868 41.1679 0
      vertex 4.62868 41.1679 2
      vertex 3.35017 39.1533 2
    endloop
  endfacet
  facet normal 0.844328 -0.535827 0
    outer loop
      vertex 3.35017 39.1533 0
      vertex 4.62868 41.1679 0
      vertex 3.35017 39.1533 2
    endloop
  endfacet
  facet normal 0.904827 -0.425779 0
    outer loop
      vertex 3.35017 39.1533 0
      vertex 3.35017 39.1533 2
      vertex 2.33425 36.9944 2
    endloop
  endfacet
  facet normal 0.904827 -0.425779 0
    outer loop
      vertex 2.33425 36.9944 0
      vertex 3.35017 39.1533 0
      vertex 2.33425 36.9944 2
    endloop
  endfacet
  facet normal 0.951057 -0.309017 0
    outer loop
      vertex 2.33425 36.9944 0
      vertex 2.33425 36.9944 2
      vertex 1.59692 34.7251 2
    endloop
  endfacet
  facet normal 0.951057 -0.309017 0
    outer loop
      vertex 1.59692 34.7251 0
      vertex 2.33425 36.9944 0
      vertex 1.59692 34.7251 2
    endloop
  endfacet
  facet normal 0.982287 -0.187381 0
    outer loop
      vertex 1.59692 34.7251 0
      vertex 1.59692 34.7251 2
      vertex 1.14982 32.3813 2
    endloop
  endfacet
  facet normal 0.982287 -0.187381 0
    outer loop
      vertex 1.14982 32.3813 0
      vertex 1.59692 34.7251 0
      vertex 1.14982 32.3813 2
    endloop
  endfacet
  facet normal 0.998027 -0.0627904 0
    outer loop
      vertex 1.14982 32.3813 0
      vertex 1.14982 32.3813 2
      vertex 1 30 2
    endloop
  endfacet
  facet normal 0.998027 -0.0627904 0
    outer loop
      vertex 1 30 0
      vertex 1.14982 32.3813 0
      vertex 1 30 2
    endloop
  endfacet
  facet normal 0.998027 0.0627904 0
    outer loop
      vertex 1 30 2
      vertex 1.14982 27.6187 2
      vertex 1.14982 27.6187 0
    endloop
  endfacet
  facet normal 0.998027 0.0627904 -0
    outer loop
      vertex 1 30 0
      vertex 1 30 2
      vertex 1.14982 27.6187 0
    endloop
  endfacet
  facet normal 0.982287 0.187381 0
    outer loop
      vertex 1.14982 27.6187 2
      vertex 1.59692 25.2749 2
      vertex 1.59692 25.2749 0
    endloop
  endfacet
  facet normal 0.982287 0.187381 -0
    outer loop
      vertex 1.14982 27.6187 0
      vertex 1.14982 27.6187 2
      vertex 1.59692 25.2749 0
    endloop
  endfacet
  facet normal 0.951057 0.309017 0
    outer loop
      vertex 1.59692 25.2749 2
      vertex 2.33425 23.0056 2
      vertex 2.33425 23.0056 0
    endloop
  endfacet
  facet normal 0.951057 0.309017 -0
    outer loop
      vertex 1.59692 25.2749 0
      vertex 1.59692 25.2749 2
      vertex 2.33425 23.0056 0
    endloop
  endfacet
  facet normal 0.904827 0.425779 0
    outer loop
      vertex 2.33425 23.0056 2
      vertex 3.35017 20.8467 2
      vertex 3.35017 20.8467 0
    endloop
  endfacet
  facet normal 0.904827 0.425779 -0
    outer loop
      vertex 2.33425 23.0056 0
      vertex 2.33425 23.0056 2
      vertex 3.35017 20.8467 0
    endloop
  endfacet
  facet normal 0.844328 0.535827 0
    outer loop
      vertex 3.35017 20.8467 2
      vertex 4.62868 18.8321 2
      vertex 4.62868 18.8321 0
    endloop
  endfacet
  facet normal 0.844328 0.535827 -0
    outer loop
      vertex 3.35017 20.8467 0
      vertex 3.35017 20.8467 2
      vertex 4.62868 18.8321 0
    endloop
  endfacet
  facet normal 0.770513 0.637424 0
    outer loop
      vertex 4.62868 18.8321 2
      vertex 6.1496 16.9936 2
      vertex 6.1496 16.9936 0
    endloop
  endfacet
  facet normal 0.770513 0.637424 -0
    outer loop
      vertex 4.62868 18.8321 0
      vertex 4.62868 18.8321 2
      vertex 6.1496 16.9936 0
    endloop
  endfacet
  facet normal 0.684547 0.728969 0
    outer loop
      vertex 6.1496 16.9936 2
      vertex 7.88894 15.3602 2
      vertex 7.88894 15.3602 0
    endloop
  endfacet
  facet normal 0.684547 0.728969 -0
    outer loop
      vertex 6.1496 16.9936 0
      vertex 6.1496 16.9936 2
      vertex 7.88894 15.3602 0
    endloop
  endfacet
  facet normal 0.587785 0.809017 0
    outer loop
      vertex 7.88894 15.3602 2
      vertex 9.81929 13.9578 2
      vertex 9.81929 13.9578 0
    endloop
  endfacet
  facet normal 0.587785 0.809017 -0
    outer loop
      vertex 7.88894 15.3602 0
      vertex 7.88894 15.3602 2
      vertex 9.81929 13.9578 0
    endloop
  endfacet
  facet normal 0.481754 0.876307 0
    outer loop
      vertex 9.81929 13.9578 2
      vertex 11.9102 12.8083 2
      vertex 11.9102 12.8083 0
    endloop
  endfacet
  facet normal 0.481754 0.876307 -0
    outer loop
      vertex 9.81929 13.9578 0
      vertex 9.81929 13.9578 2
      vertex 11.9102 12.8083 0
    endloop
  endfacet
  facet normal 0.368125 0.929777 0
    outer loop
      vertex 11.9102 12.8083 2
      vertex 14.1287 11.9299 2
      vertex 14.1287 11.9299 0
    endloop
  endfacet
  facet normal 0.368125 0.929777 -0
    outer loop
      vertex 11.9102 12.8083 0
      vertex 11.9102 12.8083 2
      vertex 14.1287 11.9299 0
    endloop
  endfacet
  facet normal 0.24869 0.968583 0
    outer loop
      vertex 14.1287 11.9299 2
      vertex 16.4398 11.3365 2
      vertex 16.4398 11.3365 0
    endloop
  endfacet
  facet normal 0.24869 0.968583 -0
    outer loop
      vertex 14.1287 11.9299 0
      vertex 14.1287 11.9299 2
      vertex 16.4398 11.3365 0
    endloop
  endfacet
  facet normal 0.125333 0.992115 0
    outer loop
      vertex 16.4398 11.3365 2
      vertex 18.807 11.0375 2
      vertex 18.807 11.0375 0
    endloop
  endfacet
  facet normal 0.125333 0.992115 -0
    outer loop
      vertex 16.4398 11.3365 0
      vertex 16.4398 11.3365 2
      vertex 18.807 11.0375 0
    endloop
  endfacet
  facet normal -0 1 0
    outer loop
      vertex 18.807 11.0375 2
      vertex 21.193 11.0375 2
      vertex 21.193 11.0375 0
    endloop
  endfacet
  facet normal 0 1 0
    outer loop
      vertex 18.807 11.0375 0
      vertex 18.807 11.0375 2
      vertex 21.193 11.0375 0
    endloop
  endfacet
  facet normal -0.125333 0.992115 0
    outer loop
      vertex 21.193 11.0375 2
      vertex 23.5602 11.3365 2
      vertex 23.5602 11.3365 0
    endloop
  endfacet
  facet normal -0.125333 0.992115 0
    outer loop
      vertex 21.193 11.0375 0
      vertex 21.193 11.0375 2
      vertex 23.5602 11.3365 0
    endloop
  endfacet
  facet normal -0.24869 0.968583 0
    outer loop
      vertex 23.5602 11.3365 2
      vertex 25.8713 11.9299 2
      vertex 25.8713 11.9299 0
    endloop
  endfacet
  facet normal -0.24869 0.968583 0
    outer loop
      vertex 23.5602 11.3365 0
      vertex 23.5602 11.3365 2
      vertex 25.8713 11.9299 0
    endloop
  endfacet
  facet normal -0.368125 0.929777 0
    outer loop
      vertex 25.8713 11.9299 2
      vertex 28.0898 12.8083 2
      vertex 28.0898 12.8083 0
    endloop
  endfacet
  facet normal -0.368125 0.929777 0
    outer loop
      vertex 25.8713 11.9299 0
      vertex 25.8713 11.9299 2
      vertex 28.0898 12.8083 0
    endloop
  endfacet
  facet normal -0.481754 0.876307 0
    outer loop
      vertex 28.0898 12.8083 2
      vertex 30.1807 13.9578 2
      vertex 30.1807 13.9578 0
    endloop
  endfacet
  facet normal -0.481754 0.876307 0
    outer loop
      vertex 28.0898 12.8083 0
      vertex 28.0898 12.8083 2
      vertex 30.1807 13.9578 0
    endloop
  endfacet
  facet normal -0.587785 0.809017 0
    outer loop
      vertex 30.1807 13.9578 2
      vertex 32.1111 15.3602 2
      vertex 32.1111 15.3602 0
    endloop
  endfacet
  facet normal -0.587785 0.809017 0
    outer loop
      vertex 30.1807 13.9578 0
      vertex 30.1807 13.9578 2
      vertex 32.1111 15.3602 0
    endloop
  endfacet
  facet normal -0.684547 0.728969 0
    outer loop
      vertex 32.1111 15.3602 2
      vertex 33.8504 16.9936 2
      vertex 33.8504 16.9936 0
    endloop
  endfacet
  facet normal -0.684547 0.728969 0
    outer loop
      vertex 32.1111 15.3602 0
      vertex 32.1111 15.3602 2
      vertex 33.8504 16.9936 0
    endloop
  endfacet
  facet normal -0.770513 0.637424 0
    outer loop
      vertex 33.8504 16.9936 2
      vertex 35.3713 18.8321 2
      vertex 35.3713 18.8321 0
    endloop
  endfacet
  facet normal -0.770513 0.637424 0
    outer loop
      vertex 33.8504 16.9936 0
      vertex 33.8504 16.9936 2
      vertex 35.3713 18.8321 0
    endloop
  endfacet
  facet normal -0.844328 0.535827 0
    outer loop
      vertex 35.3713 18.8321 2
      vertex 36.6498 20.8467 2
      vertex 36.6498 20.8467 0
    endloop
  endfacet
  facet normal -0.844328 0.535827 0
    outer loop
      vertex 35.3713 18.8321 0
      vertex 35.3713 18.8321 2
      vertex 36.6498 20.8467 0
    endloop
  endfacet
  facet normal -0.904827 0.425779 0
    outer loop
      vertex 36.6498 20.8467 2
      vertex 37.6658 23.0056 2
      vertex 37.6658 23.0056 0
    endloop
  endfacet
  facet normal -0.904827 0.425779 0
    outer loop
      vertex 36.6498 20.8467 0
      vertex 36.6498 20.8467 2
      vertex 37.6658 23.0056 0
    endloop
  endfacet
  facet normal -0.951057 0.309017 0
    outer loop
      vertex 37.6658 23.0056 2
      vertex 38.4031 25.2749 2
      vertex 38.4031 25.2749 0
    endloop
  endfacet
  facet normal -0.951057 0.309017 0
    outer loop
      vertex 37.6658 23.0056 0
      vertex 37.6658 23.0056 2
      vertex 38.4031 25.2749 0
    endloop
  endfacet
  facet normal -0.982287 0.187381 0
    outer loop
      vertex 38.4031 25.2749 2
      vertex 38.8502 27.6187 2
      vertex 38.8502 27.6187 0
    endloop
  endfacet
  facet normal -0.982287 0.187381 0
    outer loop
      vertex 38.4031 25.2749 0
      vertex 38.4031 25.2749 2
      vertex 38.8502 27.6187 0
    endloop
  endfacet
  facet normal -0.998027 0.0627904 0
    outer loop
      vertex 38.8502 27.6187 2
      vertex 39 30 2
      vertex 39 30 0
    endloop
  endfacet
  facet normal -0.998027 0.0627904 0
    outer loop
      vertex 38.8502 27.6187 0
      vertex 38.8502 27.6187 2
      vertex 39 30 0
    endloop
  endfacet
endsolid OpenSCAD_Model
