solid OpenSCAD_Model
  facet normal -1 -0 -0
    outer loop
      vertex -1.5 28 3.5
      vertex -1.5 28 0
      vertex -1.5 20 3.5
    endloop
  endfacet
  facet normal -1 0 0
    outer loop
      vertex -1.5 0 11
      vertex -1.5 11 5.5
      vertex -1.5 0 0
    endloop
  endfacet
  facet normal -1 -0 -0
    outer loop
      vertex -1.5 11 11
      vertex -1.5 11 5.5
      vertex -1.5 0 11
    endloop
  endfacet
  facet normal -1 0 -0
    outer loop
      vertex -1.5 20 3.5
      vertex -1.5 28 0
      vertex -1.5 0 0
    endloop
  endfacet
  facet normal -1 -0 -0
    outer loop
      vertex -1.5 20 5.5
      vertex -1.5 20 3.5
      vertex -1.5 11 5.5
    endloop
  endfacet
  facet normal -1 -0 0
    outer loop
      vertex -1.5 20 3.5
      vertex -1.5 0 0
      vertex -1.5 11 5.5
    endloop
  endfacet
  facet normal 0.994522 -0.104529 0
    outer loop
      vertex 29.5 0 0
      vertex 29.4672 -0.311868 11
      vertex 29.4672 -0.311868 0
    endloop
  endfacet
  facet normal 0.994522 -0.104529 0
    outer loop
      vertex 29.5 0 0
      vertex 29.5 0 11
      vertex 29.4672 -0.311868 11
    endloop
  endfacet
  facet normal -0.207911 -0.978148 0
    outer loop
      vertex -0.156793 -1.49178 0
      vertex -0.463526 -1.42659 11
      vertex -0.463526 -1.42659 0
    endloop
  endfacet
  facet normal -0.207911 -0.978148 0
    outer loop
      vertex -0.156793 -1.49178 0
      vertex -0.156793 -1.49178 11
      vertex -0.463526 -1.42659 11
    endloop
  endfacet
  facet normal 0 -1 0
    outer loop
      vertex 28.1568 -1.49178 0
      vertex -0.156793 -1.49178 11
      vertex -0.156793 -1.49178 0
    endloop
  endfacet
  facet normal 0 -1 0
    outer loop
      vertex 28.1568 -1.49178 0
      vertex 28.1568 -1.49178 11
      vertex -0.156793 -1.49178 11
    endloop
  endfacet
  facet normal 0 0 -1
    outer loop
      vertex -0.75 -1.29904 0
      vertex -1.46722 -0.311868 0
      vertex -1.5 0 0
    endloop
  endfacet
  facet normal 0 0 -1
    outer loop
      vertex 9.2 11.0918 0
      vertex 4.85 6.23205 0
      vertex 4.46803 6.40211 0
    endloop
  endfacet
  facet normal 0 -0 -1
    outer loop
      vertex -1.46722 28.3119 0
      vertex -0.75 29.299 0
      vertex -1.5 28 0
    endloop
  endfacet
  facet normal 0 -0 -1
    outer loop
      vertex -1.37032 28.6101 0
      vertex -1.0037 29.1147 0
      vertex -1.46722 28.3119 0
    endloop
  endfacet
  facet normal 0 -0 -1
    outer loop
      vertex -1.21353 28.8817 0
      vertex -1.0037 29.1147 0
      vertex -1.37032 28.6101 0
    endloop
  endfacet
  facet normal 0 -0 -1
    outer loop
      vertex -1.0037 29.1147 0
      vertex -0.75 29.299 0
      vertex -1.46722 28.3119 0
    endloop
  endfacet
  facet normal 0 -0 -1
    outer loop
      vertex -0.75 29.299 0
      vertex -0.156793 29.4918 0
      vertex -1.5 28 0
    endloop
  endfacet
  facet normal 0 -0 -1
    outer loop
      vertex -0.463526 29.4266 0
      vertex -0.156793 29.4918 0
      vertex -0.75 29.299 0
    endloop
  endfacet
  facet normal -0 -0 -1
    outer loop
      vertex 8.16353 29.4266 0
      vertex 8.45 29.299 0
      vertex 7.85679 29.4918 0
    endloop
  endfacet
  facet normal -0 -0 -1
    outer loop
      vertex 8.45 29.299 0
      vertex 9.2 28 0
      vertex 7.85679 29.4918 0
    endloop
  endfacet
  facet normal -0 -0 -1
    outer loop
      vertex 8.7037 29.1147 0
      vertex 9.16722 28.3119 0
      vertex 8.45 29.299 0
    endloop
  endfacet
  facet normal -0 -0 -1
    outer loop
      vertex 8.91353 28.8817 0
      vertex 9.07032 28.6101 0
      vertex 8.7037 29.1147 0
    endloop
  endfacet
  facet normal -0 -0 -1
    outer loop
      vertex 9.07032 28.6101 0
      vertex 9.16722 28.3119 0
      vertex 8.7037 29.1147 0
    endloop
  endfacet
  facet normal -0 -0 -1
    outer loop
      vertex 9.16722 28.3119 0
      vertex 9.2 28 0
      vertex 8.45 29.299 0
    endloop
  endfacet
  facet normal 0 0 -1
    outer loop
      vertex -1.5 0 0
      vertex 1.85 4.5 0
      vertex 1.8937 4.08418 0
    endloop
  endfacet
  facet normal 0 0 -1
    outer loop
      vertex 5.85 4.5 0
      vertex 9.2 11.0918 0
      vertex 20.85 4.5 0
    endloop
  endfacet
  facet normal 0 0 -1
    outer loop
      vertex 28.75 10.899 0
      vertex 28.1568 11.0918 0
      vertex 28.4635 11.0266 0
    endloop
  endfacet
  facet normal 0 0 -1
    outer loop
      vertex 29.5 9.6 0
      vertex 28.1568 11.0918 0
      vertex 28.75 10.899 0
    endloop
  endfacet
  facet normal -0 -0 -1
    outer loop
      vertex 29.0037 10.7147 0
      vertex 29.4672 9.91187 0
      vertex 28.75 10.899 0
    endloop
  endfacet
  facet normal -0 -0 -1
    outer loop
      vertex 29.2135 10.4817 0
      vertex 29.3703 10.2101 0
      vertex 29.0037 10.7147 0
    endloop
  endfacet
  facet normal -0 -0 -1
    outer loop
      vertex 29.3703 10.2101 0
      vertex 29.4672 9.91187 0
      vertex 29.0037 10.7147 0
    endloop
  endfacet
  facet normal -0 -0 -1
    outer loop
      vertex 29.4672 9.91187 0
      vertex 29.5 9.6 0
      vertex 28.75 10.899 0
    endloop
  endfacet
  facet normal -0 0 -1
    outer loop
      vertex 29.4672 -0.311868 0
      vertex 28.75 -1.29904 0
      vertex 29.5 0 0
    endloop
  endfacet
  facet normal -0 0 -1
    outer loop
      vertex 29.3703 -0.610105 0
      vertex 29.0037 -1.11472 0
      vertex 29.4672 -0.311868 0
    endloop
  endfacet
  facet normal -0 0 -1
    outer loop
      vertex 29.2135 -0.881678 0
      vertex 29.0037 -1.11472 0
      vertex 29.3703 -0.610105 0
    endloop
  endfacet
  facet normal -0 0 -1
    outer loop
      vertex 29.0037 -1.11472 0
      vertex 28.75 -1.29904 0
      vertex 29.4672 -0.311868 0
    endloop
  endfacet
  facet normal -0 0 -1
    outer loop
      vertex 28.75 -1.29904 0
      vertex 28.1568 -1.49178 0
      vertex 29.5 0 0
    endloop
  endfacet
  facet normal -0 0 -1
    outer loop
      vertex 28.4635 -1.42659 0
      vertex 28.1568 -1.49178 0
      vertex 28.75 -1.29904 0
    endloop
  endfacet
  facet normal 0 0 -1
    outer loop
      vertex -0.156793 -1.49178 0
      vertex -0.75 -1.29904 0
      vertex -1.5 0 0
    endloop
  endfacet
  facet normal 0 0 -1
    outer loop
      vertex -0.463526 -1.42659 0
      vertex -0.75 -1.29904 0
      vertex -0.156793 -1.49178 0
    endloop
  endfacet
  facet normal 0 0 -1
    outer loop
      vertex -0.75 -1.29904 0
      vertex -1.0037 -1.11472 0
      vertex -1.46722 -0.311868 0
    endloop
  endfacet
  facet normal 0 0 -1
    outer loop
      vertex -1.0037 -1.11472 0
      vertex -1.37032 -0.610105 0
      vertex -1.46722 -0.311868 0
    endloop
  endfacet
  facet normal 0 0 -1
    outer loop
      vertex -1.21353 -0.881678 0
      vertex -1.37032 -0.610105 0
      vertex -1.0037 -1.11472 0
    endloop
  endfacet
  facet normal 0 0 -1
    outer loop
      vertex 2.51174 3.01371 0
      vertex -0.156793 -1.49178 0
      vertex -1.5 0 0
    endloop
  endfacet
  facet normal 0 0 -1
    outer loop
      vertex -1.5 0 0
      vertex 1.8937 4.08418 0
      vertex 2.02291 3.68653 0
    endloop
  endfacet
  facet normal 0 0 -1
    outer loop
      vertex -1.5 0 0
      vertex 2.02291 3.68653 0
      vertex 2.23197 3.32443 0
    endloop
  endfacet
  facet normal 0 0 -1
    outer loop
      vertex -1.5 0 0
      vertex 2.23197 3.32443 0
      vertex 2.51174 3.01371 0
    endloop
  endfacet
  facet normal 0 0 -1
    outer loop
      vertex -0.156793 -1.49178 0
      vertex 2.51174 3.01371 0
      vertex 2.85 2.76795 0
    endloop
  endfacet
  facet normal 0 0 -1
    outer loop
      vertex -0.156793 -1.49178 0
      vertex 2.85 2.76795 0
      vertex 3.23197 2.59789 0
    endloop
  endfacet
  facet normal 0 0 -1
    outer loop
      vertex -0.156793 -1.49178 0
      vertex 3.23197 2.59789 0
      vertex 3.64094 2.51096 0
    endloop
  endfacet
  facet normal 0 0 -1
    outer loop
      vertex 5.67709 3.68653 0
      vertex 21.0229 3.68653 0
      vertex 21.232 3.32443 0
    endloop
  endfacet
  facet normal 0 -0 -1
    outer loop
      vertex 3.64094 2.51096 0
      vertex 4.05906 2.51096 0
      vertex -0.156793 -1.49178 0
    endloop
  endfacet
  facet normal 0 -0 -1
    outer loop
      vertex 4.05906 2.51096 0
      vertex 4.46803 2.59789 0
      vertex -0.156793 -1.49178 0
    endloop
  endfacet
  facet normal 0 -0 -1
    outer loop
      vertex 4.46803 2.59789 0
      vertex 4.85 2.76795 0
      vertex -0.156793 -1.49178 0
    endloop
  endfacet
  facet normal 0 0 -1
    outer loop
      vertex 5.85 4.5 0
      vertex 20.85 4.5 0
      vertex 20.8937 4.08418 0
    endloop
  endfacet
  facet normal 0 -0 -1
    outer loop
      vertex 5.18826 3.01371 0
      vertex 21.5117 3.01371 0
      vertex 4.85 2.76795 0
    endloop
  endfacet
  facet normal 0 -0 -1
    outer loop
      vertex 5.46803 3.32443 0
      vertex 21.232 3.32443 0
      vertex 5.18826 3.01371 0
    endloop
  endfacet
  facet normal 0 -0 -1
    outer loop
      vertex 5.8063 4.08418 0
      vertex 20.8937 4.08418 0
      vertex 5.67709 3.68653 0
    endloop
  endfacet
  facet normal -0 0 -1
    outer loop
      vertex 21.232 3.32443 0
      vertex 5.46803 3.32443 0
      vertex 5.67709 3.68653 0
    endloop
  endfacet
  facet normal 0 -0 -1
    outer loop
      vertex 5.85 4.5 0
      vertex 20.8937 4.08418 0
      vertex 5.8063 4.08418 0
    endloop
  endfacet
  facet normal 0 0 -1
    outer loop
      vertex 5.8063 4.91582 0
      vertex 9.2 11.0918 0
      vertex 5.85 4.5 0
    endloop
  endfacet
  facet normal 0 0 -1
    outer loop
      vertex 5.67709 5.31347 0
      vertex 9.2 11.0918 0
      vertex 5.8063 4.91582 0
    endloop
  endfacet
  facet normal 0 0 -1
    outer loop
      vertex 5.46803 5.67557 0
      vertex 9.2 11.0918 0
      vertex 5.67709 5.31347 0
    endloop
  endfacet
  facet normal 0 0 -1
    outer loop
      vertex 5.18826 5.98629 0
      vertex 9.2 11.0918 0
      vertex 5.46803 5.67557 0
    endloop
  endfacet
  facet normal 0 0 -1
    outer loop
      vertex 4.85 6.23205 0
      vertex 9.2 11.0918 0
      vertex 5.18826 5.98629 0
    endloop
  endfacet
  facet normal 0 0 -1
    outer loop
      vertex 9.2 11.0918 0
      vertex 4.46803 6.40211 0
      vertex 4.05906 6.48904 0
    endloop
  endfacet
  facet normal 0 0 -1
    outer loop
      vertex 9.2 11.0918 0
      vertex 4.05906 6.48904 0
      vertex 3.64094 6.48904 0
    endloop
  endfacet
  facet normal -0 0 -1
    outer loop
      vertex 9.2 11.0918 0
      vertex 3.64094 6.48904 0
      vertex 3.64094 22.011 0
    endloop
  endfacet
  facet normal 0 -0 -1
    outer loop
      vertex 3.23197 22.0979 0
      vertex 3.23197 6.40211 0
      vertex 2.85 6.23205 0
    endloop
  endfacet
  facet normal 0 0 -1
    outer loop
      vertex 2.51174 22.5137 0
      vertex 2.85 6.23205 0
      vertex 2.51174 5.98629 0
    endloop
  endfacet
  facet normal 0 0 -1
    outer loop
      vertex 2.23197 22.8244 0
      vertex 2.51174 5.98629 0
      vertex 2.23197 5.67557 0
    endloop
  endfacet
  facet normal 0 0 -1
    outer loop
      vertex -1.5 28 0
      vertex 2.02291 5.31347 0
      vertex -1.5 0 0
    endloop
  endfacet
  facet normal -0 0 -1
    outer loop
      vertex 2.23197 5.67557 0
      vertex 2.02291 5.31347 0
      vertex 2.02291 23.1865 0
    endloop
  endfacet
  facet normal 0 0 -1
    outer loop
      vertex 2.02291 5.31347 0
      vertex 1.8937 4.91582 0
      vertex -1.5 0 0
    endloop
  endfacet
  facet normal 0 0 -1
    outer loop
      vertex 1.8937 4.91582 0
      vertex 1.85 4.5 0
      vertex -1.5 0 0
    endloop
  endfacet
  facet normal -0 -0 -1
    outer loop
      vertex 2.02291 23.1865 0
      vertex 2.02291 5.31347 0
      vertex -1.5 28 0
    endloop
  endfacet
  facet normal -0 -0 -1
    outer loop
      vertex 1.85 24 0
      vertex 1.8937 23.5842 0
      vertex -1.5 28 0
    endloop
  endfacet
  facet normal -0 -0 -1
    outer loop
      vertex 1.8937 23.5842 0
      vertex 2.02291 23.1865 0
      vertex -1.5 28 0
    endloop
  endfacet
  facet normal 0 -0 -1
    outer loop
      vertex 9.2 28 0
      vertex 9.2 11.0918 0
      vertex 5.67709 23.1865 0
    endloop
  endfacet
  facet normal 0 0 -1
    outer loop
      vertex 2.02291 23.1865 0
      vertex 2.23197 22.8244 0
      vertex 2.23197 5.67557 0
    endloop
  endfacet
  facet normal 0 0 -1
    outer loop
      vertex 3.23197 22.0979 0
      vertex 3.64094 6.48904 0
      vertex 3.23197 6.40211 0
    endloop
  endfacet
  facet normal -0 -0 -1
    outer loop
      vertex 2.51174 22.5137 0
      vertex 2.51174 5.98629 0
      vertex 2.23197 22.8244 0
    endloop
  endfacet
  facet normal -0 -0 -1
    outer loop
      vertex 2.85 22.2679 0
      vertex 2.85 6.23205 0
      vertex 2.51174 22.5137 0
    endloop
  endfacet
  facet normal -0 0 -1
    outer loop
      vertex 3.23197 22.0979 0
      vertex 2.85 6.23205 0
      vertex 2.85 22.2679 0
    endloop
  endfacet
  facet normal -0 -0 -1
    outer loop
      vertex 3.64094 22.011 0
      vertex 3.64094 6.48904 0
      vertex 3.23197 22.0979 0
    endloop
  endfacet
  facet normal -0 -0 -1
    outer loop
      vertex 4.05906 22.011 0
      vertex 9.2 11.0918 0
      vertex 3.64094 22.011 0
    endloop
  endfacet
  facet normal 0 -0 -1
    outer loop
      vertex 4.46803 22.0979 0
      vertex 9.2 11.0918 0
      vertex 4.05906 22.011 0
    endloop
  endfacet
  facet normal 0 -0 -1
    outer loop
      vertex 4.85 22.2679 0
      vertex 9.2 11.0918 0
      vertex 4.46803 22.0979 0
    endloop
  endfacet
  facet normal 0 -0 -1
    outer loop
      vertex 5.18826 22.5137 0
      vertex 9.2 11.0918 0
      vertex 4.85 22.2679 0
    endloop
  endfacet
  facet normal 0 0 -1
    outer loop
      vertex 9.2 11.0918 0
      vertex 5.46803 22.8244 0
      vertex 5.67709 23.1865 0
    endloop
  endfacet
  facet normal 0 -0 -1
    outer loop
      vertex 5.46803 22.8244 0
      vertex 9.2 11.0918 0
      vertex 5.18826 22.5137 0
    endloop
  endfacet
  facet normal -0 0 -1
    outer loop
      vertex 9.2 28 0
      vertex 5.18826 25.4863 0
      vertex 7.85679 29.4918 0
    endloop
  endfacet
  facet normal 0 0 -1
    outer loop
      vertex 5.67709 23.1865 0
      vertex 5.8063 23.5842 0
      vertex 9.2 28 0
    endloop
  endfacet
  facet normal 0 0 -1
    outer loop
      vertex 5.8063 23.5842 0
      vertex 5.85 24 0
      vertex 9.2 28 0
    endloop
  endfacet
  facet normal 0 0 -1
    outer loop
      vertex 5.85 24 0
      vertex 5.8063 24.4158 0
      vertex 9.2 28 0
    endloop
  endfacet
  facet normal 0 0 -1
    outer loop
      vertex 5.8063 24.4158 0
      vertex 5.67709 24.8135 0
      vertex 9.2 28 0
    endloop
  endfacet
  facet normal 0 0 -1
    outer loop
      vertex 5.67709 24.8135 0
      vertex 5.46803 25.1756 0
      vertex 9.2 28 0
    endloop
  endfacet
  facet normal 0 0 -1
    outer loop
      vertex -1.5 28 0
      vertex -0.156793 29.4918 0
      vertex 2.51174 25.4863 0
    endloop
  endfacet
  facet normal 0 0 -1
    outer loop
      vertex 5.46803 25.1756 0
      vertex 5.18826 25.4863 0
      vertex 9.2 28 0
    endloop
  endfacet
  facet normal 0 0 -1
    outer loop
      vertex 3.64094 25.989 0
      vertex -0.156793 29.4918 0
      vertex 7.85679 29.4918 0
    endloop
  endfacet
  facet normal 0 0 -1
    outer loop
      vertex 4.85 25.7321 0
      vertex 7.85679 29.4918 0
      vertex 5.18826 25.4863 0
    endloop
  endfacet
  facet normal 0 0 -1
    outer loop
      vertex 4.46803 25.9021 0
      vertex 7.85679 29.4918 0
      vertex 4.85 25.7321 0
    endloop
  endfacet
  facet normal 0 0 -1
    outer loop
      vertex 4.05906 25.989 0
      vertex 7.85679 29.4918 0
      vertex 4.46803 25.9021 0
    endloop
  endfacet
  facet normal 0 0 -1
    outer loop
      vertex 3.64094 25.989 0
      vertex 7.85679 29.4918 0
      vertex 4.05906 25.989 0
    endloop
  endfacet
  facet normal -0 0 -1
    outer loop
      vertex 3.64094 25.989 0
      vertex 3.23197 25.9021 0
      vertex -0.156793 29.4918 0
    endloop
  endfacet
  facet normal -0 0 -1
    outer loop
      vertex 3.23197 25.9021 0
      vertex 2.85 25.7321 0
      vertex -0.156793 29.4918 0
    endloop
  endfacet
  facet normal -0 0 -1
    outer loop
      vertex 2.85 25.7321 0
      vertex 2.51174 25.4863 0
      vertex -0.156793 29.4918 0
    endloop
  endfacet
  facet normal -0 0 -1
    outer loop
      vertex 2.51174 25.4863 0
      vertex 2.23197 25.1756 0
      vertex -1.5 28 0
    endloop
  endfacet
  facet normal -0 0 -1
    outer loop
      vertex 2.23197 25.1756 0
      vertex 2.02291 24.8135 0
      vertex -1.5 28 0
    endloop
  endfacet
  facet normal -0 0 -1
    outer loop
      vertex 2.02291 24.8135 0
      vertex 1.8937 24.4158 0
      vertex -1.5 28 0
    endloop
  endfacet
  facet normal -0 0 -1
    outer loop
      vertex 1.8937 24.4158 0
      vertex 1.85 24 0
      vertex -1.5 28 0
    endloop
  endfacet
  facet normal 0 0 -1
    outer loop
      vertex 5.67709 3.68653 0
      vertex 20.8937 4.08418 0
      vertex 21.0229 3.68653 0
    endloop
  endfacet
  facet normal 0 -0 -1
    outer loop
      vertex 4.85 2.76795 0
      vertex 21.85 2.76795 0
      vertex -0.156793 -1.49178 0
    endloop
  endfacet
  facet normal 0 0 -1
    outer loop
      vertex 5.18826 3.01371 0
      vertex 21.232 3.32443 0
      vertex 21.5117 3.01371 0
    endloop
  endfacet
  facet normal 0 0 -1
    outer loop
      vertex 4.85 2.76795 0
      vertex 21.5117 3.01371 0
      vertex 21.85 2.76795 0
    endloop
  endfacet
  facet normal 0 0 -1
    outer loop
      vertex -0.156793 -1.49178 0
      vertex 22.232 2.59789 0
      vertex 28.1568 -1.49178 0
    endloop
  endfacet
  facet normal 0 -0 -1
    outer loop
      vertex 29.5 9.6 0
      vertex 29.5 0 0
      vertex 24.85 4.5 0
    endloop
  endfacet
  facet normal 0 -0 -1
    outer loop
      vertex 21.85 2.76795 0
      vertex 22.232 2.59789 0
      vertex -0.156793 -1.49178 0
    endloop
  endfacet
  facet normal 0 0 -1
    outer loop
      vertex 24.468 3.32443 0
      vertex 29.5 0 0
      vertex 28.1568 -1.49178 0
    endloop
  endfacet
  facet normal -0 -0 -1
    outer loop
      vertex 22.6409 2.51096 0
      vertex 28.1568 -1.49178 0
      vertex 22.232 2.59789 0
    endloop
  endfacet
  facet normal -0 -0 -1
    outer loop
      vertex 23.0591 2.51096 0
      vertex 28.1568 -1.49178 0
      vertex 22.6409 2.51096 0
    endloop
  endfacet
  facet normal 0 -0 -1
    outer loop
      vertex 23.468 2.59789 0
      vertex 28.1568 -1.49178 0
      vertex 23.0591 2.51096 0
    endloop
  endfacet
  facet normal 0 -0 -1
    outer loop
      vertex 23.85 2.76795 0
      vertex 28.1568 -1.49178 0
      vertex 23.468 2.59789 0
    endloop
  endfacet
  facet normal 0 -0 -1
    outer loop
      vertex 24.1883 3.01371 0
      vertex 28.1568 -1.49178 0
      vertex 23.85 2.76795 0
    endloop
  endfacet
  facet normal 0 0 -1
    outer loop
      vertex 29.5 0 0
      vertex 24.468 3.32443 0
      vertex 24.6771 3.68653 0
    endloop
  endfacet
  facet normal 0 -0 -1
    outer loop
      vertex 24.468 3.32443 0
      vertex 28.1568 -1.49178 0
      vertex 24.1883 3.01371 0
    endloop
  endfacet
  facet normal -0 0 -1
    outer loop
      vertex 29.5 9.6 0
      vertex 24.1883 5.98629 0
      vertex 28.1568 11.0918 0
    endloop
  endfacet
  facet normal 0 0 -1
    outer loop
      vertex 24.6771 3.68653 0
      vertex 24.8063 4.08418 0
      vertex 29.5 0 0
    endloop
  endfacet
  facet normal 0 0 -1
    outer loop
      vertex 24.8063 4.08418 0
      vertex 24.85 4.5 0
      vertex 29.5 0 0
    endloop
  endfacet
  facet normal 0 0 -1
    outer loop
      vertex 24.85 4.5 0
      vertex 24.8063 4.91582 0
      vertex 29.5 9.6 0
    endloop
  endfacet
  facet normal 0 0 -1
    outer loop
      vertex 24.8063 4.91582 0
      vertex 24.6771 5.31347 0
      vertex 29.5 9.6 0
    endloop
  endfacet
  facet normal 0 0 -1
    outer loop
      vertex 24.6771 5.31347 0
      vertex 24.468 5.67557 0
      vertex 29.5 9.6 0
    endloop
  endfacet
  facet normal 0 0 -1
    outer loop
      vertex 24.468 5.67557 0
      vertex 24.1883 5.98629 0
      vertex 29.5 9.6 0
    endloop
  endfacet
  facet normal 0 0 -1
    outer loop
      vertex 24.1883 5.98629 0
      vertex 23.85 6.23205 0
      vertex 28.1568 11.0918 0
    endloop
  endfacet
  facet normal 0 0 -1
    outer loop
      vertex 20.85 4.5 0
      vertex 9.2 11.0918 0
      vertex 20.8937 4.91582 0
    endloop
  endfacet
  facet normal 0 0 -1
    outer loop
      vertex 23.85 6.23205 0
      vertex 23.468 6.40211 0
      vertex 28.1568 11.0918 0
    endloop
  endfacet
  facet normal 0 0 -1
    outer loop
      vertex 22.232 6.40211 0
      vertex 9.2 11.0918 0
      vertex 28.1568 11.0918 0
    endloop
  endfacet
  facet normal 0 0 -1
    outer loop
      vertex 23.0591 6.48904 0
      vertex 28.1568 11.0918 0
      vertex 23.468 6.40211 0
    endloop
  endfacet
  facet normal 0 0 -1
    outer loop
      vertex 22.6409 6.48904 0
      vertex 28.1568 11.0918 0
      vertex 23.0591 6.48904 0
    endloop
  endfacet
  facet normal 0 0 -1
    outer loop
      vertex 22.232 6.40211 0
      vertex 28.1568 11.0918 0
      vertex 22.6409 6.48904 0
    endloop
  endfacet
  facet normal 0 0 -1
    outer loop
      vertex 21.85 6.23205 0
      vertex 9.2 11.0918 0
      vertex 22.232 6.40211 0
    endloop
  endfacet
  facet normal 0 0 -1
    outer loop
      vertex 21.5117 5.98629 0
      vertex 9.2 11.0918 0
      vertex 21.85 6.23205 0
    endloop
  endfacet
  facet normal 0 0 -1
    outer loop
      vertex 21.232 5.67557 0
      vertex 9.2 11.0918 0
      vertex 21.5117 5.98629 0
    endloop
  endfacet
  facet normal 0 0 -1
    outer loop
      vertex 21.0229 5.31347 0
      vertex 9.2 11.0918 0
      vertex 21.232 5.67557 0
    endloop
  endfacet
  facet normal 0 0 -1
    outer loop
      vertex 20.8937 4.91582 0
      vertex 9.2 11.0918 0
      vertex 21.0229 5.31347 0
    endloop
  endfacet
  facet normal 1 0 0
    outer loop
      vertex 29.5 9.6 0
      vertex 29.5 0 11
      vertex 29.5 0 0
    endloop
  endfacet
  facet normal 1 0 -0
    outer loop
      vertex 29.5 9.6 0
      vertex 29.5 9.6 11
      vertex 29.5 0 11
    endloop
  endfacet
  facet normal 0.207911 -0.978148 0
    outer loop
      vertex 28.4635 -1.42659 0
      vertex 28.1568 -1.49178 11
      vertex 28.1568 -1.49178 0
    endloop
  endfacet
  facet normal 0.207911 -0.978148 0
    outer loop
      vertex 28.4635 -1.42659 0
      vertex 28.4635 -1.42659 11
      vertex 28.1568 -1.49178 11
    endloop
  endfacet
  facet normal -0.994522 -0.104529 0
    outer loop
      vertex -1.46722 -0.311868 11
      vertex -1.5 0 11
      vertex -1.5 0 0
    endloop
  endfacet
  facet normal -0.994522 -0.104529 0
    outer loop
      vertex -1.46722 -0.311868 0
      vertex -1.46722 -0.311868 11
      vertex -1.5 0 0
    endloop
  endfacet
  facet normal 0.866026 0.5 0
    outer loop
      vertex 29.3703 10.2101 11
      vertex 29.3703 10.2101 0
      vertex 29.2135 10.4817 0
    endloop
  endfacet
  facet normal 0.866026 0.5 0
    outer loop
      vertex 29.2135 10.4817 11
      vertex 29.3703 10.2101 11
      vertex 29.2135 10.4817 0
    endloop
  endfacet
  facet normal -0.866026 -0.5 0
    outer loop
      vertex -1.21353 -0.881678 11
      vertex -1.37032 -0.610105 11
      vertex -1.37032 -0.610105 0
    endloop
  endfacet
  facet normal -0.866026 -0.5 0
    outer loop
      vertex -1.21353 -0.881678 0
      vertex -1.21353 -0.881678 11
      vertex -1.37032 -0.610105 0
    endloop
  endfacet
  facet normal -0.406739 -0.913545 0
    outer loop
      vertex -0.463526 -1.42659 0
      vertex -0.75 -1.29904 11
      vertex -0.75 -1.29904 0
    endloop
  endfacet
  facet normal -0.406739 -0.913545 0
    outer loop
      vertex -0.463526 -1.42659 0
      vertex -0.463526 -1.42659 11
      vertex -0.75 -1.29904 11
    endloop
  endfacet
  facet normal -0.743144 -0.669131 0
    outer loop
      vertex -1.0037 -1.11472 11
      vertex -1.21353 -0.881678 11
      vertex -1.21353 -0.881678 0
    endloop
  endfacet
  facet normal -0.743144 -0.669131 0
    outer loop
      vertex -1.0037 -1.11472 0
      vertex -1.0037 -1.11472 11
      vertex -1.21353 -0.881678 0
    endloop
  endfacet
  facet normal 0.866026 -0.5 0
    outer loop
      vertex 29.3703 -0.610105 0
      vertex 29.2135 -0.881678 11
      vertex 29.2135 -0.881678 0
    endloop
  endfacet
  facet normal 0.866026 -0.5 0
    outer loop
      vertex 29.3703 -0.610105 0
      vertex 29.3703 -0.610105 11
      vertex 29.2135 -0.881678 11
    endloop
  endfacet
  facet normal 0.743144 -0.669131 0
    outer loop
      vertex 29.2135 -0.881678 0
      vertex 29.0037 -1.11472 11
      vertex 29.0037 -1.11472 0
    endloop
  endfacet
  facet normal 0.743144 -0.669131 0
    outer loop
      vertex 29.2135 -0.881678 0
      vertex 29.2135 -0.881678 11
      vertex 29.0037 -1.11472 11
    endloop
  endfacet
  facet normal 0.743144 0.669131 0
    outer loop
      vertex 29.2135 10.4817 11
      vertex 29.2135 10.4817 0
      vertex 29.0037 10.7147 0
    endloop
  endfacet
  facet normal 0.743144 0.669131 0
    outer loop
      vertex 29.0037 10.7147 11
      vertex 29.2135 10.4817 11
      vertex 29.0037 10.7147 0
    endloop
  endfacet
  facet normal 0 1 0
    outer loop
      vertex 9.2 11.0918 5.5
      vertex 28.1568 11.0918 0
      vertex 9.2 11.0918 0
    endloop
  endfacet
  facet normal -0 1 0
    outer loop
      vertex 9.2 11.0918 5.5
      vertex 28.1568 11.0918 5.5
      vertex 28.1568 11.0918 0
    endloop
  endfacet
  facet normal 0.207911 0.978148 0
    outer loop
      vertex 28.1568 11.0918 5.5
      vertex 28.4635 11.0266 0
      vertex 28.1568 11.0918 0
    endloop
  endfacet
  facet normal 0.207911 0.978148 0
    outer loop
      vertex 28.1568 11.0918 5.5
      vertex 28.4635 11.0266 5.5
      vertex 28.4635 11.0266 0
    endloop
  endfacet
  facet normal -0.951057 -0.309016 0
    outer loop
      vertex -1.37032 -0.610105 11
      vertex -1.46722 -0.311868 11
      vertex -1.46722 -0.311868 0
    endloop
  endfacet
  facet normal -0.951057 -0.309016 0
    outer loop
      vertex -1.37032 -0.610105 0
      vertex -1.37032 -0.610105 11
      vertex -1.46722 -0.311868 0
    endloop
  endfacet
  facet normal -0.587785 -0.809017 0
    outer loop
      vertex -0.75 -1.29904 0
      vertex -1.0037 -1.11472 11
      vertex -1.0037 -1.11472 0
    endloop
  endfacet
  facet normal -0.587785 -0.809017 0
    outer loop
      vertex -0.75 -1.29904 0
      vertex -0.75 -1.29904 11
      vertex -1.0037 -1.11472 11
    endloop
  endfacet
  facet normal 0.951057 -0.309016 0
    outer loop
      vertex 29.4672 -0.311868 0
      vertex 29.3703 -0.610105 11
      vertex 29.3703 -0.610105 0
    endloop
  endfacet
  facet normal 0.951057 -0.309016 0
    outer loop
      vertex 29.4672 -0.311868 0
      vertex 29.4672 -0.311868 11
      vertex 29.3703 -0.610105 11
    endloop
  endfacet
  facet normal 0.587785 -0.809017 0
    outer loop
      vertex 29.0037 -1.11472 0
      vertex 28.75 -1.29904 11
      vertex 28.75 -1.29904 0
    endloop
  endfacet
  facet normal 0.587785 -0.809017 0
    outer loop
      vertex 29.0037 -1.11472 0
      vertex 29.0037 -1.11472 11
      vertex 28.75 -1.29904 11
    endloop
  endfacet
  facet normal 0.406739 0.913545 1.55899e-17
    outer loop
      vertex 28.5232 11 5.5
      vertex 28.75 10.899 0
      vertex 28.4635 11.0266 0
    endloop
  endfacet
  facet normal 0.406739 0.913545 0
    outer loop
      vertex 28.4635 11.0266 5.5
      vertex 28.5232 11 5.5
      vertex 28.4635 11.0266 0
    endloop
  endfacet
  facet normal 0.406739 0.913545 0
    outer loop
      vertex 28.75 10.899 11
      vertex 28.75 10.899 0
      vertex 28.5232 11 5.5
    endloop
  endfacet
  facet normal 0.406739 0.913545 0
    outer loop
      vertex 28.5232 11 11
      vertex 28.75 10.899 11
      vertex 28.5232 11 5.5
    endloop
  endfacet
  facet normal 0.951057 0.309016 0
    outer loop
      vertex 29.4672 9.91187 11
      vertex 29.4672 9.91187 0
      vertex 29.3703 10.2101 0
    endloop
  endfacet
  facet normal 0.951057 0.309016 0
    outer loop
      vertex 29.3703 10.2101 11
      vertex 29.4672 9.91187 11
      vertex 29.3703 10.2101 0
    endloop
  endfacet
  facet normal 0.994522 0.104529 0
    outer loop
      vertex 29.5 9.6 11
      vertex 29.5 9.6 0
      vertex 29.4672 9.91187 0
    endloop
  endfacet
  facet normal 0.994522 0.104529 0
    outer loop
      vertex 29.4672 9.91187 11
      vertex 29.5 9.6 11
      vertex 29.4672 9.91187 0
    endloop
  endfacet
  facet normal 0.587785 0.809017 0
    outer loop
      vertex 28.75 10.899 11
      vertex 29.0037 10.7147 0
      vertex 28.75 10.899 0
    endloop
  endfacet
  facet normal 0.587785 0.809017 0
    outer loop
      vertex 28.75 10.899 11
      vertex 29.0037 10.7147 11
      vertex 29.0037 10.7147 0
    endloop
  endfacet
  facet normal 0.406739 -0.913545 0
    outer loop
      vertex 28.75 -1.29904 0
      vertex 28.4635 -1.42659 11
      vertex 28.4635 -1.42659 0
    endloop
  endfacet
  facet normal 0.406739 -0.913545 0
    outer loop
      vertex 28.75 -1.29904 0
      vertex 28.75 -1.29904 11
      vertex 28.4635 -1.42659 11
    endloop
  endfacet
  facet normal 0 0 1
    outer loop
      vertex 1.8937 4.91582 11
      vertex -1.5 11 11
      vertex -1.5 0 11
    endloop
  endfacet
  facet normal -0 -0 1
    outer loop
      vertex -1.46722 -0.311868 11
      vertex -0.75 -1.29904 11
      vertex -1.5 0 11
    endloop
  endfacet
  facet normal -0 -0 1
    outer loop
      vertex -1.37032 -0.610105 11
      vertex -1.0037 -1.11472 11
      vertex -1.46722 -0.311868 11
    endloop
  endfacet
  facet normal -0 -0 1
    outer loop
      vertex -1.21353 -0.881678 11
      vertex -1.0037 -1.11472 11
      vertex -1.37032 -0.610105 11
    endloop
  endfacet
  facet normal -0 -0 1
    outer loop
      vertex -1.0037 -1.11472 11
      vertex -0.75 -1.29904 11
      vertex -1.46722 -0.311868 11
    endloop
  endfacet
  facet normal -0 -0 1
    outer loop
      vertex -0.75 -1.29904 11
      vertex -0.156793 -1.49178 11
      vertex -1.5 0 11
    endloop
  endfacet
  facet normal -0 -0 1
    outer loop
      vertex -0.463526 -1.42659 11
      vertex -0.156793 -1.49178 11
      vertex -0.75 -1.29904 11
    endloop
  endfacet
  facet normal 0 -0 1
    outer loop
      vertex 28.4635 -1.42659 11
      vertex 28.75 -1.29904 11
      vertex 28.1568 -1.49178 11
    endloop
  endfacet
  facet normal 0 -0 1
    outer loop
      vertex 28.75 -1.29904 11
      vertex 29.5 0 11
      vertex 28.1568 -1.49178 11
    endloop
  endfacet
  facet normal 0 -0 1
    outer loop
      vertex 29.0037 -1.11472 11
      vertex 29.4672 -0.311868 11
      vertex 28.75 -1.29904 11
    endloop
  endfacet
  facet normal 0 -0 1
    outer loop
      vertex 29.2135 -0.881678 11
      vertex 29.3703 -0.610105 11
      vertex 29.0037 -1.11472 11
    endloop
  endfacet
  facet normal 0 -0 1
    outer loop
      vertex 29.3703 -0.610105 11
      vertex 29.4672 -0.311868 11
      vertex 29.0037 -1.11472 11
    endloop
  endfacet
  facet normal 0 -0 1
    outer loop
      vertex 29.4672 -0.311868 11
      vertex 29.5 0 11
      vertex 28.75 -1.29904 11
    endloop
  endfacet
  facet normal 0 0 1
    outer loop
      vertex 29.4672 9.91187 11
      vertex 28.5232 11 11
      vertex 29.5 9.6 11
    endloop
  endfacet
  facet normal 0 0 1
    outer loop
      vertex 29.3703 10.2101 11
      vertex 28.5232 11 11
      vertex 29.4672 9.91187 11
    endloop
  endfacet
  facet normal 0 0 1
    outer loop
      vertex 29.2135 10.4817 11
      vertex 28.5232 11 11
      vertex 29.3703 10.2101 11
    endloop
  endfacet
  facet normal 0 0 1
    outer loop
      vertex 29.0037 10.7147 11
      vertex 28.5232 11 11
      vertex 29.2135 10.4817 11
    endloop
  endfacet
  facet normal 0 0 1
    outer loop
      vertex 28.75 10.899 11
      vertex 28.5232 11 11
      vertex 29.0037 10.7147 11
    endloop
  endfacet
  facet normal 0 0 1
    outer loop
      vertex 1.8937 4.08418 11
      vertex 1.85 4.5 11
      vertex -1.5 0 11
    endloop
  endfacet
  facet normal 0 -0 1
    outer loop
      vertex 1.85 4.5 11
      vertex 1.8937 4.91582 11
      vertex -1.5 0 11
    endloop
  endfacet
  facet normal 0 -0 1
    outer loop
      vertex 1.8937 4.91582 11
      vertex 2.02291 5.31347 11
      vertex -1.5 11 11
    endloop
  endfacet
  facet normal 0 -0 1
    outer loop
      vertex 2.02291 5.31347 11
      vertex 2.23197 5.67557 11
      vertex -1.5 11 11
    endloop
  endfacet
  facet normal 0 -0 1
    outer loop
      vertex 2.23197 5.67557 11
      vertex 2.51174 5.98629 11
      vertex -1.5 11 11
    endloop
  endfacet
  facet normal 0 -0 1
    outer loop
      vertex 2.51174 5.98629 11
      vertex 2.85 6.23205 11
      vertex -1.5 11 11
    endloop
  endfacet
  facet normal 0 -0 1
    outer loop
      vertex 2.85 6.23205 11
      vertex 3.23197 6.40211 11
      vertex -1.5 11 11
    endloop
  endfacet
  facet normal 0 -0 1
    outer loop
      vertex 3.23197 6.40211 11
      vertex 3.64094 6.48904 11
      vertex -1.5 11 11
    endloop
  endfacet
  facet normal 0 0 1
    outer loop
      vertex 29.5 9.6 11
      vertex 28.5232 11 11
      vertex 24.1883 5.98629 11
    endloop
  endfacet
  facet normal 0 0 1
    outer loop
      vertex 4.05906 6.48904 11
      vertex -1.5 11 11
      vertex 3.64094 6.48904 11
    endloop
  endfacet
  facet normal 0 0 1
    outer loop
      vertex -1.5 11 11
      vertex 4.46803 6.40211 11
      vertex 4.85 6.23205 11
    endloop
  endfacet
  facet normal 0 0 1
    outer loop
      vertex 4.46803 6.40211 11
      vertex -1.5 11 11
      vertex 4.05906 6.48904 11
    endloop
  endfacet
  facet normal 0 0 1
    outer loop
      vertex -1.5 11 11
      vertex 4.85 6.23205 11
      vertex 21.85 6.23205 11
    endloop
  endfacet
  facet normal -0 0 1
    outer loop
      vertex 4.85 6.23205 11
      vertex 5.18826 5.98629 11
      vertex 21.85 6.23205 11
    endloop
  endfacet
  facet normal -0 0 1
    outer loop
      vertex 5.18826 5.98629 11
      vertex 5.46803 5.67557 11
      vertex 21.5117 5.98629 11
    endloop
  endfacet
  facet normal 0 0 1
    outer loop
      vertex 5.46803 5.67557 11
      vertex 5.67709 5.31347 11
      vertex 21.0229 5.31347 11
    endloop
  endfacet
  facet normal 0 0 1
    outer loop
      vertex 5.67709 5.31347 11
      vertex 5.8063 4.91582 11
      vertex 20.8937 4.91582 11
    endloop
  endfacet
  facet normal 0 0 1
    outer loop
      vertex 20.8937 4.08418 11
      vertex 5.85 4.5 11
      vertex 5.8063 4.08418 11
    endloop
  endfacet
  facet normal 0 0 1
    outer loop
      vertex 20.8937 4.08418 11
      vertex 5.8063 4.08418 11
      vertex 5.67709 3.68653 11
    endloop
  endfacet
  facet normal 0 0 1
    outer loop
      vertex 20.8937 4.08418 11
      vertex 5.67709 3.68653 11
      vertex 21.0229 3.68653 11
    endloop
  endfacet
  facet normal 0 0 1
    outer loop
      vertex 5.67709 3.68653 11
      vertex 5.46803 3.32443 11
      vertex 21.232 3.32443 11
    endloop
  endfacet
  facet normal -0 0 1
    outer loop
      vertex 5.18826 3.01371 11
      vertex 4.85 2.76795 11
      vertex 21.5117 3.01371 11
    endloop
  endfacet
  facet normal 0 0 1
    outer loop
      vertex 4.85 2.76795 11
      vertex 4.46803 2.59789 11
      vertex -0.156793 -1.49178 11
    endloop
  endfacet
  facet normal 0 0 1
    outer loop
      vertex 4.46803 2.59789 11
      vertex 4.05906 2.51096 11
      vertex -0.156793 -1.49178 11
    endloop
  endfacet
  facet normal 0 0 1
    outer loop
      vertex 4.05906 2.51096 11
      vertex 3.64094 2.51096 11
      vertex -0.156793 -1.49178 11
    endloop
  endfacet
  facet normal 0 0 1
    outer loop
      vertex 2.51174 3.01371 11
      vertex -1.5 0 11
      vertex -0.156793 -1.49178 11
    endloop
  endfacet
  facet normal 0 0 1
    outer loop
      vertex 3.64094 2.51096 11
      vertex 3.23197 2.59789 11
      vertex -0.156793 -1.49178 11
    endloop
  endfacet
  facet normal 0 0 1
    outer loop
      vertex 3.23197 2.59789 11
      vertex 2.85 2.76795 11
      vertex -0.156793 -1.49178 11
    endloop
  endfacet
  facet normal 0 0 1
    outer loop
      vertex 2.85 2.76795 11
      vertex 2.51174 3.01371 11
      vertex -0.156793 -1.49178 11
    endloop
  endfacet
  facet normal 0 0 1
    outer loop
      vertex 2.51174 3.01371 11
      vertex 2.23197 3.32443 11
      vertex -1.5 0 11
    endloop
  endfacet
  facet normal 0 0 1
    outer loop
      vertex 2.23197 3.32443 11
      vertex 2.02291 3.68653 11
      vertex -1.5 0 11
    endloop
  endfacet
  facet normal 0 0 1
    outer loop
      vertex 2.02291 3.68653 11
      vertex 1.8937 4.08418 11
      vertex -1.5 0 11
    endloop
  endfacet
  facet normal 0 0 1
    outer loop
      vertex 20.85 4.5 11
      vertex 5.8063 4.91582 11
      vertex 5.85 4.5 11
    endloop
  endfacet
  facet normal 0 0 1
    outer loop
      vertex 20.85 4.5 11
      vertex 5.85 4.5 11
      vertex 20.8937 4.08418 11
    endloop
  endfacet
  facet normal 0 0 1
    outer loop
      vertex 20.8937 4.91582 11
      vertex 5.8063 4.91582 11
      vertex 20.85 4.5 11
    endloop
  endfacet
  facet normal 0 0 1
    outer loop
      vertex 21.0229 5.31347 11
      vertex 5.67709 5.31347 11
      vertex 20.8937 4.91582 11
    endloop
  endfacet
  facet normal 0 0 1
    outer loop
      vertex 21.232 5.67557 11
      vertex 5.46803 5.67557 11
      vertex 21.0229 5.31347 11
    endloop
  endfacet
  facet normal 0 0 1
    outer loop
      vertex 21.5117 5.98629 11
      vertex 5.46803 5.67557 11
      vertex 21.232 5.67557 11
    endloop
  endfacet
  facet normal 0 -0 1
    outer loop
      vertex 21.5117 5.98629 11
      vertex 21.85 6.23205 11
      vertex 5.18826 5.98629 11
    endloop
  endfacet
  facet normal 0 -0 1
    outer loop
      vertex 21.85 6.23205 11
      vertex 28.5232 11 11
      vertex -1.5 11 11
    endloop
  endfacet
  facet normal 0 0 1
    outer loop
      vertex 28.5232 11 11
      vertex 22.232 6.40211 11
      vertex 22.6409 6.48904 11
    endloop
  endfacet
  facet normal 0 -0 1
    outer loop
      vertex 22.232 6.40211 11
      vertex 28.5232 11 11
      vertex 21.85 6.23205 11
    endloop
  endfacet
  facet normal 0 0 1
    outer loop
      vertex 28.5232 11 11
      vertex 22.6409 6.48904 11
      vertex 23.0591 6.48904 11
    endloop
  endfacet
  facet normal 0 0 1
    outer loop
      vertex 28.5232 11 11
      vertex 23.0591 6.48904 11
      vertex 23.468 6.40211 11
    endloop
  endfacet
  facet normal 0 0 1
    outer loop
      vertex 28.5232 11 11
      vertex 23.468 6.40211 11
      vertex 23.85 6.23205 11
    endloop
  endfacet
  facet normal 0 0 1
    outer loop
      vertex 28.5232 11 11
      vertex 23.85 6.23205 11
      vertex 24.1883 5.98629 11
    endloop
  endfacet
  facet normal 0 0 1
    outer loop
      vertex 29.5 9.6 11
      vertex 24.1883 5.98629 11
      vertex 24.468 5.67557 11
    endloop
  endfacet
  facet normal 0 0 1
    outer loop
      vertex 29.5 9.6 11
      vertex 24.85 4.5 11
      vertex 29.5 0 11
    endloop
  endfacet
  facet normal 0 0 1
    outer loop
      vertex -0.156793 -1.49178 11
      vertex 28.1568 -1.49178 11
      vertex 22.232 2.59789 11
    endloop
  endfacet
  facet normal -0 0 1
    outer loop
      vertex 24.468 5.67557 11
      vertex 24.6771 5.31347 11
      vertex 29.5 9.6 11
    endloop
  endfacet
  facet normal 0 0 1
    outer loop
      vertex 24.468 3.32443 11
      vertex 28.1568 -1.49178 11
      vertex 29.5 0 11
    endloop
  endfacet
  facet normal 0 -0 1
    outer loop
      vertex 24.8063 4.91582 11
      vertex 29.5 9.6 11
      vertex 24.6771 5.31347 11
    endloop
  endfacet
  facet normal 0 -0 1
    outer loop
      vertex 24.85 4.5 11
      vertex 29.5 9.6 11
      vertex 24.8063 4.91582 11
    endloop
  endfacet
  facet normal -0 0 1
    outer loop
      vertex 24.8063 4.08418 11
      vertex 29.5 0 11
      vertex 24.85 4.5 11
    endloop
  endfacet
  facet normal -0 0 1
    outer loop
      vertex 24.6771 3.68653 11
      vertex 29.5 0 11
      vertex 24.8063 4.08418 11
    endloop
  endfacet
  facet normal -0 0 1
    outer loop
      vertex 24.468 3.32443 11
      vertex 29.5 0 11
      vertex 24.6771 3.68653 11
    endloop
  endfacet
  facet normal -0 0 1
    outer loop
      vertex 24.1883 3.01371 11
      vertex 28.1568 -1.49178 11
      vertex 24.468 3.32443 11
    endloop
  endfacet
  facet normal -0 0 1
    outer loop
      vertex 23.85 2.76795 11
      vertex 28.1568 -1.49178 11
      vertex 24.1883 3.01371 11
    endloop
  endfacet
  facet normal -0 0 1
    outer loop
      vertex 23.468 2.59789 11
      vertex 28.1568 -1.49178 11
      vertex 23.85 2.76795 11
    endloop
  endfacet
  facet normal -0 0 1
    outer loop
      vertex 23.0591 2.51096 11
      vertex 28.1568 -1.49178 11
      vertex 23.468 2.59789 11
    endloop
  endfacet
  facet normal 0 0 1
    outer loop
      vertex 23.0591 2.51096 11
      vertex 22.6409 2.51096 11
      vertex 28.1568 -1.49178 11
    endloop
  endfacet
  facet normal 0 0 1
    outer loop
      vertex 21.85 2.76795 11
      vertex 4.85 2.76795 11
      vertex -0.156793 -1.49178 11
    endloop
  endfacet
  facet normal 0 0 1
    outer loop
      vertex 22.6409 2.51096 11
      vertex 22.232 2.59789 11
      vertex 28.1568 -1.49178 11
    endloop
  endfacet
  facet normal 0 0 1
    outer loop
      vertex 21.232 3.32443 11
      vertex 5.46803 3.32443 11
      vertex 5.18826 3.01371 11
    endloop
  endfacet
  facet normal 0 0 1
    outer loop
      vertex 21.85 2.76795 11
      vertex -0.156793 -1.49178 11
      vertex 22.232 2.59789 11
    endloop
  endfacet
  facet normal 0 0 1
    outer loop
      vertex 21.5117 3.01371 11
      vertex 4.85 2.76795 11
      vertex 21.85 2.76795 11
    endloop
  endfacet
  facet normal 0 0 1
    outer loop
      vertex 21.232 3.32443 11
      vertex 5.18826 3.01371 11
      vertex 21.5117 3.01371 11
    endloop
  endfacet
  facet normal 0 0 1
    outer loop
      vertex 21.0229 3.68653 11
      vertex 5.67709 3.68653 11
      vertex 21.232 3.32443 11
    endloop
  endfacet
  facet normal 1 0 0
    outer loop
      vertex 9.2 20 5.5
      vertex 9.2 11.0918 5.5
      vertex 9.2 20 3.5
    endloop
  endfacet
  facet normal 1 0 0
    outer loop
      vertex 9.2 28 0
      vertex 9.2 20 3.5
      vertex 9.2 11.0918 0
    endloop
  endfacet
  facet normal 1 0 0
    outer loop
      vertex 9.2 28 3.5
      vertex 9.2 20 3.5
      vertex 9.2 28 0
    endloop
  endfacet
  facet normal 1 0 0
    outer loop
      vertex 9.2 20 3.5
      vertex 9.2 11.0918 5.5
      vertex 9.2 11.0918 0
    endloop
  endfacet
  facet normal 0.866026 0.5 0
    outer loop
      vertex 9.07032 28.6101 3.5
      vertex 9.07032 28.6101 0
      vertex 8.91353 28.8817 0
    endloop
  endfacet
  facet normal 0.866026 0.5 0
    outer loop
      vertex 8.91353 28.8817 3.5
      vertex 9.07032 28.6101 3.5
      vertex 8.91353 28.8817 0
    endloop
  endfacet
  facet normal 0 1 0
    outer loop
      vertex -0.156793 29.4918 3.5
      vertex 7.85679 29.4918 0
      vertex -0.156793 29.4918 0
    endloop
  endfacet
  facet normal -0 1 0
    outer loop
      vertex -0.156793 29.4918 3.5
      vertex 7.85679 29.4918 3.5
      vertex 7.85679 29.4918 0
    endloop
  endfacet
  facet normal -0.951057 0.309016 0
    outer loop
      vertex -1.46722 28.3119 3.5
      vertex -1.37032 28.6101 0
      vertex -1.46722 28.3119 0
    endloop
  endfacet
  facet normal -0.951057 0.309016 0
    outer loop
      vertex -1.46722 28.3119 3.5
      vertex -1.37032 28.6101 3.5
      vertex -1.37032 28.6101 0
    endloop
  endfacet
  facet normal 0.994522 0.104529 0
    outer loop
      vertex 9.2 28 3.5
      vertex 9.2 28 0
      vertex 9.16722 28.3119 0
    endloop
  endfacet
  facet normal 0.994522 0.104529 0
    outer loop
      vertex 9.16722 28.3119 3.5
      vertex 9.2 28 3.5
      vertex 9.16722 28.3119 0
    endloop
  endfacet
  facet normal 0.951057 0.309016 0
    outer loop
      vertex 9.16722 28.3119 3.5
      vertex 9.16722 28.3119 0
      vertex 9.07032 28.6101 0
    endloop
  endfacet
  facet normal 0.951057 0.309016 0
    outer loop
      vertex 9.07032 28.6101 3.5
      vertex 9.16722 28.3119 3.5
      vertex 9.07032 28.6101 0
    endloop
  endfacet
  facet normal -0.866026 0.5 0
    outer loop
      vertex -1.37032 28.6101 3.5
      vertex -1.21353 28.8817 0
      vertex -1.37032 28.6101 0
    endloop
  endfacet
  facet normal -0.866026 0.5 0
    outer loop
      vertex -1.37032 28.6101 3.5
      vertex -1.21353 28.8817 3.5
      vertex -1.21353 28.8817 0
    endloop
  endfacet
  facet normal 0.743144 0.669131 0
    outer loop
      vertex 8.91353 28.8817 3.5
      vertex 8.91353 28.8817 0
      vertex 8.7037 29.1147 0
    endloop
  endfacet
  facet normal 0.743144 0.669131 0
    outer loop
      vertex 8.7037 29.1147 3.5
      vertex 8.91353 28.8817 3.5
      vertex 8.7037 29.1147 0
    endloop
  endfacet
  facet normal -0.994522 0.104529 0
    outer loop
      vertex -1.5 28 3.5
      vertex -1.46722 28.3119 0
      vertex -1.5 28 0
    endloop
  endfacet
  facet normal -0.994522 0.104529 0
    outer loop
      vertex -1.5 28 3.5
      vertex -1.46722 28.3119 3.5
      vertex -1.46722 28.3119 0
    endloop
  endfacet
  facet normal 0.406739 0.913545 0
    outer loop
      vertex 8.16353 29.4266 3.5
      vertex 8.45 29.299 0
      vertex 8.16353 29.4266 0
    endloop
  endfacet
  facet normal 0.406739 0.913545 0
    outer loop
      vertex 8.16353 29.4266 3.5
      vertex 8.45 29.299 3.5
      vertex 8.45 29.299 0
    endloop
  endfacet
  facet normal 0.587785 0.809017 0
    outer loop
      vertex 8.45 29.299 3.5
      vertex 8.7037 29.1147 0
      vertex 8.45 29.299 0
    endloop
  endfacet
  facet normal 0.587785 0.809017 0
    outer loop
      vertex 8.45 29.299 3.5
      vertex 8.7037 29.1147 3.5
      vertex 8.7037 29.1147 0
    endloop
  endfacet
  facet normal -0.207911 0.978148 0
    outer loop
      vertex -0.463526 29.4266 3.5
      vertex -0.156793 29.4918 0
      vertex -0.463526 29.4266 0
    endloop
  endfacet
  facet normal -0.207911 0.978148 0
    outer loop
      vertex -0.463526 29.4266 3.5
      vertex -0.156793 29.4918 3.5
      vertex -0.156793 29.4918 0
    endloop
  endfacet
  facet normal -0.743144 0.669131 0
    outer loop
      vertex -1.21353 28.8817 3.5
      vertex -1.0037 29.1147 0
      vertex -1.21353 28.8817 0
    endloop
  endfacet
  facet normal -0.743144 0.669131 0
    outer loop
      vertex -1.21353 28.8817 3.5
      vertex -1.0037 29.1147 3.5
      vertex -1.0037 29.1147 0
    endloop
  endfacet
  facet normal -0.587785 0.809017 0
    outer loop
      vertex -1.0037 29.1147 3.5
      vertex -0.75 29.299 0
      vertex -1.0037 29.1147 0
    endloop
  endfacet
  facet normal -0.587785 0.809017 0
    outer loop
      vertex -1.0037 29.1147 3.5
      vertex -0.75 29.299 3.5
      vertex -0.75 29.299 0
    endloop
  endfacet
  facet normal 0.207911 0.978148 0
    outer loop
      vertex 7.85679 29.4918 3.5
      vertex 8.16353 29.4266 0
      vertex 7.85679 29.4918 0
    endloop
  endfacet
  facet normal 0.207911 0.978148 0
    outer loop
      vertex 7.85679 29.4918 3.5
      vertex 8.16353 29.4266 3.5
      vertex 8.16353 29.4266 0
    endloop
  endfacet
  facet normal -0.406739 0.913545 0
    outer loop
      vertex -0.75 29.299 3.5
      vertex -0.463526 29.4266 0
      vertex -0.75 29.299 0
    endloop
  endfacet
  facet normal -0.406739 0.913545 0
    outer loop
      vertex -0.75 29.299 3.5
      vertex -0.463526 29.4266 3.5
      vertex -0.463526 29.4266 0
    endloop
  endfacet
  facet normal 0.994522 0.104528 -0
    outer loop
      vertex 1.85 24 0
      vertex 1.85 24 3.5
      vertex 1.8937 23.5842 3.5
    endloop
  endfacet
  facet normal 0.994522 0.104528 -0
    outer loop
      vertex 1.8937 23.5842 0
      vertex 1.85 24 0
      vertex 1.8937 23.5842 3.5
    endloop
  endfacet
  facet normal 0.743145 -0.669131 0
    outer loop
      vertex 2.23197 25.1756 3.5
      vertex 2.51174 25.4863 0
      vertex 2.51174 25.4863 3.5
    endloop
  endfacet
  facet normal 0.743145 -0.669131 0
    outer loop
      vertex 2.23197 25.1756 3.5
      vertex 2.23197 25.1756 0
      vertex 2.51174 25.4863 0
    endloop
  endfacet
  facet normal -0.406737 0.913545 0
    outer loop
      vertex 4.85 22.2679 0
      vertex 4.46803 22.0979 3.5
      vertex 4.85 22.2679 3.5
    endloop
  endfacet
  facet normal -0.406737 0.913545 0
    outer loop
      vertex 4.85 22.2679 0
      vertex 4.46803 22.0979 0
      vertex 4.46803 22.0979 3.5
    endloop
  endfacet
  facet normal 0.994522 -0.104528 0
    outer loop
      vertex 1.85 24 3.5
      vertex 1.8937 24.4158 0
      vertex 1.8937 24.4158 3.5
    endloop
  endfacet
  facet normal 0.994522 -0.104528 0
    outer loop
      vertex 1.85 24 3.5
      vertex 1.85 24 0
      vertex 1.8937 24.4158 0
    endloop
  endfacet
  facet normal -0.743145 0.669131 0
    outer loop
      vertex 5.46803 22.8244 0
      vertex 5.18826 22.5137 3.5
      vertex 5.46803 22.8244 3.5
    endloop
  endfacet
  facet normal -0.743145 0.669131 0
    outer loop
      vertex 5.46803 22.8244 0
      vertex 5.18826 22.5137 0
      vertex 5.18826 22.5137 3.5
    endloop
  endfacet
  facet normal -0.587785 -0.809017 0
    outer loop
      vertex 4.85 25.7321 3.5
      vertex 5.18826 25.4863 0
      vertex 5.18826 25.4863 3.5
    endloop
  endfacet
  facet normal -0.587785 -0.809017 -0
    outer loop
      vertex 4.85 25.7321 3.5
      vertex 4.85 25.7321 0
      vertex 5.18826 25.4863 0
    endloop
  endfacet
  facet normal -0.866025 -0.5 0
    outer loop
      vertex 5.46803 25.1756 0
      vertex 5.67709 24.8135 0
      vertex 5.67709 24.8135 3.5
    endloop
  endfacet
  facet normal -0.866025 -0.5 -0
    outer loop
      vertex 5.46803 25.1756 3.5
      vertex 5.46803 25.1756 0
      vertex 5.67709 24.8135 3.5
    endloop
  endfacet
  facet normal -0.951057 -0.309017 0
    outer loop
      vertex 5.67709 24.8135 0
      vertex 5.8063 24.4158 0
      vertex 5.8063 24.4158 3.5
    endloop
  endfacet
  facet normal -0.951057 -0.309017 -0
    outer loop
      vertex 5.67709 24.8135 3.5
      vertex 5.67709 24.8135 0
      vertex 5.8063 24.4158 3.5
    endloop
  endfacet
  facet normal 0 -1 0
    outer loop
      vertex 3.64094 25.989 3.5
      vertex 4.05906 25.989 0
      vertex 4.05906 25.989 3.5
    endloop
  endfacet
  facet normal 0 -1 0
    outer loop
      vertex 3.64094 25.989 3.5
      vertex 3.64094 25.989 0
      vertex 4.05906 25.989 0
    endloop
  endfacet
  facet normal -0.743145 -0.669131 0
    outer loop
      vertex 5.18826 25.4863 0
      vertex 5.46803 25.1756 0
      vertex 5.46803 25.1756 3.5
    endloop
  endfacet
  facet normal -0.743145 -0.669131 -0
    outer loop
      vertex 5.18826 25.4863 3.5
      vertex 5.18826 25.4863 0
      vertex 5.46803 25.1756 3.5
    endloop
  endfacet
  facet normal 0.406737 -0.913545 0
    outer loop
      vertex 2.85 25.7321 3.5
      vertex 3.23197 25.9021 0
      vertex 3.23197 25.9021 3.5
    endloop
  endfacet
  facet normal 0.406737 -0.913545 0
    outer loop
      vertex 2.85 25.7321 3.5
      vertex 2.85 25.7321 0
      vertex 3.23197 25.9021 0
    endloop
  endfacet
  facet normal 0.207912 -0.978148 0
    outer loop
      vertex 3.23197 25.9021 3.5
      vertex 3.64094 25.989 0
      vertex 3.64094 25.989 3.5
    endloop
  endfacet
  facet normal 0.207912 -0.978148 0
    outer loop
      vertex 3.23197 25.9021 3.5
      vertex 3.23197 25.9021 0
      vertex 3.64094 25.989 0
    endloop
  endfacet
  facet normal 0.587785 -0.809017 0
    outer loop
      vertex 2.51174 25.4863 3.5
      vertex 2.85 25.7321 0
      vertex 2.85 25.7321 3.5
    endloop
  endfacet
  facet normal 0.587785 -0.809017 0
    outer loop
      vertex 2.51174 25.4863 3.5
      vertex 2.51174 25.4863 0
      vertex 2.85 25.7321 0
    endloop
  endfacet
  facet normal 0.587785 0.809017 -0
    outer loop
      vertex 2.85 22.2679 0
      vertex 2.51174 22.5137 3.5
      vertex 2.85 22.2679 3.5
    endloop
  endfacet
  facet normal 0.587785 0.809017 0
    outer loop
      vertex 2.85 22.2679 0
      vertex 2.51174 22.5137 0
      vertex 2.51174 22.5137 3.5
    endloop
  endfacet
  facet normal 0.743145 0.669131 -0
    outer loop
      vertex 2.23197 22.8244 0
      vertex 2.23197 22.8244 3.5
      vertex 2.51174 22.5137 3.5
    endloop
  endfacet
  facet normal 0.743145 0.669131 -0
    outer loop
      vertex 2.51174 22.5137 0
      vertex 2.23197 22.8244 0
      vertex 2.51174 22.5137 3.5
    endloop
  endfacet
  facet normal 0.866025 0.5 -0
    outer loop
      vertex 2.02291 23.1865 0
      vertex 2.02291 23.1865 3.5
      vertex 2.23197 22.8244 3.5
    endloop
  endfacet
  facet normal 0.866025 0.5 -0
    outer loop
      vertex 2.23197 22.8244 0
      vertex 2.02291 23.1865 0
      vertex 2.23197 22.8244 3.5
    endloop
  endfacet
  facet normal 0.951057 0.309017 -0
    outer loop
      vertex 1.8937 23.5842 0
      vertex 1.8937 23.5842 3.5
      vertex 2.02291 23.1865 3.5
    endloop
  endfacet
  facet normal 0.951057 0.309017 -0
    outer loop
      vertex 2.02291 23.1865 0
      vertex 1.8937 23.5842 0
      vertex 2.02291 23.1865 3.5
    endloop
  endfacet
  facet normal -0.994522 0.104528 0
    outer loop
      vertex 5.85 24 0
      vertex 5.8063 23.5842 3.5
      vertex 5.85 24 3.5
    endloop
  endfacet
  facet normal -0.994522 0.104528 0
    outer loop
      vertex 5.85 24 0
      vertex 5.8063 23.5842 0
      vertex 5.8063 23.5842 3.5
    endloop
  endfacet
  facet normal -0.994522 -0.104528 0
    outer loop
      vertex 5.8063 24.4158 0
      vertex 5.85 24 0
      vertex 5.85 24 3.5
    endloop
  endfacet
  facet normal -0.994522 -0.104528 -0
    outer loop
      vertex 5.8063 24.4158 3.5
      vertex 5.8063 24.4158 0
      vertex 5.85 24 3.5
    endloop
  endfacet
  facet normal -0.587785 0.809017 0
    outer loop
      vertex 5.18826 22.5137 0
      vertex 4.85 22.2679 3.5
      vertex 5.18826 22.5137 3.5
    endloop
  endfacet
  facet normal -0.587785 0.809017 0
    outer loop
      vertex 5.18826 22.5137 0
      vertex 4.85 22.2679 0
      vertex 4.85 22.2679 3.5
    endloop
  endfacet
  facet normal -0.866025 0.5 0
    outer loop
      vertex 5.67709 23.1865 0
      vertex 5.46803 22.8244 3.5
      vertex 5.67709 23.1865 3.5
    endloop
  endfacet
  facet normal -0.866025 0.5 0
    outer loop
      vertex 5.67709 23.1865 0
      vertex 5.46803 22.8244 0
      vertex 5.46803 22.8244 3.5
    endloop
  endfacet
  facet normal 0.951057 -0.309017 0
    outer loop
      vertex 1.8937 24.4158 3.5
      vertex 2.02291 24.8135 0
      vertex 2.02291 24.8135 3.5
    endloop
  endfacet
  facet normal 0.951057 -0.309017 0
    outer loop
      vertex 1.8937 24.4158 3.5
      vertex 1.8937 24.4158 0
      vertex 2.02291 24.8135 0
    endloop
  endfacet
  facet normal 0.866025 -0.5 0
    outer loop
      vertex 2.02291 24.8135 3.5
      vertex 2.23197 25.1756 0
      vertex 2.23197 25.1756 3.5
    endloop
  endfacet
  facet normal 0.866025 -0.5 0
    outer loop
      vertex 2.02291 24.8135 3.5
      vertex 2.02291 24.8135 0
      vertex 2.23197 25.1756 0
    endloop
  endfacet
  facet normal 0.207912 0.978148 -0
    outer loop
      vertex 3.64094 22.011 0
      vertex 3.23197 22.0979 3.5
      vertex 3.64094 22.011 3.5
    endloop
  endfacet
  facet normal 0.207912 0.978148 0
    outer loop
      vertex 3.64094 22.011 0
      vertex 3.23197 22.0979 0
      vertex 3.23197 22.0979 3.5
    endloop
  endfacet
  facet normal 0.406737 0.913545 -0
    outer loop
      vertex 3.23197 22.0979 0
      vertex 2.85 22.2679 3.5
      vertex 3.23197 22.0979 3.5
    endloop
  endfacet
  facet normal 0.406737 0.913545 0
    outer loop
      vertex 3.23197 22.0979 0
      vertex 2.85 22.2679 0
      vertex 2.85 22.2679 3.5
    endloop
  endfacet
  facet normal 0 1 -0
    outer loop
      vertex 4.05906 22.011 0
      vertex 3.64094 22.011 3.5
      vertex 4.05906 22.011 3.5
    endloop
  endfacet
  facet normal 0 1 0
    outer loop
      vertex 4.05906 22.011 0
      vertex 3.64094 22.011 0
      vertex 3.64094 22.011 3.5
    endloop
  endfacet
  facet normal -0.951057 0.309017 0
    outer loop
      vertex 5.8063 23.5842 0
      vertex 5.67709 23.1865 3.5
      vertex 5.8063 23.5842 3.5
    endloop
  endfacet
  facet normal -0.951057 0.309017 0
    outer loop
      vertex 5.8063 23.5842 0
      vertex 5.67709 23.1865 0
      vertex 5.67709 23.1865 3.5
    endloop
  endfacet
  facet normal -0.406737 -0.913545 0
    outer loop
      vertex 4.46803 25.9021 3.5
      vertex 4.85 25.7321 0
      vertex 4.85 25.7321 3.5
    endloop
  endfacet
  facet normal -0.406737 -0.913545 -0
    outer loop
      vertex 4.46803 25.9021 3.5
      vertex 4.46803 25.9021 0
      vertex 4.85 25.7321 0
    endloop
  endfacet
  facet normal -0.207912 0.978148 0
    outer loop
      vertex 4.46803 22.0979 0
      vertex 4.05906 22.011 3.5
      vertex 4.46803 22.0979 3.5
    endloop
  endfacet
  facet normal -0.207912 0.978148 0
    outer loop
      vertex 4.46803 22.0979 0
      vertex 4.05906 22.011 0
      vertex 4.05906 22.011 3.5
    endloop
  endfacet
  facet normal -0.207912 -0.978148 0
    outer loop
      vertex 4.05906 25.989 3.5
      vertex 4.46803 25.9021 0
      vertex 4.46803 25.9021 3.5
    endloop
  endfacet
  facet normal -0.207912 -0.978148 -0
    outer loop
      vertex 4.05906 25.989 3.5
      vertex 4.05906 25.989 0
      vertex 4.46803 25.9021 0
    endloop
  endfacet
  facet normal 0.994522 0.104528 -0
    outer loop
      vertex 1.85 4.5 0
      vertex 1.85 4.5 11
      vertex 1.8937 4.08418 11
    endloop
  endfacet
  facet normal 0.994522 0.104528 -0
    outer loop
      vertex 1.8937 4.08418 0
      vertex 1.85 4.5 0
      vertex 1.8937 4.08418 11
    endloop
  endfacet
  facet normal 0.587785 -0.809017 0
    outer loop
      vertex 2.51174 5.98629 11
      vertex 2.85 6.23205 0
      vertex 2.85 6.23205 11
    endloop
  endfacet
  facet normal 0.587785 -0.809017 0
    outer loop
      vertex 2.51174 5.98629 11
      vertex 2.51174 5.98629 0
      vertex 2.85 6.23205 0
    endloop
  endfacet
  facet normal -0.207912 0.978148 0
    outer loop
      vertex 4.46803 2.59789 0
      vertex 4.05906 2.51096 11
      vertex 4.46803 2.59789 11
    endloop
  endfacet
  facet normal -0.207912 0.978148 0
    outer loop
      vertex 4.46803 2.59789 0
      vertex 4.05906 2.51096 0
      vertex 4.05906 2.51096 11
    endloop
  endfacet
  facet normal 0.587785 0.809017 -0
    outer loop
      vertex 2.85 2.76795 0
      vertex 2.51174 3.01371 11
      vertex 2.85 2.76795 11
    endloop
  endfacet
  facet normal 0.587785 0.809017 0
    outer loop
      vertex 2.85 2.76795 0
      vertex 2.51174 3.01371 0
      vertex 2.51174 3.01371 11
    endloop
  endfacet
  facet normal 0.743145 0.669131 -0
    outer loop
      vertex 2.23197 3.32443 0
      vertex 2.23197 3.32443 11
      vertex 2.51174 3.01371 11
    endloop
  endfacet
  facet normal 0.743145 0.669131 -0
    outer loop
      vertex 2.51174 3.01371 0
      vertex 2.23197 3.32443 0
      vertex 2.51174 3.01371 11
    endloop
  endfacet
  facet normal 0.207912 0.978148 -0
    outer loop
      vertex 3.64094 2.51096 0
      vertex 3.23197 2.59789 11
      vertex 3.64094 2.51096 11
    endloop
  endfacet
  facet normal 0.207912 0.978148 0
    outer loop
      vertex 3.64094 2.51096 0
      vertex 3.23197 2.59789 0
      vertex 3.23197 2.59789 11
    endloop
  endfacet
  facet normal 0.951057 0.309017 -0
    outer loop
      vertex 1.8937 4.08418 0
      vertex 1.8937 4.08418 11
      vertex 2.02291 3.68653 11
    endloop
  endfacet
  facet normal 0.951057 0.309017 -0
    outer loop
      vertex 2.02291 3.68653 0
      vertex 1.8937 4.08418 0
      vertex 2.02291 3.68653 11
    endloop
  endfacet
  facet normal 0.866025 -0.5 0
    outer loop
      vertex 2.02291 5.31347 11
      vertex 2.23197 5.67557 0
      vertex 2.23197 5.67557 11
    endloop
  endfacet
  facet normal 0.866025 -0.5 0
    outer loop
      vertex 2.02291 5.31347 11
      vertex 2.02291 5.31347 0
      vertex 2.23197 5.67557 0
    endloop
  endfacet
  facet normal 1.06213e-15 1 -0
    outer loop
      vertex 4.05906 2.51096 0
      vertex 3.64094 2.51096 11
      vertex 4.05906 2.51096 11
    endloop
  endfacet
  facet normal 1.06213e-15 1 0
    outer loop
      vertex 4.05906 2.51096 0
      vertex 3.64094 2.51096 0
      vertex 3.64094 2.51096 11
    endloop
  endfacet
  facet normal -0.743145 -0.669131 0
    outer loop
      vertex 5.18826 5.98629 0
      vertex 5.46803 5.67557 0
      vertex 5.46803 5.67557 11
    endloop
  endfacet
  facet normal -0.743145 -0.669131 -0
    outer loop
      vertex 5.18826 5.98629 11
      vertex 5.18826 5.98629 0
      vertex 5.46803 5.67557 11
    endloop
  endfacet
  facet normal -0.207912 -0.978148 0
    outer loop
      vertex 4.05906 6.48904 11
      vertex 4.46803 6.40211 0
      vertex 4.46803 6.40211 11
    endloop
  endfacet
  facet normal -0.207912 -0.978148 -0
    outer loop
      vertex 4.05906 6.48904 11
      vertex 4.05906 6.48904 0
      vertex 4.46803 6.40211 0
    endloop
  endfacet
  facet normal 0.951057 -0.309017 0
    outer loop
      vertex 1.8937 4.91582 11
      vertex 2.02291 5.31347 0
      vertex 2.02291 5.31347 11
    endloop
  endfacet
  facet normal 0.951057 -0.309017 0
    outer loop
      vertex 1.8937 4.91582 11
      vertex 1.8937 4.91582 0
      vertex 2.02291 5.31347 0
    endloop
  endfacet
  facet normal 0.994522 -0.104528 0
    outer loop
      vertex 1.85 4.5 11
      vertex 1.8937 4.91582 0
      vertex 1.8937 4.91582 11
    endloop
  endfacet
  facet normal 0.994522 -0.104528 0
    outer loop
      vertex 1.85 4.5 11
      vertex 1.85 4.5 0
      vertex 1.8937 4.91582 0
    endloop
  endfacet
  facet normal -0.587785 0.809017 0
    outer loop
      vertex 5.18826 3.01371 0
      vertex 4.85 2.76795 11
      vertex 5.18826 3.01371 11
    endloop
  endfacet
  facet normal -0.587785 0.809017 0
    outer loop
      vertex 5.18826 3.01371 0
      vertex 4.85 2.76795 0
      vertex 4.85 2.76795 11
    endloop
  endfacet
  facet normal 0.406737 0.913545 -0
    outer loop
      vertex 3.23197 2.59789 0
      vertex 2.85 2.76795 11
      vertex 3.23197 2.59789 11
    endloop
  endfacet
  facet normal 0.406737 0.913545 0
    outer loop
      vertex 3.23197 2.59789 0
      vertex 2.85 2.76795 0
      vertex 2.85 2.76795 11
    endloop
  endfacet
  facet normal 0.866025 0.5 -0
    outer loop
      vertex 2.02291 3.68653 0
      vertex 2.02291 3.68653 11
      vertex 2.23197 3.32443 11
    endloop
  endfacet
  facet normal 0.866025 0.5 -0
    outer loop
      vertex 2.23197 3.32443 0
      vertex 2.02291 3.68653 0
      vertex 2.23197 3.32443 11
    endloop
  endfacet
  facet normal -0.951057 0.309017 0
    outer loop
      vertex 5.8063 4.08418 0
      vertex 5.67709 3.68653 11
      vertex 5.8063 4.08418 11
    endloop
  endfacet
  facet normal -0.951057 0.309017 0
    outer loop
      vertex 5.8063 4.08418 0
      vertex 5.67709 3.68653 0
      vertex 5.67709 3.68653 11
    endloop
  endfacet
  facet normal -0.743145 0.669131 0
    outer loop
      vertex 5.46803 3.32443 0
      vertex 5.18826 3.01371 11
      vertex 5.46803 3.32443 11
    endloop
  endfacet
  facet normal -0.743145 0.669131 0
    outer loop
      vertex 5.46803 3.32443 0
      vertex 5.18826 3.01371 0
      vertex 5.18826 3.01371 11
    endloop
  endfacet
  facet normal -0.587785 -0.809017 0
    outer loop
      vertex 4.85 6.23205 11
      vertex 5.18826 5.98629 0
      vertex 5.18826 5.98629 11
    endloop
  endfacet
  facet normal -0.587785 -0.809017 -0
    outer loop
      vertex 4.85 6.23205 11
      vertex 4.85 6.23205 0
      vertex 5.18826 5.98629 0
    endloop
  endfacet
  facet normal -0.406737 -0.913545 0
    outer loop
      vertex 4.46803 6.40211 11
      vertex 4.85 6.23205 0
      vertex 4.85 6.23205 11
    endloop
  endfacet
  facet normal -0.406737 -0.913545 -0
    outer loop
      vertex 4.46803 6.40211 11
      vertex 4.46803 6.40211 0
      vertex 4.85 6.23205 0
    endloop
  endfacet
  facet normal 0.406737 -0.913545 0
    outer loop
      vertex 2.85 6.23205 11
      vertex 3.23197 6.40211 0
      vertex 3.23197 6.40211 11
    endloop
  endfacet
  facet normal 0.406737 -0.913545 0
    outer loop
      vertex 2.85 6.23205 11
      vertex 2.85 6.23205 0
      vertex 3.23197 6.40211 0
    endloop
  endfacet
  facet normal 0.743145 -0.669131 0
    outer loop
      vertex 2.23197 5.67557 11
      vertex 2.51174 5.98629 0
      vertex 2.51174 5.98629 11
    endloop
  endfacet
  facet normal 0.743145 -0.669131 0
    outer loop
      vertex 2.23197 5.67557 11
      vertex 2.23197 5.67557 0
      vertex 2.51174 5.98629 0
    endloop
  endfacet
  facet normal -0.406737 0.913545 0
    outer loop
      vertex 4.85 2.76795 0
      vertex 4.46803 2.59789 11
      vertex 4.85 2.76795 11
    endloop
  endfacet
  facet normal -0.406737 0.913545 0
    outer loop
      vertex 4.85 2.76795 0
      vertex 4.46803 2.59789 0
      vertex 4.46803 2.59789 11
    endloop
  endfacet
  facet normal -0.866025 -0.5 0
    outer loop
      vertex 5.46803 5.67557 0
      vertex 5.67709 5.31347 0
      vertex 5.67709 5.31347 11
    endloop
  endfacet
  facet normal -0.866025 -0.5 -0
    outer loop
      vertex 5.46803 5.67557 11
      vertex 5.46803 5.67557 0
      vertex 5.67709 5.31347 11
    endloop
  endfacet
  facet normal -0.951057 -0.309017 0
    outer loop
      vertex 5.67709 5.31347 0
      vertex 5.8063 4.91582 0
      vertex 5.8063 4.91582 11
    endloop
  endfacet
  facet normal -0.951057 -0.309017 -0
    outer loop
      vertex 5.67709 5.31347 11
      vertex 5.67709 5.31347 0
      vertex 5.8063 4.91582 11
    endloop
  endfacet
  facet normal -0.994522 -0.104528 0
    outer loop
      vertex 5.8063 4.91582 0
      vertex 5.85 4.5 0
      vertex 5.85 4.5 11
    endloop
  endfacet
  facet normal -0.994522 -0.104528 -0
    outer loop
      vertex 5.8063 4.91582 11
      vertex 5.8063 4.91582 0
      vertex 5.85 4.5 11
    endloop
  endfacet
  facet normal -0.994522 0.104528 0
    outer loop
      vertex 5.85 4.5 0
      vertex 5.8063 4.08418 11
      vertex 5.85 4.5 11
    endloop
  endfacet
  facet normal -0.994522 0.104528 0
    outer loop
      vertex 5.85 4.5 0
      vertex 5.8063 4.08418 0
      vertex 5.8063 4.08418 11
    endloop
  endfacet
  facet normal 0.207912 -0.978148 0
    outer loop
      vertex 3.23197 6.40211 11
      vertex 3.64094 6.48904 0
      vertex 3.64094 6.48904 11
    endloop
  endfacet
  facet normal 0.207912 -0.978148 0
    outer loop
      vertex 3.23197 6.40211 11
      vertex 3.23197 6.40211 0
      vertex 3.64094 6.48904 0
    endloop
  endfacet
  facet normal 0 -1 0
    outer loop
      vertex 3.64094 6.48904 11
      vertex 4.05906 6.48904 0
      vertex 4.05906 6.48904 11
    endloop
  endfacet
  facet normal 0 -1 0
    outer loop
      vertex 3.64094 6.48904 11
      vertex 3.64094 6.48904 0
      vertex 4.05906 6.48904 0
    endloop
  endfacet
  facet normal -0.866025 0.5 0
    outer loop
      vertex 5.67709 3.68653 0
      vertex 5.46803 3.32443 11
      vertex 5.67709 3.68653 11
    endloop
  endfacet
  facet normal -0.866025 0.5 0
    outer loop
      vertex 5.67709 3.68653 0
      vertex 5.46803 3.32443 0
      vertex 5.46803 3.32443 11
    endloop
  endfacet
  facet normal 0.994522 0.104528 -0
    outer loop
      vertex 20.85 4.5 0
      vertex 20.85 4.5 11
      vertex 20.8937 4.08418 11
    endloop
  endfacet
  facet normal 0.994522 0.104528 -0
    outer loop
      vertex 20.8937 4.08418 0
      vertex 20.85 4.5 0
      vertex 20.8937 4.08418 11
    endloop
  endfacet
  facet normal -0.207912 0.978148 0
    outer loop
      vertex 23.468 2.59789 0
      vertex 23.0591 2.51096 11
      vertex 23.468 2.59789 11
    endloop
  endfacet
  facet normal -0.207912 0.978148 0
    outer loop
      vertex 23.468 2.59789 0
      vertex 23.0591 2.51096 0
      vertex 23.0591 2.51096 11
    endloop
  endfacet
  facet normal 0.207912 0.978148 -0
    outer loop
      vertex 22.6409 2.51096 0
      vertex 22.232 2.59789 11
      vertex 22.6409 2.51096 11
    endloop
  endfacet
  facet normal 0.207912 0.978148 0
    outer loop
      vertex 22.6409 2.51096 0
      vertex 22.232 2.59789 0
      vertex 22.232 2.59789 11
    endloop
  endfacet
  facet normal -0.994522 0.104528 0
    outer loop
      vertex 24.85 4.5 0
      vertex 24.8063 4.08418 11
      vertex 24.85 4.5 11
    endloop
  endfacet
  facet normal -0.994522 0.104528 0
    outer loop
      vertex 24.85 4.5 0
      vertex 24.8063 4.08418 0
      vertex 24.8063 4.08418 11
    endloop
  endfacet
  facet normal 1.06213e-15 1 -0
    outer loop
      vertex 23.0591 2.51096 0
      vertex 22.6409 2.51096 11
      vertex 23.0591 2.51096 11
    endloop
  endfacet
  facet normal 1.06213e-15 1 0
    outer loop
      vertex 23.0591 2.51096 0
      vertex 22.6409 2.51096 0
      vertex 22.6409 2.51096 11
    endloop
  endfacet
  facet normal -0.587785 -0.809017 0
    outer loop
      vertex 23.85 6.23205 11
      vertex 24.1883 5.98629 0
      vertex 24.1883 5.98629 11
    endloop
  endfacet
  facet normal -0.587785 -0.809017 -0
    outer loop
      vertex 23.85 6.23205 11
      vertex 23.85 6.23205 0
      vertex 24.1883 5.98629 0
    endloop
  endfacet
  facet normal -0.207912 -0.978148 0
    outer loop
      vertex 23.0591 6.48904 11
      vertex 23.468 6.40211 0
      vertex 23.468 6.40211 11
    endloop
  endfacet
  facet normal -0.207912 -0.978148 -0
    outer loop
      vertex 23.0591 6.48904 11
      vertex 23.0591 6.48904 0
      vertex 23.468 6.40211 0
    endloop
  endfacet
  facet normal 0.951057 -0.309017 0
    outer loop
      vertex 20.8937 4.91582 11
      vertex 21.0229 5.31347 0
      vertex 21.0229 5.31347 11
    endloop
  endfacet
  facet normal 0.951057 -0.309017 0
    outer loop
      vertex 20.8937 4.91582 11
      vertex 20.8937 4.91582 0
      vertex 21.0229 5.31347 0
    endloop
  endfacet
  facet normal 0.994522 -0.104528 0
    outer loop
      vertex 20.85 4.5 11
      vertex 20.8937 4.91582 0
      vertex 20.8937 4.91582 11
    endloop
  endfacet
  facet normal 0.994522 -0.104528 0
    outer loop
      vertex 20.85 4.5 11
      vertex 20.85 4.5 0
      vertex 20.8937 4.91582 0
    endloop
  endfacet
  facet normal 0.406737 0.913545 -0
    outer loop
      vertex 22.232 2.59789 0
      vertex 21.85 2.76795 11
      vertex 22.232 2.59789 11
    endloop
  endfacet
  facet normal 0.406737 0.913545 0
    outer loop
      vertex 22.232 2.59789 0
      vertex 21.85 2.76795 0
      vertex 21.85 2.76795 11
    endloop
  endfacet
  facet normal 0.587785 0.809017 -0
    outer loop
      vertex 21.85 2.76795 0
      vertex 21.5117 3.01371 11
      vertex 21.85 2.76795 11
    endloop
  endfacet
  facet normal 0.587785 0.809017 0
    outer loop
      vertex 21.85 2.76795 0
      vertex 21.5117 3.01371 0
      vertex 21.5117 3.01371 11
    endloop
  endfacet
  facet normal 0.743145 0.669131 -0
    outer loop
      vertex 21.232 3.32443 0
      vertex 21.232 3.32443 11
      vertex 21.5117 3.01371 11
    endloop
  endfacet
  facet normal 0.743145 0.669131 -0
    outer loop
      vertex 21.5117 3.01371 0
      vertex 21.232 3.32443 0
      vertex 21.5117 3.01371 11
    endloop
  endfacet
  facet normal 0.866025 0.5 -0
    outer loop
      vertex 21.0229 3.68653 0
      vertex 21.0229 3.68653 11
      vertex 21.232 3.32443 11
    endloop
  endfacet
  facet normal 0.866025 0.5 -0
    outer loop
      vertex 21.232 3.32443 0
      vertex 21.0229 3.68653 0
      vertex 21.232 3.32443 11
    endloop
  endfacet
  facet normal 0.951057 0.309017 -0
    outer loop
      vertex 20.8937 4.08418 0
      vertex 20.8937 4.08418 11
      vertex 21.0229 3.68653 11
    endloop
  endfacet
  facet normal 0.951057 0.309017 -0
    outer loop
      vertex 21.0229 3.68653 0
      vertex 20.8937 4.08418 0
      vertex 21.0229 3.68653 11
    endloop
  endfacet
  facet normal -0.587785 0.809017 0
    outer loop
      vertex 24.1883 3.01371 0
      vertex 23.85 2.76795 11
      vertex 24.1883 3.01371 11
    endloop
  endfacet
  facet normal -0.587785 0.809017 0
    outer loop
      vertex 24.1883 3.01371 0
      vertex 23.85 2.76795 0
      vertex 23.85 2.76795 11
    endloop
  endfacet
  facet normal -0.951057 0.309017 0
    outer loop
      vertex 24.8063 4.08418 0
      vertex 24.6771 3.68653 11
      vertex 24.8063 4.08418 11
    endloop
  endfacet
  facet normal -0.951057 0.309017 0
    outer loop
      vertex 24.8063 4.08418 0
      vertex 24.6771 3.68653 0
      vertex 24.6771 3.68653 11
    endloop
  endfacet
  facet normal -0.743145 0.669131 0
    outer loop
      vertex 24.468 3.32443 0
      vertex 24.1883 3.01371 11
      vertex 24.468 3.32443 11
    endloop
  endfacet
  facet normal -0.743145 0.669131 0
    outer loop
      vertex 24.468 3.32443 0
      vertex 24.1883 3.01371 0
      vertex 24.1883 3.01371 11
    endloop
  endfacet
  facet normal -0.406737 -0.913545 0
    outer loop
      vertex 23.468 6.40211 11
      vertex 23.85 6.23205 0
      vertex 23.85 6.23205 11
    endloop
  endfacet
  facet normal -0.406737 -0.913545 -0
    outer loop
      vertex 23.468 6.40211 11
      vertex 23.468 6.40211 0
      vertex 23.85 6.23205 0
    endloop
  endfacet
  facet normal 0.406737 -0.913545 0
    outer loop
      vertex 21.85 6.23205 11
      vertex 22.232 6.40211 0
      vertex 22.232 6.40211 11
    endloop
  endfacet
  facet normal 0.406737 -0.913545 0
    outer loop
      vertex 21.85 6.23205 11
      vertex 21.85 6.23205 0
      vertex 22.232 6.40211 0
    endloop
  endfacet
  facet normal -0.743145 -0.669131 0
    outer loop
      vertex 24.1883 5.98629 0
      vertex 24.468 5.67557 0
      vertex 24.468 5.67557 11
    endloop
  endfacet
  facet normal -0.743145 -0.669131 -0
    outer loop
      vertex 24.1883 5.98629 11
      vertex 24.1883 5.98629 0
      vertex 24.468 5.67557 11
    endloop
  endfacet
  facet normal -0.866025 -0.5 0
    outer loop
      vertex 24.468 5.67557 0
      vertex 24.6771 5.31347 0
      vertex 24.6771 5.31347 11
    endloop
  endfacet
  facet normal -0.866025 -0.5 -0
    outer loop
      vertex 24.468 5.67557 11
      vertex 24.468 5.67557 0
      vertex 24.6771 5.31347 11
    endloop
  endfacet
  facet normal -0.951057 -0.309017 0
    outer loop
      vertex 24.6771 5.31347 0
      vertex 24.8063 4.91582 0
      vertex 24.8063 4.91582 11
    endloop
  endfacet
  facet normal -0.951057 -0.309017 -0
    outer loop
      vertex 24.6771 5.31347 11
      vertex 24.6771 5.31347 0
      vertex 24.8063 4.91582 11
    endloop
  endfacet
  facet normal -0.994522 -0.104528 0
    outer loop
      vertex 24.8063 4.91582 0
      vertex 24.85 4.5 0
      vertex 24.85 4.5 11
    endloop
  endfacet
  facet normal -0.994522 -0.104528 -0
    outer loop
      vertex 24.8063 4.91582 11
      vertex 24.8063 4.91582 0
      vertex 24.85 4.5 11
    endloop
  endfacet
  facet normal -0.406737 0.913545 0
    outer loop
      vertex 23.85 2.76795 0
      vertex 23.468 2.59789 11
      vertex 23.85 2.76795 11
    endloop
  endfacet
  facet normal -0.406737 0.913545 0
    outer loop
      vertex 23.85 2.76795 0
      vertex 23.468 2.59789 0
      vertex 23.468 2.59789 11
    endloop
  endfacet
  facet normal -0.866025 0.5 0
    outer loop
      vertex 24.6771 3.68653 0
      vertex 24.468 3.32443 11
      vertex 24.6771 3.68653 11
    endloop
  endfacet
  facet normal -0.866025 0.5 0
    outer loop
      vertex 24.6771 3.68653 0
      vertex 24.468 3.32443 0
      vertex 24.468 3.32443 11
    endloop
  endfacet
  facet normal 0.207912 -0.978148 0
    outer loop
      vertex 22.232 6.40211 11
      vertex 22.6409 6.48904 0
      vertex 22.6409 6.48904 11
    endloop
  endfacet
  facet normal 0.207912 -0.978148 0
    outer loop
      vertex 22.232 6.40211 11
      vertex 22.232 6.40211 0
      vertex 22.6409 6.48904 0
    endloop
  endfacet
  facet normal 0 -1 0
    outer loop
      vertex 22.6409 6.48904 11
      vertex 23.0591 6.48904 0
      vertex 23.0591 6.48904 11
    endloop
  endfacet
  facet normal 0 -1 0
    outer loop
      vertex 22.6409 6.48904 11
      vertex 22.6409 6.48904 0
      vertex 23.0591 6.48904 0
    endloop
  endfacet
  facet normal 0.866025 -0.5 0
    outer loop
      vertex 21.0229 5.31347 11
      vertex 21.232 5.67557 0
      vertex 21.232 5.67557 11
    endloop
  endfacet
  facet normal 0.866025 -0.5 0
    outer loop
      vertex 21.0229 5.31347 11
      vertex 21.0229 5.31347 0
      vertex 21.232 5.67557 0
    endloop
  endfacet
  facet normal 0.743145 -0.669131 0
    outer loop
      vertex 21.232 5.67557 11
      vertex 21.5117 5.98629 0
      vertex 21.5117 5.98629 11
    endloop
  endfacet
  facet normal 0.743145 -0.669131 0
    outer loop
      vertex 21.232 5.67557 11
      vertex 21.232 5.67557 0
      vertex 21.5117 5.98629 0
    endloop
  endfacet
  facet normal 0.587785 -0.809017 0
    outer loop
      vertex 21.5117 5.98629 11
      vertex 21.85 6.23205 0
      vertex 21.85 6.23205 11
    endloop
  endfacet
  facet normal 0.587785 -0.809017 0
    outer loop
      vertex 21.5117 5.98629 11
      vertex 21.5117 5.98629 0
      vertex 21.85 6.23205 0
    endloop
  endfacet
  facet normal 0 1 -0
    outer loop
      vertex 28.5232 11 5.5
      vertex -1.5 11 11
      vertex 28.5232 11 11
    endloop
  endfacet
  facet normal 0 1 0
    outer loop
      vertex 28.5232 11 5.5
      vertex -1.5 11 5.5
      vertex -1.5 11 11
    endloop
  endfacet
  facet normal 0 0 1
    outer loop
      vertex 28.1568 11.0918 5.5
      vertex 28.5232 11 5.5
      vertex 28.4635 11.0266 5.5
    endloop
  endfacet
  facet normal 0 0 1
    outer loop
      vertex 28.1568 11.0918 5.5
      vertex 9.2 11.0918 5.5
      vertex 28.5232 11 5.5
    endloop
  endfacet
  facet normal 0 0 1
    outer loop
      vertex 9.2 20 5.5
      vertex -1.5 20 5.5
      vertex 9.2 11.0918 5.5
    endloop
  endfacet
  facet normal 0 0 1
    outer loop
      vertex -1.5 20 5.5
      vertex -1.5 11 5.5
      vertex 9.2 11.0918 5.5
    endloop
  endfacet
  facet normal 0 0 1
    outer loop
      vertex -1.5 11 5.5
      vertex 28.5232 11 5.5
      vertex 9.2 11.0918 5.5
    endloop
  endfacet
  facet normal 0 1 -0
    outer loop
      vertex 9.2 20 3.5
      vertex -1.5 20 5.5
      vertex 9.2 20 5.5
    endloop
  endfacet
  facet normal 0 1 0
    outer loop
      vertex 9.2 20 3.5
      vertex -1.5 20 3.5
      vertex -1.5 20 5.5
    endloop
  endfacet
  facet normal 0 0 1
    outer loop
      vertex 9.16722 28.3119 3.5
      vertex 8.45 29.299 3.5
      vertex 9.2 28 3.5
    endloop
  endfacet
  facet normal 0 0 1
    outer loop
      vertex 9.07032 28.6101 3.5
      vertex 8.7037 29.1147 3.5
      vertex 9.16722 28.3119 3.5
    endloop
  endfacet
  facet normal 0 0 1
    outer loop
      vertex 8.91353 28.8817 3.5
      vertex 8.7037 29.1147 3.5
      vertex 9.07032 28.6101 3.5
    endloop
  endfacet
  facet normal 0 0 1
    outer loop
      vertex 8.7037 29.1147 3.5
      vertex 8.45 29.299 3.5
      vertex 9.16722 28.3119 3.5
    endloop
  endfacet
  facet normal 0 0 1
    outer loop
      vertex 8.45 29.299 3.5
      vertex 7.85679 29.4918 3.5
      vertex 9.2 28 3.5
    endloop
  endfacet
  facet normal 0 0 1
    outer loop
      vertex 8.16353 29.4266 3.5
      vertex 7.85679 29.4918 3.5
      vertex 8.45 29.299 3.5
    endloop
  endfacet
  facet normal 0 0 1
    outer loop
      vertex -1.5 28 3.5
      vertex 1.85 24 3.5
      vertex 1.8937 24.4158 3.5
    endloop
  endfacet
  facet normal -0 0 1
    outer loop
      vertex -0.463526 29.4266 3.5
      vertex -0.75 29.299 3.5
      vertex -0.156793 29.4918 3.5
    endloop
  endfacet
  facet normal -0 0 1
    outer loop
      vertex -0.75 29.299 3.5
      vertex -1.5 28 3.5
      vertex -0.156793 29.4918 3.5
    endloop
  endfacet
  facet normal -0 0 1
    outer loop
      vertex -1.0037 29.1147 3.5
      vertex -1.46722 28.3119 3.5
      vertex -0.75 29.299 3.5
    endloop
  endfacet
  facet normal -0 0 1
    outer loop
      vertex -1.21353 28.8817 3.5
      vertex -1.37032 28.6101 3.5
      vertex -1.0037 29.1147 3.5
    endloop
  endfacet
  facet normal -0 0 1
    outer loop
      vertex -1.37032 28.6101 3.5
      vertex -1.46722 28.3119 3.5
      vertex -1.0037 29.1147 3.5
    endloop
  endfacet
  facet normal -0 0 1
    outer loop
      vertex -1.46722 28.3119 3.5
      vertex -1.5 28 3.5
      vertex -0.75 29.299 3.5
    endloop
  endfacet
  facet normal 0 0 1
    outer loop
      vertex -1.5 28 3.5
      vertex -1.5 20 3.5
      vertex 1.85 24 3.5
    endloop
  endfacet
  facet normal -0 0 1
    outer loop
      vertex -1.5 28 3.5
      vertex 2.51174 25.4863 3.5
      vertex -0.156793 29.4918 3.5
    endloop
  endfacet
  facet normal 0 0 1
    outer loop
      vertex -1.5 28 3.5
      vertex 1.8937 24.4158 3.5
      vertex 2.02291 24.8135 3.5
    endloop
  endfacet
  facet normal 0 0 1
    outer loop
      vertex -1.5 28 3.5
      vertex 2.02291 24.8135 3.5
      vertex 2.23197 25.1756 3.5
    endloop
  endfacet
  facet normal 0 0 1
    outer loop
      vertex -1.5 28 3.5
      vertex 2.23197 25.1756 3.5
      vertex 2.51174 25.4863 3.5
    endloop
  endfacet
  facet normal -0 0 1
    outer loop
      vertex -0.156793 29.4918 3.5
      vertex 3.64094 25.989 3.5
      vertex 7.85679 29.4918 3.5
    endloop
  endfacet
  facet normal 0 -0 1
    outer loop
      vertex 2.51174 25.4863 3.5
      vertex 2.85 25.7321 3.5
      vertex -0.156793 29.4918 3.5
    endloop
  endfacet
  facet normal 0 -0 1
    outer loop
      vertex 9.2 20 3.5
      vertex 9.2 28 3.5
      vertex 5.85 24 3.5
    endloop
  endfacet
  facet normal 0 -0 1
    outer loop
      vertex 2.85 25.7321 3.5
      vertex 3.23197 25.9021 3.5
      vertex -0.156793 29.4918 3.5
    endloop
  endfacet
  facet normal 0 0 1
    outer loop
      vertex 5.18826 25.4863 3.5
      vertex 9.2 28 3.5
      vertex 7.85679 29.4918 3.5
    endloop
  endfacet
  facet normal 0 0 1
    outer loop
      vertex 3.64094 25.989 3.5
      vertex -0.156793 29.4918 3.5
      vertex 3.23197 25.9021 3.5
    endloop
  endfacet
  facet normal 0 -0 1
    outer loop
      vertex 4.05906 25.989 3.5
      vertex 7.85679 29.4918 3.5
      vertex 3.64094 25.989 3.5
    endloop
  endfacet
  facet normal 0 -0 1
    outer loop
      vertex 4.46803 25.9021 3.5
      vertex 7.85679 29.4918 3.5
      vertex 4.05906 25.989 3.5
    endloop
  endfacet
  facet normal 0 -0 1
    outer loop
      vertex 4.85 25.7321 3.5
      vertex 7.85679 29.4918 3.5
      vertex 4.46803 25.9021 3.5
    endloop
  endfacet
  facet normal 0 -0 1
    outer loop
      vertex 5.18826 25.4863 3.5
      vertex 7.85679 29.4918 3.5
      vertex 4.85 25.7321 3.5
    endloop
  endfacet
  facet normal 0 0 1
    outer loop
      vertex 9.2 28 3.5
      vertex 5.46803 25.1756 3.5
      vertex 5.67709 24.8135 3.5
    endloop
  endfacet
  facet normal 0 -0 1
    outer loop
      vertex 5.46803 25.1756 3.5
      vertex 9.2 28 3.5
      vertex 5.18826 25.4863 3.5
    endloop
  endfacet
  facet normal 0 0 1
    outer loop
      vertex 9.2 28 3.5
      vertex 5.67709 24.8135 3.5
      vertex 5.8063 24.4158 3.5
    endloop
  endfacet
  facet normal 0 0 1
    outer loop
      vertex 9.2 28 3.5
      vertex 5.8063 24.4158 3.5
      vertex 5.85 24 3.5
    endloop
  endfacet
  facet normal 0 0 1
    outer loop
      vertex 9.2 20 3.5
      vertex 5.85 24 3.5
      vertex 5.8063 23.5842 3.5
    endloop
  endfacet
  facet normal 0 0 1
    outer loop
      vertex 9.2 20 3.5
      vertex 5.8063 23.5842 3.5
      vertex 5.67709 23.1865 3.5
    endloop
  endfacet
  facet normal 0 0 1
    outer loop
      vertex 9.2 20 3.5
      vertex 5.67709 23.1865 3.5
      vertex 5.46803 22.8244 3.5
    endloop
  endfacet
  facet normal 0 0 1
    outer loop
      vertex 9.2 20 3.5
      vertex 5.46803 22.8244 3.5
      vertex 5.18826 22.5137 3.5
    endloop
  endfacet
  facet normal 0 0 1
    outer loop
      vertex 9.2 20 3.5
      vertex 5.18826 22.5137 3.5
      vertex 4.85 22.2679 3.5
    endloop
  endfacet
  facet normal 0 0 1
    outer loop
      vertex 9.2 20 3.5
      vertex 4.85 22.2679 3.5
      vertex 4.46803 22.0979 3.5
    endloop
  endfacet
  facet normal 0 0 1
    outer loop
      vertex 9.2 20 3.5
      vertex 3.64094 22.011 3.5
      vertex -1.5 20 3.5
    endloop
  endfacet
  facet normal 0 0 1
    outer loop
      vertex 4.46803 22.0979 3.5
      vertex 4.05906 22.011 3.5
      vertex 9.2 20 3.5
    endloop
  endfacet
  facet normal 0 0 1
    outer loop
      vertex 4.05906 22.011 3.5
      vertex 3.64094 22.011 3.5
      vertex 9.2 20 3.5
    endloop
  endfacet
  facet normal 0 0 1
    outer loop
      vertex 3.64094 22.011 3.5
      vertex 3.23197 22.0979 3.5
      vertex -1.5 20 3.5
    endloop
  endfacet
  facet normal 0 0 1
    outer loop
      vertex 3.23197 22.0979 3.5
      vertex 2.85 22.2679 3.5
      vertex -1.5 20 3.5
    endloop
  endfacet
  facet normal 0 0 1
    outer loop
      vertex 2.85 22.2679 3.5
      vertex 2.51174 22.5137 3.5
      vertex -1.5 20 3.5
    endloop
  endfacet
  facet normal 0 0 1
    outer loop
      vertex 2.51174 22.5137 3.5
      vertex 2.23197 22.8244 3.5
      vertex -1.5 20 3.5
    endloop
  endfacet
  facet normal 0 0 1
    outer loop
      vertex 2.23197 22.8244 3.5
      vertex 2.02291 23.1865 3.5
      vertex -1.5 20 3.5
    endloop
  endfacet
  facet normal 0 0 1
    outer loop
      vertex 2.02291 23.1865 3.5
      vertex 1.8937 23.5842 3.5
      vertex -1.5 20 3.5
    endloop
  endfacet
  facet normal 0 0 1
    outer loop
      vertex 1.8937 23.5842 3.5
      vertex 1.85 24 3.5
      vertex -1.5 20 3.5
    endloop
  endfacet
endsolid OpenSCAD_Model
