solid OpenSCAD_Model
  facet normal -1 0 0
    outer loop
      vertex -10 -10 2
      vertex -10 10 -2
      vertex -10 -10 -2
    endloop
  endfacet
  facet normal -1 0 0
    outer loop
      vertex -10 -10 2
      vertex -10 10 2
      vertex -10 10 -2
    endloop
  endfacet
  facet normal 0 -1 0
    outer loop
      vertex 10 -10 -2
      vertex -10 -10 2
      vertex -10 -10 -2
    endloop
  endfacet
  facet normal 0 -1 0
    outer loop
      vertex 10 -10 -2
      vertex 10 -10 2
      vertex -10 -10 2
    endloop
  endfacet
  facet normal 0 0 -1
    outer loop
      vertex -10 10 -2
      vertex -5 6.12323e-16 -2
      vertex -10 -10 -2
    endloop
  endfacet
  facet normal 0 -0 -1
    outer loop
      vertex -5 6.12323e-16 -2
      vertex -4.6194 -1.91342 -2
      vertex -10 -10 -2
    endloop
  endfacet
  facet normal 0 -0 -1
    outer loop
      vertex -4.6194 -1.91342 -2
      vertex -3.53553 -3.53553 -2
      vertex -10 -10 -2
    endloop
  endfacet
  facet normal 0 -0 -1
    outer loop
      vertex 10 10 -2
      vertex 10 -10 -2
      vertex 5 0 -2
    endloop
  endfacet
  facet normal 0 -0 -1
    outer loop
      vertex -3.53553 -3.53553 -2
      vertex -1.91342 -4.6194 -2
      vertex -10 -10 -2
    endloop
  endfacet
  facet normal 0 -0 -1
    outer loop
      vertex -9.18485e-16 -5 -2
      vertex 10 -10 -2
      vertex -10 -10 -2
    endloop
  endfacet
  facet normal -0 0 -1
    outer loop
      vertex -9.18485e-16 -5 -2
      vertex -10 -10 -2
      vertex -1.91342 -4.6194 -2
    endloop
  endfacet
  facet normal 0 -0 -1
    outer loop
      vertex 1.91342 -4.6194 -2
      vertex 10 -10 -2
      vertex -9.18485e-16 -5 -2
    endloop
  endfacet
  facet normal 0 -0 -1
    outer loop
      vertex 3.53553 -3.53553 -2
      vertex 10 -10 -2
      vertex 1.91342 -4.6194 -2
    endloop
  endfacet
  facet normal 0 0 -1
    outer loop
      vertex 10 -10 -2
      vertex 4.6194 -1.91342 -2
      vertex 5 0 -2
    endloop
  endfacet
  facet normal 0 -0 -1
    outer loop
      vertex 4.6194 -1.91342 -2
      vertex 10 -10 -2
      vertex 3.53553 -3.53553 -2
    endloop
  endfacet
  facet normal 0 0 -1
    outer loop
      vertex 10 10 -2
      vertex 5 0 -2
      vertex 4.6194 1.91342 -2
    endloop
  endfacet
  facet normal 0 0 -1
    outer loop
      vertex 10 10 -2
      vertex 4.6194 1.91342 -2
      vertex 3.53553 3.53553 -2
    endloop
  endfacet
  facet normal 0 0 -1
    outer loop
      vertex 10 10 -2
      vertex 3.53553 3.53553 -2
      vertex 1.91342 4.6194 -2
    endloop
  endfacet
  facet normal -0 0 -1
    outer loop
      vertex 10 10 -2
      vertex 3.06162e-16 5 -2
      vertex -10 10 -2
    endloop
  endfacet
  facet normal 0 0 -1
    outer loop
      vertex 1.91342 4.6194 -2
      vertex 3.06162e-16 5 -2
      vertex 10 10 -2
    endloop
  endfacet
  facet normal -0 0 -1
    outer loop
      vertex 3.06162e-16 5 -2
      vertex -1.91342 4.6194 -2
      vertex -10 10 -2
    endloop
  endfacet
  facet normal -0 0 -1
    outer loop
      vertex -1.91342 4.6194 -2
      vertex -3.53553 3.53553 -2
      vertex -10 10 -2
    endloop
  endfacet
  facet normal -0 0 -1
    outer loop
      vertex -3.53553 3.53553 -2
      vertex -4.6194 1.91342 -2
      vertex -10 10 -2
    endloop
  endfacet
  facet normal -0 0 -1
    outer loop
      vertex -4.6194 1.91342 -2
      vertex -5 6.12323e-16 -2
      vertex -10 10 -2
    endloop
  endfacet
  facet normal 0 1 0
    outer loop
      vertex -10 10 2
      vertex 10 10 -2
      vertex -10 10 -2
    endloop
  endfacet
  facet normal -0 1 0
    outer loop
      vertex -10 10 2
      vertex 10 10 2
      vertex 10 10 -2
    endloop
  endfacet
  facet normal 0 0 1
    outer loop
      vertex 10 10 2
      vertex -10 10 2
      vertex 3.06162e-16 5 2
    endloop
  endfacet
  facet normal 0 0 1
    outer loop
      vertex -5 6.12323e-16 2
      vertex -10 10 2
      vertex -10 -10 2
    endloop
  endfacet
  facet normal 0 0 1
    outer loop
      vertex -5 6.12323e-16 2
      vertex -10 -10 2
      vertex -4.6194 -1.91342 2
    endloop
  endfacet
  facet normal 0 0 1
    outer loop
      vertex -4.6194 1.91342 2
      vertex -10 10 2
      vertex -5 6.12323e-16 2
    endloop
  endfacet
  facet normal 0 0 1
    outer loop
      vertex -3.53553 3.53553 2
      vertex -10 10 2
      vertex -4.6194 1.91342 2
    endloop
  endfacet
  facet normal 0 0 1
    outer loop
      vertex -10 10 2
      vertex -1.91342 4.6194 2
      vertex 3.06162e-16 5 2
    endloop
  endfacet
  facet normal 0 0 1
    outer loop
      vertex -1.91342 4.6194 2
      vertex -10 10 2
      vertex -3.53553 3.53553 2
    endloop
  endfacet
  facet normal 0 0 1
    outer loop
      vertex 10 10 2
      vertex 3.06162e-16 5 2
      vertex 1.91342 4.6194 2
    endloop
  endfacet
  facet normal 0 0 1
    outer loop
      vertex 10 10 2
      vertex 1.91342 4.6194 2
      vertex 3.53553 3.53553 2
    endloop
  endfacet
  facet normal 0 0 1
    outer loop
      vertex 10 10 2
      vertex 3.53553 3.53553 2
      vertex 4.6194 1.91342 2
    endloop
  endfacet
  facet normal 0 0 1
    outer loop
      vertex 10 10 2
      vertex 5 0 2
      vertex 10 -10 2
    endloop
  endfacet
  facet normal -0 0 1
    outer loop
      vertex 4.6194 1.91342 2
      vertex 5 0 2
      vertex 10 10 2
    endloop
  endfacet
  facet normal 0 0 1
    outer loop
      vertex 5 0 2
      vertex 4.6194 -1.91342 2
      vertex 10 -10 2
    endloop
  endfacet
  facet normal 0 0 1
    outer loop
      vertex 4.6194 -1.91342 2
      vertex 3.53553 -3.53553 2
      vertex 10 -10 2
    endloop
  endfacet
  facet normal 0 0 1
    outer loop
      vertex -4.6194 -1.91342 2
      vertex -10 -10 2
      vertex -3.53553 -3.53553 2
    endloop
  endfacet
  facet normal 0 0 1
    outer loop
      vertex 3.53553 -3.53553 2
      vertex 1.91342 -4.6194 2
      vertex 10 -10 2
    endloop
  endfacet
  facet normal 0 0 1
    outer loop
      vertex -9.18485e-16 -5 2
      vertex -10 -10 2
      vertex 10 -10 2
    endloop
  endfacet
  facet normal -0 0 1
    outer loop
      vertex -9.18485e-16 -5 2
      vertex 10 -10 2
      vertex 1.91342 -4.6194 2
    endloop
  endfacet
  facet normal 0 0 1
    outer loop
      vertex -1.91342 -4.6194 2
      vertex -10 -10 2
      vertex -9.18485e-16 -5 2
    endloop
  endfacet
  facet normal 0 0 1
    outer loop
      vertex -3.53553 -3.53553 2
      vertex -10 -10 2
      vertex -1.91342 -4.6194 2
    endloop
  endfacet
  facet normal 1 0 0
    outer loop
      vertex 10 10 -2
      vertex 10 -10 2
      vertex 10 -10 -2
    endloop
  endfacet
  facet normal 1 0 -0
    outer loop
      vertex 10 10 -2
      vertex 10 10 2
      vertex 10 -10 2
    endloop
  endfacet
  facet normal 0.980785 0.19509 -0
    outer loop
      vertex -5 6.12323e-16 -2
      vertex -5 6.12323e-16 2
      vertex -4.6194 -1.91342 2
    endloop
  endfacet
  facet normal 0.980785 0.19509 -0
    outer loop
      vertex -4.6194 -1.91342 -2
      vertex -5 6.12323e-16 -2
      vertex -4.6194 -1.91342 2
    endloop
  endfacet
  facet normal 0.19509 -0.980785 0
    outer loop
      vertex -1.91342 4.6194 2
      vertex 3.06162e-16 5 -2
      vertex 3.06162e-16 5 2
    endloop
  endfacet
  facet normal 0.19509 -0.980785 0
    outer loop
      vertex -1.91342 4.6194 2
      vertex -1.91342 4.6194 -2
      vertex 3.06162e-16 5 -2
    endloop
  endfacet
  facet normal 0.980785 -0.19509 0
    outer loop
      vertex -5 6.12323e-16 2
      vertex -4.6194 1.91342 -2
      vertex -4.6194 1.91342 2
    endloop
  endfacet
  facet normal 0.980785 -0.19509 0
    outer loop
      vertex -5 6.12323e-16 2
      vertex -5 6.12323e-16 -2
      vertex -4.6194 1.91342 -2
    endloop
  endfacet
  facet normal -0.55557 0.83147 0
    outer loop
      vertex 3.53553 -3.53553 -2
      vertex 1.91342 -4.6194 2
      vertex 3.53553 -3.53553 2
    endloop
  endfacet
  facet normal -0.55557 0.83147 0
    outer loop
      vertex 3.53553 -3.53553 -2
      vertex 1.91342 -4.6194 -2
      vertex 1.91342 -4.6194 2
    endloop
  endfacet
  facet normal 0.19509 0.980785 -0
    outer loop
      vertex -9.18485e-16 -5 -2
      vertex -1.91342 -4.6194 2
      vertex -9.18485e-16 -5 2
    endloop
  endfacet
  facet normal 0.19509 0.980785 0
    outer loop
      vertex -9.18485e-16 -5 -2
      vertex -1.91342 -4.6194 -2
      vertex -1.91342 -4.6194 2
    endloop
  endfacet
  facet normal -0.19509 0.980785 0
    outer loop
      vertex 1.91342 -4.6194 -2
      vertex -9.18485e-16 -5 2
      vertex 1.91342 -4.6194 2
    endloop
  endfacet
  facet normal -0.19509 0.980785 0
    outer loop
      vertex 1.91342 -4.6194 -2
      vertex -9.18485e-16 -5 -2
      vertex -9.18485e-16 -5 2
    endloop
  endfacet
  facet normal 0.83147 0.55557 -0
    outer loop
      vertex -4.6194 -1.91342 -2
      vertex -4.6194 -1.91342 2
      vertex -3.53553 -3.53553 2
    endloop
  endfacet
  facet normal 0.83147 0.55557 -0
    outer loop
      vertex -3.53553 -3.53553 -2
      vertex -4.6194 -1.91342 -2
      vertex -3.53553 -3.53553 2
    endloop
  endfacet
  facet normal -0.980785 -0.19509 0
    outer loop
      vertex 4.6194 1.91342 -2
      vertex 5 0 -2
      vertex 5 0 2
    endloop
  endfacet
  facet normal -0.980785 -0.19509 -0
    outer loop
      vertex 4.6194 1.91342 2
      vertex 4.6194 1.91342 -2
      vertex 5 0 2
    endloop
  endfacet
  facet normal -0.55557 -0.83147 0
    outer loop
      vertex 1.91342 4.6194 2
      vertex 3.53553 3.53553 -2
      vertex 3.53553 3.53553 2
    endloop
  endfacet
  facet normal -0.55557 -0.83147 -0
    outer loop
      vertex 1.91342 4.6194 2
      vertex 1.91342 4.6194 -2
      vertex 3.53553 3.53553 -2
    endloop
  endfacet
  facet normal -0.83147 -0.55557 0
    outer loop
      vertex 3.53553 3.53553 -2
      vertex 4.6194 1.91342 -2
      vertex 4.6194 1.91342 2
    endloop
  endfacet
  facet normal -0.83147 -0.55557 -0
    outer loop
      vertex 3.53553 3.53553 2
      vertex 3.53553 3.53553 -2
      vertex 4.6194 1.91342 2
    endloop
  endfacet
  facet normal -0.19509 -0.980785 0
    outer loop
      vertex 3.06162e-16 5 2
      vertex 1.91342 4.6194 -2
      vertex 1.91342 4.6194 2
    endloop
  endfacet
  facet normal -0.19509 -0.980785 -0
    outer loop
      vertex 3.06162e-16 5 2
      vertex 3.06162e-16 5 -2
      vertex 1.91342 4.6194 -2
    endloop
  endfacet
  facet normal 0.55557 0.83147 -0
    outer loop
      vertex -1.91342 -4.6194 -2
      vertex -3.53553 -3.53553 2
      vertex -1.91342 -4.6194 2
    endloop
  endfacet
  facet normal 0.55557 0.83147 0
    outer loop
      vertex -1.91342 -4.6194 -2
      vertex -3.53553 -3.53553 -2
      vertex -3.53553 -3.53553 2
    endloop
  endfacet
  facet normal -0.980785 0.19509 0
    outer loop
      vertex 5 0 -2
      vertex 4.6194 -1.91342 2
      vertex 5 0 2
    endloop
  endfacet
  facet normal -0.980785 0.19509 0
    outer loop
      vertex 5 0 -2
      vertex 4.6194 -1.91342 -2
      vertex 4.6194 -1.91342 2
    endloop
  endfacet
  facet normal 0.83147 -0.55557 0
    outer loop
      vertex -4.6194 1.91342 2
      vertex -3.53553 3.53553 -2
      vertex -3.53553 3.53553 2
    endloop
  endfacet
  facet normal 0.83147 -0.55557 0
    outer loop
      vertex -4.6194 1.91342 2
      vertex -4.6194 1.91342 -2
      vertex -3.53553 3.53553 -2
    endloop
  endfacet
  facet normal 0.55557 -0.83147 0
    outer loop
      vertex -3.53553 3.53553 2
      vertex -1.91342 4.6194 -2
      vertex -1.91342 4.6194 2
    endloop
  endfacet
  facet normal 0.55557 -0.83147 0
    outer loop
      vertex -3.53553 3.53553 2
      vertex -3.53553 3.53553 -2
      vertex -1.91342 4.6194 -2
    endloop
  endfacet
  facet normal -0.83147 0.55557 0
    outer loop
      vertex 4.6194 -1.91342 -2
      vertex 3.53553 -3.53553 2
      vertex 4.6194 -1.91342 2
    endloop
  endfacet
  facet normal -0.83147 0.55557 0
    outer loop
      vertex 4.6194 -1.91342 -2
      vertex 3.53553 -3.53553 -2
      vertex 3.53553 -3.53553 2
    endloop
  endfacet
endsolid OpenSCAD_Model
