solid OpenSCAD_Model
  facet normal -1.22465e-16 0 1
    outer loop
      vertex -25.5962 -4.59619 7.5
      vertex -25.9862 -4.13961 7.5
      vertex -25.2812 -5.29007 7.5
    endloop
  endfacet
  facet normal -1.22465e-16 0 1
    outer loop
      vertex -23.2901 -7.28115 7.5
      vertex -25.5962 -4.59619 7.5
      vertex -24.364 -6.36396 7.5
    endloop
  endfacet
  facet normal -1.22465e-16 0 1
    outer loop
      vertex -24.364 -6.36396 7.5
      vertex -25.5962 -4.59619 7.5
      vertex -25.2812 -5.29007 7.5
    endloop
  endfacet
  facet normal -1.22465e-16 0 1
    outer loop
      vertex -25.5962 4.59619 7.5
      vertex -24.8206 5.25861 7.5
      vertex -25.2812 5.29007 7.5
    endloop
  endfacet
  facet normal -1.22465e-16 0 1
    outer loop
      vertex -23.9509 -5.79154 7.5
      vertex -24.8206 -5.25861 7.5
      vertex -20.7812 -8.55951 7.5
    endloop
  endfacet
  facet normal -1.22465e-16 0 1
    outer loop
      vertex -23.0086 -6.18187 7.5
      vertex -23.9509 -5.79154 7.5
      vertex -19.4079 -8.88919 7.5
    endloop
  endfacet
  facet normal -1.22465e-16 0 1
    outer loop
      vertex -20.3949 -7.37069 7.5
      vertex -21.5184 -6.9053 7.5
      vertex -18 -9 7.5
    endloop
  endfacet
  facet normal -1.22465e-16 0 1
    outer loop
      vertex -18 -7.75 7.5
      vertex -19.2124 -7.65458 7.5
      vertex -16.5921 -8.88919 7.5
    endloop
  endfacet
  facet normal -1.22465e-16 0 1
    outer loop
      vertex -16.7876 -7.65458 7.5
      vertex -18 -7.75 7.5
      vertex -15.2188 -8.55951 7.5
    endloop
  endfacet
  facet normal -1.22465e-16 0 1
    outer loop
      vertex -15.6051 -7.37069 7.5
      vertex -16.7876 -7.65458 7.5
      vertex -13.9141 -8.01906 7.5
    endloop
  endfacet
  facet normal -1.22465e-16 0 1
    outer loop
      vertex -13.4447 -6.26988 7.5
      vertex -14.4816 -6.9053 7.5
      vertex -12.7099 -7.28115 7.5
    endloop
  endfacet
  facet normal -1.22465e-16 0 1
    outer loop
      vertex -12.5199 -5.48008 7.5
      vertex -13.4447 -6.26988 7.5
      vertex -11.636 -6.36396 7.5
    endloop
  endfacet
  facet normal -1.22465e-16 0 1
    outer loop
      vertex -11.7301 -4.55534 7.5
      vertex -12.5199 -5.48008 7.5
      vertex -10.7188 -5.29007 7.5
    endloop
  endfacet
  facet normal -1.22465e-16 0 1
    outer loop
      vertex -11.0947 -3.51843 7.5
      vertex -11.7301 -4.55534 7.5
      vertex -9.98094 -4.08591 7.5
    endloop
  endfacet
  facet normal -1.22465e-16 0 1
    outer loop
      vertex -10.6293 -2.39488 7.5
      vertex -11.0947 -3.51843 7.5
      vertex -9.44049 -2.78115 7.5
    endloop
  endfacet
  facet normal -1.22465e-16 0 1
    outer loop
      vertex -10.3454 -1.21237 7.5
      vertex -10.6293 -2.39488 7.5
      vertex -9.11081 -1.40791 7.5
    endloop
  endfacet
  facet normal -1.22465e-16 0 1
    outer loop
      vertex -10.25 0 7.5
      vertex -10.3454 -1.21237 7.5
      vertex -9 0 7.5
    endloop
  endfacet
  facet normal -1.22465e-16 0 1
    outer loop
      vertex -10.3454 1.21237 7.5
      vertex -10.25 0 7.5
      vertex -9.11081 1.40791 7.5
    endloop
  endfacet
  facet normal -1.22465e-16 0 1
    outer loop
      vertex -10.6293 2.39488 7.5
      vertex -10.3454 1.21237 7.5
      vertex -9.44049 2.78115 7.5
    endloop
  endfacet
  facet normal -1.22465e-16 0 1
    outer loop
      vertex -11.0947 3.51843 7.5
      vertex -10.6293 2.39488 7.5
      vertex -9.98094 4.08591 7.5
    endloop
  endfacet
  facet normal -1.22465e-16 0 1
    outer loop
      vertex -12.5199 5.48008 7.5
      vertex -11.7301 4.55534 7.5
      vertex -10.7188 5.29007 7.5
    endloop
  endfacet
  facet normal -1.22465e-16 0 1
    outer loop
      vertex -13.4447 6.26988 7.5
      vertex -12.5199 5.48008 7.5
      vertex -11.636 6.36396 7.5
    endloop
  endfacet
  facet normal -1.22465e-16 0 1
    outer loop
      vertex -14.4816 6.9053 7.5
      vertex -13.4447 6.26988 7.5
      vertex -12.7099 7.28115 7.5
    endloop
  endfacet
  facet normal -1.22465e-16 0 1
    outer loop
      vertex -15.6051 7.37069 7.5
      vertex -14.4816 6.9053 7.5
      vertex -13.9141 8.01906 7.5
    endloop
  endfacet
  facet normal -1.22465e-16 0 1
    outer loop
      vertex -16.7876 7.65458 7.5
      vertex -15.6051 7.37069 7.5
      vertex -15.2188 8.55951 7.5
    endloop
  endfacet
  facet normal -1.22465e-16 0 1
    outer loop
      vertex -18 7.75 7.5
      vertex -16.7876 7.65458 7.5
      vertex -16.5921 8.88919 7.5
    endloop
  endfacet
  facet normal -1.22465e-16 0 1
    outer loop
      vertex -19.2124 7.65458 7.5
      vertex -18 7.75 7.5
      vertex -18 9 7.5
    endloop
  endfacet
  facet normal -1.22465e-16 0 1
    outer loop
      vertex -20.3949 7.37069 7.5
      vertex -19.2124 7.65458 7.5
      vertex -19.4079 8.88919 7.5
    endloop
  endfacet
  facet normal -1.22465e-16 0 1
    outer loop
      vertex -21.5184 6.9053 7.5
      vertex -20.3949 7.37069 7.5
      vertex -20.7812 8.55951 7.5
    endloop
  endfacet
  facet normal -1.22465e-16 0 1
    outer loop
      vertex -23.0086 6.18187 7.5
      vertex -22.4995 6.30409 7.5
      vertex -22.0859 8.01906 7.5
    endloop
  endfacet
  facet normal -1.22465e-16 0 1
    outer loop
      vertex -23.9509 5.79154 7.5
      vertex -23.0086 6.18187 7.5
      vertex -23.2901 7.28115 7.5
    endloop
  endfacet
  facet normal -1.22465e-16 0 1
    outer loop
      vertex -24.8206 5.25861 7.5
      vertex -23.9509 5.79154 7.5
      vertex -24.364 6.36396 7.5
    endloop
  endfacet
  facet normal -1.22465e-16 0 1
    outer loop
      vertex -25.9862 4.13961 7.5
      vertex -25.5962 4.59619 7.5
      vertex -25.2812 5.29007 7.5
    endloop
  endfacet
  facet normal -1.22465e-16 0 1
    outer loop
      vertex -25.2812 5.29007 7.5
      vertex -24.8206 5.25861 7.5
      vertex -24.364 6.36396 7.5
    endloop
  endfacet
  facet normal -1.22465e-16 0 1
    outer loop
      vertex -24.364 6.36396 7.5
      vertex -23.9509 5.79154 7.5
      vertex -23.2901 7.28115 7.5
    endloop
  endfacet
  facet normal -1.22465e-16 0 1
    outer loop
      vertex -23.2901 7.28115 7.5
      vertex -23.0086 6.18187 7.5
      vertex -22.0859 8.01906 7.5
    endloop
  endfacet
  facet normal -1.22465e-16 0 1
    outer loop
      vertex -22.0859 8.01906 7.5
      vertex -22.4995 6.30409 7.5
      vertex -20.7812 8.55951 7.5
    endloop
  endfacet
  facet normal -1.22465e-16 0 1
    outer loop
      vertex -22.4995 6.30409 7.5
      vertex -21.5184 6.9053 7.5
      vertex -20.7812 8.55951 7.5
    endloop
  endfacet
  facet normal -1.22465e-16 0 1
    outer loop
      vertex -20.7812 8.55951 7.5
      vertex -20.3949 7.37069 7.5
      vertex -19.4079 8.88919 7.5
    endloop
  endfacet
  facet normal -1.22465e-16 0 1
    outer loop
      vertex -19.4079 8.88919 7.5
      vertex -19.2124 7.65458 7.5
      vertex -18 9 7.5
    endloop
  endfacet
  facet normal -1.22465e-16 0 1
    outer loop
      vertex -18 9 7.5
      vertex -18 7.75 7.5
      vertex -16.5921 8.88919 7.5
    endloop
  endfacet
  facet normal -1.22465e-16 0 1
    outer loop
      vertex -16.5921 8.88919 7.5
      vertex -16.7876 7.65458 7.5
      vertex -15.2188 8.55951 7.5
    endloop
  endfacet
  facet normal -1.22465e-16 0 1
    outer loop
      vertex -15.2188 8.55951 7.5
      vertex -15.6051 7.37069 7.5
      vertex -13.9141 8.01906 7.5
    endloop
  endfacet
  facet normal -1.22465e-16 0 1
    outer loop
      vertex -13.9141 8.01906 7.5
      vertex -14.4816 6.9053 7.5
      vertex -12.7099 7.28115 7.5
    endloop
  endfacet
  facet normal -1.22465e-16 0 1
    outer loop
      vertex -12.7099 7.28115 7.5
      vertex -13.4447 6.26988 7.5
      vertex -11.636 6.36396 7.5
    endloop
  endfacet
  facet normal -1.22465e-16 0 1
    outer loop
      vertex -11.636 6.36396 7.5
      vertex -12.5199 5.48008 7.5
      vertex -10.7188 5.29007 7.5
    endloop
  endfacet
  facet normal -1.22465e-16 0 1
    outer loop
      vertex -10.7188 5.29007 7.5
      vertex -11.7301 4.55534 7.5
      vertex -9.98094 4.08591 7.5
    endloop
  endfacet
  facet normal -1.22465e-16 0 1
    outer loop
      vertex -11.7301 4.55534 7.5
      vertex -11.0947 3.51843 7.5
      vertex -9.98094 4.08591 7.5
    endloop
  endfacet
  facet normal -1.22465e-16 0 1
    outer loop
      vertex -9.98094 4.08591 7.5
      vertex -10.6293 2.39488 7.5
      vertex -9.44049 2.78115 7.5
    endloop
  endfacet
  facet normal -1.22465e-16 0 1
    outer loop
      vertex -9.44049 2.78115 7.5
      vertex -10.3454 1.21237 7.5
      vertex -9.11081 1.40791 7.5
    endloop
  endfacet
  facet normal -1.22465e-16 0 1
    outer loop
      vertex -9.11081 1.40791 7.5
      vertex -10.25 0 7.5
      vertex -9 0 7.5
    endloop
  endfacet
  facet normal -1.22465e-16 0 1
    outer loop
      vertex -9 0 7.5
      vertex -10.3454 -1.21237 7.5
      vertex -9.11081 -1.40791 7.5
    endloop
  endfacet
  facet normal -1.22465e-16 0 1
    outer loop
      vertex -9.11081 -1.40791 7.5
      vertex -10.6293 -2.39488 7.5
      vertex -9.44049 -2.78115 7.5
    endloop
  endfacet
  facet normal -1.22465e-16 0 1
    outer loop
      vertex -9.44049 -2.78115 7.5
      vertex -11.0947 -3.51843 7.5
      vertex -9.98094 -4.08591 7.5
    endloop
  endfacet
  facet normal -1.22465e-16 0 1
    outer loop
      vertex -9.98094 -4.08591 7.5
      vertex -11.7301 -4.55534 7.5
      vertex -10.7188 -5.29007 7.5
    endloop
  endfacet
  facet normal -1.22465e-16 0 1
    outer loop
      vertex -10.7188 -5.29007 7.5
      vertex -12.5199 -5.48008 7.5
      vertex -11.636 -6.36396 7.5
    endloop
  endfacet
  facet normal -1.22465e-16 0 1
    outer loop
      vertex -11.636 -6.36396 7.5
      vertex -13.4447 -6.26988 7.5
      vertex -12.7099 -7.28115 7.5
    endloop
  endfacet
  facet normal -1.22465e-16 0 1
    outer loop
      vertex -12.7099 -7.28115 7.5
      vertex -14.4816 -6.9053 7.5
      vertex -13.9141 -8.01906 7.5
    endloop
  endfacet
  facet normal -1.22465e-16 0 1
    outer loop
      vertex -14.4816 -6.9053 7.5
      vertex -15.6051 -7.37069 7.5
      vertex -13.9141 -8.01906 7.5
    endloop
  endfacet
  facet normal -1.22465e-16 0 1
    outer loop
      vertex -13.9141 -8.01906 7.5
      vertex -16.7876 -7.65458 7.5
      vertex -15.2188 -8.55951 7.5
    endloop
  endfacet
  facet normal -1.22465e-16 0 1
    outer loop
      vertex -15.2188 -8.55951 7.5
      vertex -18 -7.75 7.5
      vertex -16.5921 -8.88919 7.5
    endloop
  endfacet
  facet normal -1.22465e-16 0 1
    outer loop
      vertex -16.5921 -8.88919 7.5
      vertex -19.2124 -7.65458 7.5
      vertex -18 -9 7.5
    endloop
  endfacet
  facet normal -1.22465e-16 0 1
    outer loop
      vertex -19.2124 -7.65458 7.5
      vertex -20.3949 -7.37069 7.5
      vertex -18 -9 7.5
    endloop
  endfacet
  facet normal -1.22465e-16 0 1
    outer loop
      vertex -18 -9 7.5
      vertex -21.5184 -6.9053 7.5
      vertex -19.4079 -8.88919 7.5
    endloop
  endfacet
  facet normal -1.22465e-16 0 1
    outer loop
      vertex -21.5184 -6.9053 7.5
      vertex -22.4995 -6.30409 7.5
      vertex -19.4079 -8.88919 7.5
    endloop
  endfacet
  facet normal -1.22465e-16 0 1
    outer loop
      vertex -22.4995 -6.30409 7.5
      vertex -23.0086 -6.18187 7.5
      vertex -19.4079 -8.88919 7.5
    endloop
  endfacet
  facet normal -1.22465e-16 0 1
    outer loop
      vertex -19.4079 -8.88919 7.5
      vertex -23.9509 -5.79154 7.5
      vertex -20.7812 -8.55951 7.5
    endloop
  endfacet
  facet normal -1.22465e-16 0 1
    outer loop
      vertex -20.7812 -8.55951 7.5
      vertex -24.8206 -5.25861 7.5
      vertex -22.0859 -8.01906 7.5
    endloop
  endfacet
  facet normal -1.22465e-16 0 1
    outer loop
      vertex -24.8206 -5.25861 7.5
      vertex -23.2901 -7.28115 7.5
      vertex -22.0859 -8.01906 7.5
    endloop
  endfacet
  facet normal -1.22465e-16 0 1
    outer loop
      vertex -24.8206 -5.25861 7.5
      vertex -25.5962 -4.59619 7.5
      vertex -23.2901 -7.28115 7.5
    endloop
  endfacet
  facet normal -0.85264 -0.522499 -1.04418e-16
    outer loop
      vertex -25.9862 -4.13961 7.5
      vertex -25.9862 -4.13961 -7.5
      vertex -25.2812 -5.29007 7.5
    endloop
  endfacet
  facet normal -0.85264 -0.522499 -1.04418e-16
    outer loop
      vertex -25.2812 -5.29007 7.5
      vertex -25.9862 -4.13961 -7.5
      vertex -25.2812 -5.29007 -7.5
    endloop
  endfacet
  facet normal 0.760406 0.649448 9.31229e-17
    outer loop
      vertex -25.5962 -4.59619 7.5
      vertex -25.5962 -4.59619 -7.5
      vertex -25.9862 -4.13961 -7.5
    endloop
  endfacet
  facet normal 0.760406 0.649448 9.31229e-17
    outer loop
      vertex -25.9862 -4.13961 7.5
      vertex -25.5962 -4.59619 7.5
      vertex -25.9862 -4.13961 -7.5
    endloop
  endfacet
  facet normal 0.649448 0.760406 7.95344e-17
    outer loop
      vertex -24.8206 -5.25861 -7.5
      vertex -25.5962 -4.59619 -7.5
      vertex -24.8206 -5.25861 7.5
    endloop
  endfacet
  facet normal 0.649448 0.760406 7.95344e-17
    outer loop
      vertex -24.8206 -5.25861 7.5
      vertex -25.5962 -4.59619 -7.5
      vertex -25.5962 -4.59619 7.5
    endloop
  endfacet
  facet normal 0.522499 0.85264 6.39876e-17
    outer loop
      vertex -23.9509 -5.79154 -7.5
      vertex -24.8206 -5.25861 -7.5
      vertex -23.9509 -5.79154 7.5
    endloop
  endfacet
  facet normal 0.522499 0.85264 6.39876e-17
    outer loop
      vertex -23.9509 -5.79154 7.5
      vertex -24.8206 -5.25861 -7.5
      vertex -24.8206 -5.25861 7.5
    endloop
  endfacet
  facet normal 0.382683 0.92388 4.68652e-17
    outer loop
      vertex -23.0086 -6.18187 -7.5
      vertex -23.9509 -5.79154 -7.5
      vertex -23.0086 -6.18187 7.5
    endloop
  endfacet
  facet normal 0.382683 0.92388 4.68652e-17
    outer loop
      vertex -23.0086 -6.18187 7.5
      vertex -23.9509 -5.79154 -7.5
      vertex -23.9509 -5.79154 7.5
    endloop
  endfacet
  facet normal 0.233446 0.97237 2.85888e-17
    outer loop
      vertex -22.4995 -6.30409 -7.5
      vertex -23.0086 -6.18187 -7.5
      vertex -22.4995 -6.30409 7.5
    endloop
  endfacet
  facet normal 0.233446 0.97237 2.85888e-17
    outer loop
      vertex -22.4995 -6.30409 7.5
      vertex -23.0086 -6.18187 -7.5
      vertex -23.0086 -6.18187 7.5
    endloop
  endfacet
  facet normal 0.522498 0.85264 6.39876e-17
    outer loop
      vertex -21.5184 -6.9053 -7.5
      vertex -22.4995 -6.30409 -7.5
      vertex -21.5184 -6.9053 7.5
    endloop
  endfacet
  facet normal 0.522498 0.85264 6.39876e-17
    outer loop
      vertex -21.5184 -6.9053 7.5
      vertex -22.4995 -6.30409 -7.5
      vertex -22.4995 -6.30409 7.5
    endloop
  endfacet
  facet normal 0.382683 0.92388 4.68652e-17
    outer loop
      vertex -20.3949 -7.37069 -7.5
      vertex -21.5184 -6.9053 -7.5
      vertex -20.3949 -7.37069 7.5
    endloop
  endfacet
  facet normal 0.382683 0.92388 4.68652e-17
    outer loop
      vertex -20.3949 -7.37069 7.5
      vertex -21.5184 -6.9053 -7.5
      vertex -21.5184 -6.9053 7.5
    endloop
  endfacet
  facet normal 0.233446 0.97237 2.85888e-17
    outer loop
      vertex -19.2124 -7.65458 -7.5
      vertex -20.3949 -7.37069 -7.5
      vertex -19.2124 -7.65458 7.5
    endloop
  endfacet
  facet normal 0.233446 0.97237 2.85888e-17
    outer loop
      vertex -19.2124 -7.65458 7.5
      vertex -20.3949 -7.37069 -7.5
      vertex -20.3949 -7.37069 7.5
    endloop
  endfacet
  facet normal 0.0784588 0.996917 9.60843e-18
    outer loop
      vertex -18 -7.75 -7.5
      vertex -19.2124 -7.65458 -7.5
      vertex -18 -7.75 7.5
    endloop
  endfacet
  facet normal 0.0784588 0.996917 9.60843e-18
    outer loop
      vertex -18 -7.75 7.5
      vertex -19.2124 -7.65458 -7.5
      vertex -19.2124 -7.65458 7.5
    endloop
  endfacet
  facet normal -0.0784588 0.996917 -9.60843e-18
    outer loop
      vertex -16.7876 -7.65458 -7.5
      vertex -18 -7.75 -7.5
      vertex -16.7876 -7.65458 7.5
    endloop
  endfacet
  facet normal -0.0784588 0.996917 -9.60843e-18
    outer loop
      vertex -16.7876 -7.65458 7.5
      vertex -18 -7.75 -7.5
      vertex -18 -7.75 7.5
    endloop
  endfacet
  facet normal -0.233446 0.97237 -2.85888e-17
    outer loop
      vertex -15.6051 -7.37069 -7.5
      vertex -16.7876 -7.65458 -7.5
      vertex -15.6051 -7.37069 7.5
    endloop
  endfacet
  facet normal -0.233446 0.97237 -2.85888e-17
    outer loop
      vertex -15.6051 -7.37069 7.5
      vertex -16.7876 -7.65458 -7.5
      vertex -16.7876 -7.65458 7.5
    endloop
  endfacet
  facet normal -0.382683 0.92388 -4.68652e-17
    outer loop
      vertex -14.4816 -6.9053 -7.5
      vertex -15.6051 -7.37069 -7.5
      vertex -14.4816 -6.9053 7.5
    endloop
  endfacet
  facet normal -0.382683 0.92388 -4.68652e-17
    outer loop
      vertex -14.4816 -6.9053 7.5
      vertex -15.6051 -7.37069 -7.5
      vertex -15.6051 -7.37069 7.5
    endloop
  endfacet
  facet normal -0.522498 0.85264 -6.39876e-17
    outer loop
      vertex -13.4447 -6.26988 -7.5
      vertex -14.4816 -6.9053 -7.5
      vertex -13.4447 -6.26988 7.5
    endloop
  endfacet
  facet normal -0.522498 0.85264 -6.39876e-17
    outer loop
      vertex -13.4447 -6.26988 7.5
      vertex -14.4816 -6.9053 -7.5
      vertex -14.4816 -6.9053 7.5
    endloop
  endfacet
  facet normal -0.649448 0.760406 -7.95344e-17
    outer loop
      vertex -12.5199 -5.48008 -7.5
      vertex -13.4447 -6.26988 -7.5
      vertex -12.5199 -5.48008 7.5
    endloop
  endfacet
  facet normal -0.649448 0.760406 -7.95344e-17
    outer loop
      vertex -12.5199 -5.48008 7.5
      vertex -13.4447 -6.26988 -7.5
      vertex -13.4447 -6.26988 7.5
    endloop
  endfacet
  facet normal -0.760406 0.649448 -9.31229e-17
    outer loop
      vertex -11.7301 -4.55534 -7.5
      vertex -12.5199 -5.48008 -7.5
      vertex -11.7301 -4.55534 7.5
    endloop
  endfacet
  facet normal -0.760406 0.649448 -9.31229e-17
    outer loop
      vertex -11.7301 -4.55534 7.5
      vertex -12.5199 -5.48008 -7.5
      vertex -12.5199 -5.48008 7.5
    endloop
  endfacet
  facet normal -0.85264 0.522498 -1.04418e-16
    outer loop
      vertex -11.0947 -3.51843 -7.5
      vertex -11.7301 -4.55534 -7.5
      vertex -11.0947 -3.51843 7.5
    endloop
  endfacet
  facet normal -0.85264 0.522498 -1.04418e-16
    outer loop
      vertex -11.0947 -3.51843 7.5
      vertex -11.7301 -4.55534 -7.5
      vertex -11.7301 -4.55534 7.5
    endloop
  endfacet
  facet normal -0.92388 0.382683 -1.13143e-16
    outer loop
      vertex -10.6293 -2.39488 -7.5
      vertex -11.0947 -3.51843 -7.5
      vertex -10.6293 -2.39488 7.5
    endloop
  endfacet
  facet normal -0.92388 0.382683 -1.13143e-16
    outer loop
      vertex -10.6293 -2.39488 7.5
      vertex -11.0947 -3.51843 -7.5
      vertex -11.0947 -3.51843 7.5
    endloop
  endfacet
  facet normal -0.97237 0.233446 -1.19081e-16
    outer loop
      vertex -10.3454 -1.21237 -7.5
      vertex -10.6293 -2.39488 -7.5
      vertex -10.3454 -1.21237 7.5
    endloop
  endfacet
  facet normal -0.97237 0.233446 -1.19081e-16
    outer loop
      vertex -10.3454 -1.21237 7.5
      vertex -10.6293 -2.39488 -7.5
      vertex -10.6293 -2.39488 7.5
    endloop
  endfacet
  facet normal -0.996917 0.0784588 -1.22087e-16
    outer loop
      vertex -10.25 0 -7.5
      vertex -10.3454 -1.21237 -7.5
      vertex -10.25 0 7.5
    endloop
  endfacet
  facet normal -0.996917 0.0784588 -1.22087e-16
    outer loop
      vertex -10.25 0 7.5
      vertex -10.3454 -1.21237 -7.5
      vertex -10.3454 -1.21237 7.5
    endloop
  endfacet
  facet normal -0.996917 -0.0784588 -1.22087e-16
    outer loop
      vertex -10.25 0 -7.5
      vertex -10.25 0 7.5
      vertex -10.3454 1.21237 -7.5
    endloop
  endfacet
  facet normal -0.996917 -0.0784588 -1.22087e-16
    outer loop
      vertex -10.3454 1.21237 -7.5
      vertex -10.25 0 7.5
      vertex -10.3454 1.21237 7.5
    endloop
  endfacet
  facet normal -0.97237 -0.233446 -1.19081e-16
    outer loop
      vertex -10.3454 1.21237 -7.5
      vertex -10.3454 1.21237 7.5
      vertex -10.6293 2.39488 -7.5
    endloop
  endfacet
  facet normal -0.97237 -0.233446 -1.19081e-16
    outer loop
      vertex -10.6293 2.39488 -7.5
      vertex -10.3454 1.21237 7.5
      vertex -10.6293 2.39488 7.5
    endloop
  endfacet
  facet normal -0.92388 -0.382683 -1.13143e-16
    outer loop
      vertex -10.6293 2.39488 -7.5
      vertex -10.6293 2.39488 7.5
      vertex -11.0947 3.51843 -7.5
    endloop
  endfacet
  facet normal -0.92388 -0.382683 -1.13143e-16
    outer loop
      vertex -11.0947 3.51843 -7.5
      vertex -10.6293 2.39488 7.5
      vertex -11.0947 3.51843 7.5
    endloop
  endfacet
  facet normal -0.85264 -0.522498 -1.04418e-16
    outer loop
      vertex -11.0947 3.51843 -7.5
      vertex -11.0947 3.51843 7.5
      vertex -11.7301 4.55534 -7.5
    endloop
  endfacet
  facet normal -0.85264 -0.522498 -1.04418e-16
    outer loop
      vertex -11.7301 4.55534 -7.5
      vertex -11.0947 3.51843 7.5
      vertex -11.7301 4.55534 7.5
    endloop
  endfacet
  facet normal -0.760406 -0.649448 -9.31229e-17
    outer loop
      vertex -11.7301 4.55534 -7.5
      vertex -11.7301 4.55534 7.5
      vertex -12.5199 5.48008 -7.5
    endloop
  endfacet
  facet normal -0.760406 -0.649448 -9.31229e-17
    outer loop
      vertex -12.5199 5.48008 -7.5
      vertex -11.7301 4.55534 7.5
      vertex -12.5199 5.48008 7.5
    endloop
  endfacet
  facet normal -0.649448 -0.760406 -7.95344e-17
    outer loop
      vertex -13.4447 6.26988 -7.5
      vertex -12.5199 5.48008 -7.5
      vertex -12.5199 5.48008 7.5
    endloop
  endfacet
  facet normal -0.649448 -0.760406 -7.95344e-17
    outer loop
      vertex -13.4447 6.26988 7.5
      vertex -13.4447 6.26988 -7.5
      vertex -12.5199 5.48008 7.5
    endloop
  endfacet
  facet normal -0.522498 -0.85264 -6.39876e-17
    outer loop
      vertex -14.4816 6.9053 -7.5
      vertex -13.4447 6.26988 -7.5
      vertex -13.4447 6.26988 7.5
    endloop
  endfacet
  facet normal -0.522498 -0.85264 -6.39876e-17
    outer loop
      vertex -14.4816 6.9053 7.5
      vertex -14.4816 6.9053 -7.5
      vertex -13.4447 6.26988 7.5
    endloop
  endfacet
  facet normal -0.382683 -0.92388 -4.68652e-17
    outer loop
      vertex -15.6051 7.37069 -7.5
      vertex -14.4816 6.9053 -7.5
      vertex -14.4816 6.9053 7.5
    endloop
  endfacet
  facet normal -0.382683 -0.92388 -4.68652e-17
    outer loop
      vertex -15.6051 7.37069 7.5
      vertex -15.6051 7.37069 -7.5
      vertex -14.4816 6.9053 7.5
    endloop
  endfacet
  facet normal -0.233446 -0.97237 -2.85888e-17
    outer loop
      vertex -16.7876 7.65458 -7.5
      vertex -15.6051 7.37069 -7.5
      vertex -15.6051 7.37069 7.5
    endloop
  endfacet
  facet normal -0.233446 -0.97237 -2.85888e-17
    outer loop
      vertex -16.7876 7.65458 7.5
      vertex -16.7876 7.65458 -7.5
      vertex -15.6051 7.37069 7.5
    endloop
  endfacet
  facet normal -0.0784588 -0.996917 -9.60843e-18
    outer loop
      vertex -18 7.75 -7.5
      vertex -16.7876 7.65458 -7.5
      vertex -16.7876 7.65458 7.5
    endloop
  endfacet
  facet normal -0.0784588 -0.996917 -9.60843e-18
    outer loop
      vertex -18 7.75 7.5
      vertex -18 7.75 -7.5
      vertex -16.7876 7.65458 7.5
    endloop
  endfacet
  facet normal 0.0784588 -0.996917 9.60843e-18
    outer loop
      vertex -19.2124 7.65458 -7.5
      vertex -18 7.75 -7.5
      vertex -18 7.75 7.5
    endloop
  endfacet
  facet normal 0.0784588 -0.996917 9.60843e-18
    outer loop
      vertex -19.2124 7.65458 7.5
      vertex -19.2124 7.65458 -7.5
      vertex -18 7.75 7.5
    endloop
  endfacet
  facet normal 0.233446 -0.97237 2.85888e-17
    outer loop
      vertex -20.3949 7.37069 -7.5
      vertex -19.2124 7.65458 -7.5
      vertex -19.2124 7.65458 7.5
    endloop
  endfacet
  facet normal 0.233446 -0.97237 2.85888e-17
    outer loop
      vertex -20.3949 7.37069 7.5
      vertex -20.3949 7.37069 -7.5
      vertex -19.2124 7.65458 7.5
    endloop
  endfacet
  facet normal 0.382683 -0.92388 4.68652e-17
    outer loop
      vertex -21.5184 6.9053 -7.5
      vertex -20.3949 7.37069 -7.5
      vertex -20.3949 7.37069 7.5
    endloop
  endfacet
  facet normal 0.382683 -0.92388 4.68652e-17
    outer loop
      vertex -21.5184 6.9053 7.5
      vertex -21.5184 6.9053 -7.5
      vertex -20.3949 7.37069 7.5
    endloop
  endfacet
  facet normal 0.522498 -0.85264 6.39876e-17
    outer loop
      vertex -22.4995 6.30409 -7.5
      vertex -21.5184 6.9053 -7.5
      vertex -21.5184 6.9053 7.5
    endloop
  endfacet
  facet normal 0.522498 -0.85264 6.39876e-17
    outer loop
      vertex -22.4995 6.30409 7.5
      vertex -22.4995 6.30409 -7.5
      vertex -21.5184 6.9053 7.5
    endloop
  endfacet
  facet normal 0.233446 -0.97237 2.85888e-17
    outer loop
      vertex -23.0086 6.18187 -7.5
      vertex -22.4995 6.30409 -7.5
      vertex -22.4995 6.30409 7.5
    endloop
  endfacet
  facet normal 0.233446 -0.97237 2.85888e-17
    outer loop
      vertex -23.0086 6.18187 7.5
      vertex -23.0086 6.18187 -7.5
      vertex -22.4995 6.30409 7.5
    endloop
  endfacet
  facet normal 0.382683 -0.92388 4.68652e-17
    outer loop
      vertex -23.9509 5.79154 -7.5
      vertex -23.0086 6.18187 -7.5
      vertex -23.0086 6.18187 7.5
    endloop
  endfacet
  facet normal 0.382683 -0.92388 4.68652e-17
    outer loop
      vertex -23.9509 5.79154 7.5
      vertex -23.9509 5.79154 -7.5
      vertex -23.0086 6.18187 7.5
    endloop
  endfacet
  facet normal 0.522499 -0.85264 6.39876e-17
    outer loop
      vertex -24.8206 5.25861 -7.5
      vertex -23.9509 5.79154 -7.5
      vertex -23.9509 5.79154 7.5
    endloop
  endfacet
  facet normal 0.522499 -0.85264 6.39876e-17
    outer loop
      vertex -24.8206 5.25861 7.5
      vertex -24.8206 5.25861 -7.5
      vertex -23.9509 5.79154 7.5
    endloop
  endfacet
  facet normal 0.649448 -0.760406 7.95344e-17
    outer loop
      vertex -25.5962 4.59619 -7.5
      vertex -24.8206 5.25861 -7.5
      vertex -24.8206 5.25861 7.5
    endloop
  endfacet
  facet normal 0.649448 -0.760406 7.95344e-17
    outer loop
      vertex -25.5962 4.59619 7.5
      vertex -25.5962 4.59619 -7.5
      vertex -24.8206 5.25861 7.5
    endloop
  endfacet
  facet normal 0.760406 -0.649448 9.31229e-17
    outer loop
      vertex -25.9862 4.13961 -7.5
      vertex -25.5962 4.59619 -7.5
      vertex -25.5962 4.59619 7.5
    endloop
  endfacet
  facet normal 0.760406 -0.649448 9.31229e-17
    outer loop
      vertex -25.9862 4.13961 7.5
      vertex -25.9862 4.13961 -7.5
      vertex -25.5962 4.59619 7.5
    endloop
  endfacet
  facet normal -0.85264 0.522499 -1.04418e-16
    outer loop
      vertex -25.9862 4.13961 7.5
      vertex -25.2812 5.29007 7.5
      vertex -25.9862 4.13961 -7.5
    endloop
  endfacet
  facet normal -0.85264 0.522499 -1.04418e-16
    outer loop
      vertex -25.9862 4.13961 -7.5
      vertex -25.2812 5.29007 7.5
      vertex -25.2812 5.29007 -7.5
    endloop
  endfacet
  facet normal -0.760406 0.649448 -9.31229e-17
    outer loop
      vertex -25.2812 5.29007 7.5
      vertex -24.364 6.36396 7.5
      vertex -25.2812 5.29007 -7.5
    endloop
  endfacet
  facet normal -0.760406 0.649448 -9.31229e-17
    outer loop
      vertex -25.2812 5.29007 -7.5
      vertex -24.364 6.36396 7.5
      vertex -24.364 6.36396 -7.5
    endloop
  endfacet
  facet normal -0.649448 0.760406 -7.95344e-17
    outer loop
      vertex -24.364 6.36396 7.5
      vertex -23.2901 7.28115 7.5
      vertex -24.364 6.36396 -7.5
    endloop
  endfacet
  facet normal -0.649448 0.760406 -7.95344e-17
    outer loop
      vertex -24.364 6.36396 -7.5
      vertex -23.2901 7.28115 7.5
      vertex -23.2901 7.28115 -7.5
    endloop
  endfacet
  facet normal -0.522499 0.85264 -6.39876e-17
    outer loop
      vertex -23.2901 7.28115 7.5
      vertex -22.0859 8.01906 7.5
      vertex -23.2901 7.28115 -7.5
    endloop
  endfacet
  facet normal -0.522499 0.85264 -6.39876e-17
    outer loop
      vertex -23.2901 7.28115 -7.5
      vertex -22.0859 8.01906 7.5
      vertex -22.0859 8.01906 -7.5
    endloop
  endfacet
  facet normal -0.382684 0.923879 -4.68652e-17
    outer loop
      vertex -22.0859 8.01906 7.5
      vertex -20.7812 8.55951 7.5
      vertex -22.0859 8.01906 -7.5
    endloop
  endfacet
  facet normal -0.382684 0.923879 -4.68652e-17
    outer loop
      vertex -22.0859 8.01906 -7.5
      vertex -20.7812 8.55951 7.5
      vertex -20.7812 8.55951 -7.5
    endloop
  endfacet
  facet normal -0.233445 0.97237 -2.85888e-17
    outer loop
      vertex -20.7812 8.55951 7.5
      vertex -19.4079 8.88919 7.5
      vertex -20.7812 8.55951 -7.5
    endloop
  endfacet
  facet normal -0.233445 0.97237 -2.85888e-17
    outer loop
      vertex -20.7812 8.55951 -7.5
      vertex -19.4079 8.88919 7.5
      vertex -19.4079 8.88919 -7.5
    endloop
  endfacet
  facet normal -0.0784592 0.996917 -9.60847e-18
    outer loop
      vertex -19.4079 8.88919 7.5
      vertex -18 9 7.5
      vertex -19.4079 8.88919 -7.5
    endloop
  endfacet
  facet normal -0.0784592 0.996917 -9.60847e-18
    outer loop
      vertex -19.4079 8.88919 -7.5
      vertex -18 9 7.5
      vertex -18 9 -7.5
    endloop
  endfacet
  facet normal 0.0784592 0.996917 9.60847e-18
    outer loop
      vertex -18 9 7.5
      vertex -16.5921 8.88919 7.5
      vertex -18 9 -7.5
    endloop
  endfacet
  facet normal 0.0784592 0.996917 9.60847e-18
    outer loop
      vertex -18 9 -7.5
      vertex -16.5921 8.88919 7.5
      vertex -16.5921 8.88919 -7.5
    endloop
  endfacet
  facet normal 0.233445 0.97237 2.85888e-17
    outer loop
      vertex -16.5921 8.88919 7.5
      vertex -15.2188 8.55951 7.5
      vertex -16.5921 8.88919 -7.5
    endloop
  endfacet
  facet normal 0.233445 0.97237 2.85888e-17
    outer loop
      vertex -16.5921 8.88919 -7.5
      vertex -15.2188 8.55951 7.5
      vertex -15.2188 8.55951 -7.5
    endloop
  endfacet
  facet normal 0.382684 0.923879 4.68652e-17
    outer loop
      vertex -15.2188 8.55951 7.5
      vertex -13.9141 8.01906 7.5
      vertex -15.2188 8.55951 -7.5
    endloop
  endfacet
  facet normal 0.382684 0.923879 4.68652e-17
    outer loop
      vertex -15.2188 8.55951 -7.5
      vertex -13.9141 8.01906 7.5
      vertex -13.9141 8.01906 -7.5
    endloop
  endfacet
  facet normal 0.522499 0.85264 6.39876e-17
    outer loop
      vertex -13.9141 8.01906 7.5
      vertex -12.7099 7.28115 7.5
      vertex -13.9141 8.01906 -7.5
    endloop
  endfacet
  facet normal 0.522499 0.85264 6.39876e-17
    outer loop
      vertex -13.9141 8.01906 -7.5
      vertex -12.7099 7.28115 7.5
      vertex -12.7099 7.28115 -7.5
    endloop
  endfacet
  facet normal 0.649448 0.760406 7.95344e-17
    outer loop
      vertex -12.7099 7.28115 7.5
      vertex -11.636 6.36396 7.5
      vertex -12.7099 7.28115 -7.5
    endloop
  endfacet
  facet normal 0.649448 0.760406 7.95344e-17
    outer loop
      vertex -12.7099 7.28115 -7.5
      vertex -11.636 6.36396 7.5
      vertex -11.636 6.36396 -7.5
    endloop
  endfacet
  facet normal 0.760406 0.649448 9.31229e-17
    outer loop
      vertex -11.636 6.36396 -7.5
      vertex -11.636 6.36396 7.5
      vertex -10.7188 5.29007 7.5
    endloop
  endfacet
  facet normal 0.760406 0.649448 9.31229e-17
    outer loop
      vertex -10.7188 5.29007 -7.5
      vertex -11.636 6.36396 -7.5
      vertex -10.7188 5.29007 7.5
    endloop
  endfacet
  facet normal 0.85264 0.522499 1.04418e-16
    outer loop
      vertex -10.7188 5.29007 -7.5
      vertex -10.7188 5.29007 7.5
      vertex -9.98094 4.08591 7.5
    endloop
  endfacet
  facet normal 0.85264 0.522499 1.04418e-16
    outer loop
      vertex -9.98094 4.08591 -7.5
      vertex -10.7188 5.29007 -7.5
      vertex -9.98094 4.08591 7.5
    endloop
  endfacet
  facet normal 0.923879 0.382684 1.13143e-16
    outer loop
      vertex -9.53182 3.00164 7.5
      vertex -9.98094 4.08591 7.5
      vertex -9.44049 2.78115 7.5
    endloop
  endfacet
  facet normal 0.923879 0.382684 1.13143e-16
    outer loop
      vertex -9.53182 3.00164 7.5
      vertex -9.53182 3.00164 -7.5
      vertex -9.98094 4.08591 -7.5
    endloop
  endfacet
  facet normal 0.923879 0.382684 1.13143e-16
    outer loop
      vertex -9.98094 4.08591 -7.5
      vertex -9.98094 4.08591 7.5
      vertex -9.53182 3.00164 7.5
    endloop
  endfacet
  facet normal 0.923879 -0.382684 1.13143e-16
    outer loop
      vertex -9.53182 -3.00164 7.5
      vertex -9.98094 -4.08591 7.5
      vertex -9.98094 -4.08591 -7.5
    endloop
  endfacet
  facet normal 0.923879 -0.382684 1.13143e-16
    outer loop
      vertex -9.44049 -2.78115 7.5
      vertex -9.98094 -4.08591 7.5
      vertex -9.53182 -3.00164 7.5
    endloop
  endfacet
  facet normal 0.923879 -0.382684 1.13143e-16
    outer loop
      vertex -9.53182 -3.00164 -7.5
      vertex -9.53182 -3.00164 7.5
      vertex -9.98094 -4.08591 -7.5
    endloop
  endfacet
  facet normal 0.85264 -0.522499 1.04418e-16
    outer loop
      vertex -9.98094 -4.08591 7.5
      vertex -10.7188 -5.29007 7.5
      vertex -10.7188 -5.29007 -7.5
    endloop
  endfacet
  facet normal 0.85264 -0.522499 1.04418e-16
    outer loop
      vertex -9.98094 -4.08591 -7.5
      vertex -9.98094 -4.08591 7.5
      vertex -10.7188 -5.29007 -7.5
    endloop
  endfacet
  facet normal 0.760406 -0.649448 9.31229e-17
    outer loop
      vertex -10.7188 -5.29007 7.5
      vertex -11.636 -6.36396 7.5
      vertex -11.636 -6.36396 -7.5
    endloop
  endfacet
  facet normal 0.760406 -0.649448 9.31229e-17
    outer loop
      vertex -10.7188 -5.29007 -7.5
      vertex -10.7188 -5.29007 7.5
      vertex -11.636 -6.36396 -7.5
    endloop
  endfacet
  facet normal 0.649448 -0.760406 7.95344e-17
    outer loop
      vertex -11.636 -6.36396 7.5
      vertex -12.7099 -7.28115 7.5
      vertex -12.7099 -7.28115 -7.5
    endloop
  endfacet
  facet normal 0.649448 -0.760406 7.95344e-17
    outer loop
      vertex -11.636 -6.36396 -7.5
      vertex -11.636 -6.36396 7.5
      vertex -12.7099 -7.28115 -7.5
    endloop
  endfacet
  facet normal 0.522499 -0.85264 6.39876e-17
    outer loop
      vertex -12.7099 -7.28115 7.5
      vertex -13.9141 -8.01906 7.5
      vertex -13.9141 -8.01906 -7.5
    endloop
  endfacet
  facet normal 0.522499 -0.85264 6.39876e-17
    outer loop
      vertex -12.7099 -7.28115 -7.5
      vertex -12.7099 -7.28115 7.5
      vertex -13.9141 -8.01906 -7.5
    endloop
  endfacet
  facet normal 0.382684 -0.923879 4.68652e-17
    outer loop
      vertex -13.9141 -8.01906 7.5
      vertex -15.2188 -8.55951 7.5
      vertex -15.2188 -8.55951 -7.5
    endloop
  endfacet
  facet normal 0.382684 -0.923879 4.68652e-17
    outer loop
      vertex -13.9141 -8.01906 -7.5
      vertex -13.9141 -8.01906 7.5
      vertex -15.2188 -8.55951 -7.5
    endloop
  endfacet
  facet normal 0.233445 -0.97237 2.85888e-17
    outer loop
      vertex -15.2188 -8.55951 7.5
      vertex -16.5921 -8.88919 7.5
      vertex -16.5921 -8.88919 -7.5
    endloop
  endfacet
  facet normal 0.233445 -0.97237 2.85888e-17
    outer loop
      vertex -15.2188 -8.55951 -7.5
      vertex -15.2188 -8.55951 7.5
      vertex -16.5921 -8.88919 -7.5
    endloop
  endfacet
  facet normal 0.0784592 -0.996917 9.60847e-18
    outer loop
      vertex -16.5921 -8.88919 7.5
      vertex -18 -9 7.5
      vertex -18 -9 -7.5
    endloop
  endfacet
  facet normal 0.0784592 -0.996917 9.60847e-18
    outer loop
      vertex -16.5921 -8.88919 -7.5
      vertex -16.5921 -8.88919 7.5
      vertex -18 -9 -7.5
    endloop
  endfacet
  facet normal -0.0784592 -0.996917 -9.60847e-18
    outer loop
      vertex -18 -9 7.5
      vertex -19.4079 -8.88919 7.5
      vertex -19.4079 -8.88919 -7.5
    endloop
  endfacet
  facet normal -0.0784592 -0.996917 -9.60847e-18
    outer loop
      vertex -18 -9 -7.5
      vertex -18 -9 7.5
      vertex -19.4079 -8.88919 -7.5
    endloop
  endfacet
  facet normal -0.233445 -0.97237 -2.85888e-17
    outer loop
      vertex -19.4079 -8.88919 7.5
      vertex -20.7812 -8.55951 7.5
      vertex -20.7812 -8.55951 -7.5
    endloop
  endfacet
  facet normal -0.233445 -0.97237 -2.85888e-17
    outer loop
      vertex -19.4079 -8.88919 -7.5
      vertex -19.4079 -8.88919 7.5
      vertex -20.7812 -8.55951 -7.5
    endloop
  endfacet
  facet normal -0.382684 -0.923879 -4.68652e-17
    outer loop
      vertex -20.7812 -8.55951 7.5
      vertex -22.0859 -8.01906 7.5
      vertex -22.0859 -8.01906 -7.5
    endloop
  endfacet
  facet normal -0.382684 -0.923879 -4.68652e-17
    outer loop
      vertex -20.7812 -8.55951 -7.5
      vertex -20.7812 -8.55951 7.5
      vertex -22.0859 -8.01906 -7.5
    endloop
  endfacet
  facet normal -0.522499 -0.85264 -6.39876e-17
    outer loop
      vertex -22.0859 -8.01906 7.5
      vertex -23.2901 -7.28115 7.5
      vertex -23.2901 -7.28115 -7.5
    endloop
  endfacet
  facet normal -0.522499 -0.85264 -6.39876e-17
    outer loop
      vertex -22.0859 -8.01906 -7.5
      vertex -22.0859 -8.01906 7.5
      vertex -23.2901 -7.28115 -7.5
    endloop
  endfacet
  facet normal -0.649448 -0.760406 -7.95344e-17
    outer loop
      vertex -23.2901 -7.28115 7.5
      vertex -24.364 -6.36396 7.5
      vertex -24.364 -6.36396 -7.5
    endloop
  endfacet
  facet normal -0.649448 -0.760406 -7.95344e-17
    outer loop
      vertex -23.2901 -7.28115 -7.5
      vertex -23.2901 -7.28115 7.5
      vertex -24.364 -6.36396 -7.5
    endloop
  endfacet
  facet normal -0.760406 -0.649448 -9.31229e-17
    outer loop
      vertex -25.2812 -5.29007 7.5
      vertex -25.2812 -5.29007 -7.5
      vertex -24.364 -6.36396 7.5
    endloop
  endfacet
  facet normal -0.760406 -0.649448 -9.31229e-17
    outer loop
      vertex -24.364 -6.36396 7.5
      vertex -25.2812 -5.29007 -7.5
      vertex -24.364 -6.36396 -7.5
    endloop
  endfacet
  facet normal 1.22465e-16 0 -1
    outer loop
      vertex -25.9862 -4.13961 -7.5
      vertex -25.5962 -4.59619 -7.5
      vertex -25.2812 -5.29007 -7.5
    endloop
  endfacet
  facet normal 1.22465e-16 0 -1
    outer loop
      vertex -25.2812 -5.29007 -7.5
      vertex -25.5962 -4.59619 -7.5
      vertex -24.8206 -5.25861 -7.5
    endloop
  endfacet
  facet normal 1.22465e-16 0 -1
    outer loop
      vertex -24.8206 -5.25861 -7.5
      vertex -23.9509 -5.79154 -7.5
      vertex -25.2812 -5.29007 -7.5
    endloop
  endfacet
  facet normal 1.22465e-16 0 -1
    outer loop
      vertex -23.9509 -5.79154 -7.5
      vertex -23.0086 -6.18187 -7.5
      vertex -25.2812 -5.29007 -7.5
    endloop
  endfacet
  facet normal 1.22465e-16 0 -1
    outer loop
      vertex -23.0086 -6.18187 -7.5
      vertex -22.4995 -6.30409 -7.5
      vertex -21.5184 -6.9053 -7.5
    endloop
  endfacet
  facet normal 1.22465e-16 0 -1
    outer loop
      vertex -23.0086 -6.18187 -7.5
      vertex -21.5184 -6.9053 -7.5
      vertex -25.2812 -5.29007 -7.5
    endloop
  endfacet
  facet normal 1.22465e-16 0 -1
    outer loop
      vertex -21.5184 -6.9053 -7.5
      vertex -18 -9 -7.5
      vertex -25.2812 -5.29007 -7.5
    endloop
  endfacet
  facet normal 1.22465e-16 0 -1
    outer loop
      vertex -12.5199 -5.48008 -7.5
      vertex -9.53182 -3.00164 -7.5
      vertex -13.4447 -6.26988 -7.5
    endloop
  endfacet
  facet normal 1.22465e-16 0 -1
    outer loop
      vertex -11.7301 -4.55534 -7.5
      vertex -9.53182 -3.00164 -7.5
      vertex -12.5199 -5.48008 -7.5
    endloop
  endfacet
  facet normal 1.22465e-16 0 -1
    outer loop
      vertex -11.0947 -3.51843 -7.5
      vertex -9.87688 -1.56434 -7.5
      vertex -11.7301 -4.55534 -7.5
    endloop
  endfacet
  facet normal 1.22465e-16 0 -1
    outer loop
      vertex -21.5184 6.9053 -7.5
      vertex -22.4995 6.30409 -7.5
      vertex -23.0086 6.18187 -7.5
    endloop
  endfacet
  facet normal 1.22465e-16 0 -1
    outer loop
      vertex -23.0086 6.18187 -7.5
      vertex -23.9509 5.79154 -7.5
      vertex -21.5184 6.9053 -7.5
    endloop
  endfacet
  facet normal 1.22465e-16 0 -1
    outer loop
      vertex -23.9509 5.79154 -7.5
      vertex -25.2812 5.29007 -7.5
      vertex -21.5184 6.9053 -7.5
    endloop
  endfacet
  facet normal 1.22465e-16 0 -1
    outer loop
      vertex -24.8206 5.25861 -7.5
      vertex -25.2812 5.29007 -7.5
      vertex -23.9509 5.79154 -7.5
    endloop
  endfacet
  facet normal 1.22465e-16 0 -1
    outer loop
      vertex -25.5962 4.59619 -7.5
      vertex -25.9862 4.13961 -7.5
      vertex -25.2812 5.29007 -7.5
    endloop
  endfacet
  facet normal 1.22465e-16 0 -1
    outer loop
      vertex -25.5962 4.59619 -7.5
      vertex -25.2812 5.29007 -7.5
      vertex -24.8206 5.25861 -7.5
    endloop
  endfacet
  facet normal 1.22465e-16 0 -1
    outer loop
      vertex -21.5184 6.9053 -7.5
      vertex -25.2812 5.29007 -7.5
      vertex -24.364 6.36396 -7.5
    endloop
  endfacet
  facet normal 1.22465e-16 0 -1
    outer loop
      vertex -21.5184 6.9053 -7.5
      vertex -24.364 6.36396 -7.5
      vertex -20.3949 7.37069 -7.5
    endloop
  endfacet
  facet normal 1.22465e-16 0 -1
    outer loop
      vertex -20.3949 7.37069 -7.5
      vertex -24.364 6.36396 -7.5
      vertex -23.2901 7.28115 -7.5
    endloop
  endfacet
  facet normal 1.22465e-16 0 -1
    outer loop
      vertex -20.3949 7.37069 -7.5
      vertex -23.2901 7.28115 -7.5
      vertex -19.2124 7.65458 -7.5
    endloop
  endfacet
  facet normal 1.22465e-16 0 -1
    outer loop
      vertex -19.2124 7.65458 -7.5
      vertex -23.2901 7.28115 -7.5
      vertex -22.0859 8.01906 -7.5
    endloop
  endfacet
  facet normal 1.22465e-16 0 -1
    outer loop
      vertex -19.2124 7.65458 -7.5
      vertex -22.0859 8.01906 -7.5
      vertex -18 7.75 -7.5
    endloop
  endfacet
  facet normal 1.22465e-16 0 -1
    outer loop
      vertex -18 7.75 -7.5
      vertex -22.0859 8.01906 -7.5
      vertex -20.7812 8.55951 -7.5
    endloop
  endfacet
  facet normal 1.22465e-16 0 -1
    outer loop
      vertex -18 7.75 -7.5
      vertex -20.7812 8.55951 -7.5
      vertex -16.7876 7.65458 -7.5
    endloop
  endfacet
  facet normal 1.22465e-16 0 -1
    outer loop
      vertex -16.7876 7.65458 -7.5
      vertex -20.7812 8.55951 -7.5
      vertex -19.4079 8.88919 -7.5
    endloop
  endfacet
  facet normal 1.22465e-16 0 -1
    outer loop
      vertex -16.7876 7.65458 -7.5
      vertex -19.4079 8.88919 -7.5
      vertex -15.6051 7.37069 -7.5
    endloop
  endfacet
  facet normal 1.22465e-16 0 -1
    outer loop
      vertex -15.6051 7.37069 -7.5
      vertex -19.4079 8.88919 -7.5
      vertex -18 9 -7.5
    endloop
  endfacet
  facet normal 1.22465e-16 0 -1
    outer loop
      vertex -15.6051 7.37069 -7.5
      vertex -18 9 -7.5
      vertex -14.4816 6.9053 -7.5
    endloop
  endfacet
  facet normal 1.22465e-16 0 -1
    outer loop
      vertex -14.4816 6.9053 -7.5
      vertex -18 9 -7.5
      vertex -16.5921 8.88919 -7.5
    endloop
  endfacet
  facet normal 1.22465e-16 0 -1
    outer loop
      vertex -14.4816 6.9053 -7.5
      vertex -16.5921 8.88919 -7.5
      vertex -13.4447 6.26988 -7.5
    endloop
  endfacet
  facet normal 1.22465e-16 0 -1
    outer loop
      vertex -13.4447 6.26988 -7.5
      vertex -16.5921 8.88919 -7.5
      vertex -15.2188 8.55951 -7.5
    endloop
  endfacet
  facet normal 1.22465e-16 0 -1
    outer loop
      vertex -13.4447 6.26988 -7.5
      vertex -15.2188 8.55951 -7.5
      vertex -12.5199 5.48008 -7.5
    endloop
  endfacet
  facet normal 1.22465e-16 0 -1
    outer loop
      vertex -12.5199 5.48008 -7.5
      vertex -15.2188 8.55951 -7.5
      vertex -13.9141 8.01906 -7.5
    endloop
  endfacet
  facet normal 1.22465e-16 0 -1
    outer loop
      vertex -12.5199 5.48008 -7.5
      vertex -13.9141 8.01906 -7.5
      vertex -11.7301 4.55534 -7.5
    endloop
  endfacet
  facet normal 1.22465e-16 0 -1
    outer loop
      vertex -11.7301 4.55534 -7.5
      vertex -13.9141 8.01906 -7.5
      vertex -12.7099 7.28115 -7.5
    endloop
  endfacet
  facet normal 1.22465e-16 0 -1
    outer loop
      vertex -11.7301 4.55534 -7.5
      vertex -12.7099 7.28115 -7.5
      vertex -11.0947 3.51843 -7.5
    endloop
  endfacet
  facet normal 1.22465e-16 0 -1
    outer loop
      vertex -11.0947 3.51843 -7.5
      vertex -12.7099 7.28115 -7.5
      vertex -11.636 6.36396 -7.5
    endloop
  endfacet
  facet normal 1.22465e-16 0 -1
    outer loop
      vertex -11.0947 3.51843 -7.5
      vertex -11.636 6.36396 -7.5
      vertex -10.6293 2.39488 -7.5
    endloop
  endfacet
  facet normal 1.22465e-16 0 -1
    outer loop
      vertex -10.6293 2.39488 -7.5
      vertex -11.636 6.36396 -7.5
      vertex -10.7188 5.29007 -7.5
    endloop
  endfacet
  facet normal 1.22465e-16 0 -1
    outer loop
      vertex -10.6293 2.39488 -7.5
      vertex -10.7188 5.29007 -7.5
      vertex -10.3454 1.21237 -7.5
    endloop
  endfacet
  facet normal 1.22465e-16 0 -1
    outer loop
      vertex -10.3454 1.21237 -7.5
      vertex -10.7188 5.29007 -7.5
      vertex -9.98094 4.08591 -7.5
    endloop
  endfacet
  facet normal 1.22465e-16 0 -1
    outer loop
      vertex -10.3454 1.21237 -7.5
      vertex -9.98094 4.08591 -7.5
      vertex -10.25 0 -7.5
    endloop
  endfacet
  facet normal 1.22465e-16 0 -1
    outer loop
      vertex -9.87688 1.56434 -7.5
      vertex -9.98094 4.08591 -7.5
      vertex -9.53182 3.00164 -7.5
    endloop
  endfacet
  facet normal 1.22465e-16 0 -1
    outer loop
      vertex -10.25 0 -7.5
      vertex -9.98094 4.08591 -7.5
      vertex -9.87688 1.56434 -7.5
    endloop
  endfacet
  facet normal 1.22465e-16 0 -1
    outer loop
      vertex -10.3454 -1.21237 -7.5
      vertex -10 0 -7.5
      vertex -10.6293 -2.39488 -7.5
    endloop
  endfacet
  facet normal 1.22465e-16 0 -1
    outer loop
      vertex -10.6293 -2.39488 -7.5
      vertex -10 0 -7.5
      vertex -9.87688 -1.56434 -7.5
    endloop
  endfacet
  facet normal 1.22465e-16 0 -1
    outer loop
      vertex -10.6293 -2.39488 -7.5
      vertex -9.87688 -1.56434 -7.5
      vertex -11.0947 -3.51843 -7.5
    endloop
  endfacet
  facet normal 1.22465e-16 0 -1
    outer loop
      vertex -9.87688 -1.56434 -7.5
      vertex -9.53182 -3.00164 -7.5
      vertex -11.7301 -4.55534 -7.5
    endloop
  endfacet
  facet normal 1.22465e-16 0 -1
    outer loop
      vertex -13.4447 -6.26988 -7.5
      vertex -9.53182 -3.00164 -7.5
      vertex -9.98094 -4.08591 -7.5
    endloop
  endfacet
  facet normal 1.22465e-16 0 -1
    outer loop
      vertex -13.4447 -6.26988 -7.5
      vertex -9.98094 -4.08591 -7.5
      vertex -10.7188 -5.29007 -7.5
    endloop
  endfacet
  facet normal 1.22465e-16 0 -1
    outer loop
      vertex -13.4447 -6.26988 -7.5
      vertex -10.7188 -5.29007 -7.5
      vertex -14.4816 -6.9053 -7.5
    endloop
  endfacet
  facet normal 1.22465e-16 0 -1
    outer loop
      vertex -14.4816 -6.9053 -7.5
      vertex -10.7188 -5.29007 -7.5
      vertex -11.636 -6.36396 -7.5
    endloop
  endfacet
  facet normal 1.22465e-16 0 -1
    outer loop
      vertex -14.4816 -6.9053 -7.5
      vertex -11.636 -6.36396 -7.5
      vertex -15.6051 -7.37069 -7.5
    endloop
  endfacet
  facet normal 1.22465e-16 0 -1
    outer loop
      vertex -15.6051 -7.37069 -7.5
      vertex -11.636 -6.36396 -7.5
      vertex -12.7099 -7.28115 -7.5
    endloop
  endfacet
  facet normal 1.22465e-16 0 -1
    outer loop
      vertex -15.6051 -7.37069 -7.5
      vertex -12.7099 -7.28115 -7.5
      vertex -16.7876 -7.65458 -7.5
    endloop
  endfacet
  facet normal 1.22465e-16 0 -1
    outer loop
      vertex -16.7876 -7.65458 -7.5
      vertex -12.7099 -7.28115 -7.5
      vertex -13.9141 -8.01906 -7.5
    endloop
  endfacet
  facet normal 1.22465e-16 0 -1
    outer loop
      vertex -16.7876 -7.65458 -7.5
      vertex -13.9141 -8.01906 -7.5
      vertex -18 -7.75 -7.5
    endloop
  endfacet
  facet normal 1.22465e-16 0 -1
    outer loop
      vertex -18 -7.75 -7.5
      vertex -13.9141 -8.01906 -7.5
      vertex -15.2188 -8.55951 -7.5
    endloop
  endfacet
  facet normal 1.22465e-16 0 -1
    outer loop
      vertex -18 -7.75 -7.5
      vertex -15.2188 -8.55951 -7.5
      vertex -19.2124 -7.65458 -7.5
    endloop
  endfacet
  facet normal 1.22465e-16 0 -1
    outer loop
      vertex -19.2124 -7.65458 -7.5
      vertex -15.2188 -8.55951 -7.5
      vertex -16.5921 -8.88919 -7.5
    endloop
  endfacet
  facet normal 1.22465e-16 0 -1
    outer loop
      vertex -19.2124 -7.65458 -7.5
      vertex -16.5921 -8.88919 -7.5
      vertex -20.3949 -7.37069 -7.5
    endloop
  endfacet
  facet normal 1.22465e-16 0 -1
    outer loop
      vertex -20.3949 -7.37069 -7.5
      vertex -16.5921 -8.88919 -7.5
      vertex -18 -9 -7.5
    endloop
  endfacet
  facet normal 1.22465e-16 0 -1
    outer loop
      vertex -20.3949 -7.37069 -7.5
      vertex -18 -9 -7.5
      vertex -21.5184 -6.9053 -7.5
    endloop
  endfacet
  facet normal 1.22465e-16 0 -1
    outer loop
      vertex -25.2812 -5.29007 -7.5
      vertex -18 -9 -7.5
      vertex -19.4079 -8.88919 -7.5
    endloop
  endfacet
  facet normal 1.22465e-16 0 -1
    outer loop
      vertex -25.2812 -5.29007 -7.5
      vertex -19.4079 -8.88919 -7.5
      vertex -20.7812 -8.55951 -7.5
    endloop
  endfacet
  facet normal 1.22465e-16 0 -1
    outer loop
      vertex -25.2812 -5.29007 -7.5
      vertex -20.7812 -8.55951 -7.5
      vertex -22.0859 -8.01906 -7.5
    endloop
  endfacet
  facet normal 1.22465e-16 0 -1
    outer loop
      vertex -25.2812 -5.29007 -7.5
      vertex -22.0859 -8.01906 -7.5
      vertex -23.2901 -7.28115 -7.5
    endloop
  endfacet
  facet normal 1.22465e-16 0 -1
    outer loop
      vertex -25.2812 -5.29007 -7.5
      vertex -23.2901 -7.28115 -7.5
      vertex -24.364 -6.36396 -7.5
    endloop
  endfacet
  facet normal 1.22465e-16 0 -1
    outer loop
      vertex -10 0 -7.5
      vertex -10.3454 -1.21237 -7.5
      vertex -10.25 0 -7.5
    endloop
  endfacet
  facet normal 1.22465e-16 0 -1
    outer loop
      vertex -10 0 -7.5
      vertex -10.25 0 -7.5
      vertex -9.87688 1.56434 -7.5
    endloop
  endfacet
  facet normal -0.97237 0.233445 0
    outer loop
      vertex -9.51056 3.09017 -7.5
      vertex -9.87688 1.56434 -7.5
      vertex -9.53182 3.00164 -7.5
    endloop
  endfacet
  facet normal -0.97237 0.233445 0
    outer loop
      vertex -9.51056 3.09017 -7.5
      vertex -9.53182 3.00164 -7.5
      vertex -9.53182 3.00164 7.5
    endloop
  endfacet
  facet normal -0.97237 0.233445 0
    outer loop
      vertex -9.51056 3.09017 -7.5
      vertex -9.53182 3.00164 7.5
      vertex -9.51056 3.09017 7.5
    endloop
  endfacet
  facet normal 0 0 1
    outer loop
      vertex -9.44049 -2.78115 7.5
      vertex -9.53182 -3.00164 7.5
      vertex -9.51056 -3.09017 7.5
    endloop
  endfacet
  facet normal 0 0 1
    outer loop
      vertex -8.09017 -5.87785 7.5
      vertex -9.44049 -2.78115 7.5
      vertex -8.91006 -4.53991 7.5
    endloop
  endfacet
  facet normal 0 0 1
    outer loop
      vertex -8.91006 -4.53991 7.5
      vertex -9.44049 -2.78115 7.5
      vertex -9.51056 -3.09017 7.5
    endloop
  endfacet
  facet normal 0 0 1
    outer loop
      vertex -9 0 7.5
      vertex -8.39535 1.32969 7.5
      vertex -8.08398 2.62664 7.5
    endloop
  endfacet
  facet normal 0 0 1
    outer loop
      vertex -7.07107 -7.07107 7.5
      vertex -9.44049 -2.78115 7.5
      vertex -8.09017 -5.87785 7.5
    endloop
  endfacet
  facet normal 0 0 1
    outer loop
      vertex -5.87785 -8.09017 7.5
      vertex -9.44049 -2.78115 7.5
      vertex -7.07107 -7.07107 7.5
    endloop
  endfacet
  facet normal 0 0 1
    outer loop
      vertex -4.53991 -8.91006 7.5
      vertex -9.44049 -2.78115 7.5
      vertex -5.87785 -8.09017 7.5
    endloop
  endfacet
  facet normal 0 0 1
    outer loop
      vertex -3.09017 -9.51056 7.5
      vertex -9.44049 -2.78115 7.5
      vertex -4.53991 -8.91006 7.5
    endloop
  endfacet
  facet normal 0 0 1
    outer loop
      vertex -6.01041 -6.01041 7.5
      vertex -9.44049 -2.78115 7.5
      vertex -3.09017 -9.51056 7.5
    endloop
  endfacet
  facet normal 0 0 1
    outer loop
      vertex -6.01041 -6.01041 7.5
      vertex -6.87664 -4.99618 7.5
      vertex -9.44049 -2.78115 7.5
    endloop
  endfacet
  facet normal 0 0 1
    outer loop
      vertex -1.32969 -8.39535 7.5
      vertex -2.62664 -8.08398 7.5
      vertex 0 -10 7.5
    endloop
  endfacet
  facet normal 0 0 1
    outer loop
      vertex -3.85892 -7.57355 7.5
      vertex -4.99618 -6.87664 7.5
      vertex -1.56434 -9.87688 7.5
    endloop
  endfacet
  facet normal 0 0 1
    outer loop
      vertex 3.85892 -7.57355 7.5
      vertex 2.62664 -8.08398 7.5
      vertex 4.53991 -8.91006 7.5
    endloop
  endfacet
  facet normal 0 0 1
    outer loop
      vertex 4.99618 -6.87664 7.5
      vertex 3.85892 -7.57355 7.5
      vertex 5.87785 -8.09017 7.5
    endloop
  endfacet
  facet normal 0 0 1
    outer loop
      vertex 5.48154 -6.4621 7.5
      vertex 4.99618 -6.87664 7.5
      vertex 7.07107 -7.07107 7.5
    endloop
  endfacet
  facet normal 0 0 1
    outer loop
      vertex 8.25859 -5.60301 7.5
      vertex 7.95094 -5.79154 7.5
      vertex 8.09017 -5.87785 7.5
    endloop
  endfacet
  facet normal 0 0 1
    outer loop
      vertex -9.53182 3.00164 7.5
      vertex -9.44049 2.78115 7.5
      vertex -9.51056 3.09017 7.5
    endloop
  endfacet
  facet normal 0 0 1
    outer loop
      vertex 8.09017 -5.87785 7.5
      vertex 7.00861 -6.18187 7.5
      vertex 7.07107 -7.07107 7.5
    endloop
  endfacet
  facet normal 0 0 1
    outer loop
      vertex 7.00861 -6.18187 7.5
      vertex 6.01682 -6.41997 7.5
      vertex 7.07107 -7.07107 7.5
    endloop
  endfacet
  facet normal 0 0 1
    outer loop
      vertex -9 0 7.5
      vertex -9.11081 -1.40791 7.5
      vertex -8.39535 1.32969 7.5
    endloop
  endfacet
  facet normal 0 0 1
    outer loop
      vertex 6.01682 -6.41997 7.5
      vertex 5.48154 -6.4621 7.5
      vertex 7.07107 -7.07107 7.5
    endloop
  endfacet
  facet normal 0 0 1
    outer loop
      vertex 7.07107 -7.07107 7.5
      vertex 4.99618 -6.87664 7.5
      vertex 5.87785 -8.09017 7.5
    endloop
  endfacet
  facet normal 0 0 1
    outer loop
      vertex 5.87785 -8.09017 7.5
      vertex 3.85892 -7.57355 7.5
      vertex 4.53991 -8.91006 7.5
    endloop
  endfacet
  facet normal 0 0 1
    outer loop
      vertex 4.53991 -8.91006 7.5
      vertex 2.62664 -8.08398 7.5
      vertex 3.09017 -9.51056 7.5
    endloop
  endfacet
  facet normal 0 0 1
    outer loop
      vertex 2.62664 -8.08398 7.5
      vertex 1.32969 -8.39535 7.5
      vertex 3.09017 -9.51056 7.5
    endloop
  endfacet
  facet normal 0 0 1
    outer loop
      vertex 3.09017 -9.51056 7.5
      vertex 0 -8.5 7.5
      vertex 1.56434 -9.87688 7.5
    endloop
  endfacet
  facet normal 0 0 1
    outer loop
      vertex 1.56434 -9.87688 7.5
      vertex -1.32969 -8.39535 7.5
      vertex 0 -10 7.5
    endloop
  endfacet
  facet normal 0 0 1
    outer loop
      vertex 0 -10 7.5
      vertex -2.62664 -8.08398 7.5
      vertex -1.56434 -9.87688 7.5
    endloop
  endfacet
  facet normal 0 0 1
    outer loop
      vertex -2.62664 -8.08398 7.5
      vertex -3.85892 -7.57355 7.5
      vertex -1.56434 -9.87688 7.5
    endloop
  endfacet
  facet normal 0 0 1
    outer loop
      vertex -1.56434 -9.87688 7.5
      vertex -4.99618 -6.87664 7.5
      vertex -3.09017 -9.51056 7.5
    endloop
  endfacet
  facet normal 0 0 1
    outer loop
      vertex -4.99618 -6.87664 7.5
      vertex -6.01041 -6.01041 7.5
      vertex -3.09017 -9.51056 7.5
    endloop
  endfacet
  facet normal 0 0 1
    outer loop
      vertex 0 -8.5 7.5
      vertex -1.32969 -8.39535 7.5
      vertex 1.56434 -9.87688 7.5
    endloop
  endfacet
  facet normal 0 0 1
    outer loop
      vertex -8.39535 -1.32969 7.5
      vertex -9.44049 -2.78115 7.5
      vertex -8.08398 -2.62664 7.5
    endloop
  endfacet
  facet normal 0 0 1
    outer loop
      vertex -8.5 0 7.5
      vertex -9.44049 -2.78115 7.5
      vertex -8.39535 -1.32969 7.5
    endloop
  endfacet
  facet normal 0 0 1
    outer loop
      vertex 7.95094 -5.79154 7.5
      vertex 7.00861 -6.18187 7.5
      vertex 8.09017 -5.87785 7.5
    endloop
  endfacet
  facet normal 0 0 1
    outer loop
      vertex -5.87785 8.09017 7.5
      vertex -8.08398 2.62664 7.5
      vertex -7.57355 3.85892 7.5
    endloop
  endfacet
  facet normal 0 0 1
    outer loop
      vertex -4.53991 8.91006 7.5
      vertex -7.57355 3.85892 7.5
      vertex -6.87664 4.99618 7.5
    endloop
  endfacet
  facet normal 0 0 1
    outer loop
      vertex -3.09017 9.51056 7.5
      vertex -6.87664 4.99618 7.5
      vertex -6.01041 6.01041 7.5
    endloop
  endfacet
  facet normal 0 0 1
    outer loop
      vertex -1.56434 9.87688 7.5
      vertex -6.01041 6.01041 7.5
      vertex -4.99618 6.87664 7.5
    endloop
  endfacet
  facet normal 0 0 1
    outer loop
      vertex 0 10 7.5
      vertex -4.99618 6.87664 7.5
      vertex -3.85892 7.57355 7.5
    endloop
  endfacet
  facet normal 0 0 1
    outer loop
      vertex 1.56434 9.87688 7.5
      vertex -3.85892 7.57355 7.5
      vertex -2.62664 8.08398 7.5
    endloop
  endfacet
  facet normal 0 0 1
    outer loop
      vertex 3.09017 9.51056 7.5
      vertex -2.62664 8.08398 7.5
      vertex -1.32969 8.39535 7.5
    endloop
  endfacet
  facet normal 0 0 1
    outer loop
      vertex 4.53991 8.91006 7.5
      vertex -1.32969 8.39535 7.5
      vertex 0 8.5 7.5
    endloop
  endfacet
  facet normal 0 0 1
    outer loop
      vertex 5.87785 8.09017 7.5
      vertex 0 8.5 7.5
      vertex 1.32969 8.39535 7.5
    endloop
  endfacet
  facet normal 0 0 1
    outer loop
      vertex 7.07107 7.07107 7.5
      vertex 1.32969 8.39535 7.5
      vertex 2.62664 8.08398 7.5
    endloop
  endfacet
  facet normal 0 0 1
    outer loop
      vertex 8.09017 5.87785 7.5
      vertex 2.62664 8.08398 7.5
      vertex 3.85892 7.57355 7.5
    endloop
  endfacet
  facet normal 0 0 1
    outer loop
      vertex 6.01682 6.41997 7.5
      vertex 3.85892 7.57355 7.5
      vertex 4.99618 6.87664 7.5
    endloop
  endfacet
  facet normal 0 0 1
    outer loop
      vertex 6.01682 6.41997 7.5
      vertex 4.99618 6.87664 7.5
      vertex 5.48154 6.4621 7.5
    endloop
  endfacet
  facet normal 0 0 1
    outer loop
      vertex 7.00861 6.18187 7.5
      vertex 3.85892 7.57355 7.5
      vertex 6.01682 6.41997 7.5
    endloop
  endfacet
  facet normal 0 0 1
    outer loop
      vertex 7.95094 5.79154 7.5
      vertex 3.85892 7.57355 7.5
      vertex 7.00861 6.18187 7.5
    endloop
  endfacet
  facet normal 0 0 1
    outer loop
      vertex 8.09017 5.87785 7.5
      vertex 3.85892 7.57355 7.5
      vertex 7.95094 5.79154 7.5
    endloop
  endfacet
  facet normal 0 0 1
    outer loop
      vertex 8.09017 5.87785 7.5
      vertex 7.95094 5.79154 7.5
      vertex 8.25859 5.60301 7.5
    endloop
  endfacet
  facet normal 0 0 1
    outer loop
      vertex 7.07107 7.07107 7.5
      vertex 2.62664 8.08398 7.5
      vertex 8.09017 5.87785 7.5
    endloop
  endfacet
  facet normal 0 0 1
    outer loop
      vertex 5.87785 8.09017 7.5
      vertex 1.32969 8.39535 7.5
      vertex 7.07107 7.07107 7.5
    endloop
  endfacet
  facet normal 0 0 1
    outer loop
      vertex 4.53991 8.91006 7.5
      vertex 0 8.5 7.5
      vertex 5.87785 8.09017 7.5
    endloop
  endfacet
  facet normal 0 0 1
    outer loop
      vertex 3.09017 9.51056 7.5
      vertex -1.32969 8.39535 7.5
      vertex 4.53991 8.91006 7.5
    endloop
  endfacet
  facet normal 0 0 1
    outer loop
      vertex 1.56434 9.87688 7.5
      vertex -2.62664 8.08398 7.5
      vertex 3.09017 9.51056 7.5
    endloop
  endfacet
  facet normal 0 0 1
    outer loop
      vertex 0 10 7.5
      vertex -3.85892 7.57355 7.5
      vertex 1.56434 9.87688 7.5
    endloop
  endfacet
  facet normal 0 0 1
    outer loop
      vertex -1.56434 9.87688 7.5
      vertex -4.99618 6.87664 7.5
      vertex 0 10 7.5
    endloop
  endfacet
  facet normal 0 0 1
    outer loop
      vertex -3.09017 9.51056 7.5
      vertex -6.01041 6.01041 7.5
      vertex -1.56434 9.87688 7.5
    endloop
  endfacet
  facet normal 0 0 1
    outer loop
      vertex -4.53991 8.91006 7.5
      vertex -6.87664 4.99618 7.5
      vertex -3.09017 9.51056 7.5
    endloop
  endfacet
  facet normal 0 0 1
    outer loop
      vertex -5.87785 8.09017 7.5
      vertex -7.57355 3.85892 7.5
      vertex -4.53991 8.91006 7.5
    endloop
  endfacet
  facet normal 0 0 1
    outer loop
      vertex -7.07107 7.07107 7.5
      vertex -8.08398 2.62664 7.5
      vertex -5.87785 8.09017 7.5
    endloop
  endfacet
  facet normal 0 0 1
    outer loop
      vertex -9 0 7.5
      vertex -8.08398 2.62664 7.5
      vertex -7.07107 7.07107 7.5
    endloop
  endfacet
  facet normal 0 0 1
    outer loop
      vertex -9.11081 1.40791 7.5
      vertex -9 0 7.5
      vertex -8.09017 5.87785 7.5
    endloop
  endfacet
  facet normal 0 0 1
    outer loop
      vertex -9.44049 2.78115 7.5
      vertex -9.11081 1.40791 7.5
      vertex -8.91006 4.53991 7.5
    endloop
  endfacet
  facet normal 0 0 1
    outer loop
      vertex -9.51056 3.09017 7.5
      vertex -9.44049 2.78115 7.5
      vertex -8.91006 4.53991 7.5
    endloop
  endfacet
  facet normal 0 0 1
    outer loop
      vertex -8.91006 4.53991 7.5
      vertex -9.11081 1.40791 7.5
      vertex -8.09017 5.87785 7.5
    endloop
  endfacet
  facet normal 0 0 1
    outer loop
      vertex -8.09017 5.87785 7.5
      vertex -9 0 7.5
      vertex -7.07107 7.07107 7.5
    endloop
  endfacet
  facet normal 0 0 1
    outer loop
      vertex -8.39535 1.32969 7.5
      vertex -9.11081 -1.40791 7.5
      vertex -8.5 0 7.5
    endloop
  endfacet
  facet normal 0 0 1
    outer loop
      vertex -9.11081 -1.40791 7.5
      vertex -9.44049 -2.78115 7.5
      vertex -8.5 0 7.5
    endloop
  endfacet
  facet normal 0 0 1
    outer loop
      vertex 1.32969 -8.39535 7.5
      vertex 0 -8.5 7.5
      vertex 3.09017 -9.51056 7.5
    endloop
  endfacet
  facet normal 0 0 1
    outer loop
      vertex -6.87664 -4.99618 7.5
      vertex -7.57355 -3.85892 7.5
      vertex -9.44049 -2.78115 7.5
    endloop
  endfacet
  facet normal 0 0 1
    outer loop
      vertex -7.57355 -3.85892 7.5
      vertex -8.08398 -2.62664 7.5
      vertex -9.44049 -2.78115 7.5
    endloop
  endfacet
  facet normal -0.97237 -0.233445 0
    outer loop
      vertex -9.53182 -3.00164 -7.5
      vertex -9.51056 -3.09017 -7.5
      vertex -9.51056 -3.09017 7.5
    endloop
  endfacet
  facet normal -0.97237 -0.233445 0
    outer loop
      vertex -9.87688 -1.56434 -7.5
      vertex -9.51056 -3.09017 -7.5
      vertex -9.53182 -3.00164 -7.5
    endloop
  endfacet
  facet normal -0.97237 -0.233445 0
    outer loop
      vertex -9.53182 -3.00164 -7.5
      vertex -9.51056 -3.09017 7.5
      vertex -9.53182 -3.00164 7.5
    endloop
  endfacet
  facet normal 0 0 -1
    outer loop
      vertex -10 0 -7.5
      vertex -9.87688 1.56434 -7.5
      vertex -9.87688 -1.56434 -7.5
    endloop
  endfacet
  facet normal 0 0 -1
    outer loop
      vertex -9.87688 -1.56434 -7.5
      vertex -9.87688 1.56434 -7.5
      vertex -9.51056 3.09017 -7.5
    endloop
  endfacet
  facet normal 0 0 -1
    outer loop
      vertex -9.87688 -1.56434 -7.5
      vertex -9.51056 3.09017 -7.5
      vertex -8.91006 4.53991 -7.5
    endloop
  endfacet
  facet normal 0 0 -1
    outer loop
      vertex -9.87688 -1.56434 -7.5
      vertex -8.91006 4.53991 -7.5
      vertex -8.09017 5.87785 -7.5
    endloop
  endfacet
  facet normal 0 0 -1
    outer loop
      vertex -9.87688 -1.56434 -7.5
      vertex -8.09017 5.87785 -7.5
      vertex -7.07107 7.07107 -7.5
    endloop
  endfacet
  facet normal 0 0 -1
    outer loop
      vertex -9.87688 -1.56434 -7.5
      vertex -7.07107 7.07107 -7.5
      vertex -5.87785 8.09017 -7.5
    endloop
  endfacet
  facet normal 0 0 -1
    outer loop
      vertex -6.87664 4.99618 -7.5
      vertex -5.87785 8.09017 -7.5
      vertex -4.53991 8.91006 -7.5
    endloop
  endfacet
  facet normal 0 0 -1
    outer loop
      vertex -4.99618 6.87664 -7.5
      vertex -4.53991 8.91006 -7.5
      vertex -3.09017 9.51056 -7.5
    endloop
  endfacet
  facet normal 0 0 -1
    outer loop
      vertex -3.85892 7.57355 -7.5
      vertex -3.09017 9.51056 -7.5
      vertex -1.56434 9.87688 -7.5
    endloop
  endfacet
  facet normal 0 0 -1
    outer loop
      vertex -2.62664 8.08398 -7.5
      vertex -1.56434 9.87688 -7.5
      vertex 0 10 -7.5
    endloop
  endfacet
  facet normal 0 0 -1
    outer loop
      vertex 0 8.5 -7.5
      vertex 0 10 -7.5
      vertex 1.56434 9.87688 -7.5
    endloop
  endfacet
  facet normal 0 0 -1
    outer loop
      vertex 1.32969 8.39535 -7.5
      vertex 1.56434 9.87688 -7.5
      vertex 3.09017 9.51056 -7.5
    endloop
  endfacet
  facet normal 0 0 -1
    outer loop
      vertex 2.62664 8.08398 -7.5
      vertex 3.09017 9.51056 -7.5
      vertex 4.53991 8.91006 -7.5
    endloop
  endfacet
  facet normal 0 0 -1
    outer loop
      vertex 3.85892 7.57355 -7.5
      vertex 4.53991 8.91006 -7.5
      vertex 5.87785 8.09017 -7.5
    endloop
  endfacet
  facet normal 0 0 -1
    outer loop
      vertex 5.48154 6.4621 -7.5
      vertex 5.87785 8.09017 -7.5
      vertex 7.07107 7.07107 -7.5
    endloop
  endfacet
  facet normal 0 0 -1
    outer loop
      vertex 7.00861 6.18187 -7.5
      vertex 7.07107 7.07107 -7.5
      vertex 8.09017 5.87785 -7.5
    endloop
  endfacet
  facet normal 0 0 -1
    outer loop
      vertex 7.95094 5.79154 -7.5
      vertex 8.09017 5.87785 -7.5
      vertex 8.25859 5.60301 -7.5
    endloop
  endfacet
  facet normal 0 0 -1
    outer loop
      vertex 6.01682 6.41997 -7.5
      vertex 7.07107 7.07107 -7.5
      vertex 7.00861 6.18187 -7.5
    endloop
  endfacet
  facet normal 0 0 -1
    outer loop
      vertex 5.48154 6.4621 -7.5
      vertex 7.07107 7.07107 -7.5
      vertex 6.01682 6.41997 -7.5
    endloop
  endfacet
  facet normal 0 0 -1
    outer loop
      vertex 4.99618 6.87664 -7.5
      vertex 5.87785 8.09017 -7.5
      vertex 5.48154 6.4621 -7.5
    endloop
  endfacet
  facet normal 0 0 -1
    outer loop
      vertex 3.85892 7.57355 -7.5
      vertex 5.87785 8.09017 -7.5
      vertex 4.99618 6.87664 -7.5
    endloop
  endfacet
  facet normal 0 0 -1
    outer loop
      vertex 2.62664 8.08398 -7.5
      vertex 4.53991 8.91006 -7.5
      vertex 3.85892 7.57355 -7.5
    endloop
  endfacet
  facet normal 0 0 -1
    outer loop
      vertex 1.32969 8.39535 -7.5
      vertex 3.09017 9.51056 -7.5
      vertex 2.62664 8.08398 -7.5
    endloop
  endfacet
  facet normal 0 0 -1
    outer loop
      vertex 0 8.5 -7.5
      vertex 1.56434 9.87688 -7.5
      vertex 1.32969 8.39535 -7.5
    endloop
  endfacet
  facet normal 0 0 -1
    outer loop
      vertex -1.32969 8.39535 -7.5
      vertex 0 10 -7.5
      vertex 0 8.5 -7.5
    endloop
  endfacet
  facet normal 0 0 -1
    outer loop
      vertex -2.62664 8.08398 -7.5
      vertex 0 10 -7.5
      vertex -1.32969 8.39535 -7.5
    endloop
  endfacet
  facet normal 0 0 -1
    outer loop
      vertex -3.85892 7.57355 -7.5
      vertex -1.56434 9.87688 -7.5
      vertex -2.62664 8.08398 -7.5
    endloop
  endfacet
  facet normal 0 0 -1
    outer loop
      vertex -4.99618 6.87664 -7.5
      vertex -3.09017 9.51056 -7.5
      vertex -3.85892 7.57355 -7.5
    endloop
  endfacet
  facet normal 0 0 -1
    outer loop
      vertex -6.01041 6.01041 -7.5
      vertex -4.53991 8.91006 -7.5
      vertex -4.99618 6.87664 -7.5
    endloop
  endfacet
  facet normal 0 0 -1
    outer loop
      vertex -6.87664 4.99618 -7.5
      vertex -4.53991 8.91006 -7.5
      vertex -6.01041 6.01041 -7.5
    endloop
  endfacet
  facet normal 0 0 -1
    outer loop
      vertex -7.57355 3.85892 -7.5
      vertex -5.87785 8.09017 -7.5
      vertex -6.87664 4.99618 -7.5
    endloop
  endfacet
  facet normal 0 0 -1
    outer loop
      vertex -8.39535 1.32969 -7.5
      vertex -9.87688 -1.56434 -7.5
      vertex -8.08398 2.62664 -7.5
    endloop
  endfacet
  facet normal 0 0 -1
    outer loop
      vertex -9.87688 -1.56434 -7.5
      vertex -5.87785 8.09017 -7.5
      vertex -7.57355 3.85892 -7.5
    endloop
  endfacet
  facet normal 0 0 -1
    outer loop
      vertex -9.87688 -1.56434 -7.5
      vertex -7.57355 3.85892 -7.5
      vertex -8.08398 2.62664 -7.5
    endloop
  endfacet
  facet normal 0 0 -1
    outer loop
      vertex -8.5 0 -7.5
      vertex -9.87688 -1.56434 -7.5
      vertex -8.39535 1.32969 -7.5
    endloop
  endfacet
  facet normal 0 0 -1
    outer loop
      vertex -8.39535 -1.32969 -7.5
      vertex -9.87688 -1.56434 -7.5
      vertex -8.5 0 -7.5
    endloop
  endfacet
  facet normal 0 0 -1
    outer loop
      vertex -9.87688 -1.56434 -7.5
      vertex -8.39535 -1.32969 -7.5
      vertex -8.08398 -2.62664 -7.5
    endloop
  endfacet
  facet normal 0 0 -1
    outer loop
      vertex -8.08398 -2.62664 -7.5
      vertex -7.57355 -3.85892 -7.5
      vertex -9.87688 -1.56434 -7.5
    endloop
  endfacet
  facet normal 0 0 -1
    outer loop
      vertex -7.57355 -3.85892 -7.5
      vertex -6.87664 -4.99618 -7.5
      vertex -9.87688 -1.56434 -7.5
    endloop
  endfacet
  facet normal 0 0 -1
    outer loop
      vertex -6.87664 -4.99618 -7.5
      vertex -6.01041 -6.01041 -7.5
      vertex -9.87688 -1.56434 -7.5
    endloop
  endfacet
  facet normal 0 0 -1
    outer loop
      vertex 3.85892 -7.57355 -7.5
      vertex 8.09017 -5.87785 -7.5
      vertex 2.62664 -8.08398 -7.5
    endloop
  endfacet
  facet normal 0 0 -1
    outer loop
      vertex 4.99618 -6.87664 -7.5
      vertex 5.48154 -6.4621 -7.5
      vertex 6.01682 -6.41997 -7.5
    endloop
  endfacet
  facet normal 0 0 -1
    outer loop
      vertex 4.99618 -6.87664 -7.5
      vertex 6.01682 -6.41997 -7.5
      vertex 3.85892 -7.57355 -7.5
    endloop
  endfacet
  facet normal 0 0 -1
    outer loop
      vertex 6.01682 -6.41997 -7.5
      vertex 7.00861 -6.18187 -7.5
      vertex 3.85892 -7.57355 -7.5
    endloop
  endfacet
  facet normal 0 0 -1
    outer loop
      vertex 7.00861 -6.18187 -7.5
      vertex 7.95094 -5.79154 -7.5
      vertex 3.85892 -7.57355 -7.5
    endloop
  endfacet
  facet normal 0 0 -1
    outer loop
      vertex 7.95094 -5.79154 -7.5
      vertex 8.25859 -5.60301 -7.5
      vertex 8.09017 -5.87785 -7.5
    endloop
  endfacet
  facet normal 0 0 -1
    outer loop
      vertex 7.95094 -5.79154 -7.5
      vertex 8.09017 -5.87785 -7.5
      vertex 3.85892 -7.57355 -7.5
    endloop
  endfacet
  facet normal 0 0 -1
    outer loop
      vertex 2.62664 -8.08398 -7.5
      vertex 8.09017 -5.87785 -7.5
      vertex 7.07107 -7.07107 -7.5
    endloop
  endfacet
  facet normal 0 0 -1
    outer loop
      vertex 2.62664 -8.08398 -7.5
      vertex 7.07107 -7.07107 -7.5
      vertex 1.32969 -8.39535 -7.5
    endloop
  endfacet
  facet normal 0 0 -1
    outer loop
      vertex 1.32969 -8.39535 -7.5
      vertex 7.07107 -7.07107 -7.5
      vertex 5.87785 -8.09017 -7.5
    endloop
  endfacet
  facet normal 0 0 -1
    outer loop
      vertex 1.32969 -8.39535 -7.5
      vertex 5.87785 -8.09017 -7.5
      vertex 0 -8.5 -7.5
    endloop
  endfacet
  facet normal 0 0 -1
    outer loop
      vertex 0 -8.5 -7.5
      vertex 5.87785 -8.09017 -7.5
      vertex 4.53991 -8.91006 -7.5
    endloop
  endfacet
  facet normal 0 0 -1
    outer loop
      vertex 0 -8.5 -7.5
      vertex 4.53991 -8.91006 -7.5
      vertex -1.32969 -8.39535 -7.5
    endloop
  endfacet
  facet normal 0 0 -1
    outer loop
      vertex -1.32969 -8.39535 -7.5
      vertex 4.53991 -8.91006 -7.5
      vertex 3.09017 -9.51056 -7.5
    endloop
  endfacet
  facet normal 0 0 -1
    outer loop
      vertex -1.32969 -8.39535 -7.5
      vertex 3.09017 -9.51056 -7.5
      vertex -2.62664 -8.08398 -7.5
    endloop
  endfacet
  facet normal 0 0 -1
    outer loop
      vertex -2.62664 -8.08398 -7.5
      vertex 3.09017 -9.51056 -7.5
      vertex 1.56434 -9.87688 -7.5
    endloop
  endfacet
  facet normal 0 0 -1
    outer loop
      vertex -2.62664 -8.08398 -7.5
      vertex 1.56434 -9.87688 -7.5
      vertex -3.85892 -7.57355 -7.5
    endloop
  endfacet
  facet normal 0 0 -1
    outer loop
      vertex -3.85892 -7.57355 -7.5
      vertex 1.56434 -9.87688 -7.5
      vertex 0 -10 -7.5
    endloop
  endfacet
  facet normal 0 0 -1
    outer loop
      vertex -3.85892 -7.57355 -7.5
      vertex 0 -10 -7.5
      vertex -4.99618 -6.87664 -7.5
    endloop
  endfacet
  facet normal 0 0 -1
    outer loop
      vertex -4.99618 -6.87664 -7.5
      vertex 0 -10 -7.5
      vertex -1.56434 -9.87688 -7.5
    endloop
  endfacet
  facet normal 0 0 -1
    outer loop
      vertex -4.99618 -6.87664 -7.5
      vertex -1.56434 -9.87688 -7.5
      vertex -6.01041 -6.01041 -7.5
    endloop
  endfacet
  facet normal 0 0 -1
    outer loop
      vertex -6.01041 -6.01041 -7.5
      vertex -1.56434 -9.87688 -7.5
      vertex -3.09017 -9.51056 -7.5
    endloop
  endfacet
  facet normal 0 0 -1
    outer loop
      vertex -6.01041 -6.01041 -7.5
      vertex -3.09017 -9.51056 -7.5
      vertex -9.87688 -1.56434 -7.5
    endloop
  endfacet
  facet normal 0 0 -1
    outer loop
      vertex -9.87688 -1.56434 -7.5
      vertex -3.09017 -9.51056 -7.5
      vertex -4.53991 -8.91006 -7.5
    endloop
  endfacet
  facet normal 0 0 -1
    outer loop
      vertex -9.87688 -1.56434 -7.5
      vertex -4.53991 -8.91006 -7.5
      vertex -5.87785 -8.09017 -7.5
    endloop
  endfacet
  facet normal 0 0 -1
    outer loop
      vertex -9.87688 -1.56434 -7.5
      vertex -5.87785 -8.09017 -7.5
      vertex -7.07107 -7.07107 -7.5
    endloop
  endfacet
  facet normal 0 0 -1
    outer loop
      vertex -9.87688 -1.56434 -7.5
      vertex -7.07107 -7.07107 -7.5
      vertex -8.09017 -5.87785 -7.5
    endloop
  endfacet
  facet normal 0 0 -1
    outer loop
      vertex -9.87688 -1.56434 -7.5
      vertex -8.09017 -5.87785 -7.5
      vertex -8.91006 -4.53991 -7.5
    endloop
  endfacet
  facet normal 0 0 -1
    outer loop
      vertex -9.87688 -1.56434 -7.5
      vertex -8.91006 -4.53991 -7.5
      vertex -9.51056 -3.09017 -7.5
    endloop
  endfacet
  facet normal 0 0 -1
    outer loop
      vertex 7.00861 6.18187 -7.5
      vertex 8.09017 5.87785 -7.5
      vertex 7.95094 5.79154 -7.5
    endloop
  endfacet
  facet normal -0.92388 0.382683 0
    outer loop
      vertex -9.51056 3.09017 -7.5
      vertex -9.51056 3.09017 7.5
      vertex -8.91006 4.53991 -7.5
    endloop
  endfacet
  facet normal -0.92388 0.382683 0
    outer loop
      vertex -8.91006 4.53991 -7.5
      vertex -9.51056 3.09017 7.5
      vertex -8.91006 4.53991 7.5
    endloop
  endfacet
  facet normal -0.85264 0.522498 0
    outer loop
      vertex -8.91006 4.53991 -7.5
      vertex -8.91006 4.53991 7.5
      vertex -8.09017 5.87785 -7.5
    endloop
  endfacet
  facet normal -0.85264 0.522498 0
    outer loop
      vertex -8.09017 5.87785 -7.5
      vertex -8.91006 4.53991 7.5
      vertex -8.09017 5.87785 7.5
    endloop
  endfacet
  facet normal -0.760406 0.649448 0
    outer loop
      vertex -8.09017 5.87785 -7.5
      vertex -8.09017 5.87785 7.5
      vertex -7.07107 7.07107 -7.5
    endloop
  endfacet
  facet normal -0.760406 0.649448 0
    outer loop
      vertex -7.07107 7.07107 -7.5
      vertex -8.09017 5.87785 7.5
      vertex -7.07107 7.07107 7.5
    endloop
  endfacet
  facet normal -0.649448 0.760406 0
    outer loop
      vertex -7.07107 7.07107 -7.5
      vertex -7.07107 7.07107 7.5
      vertex -5.87785 8.09017 -7.5
    endloop
  endfacet
  facet normal -0.649448 0.760406 0
    outer loop
      vertex -5.87785 8.09017 -7.5
      vertex -7.07107 7.07107 7.5
      vertex -5.87785 8.09017 7.5
    endloop
  endfacet
  facet normal -0.522498 0.85264 0
    outer loop
      vertex -5.87785 8.09017 -7.5
      vertex -5.87785 8.09017 7.5
      vertex -4.53991 8.91006 -7.5
    endloop
  endfacet
  facet normal -0.522498 0.85264 0
    outer loop
      vertex -4.53991 8.91006 -7.5
      vertex -5.87785 8.09017 7.5
      vertex -4.53991 8.91006 7.5
    endloop
  endfacet
  facet normal -0.382683 0.92388 0
    outer loop
      vertex -4.53991 8.91006 -7.5
      vertex -4.53991 8.91006 7.5
      vertex -3.09017 9.51056 -7.5
    endloop
  endfacet
  facet normal -0.382683 0.92388 0
    outer loop
      vertex -3.09017 9.51056 -7.5
      vertex -4.53991 8.91006 7.5
      vertex -3.09017 9.51056 7.5
    endloop
  endfacet
  facet normal -0.233445 0.97237 0
    outer loop
      vertex -3.09017 9.51056 -7.5
      vertex -3.09017 9.51056 7.5
      vertex -1.56434 9.87688 -7.5
    endloop
  endfacet
  facet normal -0.233445 0.97237 0
    outer loop
      vertex -1.56434 9.87688 -7.5
      vertex -3.09017 9.51056 7.5
      vertex -1.56434 9.87688 7.5
    endloop
  endfacet
  facet normal -0.0784593 0.996917 0
    outer loop
      vertex -1.56434 9.87688 -7.5
      vertex -1.56434 9.87688 7.5
      vertex 0 10 -7.5
    endloop
  endfacet
  facet normal -0.0784593 0.996917 0
    outer loop
      vertex 0 10 -7.5
      vertex -1.56434 9.87688 7.5
      vertex 0 10 7.5
    endloop
  endfacet
  facet normal 0.0784593 0.996917 0
    outer loop
      vertex 0 10 -7.5
      vertex 0 10 7.5
      vertex 1.56434 9.87688 -7.5
    endloop
  endfacet
  facet normal 0.0784593 0.996917 0
    outer loop
      vertex 1.56434 9.87688 -7.5
      vertex 0 10 7.5
      vertex 1.56434 9.87688 7.5
    endloop
  endfacet
  facet normal 0.233445 0.97237 0
    outer loop
      vertex 1.56434 9.87688 -7.5
      vertex 1.56434 9.87688 7.5
      vertex 3.09017 9.51056 -7.5
    endloop
  endfacet
  facet normal 0.233445 0.97237 0
    outer loop
      vertex 3.09017 9.51056 -7.5
      vertex 1.56434 9.87688 7.5
      vertex 3.09017 9.51056 7.5
    endloop
  endfacet
  facet normal 0.382683 0.92388 0
    outer loop
      vertex 3.09017 9.51056 -7.5
      vertex 3.09017 9.51056 7.5
      vertex 4.53991 8.91006 -7.5
    endloop
  endfacet
  facet normal 0.382683 0.92388 0
    outer loop
      vertex 4.53991 8.91006 -7.5
      vertex 3.09017 9.51056 7.5
      vertex 4.53991 8.91006 7.5
    endloop
  endfacet
  facet normal 0.522498 0.85264 0
    outer loop
      vertex 4.53991 8.91006 -7.5
      vertex 4.53991 8.91006 7.5
      vertex 5.87785 8.09017 -7.5
    endloop
  endfacet
  facet normal 0.522498 0.85264 0
    outer loop
      vertex 5.87785 8.09017 -7.5
      vertex 4.53991 8.91006 7.5
      vertex 5.87785 8.09017 7.5
    endloop
  endfacet
  facet normal 0.649448 0.760406 0
    outer loop
      vertex 5.87785 8.09017 -7.5
      vertex 5.87785 8.09017 7.5
      vertex 7.07107 7.07107 -7.5
    endloop
  endfacet
  facet normal 0.649448 0.760406 0
    outer loop
      vertex 7.07107 7.07107 -7.5
      vertex 5.87785 8.09017 7.5
      vertex 7.07107 7.07107 7.5
    endloop
  endfacet
  facet normal 0.760406 0.649448 0
    outer loop
      vertex 8.09017 5.87785 -7.5
      vertex 7.07107 7.07107 -7.5
      vertex 7.07107 7.07107 7.5
    endloop
  endfacet
  facet normal 0.760406 0.649448 0
    outer loop
      vertex 8.09017 5.87785 7.5
      vertex 8.09017 5.87785 -7.5
      vertex 7.07107 7.07107 7.5
    endloop
  endfacet
  facet normal 0.85264 0.522498 0
    outer loop
      vertex 8.25859 5.60301 -7.5
      vertex 8.09017 5.87785 -7.5
      vertex 8.09017 5.87785 7.5
    endloop
  endfacet
  facet normal 0.85264 0.522498 0
    outer loop
      vertex 8.25859 5.60301 7.5
      vertex 8.25859 5.60301 -7.5
      vertex 8.09017 5.87785 7.5
    endloop
  endfacet
  facet normal -0.522499 -0.85264 0
    outer loop
      vertex 8.25859 5.60301 -7.5
      vertex 8.25859 5.60301 7.5
      vertex 7.95094 5.79154 7.5
    endloop
  endfacet
  facet normal -0.522499 -0.85264 0
    outer loop
      vertex 7.95094 5.79154 -7.5
      vertex 8.25859 5.60301 -7.5
      vertex 7.95094 5.79154 7.5
    endloop
  endfacet
  facet normal -0.382683 -0.92388 0
    outer loop
      vertex 7.95094 5.79154 -7.5
      vertex 7.95094 5.79154 7.5
      vertex 7.00861 6.18187 7.5
    endloop
  endfacet
  facet normal -0.382683 -0.92388 0
    outer loop
      vertex 7.00861 6.18187 -7.5
      vertex 7.95094 5.79154 -7.5
      vertex 7.00861 6.18187 7.5
    endloop
  endfacet
  facet normal -0.233446 -0.97237 0
    outer loop
      vertex 7.00861 6.18187 -7.5
      vertex 7.00861 6.18187 7.5
      vertex 6.01682 6.41997 7.5
    endloop
  endfacet
  facet normal -0.233446 -0.97237 0
    outer loop
      vertex 6.01682 6.41997 -7.5
      vertex 7.00861 6.18187 -7.5
      vertex 6.01682 6.41997 7.5
    endloop
  endfacet
  facet normal -0.0784593 -0.996917 0
    outer loop
      vertex 6.01682 6.41997 -7.5
      vertex 6.01682 6.41997 7.5
      vertex 5.48154 6.4621 7.5
    endloop
  endfacet
  facet normal -0.0784593 -0.996917 0
    outer loop
      vertex 5.48154 6.4621 -7.5
      vertex 6.01682 6.41997 -7.5
      vertex 5.48154 6.4621 7.5
    endloop
  endfacet
  facet normal -0.649448 -0.760406 0
    outer loop
      vertex 5.48154 6.4621 -7.5
      vertex 5.48154 6.4621 7.5
      vertex 4.99618 6.87664 7.5
    endloop
  endfacet
  facet normal -0.649448 -0.760406 0
    outer loop
      vertex 4.99618 6.87664 -7.5
      vertex 5.48154 6.4621 -7.5
      vertex 4.99618 6.87664 7.5
    endloop
  endfacet
  facet normal -0.522498 -0.85264 0
    outer loop
      vertex 4.99618 6.87664 -7.5
      vertex 4.99618 6.87664 7.5
      vertex 3.85892 7.57355 7.5
    endloop
  endfacet
  facet normal -0.522498 -0.85264 0
    outer loop
      vertex 3.85892 7.57355 -7.5
      vertex 4.99618 6.87664 -7.5
      vertex 3.85892 7.57355 7.5
    endloop
  endfacet
  facet normal -0.382683 -0.92388 0
    outer loop
      vertex 3.85892 7.57355 -7.5
      vertex 3.85892 7.57355 7.5
      vertex 2.62664 8.08398 7.5
    endloop
  endfacet
  facet normal -0.382683 -0.92388 0
    outer loop
      vertex 2.62664 8.08398 -7.5
      vertex 3.85892 7.57355 -7.5
      vertex 2.62664 8.08398 7.5
    endloop
  endfacet
  facet normal -0.233446 -0.97237 0
    outer loop
      vertex 2.62664 8.08398 -7.5
      vertex 2.62664 8.08398 7.5
      vertex 1.32969 8.39535 7.5
    endloop
  endfacet
  facet normal -0.233446 -0.97237 0
    outer loop
      vertex 1.32969 8.39535 -7.5
      vertex 2.62664 8.08398 -7.5
      vertex 1.32969 8.39535 7.5
    endloop
  endfacet
  facet normal -0.078459 -0.996917 0
    outer loop
      vertex 1.32969 8.39535 -7.5
      vertex 1.32969 8.39535 7.5
      vertex 0 8.5 7.5
    endloop
  endfacet
  facet normal -0.078459 -0.996917 0
    outer loop
      vertex 0 8.5 -7.5
      vertex 1.32969 8.39535 -7.5
      vertex 0 8.5 7.5
    endloop
  endfacet
  facet normal 0.078459 -0.996917 0
    outer loop
      vertex 0 8.5 -7.5
      vertex 0 8.5 7.5
      vertex -1.32969 8.39535 7.5
    endloop
  endfacet
  facet normal 0.078459 -0.996917 0
    outer loop
      vertex -1.32969 8.39535 -7.5
      vertex 0 8.5 -7.5
      vertex -1.32969 8.39535 7.5
    endloop
  endfacet
  facet normal 0.233446 -0.97237 0
    outer loop
      vertex -1.32969 8.39535 -7.5
      vertex -1.32969 8.39535 7.5
      vertex -2.62664 8.08398 7.5
    endloop
  endfacet
  facet normal 0.233446 -0.97237 0
    outer loop
      vertex -2.62664 8.08398 -7.5
      vertex -1.32969 8.39535 -7.5
      vertex -2.62664 8.08398 7.5
    endloop
  endfacet
  facet normal 0.382683 -0.92388 0
    outer loop
      vertex -2.62664 8.08398 -7.5
      vertex -2.62664 8.08398 7.5
      vertex -3.85892 7.57355 7.5
    endloop
  endfacet
  facet normal 0.382683 -0.92388 0
    outer loop
      vertex -3.85892 7.57355 -7.5
      vertex -2.62664 8.08398 -7.5
      vertex -3.85892 7.57355 7.5
    endloop
  endfacet
  facet normal 0.522498 -0.85264 0
    outer loop
      vertex -3.85892 7.57355 -7.5
      vertex -3.85892 7.57355 7.5
      vertex -4.99618 6.87664 7.5
    endloop
  endfacet
  facet normal 0.522498 -0.85264 0
    outer loop
      vertex -4.99618 6.87664 -7.5
      vertex -3.85892 7.57355 -7.5
      vertex -4.99618 6.87664 7.5
    endloop
  endfacet
  facet normal 0.649448 -0.760406 0
    outer loop
      vertex -4.99618 6.87664 -7.5
      vertex -4.99618 6.87664 7.5
      vertex -6.01041 6.01041 7.5
    endloop
  endfacet
  facet normal 0.649448 -0.760406 0
    outer loop
      vertex -6.01041 6.01041 -7.5
      vertex -4.99618 6.87664 -7.5
      vertex -6.01041 6.01041 7.5
    endloop
  endfacet
  facet normal 0.760406 -0.649448 0
    outer loop
      vertex -6.01041 6.01041 -7.5
      vertex -6.01041 6.01041 7.5
      vertex -6.87664 4.99618 7.5
    endloop
  endfacet
  facet normal 0.760406 -0.649448 0
    outer loop
      vertex -6.87664 4.99618 -7.5
      vertex -6.01041 6.01041 -7.5
      vertex -6.87664 4.99618 7.5
    endloop
  endfacet
  facet normal 0.85264 -0.522498 0
    outer loop
      vertex -6.87664 4.99618 -7.5
      vertex -6.87664 4.99618 7.5
      vertex -7.57355 3.85892 7.5
    endloop
  endfacet
  facet normal 0.85264 -0.522498 0
    outer loop
      vertex -7.57355 3.85892 -7.5
      vertex -6.87664 4.99618 -7.5
      vertex -7.57355 3.85892 7.5
    endloop
  endfacet
  facet normal 0.92388 -0.382683 0
    outer loop
      vertex -7.57355 3.85892 -7.5
      vertex -7.57355 3.85892 7.5
      vertex -8.08398 2.62664 7.5
    endloop
  endfacet
  facet normal 0.92388 -0.382683 0
    outer loop
      vertex -8.08398 2.62664 -7.5
      vertex -7.57355 3.85892 -7.5
      vertex -8.08398 2.62664 7.5
    endloop
  endfacet
  facet normal 0.97237 -0.233446 0
    outer loop
      vertex -8.08398 2.62664 -7.5
      vertex -8.08398 2.62664 7.5
      vertex -8.39535 1.32969 7.5
    endloop
  endfacet
  facet normal 0.97237 -0.233446 0
    outer loop
      vertex -8.39535 1.32969 -7.5
      vertex -8.08398 2.62664 -7.5
      vertex -8.39535 1.32969 7.5
    endloop
  endfacet
  facet normal 0.996917 -0.078459 0
    outer loop
      vertex -8.39535 1.32969 -7.5
      vertex -8.39535 1.32969 7.5
      vertex -8.5 0 7.5
    endloop
  endfacet
  facet normal 0.996917 -0.078459 0
    outer loop
      vertex -8.5 0 -7.5
      vertex -8.39535 1.32969 -7.5
      vertex -8.5 0 7.5
    endloop
  endfacet
  facet normal 0.996917 0.078459 0
    outer loop
      vertex -8.5 0 7.5
      vertex -8.39535 -1.32969 7.5
      vertex -8.39535 -1.32969 -7.5
    endloop
  endfacet
  facet normal 0.996917 0.078459 0
    outer loop
      vertex -8.5 0 -7.5
      vertex -8.5 0 7.5
      vertex -8.39535 -1.32969 -7.5
    endloop
  endfacet
  facet normal 0.97237 0.233446 0
    outer loop
      vertex -8.39535 -1.32969 7.5
      vertex -8.08398 -2.62664 7.5
      vertex -8.08398 -2.62664 -7.5
    endloop
  endfacet
  facet normal 0.97237 0.233446 0
    outer loop
      vertex -8.39535 -1.32969 -7.5
      vertex -8.39535 -1.32969 7.5
      vertex -8.08398 -2.62664 -7.5
    endloop
  endfacet
  facet normal 0.92388 0.382683 0
    outer loop
      vertex -8.08398 -2.62664 7.5
      vertex -7.57355 -3.85892 7.5
      vertex -7.57355 -3.85892 -7.5
    endloop
  endfacet
  facet normal 0.92388 0.382683 0
    outer loop
      vertex -8.08398 -2.62664 -7.5
      vertex -8.08398 -2.62664 7.5
      vertex -7.57355 -3.85892 -7.5
    endloop
  endfacet
  facet normal 0.85264 0.522498 0
    outer loop
      vertex -7.57355 -3.85892 7.5
      vertex -6.87664 -4.99618 7.5
      vertex -6.87664 -4.99618 -7.5
    endloop
  endfacet
  facet normal 0.85264 0.522498 0
    outer loop
      vertex -7.57355 -3.85892 -7.5
      vertex -7.57355 -3.85892 7.5
      vertex -6.87664 -4.99618 -7.5
    endloop
  endfacet
  facet normal 0.760406 0.649448 0
    outer loop
      vertex -6.87664 -4.99618 7.5
      vertex -6.01041 -6.01041 7.5
      vertex -6.01041 -6.01041 -7.5
    endloop
  endfacet
  facet normal 0.760406 0.649448 0
    outer loop
      vertex -6.87664 -4.99618 -7.5
      vertex -6.87664 -4.99618 7.5
      vertex -6.01041 -6.01041 -7.5
    endloop
  endfacet
  facet normal 0.649448 0.760406 0
    outer loop
      vertex -4.99618 -6.87664 7.5
      vertex -4.99618 -6.87664 -7.5
      vertex -6.01041 -6.01041 7.5
    endloop
  endfacet
  facet normal 0.649448 0.760406 0
    outer loop
      vertex -6.01041 -6.01041 7.5
      vertex -4.99618 -6.87664 -7.5
      vertex -6.01041 -6.01041 -7.5
    endloop
  endfacet
  facet normal 0.522498 0.85264 0
    outer loop
      vertex -3.85892 -7.57355 7.5
      vertex -3.85892 -7.57355 -7.5
      vertex -4.99618 -6.87664 7.5
    endloop
  endfacet
  facet normal 0.522498 0.85264 0
    outer loop
      vertex -4.99618 -6.87664 7.5
      vertex -3.85892 -7.57355 -7.5
      vertex -4.99618 -6.87664 -7.5
    endloop
  endfacet
  facet normal 0.382683 0.92388 0
    outer loop
      vertex -2.62664 -8.08398 7.5
      vertex -2.62664 -8.08398 -7.5
      vertex -3.85892 -7.57355 7.5
    endloop
  endfacet
  facet normal 0.382683 0.92388 0
    outer loop
      vertex -3.85892 -7.57355 7.5
      vertex -2.62664 -8.08398 -7.5
      vertex -3.85892 -7.57355 -7.5
    endloop
  endfacet
  facet normal 0.233446 0.97237 0
    outer loop
      vertex -1.32969 -8.39535 7.5
      vertex -1.32969 -8.39535 -7.5
      vertex -2.62664 -8.08398 7.5
    endloop
  endfacet
  facet normal 0.233446 0.97237 0
    outer loop
      vertex -2.62664 -8.08398 7.5
      vertex -1.32969 -8.39535 -7.5
      vertex -2.62664 -8.08398 -7.5
    endloop
  endfacet
  facet normal 0.078459 0.996917 0
    outer loop
      vertex 0 -8.5 7.5
      vertex 0 -8.5 -7.5
      vertex -1.32969 -8.39535 7.5
    endloop
  endfacet
  facet normal 0.078459 0.996917 0
    outer loop
      vertex -1.32969 -8.39535 7.5
      vertex 0 -8.5 -7.5
      vertex -1.32969 -8.39535 -7.5
    endloop
  endfacet
  facet normal -0.078459 0.996917 0
    outer loop
      vertex 1.32969 -8.39535 7.5
      vertex 1.32969 -8.39535 -7.5
      vertex 0 -8.5 7.5
    endloop
  endfacet
  facet normal -0.078459 0.996917 0
    outer loop
      vertex 0 -8.5 7.5
      vertex 1.32969 -8.39535 -7.5
      vertex 0 -8.5 -7.5
    endloop
  endfacet
  facet normal -0.233446 0.97237 0
    outer loop
      vertex 2.62664 -8.08398 7.5
      vertex 2.62664 -8.08398 -7.5
      vertex 1.32969 -8.39535 7.5
    endloop
  endfacet
  facet normal -0.233446 0.97237 0
    outer loop
      vertex 1.32969 -8.39535 7.5
      vertex 2.62664 -8.08398 -7.5
      vertex 1.32969 -8.39535 -7.5
    endloop
  endfacet
  facet normal -0.382683 0.92388 0
    outer loop
      vertex 3.85892 -7.57355 7.5
      vertex 3.85892 -7.57355 -7.5
      vertex 2.62664 -8.08398 7.5
    endloop
  endfacet
  facet normal -0.382683 0.92388 0
    outer loop
      vertex 2.62664 -8.08398 7.5
      vertex 3.85892 -7.57355 -7.5
      vertex 2.62664 -8.08398 -7.5
    endloop
  endfacet
  facet normal -0.522498 0.85264 0
    outer loop
      vertex 4.99618 -6.87664 7.5
      vertex 4.99618 -6.87664 -7.5
      vertex 3.85892 -7.57355 7.5
    endloop
  endfacet
  facet normal -0.522498 0.85264 0
    outer loop
      vertex 3.85892 -7.57355 7.5
      vertex 4.99618 -6.87664 -7.5
      vertex 3.85892 -7.57355 -7.5
    endloop
  endfacet
  facet normal -0.649448 0.760406 0
    outer loop
      vertex 5.48154 -6.4621 7.5
      vertex 5.48154 -6.4621 -7.5
      vertex 4.99618 -6.87664 7.5
    endloop
  endfacet
  facet normal -0.649448 0.760406 0
    outer loop
      vertex 4.99618 -6.87664 7.5
      vertex 5.48154 -6.4621 -7.5
      vertex 4.99618 -6.87664 -7.5
    endloop
  endfacet
  facet normal -0.0784593 0.996917 0
    outer loop
      vertex 6.01682 -6.41997 7.5
      vertex 6.01682 -6.41997 -7.5
      vertex 5.48154 -6.4621 7.5
    endloop
  endfacet
  facet normal -0.0784593 0.996917 0
    outer loop
      vertex 5.48154 -6.4621 7.5
      vertex 6.01682 -6.41997 -7.5
      vertex 5.48154 -6.4621 -7.5
    endloop
  endfacet
  facet normal -0.233446 0.97237 0
    outer loop
      vertex 7.00861 -6.18187 7.5
      vertex 7.00861 -6.18187 -7.5
      vertex 6.01682 -6.41997 7.5
    endloop
  endfacet
  facet normal -0.233446 0.97237 0
    outer loop
      vertex 6.01682 -6.41997 7.5
      vertex 7.00861 -6.18187 -7.5
      vertex 6.01682 -6.41997 -7.5
    endloop
  endfacet
  facet normal -0.382683 0.92388 0
    outer loop
      vertex 7.95094 -5.79154 7.5
      vertex 7.95094 -5.79154 -7.5
      vertex 7.00861 -6.18187 7.5
    endloop
  endfacet
  facet normal -0.382683 0.92388 0
    outer loop
      vertex 7.00861 -6.18187 7.5
      vertex 7.95094 -5.79154 -7.5
      vertex 7.00861 -6.18187 -7.5
    endloop
  endfacet
  facet normal -0.522499 0.85264 0
    outer loop
      vertex 8.25859 -5.60301 7.5
      vertex 8.25859 -5.60301 -7.5
      vertex 7.95094 -5.79154 7.5
    endloop
  endfacet
  facet normal -0.522499 0.85264 0
    outer loop
      vertex 7.95094 -5.79154 7.5
      vertex 8.25859 -5.60301 -7.5
      vertex 7.95094 -5.79154 -7.5
    endloop
  endfacet
  facet normal 0.85264 -0.522498 0
    outer loop
      vertex 8.09017 -5.87785 7.5
      vertex 8.09017 -5.87785 -7.5
      vertex 8.25859 -5.60301 -7.5
    endloop
  endfacet
  facet normal 0.85264 -0.522498 0
    outer loop
      vertex 8.25859 -5.60301 7.5
      vertex 8.09017 -5.87785 7.5
      vertex 8.25859 -5.60301 -7.5
    endloop
  endfacet
  facet normal 0.760406 -0.649448 0
    outer loop
      vertex 7.07107 -7.07107 7.5
      vertex 7.07107 -7.07107 -7.5
      vertex 8.09017 -5.87785 -7.5
    endloop
  endfacet
  facet normal 0.760406 -0.649448 0
    outer loop
      vertex 8.09017 -5.87785 7.5
      vertex 7.07107 -7.07107 7.5
      vertex 8.09017 -5.87785 -7.5
    endloop
  endfacet
  facet normal 0.649448 -0.760406 0
    outer loop
      vertex 5.87785 -8.09017 7.5
      vertex 5.87785 -8.09017 -7.5
      vertex 7.07107 -7.07107 -7.5
    endloop
  endfacet
  facet normal 0.649448 -0.760406 0
    outer loop
      vertex 7.07107 -7.07107 7.5
      vertex 5.87785 -8.09017 7.5
      vertex 7.07107 -7.07107 -7.5
    endloop
  endfacet
  facet normal 0.522498 -0.85264 0
    outer loop
      vertex 4.53991 -8.91006 7.5
      vertex 4.53991 -8.91006 -7.5
      vertex 5.87785 -8.09017 -7.5
    endloop
  endfacet
  facet normal 0.522498 -0.85264 0
    outer loop
      vertex 5.87785 -8.09017 7.5
      vertex 4.53991 -8.91006 7.5
      vertex 5.87785 -8.09017 -7.5
    endloop
  endfacet
  facet normal 0.382683 -0.92388 0
    outer loop
      vertex 3.09017 -9.51056 7.5
      vertex 3.09017 -9.51056 -7.5
      vertex 4.53991 -8.91006 -7.5
    endloop
  endfacet
  facet normal 0.382683 -0.92388 0
    outer loop
      vertex 4.53991 -8.91006 7.5
      vertex 3.09017 -9.51056 7.5
      vertex 4.53991 -8.91006 -7.5
    endloop
  endfacet
  facet normal 0.233445 -0.97237 0
    outer loop
      vertex 1.56434 -9.87688 7.5
      vertex 1.56434 -9.87688 -7.5
      vertex 3.09017 -9.51056 -7.5
    endloop
  endfacet
  facet normal 0.233445 -0.97237 0
    outer loop
      vertex 3.09017 -9.51056 7.5
      vertex 1.56434 -9.87688 7.5
      vertex 3.09017 -9.51056 -7.5
    endloop
  endfacet
  facet normal 0.0784593 -0.996917 0
    outer loop
      vertex 0 -10 7.5
      vertex 0 -10 -7.5
      vertex 1.56434 -9.87688 -7.5
    endloop
  endfacet
  facet normal 0.0784593 -0.996917 0
    outer loop
      vertex 1.56434 -9.87688 7.5
      vertex 0 -10 7.5
      vertex 1.56434 -9.87688 -7.5
    endloop
  endfacet
  facet normal -0.0784593 -0.996917 0
    outer loop
      vertex -1.56434 -9.87688 7.5
      vertex -1.56434 -9.87688 -7.5
      vertex 0 -10 -7.5
    endloop
  endfacet
  facet normal -0.0784593 -0.996917 0
    outer loop
      vertex 0 -10 7.5
      vertex -1.56434 -9.87688 7.5
      vertex 0 -10 -7.5
    endloop
  endfacet
  facet normal -0.233445 -0.97237 0
    outer loop
      vertex -3.09017 -9.51056 7.5
      vertex -3.09017 -9.51056 -7.5
      vertex -1.56434 -9.87688 -7.5
    endloop
  endfacet
  facet normal -0.233445 -0.97237 0
    outer loop
      vertex -1.56434 -9.87688 7.5
      vertex -3.09017 -9.51056 7.5
      vertex -1.56434 -9.87688 -7.5
    endloop
  endfacet
  facet normal -0.382683 -0.92388 0
    outer loop
      vertex -4.53991 -8.91006 7.5
      vertex -4.53991 -8.91006 -7.5
      vertex -3.09017 -9.51056 -7.5
    endloop
  endfacet
  facet normal -0.382683 -0.92388 0
    outer loop
      vertex -3.09017 -9.51056 7.5
      vertex -4.53991 -8.91006 7.5
      vertex -3.09017 -9.51056 -7.5
    endloop
  endfacet
  facet normal -0.522498 -0.85264 0
    outer loop
      vertex -5.87785 -8.09017 7.5
      vertex -5.87785 -8.09017 -7.5
      vertex -4.53991 -8.91006 -7.5
    endloop
  endfacet
  facet normal -0.522498 -0.85264 0
    outer loop
      vertex -4.53991 -8.91006 7.5
      vertex -5.87785 -8.09017 7.5
      vertex -4.53991 -8.91006 -7.5
    endloop
  endfacet
  facet normal -0.649448 -0.760406 0
    outer loop
      vertex -7.07107 -7.07107 7.5
      vertex -7.07107 -7.07107 -7.5
      vertex -5.87785 -8.09017 -7.5
    endloop
  endfacet
  facet normal -0.649448 -0.760406 0
    outer loop
      vertex -5.87785 -8.09017 7.5
      vertex -7.07107 -7.07107 7.5
      vertex -5.87785 -8.09017 -7.5
    endloop
  endfacet
  facet normal -0.760406 -0.649448 0
    outer loop
      vertex -8.09017 -5.87785 -7.5
      vertex -7.07107 -7.07107 -7.5
      vertex -8.09017 -5.87785 7.5
    endloop
  endfacet
  facet normal -0.760406 -0.649448 0
    outer loop
      vertex -8.09017 -5.87785 7.5
      vertex -7.07107 -7.07107 -7.5
      vertex -7.07107 -7.07107 7.5
    endloop
  endfacet
  facet normal -0.85264 -0.522498 0
    outer loop
      vertex -8.91006 -4.53991 -7.5
      vertex -8.09017 -5.87785 -7.5
      vertex -8.91006 -4.53991 7.5
    endloop
  endfacet
  facet normal -0.85264 -0.522498 0
    outer loop
      vertex -8.91006 -4.53991 7.5
      vertex -8.09017 -5.87785 -7.5
      vertex -8.09017 -5.87785 7.5
    endloop
  endfacet
  facet normal -0.92388 -0.382683 0
    outer loop
      vertex -9.51056 -3.09017 -7.5
      vertex -8.91006 -4.53991 -7.5
      vertex -9.51056 -3.09017 7.5
    endloop
  endfacet
  facet normal -0.92388 -0.382683 0
    outer loop
      vertex -9.51056 -3.09017 7.5
      vertex -8.91006 -4.53991 -7.5
      vertex -8.91006 -4.53991 7.5
    endloop
  endfacet
endsolid OpenSCAD_Model
