solid OpenSCAD_Model
  facet normal -1 0 0
    outer loop
      vertex -6.4943 -0.272192 7.5
      vertex -6.4943 0.272192 -7.5
      vertex -6.4943 -0.272192 -7.5
    endloop
  endfacet
  facet normal -1 0 0
    outer loop
      vertex -6.4943 -0.272192 7.5
      vertex -6.4943 0.272192 7.5
      vertex -6.4943 0.272192 -7.5
    endloop
  endfacet
  facet normal 0.756995 -0.653421 0
    outer loop
      vertex 5.09401 -4.03746 -7.5
      vertex 4.7383 -4.44956 7.5
      vertex 4.7383 -4.44956 -7.5
    endloop
  endfacet
  facet normal 0.756995 -0.653421 0
    outer loop
      vertex 5.09401 -4.03746 -7.5
      vertex 5.09401 -4.03746 7.5
      vertex 4.7383 -4.44956 7.5
    endloop
  endfacet
  facet normal 0 0 -1
    outer loop
      vertex -4.7045 3.15085 -7.5
      vertex -4.60428 3 -7.5
      vertex -4.7045 2.84915 -7.5
    endloop
  endfacet
  facet normal 0 -0 -1
    outer loop
      vertex -6.44875 0.814666 -7.5
      vertex -5.49518 0.230316 -7.5
      vertex -6.4943 0.272192 -7.5
    endloop
  endfacet
  facet normal 0 -0 -1
    outer loop
      vertex -6.35796 1.35143 -7.5
      vertex -5.37981 1.14351 -7.5
      vertex -6.44875 0.814666 -7.5
    endloop
  endfacet
  facet normal 0 -0 -1
    outer loop
      vertex -6.22258 1.87871 -7.5
      vertex -5.26526 1.58967 -7.5
      vertex -6.35796 1.35143 -7.5
    endloop
  endfacet
  facet normal 0 -0 -1
    outer loop
      vertex -6.04355 2.39281 -7.5
      vertex -5.26526 1.58967 -7.5
      vertex -6.22258 1.87871 -7.5
    endloop
  endfacet
  facet normal 0 -0 -1
    outer loop
      vertex -5.82213 2.89013 -7.5
      vertex -5.11377 2.02469 -7.5
      vertex -6.04355 2.39281 -7.5
    endloop
  endfacet
  facet normal 0 -0 -1
    outer loop
      vertex -5.55987 3.36718 -7.5
      vertex -4.92641 2.44549 -7.5
      vertex -5.82213 2.89013 -7.5
    endloop
  endfacet
  facet normal 0 -0 -1
    outer loop
      vertex -5.25861 3.8206 -7.5
      vertex -4.92641 3.55451 -7.5
      vertex -5.55987 3.36718 -7.5
    endloop
  endfacet
  facet normal 0 -0 -1
    outer loop
      vertex -5.12055 3.99479 -7.5
      vertex -5.11377 3.97531 -7.5
      vertex -5.25861 3.8206 -7.5
    endloop
  endfacet
  facet normal 0 -0 -1
    outer loop
      vertex -5.11377 3.97531 -7.5
      vertex -4.92641 3.55451 -7.5
      vertex -5.25861 3.8206 -7.5
    endloop
  endfacet
  facet normal 0 0 -1
    outer loop
      vertex -4.7045 3.15085 -7.5
      vertex -5.55987 3.36718 -7.5
      vertex -4.92641 3.55451 -7.5
    endloop
  endfacet
  facet normal 0 0 -1
    outer loop
      vertex -4.7045 2.84915 -7.5
      vertex -5.55987 3.36718 -7.5
      vertex -4.7045 3.15085 -7.5
    endloop
  endfacet
  facet normal 0 0 -1
    outer loop
      vertex -6.4943 0.272192 -7.5
      vertex -5.49518 0.230316 -7.5
      vertex -6.4943 -0.272192 -7.5
    endloop
  endfacet
  facet normal 0 0 -1
    outer loop
      vertex -5.26526 1.58967 -7.5
      vertex -6.04355 2.39281 -7.5
      vertex -5.11377 2.02469 -7.5
    endloop
  endfacet
  facet normal -0 0 -1
    outer loop
      vertex -4.7045 2.84915 -7.5
      vertex -4.92641 2.44549 -7.5
      vertex -5.55987 3.36718 -7.5
    endloop
  endfacet
  facet normal 0 0 -1
    outer loop
      vertex -5.49518 -0.230316 -7.5
      vertex -6.44875 -0.814666 -7.5
      vertex -6.4943 -0.272192 -7.5
    endloop
  endfacet
  facet normal 0 0 -1
    outer loop
      vertex -5.11377 2.02469 -7.5
      vertex -5.82213 2.89013 -7.5
      vertex -4.92641 2.44549 -7.5
    endloop
  endfacet
  facet normal 0 0 -1
    outer loop
      vertex -5.37981 1.14351 -7.5
      vertex -6.35796 1.35143 -7.5
      vertex -5.26526 1.58967 -7.5
    endloop
  endfacet
  facet normal 0 0 -1
    outer loop
      vertex -5.45663 0.689333 -7.5
      vertex -6.44875 0.814666 -7.5
      vertex -5.37981 1.14351 -7.5
    endloop
  endfacet
  facet normal 0 0 -1
    outer loop
      vertex -5.49518 0.230316 -7.5
      vertex -6.44875 0.814666 -7.5
      vertex -5.45663 0.689333 -7.5
    endloop
  endfacet
  facet normal -0 0 -1
    outer loop
      vertex -5.49518 -0.230316 -7.5
      vertex -6.4943 -0.272192 -7.5
      vertex -5.49518 0.230316 -7.5
    endloop
  endfacet
  facet normal -0 0 -1
    outer loop
      vertex -5.45663 -0.689333 -7.5
      vertex -6.44875 -0.814666 -7.5
      vertex -5.49518 -0.230316 -7.5
    endloop
  endfacet
  facet normal 0 0 -1
    outer loop
      vertex -5.37981 -1.14351 -7.5
      vertex -6.44875 -0.814666 -7.5
      vertex -5.45663 -0.689333 -7.5
    endloop
  endfacet
  facet normal 0 0 -1
    outer loop
      vertex -6.35796 -1.35143 -7.5
      vertex -6.44875 -0.814666 -7.5
      vertex -5.37981 -1.14351 -7.5
    endloop
  endfacet
  facet normal 0 0 -1
    outer loop
      vertex -6.35796 -1.35143 -7.5
      vertex -5.37981 -1.14351 -7.5
      vertex -5.26526 -1.58967 -7.5
    endloop
  endfacet
  facet normal 0 0 -1
    outer loop
      vertex -6.22258 -1.87871 -7.5
      vertex -5.26526 -1.58967 -7.5
      vertex -5.11377 -2.02469 -7.5
    endloop
  endfacet
  facet normal 0 -0 -1
    outer loop
      vertex -5.11377 -2.02469 -7.5
      vertex -4.92641 -2.44549 -7.5
      vertex -5.82213 -2.89013 -7.5
    endloop
  endfacet
  facet normal 0 -0 -1
    outer loop
      vertex -4.92641 -2.44549 -7.5
      vertex -4.7045 -2.84915 -7.5
      vertex -5.82213 -2.89013 -7.5
    endloop
  endfacet
  facet normal 0 -0 -1
    outer loop
      vertex -4.7045 -2.84915 -7.5
      vertex -4.44959 -3.23282 -7.5
      vertex -5.25861 -3.8206 -7.5
    endloop
  endfacet
  facet normal 0 -0 -1
    outer loop
      vertex -4.44959 -3.23282 -7.5
      vertex -4.16347 -3.59381 -7.5
      vertex -4.92047 -4.24723 -7.5
    endloop
  endfacet
  facet normal 0 -0 -1
    outer loop
      vertex -4.16347 -3.59381 -7.5
      vertex -3.84815 -3.9296 -7.5
      vertex -4.92047 -4.24723 -7.5
    endloop
  endfacet
  facet normal 0 -0 -1
    outer loop
      vertex -3.84815 -3.9296 -7.5
      vertex -3.50583 -4.23782 -7.5
      vertex -4.54781 -4.64407 -7.5
    endloop
  endfacet
  facet normal 0 -0 -1
    outer loop
      vertex -3.50583 -4.23782 -7.5
      vertex -3.13892 -4.51632 -7.5
      vertex -3.70964 -5.33747 -7.5
    endloop
  endfacet
  facet normal 0 0 -1
    outer loop
      vertex -3.45353 -5.5 -7.5
      vertex -2.34179 -4.97655 -7.5
      vertex -1.91715 -5.15505 -7.5
    endloop
  endfacet
  facet normal 0 0 -1
    outer loop
      vertex -3.45353 -5.5 -7.5
      vertex -1.91715 -5.15505 -7.5
      vertex -1.47906 -5.29739 -7.5
    endloop
  endfacet
  facet normal 0 0 -1
    outer loop
      vertex -5.5 -8.5 -7.5
      vertex -1.47906 -5.29739 -7.5
      vertex -1.0306 -5.40258 -7.5
    endloop
  endfacet
  facet normal 0 0 -1
    outer loop
      vertex -5.5 -8.5 -7.5
      vertex -1.0306 -5.40258 -7.5
      vertex -0.574907 -5.46987 -7.5
    endloop
  endfacet
  facet normal -0 0 -1
    outer loop
      vertex 6.4772 0.543906 -7.5
      vertex 5.48071 0.460228 -7.5
      vertex 5.42298 0.917228 -7.5
    endloop
  endfacet
  facet normal 0 0 -1
    outer loop
      vertex 6.29579 1.61648 -7.5
      vertex 5.42298 0.917228 -7.5
      vertex 5.32721 1.36779 -7.5
    endloop
  endfacet
  facet normal -0 0 -1
    outer loop
      vertex 6.29579 1.61648 -7.5
      vertex 5.32721 1.36779 -7.5
      vertex 5.19407 1.80877 -7.5
    endloop
  endfacet
  facet normal 0 0 -1
    outer loop
      vertex 5.93805 2.64379 -7.5
      vertex 5.19407 1.80877 -7.5
      vertex 5.0245 2.23705 -7.5
    endloop
  endfacet
  facet normal -0 0 -1
    outer loop
      vertex 5.93805 2.64379 -7.5
      vertex 5.0245 2.23705 -7.5
      vertex 4.81969 2.64965 -7.5
    endloop
  endfacet
  facet normal 0 -0 -1
    outer loop
      vertex 4.81969 3.35035 -7.5
      vertex 4.81969 2.64965 -7.5
      vertex 4.6075 3 -7.5
    endloop
  endfacet
  facet normal -0 0 -1
    outer loop
      vertex 5.69599 3.1314 -7.5
      vertex 4.81969 2.64965 -7.5
      vertex 4.81969 3.35035 -7.5
    endloop
  endfacet
  facet normal -0 0 -1
    outer loop
      vertex 5.41399 3.59705 -7.5
      vertex 4.81969 3.35035 -7.5
      vertex 5.0245 3.76295 -7.5
    endloop
  endfacet
  facet normal 0 -0 -1
    outer loop
      vertex 5.11937 4.00256 -7.5
      vertex 5.41399 3.59705 -7.5
      vertex 5.0245 3.76295 -7.5
    endloop
  endfacet
  facet normal 0 0 -1
    outer loop
      vertex 6.5 0 -7.5
      vertex 5.5 0 -7.5
      vertex 5.48071 0.460228 -7.5
    endloop
  endfacet
  facet normal 0 -0 -1
    outer loop
      vertex 5.41399 3.59705 -7.5
      vertex 5.69599 3.1314 -7.5
      vertex 4.81969 3.35035 -7.5
    endloop
  endfacet
  facet normal 0 0 -1
    outer loop
      vertex 6.4772 -0.543906 -7.5
      vertex 5.48071 -0.460228 -7.5
      vertex 5.5 0 -7.5
    endloop
  endfacet
  facet normal 0 -0 -1
    outer loop
      vertex 5.69599 3.1314 -7.5
      vertex 5.93805 2.64379 -7.5
      vertex 4.81969 2.64965 -7.5
    endloop
  endfacet
  facet normal 0 0 -1
    outer loop
      vertex 6.40897 -1.084 -7.5
      vertex 5.42298 -0.917228 -7.5
      vertex 5.48071 -0.460228 -7.5
    endloop
  endfacet
  facet normal 0 -0 -1
    outer loop
      vertex 5.93805 2.64379 -7.5
      vertex 6.13845 2.13763 -7.5
      vertex 5.19407 1.80877 -7.5
    endloop
  endfacet
  facet normal 0 0 -1
    outer loop
      vertex 6.29579 -1.61648 -7.5
      vertex 5.32721 -1.36779 -7.5
      vertex 5.42298 -0.917228 -7.5
    endloop
  endfacet
  facet normal 0 -0 -1
    outer loop
      vertex 6.13845 2.13763 -7.5
      vertex 6.29579 1.61648 -7.5
      vertex 5.19407 1.80877 -7.5
    endloop
  endfacet
  facet normal -0 0 -1
    outer loop
      vertex 6.29579 -1.61648 -7.5
      vertex 5.19407 -1.80877 -7.5
      vertex 5.32721 -1.36779 -7.5
    endloop
  endfacet
  facet normal 0 -0 -1
    outer loop
      vertex 6.29579 1.61648 -7.5
      vertex 6.40897 1.084 -7.5
      vertex 5.42298 0.917228 -7.5
    endloop
  endfacet
  facet normal 0 0 -1
    outer loop
      vertex 5.93805 -2.64379 -7.5
      vertex 5.0245 -2.23705 -7.5
      vertex 5.19407 -1.80877 -7.5
    endloop
  endfacet
  facet normal 0 -0 -1
    outer loop
      vertex 6.40897 1.084 -7.5
      vertex 6.4772 0.543906 -7.5
      vertex 5.42298 0.917228 -7.5
    endloop
  endfacet
  facet normal -0 0 -1
    outer loop
      vertex 5.93805 -2.64379 -7.5
      vertex 4.81969 -2.64965 -7.5
      vertex 5.0245 -2.23705 -7.5
    endloop
  endfacet
  facet normal 0 -0 -1
    outer loop
      vertex 6.4772 0.543906 -7.5
      vertex 6.5 0 -7.5
      vertex 5.48071 0.460228 -7.5
    endloop
  endfacet
  facet normal 0 0 -1
    outer loop
      vertex 5.69599 -3.1314 -7.5
      vertex 4.58107 -3.04365 -7.5
      vertex 4.81969 -2.64965 -7.5
    endloop
  endfacet
  facet normal -0 0 -1
    outer loop
      vertex 6.5 0 -7.5
      vertex 6.4772 -0.543906 -7.5
      vertex 5.5 0 -7.5
    endloop
  endfacet
  facet normal 0 0 -1
    outer loop
      vertex 5.09401 -4.03746 -7.5
      vertex 4.31031 -3.41631 -7.5
      vertex 4.58107 -3.04365 -7.5
    endloop
  endfacet
  facet normal -0 0 -1
    outer loop
      vertex 6.4772 -0.543906 -7.5
      vertex 6.40897 -1.084 -7.5
      vertex 5.48071 -0.460228 -7.5
    endloop
  endfacet
  facet normal 0 0 -1
    outer loop
      vertex 4.7383 -4.44956 -7.5
      vertex 4.00933 -3.76501 -7.5
      vertex 4.31031 -3.41631 -7.5
    endloop
  endfacet
  facet normal -0 0 -1
    outer loop
      vertex 6.40897 -1.084 -7.5
      vertex 6.29579 -1.61648 -7.5
      vertex 5.42298 -0.917228 -7.5
    endloop
  endfacet
  facet normal 0 0 -1
    outer loop
      vertex 4.7383 -4.44956 -7.5
      vertex 3.68022 -4.0873 -7.5
      vertex 4.00933 -3.76501 -7.5
    endloop
  endfacet
  facet normal 0 0 -1
    outer loop
      vertex 6.29579 -1.61648 -7.5
      vertex 6.13845 -2.13763 -7.5
      vertex 5.19407 -1.80877 -7.5
    endloop
  endfacet
  facet normal 0 0 -1
    outer loop
      vertex 4.34935 -4.83044 -7.5
      vertex 3.3253 -4.38091 -7.5
      vertex 3.68022 -4.0873 -7.5
    endloop
  endfacet
  facet normal -0 0 -1
    outer loop
      vertex 6.13845 -2.13763 -7.5
      vertex 5.93805 -2.64379 -7.5
      vertex 5.19407 -1.80877 -7.5
    endloop
  endfacet
  facet normal 0 0 -1
    outer loop
      vertex 3.48287 -5.48813 -7.5
      vertex 2.94705 -4.6438 -7.5
      vertex 3.3253 -4.38091 -7.5
    endloop
  endfacet
  facet normal 0 0 -1
    outer loop
      vertex 5.93805 -2.64379 -7.5
      vertex 5.69599 -3.1314 -7.5
      vertex 4.81969 -2.64965 -7.5
    endloop
  endfacet
  facet normal 0 0 -1
    outer loop
      vertex 3.46232 -5.5 -7.5
      vertex 2.54813 -4.87412 -7.5
      vertex 2.94705 -4.6438 -7.5
    endloop
  endfacet
  facet normal -0 0 -1
    outer loop
      vertex 5.69599 -3.1314 -7.5
      vertex 5.41399 -3.59705 -7.5
      vertex 4.58107 -3.04365 -7.5
    endloop
  endfacet
  facet normal 0 0 -1
    outer loop
      vertex 3.46232 -5.5 -7.5
      vertex 2.13134 -5.07025 -7.5
      vertex 2.54813 -4.87412 -7.5
    endloop
  endfacet
  facet normal -0 0 -1
    outer loop
      vertex 5.41399 -3.59705 -7.5
      vertex 5.09401 -4.03746 -7.5
      vertex 4.58107 -3.04365 -7.5
    endloop
  endfacet
  facet normal 0 0 -1
    outer loop
      vertex 3.46232 -5.5 -7.5
      vertex 1.69959 -5.23081 -7.5
      vertex 2.13134 -5.07025 -7.5
    endloop
  endfacet
  facet normal -0 0 -1
    outer loop
      vertex 5.09401 -4.03746 -7.5
      vertex 4.7383 -4.44956 -7.5
      vertex 4.31031 -3.41631 -7.5
    endloop
  endfacet
  facet normal 0 0 -1
    outer loop
      vertex 3.46232 -5.5 -7.5
      vertex 1.25593 -5.35468 -7.5
      vertex 1.69959 -5.23081 -7.5
    endloop
  endfacet
  facet normal -0 0 -1
    outer loop
      vertex 4.7383 -4.44956 -7.5
      vertex 4.34935 -4.83044 -7.5
      vertex 3.68022 -4.0873 -7.5
    endloop
  endfacet
  facet normal 0 0 -1
    outer loop
      vertex 5.5 -8.5 -7.5
      vertex 0.803457 -5.441 -7.5
      vertex 1.25593 -5.35468 -7.5
    endloop
  endfacet
  facet normal -0 0 -1
    outer loop
      vertex 4.34935 -4.83044 -7.5
      vertex 3.92989 -5.17744 -7.5
      vertex 3.3253 -4.38091 -7.5
    endloop
  endfacet
  facet normal 0 0 -1
    outer loop
      vertex 5.5 -8.5 -7.5
      vertex 0.345348 -5.48915 -7.5
      vertex 0.803457 -5.441 -7.5
    endloop
  endfacet
  facet normal -0 0 -1
    outer loop
      vertex 3.92989 -5.17744 -7.5
      vertex 3.48287 -5.48813 -7.5
      vertex 3.3253 -4.38091 -7.5
    endloop
  endfacet
  facet normal 0 0 -1
    outer loop
      vertex 5.5 -8.5 -7.5
      vertex -0.115183 -5.49879 -7.5
      vertex 0.345348 -5.48915 -7.5
    endloop
  endfacet
  facet normal -0 0 -1
    outer loop
      vertex 3.48287 -5.48813 -7.5
      vertex 3.46232 -5.5 -7.5
      vertex 2.94705 -4.6438 -7.5
    endloop
  endfacet
  facet normal 0 0 -1
    outer loop
      vertex -5.5 -8.5 -7.5
      vertex -0.574907 -5.46987 -7.5
      vertex -0.115183 -5.49879 -7.5
    endloop
  endfacet
  facet normal 0 0 -1
    outer loop
      vertex 5.5 -8.5 -7.5
      vertex 1.25593 -5.35468 -7.5
      vertex 3.46232 -5.5 -7.5
    endloop
  endfacet
  facet normal 0 0 -1
    outer loop
      vertex 5.5 -8.5 -7.5
      vertex -5.5 -8.5 -7.5
      vertex -0.115183 -5.49879 -7.5
    endloop
  endfacet
  facet normal 0 -0 -1
    outer loop
      vertex -3.13892 -4.51632 -7.5
      vertex -2.75 -4.76314 -7.5
      vertex -3.45353 -5.5 -7.5
    endloop
  endfacet
  facet normal 0 0 -1
    outer loop
      vertex -5.5 -8.5 -7.5
      vertex -5.5 -5.5 -7.5
      vertex -3.45353 -5.5 -7.5
    endloop
  endfacet
  facet normal 0 0 -1
    outer loop
      vertex -5.5 -8.5 -7.5
      vertex -3.45353 -5.5 -7.5
      vertex -1.47906 -5.29739 -7.5
    endloop
  endfacet
  facet normal 0 0 -1
    outer loop
      vertex -3.45353 -5.5 -7.5
      vertex -2.75 -4.76314 -7.5
      vertex -2.34179 -4.97655 -7.5
    endloop
  endfacet
  facet normal 0 0 -1
    outer loop
      vertex -3.70964 -5.33747 -7.5
      vertex -3.13892 -4.51632 -7.5
      vertex -3.45353 -5.5 -7.5
    endloop
  endfacet
  facet normal 0 0 -1
    outer loop
      vertex -4.14326 -5.00834 -7.5
      vertex -3.50583 -4.23782 -7.5
      vertex -3.70964 -5.33747 -7.5
    endloop
  endfacet
  facet normal 0 0 -1
    outer loop
      vertex -4.54781 -4.64407 -7.5
      vertex -3.50583 -4.23782 -7.5
      vertex -4.14326 -5.00834 -7.5
    endloop
  endfacet
  facet normal 0 0 -1
    outer loop
      vertex -4.92047 -4.24723 -7.5
      vertex -3.84815 -3.9296 -7.5
      vertex -4.54781 -4.64407 -7.5
    endloop
  endfacet
  facet normal 0 0 -1
    outer loop
      vertex -5.25861 -3.8206 -7.5
      vertex -4.44959 -3.23282 -7.5
      vertex -4.92047 -4.24723 -7.5
    endloop
  endfacet
  facet normal 0 0 -1
    outer loop
      vertex -5.55987 -3.36718 -7.5
      vertex -4.7045 -2.84915 -7.5
      vertex -5.25861 -3.8206 -7.5
    endloop
  endfacet
  facet normal 0 0 -1
    outer loop
      vertex -5.82213 -2.89013 -7.5
      vertex -4.7045 -2.84915 -7.5
      vertex -5.55987 -3.36718 -7.5
    endloop
  endfacet
  facet normal 0 0 -1
    outer loop
      vertex -6.04355 -2.39281 -7.5
      vertex -5.11377 -2.02469 -7.5
      vertex -5.82213 -2.89013 -7.5
    endloop
  endfacet
  facet normal 0 0 -1
    outer loop
      vertex -6.22258 -1.87871 -7.5
      vertex -5.11377 -2.02469 -7.5
      vertex -6.04355 -2.39281 -7.5
    endloop
  endfacet
  facet normal 0 0 -1
    outer loop
      vertex -6.35796 -1.35143 -7.5
      vertex -5.26526 -1.58967 -7.5
      vertex -6.22258 -1.87871 -7.5
    endloop
  endfacet
  facet normal 0 0 -1
    outer loop
      vertex 5.5 -8.5 -7.5
      vertex 3.46232 -5.5 -7.5
      vertex 5.5 -5.5 -7.5
    endloop
  endfacet
  facet normal -0.996493 0.0836778 0
    outer loop
      vertex -6.4943 0.272192 7.5
      vertex -6.44875 0.814666 -7.5
      vertex -6.4943 0.272192 -7.5
    endloop
  endfacet
  facet normal -0.996493 0.0836778 0
    outer loop
      vertex -6.4943 0.272192 7.5
      vertex -6.44875 0.814666 7.5
      vertex -6.44875 0.814666 -7.5
    endloop
  endfacet
  facet normal 0 0 1
    outer loop
      vertex -5.5 -8.5 7.5
      vertex -3.45353 -5.5 7.5
      vertex -5.5 -5.5 7.5
    endloop
  endfacet
  facet normal 0 0 1
    outer loop
      vertex 3.46232 -5.5 7.5
      vertex 2.13134 -5.07025 7.5
      vertex 1.69959 -5.23081 7.5
    endloop
  endfacet
  facet normal 0 0 1
    outer loop
      vertex 5.5 -8.5 7.5
      vertex -0.115183 -5.49879 7.5
      vertex -5.5 -8.5 7.5
    endloop
  endfacet
  facet normal 0 0 1
    outer loop
      vertex 2.94705 -4.6438 7.5
      vertex 3.46232 -5.5 7.5
      vertex 3.48287 -5.48813 7.5
    endloop
  endfacet
  facet normal 0 0 1
    outer loop
      vertex 5.41399 3.59705 7.5
      vertex 5.11937 4.00256 7.5
      vertex 5.0245 3.76295 7.5
    endloop
  endfacet
  facet normal 0 0 1
    outer loop
      vertex 4.81969 3.35035 7.5
      vertex 4.6075 3 7.5
      vertex 4.81969 2.64965 7.5
    endloop
  endfacet
  facet normal 0 0 1
    outer loop
      vertex 6.4772 0.543906 7.5
      vertex 5.48071 0.460228 7.5
      vertex 6.5 0 7.5
    endloop
  endfacet
  facet normal 0 0 1
    outer loop
      vertex 6.40897 1.084 7.5
      vertex 5.42298 0.917228 7.5
      vertex 6.4772 0.543906 7.5
    endloop
  endfacet
  facet normal 0 0 1
    outer loop
      vertex 6.29579 1.61648 7.5
      vertex 5.42298 0.917228 7.5
      vertex 6.40897 1.084 7.5
    endloop
  endfacet
  facet normal 0 0 1
    outer loop
      vertex 6.13845 2.13763 7.5
      vertex 5.19407 1.80877 7.5
      vertex 6.29579 1.61648 7.5
    endloop
  endfacet
  facet normal 0 0 1
    outer loop
      vertex 5.93805 2.64379 7.5
      vertex 5.19407 1.80877 7.5
      vertex 6.13845 2.13763 7.5
    endloop
  endfacet
  facet normal 0 0 1
    outer loop
      vertex 5.69599 3.1314 7.5
      vertex 4.81969 2.64965 7.5
      vertex 5.93805 2.64379 7.5
    endloop
  endfacet
  facet normal 0 0 1
    outer loop
      vertex 5.41399 3.59705 7.5
      vertex 4.81969 3.35035 7.5
      vertex 5.69599 3.1314 7.5
    endloop
  endfacet
  facet normal 0 0 1
    outer loop
      vertex 5.0245 3.76295 7.5
      vertex 4.81969 3.35035 7.5
      vertex 5.41399 3.59705 7.5
    endloop
  endfacet
  facet normal 0 0 1
    outer loop
      vertex 4.81969 3.35035 7.5
      vertex 4.81969 2.64965 7.5
      vertex 5.69599 3.1314 7.5
    endloop
  endfacet
  facet normal 0 0 1
    outer loop
      vertex 6.5 0 7.5
      vertex 5.5 0 7.5
      vertex 6.4772 -0.543906 7.5
    endloop
  endfacet
  facet normal 0 -0 1
    outer loop
      vertex 6.29579 -1.61648 7.5
      vertex 6.40897 -1.084 7.5
      vertex 5.42298 -0.917228 7.5
    endloop
  endfacet
  facet normal 0 0 1
    outer loop
      vertex 4.81969 2.64965 7.5
      vertex 5.0245 2.23705 7.5
      vertex 5.93805 2.64379 7.5
    endloop
  endfacet
  facet normal 0 0 1
    outer loop
      vertex 5.48071 -0.460228 7.5
      vertex 6.40897 -1.084 7.5
      vertex 6.4772 -0.543906 7.5
    endloop
  endfacet
  facet normal 0 0 1
    outer loop
      vertex 6.29579 1.61648 7.5
      vertex 5.19407 1.80877 7.5
      vertex 5.32721 1.36779 7.5
    endloop
  endfacet
  facet normal 0 -0 1
    outer loop
      vertex 5.19407 1.80877 7.5
      vertex 5.93805 2.64379 7.5
      vertex 5.0245 2.23705 7.5
    endloop
  endfacet
  facet normal 0 0 1
    outer loop
      vertex 6.29579 -1.61648 7.5
      vertex 5.19407 -1.80877 7.5
      vertex 6.13845 -2.13763 7.5
    endloop
  endfacet
  facet normal 0 -0 1
    outer loop
      vertex 5.69599 -3.1314 7.5
      vertex 5.93805 -2.64379 7.5
      vertex 4.81969 -2.64965 7.5
    endloop
  endfacet
  facet normal -0 0 1
    outer loop
      vertex 5.32721 1.36779 7.5
      vertex 5.42298 0.917228 7.5
      vertex 6.29579 1.61648 7.5
    endloop
  endfacet
  facet normal 0 0 1
    outer loop
      vertex 5.19407 -1.80877 7.5
      vertex 5.93805 -2.64379 7.5
      vertex 6.13845 -2.13763 7.5
    endloop
  endfacet
  facet normal 0 0 1
    outer loop
      vertex 6.5 0 7.5
      vertex 5.48071 0.460228 7.5
      vertex 5.5 0 7.5
    endloop
  endfacet
  facet normal 0 -0 1
    outer loop
      vertex 5.48071 0.460228 7.5
      vertex 6.4772 0.543906 7.5
      vertex 5.42298 0.917228 7.5
    endloop
  endfacet
  facet normal 0 0 1
    outer loop
      vertex 5.69599 -3.1314 7.5
      vertex 4.58107 -3.04365 7.5
      vertex 5.41399 -3.59705 7.5
    endloop
  endfacet
  facet normal 0 -0 1
    outer loop
      vertex 4.7383 -4.44956 7.5
      vertex 5.09401 -4.03746 7.5
      vertex 4.31031 -3.41631 7.5
    endloop
  endfacet
  facet normal 0 0 1
    outer loop
      vertex 5.5 0 7.5
      vertex 5.48071 -0.460228 7.5
      vertex 6.4772 -0.543906 7.5
    endloop
  endfacet
  facet normal 0 0 1
    outer loop
      vertex 4.58107 -3.04365 7.5
      vertex 5.09401 -4.03746 7.5
      vertex 5.41399 -3.59705 7.5
    endloop
  endfacet
  facet normal 0 0 1
    outer loop
      vertex 6.29579 -1.61648 7.5
      vertex 5.42298 -0.917228 7.5
      vertex 5.32721 -1.36779 7.5
    endloop
  endfacet
  facet normal -0 0 1
    outer loop
      vertex 5.42298 -0.917228 7.5
      vertex 6.40897 -1.084 7.5
      vertex 5.48071 -0.460228 7.5
    endloop
  endfacet
  facet normal 0 0 1
    outer loop
      vertex 4.7383 -4.44956 7.5
      vertex 3.68022 -4.0873 7.5
      vertex 4.34935 -4.83044 7.5
    endloop
  endfacet
  facet normal 0 -0 1
    outer loop
      vertex 3.48287 -5.48813 7.5
      vertex 3.92989 -5.17744 7.5
      vertex 3.3253 -4.38091 7.5
    endloop
  endfacet
  facet normal 0 0 1
    outer loop
      vertex 5.32721 -1.36779 7.5
      vertex 5.19407 -1.80877 7.5
      vertex 6.29579 -1.61648 7.5
    endloop
  endfacet
  facet normal 0 0 1
    outer loop
      vertex 3.3253 -4.38091 7.5
      vertex 3.92989 -5.17744 7.5
      vertex 4.34935 -4.83044 7.5
    endloop
  endfacet
  facet normal 0 0 1
    outer loop
      vertex 5.93805 -2.64379 7.5
      vertex 5.0245 -2.23705 7.5
      vertex 4.81969 -2.64965 7.5
    endloop
  endfacet
  facet normal -0 0 1
    outer loop
      vertex 5.0245 -2.23705 7.5
      vertex 5.93805 -2.64379 7.5
      vertex 5.19407 -1.80877 7.5
    endloop
  endfacet
  facet normal 0 0 1
    outer loop
      vertex 5.69599 -3.1314 7.5
      vertex 4.81969 -2.64965 7.5
      vertex 4.58107 -3.04365 7.5
    endloop
  endfacet
  facet normal 0 0 1
    outer loop
      vertex 5.09401 -4.03746 7.5
      vertex 4.58107 -3.04365 7.5
      vertex 4.31031 -3.41631 7.5
    endloop
  endfacet
  facet normal 0 0 1
    outer loop
      vertex 4.7383 -4.44956 7.5
      vertex 4.31031 -3.41631 7.5
      vertex 4.00933 -3.76501 7.5
    endloop
  endfacet
  facet normal 0 0 1
    outer loop
      vertex 4.7383 -4.44956 7.5
      vertex 4.00933 -3.76501 7.5
      vertex 3.68022 -4.0873 7.5
    endloop
  endfacet
  facet normal 0 0 1
    outer loop
      vertex 4.34935 -4.83044 7.5
      vertex 3.68022 -4.0873 7.5
      vertex 3.3253 -4.38091 7.5
    endloop
  endfacet
  facet normal 0 0 1
    outer loop
      vertex 3.48287 -5.48813 7.5
      vertex 3.3253 -4.38091 7.5
      vertex 2.94705 -4.6438 7.5
    endloop
  endfacet
  facet normal 0 0 1
    outer loop
      vertex 3.46232 -5.5 7.5
      vertex 2.94705 -4.6438 7.5
      vertex 2.54813 -4.87412 7.5
    endloop
  endfacet
  facet normal 0 0 1
    outer loop
      vertex 3.46232 -5.5 7.5
      vertex 2.54813 -4.87412 7.5
      vertex 2.13134 -5.07025 7.5
    endloop
  endfacet
  facet normal 0 0 1
    outer loop
      vertex 3.46232 -5.5 7.5
      vertex 1.25593 -5.35468 7.5
      vertex 5.5 -8.5 7.5
    endloop
  endfacet
  facet normal 0 0 1
    outer loop
      vertex 3.46232 -5.5 7.5
      vertex 1.69959 -5.23081 7.5
      vertex 1.25593 -5.35468 7.5
    endloop
  endfacet
  facet normal 0 0 1
    outer loop
      vertex 5.5 -8.5 7.5
      vertex 1.25593 -5.35468 7.5
      vertex 0.803457 -5.441 7.5
    endloop
  endfacet
  facet normal 0 0 1
    outer loop
      vertex 5.5 -8.5 7.5
      vertex 0.803457 -5.441 7.5
      vertex 0.345348 -5.48915 7.5
    endloop
  endfacet
  facet normal 0 0 1
    outer loop
      vertex 5.5 -8.5 7.5
      vertex 0.345348 -5.48915 7.5
      vertex -0.115183 -5.49879 7.5
    endloop
  endfacet
  facet normal -0 0 1
    outer loop
      vertex -4.14326 -5.00834 7.5
      vertex -3.70964 -5.33747 7.5
      vertex -3.50583 -4.23782 7.5
    endloop
  endfacet
  facet normal 0 0 1
    outer loop
      vertex -5.5 -8.5 7.5
      vertex -1.47906 -5.29739 7.5
      vertex -3.45353 -5.5 7.5
    endloop
  endfacet
  facet normal 0 0 1
    outer loop
      vertex -3.13892 -4.51632 7.5
      vertex -3.70964 -5.33747 7.5
      vertex -3.45353 -5.5 7.5
    endloop
  endfacet
  facet normal 0 0 1
    outer loop
      vertex -5.5 -8.5 7.5
      vertex -0.574907 -5.46987 7.5
      vertex -1.0306 -5.40258 7.5
    endloop
  endfacet
  facet normal 0 0 1
    outer loop
      vertex -0.574907 -5.46987 7.5
      vertex -5.5 -8.5 7.5
      vertex -0.115183 -5.49879 7.5
    endloop
  endfacet
  facet normal 0 -0 1
    outer loop
      vertex -4.14326 -5.00834 7.5
      vertex -3.50583 -4.23782 7.5
      vertex -4.54781 -4.64407 7.5
    endloop
  endfacet
  facet normal -0 0 1
    outer loop
      vertex -5.25861 -3.8206 7.5
      vertex -4.92047 -4.24723 7.5
      vertex -4.44959 -3.23282 7.5
    endloop
  endfacet
  facet normal 0 0 1
    outer loop
      vertex -1.0306 -5.40258 7.5
      vertex -1.47906 -5.29739 7.5
      vertex -5.5 -8.5 7.5
    endloop
  endfacet
  facet normal 0 0 1
    outer loop
      vertex -3.84815 -3.9296 7.5
      vertex -4.92047 -4.24723 7.5
      vertex -4.54781 -4.64407 7.5
    endloop
  endfacet
  facet normal 0 0 1
    outer loop
      vertex -3.45353 -5.5 7.5
      vertex -1.91715 -5.15505 7.5
      vertex -2.34179 -4.97655 7.5
    endloop
  endfacet
  facet normal 0 0 1
    outer loop
      vertex -1.91715 -5.15505 7.5
      vertex -3.45353 -5.5 7.5
      vertex -1.47906 -5.29739 7.5
    endloop
  endfacet
  facet normal 0 -0 1
    outer loop
      vertex -5.25861 -3.8206 7.5
      vertex -4.7045 -2.84915 7.5
      vertex -5.55987 -3.36718 7.5
    endloop
  endfacet
  facet normal -0 0 1
    outer loop
      vertex -6.04355 -2.39281 7.5
      vertex -5.82213 -2.89013 7.5
      vertex -5.11377 -2.02469 7.5
    endloop
  endfacet
  facet normal 0 0 1
    outer loop
      vertex -2.34179 -4.97655 7.5
      vertex -2.75 -4.76314 7.5
      vertex -3.45353 -5.5 7.5
    endloop
  endfacet
  facet normal 0 0 1
    outer loop
      vertex -4.7045 -2.84915 7.5
      vertex -5.82213 -2.89013 7.5
      vertex -5.55987 -3.36718 7.5
    endloop
  endfacet
  facet normal 0 0 1
    outer loop
      vertex -3.70964 -5.33747 7.5
      vertex -3.13892 -4.51632 7.5
      vertex -3.50583 -4.23782 7.5
    endloop
  endfacet
  facet normal 0 0 1
    outer loop
      vertex -3.13892 -4.51632 7.5
      vertex -3.45353 -5.5 7.5
      vertex -2.75 -4.76314 7.5
    endloop
  endfacet
  facet normal 0 -0 1
    outer loop
      vertex -6.04355 -2.39281 7.5
      vertex -5.11377 -2.02469 7.5
      vertex -6.22258 -1.87871 7.5
    endloop
  endfacet
  facet normal 0 0 1
    outer loop
      vertex -6.44875 -0.814666 7.5
      vertex -6.35796 -1.35143 7.5
      vertex -5.37981 -1.14351 7.5
    endloop
  endfacet
  facet normal 0 0 1
    outer loop
      vertex -3.50583 -4.23782 7.5
      vertex -3.84815 -3.9296 7.5
      vertex -4.54781 -4.64407 7.5
    endloop
  endfacet
  facet normal 0 0 1
    outer loop
      vertex -5.26526 -1.58967 7.5
      vertex -6.35796 -1.35143 7.5
      vertex -6.22258 -1.87871 7.5
    endloop
  endfacet
  facet normal 0 0 1
    outer loop
      vertex -4.92047 -4.24723 7.5
      vertex -4.16347 -3.59381 7.5
      vertex -4.44959 -3.23282 7.5
    endloop
  endfacet
  facet normal 0 0 1
    outer loop
      vertex -4.16347 -3.59381 7.5
      vertex -4.92047 -4.24723 7.5
      vertex -3.84815 -3.9296 7.5
    endloop
  endfacet
  facet normal 0 -0 1
    outer loop
      vertex -6.44875 -0.814666 7.5
      vertex -5.49518 -0.230316 7.5
      vertex -6.4943 -0.272192 7.5
    endloop
  endfacet
  facet normal 0 0 1
    outer loop
      vertex -6.44875 0.814666 7.5
      vertex -6.4943 0.272192 7.5
      vertex -5.49518 0.230316 7.5
    endloop
  endfacet
  facet normal 0 0 1
    outer loop
      vertex -4.44959 -3.23282 7.5
      vertex -4.7045 -2.84915 7.5
      vertex -5.25861 -3.8206 7.5
    endloop
  endfacet
  facet normal 0 0 1
    outer loop
      vertex -5.49518 0.230316 7.5
      vertex -6.4943 0.272192 7.5
      vertex -6.4943 -0.272192 7.5
    endloop
  endfacet
  facet normal 0 0 1
    outer loop
      vertex -4.92641 -2.44549 7.5
      vertex -5.82213 -2.89013 7.5
      vertex -4.7045 -2.84915 7.5
    endloop
  endfacet
  facet normal 0 0 1
    outer loop
      vertex -5.11377 -2.02469 7.5
      vertex -5.82213 -2.89013 7.5
      vertex -4.92641 -2.44549 7.5
    endloop
  endfacet
  facet normal 0 0 1
    outer loop
      vertex -5.26526 -1.58967 7.5
      vertex -6.22258 -1.87871 7.5
      vertex -5.11377 -2.02469 7.5
    endloop
  endfacet
  facet normal 0 0 1
    outer loop
      vertex -5.37981 -1.14351 7.5
      vertex -6.35796 -1.35143 7.5
      vertex -5.26526 -1.58967 7.5
    endloop
  endfacet
  facet normal 0 0 1
    outer loop
      vertex -5.45663 -0.689333 7.5
      vertex -6.44875 -0.814666 7.5
      vertex -5.37981 -1.14351 7.5
    endloop
  endfacet
  facet normal 0 0 1
    outer loop
      vertex -5.49518 -0.230316 7.5
      vertex -6.44875 -0.814666 7.5
      vertex -5.45663 -0.689333 7.5
    endloop
  endfacet
  facet normal 0 0 1
    outer loop
      vertex -5.49518 0.230316 7.5
      vertex -6.4943 -0.272192 7.5
      vertex -5.49518 -0.230316 7.5
    endloop
  endfacet
  facet normal 0 0 1
    outer loop
      vertex -6.44875 0.814666 7.5
      vertex -5.49518 0.230316 7.5
      vertex -5.45663 0.689333 7.5
    endloop
  endfacet
  facet normal -0 0 1
    outer loop
      vertex -6.44875 0.814666 7.5
      vertex -5.45663 0.689333 7.5
      vertex -5.37981 1.14351 7.5
    endloop
  endfacet
  facet normal -0 0 1
    outer loop
      vertex -6.35796 1.35143 7.5
      vertex -5.37981 1.14351 7.5
      vertex -5.26526 1.58967 7.5
    endloop
  endfacet
  facet normal 0 0 1
    outer loop
      vertex -6.04355 2.39281 7.5
      vertex -5.26526 1.58967 7.5
      vertex -5.11377 2.02469 7.5
    endloop
  endfacet
  facet normal 0 0 1
    outer loop
      vertex -5.82213 2.89013 7.5
      vertex -5.11377 2.02469 7.5
      vertex -4.92641 2.44549 7.5
    endloop
  endfacet
  facet normal 0 0 1
    outer loop
      vertex -5.55987 3.36718 7.5
      vertex -4.92641 2.44549 7.5
      vertex -4.7045 2.84915 7.5
    endloop
  endfacet
  facet normal 0 0 1
    outer loop
      vertex -4.7045 3.15085 7.5
      vertex -4.7045 2.84915 7.5
      vertex -4.60428 3 7.5
    endloop
  endfacet
  facet normal 0 0 1
    outer loop
      vertex -5.55987 3.36718 7.5
      vertex -4.7045 2.84915 7.5
      vertex -4.7045 3.15085 7.5
    endloop
  endfacet
  facet normal -0 0 1
    outer loop
      vertex -5.55987 3.36718 7.5
      vertex -4.7045 3.15085 7.5
      vertex -4.92641 3.55451 7.5
    endloop
  endfacet
  facet normal -0 0 1
    outer loop
      vertex -5.25861 3.8206 7.5
      vertex -4.92641 3.55451 7.5
      vertex -5.11377 3.97531 7.5
    endloop
  endfacet
  facet normal 0 0 1
    outer loop
      vertex -5.12055 3.99479 7.5
      vertex -5.25861 3.8206 7.5
      vertex -5.11377 3.97531 7.5
    endloop
  endfacet
  facet normal 0 0 1
    outer loop
      vertex -5.25861 3.8206 7.5
      vertex -5.55987 3.36718 7.5
      vertex -4.92641 3.55451 7.5
    endloop
  endfacet
  facet normal 0 0 1
    outer loop
      vertex -5.55987 3.36718 7.5
      vertex -5.82213 2.89013 7.5
      vertex -4.92641 2.44549 7.5
    endloop
  endfacet
  facet normal 0 0 1
    outer loop
      vertex -5.82213 2.89013 7.5
      vertex -6.04355 2.39281 7.5
      vertex -5.11377 2.02469 7.5
    endloop
  endfacet
  facet normal 0 0 1
    outer loop
      vertex -6.04355 2.39281 7.5
      vertex -6.22258 1.87871 7.5
      vertex -5.26526 1.58967 7.5
    endloop
  endfacet
  facet normal 0 0 1
    outer loop
      vertex -6.22258 1.87871 7.5
      vertex -6.35796 1.35143 7.5
      vertex -5.26526 1.58967 7.5
    endloop
  endfacet
  facet normal 0 0 1
    outer loop
      vertex -6.35796 1.35143 7.5
      vertex -6.44875 0.814666 7.5
      vertex -5.37981 1.14351 7.5
    endloop
  endfacet
  facet normal 0 -0 1
    outer loop
      vertex 5.5 -8.5 7.5
      vertex 5.5 -5.5 7.5
      vertex 3.46232 -5.5 7.5
    endloop
  endfacet
  facet normal -0.604599 -0.79653 0
    outer loop
      vertex -3.70964 -5.33747 -7.5
      vertex -4.14326 -5.00834 7.5
      vertex -4.14326 -5.00834 -7.5
    endloop
  endfacet
  facet normal -0.604599 -0.79653 0
    outer loop
      vertex -3.70964 -5.33747 -7.5
      vertex -3.70964 -5.33747 7.5
      vertex -4.14326 -5.00834 7.5
    endloop
  endfacet
  facet normal 0.809017 -0.587785 0
    outer loop
      vertex 5.41399 -3.59705 -7.5
      vertex 5.09401 -4.03746 7.5
      vertex 5.09401 -4.03746 -7.5
    endloop
  endfacet
  facet normal 0.809017 -0.587785 0
    outer loop
      vertex 5.41399 -3.59705 -7.5
      vertex 5.41399 -3.59705 7.5
      vertex 5.09401 -4.03746 7.5
    endloop
  endfacet
  facet normal 0.929776 -0.368125 0
    outer loop
      vertex 6.13845 -2.13763 -7.5
      vertex 5.93805 -2.64379 7.5
      vertex 5.93805 -2.64379 -7.5
    endloop
  endfacet
  facet normal 0.929776 -0.368125 0
    outer loop
      vertex 6.13845 -2.13763 -7.5
      vertex 6.13845 -2.13763 7.5
      vertex 5.93805 -2.64379 7.5
    endloop
  endfacet
  facet normal 0.895712 0.444635 0
    outer loop
      vertex 5.93805 2.64379 7.5
      vertex 5.93805 2.64379 -7.5
      vertex 5.69599 3.1314 -7.5
    endloop
  endfacet
  facet normal 0.895712 0.444635 0
    outer loop
      vertex 5.69599 3.1314 7.5
      vertex 5.93805 2.64379 7.5
      vertex 5.69599 3.1314 -7.5
    endloop
  endfacet
  facet normal -0.996493 -0.0836778 0
    outer loop
      vertex -6.44875 -0.814666 7.5
      vertex -6.4943 -0.272192 7.5
      vertex -6.4943 -0.272192 -7.5
    endloop
  endfacet
  facet normal -0.996493 -0.0836778 0
    outer loop
      vertex -6.44875 -0.814666 -7.5
      vertex -6.44875 -0.814666 7.5
      vertex -6.4943 -0.272192 -7.5
    endloop
  endfacet
  facet normal -0.944376 0.328867 0
    outer loop
      vertex -6.22258 1.87871 7.5
      vertex -6.04355 2.39281 -7.5
      vertex -6.22258 1.87871 -7.5
    endloop
  endfacet
  facet normal -0.944376 0.328867 0
    outer loop
      vertex -6.22258 1.87871 7.5
      vertex -6.04355 2.39281 7.5
      vertex -6.04355 2.39281 -7.5
    endloop
  endfacet
  facet normal -0.968583 -0.24869 0
    outer loop
      vertex -6.22258 -1.87871 7.5
      vertex -6.35796 -1.35143 7.5
      vertex -6.35796 -1.35143 -7.5
    endloop
  endfacet
  facet normal -0.968583 -0.24869 0
    outer loop
      vertex -6.22258 -1.87871 -7.5
      vertex -6.22258 -1.87871 7.5
      vertex -6.35796 -1.35143 -7.5
    endloop
  endfacet
  facet normal -0.832921 -0.553392 0
    outer loop
      vertex -5.25861 -3.8206 7.5
      vertex -5.55987 -3.36718 7.5
      vertex -5.55987 -3.36718 -7.5
    endloop
  endfacet
  facet normal -0.832921 -0.553392 0
    outer loop
      vertex -5.25861 -3.8206 -7.5
      vertex -5.25861 -3.8206 7.5
      vertex -5.55987 -3.36718 -7.5
    endloop
  endfacet
  facet normal -0.913545 -0.406737 0
    outer loop
      vertex -5.82213 -2.89013 7.5
      vertex -6.04355 -2.39281 7.5
      vertex -6.04355 -2.39281 -7.5
    endloop
  endfacet
  facet normal -0.913545 -0.406737 0
    outer loop
      vertex -5.82213 -2.89013 -7.5
      vertex -5.82213 -2.89013 7.5
      vertex -6.04355 -2.39281 -7.5
    endloop
  endfacet
  facet normal -0.535827 -0.844328 0
    outer loop
      vertex -3.45353 -5.5 -7.5
      vertex -3.70964 -5.33747 7.5
      vertex -3.70964 -5.33747 -7.5
    endloop
  endfacet
  facet normal -0.535827 -0.844328 0
    outer loop
      vertex -3.45353 -5.5 -7.5
      vertex -3.45353 -5.5 7.5
      vertex -3.70964 -5.33747 7.5
    endloop
  endfacet
  facet normal 0.637424 -0.770513 0
    outer loop
      vertex 4.34935 -4.83044 -7.5
      vertex 3.92989 -5.17744 7.5
      vertex 3.92989 -5.17744 -7.5
    endloop
  endfacet
  facet normal 0.637424 -0.770513 0
    outer loop
      vertex 4.34935 -4.83044 -7.5
      vertex 4.34935 -4.83044 7.5
      vertex 3.92989 -5.17744 7.5
    endloop
  endfacet
  facet normal 0.978148 -0.207912 0
    outer loop
      vertex 6.40897 -1.084 -7.5
      vertex 6.29579 -1.61648 7.5
      vertex 6.29579 -1.61648 -7.5
    endloop
  endfacet
  facet normal 0.978148 -0.207912 0
    outer loop
      vertex 6.40897 -1.084 -7.5
      vertex 6.40897 -1.084 7.5
      vertex 6.29579 -1.61648 7.5
    endloop
  endfacet
  facet normal -0.913545 0.406737 0
    outer loop
      vertex -6.04355 2.39281 7.5
      vertex -5.82213 2.89013 -7.5
      vertex -6.04355 2.39281 -7.5
    endloop
  endfacet
  facet normal -0.913545 0.406737 0
    outer loop
      vertex -6.04355 2.39281 7.5
      vertex -5.82213 2.89013 7.5
      vertex -5.82213 2.89013 -7.5
    endloop
  endfacet
  facet normal -0.876307 0.481754 0
    outer loop
      vertex -5.82213 2.89013 7.5
      vertex -5.55987 3.36718 -7.5
      vertex -5.82213 2.89013 -7.5
    endloop
  endfacet
  facet normal -0.876307 0.481754 0
    outer loop
      vertex -5.82213 2.89013 7.5
      vertex -5.55987 3.36718 7.5
      vertex -5.55987 3.36718 -7.5
    endloop
  endfacet
  facet normal -0.783693 0.621148 0
    outer loop
      vertex -5.25861 3.8206 7.5
      vertex -5.12055 3.99479 -7.5
      vertex -5.25861 3.8206 -7.5
    endloop
  endfacet
  facet normal -0.783693 0.621148 0
    outer loop
      vertex -5.25861 3.8206 7.5
      vertex -5.12055 3.99479 7.5
      vertex -5.12055 3.99479 -7.5
    endloop
  endfacet
  facet normal -0.985996 0.166769 0
    outer loop
      vertex -6.44875 0.814666 7.5
      vertex -6.35796 1.35143 -7.5
      vertex -6.44875 0.814666 -7.5
    endloop
  endfacet
  facet normal -0.985996 0.166769 0
    outer loop
      vertex -6.44875 0.814666 7.5
      vertex -6.35796 1.35143 7.5
      vertex -6.35796 1.35143 -7.5
    endloop
  endfacet
  facet normal -0.968583 0.24869 0
    outer loop
      vertex -6.35796 1.35143 7.5
      vertex -6.22258 1.87871 -7.5
      vertex -6.35796 1.35143 -7.5
    endloop
  endfacet
  facet normal -0.968583 0.24869 0
    outer loop
      vertex -6.35796 1.35143 7.5
      vertex -6.22258 1.87871 7.5
      vertex -6.22258 1.87871 -7.5
    endloop
  endfacet
  facet normal -0.985996 -0.166769 0
    outer loop
      vertex -6.35796 -1.35143 7.5
      vertex -6.44875 -0.814666 7.5
      vertex -6.44875 -0.814666 -7.5
    endloop
  endfacet
  facet normal -0.985996 -0.166769 0
    outer loop
      vertex -6.35796 -1.35143 -7.5
      vertex -6.35796 -1.35143 7.5
      vertex -6.44875 -0.814666 -7.5
    endloop
  endfacet
  facet normal -0.944376 -0.328867 0
    outer loop
      vertex -6.04355 -2.39281 7.5
      vertex -6.22258 -1.87871 7.5
      vertex -6.22258 -1.87871 -7.5
    endloop
  endfacet
  facet normal -0.944376 -0.328867 0
    outer loop
      vertex -6.04355 -2.39281 -7.5
      vertex -6.04355 -2.39281 7.5
      vertex -6.22258 -1.87871 -7.5
    endloop
  endfacet
  facet normal -0.783693 -0.621148 0
    outer loop
      vertex -4.92047 -4.24723 7.5
      vertex -5.25861 -3.8206 7.5
      vertex -5.25861 -3.8206 -7.5
    endloop
  endfacet
  facet normal -0.783693 -0.621148 0
    outer loop
      vertex -4.92047 -4.24723 -7.5
      vertex -4.92047 -4.24723 7.5
      vertex -5.25861 -3.8206 -7.5
    endloop
  endfacet
  facet normal -0.876307 -0.481754 0
    outer loop
      vertex -5.55987 -3.36718 7.5
      vertex -5.82213 -2.89013 7.5
      vertex -5.82213 -2.89013 -7.5
    endloop
  endfacet
  facet normal -0.876307 -0.481754 0
    outer loop
      vertex -5.55987 -3.36718 -7.5
      vertex -5.55987 -3.36718 7.5
      vertex -5.82213 -2.89013 -7.5
    endloop
  endfacet
  facet normal -0.669131 -0.743145 0
    outer loop
      vertex -4.14326 -5.00834 -7.5
      vertex -4.54781 -4.64407 7.5
      vertex -4.54781 -4.64407 -7.5
    endloop
  endfacet
  facet normal -0.669131 -0.743145 0
    outer loop
      vertex -4.14326 -5.00834 -7.5
      vertex -4.14326 -5.00834 7.5
      vertex -4.54781 -4.64407 7.5
    endloop
  endfacet
  facet normal 0.992115 0.125333 0
    outer loop
      vertex 6.4772 0.543906 7.5
      vertex 6.4772 0.543906 -7.5
      vertex 6.40897 1.084 -7.5
    endloop
  endfacet
  facet normal 0.992115 0.125333 0
    outer loop
      vertex 6.40897 1.084 7.5
      vertex 6.4772 0.543906 7.5
      vertex 6.40897 1.084 -7.5
    endloop
  endfacet
  facet normal 0.992115 -0.125333 0
    outer loop
      vertex 6.4772 -0.543906 -7.5
      vertex 6.40897 -1.084 7.5
      vertex 6.40897 -1.084 -7.5
    endloop
  endfacet
  facet normal 0.992115 -0.125333 0
    outer loop
      vertex 6.4772 -0.543906 -7.5
      vertex 6.4772 -0.543906 7.5
      vertex 6.40897 -1.084 7.5
    endloop
  endfacet
  facet normal 0.957319 -0.289032 0
    outer loop
      vertex 6.29579 -1.61648 -7.5
      vertex 6.13845 -2.13763 7.5
      vertex 6.13845 -2.13763 -7.5
    endloop
  endfacet
  facet normal 0.957319 -0.289032 0
    outer loop
      vertex 6.29579 -1.61648 -7.5
      vertex 6.29579 -1.61648 7.5
      vertex 6.13845 -2.13763 7.5
    endloop
  endfacet
  facet normal -0.832921 0.553392 0
    outer loop
      vertex -5.55987 3.36718 7.5
      vertex -5.25861 3.8206 -7.5
      vertex -5.55987 3.36718 -7.5
    endloop
  endfacet
  facet normal -0.832921 0.553392 0
    outer loop
      vertex -5.55987 3.36718 7.5
      vertex -5.25861 3.8206 7.5
      vertex -5.25861 3.8206 -7.5
    endloop
  endfacet
  facet normal -0.728969 -0.684547 0
    outer loop
      vertex -4.54781 -4.64407 7.5
      vertex -4.92047 -4.24723 7.5
      vertex -4.92047 -4.24723 -7.5
    endloop
  endfacet
  facet normal -0.728969 -0.684547 0
    outer loop
      vertex -4.54781 -4.64407 -7.5
      vertex -4.54781 -4.64407 7.5
      vertex -4.92047 -4.24723 -7.5
    endloop
  endfacet
  facet normal 0.5 -0.866025 0
    outer loop
      vertex 3.48287 -5.48813 -7.5
      vertex 3.46232 -5.5 7.5
      vertex 3.46232 -5.5 -7.5
    endloop
  endfacet
  facet normal 0.5 -0.866025 0
    outer loop
      vertex 3.48287 -5.48813 -7.5
      vertex 3.48287 -5.48813 7.5
      vertex 3.46232 -5.5 7.5
    endloop
  endfacet
  facet normal 0.699663 -0.714473 0
    outer loop
      vertex 4.7383 -4.44956 -7.5
      vertex 4.34935 -4.83044 7.5
      vertex 4.34935 -4.83044 -7.5
    endloop
  endfacet
  facet normal 0.699663 -0.714473 0
    outer loop
      vertex 4.7383 -4.44956 -7.5
      vertex 4.7383 -4.44956 7.5
      vertex 4.34935 -4.83044 7.5
    endloop
  endfacet
  facet normal 0.999123 0.0418757 0
    outer loop
      vertex 6.5 0 7.5
      vertex 6.5 0 -7.5
      vertex 6.4772 0.543906 -7.5
    endloop
  endfacet
  facet normal 0.999123 0.0418757 0
    outer loop
      vertex 6.4772 0.543906 7.5
      vertex 6.5 0 7.5
      vertex 6.4772 0.543906 -7.5
    endloop
  endfacet
  facet normal 0.929776 0.368125 0
    outer loop
      vertex 6.13845 2.13763 7.5
      vertex 6.13845 2.13763 -7.5
      vertex 5.93805 2.64379 -7.5
    endloop
  endfacet
  facet normal 0.929776 0.368125 0
    outer loop
      vertex 5.93805 2.64379 7.5
      vertex 6.13845 2.13763 7.5
      vertex 5.93805 2.64379 -7.5
    endloop
  endfacet
  facet normal 0.999123 -0.0418757 0
    outer loop
      vertex 6.5 0 -7.5
      vertex 6.4772 -0.543906 7.5
      vertex 6.4772 -0.543906 -7.5
    endloop
  endfacet
  facet normal 0.999123 -0.0418757 0
    outer loop
      vertex 6.5 0 -7.5
      vertex 6.5 0 7.5
      vertex 6.4772 -0.543906 7.5
    endloop
  endfacet
  facet normal 0.855364 -0.518027 0
    outer loop
      vertex 5.69599 -3.1314 -7.5
      vertex 5.41399 -3.59705 7.5
      vertex 5.41399 -3.59705 -7.5
    endloop
  endfacet
  facet normal 0.855364 -0.518027 0
    outer loop
      vertex 5.69599 -3.1314 -7.5
      vertex 5.69599 -3.1314 7.5
      vertex 5.41399 -3.59705 7.5
    endloop
  endfacet
  facet normal 0.809017 0.587785 0
    outer loop
      vertex 5.41399 3.59705 7.5
      vertex 5.41399 3.59705 -7.5
      vertex 5.11937 4.00256 -7.5
    endloop
  endfacet
  facet normal 0.809017 0.587785 0
    outer loop
      vertex 5.11937 4.00256 7.5
      vertex 5.41399 3.59705 7.5
      vertex 5.11937 4.00256 -7.5
    endloop
  endfacet
  facet normal 0.957319 0.289032 0
    outer loop
      vertex 6.29579 1.61648 7.5
      vertex 6.29579 1.61648 -7.5
      vertex 6.13845 2.13763 -7.5
    endloop
  endfacet
  facet normal 0.957319 0.289032 0
    outer loop
      vertex 6.13845 2.13763 7.5
      vertex 6.29579 1.61648 7.5
      vertex 6.13845 2.13763 -7.5
    endloop
  endfacet
  facet normal 0.978148 0.207912 0
    outer loop
      vertex 6.40897 1.084 7.5
      vertex 6.40897 1.084 -7.5
      vertex 6.29579 1.61648 -7.5
    endloop
  endfacet
  facet normal 0.978148 0.207912 0
    outer loop
      vertex 6.29579 1.61648 7.5
      vertex 6.40897 1.084 7.5
      vertex 6.29579 1.61648 -7.5
    endloop
  endfacet
  facet normal 0.895712 -0.444635 0
    outer loop
      vertex 5.93805 -2.64379 -7.5
      vertex 5.69599 -3.1314 7.5
      vertex 5.69599 -3.1314 -7.5
    endloop
  endfacet
  facet normal 0.895712 -0.444635 0
    outer loop
      vertex 5.93805 -2.64379 -7.5
      vertex 5.93805 -2.64379 7.5
      vertex 5.69599 -3.1314 7.5
    endloop
  endfacet
  facet normal 0.855364 0.518027 0
    outer loop
      vertex 5.69599 3.1314 7.5
      vertex 5.69599 3.1314 -7.5
      vertex 5.41399 3.59705 -7.5
    endloop
  endfacet
  facet normal 0.855364 0.518027 0
    outer loop
      vertex 5.41399 3.59705 7.5
      vertex 5.69599 3.1314 7.5
      vertex 5.41399 3.59705 -7.5
    endloop
  endfacet
  facet normal 0.570714 -0.821149 0
    outer loop
      vertex 3.92989 -5.17744 -7.5
      vertex 3.48287 -5.48813 7.5
      vertex 3.48287 -5.48813 -7.5
    endloop
  endfacet
  facet normal 0.570714 -0.821149 0
    outer loop
      vertex 3.92989 -5.17744 -7.5
      vertex 3.92989 -5.17744 7.5
      vertex 3.48287 -5.48813 7.5
    endloop
  endfacet
  facet normal 1 -0 0
    outer loop
      vertex -5.49518 -0.230316 7.5
      vertex -5.49518 0.230316 -7.5
      vertex -5.49518 0.230316 7.5
    endloop
  endfacet
  facet normal 1 0 0
    outer loop
      vertex -5.49518 -0.230316 7.5
      vertex -5.49518 -0.230316 -7.5
      vertex -5.49518 0.230316 -7.5
    endloop
  endfacet
  facet normal 0.944376 0.328867 -0
    outer loop
      vertex -5.26526 -1.58967 -7.5
      vertex -5.26526 -1.58967 7.5
      vertex -5.11377 -2.02469 7.5
    endloop
  endfacet
  facet normal 0.944376 0.328867 -0
    outer loop
      vertex -5.11377 -2.02469 -7.5
      vertex -5.26526 -1.58967 -7.5
      vertex -5.11377 -2.02469 7.5
    endloop
  endfacet
  facet normal -0.957319 0.289032 0
    outer loop
      vertex 5.32721 -1.36779 -7.5
      vertex 5.19407 -1.80877 7.5
      vertex 5.32721 -1.36779 7.5
    endloop
  endfacet
  facet normal -0.957319 0.289032 0
    outer loop
      vertex 5.32721 -1.36779 -7.5
      vertex 5.19407 -1.80877 -7.5
      vertex 5.19407 -1.80877 7.5
    endloop
  endfacet
  facet normal 0.996493 0.0836778 -0
    outer loop
      vertex -5.49518 -0.230316 -7.5
      vertex -5.49518 -0.230316 7.5
      vertex -5.45663 -0.689333 7.5
    endloop
  endfacet
  facet normal 0.996493 0.0836778 -0
    outer loop
      vertex -5.45663 -0.689333 -7.5
      vertex -5.49518 -0.230316 -7.5
      vertex -5.45663 -0.689333 7.5
    endloop
  endfacet
  facet normal 0.783693 0.621148 -0
    outer loop
      vertex -4.44959 -3.23282 -7.5
      vertex -4.44959 -3.23282 7.5
      vertex -4.16347 -3.59381 7.5
    endloop
  endfacet
  facet normal 0.783693 0.621148 -0
    outer loop
      vertex -4.16347 -3.59381 -7.5
      vertex -4.44959 -3.23282 -7.5
      vertex -4.16347 -3.59381 7.5
    endloop
  endfacet
  facet normal 0.0627905 0.998027 -0
    outer loop
      vertex -0.115183 -5.49879 -7.5
      vertex -0.574907 -5.46987 7.5
      vertex -0.115183 -5.49879 7.5
    endloop
  endfacet
  facet normal 0.0627905 0.998027 0
    outer loop
      vertex -0.115183 -5.49879 -7.5
      vertex -0.574907 -5.46987 -7.5
      vertex -0.574907 -5.46987 7.5
    endloop
  endfacet
  facet normal 0.604599 0.79653 -0
    outer loop
      vertex -3.13892 -4.51632 -7.5
      vertex -3.50583 -4.23782 7.5
      vertex -3.13892 -4.51632 7.5
    endloop
  endfacet
  facet normal 0.604599 0.79653 0
    outer loop
      vertex -3.13892 -4.51632 -7.5
      vertex -3.50583 -4.23782 -7.5
      vertex -3.50583 -4.23782 7.5
    endloop
  endfacet
  facet normal -0.957319 -0.289032 0
    outer loop
      vertex 5.19407 1.80877 -7.5
      vertex 5.32721 1.36779 -7.5
      vertex 5.32721 1.36779 7.5
    endloop
  endfacet
  facet normal -0.957319 -0.289032 -0
    outer loop
      vertex 5.19407 1.80877 7.5
      vertex 5.19407 1.80877 -7.5
      vertex 5.32721 1.36779 7.5
    endloop
  endfacet
  facet normal 0.985996 -0.166769 0
    outer loop
      vertex -5.45663 0.689333 7.5
      vertex -5.37981 1.14351 -7.5
      vertex -5.37981 1.14351 7.5
    endloop
  endfacet
  facet normal 0.985996 -0.166769 0
    outer loop
      vertex -5.45663 0.689333 7.5
      vertex -5.45663 0.689333 -7.5
      vertex -5.37981 1.14351 -7.5
    endloop
  endfacet
  facet normal 0.913545 -0.406737 0
    outer loop
      vertex -5.11377 2.02469 7.5
      vertex -4.92641 2.44549 -7.5
      vertex -4.92641 2.44549 7.5
    endloop
  endfacet
  facet normal 0.913545 -0.406737 0
    outer loop
      vertex -5.11377 2.02469 7.5
      vertex -5.11377 2.02469 -7.5
      vertex -4.92641 2.44549 -7.5
    endloop
  endfacet
  facet normal 0.985996 0.166769 -0
    outer loop
      vertex -5.45663 -0.689333 -7.5
      vertex -5.45663 -0.689333 7.5
      vertex -5.37981 -1.14351 7.5
    endloop
  endfacet
  facet normal 0.985996 0.166769 -0
    outer loop
      vertex -5.37981 -1.14351 -7.5
      vertex -5.45663 -0.689333 -7.5
      vertex -5.37981 -1.14351 7.5
    endloop
  endfacet
  facet normal 0.913545 0.406737 -0
    outer loop
      vertex -5.11377 -2.02469 -7.5
      vertex -5.11377 -2.02469 7.5
      vertex -4.92641 -2.44549 7.5
    endloop
  endfacet
  facet normal 0.913545 0.406737 -0
    outer loop
      vertex -4.92641 -2.44549 -7.5
      vertex -5.11377 -2.02469 -7.5
      vertex -4.92641 -2.44549 7.5
    endloop
  endfacet
  facet normal 0.832921 0.553392 -0
    outer loop
      vertex -4.7045 -2.84915 -7.5
      vertex -4.7045 -2.84915 7.5
      vertex -4.44959 -3.23282 7.5
    endloop
  endfacet
  facet normal 0.832921 0.553392 -0
    outer loop
      vertex -4.44959 -3.23282 -7.5
      vertex -4.7045 -2.84915 -7.5
      vertex -4.44959 -3.23282 7.5
    endloop
  endfacet
  facet normal 0.463296 0.886204 -0
    outer loop
      vertex -2.34179 -4.97655 -7.5
      vertex -2.75 -4.76314 7.5
      vertex -2.34179 -4.97655 7.5
    endloop
  endfacet
  facet normal 0.463296 0.886204 0
    outer loop
      vertex -2.34179 -4.97655 -7.5
      vertex -2.75 -4.76314 -7.5
      vertex -2.75 -4.76314 7.5
    endloop
  endfacet
  facet normal 0.387516 0.921863 -0
    outer loop
      vertex -1.91715 -5.15505 -7.5
      vertex -2.34179 -4.97655 7.5
      vertex -1.91715 -5.15505 7.5
    endloop
  endfacet
  facet normal 0.387516 0.921863 0
    outer loop
      vertex -1.91715 -5.15505 -7.5
      vertex -2.34179 -4.97655 -7.5
      vertex -2.34179 -4.97655 7.5
    endloop
  endfacet
  facet normal -0.26892 0.963163 0
    outer loop
      vertex 1.69959 -5.23081 -7.5
      vertex 1.25593 -5.35468 7.5
      vertex 1.69959 -5.23081 7.5
    endloop
  endfacet
  facet normal -0.26892 0.963163 0
    outer loop
      vertex 1.69959 -5.23081 -7.5
      vertex 1.25593 -5.35468 -7.5
      vertex 1.25593 -5.35468 7.5
    endloop
  endfacet
  facet normal -0.637424 0.770513 0
    outer loop
      vertex 3.68022 -4.0873 -7.5
      vertex 3.3253 -4.38091 7.5
      vertex 3.68022 -4.0873 7.5
    endloop
  endfacet
  facet normal -0.637424 0.770513 0
    outer loop
      vertex 3.68022 -4.0873 -7.5
      vertex 3.3253 -4.38091 -7.5
      vertex 3.3253 -4.38091 7.5
    endloop
  endfacet
  facet normal -0.992115 0.125333 0
    outer loop
      vertex 5.48071 -0.460228 -7.5
      vertex 5.42298 -0.917228 7.5
      vertex 5.48071 -0.460228 7.5
    endloop
  endfacet
  facet normal -0.992115 0.125333 0
    outer loop
      vertex 5.48071 -0.460228 -7.5
      vertex 5.42298 -0.917228 -7.5
      vertex 5.42298 -0.917228 7.5
    endloop
  endfacet
  facet normal -0.992115 -0.125333 0
    outer loop
      vertex 5.42298 0.917228 -7.5
      vertex 5.48071 0.460228 -7.5
      vertex 5.48071 0.460228 7.5
    endloop
  endfacet
  facet normal -0.992115 -0.125333 -0
    outer loop
      vertex 5.42298 0.917228 7.5
      vertex 5.42298 0.917228 -7.5
      vertex 5.48071 0.460228 7.5
    endloop
  endfacet
  facet normal -0.855364 0.518027 0
    outer loop
      vertex 4.81969 -2.64965 -7.5
      vertex 4.58107 -3.04365 7.5
      vertex 4.81969 -2.64965 7.5
    endloop
  endfacet
  facet normal -0.855364 0.518027 0
    outer loop
      vertex 4.81969 -2.64965 -7.5
      vertex 4.58107 -3.04365 -7.5
      vertex 4.58107 -3.04365 7.5
    endloop
  endfacet
  facet normal -0.756995 0.653421 0
    outer loop
      vertex 4.31031 -3.41631 -7.5
      vertex 4.00933 -3.76501 7.5
      vertex 4.31031 -3.41631 7.5
    endloop
  endfacet
  facet normal -0.756995 0.653421 0
    outer loop
      vertex 4.31031 -3.41631 -7.5
      vertex 4.00933 -3.76501 -7.5
      vertex 4.00933 -3.76501 7.5
    endloop
  endfacet
  facet normal 0.996493 -0.0836778 0
    outer loop
      vertex -5.49518 0.230316 7.5
      vertex -5.45663 0.689333 -7.5
      vertex -5.45663 0.689333 7.5
    endloop
  endfacet
  facet normal 0.996493 -0.0836778 0
    outer loop
      vertex -5.49518 0.230316 7.5
      vertex -5.49518 0.230316 -7.5
      vertex -5.45663 0.689333 -7.5
    endloop
  endfacet
  facet normal 0.968583 -0.24869 0
    outer loop
      vertex -5.37981 1.14351 7.5
      vertex -5.26526 1.58967 -7.5
      vertex -5.26526 1.58967 7.5
    endloop
  endfacet
  facet normal 0.968583 -0.24869 0
    outer loop
      vertex -5.37981 1.14351 7.5
      vertex -5.37981 1.14351 -7.5
      vertex -5.26526 1.58967 -7.5
    endloop
  endfacet
  facet normal 0.944376 -0.328867 0
    outer loop
      vertex -5.26526 1.58967 7.5
      vertex -5.11377 2.02469 -7.5
      vertex -5.11377 2.02469 7.5
    endloop
  endfacet
  facet normal 0.944376 -0.328867 0
    outer loop
      vertex -5.26526 1.58967 7.5
      vertex -5.26526 1.58967 -7.5
      vertex -5.11377 2.02469 -7.5
    endloop
  endfacet
  facet normal 0.968583 0.24869 -0
    outer loop
      vertex -5.37981 -1.14351 -7.5
      vertex -5.37981 -1.14351 7.5
      vertex -5.26526 -1.58967 7.5
    endloop
  endfacet
  facet normal 0.968583 0.24869 -0
    outer loop
      vertex -5.26526 -1.58967 -7.5
      vertex -5.37981 -1.14351 -7.5
      vertex -5.26526 -1.58967 7.5
    endloop
  endfacet
  facet normal 0.876307 0.481754 -0
    outer loop
      vertex -4.92641 -2.44549 -7.5
      vertex -4.92641 -2.44549 7.5
      vertex -4.7045 -2.84915 7.5
    endloop
  endfacet
  facet normal 0.876307 0.481754 -0
    outer loop
      vertex -4.7045 -2.84915 -7.5
      vertex -4.92641 -2.44549 -7.5
      vertex -4.7045 -2.84915 7.5
    endloop
  endfacet
  facet normal 0.669131 0.743145 -0
    outer loop
      vertex -3.50583 -4.23782 -7.5
      vertex -3.84815 -3.9296 7.5
      vertex -3.50583 -4.23782 7.5
    endloop
  endfacet
  facet normal 0.669131 0.743145 0
    outer loop
      vertex -3.50583 -4.23782 -7.5
      vertex -3.84815 -3.9296 -7.5
      vertex -3.84815 -3.9296 7.5
    endloop
  endfacet
  facet normal -0.0209424 0.999781 0
    outer loop
      vertex 0.345348 -5.48915 -7.5
      vertex -0.115183 -5.49879 7.5
      vertex 0.345348 -5.48915 7.5
    endloop
  endfacet
  facet normal -0.0209424 0.999781 0
    outer loop
      vertex 0.345348 -5.48915 -7.5
      vertex -0.115183 -5.49879 -7.5
      vertex -0.115183 -5.49879 7.5
    endloop
  endfacet
  facet normal -0.104528 0.994522 0
    outer loop
      vertex 0.803457 -5.441 -7.5
      vertex 0.345348 -5.48915 7.5
      vertex 0.803457 -5.441 7.5
    endloop
  endfacet
  facet normal -0.104528 0.994522 0
    outer loop
      vertex 0.803457 -5.441 -7.5
      vertex 0.345348 -5.48915 -7.5
      vertex 0.345348 -5.48915 7.5
    endloop
  endfacet
  facet normal 0.228351 0.973579 -0
    outer loop
      vertex -1.0306 -5.40258 -7.5
      vertex -1.47906 -5.29739 7.5
      vertex -1.0306 -5.40258 7.5
    endloop
  endfacet
  facet normal 0.228351 0.973579 0
    outer loop
      vertex -1.0306 -5.40258 -7.5
      vertex -1.47906 -5.29739 -7.5
      vertex -1.47906 -5.29739 7.5
    endloop
  endfacet
  facet normal 0.146083 0.989272 -0
    outer loop
      vertex -0.574907 -5.46987 -7.5
      vertex -1.0306 -5.40258 7.5
      vertex -0.574907 -5.46987 7.5
    endloop
  endfacet
  facet normal 0.146083 0.989272 0
    outer loop
      vertex -0.574907 -5.46987 -7.5
      vertex -1.0306 -5.40258 -7.5
      vertex -1.0306 -5.40258 7.5
    endloop
  endfacet
  facet normal 0.309017 0.951057 -0
    outer loop
      vertex -1.47906 -5.29739 -7.5
      vertex -1.91715 -5.15505 7.5
      vertex -1.47906 -5.29739 7.5
    endloop
  endfacet
  facet normal 0.309017 0.951057 0
    outer loop
      vertex -1.47906 -5.29739 -7.5
      vertex -1.91715 -5.15505 -7.5
      vertex -1.91715 -5.15505 7.5
    endloop
  endfacet
  facet normal 0.535827 0.844328 -0
    outer loop
      vertex -2.75 -4.76314 -7.5
      vertex -3.13892 -4.51632 7.5
      vertex -2.75 -4.76314 7.5
    endloop
  endfacet
  facet normal 0.535827 0.844328 0
    outer loop
      vertex -2.75 -4.76314 -7.5
      vertex -3.13892 -4.51632 -7.5
      vertex -3.13892 -4.51632 7.5
    endloop
  endfacet
  facet normal -0.999123 -0.0418757 0
    outer loop
      vertex 5.48071 0.460228 -7.5
      vertex 5.5 0 -7.5
      vertex 5.5 0 7.5
    endloop
  endfacet
  facet normal -0.999123 -0.0418757 -0
    outer loop
      vertex 5.48071 0.460228 7.5
      vertex 5.48071 0.460228 -7.5
      vertex 5.5 0 7.5
    endloop
  endfacet
  facet normal -0.809017 0.587785 0
    outer loop
      vertex 4.58107 -3.04365 -7.5
      vertex 4.31031 -3.41631 7.5
      vertex 4.58107 -3.04365 7.5
    endloop
  endfacet
  facet normal -0.809017 0.587785 0
    outer loop
      vertex 4.58107 -3.04365 -7.5
      vertex 4.31031 -3.41631 -7.5
      vertex 4.31031 -3.41631 7.5
    endloop
  endfacet
  facet normal -0.855364 -0.518027 0
    outer loop
      vertex 4.6075 3 -7.5
      vertex 4.81969 2.64965 -7.5
      vertex 4.81969 2.64965 7.5
    endloop
  endfacet
  facet normal -0.855364 -0.518027 -0
    outer loop
      vertex 4.6075 3 7.5
      vertex 4.6075 3 -7.5
      vertex 4.81969 2.64965 7.5
    endloop
  endfacet
  facet normal 0.876307 -0.481754 0
    outer loop
      vertex -4.92641 2.44549 7.5
      vertex -4.7045 2.84915 -7.5
      vertex -4.7045 2.84915 7.5
    endloop
  endfacet
  facet normal 0.876307 -0.481754 0
    outer loop
      vertex -4.92641 2.44549 7.5
      vertex -4.92641 2.44549 -7.5
      vertex -4.7045 2.84915 -7.5
    endloop
  endfacet
  facet normal 0.832921 -0.553392 0
    outer loop
      vertex -4.7045 2.84915 7.5
      vertex -4.60428 3 -7.5
      vertex -4.60428 3 7.5
    endloop
  endfacet
  facet normal 0.832921 -0.553392 0
    outer loop
      vertex -4.7045 2.84915 7.5
      vertex -4.7045 2.84915 -7.5
      vertex -4.60428 3 -7.5
    endloop
  endfacet
  facet normal 0.728969 0.684547 -0
    outer loop
      vertex -4.16347 -3.59381 -7.5
      vertex -4.16347 -3.59381 7.5
      vertex -3.84815 -3.9296 7.5
    endloop
  endfacet
  facet normal 0.728969 0.684547 -0
    outer loop
      vertex -3.84815 -3.9296 -7.5
      vertex -4.16347 -3.59381 -7.5
      vertex -3.84815 -3.9296 7.5
    endloop
  endfacet
  facet normal -0.187381 0.982287 0
    outer loop
      vertex 1.25593 -5.35468 -7.5
      vertex 0.803457 -5.441 7.5
      vertex 1.25593 -5.35468 7.5
    endloop
  endfacet
  facet normal -0.187381 0.982287 0
    outer loop
      vertex 1.25593 -5.35468 -7.5
      vertex 0.803457 -5.441 -7.5
      vertex 0.803457 -5.441 7.5
    endloop
  endfacet
  facet normal -0.348572 0.937282 0
    outer loop
      vertex 2.13134 -5.07025 -7.5
      vertex 1.69959 -5.23081 7.5
      vertex 2.13134 -5.07025 7.5
    endloop
  endfacet
  facet normal -0.348572 0.937282 0
    outer loop
      vertex 2.13134 -5.07025 -7.5
      vertex 1.69959 -5.23081 -7.5
      vertex 1.69959 -5.23081 7.5
    endloop
  endfacet
  facet normal -0.425779 0.904827 0
    outer loop
      vertex 2.54813 -4.87412 -7.5
      vertex 2.13134 -5.07025 7.5
      vertex 2.54813 -4.87412 7.5
    endloop
  endfacet
  facet normal -0.425779 0.904827 0
    outer loop
      vertex 2.54813 -4.87412 -7.5
      vertex 2.13134 -5.07025 -7.5
      vertex 2.13134 -5.07025 7.5
    endloop
  endfacet
  facet normal -0.699663 0.714473 0
    outer loop
      vertex 4.00933 -3.76501 -7.5
      vertex 3.68022 -4.0873 7.5
      vertex 4.00933 -3.76501 7.5
    endloop
  endfacet
  facet normal -0.699663 0.714473 0
    outer loop
      vertex 4.00933 -3.76501 -7.5
      vertex 3.68022 -4.0873 -7.5
      vertex 3.68022 -4.0873 7.5
    endloop
  endfacet
  facet normal -0.978148 0.207912 0
    outer loop
      vertex 5.42298 -0.917228 -7.5
      vertex 5.32721 -1.36779 7.5
      vertex 5.42298 -0.917228 7.5
    endloop
  endfacet
  facet normal -0.978148 0.207912 0
    outer loop
      vertex 5.42298 -0.917228 -7.5
      vertex 5.32721 -1.36779 -7.5
      vertex 5.32721 -1.36779 7.5
    endloop
  endfacet
  facet normal -0.895712 0.444635 0
    outer loop
      vertex 5.0245 -2.23705 -7.5
      vertex 4.81969 -2.64965 7.5
      vertex 5.0245 -2.23705 7.5
    endloop
  endfacet
  facet normal -0.895712 0.444635 0
    outer loop
      vertex 5.0245 -2.23705 -7.5
      vertex 4.81969 -2.64965 -7.5
      vertex 4.81969 -2.64965 7.5
    endloop
  endfacet
  facet normal -0.929776 0.368125 0
    outer loop
      vertex 5.19407 -1.80877 -7.5
      vertex 5.0245 -2.23705 7.5
      vertex 5.19407 -1.80877 7.5
    endloop
  endfacet
  facet normal -0.929776 0.368125 0
    outer loop
      vertex 5.19407 -1.80877 -7.5
      vertex 5.0245 -2.23705 -7.5
      vertex 5.0245 -2.23705 7.5
    endloop
  endfacet
  facet normal -0.5 0.866025 0
    outer loop
      vertex 2.94705 -4.6438 -7.5
      vertex 2.54813 -4.87412 7.5
      vertex 2.94705 -4.6438 7.5
    endloop
  endfacet
  facet normal -0.5 0.866025 0
    outer loop
      vertex 2.94705 -4.6438 -7.5
      vertex 2.54813 -4.87412 -7.5
      vertex 2.54813 -4.87412 7.5
    endloop
  endfacet
  facet normal -0.570714 0.821149 0
    outer loop
      vertex 3.3253 -4.38091 -7.5
      vertex 2.94705 -4.6438 7.5
      vertex 3.3253 -4.38091 7.5
    endloop
  endfacet
  facet normal -0.570714 0.821149 0
    outer loop
      vertex 3.3253 -4.38091 -7.5
      vertex 2.94705 -4.6438 -7.5
      vertex 2.94705 -4.6438 7.5
    endloop
  endfacet
  facet normal -0.999123 0.0418757 0
    outer loop
      vertex 5.5 0 -7.5
      vertex 5.48071 -0.460228 7.5
      vertex 5.5 0 7.5
    endloop
  endfacet
  facet normal -0.999123 0.0418757 0
    outer loop
      vertex 5.5 0 -7.5
      vertex 5.48071 -0.460228 -7.5
      vertex 5.48071 -0.460228 7.5
    endloop
  endfacet
  facet normal -0.978148 -0.207912 0
    outer loop
      vertex 5.32721 1.36779 -7.5
      vertex 5.42298 0.917228 -7.5
      vertex 5.42298 0.917228 7.5
    endloop
  endfacet
  facet normal -0.978148 -0.207912 -0
    outer loop
      vertex 5.32721 1.36779 7.5
      vertex 5.32721 1.36779 -7.5
      vertex 5.42298 0.917228 7.5
    endloop
  endfacet
  facet normal -0.895712 -0.444635 0
    outer loop
      vertex 4.81969 2.64965 -7.5
      vertex 5.0245 2.23705 -7.5
      vertex 5.0245 2.23705 7.5
    endloop
  endfacet
  facet normal -0.895712 -0.444635 -0
    outer loop
      vertex 4.81969 2.64965 7.5
      vertex 4.81969 2.64965 -7.5
      vertex 5.0245 2.23705 7.5
    endloop
  endfacet
  facet normal -0.929776 -0.368125 0
    outer loop
      vertex 5.0245 2.23705 -7.5
      vertex 5.19407 1.80877 -7.5
      vertex 5.19407 1.80877 7.5
    endloop
  endfacet
  facet normal -0.929776 -0.368125 -0
    outer loop
      vertex 5.0245 2.23705 7.5
      vertex 5.0245 2.23705 -7.5
      vertex 5.19407 1.80877 7.5
    endloop
  endfacet
  facet normal 0.944376 0.328867 -0
    outer loop
      vertex -5.12055 3.99479 -7.5
      vertex -5.12055 3.99479 7.5
      vertex -5.11377 3.97531 7.5
    endloop
  endfacet
  facet normal 0.944376 0.328867 -0
    outer loop
      vertex -5.11377 3.97531 -7.5
      vertex -5.12055 3.99479 -7.5
      vertex -5.11377 3.97531 7.5
    endloop
  endfacet
  facet normal 0.913545 0.406737 -0
    outer loop
      vertex -5.11377 3.97531 -7.5
      vertex -5.11377 3.97531 7.5
      vertex -4.92641 3.55451 7.5
    endloop
  endfacet
  facet normal 0.913545 0.406737 -0
    outer loop
      vertex -4.92641 3.55451 -7.5
      vertex -5.11377 3.97531 -7.5
      vertex -4.92641 3.55451 7.5
    endloop
  endfacet
  facet normal 0.832921 0.553392 -0
    outer loop
      vertex -4.7045 3.15085 -7.5
      vertex -4.7045 3.15085 7.5
      vertex -4.60428 3 7.5
    endloop
  endfacet
  facet normal 0.832921 0.553392 -0
    outer loop
      vertex -4.60428 3 -7.5
      vertex -4.7045 3.15085 -7.5
      vertex -4.60428 3 7.5
    endloop
  endfacet
  facet normal 0.876307 0.481754 -0
    outer loop
      vertex -4.92641 3.55451 -7.5
      vertex -4.92641 3.55451 7.5
      vertex -4.7045 3.15085 7.5
    endloop
  endfacet
  facet normal 0.876307 0.481754 -0
    outer loop
      vertex -4.7045 3.15085 -7.5
      vertex -4.92641 3.55451 -7.5
      vertex -4.7045 3.15085 7.5
    endloop
  endfacet
  facet normal -0.855364 0.518027 0
    outer loop
      vertex 4.81969 3.35035 -7.5
      vertex 4.6075 3 7.5
      vertex 4.81969 3.35035 7.5
    endloop
  endfacet
  facet normal -0.855364 0.518027 0
    outer loop
      vertex 4.81969 3.35035 -7.5
      vertex 4.6075 3 -7.5
      vertex 4.6075 3 7.5
    endloop
  endfacet
  facet normal -0.895712 0.444635 0
    outer loop
      vertex 5.0245 3.76295 -7.5
      vertex 4.81969 3.35035 7.5
      vertex 5.0245 3.76295 7.5
    endloop
  endfacet
  facet normal -0.895712 0.444635 0
    outer loop
      vertex 5.0245 3.76295 -7.5
      vertex 4.81969 3.35035 -7.5
      vertex 4.81969 3.35035 7.5
    endloop
  endfacet
  facet normal -0.929776 0.368125 0
    outer loop
      vertex 5.11937 4.00256 -7.5
      vertex 5.0245 3.76295 7.5
      vertex 5.11937 4.00256 7.5
    endloop
  endfacet
  facet normal -0.929776 0.368125 0
    outer loop
      vertex 5.11937 4.00256 -7.5
      vertex 5.0245 3.76295 -7.5
      vertex 5.0245 3.76295 7.5
    endloop
  endfacet
  facet normal -1 0 0
    outer loop
      vertex -5.5 -8.5 7.5
      vertex -5.5 -5.5 -7.5
      vertex -5.5 -8.5 -7.5
    endloop
  endfacet
  facet normal -1 0 0
    outer loop
      vertex -5.5 -8.5 7.5
      vertex -5.5 -5.5 7.5
      vertex -5.5 -5.5 -7.5
    endloop
  endfacet
  facet normal 0 -1 0
    outer loop
      vertex 5.5 -8.5 -7.5
      vertex -5.5 -8.5 7.5
      vertex -5.5 -8.5 -7.5
    endloop
  endfacet
  facet normal 0 -1 0
    outer loop
      vertex 5.5 -8.5 -7.5
      vertex 5.5 -8.5 7.5
      vertex -5.5 -8.5 7.5
    endloop
  endfacet
  facet normal 0 1 0
    outer loop
      vertex -5.5 -5.5 7.5
      vertex -3.45353 -5.5 -7.5
      vertex -5.5 -5.5 -7.5
    endloop
  endfacet
  facet normal -0 1 0
    outer loop
      vertex -5.5 -5.5 7.5
      vertex -3.45353 -5.5 7.5
      vertex -3.45353 -5.5 -7.5
    endloop
  endfacet
  facet normal 0 1 0
    outer loop
      vertex 3.46232 -5.5 7.5
      vertex 5.5 -5.5 -7.5
      vertex 3.46232 -5.5 -7.5
    endloop
  endfacet
  facet normal -0 1 0
    outer loop
      vertex 3.46232 -5.5 7.5
      vertex 5.5 -5.5 7.5
      vertex 5.5 -5.5 -7.5
    endloop
  endfacet
  facet normal 1 0 0
    outer loop
      vertex 5.5 -5.5 -7.5
      vertex 5.5 -8.5 7.5
      vertex 5.5 -8.5 -7.5
    endloop
  endfacet
  facet normal 1 0 -0
    outer loop
      vertex 5.5 -5.5 -7.5
      vertex 5.5 -5.5 7.5
      vertex 5.5 -8.5 7.5
    endloop
  endfacet
endsolid OpenSCAD_Model
