solid OpenSCAD_Model
  facet normal -0.156435 -0.987688 0
    outer loop
      vertex -11.118 -4.90211 -0.75
      vertex -10.5 -5 0.75
      vertex -11.118 -4.90211 0.75
    endloop
  endfacet
  facet normal -0.156435 -0.987688 -0
    outer loop
      vertex -10.5 -5 0.75
      vertex -11.118 -4.90211 -0.75
      vertex -10.5 -5 -0.75
    endloop
  endfacet
  facet normal 0 0 -1
    outer loop
      vertex 10.5 -5 -0.75
      vertex 12.5 -3 -0.75
      vertex 12.4021 -3.61803 -0.75
    endloop
  endfacet
  facet normal 0 0 -1
    outer loop
      vertex 12.5 -3 -0.75
      vertex 7.55 0 -0.75
      vertex 12.5 3 -0.75
    endloop
  endfacet
  facet normal 0 0 -1
    outer loop
      vertex 10.5 -5 -0.75
      vertex 12.4021 -3.61803 -0.75
      vertex 12.118 -4.17557 -0.75
    endloop
  endfacet
  facet normal 0 0 -1
    outer loop
      vertex 7.47414 0.478976 -0.75
      vertex 12.5 3 -0.75
      vertex 7.55 0 -0.75
    endloop
  endfacet
  facet normal 0 0 -1
    outer loop
      vertex 10.5 -5 -0.75
      vertex 12.118 -4.17557 -0.75
      vertex 11.6756 -4.61803 -0.75
    endloop
  endfacet
  facet normal 0 0 -1
    outer loop
      vertex 7.25398 0.911067 -0.75
      vertex 12.5 3 -0.75
      vertex 7.47414 0.478976 -0.75
    endloop
  endfacet
  facet normal 0 0 -1
    outer loop
      vertex 10.5 -5 -0.75
      vertex 11.6756 -4.61803 -0.75
      vertex 11.118 -4.90211 -0.75
    endloop
  endfacet
  facet normal 0 -0 -1
    outer loop
      vertex 10.5 5 -0.75
      vertex 12.5 3 -0.75
      vertex 7.25398 0.911067 -0.75
    endloop
  endfacet
  facet normal -0 0 -1
    outer loop
      vertex 12.5 -3 -0.75
      vertex 10.5 -5 -0.75
      vertex 7.25398 -0.911067 -0.75
    endloop
  endfacet
  facet normal 0 0 -1
    outer loop
      vertex 12.4021 3.61803 -0.75
      vertex 10.5 5 -0.75
      vertex 12.118 4.17557 -0.75
    endloop
  endfacet
  facet normal 0 0 -1
    outer loop
      vertex 12.118 4.17557 -0.75
      vertex 10.5 5 -0.75
      vertex 11.6756 4.61803 -0.75
    endloop
  endfacet
  facet normal 0 0 -1
    outer loop
      vertex 12.5 -3 -0.75
      vertex 7.47414 -0.478976 -0.75
      vertex 7.55 0 -0.75
    endloop
  endfacet
  facet normal 0 0 -1
    outer loop
      vertex 12.5 -3 -0.75
      vertex 7.25398 -0.911067 -0.75
      vertex 7.47414 -0.478976 -0.75
    endloop
  endfacet
  facet normal 0 0 -1
    outer loop
      vertex 10.5 -5 -0.75
      vertex 6.91107 -1.25398 -0.75
      vertex 7.25398 -0.911067 -0.75
    endloop
  endfacet
  facet normal 0 0 -1
    outer loop
      vertex 10.5 -5 -0.75
      vertex 6.47898 -1.47414 -0.75
      vertex 6.91107 -1.25398 -0.75
    endloop
  endfacet
  facet normal 0 0 -1
    outer loop
      vertex 10.5 -5 -0.75
      vertex 6 -1.55 -0.75
      vertex 6.47898 -1.47414 -0.75
    endloop
  endfacet
  facet normal 0 0 -1
    outer loop
      vertex 10.5 -5 -0.75
      vertex 5.52102 -1.47414 -0.75
      vertex 6 -1.55 -0.75
    endloop
  endfacet
  facet normal 0 0 -1
    outer loop
      vertex -5.52102 -1.47414 -0.75
      vertex 5.52102 -1.47414 -0.75
      vertex 10.5 -5 -0.75
    endloop
  endfacet
  facet normal 0 0 -1
    outer loop
      vertex 4.52586 -0.478976 -0.75
      vertex -4.45 0 -0.75
      vertex 4.45 0 -0.75
    endloop
  endfacet
  facet normal 0 0 -1
    outer loop
      vertex -4.52586 -0.478976 -0.75
      vertex 4.52586 -0.478976 -0.75
      vertex 4.74602 -0.911067 -0.75
    endloop
  endfacet
  facet normal 0 0 -1
    outer loop
      vertex -4.74602 -0.911067 -0.75
      vertex 4.74602 -0.911067 -0.75
      vertex 5.08893 -1.25398 -0.75
    endloop
  endfacet
  facet normal 0 0 -1
    outer loop
      vertex 5.52102 -1.47414 -0.75
      vertex -5.52102 -1.47414 -0.75
      vertex 5.08893 -1.25398 -0.75
    endloop
  endfacet
  facet normal 0 0 -1
    outer loop
      vertex 4.52586 -0.478976 -0.75
      vertex -4.52586 -0.478976 -0.75
      vertex -4.45 0 -0.75
    endloop
  endfacet
  facet normal 0 0 -1
    outer loop
      vertex 4.74602 -0.911067 -0.75
      vertex -4.74602 -0.911067 -0.75
      vertex -4.52586 -0.478976 -0.75
    endloop
  endfacet
  facet normal 0 0 -1
    outer loop
      vertex 5.08893 -1.25398 -0.75
      vertex -5.08893 -1.25398 -0.75
      vertex -4.74602 -0.911067 -0.75
    endloop
  endfacet
  facet normal -0 0 -1
    outer loop
      vertex 5.08893 -1.25398 -0.75
      vertex -5.52102 -1.47414 -0.75
      vertex -5.08893 -1.25398 -0.75
    endloop
  endfacet
  facet normal 0 0 -1
    outer loop
      vertex -10.5 -5 -0.75
      vertex -5.52102 -1.47414 -0.75
      vertex 10.5 -5 -0.75
    endloop
  endfacet
  facet normal 0 0 -1
    outer loop
      vertex -5.52102 -1.47414 -0.75
      vertex -10.5 -5 -0.75
      vertex -6 -1.55 -0.75
    endloop
  endfacet
  facet normal -0 0 -1
    outer loop
      vertex -7.25398 -0.911067 -0.75
      vertex -12.5 -3 -0.75
      vertex -7.47414 -0.478976 -0.75
    endloop
  endfacet
  facet normal 0 0 -1
    outer loop
      vertex -12.5 -3 -0.75
      vertex -7.25398 -0.911067 -0.75
      vertex -10.5 -5 -0.75
    endloop
  endfacet
  facet normal -0 0 -1
    outer loop
      vertex -6.91107 -1.25398 -0.75
      vertex -10.5 -5 -0.75
      vertex -7.25398 -0.911067 -0.75
    endloop
  endfacet
  facet normal -0 0 -1
    outer loop
      vertex -6.47898 -1.47414 -0.75
      vertex -10.5 -5 -0.75
      vertex -6.91107 -1.25398 -0.75
    endloop
  endfacet
  facet normal -0 0 -1
    outer loop
      vertex -6 -1.55 -0.75
      vertex -10.5 -5 -0.75
      vertex -6.47898 -1.47414 -0.75
    endloop
  endfacet
  facet normal 0 0 -1
    outer loop
      vertex 11.6756 4.61803 -0.75
      vertex 10.5 5 -0.75
      vertex 11.118 4.90211 -0.75
    endloop
  endfacet
  facet normal 0 0 -1
    outer loop
      vertex 12.5 3 -0.75
      vertex 10.5 5 -0.75
      vertex 12.4021 3.61803 -0.75
    endloop
  endfacet
  facet normal 0 0 -1
    outer loop
      vertex 6.91107 1.25398 -0.75
      vertex 10.5 5 -0.75
      vertex 7.25398 0.911067 -0.75
    endloop
  endfacet
  facet normal 0 0 -1
    outer loop
      vertex 6.47898 1.47414 -0.75
      vertex 10.5 5 -0.75
      vertex 6.91107 1.25398 -0.75
    endloop
  endfacet
  facet normal 0 0 -1
    outer loop
      vertex 6 1.55 -0.75
      vertex 10.5 5 -0.75
      vertex 6.47898 1.47414 -0.75
    endloop
  endfacet
  facet normal 0 0 -1
    outer loop
      vertex 5.52102 1.47414 -0.75
      vertex 10.5 5 -0.75
      vertex 6 1.55 -0.75
    endloop
  endfacet
  facet normal 0 0 -1
    outer loop
      vertex -5.52102 1.47414 -0.75
      vertex 5.52102 1.47414 -0.75
      vertex 5.08893 1.25398 -0.75
    endloop
  endfacet
  facet normal 0 0 -1
    outer loop
      vertex -4.45 0 -0.75
      vertex 4.52586 0.478976 -0.75
      vertex 4.45 0 -0.75
    endloop
  endfacet
  facet normal 0 0 -1
    outer loop
      vertex -4.52586 0.478976 -0.75
      vertex 4.52586 0.478976 -0.75
      vertex -4.45 0 -0.75
    endloop
  endfacet
  facet normal 0 0 -1
    outer loop
      vertex 4.52586 0.478976 -0.75
      vertex -4.52586 0.478976 -0.75
      vertex 4.74602 0.911067 -0.75
    endloop
  endfacet
  facet normal 0 0 -1
    outer loop
      vertex -4.74602 0.911067 -0.75
      vertex 4.74602 0.911067 -0.75
      vertex -4.52586 0.478976 -0.75
    endloop
  endfacet
  facet normal 0 0 -1
    outer loop
      vertex 4.74602 0.911067 -0.75
      vertex -4.74602 0.911067 -0.75
      vertex 5.08893 1.25398 -0.75
    endloop
  endfacet
  facet normal 0 0 -1
    outer loop
      vertex -5.08893 1.25398 -0.75
      vertex 5.08893 1.25398 -0.75
      vertex -4.74602 0.911067 -0.75
    endloop
  endfacet
  facet normal 0 0 -1
    outer loop
      vertex -5.52102 1.47414 -0.75
      vertex 5.08893 1.25398 -0.75
      vertex -5.08893 1.25398 -0.75
    endloop
  endfacet
  facet normal 0 0 -1
    outer loop
      vertex 5.52102 1.47414 -0.75
      vertex -5.52102 1.47414 -0.75
      vertex 10.5 5 -0.75
    endloop
  endfacet
  facet normal 0 0 -1
    outer loop
      vertex -10.5 5 -0.75
      vertex -5.52102 1.47414 -0.75
      vertex -6 1.55 -0.75
    endloop
  endfacet
  facet normal 0 0 -1
    outer loop
      vertex -10.5 5 -0.75
      vertex -6 1.55 -0.75
      vertex -6.47898 1.47414 -0.75
    endloop
  endfacet
  facet normal -0 0 -1
    outer loop
      vertex -7.47414 -0.478976 -0.75
      vertex -12.5 -3 -0.75
      vertex -7.55 0 -0.75
    endloop
  endfacet
  facet normal 0 0 -1
    outer loop
      vertex -12.5 3 -0.75
      vertex -7.55 0 -0.75
      vertex -12.5 -3 -0.75
    endloop
  endfacet
  facet normal 0 0 -1
    outer loop
      vertex -5.52102 1.47414 -0.75
      vertex -10.5 5 -0.75
      vertex 10.5 5 -0.75
    endloop
  endfacet
  facet normal 0 0 -1
    outer loop
      vertex -6.91107 1.25398 -0.75
      vertex -10.5 5 -0.75
      vertex -6.47898 1.47414 -0.75
    endloop
  endfacet
  facet normal 0 0 -1
    outer loop
      vertex -7.25398 0.911067 -0.75
      vertex -10.5 5 -0.75
      vertex -6.91107 1.25398 -0.75
    endloop
  endfacet
  facet normal 0 0 -1
    outer loop
      vertex -7.55 0 -0.75
      vertex -12.5 3 -0.75
      vertex -7.47414 0.478976 -0.75
    endloop
  endfacet
  facet normal 0 0 -1
    outer loop
      vertex -12.5 -3 -0.75
      vertex -10.5 -5 -0.75
      vertex -11.118 -4.90211 -0.75
    endloop
  endfacet
  facet normal 0 0 -1
    outer loop
      vertex -7.47414 0.478976 -0.75
      vertex -12.5 3 -0.75
      vertex -7.25398 0.911067 -0.75
    endloop
  endfacet
  facet normal 0 0 -1
    outer loop
      vertex -12.5 -3 -0.75
      vertex -11.118 -4.90211 -0.75
      vertex -11.6756 -4.61803 -0.75
    endloop
  endfacet
  facet normal 0 0 -1
    outer loop
      vertex -7.25398 0.911067 -0.75
      vertex -12.5 3 -0.75
      vertex -10.5 5 -0.75
    endloop
  endfacet
  facet normal 0 0 -1
    outer loop
      vertex -12.5 -3 -0.75
      vertex -11.6756 -4.61803 -0.75
      vertex -12.118 -4.17557 -0.75
    endloop
  endfacet
  facet normal 0 0 -1
    outer loop
      vertex -10.5 5 -0.75
      vertex -12.5 3 -0.75
      vertex -11.118 4.90211 -0.75
    endloop
  endfacet
  facet normal 0 0 -1
    outer loop
      vertex -12.5 -3 -0.75
      vertex -12.118 -4.17557 -0.75
      vertex -12.4021 -3.61803 -0.75
    endloop
  endfacet
  facet normal 0 0 -1
    outer loop
      vertex -11.118 4.90211 -0.75
      vertex -12.5 3 -0.75
      vertex -11.6756 4.61803 -0.75
    endloop
  endfacet
  facet normal 0 0 -1
    outer loop
      vertex -11.6756 4.61803 -0.75
      vertex -12.5 3 -0.75
      vertex -12.118 4.17557 -0.75
    endloop
  endfacet
  facet normal 0 0 -1
    outer loop
      vertex -12.118 4.17557 -0.75
      vertex -12.5 3 -0.75
      vertex -12.4021 3.61803 -0.75
    endloop
  endfacet
  facet normal 0 0 1
    outer loop
      vertex 10.5 5 0.75
      vertex 12.5 3 0.75
      vertex 12.4021 3.61803 0.75
    endloop
  endfacet
  facet normal 0 0 1
    outer loop
      vertex 12.5 3 0.75
      vertex 7.55 0 0.75
      vertex 12.5 -3 0.75
    endloop
  endfacet
  facet normal 0 0 1
    outer loop
      vertex 10.5 5 0.75
      vertex 12.4021 3.61803 0.75
      vertex 12.118 4.17557 0.75
    endloop
  endfacet
  facet normal -0 0 1
    outer loop
      vertex 7.47414 -0.478976 0.75
      vertex 12.5 -3 0.75
      vertex 7.55 0 0.75
    endloop
  endfacet
  facet normal 0 0 1
    outer loop
      vertex 10.5 5 0.75
      vertex 12.118 4.17557 0.75
      vertex 11.6756 4.61803 0.75
    endloop
  endfacet
  facet normal -0 0 1
    outer loop
      vertex 7.25398 -0.911067 0.75
      vertex 12.5 -3 0.75
      vertex 7.47414 -0.478976 0.75
    endloop
  endfacet
  facet normal 0 0 1
    outer loop
      vertex 10.5 5 0.75
      vertex 11.6756 4.61803 0.75
      vertex 11.118 4.90211 0.75
    endloop
  endfacet
  facet normal 0 -0 1
    outer loop
      vertex 10.5 -5 0.75
      vertex 12.5 -3 0.75
      vertex 7.25398 -0.911067 0.75
    endloop
  endfacet
  facet normal 0 0 1
    outer loop
      vertex 12.5 3 0.75
      vertex 10.5 5 0.75
      vertex 7.25398 0.911067 0.75
    endloop
  endfacet
  facet normal 0 0 1
    outer loop
      vertex 12.4021 -3.61803 0.75
      vertex 10.5 -5 0.75
      vertex 12.118 -4.17557 0.75
    endloop
  endfacet
  facet normal 0 0 1
    outer loop
      vertex 12.118 -4.17557 0.75
      vertex 10.5 -5 0.75
      vertex 11.6756 -4.61803 0.75
    endloop
  endfacet
  facet normal 0 0 1
    outer loop
      vertex 12.5 3 0.75
      vertex 7.47414 0.478976 0.75
      vertex 7.55 0 0.75
    endloop
  endfacet
  facet normal 0 0 1
    outer loop
      vertex 12.5 3 0.75
      vertex 7.25398 0.911067 0.75
      vertex 7.47414 0.478976 0.75
    endloop
  endfacet
  facet normal 0 0 1
    outer loop
      vertex 10.5 5 0.75
      vertex 6.91107 1.25398 0.75
      vertex 7.25398 0.911067 0.75
    endloop
  endfacet
  facet normal 0 0 1
    outer loop
      vertex 10.5 5 0.75
      vertex 6.47898 1.47414 0.75
      vertex 6.91107 1.25398 0.75
    endloop
  endfacet
  facet normal 0 0 1
    outer loop
      vertex 10.5 5 0.75
      vertex 6 1.55 0.75
      vertex 6.47898 1.47414 0.75
    endloop
  endfacet
  facet normal 0 0 1
    outer loop
      vertex 10.5 5 0.75
      vertex 5.52102 1.47414 0.75
      vertex 6 1.55 0.75
    endloop
  endfacet
  facet normal 0 0 1
    outer loop
      vertex -5.52102 1.47414 0.75
      vertex 5.52102 1.47414 0.75
      vertex 10.5 5 0.75
    endloop
  endfacet
  facet normal 0 0 1
    outer loop
      vertex 4.52586 0.478976 0.75
      vertex -4.45 0 0.75
      vertex 4.45 0 0.75
    endloop
  endfacet
  facet normal 0 0 1
    outer loop
      vertex -4.52586 0.478976 0.75
      vertex 4.52586 0.478976 0.75
      vertex 4.74602 0.911067 0.75
    endloop
  endfacet
  facet normal 0 0 1
    outer loop
      vertex -4.74602 0.911067 0.75
      vertex 4.74602 0.911067 0.75
      vertex 5.08893 1.25398 0.75
    endloop
  endfacet
  facet normal 0 0 1
    outer loop
      vertex 5.52102 1.47414 0.75
      vertex -5.52102 1.47414 0.75
      vertex 5.08893 1.25398 0.75
    endloop
  endfacet
  facet normal 0 0 1
    outer loop
      vertex 4.52586 0.478976 0.75
      vertex -4.52586 0.478976 0.75
      vertex -4.45 0 0.75
    endloop
  endfacet
  facet normal 0 0 1
    outer loop
      vertex 4.74602 0.911067 0.75
      vertex -4.74602 0.911067 0.75
      vertex -4.52586 0.478976 0.75
    endloop
  endfacet
  facet normal 0 0 1
    outer loop
      vertex 5.08893 1.25398 0.75
      vertex -5.08893 1.25398 0.75
      vertex -4.74602 0.911067 0.75
    endloop
  endfacet
  facet normal 0 0 1
    outer loop
      vertex 5.08893 1.25398 0.75
      vertex -5.52102 1.47414 0.75
      vertex -5.08893 1.25398 0.75
    endloop
  endfacet
  facet normal -0 0 1
    outer loop
      vertex -10.5 5 0.75
      vertex -5.52102 1.47414 0.75
      vertex 10.5 5 0.75
    endloop
  endfacet
  facet normal 0 0 1
    outer loop
      vertex -5.52102 1.47414 0.75
      vertex -10.5 5 0.75
      vertex -6 1.55 0.75
    endloop
  endfacet
  facet normal 0 0 1
    outer loop
      vertex -7.25398 0.911067 0.75
      vertex -12.5 3 0.75
      vertex -7.47414 0.478976 0.75
    endloop
  endfacet
  facet normal -0 0 1
    outer loop
      vertex -12.5 3 0.75
      vertex -7.25398 0.911067 0.75
      vertex -10.5 5 0.75
    endloop
  endfacet
  facet normal 0 0 1
    outer loop
      vertex -6.91107 1.25398 0.75
      vertex -10.5 5 0.75
      vertex -7.25398 0.911067 0.75
    endloop
  endfacet
  facet normal 0 0 1
    outer loop
      vertex -6.47898 1.47414 0.75
      vertex -10.5 5 0.75
      vertex -6.91107 1.25398 0.75
    endloop
  endfacet
  facet normal 0 0 1
    outer loop
      vertex -6 1.55 0.75
      vertex -10.5 5 0.75
      vertex -6.47898 1.47414 0.75
    endloop
  endfacet
  facet normal 0 0 1
    outer loop
      vertex 11.6756 -4.61803 0.75
      vertex 10.5 -5 0.75
      vertex 11.118 -4.90211 0.75
    endloop
  endfacet
  facet normal 0 0 1
    outer loop
      vertex 12.5 -3 0.75
      vertex 10.5 -5 0.75
      vertex 12.4021 -3.61803 0.75
    endloop
  endfacet
  facet normal -0 0 1
    outer loop
      vertex 6.91107 -1.25398 0.75
      vertex 10.5 -5 0.75
      vertex 7.25398 -0.911067 0.75
    endloop
  endfacet
  facet normal -0 0 1
    outer loop
      vertex 6.47898 -1.47414 0.75
      vertex 10.5 -5 0.75
      vertex 6.91107 -1.25398 0.75
    endloop
  endfacet
  facet normal -0 0 1
    outer loop
      vertex 6 -1.55 0.75
      vertex 10.5 -5 0.75
      vertex 6.47898 -1.47414 0.75
    endloop
  endfacet
  facet normal 0 0 1
    outer loop
      vertex 5.52102 -1.47414 0.75
      vertex 10.5 -5 0.75
      vertex 6 -1.55 0.75
    endloop
  endfacet
  facet normal 0 0 1
    outer loop
      vertex -5.52102 -1.47414 0.75
      vertex 5.52102 -1.47414 0.75
      vertex 5.08893 -1.25398 0.75
    endloop
  endfacet
  facet normal -0 0 1
    outer loop
      vertex -4.45 0 0.75
      vertex 4.52586 -0.478976 0.75
      vertex 4.45 0 0.75
    endloop
  endfacet
  facet normal 0 0 1
    outer loop
      vertex -4.52586 -0.478976 0.75
      vertex 4.52586 -0.478976 0.75
      vertex -4.45 0 0.75
    endloop
  endfacet
  facet normal 0 0 1
    outer loop
      vertex 4.52586 -0.478976 0.75
      vertex -4.52586 -0.478976 0.75
      vertex 4.74602 -0.911067 0.75
    endloop
  endfacet
  facet normal 0 0 1
    outer loop
      vertex -4.74602 -0.911067 0.75
      vertex 4.74602 -0.911067 0.75
      vertex -4.52586 -0.478976 0.75
    endloop
  endfacet
  facet normal 0 0 1
    outer loop
      vertex 4.74602 -0.911067 0.75
      vertex -4.74602 -0.911067 0.75
      vertex 5.08893 -1.25398 0.75
    endloop
  endfacet
  facet normal 0 0 1
    outer loop
      vertex -5.08893 -1.25398 0.75
      vertex 5.08893 -1.25398 0.75
      vertex -4.74602 -0.911067 0.75
    endloop
  endfacet
  facet normal 0 0 1
    outer loop
      vertex -5.52102 -1.47414 0.75
      vertex 5.08893 -1.25398 0.75
      vertex -5.08893 -1.25398 0.75
    endloop
  endfacet
  facet normal 0 0 1
    outer loop
      vertex 5.52102 -1.47414 0.75
      vertex -5.52102 -1.47414 0.75
      vertex 10.5 -5 0.75
    endloop
  endfacet
  facet normal 0 0 1
    outer loop
      vertex -10.5 -5 0.75
      vertex -5.52102 -1.47414 0.75
      vertex -6 -1.55 0.75
    endloop
  endfacet
  facet normal 0 0 1
    outer loop
      vertex -10.5 -5 0.75
      vertex -6 -1.55 0.75
      vertex -6.47898 -1.47414 0.75
    endloop
  endfacet
  facet normal 0 0 1
    outer loop
      vertex -7.47414 0.478976 0.75
      vertex -12.5 3 0.75
      vertex -7.55 0 0.75
    endloop
  endfacet
  facet normal 0 0 1
    outer loop
      vertex -12.5 -3 0.75
      vertex -7.55 0 0.75
      vertex -12.5 3 0.75
    endloop
  endfacet
  facet normal 0 0 1
    outer loop
      vertex -5.52102 -1.47414 0.75
      vertex -10.5 -5 0.75
      vertex 10.5 -5 0.75
    endloop
  endfacet
  facet normal 0 0 1
    outer loop
      vertex -6.91107 -1.25398 0.75
      vertex -10.5 -5 0.75
      vertex -6.47898 -1.47414 0.75
    endloop
  endfacet
  facet normal 0 0 1
    outer loop
      vertex -7.25398 -0.911067 0.75
      vertex -10.5 -5 0.75
      vertex -6.91107 -1.25398 0.75
    endloop
  endfacet
  facet normal 0 0 1
    outer loop
      vertex -7.55 0 0.75
      vertex -12.5 -3 0.75
      vertex -7.47414 -0.478976 0.75
    endloop
  endfacet
  facet normal 0 0 1
    outer loop
      vertex -12.5 3 0.75
      vertex -10.5 5 0.75
      vertex -11.118 4.90211 0.75
    endloop
  endfacet
  facet normal 0 0 1
    outer loop
      vertex -7.47414 -0.478976 0.75
      vertex -12.5 -3 0.75
      vertex -7.25398 -0.911067 0.75
    endloop
  endfacet
  facet normal 0 0 1
    outer loop
      vertex -12.5 3 0.75
      vertex -11.118 4.90211 0.75
      vertex -11.6756 4.61803 0.75
    endloop
  endfacet
  facet normal 0 0 1
    outer loop
      vertex -7.25398 -0.911067 0.75
      vertex -12.5 -3 0.75
      vertex -10.5 -5 0.75
    endloop
  endfacet
  facet normal 0 0 1
    outer loop
      vertex -12.5 3 0.75
      vertex -11.6756 4.61803 0.75
      vertex -12.118 4.17557 0.75
    endloop
  endfacet
  facet normal 0 0 1
    outer loop
      vertex -10.5 -5 0.75
      vertex -12.5 -3 0.75
      vertex -11.118 -4.90211 0.75
    endloop
  endfacet
  facet normal 0 0 1
    outer loop
      vertex -12.5 3 0.75
      vertex -12.118 4.17557 0.75
      vertex -12.4021 3.61803 0.75
    endloop
  endfacet
  facet normal 0 0 1
    outer loop
      vertex -11.118 -4.90211 0.75
      vertex -12.5 -3 0.75
      vertex -11.6756 -4.61803 0.75
    endloop
  endfacet
  facet normal 0 0 1
    outer loop
      vertex -11.6756 -4.61803 0.75
      vertex -12.5 -3 0.75
      vertex -12.118 -4.17557 0.75
    endloop
  endfacet
  facet normal 0 0 1
    outer loop
      vertex -12.118 -4.17557 0.75
      vertex -12.5 -3 0.75
      vertex -12.4021 -3.61803 0.75
    endloop
  endfacet
  facet normal -0.987688 -0.156435 0
    outer loop
      vertex -12.4021 -3.61803 -0.75
      vertex -12.5 -3 0.75
      vertex -12.5 -3 -0.75
    endloop
  endfacet
  facet normal -0.987688 -0.156435 0
    outer loop
      vertex -12.5 -3 0.75
      vertex -12.4021 -3.61803 -0.75
      vertex -12.4021 -3.61803 0.75
    endloop
  endfacet
  facet normal -0.707107 -0.707107 0
    outer loop
      vertex -11.6756 -4.61803 -0.75
      vertex -12.118 -4.17557 0.75
      vertex -12.118 -4.17557 -0.75
    endloop
  endfacet
  facet normal -0.707107 -0.707107 0
    outer loop
      vertex -12.118 -4.17557 0.75
      vertex -11.6756 -4.61803 -0.75
      vertex -11.6756 -4.61803 0.75
    endloop
  endfacet
  facet normal -0.891006 -0.453991 0
    outer loop
      vertex -12.118 -4.17557 -0.75
      vertex -12.4021 -3.61803 0.75
      vertex -12.4021 -3.61803 -0.75
    endloop
  endfacet
  facet normal -0.891006 -0.453991 0
    outer loop
      vertex -12.4021 -3.61803 0.75
      vertex -12.118 -4.17557 -0.75
      vertex -12.118 -4.17557 0.75
    endloop
  endfacet
  facet normal -0.453991 -0.891006 0
    outer loop
      vertex -11.6756 -4.61803 -0.75
      vertex -11.118 -4.90211 0.75
      vertex -11.6756 -4.61803 0.75
    endloop
  endfacet
  facet normal -0.453991 -0.891006 -0
    outer loop
      vertex -11.118 -4.90211 0.75
      vertex -11.6756 -4.61803 -0.75
      vertex -11.118 -4.90211 -0.75
    endloop
  endfacet
  facet normal -0.987688 0.156435 0
    outer loop
      vertex -12.5 3 -0.75
      vertex -12.4021 3.61803 0.75
      vertex -12.4021 3.61803 -0.75
    endloop
  endfacet
  facet normal -0.987688 0.156435 0
    outer loop
      vertex -12.4021 3.61803 0.75
      vertex -12.5 3 -0.75
      vertex -12.5 3 0.75
    endloop
  endfacet
  facet normal -0.453991 0.891006 0
    outer loop
      vertex -11.118 4.90211 -0.75
      vertex -11.6756 4.61803 0.75
      vertex -11.118 4.90211 0.75
    endloop
  endfacet
  facet normal -0.453991 0.891006 0
    outer loop
      vertex -11.6756 4.61803 0.75
      vertex -11.118 4.90211 -0.75
      vertex -11.6756 4.61803 -0.75
    endloop
  endfacet
  facet normal -0.156435 0.987688 0
    outer loop
      vertex -10.5 5 -0.75
      vertex -11.118 4.90211 0.75
      vertex -10.5 5 0.75
    endloop
  endfacet
  facet normal -0.156435 0.987688 0
    outer loop
      vertex -11.118 4.90211 0.75
      vertex -10.5 5 -0.75
      vertex -11.118 4.90211 -0.75
    endloop
  endfacet
  facet normal -0.707107 0.707107 0
    outer loop
      vertex -12.118 4.17557 -0.75
      vertex -11.6756 4.61803 0.75
      vertex -11.6756 4.61803 -0.75
    endloop
  endfacet
  facet normal -0.707107 0.707107 0
    outer loop
      vertex -11.6756 4.61803 0.75
      vertex -12.118 4.17557 -0.75
      vertex -12.118 4.17557 0.75
    endloop
  endfacet
  facet normal -0.891006 0.453991 0
    outer loop
      vertex -12.4021 3.61803 -0.75
      vertex -12.118 4.17557 0.75
      vertex -12.118 4.17557 -0.75
    endloop
  endfacet
  facet normal -0.891006 0.453991 0
    outer loop
      vertex -12.118 4.17557 0.75
      vertex -12.4021 3.61803 -0.75
      vertex -12.4021 3.61803 0.75
    endloop
  endfacet
  facet normal 0.156435 -0.987688 0
    outer loop
      vertex 10.5 -5 -0.75
      vertex 11.118 -4.90211 0.75
      vertex 10.5 -5 0.75
    endloop
  endfacet
  facet normal 0.156435 -0.987688 0
    outer loop
      vertex 11.118 -4.90211 0.75
      vertex 10.5 -5 -0.75
      vertex 11.118 -4.90211 -0.75
    endloop
  endfacet
  facet normal 0.891006 -0.453991 0
    outer loop
      vertex 12.118 -4.17557 0.75
      vertex 12.4021 -3.61803 -0.75
      vertex 12.4021 -3.61803 0.75
    endloop
  endfacet
  facet normal 0.891006 -0.453991 0
    outer loop
      vertex 12.4021 -3.61803 -0.75
      vertex 12.118 -4.17557 0.75
      vertex 12.118 -4.17557 -0.75
    endloop
  endfacet
  facet normal 0.987688 -0.156435 0
    outer loop
      vertex 12.4021 -3.61803 0.75
      vertex 12.5 -3 -0.75
      vertex 12.5 -3 0.75
    endloop
  endfacet
  facet normal 0.987688 -0.156435 0
    outer loop
      vertex 12.5 -3 -0.75
      vertex 12.4021 -3.61803 0.75
      vertex 12.4021 -3.61803 -0.75
    endloop
  endfacet
  facet normal 0.453991 -0.891006 0
    outer loop
      vertex 11.118 -4.90211 -0.75
      vertex 11.6756 -4.61803 0.75
      vertex 11.118 -4.90211 0.75
    endloop
  endfacet
  facet normal 0.453991 -0.891006 0
    outer loop
      vertex 11.6756 -4.61803 0.75
      vertex 11.118 -4.90211 -0.75
      vertex 11.6756 -4.61803 -0.75
    endloop
  endfacet
  facet normal 0.707107 -0.707107 0
    outer loop
      vertex 11.6756 -4.61803 0.75
      vertex 12.118 -4.17557 -0.75
      vertex 12.118 -4.17557 0.75
    endloop
  endfacet
  facet normal 0.707107 -0.707107 0
    outer loop
      vertex 12.118 -4.17557 -0.75
      vertex 11.6756 -4.61803 0.75
      vertex 11.6756 -4.61803 -0.75
    endloop
  endfacet
  facet normal 0.987688 0.156435 0
    outer loop
      vertex 12.5 3 0.75
      vertex 12.4021 3.61803 -0.75
      vertex 12.4021 3.61803 0.75
    endloop
  endfacet
  facet normal 0.987688 0.156435 0
    outer loop
      vertex 12.4021 3.61803 -0.75
      vertex 12.5 3 0.75
      vertex 12.5 3 -0.75
    endloop
  endfacet
  facet normal 0.453991 0.891006 -0
    outer loop
      vertex 11.6756 4.61803 -0.75
      vertex 11.118 4.90211 0.75
      vertex 11.6756 4.61803 0.75
    endloop
  endfacet
  facet normal 0.453991 0.891006 0
    outer loop
      vertex 11.118 4.90211 0.75
      vertex 11.6756 4.61803 -0.75
      vertex 11.118 4.90211 -0.75
    endloop
  endfacet
  facet normal 0.891006 0.453991 0
    outer loop
      vertex 12.4021 3.61803 0.75
      vertex 12.118 4.17557 -0.75
      vertex 12.118 4.17557 0.75
    endloop
  endfacet
  facet normal 0.891006 0.453991 0
    outer loop
      vertex 12.118 4.17557 -0.75
      vertex 12.4021 3.61803 0.75
      vertex 12.4021 3.61803 -0.75
    endloop
  endfacet
  facet normal 0.156435 0.987688 -0
    outer loop
      vertex 11.118 4.90211 -0.75
      vertex 10.5 5 0.75
      vertex 11.118 4.90211 0.75
    endloop
  endfacet
  facet normal 0.156435 0.987688 0
    outer loop
      vertex 10.5 5 0.75
      vertex 11.118 4.90211 -0.75
      vertex 10.5 5 -0.75
    endloop
  endfacet
  facet normal 0.707107 0.707107 0
    outer loop
      vertex 12.118 4.17557 0.75
      vertex 11.6756 4.61803 -0.75
      vertex 11.6756 4.61803 0.75
    endloop
  endfacet
  facet normal 0.707107 0.707107 0
    outer loop
      vertex 11.6756 4.61803 -0.75
      vertex 12.118 4.17557 0.75
      vertex 12.118 4.17557 -0.75
    endloop
  endfacet
  facet normal 0 -1 0
    outer loop
      vertex -10.5 -5 -0.75
      vertex 10.5 -5 0.75
      vertex -10.5 -5 0.75
    endloop
  endfacet
  facet normal 0 -1 -0
    outer loop
      vertex 10.5 -5 0.75
      vertex -10.5 -5 -0.75
      vertex 10.5 -5 -0.75
    endloop
  endfacet
  facet normal 0 1 -0
    outer loop
      vertex 10.5 5 -0.75
      vertex -10.5 5 0.75
      vertex 10.5 5 0.75
    endloop
  endfacet
  facet normal 0 1 0
    outer loop
      vertex -10.5 5 0.75
      vertex 10.5 5 -0.75
      vertex -10.5 5 -0.75
    endloop
  endfacet
  facet normal -1 0 0
    outer loop
      vertex -12.5 -3 -0.75
      vertex -12.5 3 0.75
      vertex -12.5 3 -0.75
    endloop
  endfacet
  facet normal -1 -0 0
    outer loop
      vertex -12.5 3 0.75
      vertex -12.5 -3 -0.75
      vertex -12.5 -3 0.75
    endloop
  endfacet
  facet normal 1 -0 0
    outer loop
      vertex 12.5 -3 0.75
      vertex 12.5 3 -0.75
      vertex 12.5 3 0.75
    endloop
  endfacet
  facet normal 1 0 0
    outer loop
      vertex 12.5 3 -0.75
      vertex 12.5 -3 0.75
      vertex 12.5 -3 -0.75
    endloop
  endfacet
  facet normal -0.987688 -0.156434 0
    outer loop
      vertex -4.45 0 -0.75
      vertex -4.52586 0.478976 0.75
      vertex -4.52586 0.478976 -0.75
    endloop
  endfacet
  facet normal -0.987688 -0.156434 0
    outer loop
      vertex -4.52586 0.478976 0.75
      vertex -4.45 0 -0.75
      vertex -4.45 0 0.75
    endloop
  endfacet
  facet normal 0.987688 -0.156434 0
    outer loop
      vertex -7.55 0 0.75
      vertex -7.47414 0.478976 -0.75
      vertex -7.47414 0.478976 0.75
    endloop
  endfacet
  facet normal 0.987688 -0.156434 0
    outer loop
      vertex -7.47414 0.478976 -0.75
      vertex -7.55 0 0.75
      vertex -7.55 0 -0.75
    endloop
  endfacet
  facet normal 0.156434 -0.987688 0
    outer loop
      vertex -6.47898 1.47414 -0.75
      vertex -6 1.55 0.75
      vertex -6.47898 1.47414 0.75
    endloop
  endfacet
  facet normal 0.156434 -0.987688 0
    outer loop
      vertex -6 1.55 0.75
      vertex -6.47898 1.47414 -0.75
      vertex -6 1.55 -0.75
    endloop
  endfacet
  facet normal -0.156433 0.987689 0
    outer loop
      vertex -5.52102 -1.47414 -0.75
      vertex -6 -1.55 0.75
      vertex -5.52102 -1.47414 0.75
    endloop
  endfacet
  facet normal -0.156433 0.987689 0
    outer loop
      vertex -6 -1.55 0.75
      vertex -5.52102 -1.47414 -0.75
      vertex -6 -1.55 -0.75
    endloop
  endfacet
  facet normal -0.453991 0.891006 0
    outer loop
      vertex -5.08893 -1.25398 -0.75
      vertex -5.52102 -1.47414 0.75
      vertex -5.08893 -1.25398 0.75
    endloop
  endfacet
  facet normal -0.453991 0.891006 0
    outer loop
      vertex -5.52102 -1.47414 0.75
      vertex -5.08893 -1.25398 -0.75
      vertex -5.52102 -1.47414 -0.75
    endloop
  endfacet
  facet normal -0.453991 -0.891006 0
    outer loop
      vertex -5.52102 1.47414 -0.75
      vertex -5.08893 1.25398 0.75
      vertex -5.52102 1.47414 0.75
    endloop
  endfacet
  facet normal -0.453991 -0.891006 -0
    outer loop
      vertex -5.08893 1.25398 0.75
      vertex -5.52102 1.47414 -0.75
      vertex -5.08893 1.25398 -0.75
    endloop
  endfacet
  facet normal -0.891006 -0.453991 0
    outer loop
      vertex -4.52586 0.478976 -0.75
      vertex -4.74602 0.911067 0.75
      vertex -4.74602 0.911067 -0.75
    endloop
  endfacet
  facet normal -0.891006 -0.453991 0
    outer loop
      vertex -4.74602 0.911067 0.75
      vertex -4.52586 0.478976 -0.75
      vertex -4.52586 0.478976 0.75
    endloop
  endfacet
  facet normal -0.156433 -0.987689 0
    outer loop
      vertex -6 1.55 -0.75
      vertex -5.52102 1.47414 0.75
      vertex -6 1.55 0.75
    endloop
  endfacet
  facet normal -0.156433 -0.987689 -0
    outer loop
      vertex -5.52102 1.47414 0.75
      vertex -6 1.55 -0.75
      vertex -5.52102 1.47414 -0.75
    endloop
  endfacet
  facet normal 0.707107 -0.707107 0
    outer loop
      vertex -7.25398 0.911067 0.75
      vertex -6.91107 1.25398 -0.75
      vertex -6.91107 1.25398 0.75
    endloop
  endfacet
  facet normal 0.707107 -0.707107 0
    outer loop
      vertex -6.91107 1.25398 -0.75
      vertex -7.25398 0.911067 0.75
      vertex -7.25398 0.911067 -0.75
    endloop
  endfacet
  facet normal 0.891006 -0.453991 0
    outer loop
      vertex -7.47414 0.478976 0.75
      vertex -7.25398 0.911067 -0.75
      vertex -7.25398 0.911067 0.75
    endloop
  endfacet
  facet normal 0.891006 -0.453991 0
    outer loop
      vertex -7.25398 0.911067 -0.75
      vertex -7.47414 0.478976 0.75
      vertex -7.47414 0.478976 -0.75
    endloop
  endfacet
  facet normal 0.453991 -0.891006 0
    outer loop
      vertex -6.91107 1.25398 -0.75
      vertex -6.47898 1.47414 0.75
      vertex -6.91107 1.25398 0.75
    endloop
  endfacet
  facet normal 0.453991 -0.891006 0
    outer loop
      vertex -6.47898 1.47414 0.75
      vertex -6.91107 1.25398 -0.75
      vertex -6.47898 1.47414 -0.75
    endloop
  endfacet
  facet normal -0.707107 -0.707107 0
    outer loop
      vertex -4.74602 0.911067 -0.75
      vertex -5.08893 1.25398 0.75
      vertex -5.08893 1.25398 -0.75
    endloop
  endfacet
  facet normal -0.707107 -0.707107 0
    outer loop
      vertex -5.08893 1.25398 0.75
      vertex -4.74602 0.911067 -0.75
      vertex -4.74602 0.911067 0.75
    endloop
  endfacet
  facet normal -0.987688 0.156434 0
    outer loop
      vertex -4.52586 -0.478976 -0.75
      vertex -4.45 0 0.75
      vertex -4.45 0 -0.75
    endloop
  endfacet
  facet normal -0.987688 0.156434 0
    outer loop
      vertex -4.45 0 0.75
      vertex -4.52586 -0.478976 -0.75
      vertex -4.52586 -0.478976 0.75
    endloop
  endfacet
  facet normal 0.987688 0.156434 0
    outer loop
      vertex -7.47414 -0.478976 0.75
      vertex -7.55 0 -0.75
      vertex -7.55 0 0.75
    endloop
  endfacet
  facet normal 0.987688 0.156434 0
    outer loop
      vertex -7.55 0 -0.75
      vertex -7.47414 -0.478976 0.75
      vertex -7.47414 -0.478976 -0.75
    endloop
  endfacet
  facet normal -0.707107 0.707107 0
    outer loop
      vertex -5.08893 -1.25398 -0.75
      vertex -4.74602 -0.911067 0.75
      vertex -4.74602 -0.911067 -0.75
    endloop
  endfacet
  facet normal -0.707107 0.707107 0
    outer loop
      vertex -4.74602 -0.911067 0.75
      vertex -5.08893 -1.25398 -0.75
      vertex -5.08893 -1.25398 0.75
    endloop
  endfacet
  facet normal 0.891006 0.453991 0
    outer loop
      vertex -7.25398 -0.911067 0.75
      vertex -7.47414 -0.478976 -0.75
      vertex -7.47414 -0.478976 0.75
    endloop
  endfacet
  facet normal 0.891006 0.453991 0
    outer loop
      vertex -7.47414 -0.478976 -0.75
      vertex -7.25398 -0.911067 0.75
      vertex -7.25398 -0.911067 -0.75
    endloop
  endfacet
  facet normal -0.891006 0.453991 0
    outer loop
      vertex -4.74602 -0.911067 -0.75
      vertex -4.52586 -0.478976 0.75
      vertex -4.52586 -0.478976 -0.75
    endloop
  endfacet
  facet normal -0.891006 0.453991 0
    outer loop
      vertex -4.52586 -0.478976 0.75
      vertex -4.74602 -0.911067 -0.75
      vertex -4.74602 -0.911067 0.75
    endloop
  endfacet
  facet normal 0.156434 0.987688 -0
    outer loop
      vertex -6 -1.55 -0.75
      vertex -6.47898 -1.47414 0.75
      vertex -6 -1.55 0.75
    endloop
  endfacet
  facet normal 0.156434 0.987688 0
    outer loop
      vertex -6.47898 -1.47414 0.75
      vertex -6 -1.55 -0.75
      vertex -6.47898 -1.47414 -0.75
    endloop
  endfacet
  facet normal 0.707107 0.707107 0
    outer loop
      vertex -6.91107 -1.25398 0.75
      vertex -7.25398 -0.911067 -0.75
      vertex -7.25398 -0.911067 0.75
    endloop
  endfacet
  facet normal 0.707107 0.707107 0
    outer loop
      vertex -7.25398 -0.911067 -0.75
      vertex -6.91107 -1.25398 0.75
      vertex -6.91107 -1.25398 -0.75
    endloop
  endfacet
  facet normal 0.453991 0.891006 -0
    outer loop
      vertex -6.47898 -1.47414 -0.75
      vertex -6.91107 -1.25398 0.75
      vertex -6.47898 -1.47414 0.75
    endloop
  endfacet
  facet normal 0.453991 0.891006 0
    outer loop
      vertex -6.91107 -1.25398 0.75
      vertex -6.47898 -1.47414 -0.75
      vertex -6.91107 -1.25398 -0.75
    endloop
  endfacet
  facet normal -0.987688 -0.156434 0
    outer loop
      vertex 7.55 0 -0.75
      vertex 7.47414 0.478976 0.75
      vertex 7.47414 0.478976 -0.75
    endloop
  endfacet
  facet normal -0.987688 -0.156434 0
    outer loop
      vertex 7.47414 0.478976 0.75
      vertex 7.55 0 -0.75
      vertex 7.55 0 0.75
    endloop
  endfacet
  facet normal 0.987688 -0.156434 0
    outer loop
      vertex 4.45 0 0.75
      vertex 4.52586 0.478976 -0.75
      vertex 4.52586 0.478976 0.75
    endloop
  endfacet
  facet normal 0.987688 -0.156434 0
    outer loop
      vertex 4.52586 0.478976 -0.75
      vertex 4.45 0 0.75
      vertex 4.45 0 -0.75
    endloop
  endfacet
  facet normal 0.156433 -0.987689 0
    outer loop
      vertex 5.52102 1.47414 -0.75
      vertex 6 1.55 0.75
      vertex 5.52102 1.47414 0.75
    endloop
  endfacet
  facet normal 0.156433 -0.987689 0
    outer loop
      vertex 6 1.55 0.75
      vertex 5.52102 1.47414 -0.75
      vertex 6 1.55 -0.75
    endloop
  endfacet
  facet normal -0.156434 0.987688 0
    outer loop
      vertex 6.47898 -1.47414 -0.75
      vertex 6 -1.55 0.75
      vertex 6.47898 -1.47414 0.75
    endloop
  endfacet
  facet normal -0.156434 0.987688 0
    outer loop
      vertex 6 -1.55 0.75
      vertex 6.47898 -1.47414 -0.75
      vertex 6 -1.55 -0.75
    endloop
  endfacet
  facet normal -0.453991 0.891006 0
    outer loop
      vertex 6.91107 -1.25398 -0.75
      vertex 6.47898 -1.47414 0.75
      vertex 6.91107 -1.25398 0.75
    endloop
  endfacet
  facet normal -0.453991 0.891006 0
    outer loop
      vertex 6.47898 -1.47414 0.75
      vertex 6.91107 -1.25398 -0.75
      vertex 6.47898 -1.47414 -0.75
    endloop
  endfacet
  facet normal -0.453991 -0.891006 0
    outer loop
      vertex 6.47898 1.47414 -0.75
      vertex 6.91107 1.25398 0.75
      vertex 6.47898 1.47414 0.75
    endloop
  endfacet
  facet normal -0.453991 -0.891006 -0
    outer loop
      vertex 6.91107 1.25398 0.75
      vertex 6.47898 1.47414 -0.75
      vertex 6.91107 1.25398 -0.75
    endloop
  endfacet
  facet normal -0.891006 -0.453991 0
    outer loop
      vertex 7.47414 0.478976 -0.75
      vertex 7.25398 0.911067 0.75
      vertex 7.25398 0.911067 -0.75
    endloop
  endfacet
  facet normal -0.891006 -0.453991 0
    outer loop
      vertex 7.25398 0.911067 0.75
      vertex 7.47414 0.478976 -0.75
      vertex 7.47414 0.478976 0.75
    endloop
  endfacet
  facet normal -0.156434 -0.987688 0
    outer loop
      vertex 6 1.55 -0.75
      vertex 6.47898 1.47414 0.75
      vertex 6 1.55 0.75
    endloop
  endfacet
  facet normal -0.156434 -0.987688 -0
    outer loop
      vertex 6.47898 1.47414 0.75
      vertex 6 1.55 -0.75
      vertex 6.47898 1.47414 -0.75
    endloop
  endfacet
  facet normal 0.707107 -0.707107 0
    outer loop
      vertex 4.74602 0.911067 0.75
      vertex 5.08893 1.25398 -0.75
      vertex 5.08893 1.25398 0.75
    endloop
  endfacet
  facet normal 0.707107 -0.707107 0
    outer loop
      vertex 5.08893 1.25398 -0.75
      vertex 4.74602 0.911067 0.75
      vertex 4.74602 0.911067 -0.75
    endloop
  endfacet
  facet normal 0.891006 -0.453991 0
    outer loop
      vertex 4.52586 0.478976 0.75
      vertex 4.74602 0.911067 -0.75
      vertex 4.74602 0.911067 0.75
    endloop
  endfacet
  facet normal 0.891006 -0.453991 0
    outer loop
      vertex 4.74602 0.911067 -0.75
      vertex 4.52586 0.478976 0.75
      vertex 4.52586 0.478976 -0.75
    endloop
  endfacet
  facet normal 0.453991 -0.891006 0
    outer loop
      vertex 5.08893 1.25398 -0.75
      vertex 5.52102 1.47414 0.75
      vertex 5.08893 1.25398 0.75
    endloop
  endfacet
  facet normal 0.453991 -0.891006 0
    outer loop
      vertex 5.52102 1.47414 0.75
      vertex 5.08893 1.25398 -0.75
      vertex 5.52102 1.47414 -0.75
    endloop
  endfacet
  facet normal -0.707107 -0.707107 0
    outer loop
      vertex 7.25398 0.911067 -0.75
      vertex 6.91107 1.25398 0.75
      vertex 6.91107 1.25398 -0.75
    endloop
  endfacet
  facet normal -0.707107 -0.707107 0
    outer loop
      vertex 6.91107 1.25398 0.75
      vertex 7.25398 0.911067 -0.75
      vertex 7.25398 0.911067 0.75
    endloop
  endfacet
  facet normal -0.987688 0.156434 0
    outer loop
      vertex 7.47414 -0.478976 -0.75
      vertex 7.55 0 0.75
      vertex 7.55 0 -0.75
    endloop
  endfacet
  facet normal -0.987688 0.156434 0
    outer loop
      vertex 7.55 0 0.75
      vertex 7.47414 -0.478976 -0.75
      vertex 7.47414 -0.478976 0.75
    endloop
  endfacet
  facet normal -0.707107 0.707107 0
    outer loop
      vertex 6.91107 -1.25398 -0.75
      vertex 7.25398 -0.911067 0.75
      vertex 7.25398 -0.911067 -0.75
    endloop
  endfacet
  facet normal -0.707107 0.707107 0
    outer loop
      vertex 7.25398 -0.911067 0.75
      vertex 6.91107 -1.25398 -0.75
      vertex 6.91107 -1.25398 0.75
    endloop
  endfacet
  facet normal 0.453991 0.891006 -0
    outer loop
      vertex 5.52102 -1.47414 -0.75
      vertex 5.08893 -1.25398 0.75
      vertex 5.52102 -1.47414 0.75
    endloop
  endfacet
  facet normal 0.453991 0.891006 0
    outer loop
      vertex 5.08893 -1.25398 0.75
      vertex 5.52102 -1.47414 -0.75
      vertex 5.08893 -1.25398 -0.75
    endloop
  endfacet
  facet normal 0.891006 0.453991 0
    outer loop
      vertex 4.74602 -0.911067 0.75
      vertex 4.52586 -0.478976 -0.75
      vertex 4.52586 -0.478976 0.75
    endloop
  endfacet
  facet normal 0.891006 0.453991 0
    outer loop
      vertex 4.52586 -0.478976 -0.75
      vertex 4.74602 -0.911067 0.75
      vertex 4.74602 -0.911067 -0.75
    endloop
  endfacet
  facet normal 0.987688 0.156434 0
    outer loop
      vertex 4.52586 -0.478976 0.75
      vertex 4.45 0 -0.75
      vertex 4.45 0 0.75
    endloop
  endfacet
  facet normal 0.987688 0.156434 0
    outer loop
      vertex 4.45 0 -0.75
      vertex 4.52586 -0.478976 0.75
      vertex 4.52586 -0.478976 -0.75
    endloop
  endfacet
  facet normal 0.707107 0.707107 0
    outer loop
      vertex 5.08893 -1.25398 0.75
      vertex 4.74602 -0.911067 -0.75
      vertex 4.74602 -0.911067 0.75
    endloop
  endfacet
  facet normal 0.707107 0.707107 0
    outer loop
      vertex 4.74602 -0.911067 -0.75
      vertex 5.08893 -1.25398 0.75
      vertex 5.08893 -1.25398 -0.75
    endloop
  endfacet
  facet normal -0.891006 0.453991 0
    outer loop
      vertex 7.25398 -0.911067 -0.75
      vertex 7.47414 -0.478976 0.75
      vertex 7.47414 -0.478976 -0.75
    endloop
  endfacet
  facet normal -0.891006 0.453991 0
    outer loop
      vertex 7.47414 -0.478976 0.75
      vertex 7.25398 -0.911067 -0.75
      vertex 7.25398 -0.911067 0.75
    endloop
  endfacet
  facet normal 0.156433 0.987689 -0
    outer loop
      vertex 6 -1.55 -0.75
      vertex 5.52102 -1.47414 0.75
      vertex 6 -1.55 0.75
    endloop
  endfacet
  facet normal 0.156433 0.987689 0
    outer loop
      vertex 5.52102 -1.47414 0.75
      vertex 6 -1.55 -0.75
      vertex 5.52102 -1.47414 -0.75
    endloop
  endfacet
endsolid OpenSCAD_Model
