solid OpenSCAD_Model
  facet normal -0.0784609 -0.996917 0
    outer loop
      vertex -57.4693 -9.96306 -3
      vertex -57 -10 3
      vertex -57.4693 -9.96306 3
    endloop
  endfacet
  facet normal -0.0784609 -0.996917 -0
    outer loop
      vertex -57 -10 3
      vertex -57.4693 -9.96306 -3
      vertex -57 -10 -3
    endloop
  endfacet
  facet normal 0 0 1
    outer loop
      vertex 57 10 3
      vertex 60 7 3
      vertex 59.9631 7.4693 3
    endloop
  endfacet
  facet normal 0 0 1
    outer loop
      vertex 60 7 3
      vertex 54.9 0 3
      vertex 60 -7 3
    endloop
  endfacet
  facet normal 0 0 1
    outer loop
      vertex 57 10 3
      vertex 59.9631 7.4693 3
      vertex 59.8532 7.92705 3
    endloop
  endfacet
  facet normal -0 0 1
    outer loop
      vertex 54.8366 -0.602943 3
      vertex 60 -7 3
      vertex 54.9 0 3
    endloop
  endfacet
  facet normal 0 0 1
    outer loop
      vertex 57 10 3
      vertex 59.8532 7.92705 3
      vertex 59.673 8.36197 3
    endloop
  endfacet
  facet normal -0 0 1
    outer loop
      vertex 54.6493 -1.17954 3
      vertex 60 -7 3
      vertex 54.8366 -0.602943 3
    endloop
  endfacet
  facet normal 0 0 1
    outer loop
      vertex 57 10 3
      vertex 59.673 8.36197 3
      vertex 59.4271 8.76336 3
    endloop
  endfacet
  facet normal -0 0 1
    outer loop
      vertex 54.3461 -1.70458 3
      vertex 60 -7 3
      vertex 54.6493 -1.17954 3
    endloop
  endfacet
  facet normal 0 0 1
    outer loop
      vertex 57 10 3
      vertex 59.4271 8.76336 3
      vertex 59.1213 9.12132 3
    endloop
  endfacet
  facet normal -0 0 1
    outer loop
      vertex 53.9405 -2.15512 3
      vertex 60 -7 3
      vertex 54.3461 -1.70458 3
    endloop
  endfacet
  facet normal 0 0 1
    outer loop
      vertex 57 10 3
      vertex 59.1213 9.12132 3
      vertex 58.7634 9.42705 3
    endloop
  endfacet
  facet normal -0 0 1
    outer loop
      vertex 53.45 -2.51147 3
      vertex 60 -7 3
      vertex 53.9405 -2.15512 3
    endloop
  endfacet
  facet normal 0 0 1
    outer loop
      vertex 57 10 3
      vertex 58.7634 9.42705 3
      vertex 58.362 9.67302 3
    endloop
  endfacet
  facet normal 0 -0 1
    outer loop
      vertex 57 -10 3
      vertex 60 -7 3
      vertex 53.45 -2.51147 3
    endloop
  endfacet
  facet normal 0 0 1
    outer loop
      vertex 57 10 3
      vertex 58.362 9.67302 3
      vertex 57.9271 9.85317 3
    endloop
  endfacet
  facet normal 0 0 1
    outer loop
      vertex 60 -7 3
      vertex 57 -10 3
      vertex 59.9631 -7.4693 3
    endloop
  endfacet
  facet normal 0 0 1
    outer loop
      vertex 57 10 3
      vertex 57.9271 9.85317 3
      vertex 57.4693 9.96306 3
    endloop
  endfacet
  facet normal 0 0 1
    outer loop
      vertex 59.8532 -7.92705 3
      vertex 57 -10 3
      vertex 59.673 -8.36197 3
    endloop
  endfacet
  facet normal 0 0 1
    outer loop
      vertex 60 7 3
      vertex 57 10 3
      vertex 53.45 2.51147 3
    endloop
  endfacet
  facet normal 0 0 1
    outer loop
      vertex 59.673 -8.36197 3
      vertex 57 -10 3
      vertex 59.4271 -8.76336 3
    endloop
  endfacet
  facet normal 0 0 1
    outer loop
      vertex 59.4271 -8.76336 3
      vertex 57 -10 3
      vertex 59.1213 -9.12132 3
    endloop
  endfacet
  facet normal 0 0 1
    outer loop
      vertex 60 7 3
      vertex 54.8366 0.602943 3
      vertex 54.9 0 3
    endloop
  endfacet
  facet normal 0 0 1
    outer loop
      vertex 60 7 3
      vertex 54.6493 1.17954 3
      vertex 54.8366 0.602943 3
    endloop
  endfacet
  facet normal 0 0 1
    outer loop
      vertex 60 7 3
      vertex 54.3461 1.70458 3
      vertex 54.6493 1.17954 3
    endloop
  endfacet
  facet normal 0 0 1
    outer loop
      vertex 60 7 3
      vertex 53.9405 2.15512 3
      vertex 54.3461 1.70458 3
    endloop
  endfacet
  facet normal 0 0 1
    outer loop
      vertex 60 7 3
      vertex 53.45 2.51147 3
      vertex 53.9405 2.15512 3
    endloop
  endfacet
  facet normal 0 0 1
    outer loop
      vertex 57 10 3
      vertex 52.8961 2.75806 3
      vertex 53.45 2.51147 3
    endloop
  endfacet
  facet normal 0 0 1
    outer loop
      vertex 57 10 3
      vertex 52.3031 2.88411 3
      vertex 52.8961 2.75806 3
    endloop
  endfacet
  facet normal 0 0 1
    outer loop
      vertex 57 10 3
      vertex 51.6969 2.88411 3
      vertex 52.3031 2.88411 3
    endloop
  endfacet
  facet normal 0 0 1
    outer loop
      vertex 57 10 3
      vertex 51.1039 2.75806 3
      vertex 51.6969 2.88411 3
    endloop
  endfacet
  facet normal 0 0 1
    outer loop
      vertex 57 10 3
      vertex 50.55 2.51147 3
      vertex 51.1039 2.75806 3
    endloop
  endfacet
  facet normal 0 0 1
    outer loop
      vertex 57 10 3
      vertex 50.0595 2.15512 3
      vertex 50.55 2.51147 3
    endloop
  endfacet
  facet normal -0 0 1
    outer loop
      vertex 4.38406 4.38406 3
      vertex 50.0595 2.15512 3
      vertex 57 10 3
    endloop
  endfacet
  facet normal 0 0 1
    outer loop
      vertex 6.12367 0.969893 3
      vertex 49.1 0 3
      vertex 49.1634 0.602943 3
    endloop
  endfacet
  facet normal 0 0 1
    outer loop
      vertex 5.89655 1.9159 3
      vertex 49.1634 0.602943 3
      vertex 49.3507 1.17954 3
    endloop
  endfacet
  facet normal 0 0 1
    outer loop
      vertex 5.52424 2.81474 3
      vertex 49.3507 1.17954 3
      vertex 49.6539 1.70458 3
    endloop
  endfacet
  facet normal -0 -0 1
    outer loop
      vertex 5.0159 3.64427 3
      vertex 50.0595 2.15512 3
      vertex 4.38406 4.38406 3
    endloop
  endfacet
  facet normal 0 0 1
    outer loop
      vertex 49.1 0 3
      vertex 6.12367 0.969893 3
      vertex 6.2 0 3
    endloop
  endfacet
  facet normal 0 0 1
    outer loop
      vertex 49.1634 0.602943 3
      vertex 5.89655 1.9159 3
      vertex 6.12367 0.969893 3
    endloop
  endfacet
  facet normal 0 0 1
    outer loop
      vertex 49.3507 1.17954 3
      vertex 5.52424 2.81474 3
      vertex 5.89655 1.9159 3
    endloop
  endfacet
  facet normal 0 0 1
    outer loop
      vertex 49.6539 1.70458 3
      vertex 5.0159 3.64427 3
      vertex 5.52424 2.81474 3
    endloop
  endfacet
  facet normal 0 0 1
    outer loop
      vertex 50.0595 2.15512 3
      vertex 5.0159 3.64427 3
      vertex 49.6539 1.70458 3
    endloop
  endfacet
  facet normal 0 0 1
    outer loop
      vertex 57 10 3
      vertex 3.64427 5.0159 3
      vertex 4.38406 4.38406 3
    endloop
  endfacet
  facet normal 0 0 1
    outer loop
      vertex 57 10 3
      vertex 2.81474 5.52424 3
      vertex 3.64427 5.0159 3
    endloop
  endfacet
  facet normal 0 0 1
    outer loop
      vertex 57 10 3
      vertex 1.9159 5.89655 3
      vertex 2.81474 5.52424 3
    endloop
  endfacet
  facet normal 0 0 1
    outer loop
      vertex 57 10 3
      vertex 0.969893 6.12367 3
      vertex 1.9159 5.89655 3
    endloop
  endfacet
  facet normal 0 0 1
    outer loop
      vertex 57 10 3
      vertex 0 6.2 3
      vertex 0.969893 6.12367 3
    endloop
  endfacet
  facet normal 0 0 1
    outer loop
      vertex -49.1634 -0.602943 3
      vertex -6.2 0 3
      vertex -49.1 0 3
    endloop
  endfacet
  facet normal 0 0 1
    outer loop
      vertex -6.12367 0.969893 3
      vertex -49.1 0 3
      vertex -6.2 0 3
    endloop
  endfacet
  facet normal 0 0 1
    outer loop
      vertex -49.1634 0.602943 3
      vertex -6.12367 0.969893 3
      vertex -5.89655 1.9159 3
    endloop
  endfacet
  facet normal 0 0 1
    outer loop
      vertex -49.3507 1.17954 3
      vertex -5.89655 1.9159 3
      vertex -5.52424 2.81474 3
    endloop
  endfacet
  facet normal 0 0 1
    outer loop
      vertex -49.6539 1.70458 3
      vertex -5.52424 2.81474 3
      vertex -5.0159 3.64427 3
    endloop
  endfacet
  facet normal 0 0 1
    outer loop
      vertex -50.0595 2.15512 3
      vertex -5.0159 3.64427 3
      vertex -4.38406 4.38406 3
    endloop
  endfacet
  facet normal 0 0 1
    outer loop
      vertex -57 10 3
      vertex -4.38406 4.38406 3
      vertex -3.64427 5.0159 3
    endloop
  endfacet
  facet normal 0 0 1
    outer loop
      vertex -57 10 3
      vertex -3.64427 5.0159 3
      vertex -2.81474 5.52424 3
    endloop
  endfacet
  facet normal 0 0 1
    outer loop
      vertex -57 10 3
      vertex -2.81474 5.52424 3
      vertex -1.9159 5.89655 3
    endloop
  endfacet
  facet normal 0 0 1
    outer loop
      vertex -57 10 3
      vertex -1.9159 5.89655 3
      vertex -0.969893 6.12367 3
    endloop
  endfacet
  facet normal 0 0 1
    outer loop
      vertex -6.12367 0.969893 3
      vertex -49.1634 0.602943 3
      vertex -49.1 0 3
    endloop
  endfacet
  facet normal 0 0 1
    outer loop
      vertex -5.89655 1.9159 3
      vertex -49.3507 1.17954 3
      vertex -49.1634 0.602943 3
    endloop
  endfacet
  facet normal 0 0 1
    outer loop
      vertex -5.52424 2.81474 3
      vertex -49.6539 1.70458 3
      vertex -49.3507 1.17954 3
    endloop
  endfacet
  facet normal 0 0 1
    outer loop
      vertex -5.0159 3.64427 3
      vertex -50.0595 2.15512 3
      vertex -49.6539 1.70458 3
    endloop
  endfacet
  facet normal 0 0 1
    outer loop
      vertex -4.38406 4.38406 3
      vertex -57 10 3
      vertex -50.0595 2.15512 3
    endloop
  endfacet
  facet normal 0 0 1
    outer loop
      vertex -57 10 3
      vertex -0.969893 6.12367 3
      vertex 0 6.2 3
    endloop
  endfacet
  facet normal 0 0 1
    outer loop
      vertex -50.0595 2.15512 3
      vertex -57 10 3
      vertex -50.55 2.51147 3
    endloop
  endfacet
  facet normal 0 0 1
    outer loop
      vertex -50.55 2.51147 3
      vertex -57 10 3
      vertex -51.1039 2.75806 3
    endloop
  endfacet
  facet normal -0 0 1
    outer loop
      vertex -57 10 3
      vertex 0 6.2 3
      vertex 57 10 3
    endloop
  endfacet
  facet normal 0 0 1
    outer loop
      vertex -51.1039 2.75806 3
      vertex -57 10 3
      vertex -51.6969 2.88411 3
    endloop
  endfacet
  facet normal 0 0 1
    outer loop
      vertex -54.6493 1.17954 3
      vertex -60 7 3
      vertex -54.8366 0.602943 3
    endloop
  endfacet
  facet normal 0 0 1
    outer loop
      vertex -54.3461 1.70458 3
      vertex -60 7 3
      vertex -54.6493 1.17954 3
    endloop
  endfacet
  facet normal 0 0 1
    outer loop
      vertex -53.9405 2.15512 3
      vertex -60 7 3
      vertex -54.3461 1.70458 3
    endloop
  endfacet
  facet normal 0 0 1
    outer loop
      vertex -53.45 2.51147 3
      vertex -60 7 3
      vertex -53.9405 2.15512 3
    endloop
  endfacet
  facet normal -0 0 1
    outer loop
      vertex -60 7 3
      vertex -53.45 2.51147 3
      vertex -57 10 3
    endloop
  endfacet
  facet normal 0 0 1
    outer loop
      vertex -52.8961 2.75806 3
      vertex -57 10 3
      vertex -53.45 2.51147 3
    endloop
  endfacet
  facet normal 0 0 1
    outer loop
      vertex -52.3031 2.88411 3
      vertex -57 10 3
      vertex -52.8961 2.75806 3
    endloop
  endfacet
  facet normal 0 0 1
    outer loop
      vertex -51.6969 2.88411 3
      vertex -57 10 3
      vertex -52.3031 2.88411 3
    endloop
  endfacet
  facet normal 0 0 1
    outer loop
      vertex 59.1213 -9.12132 3
      vertex 57 -10 3
      vertex 58.7634 -9.42705 3
    endloop
  endfacet
  facet normal 0 0 1
    outer loop
      vertex 58.7634 -9.42705 3
      vertex 57 -10 3
      vertex 58.362 -9.67302 3
    endloop
  endfacet
  facet normal 0 0 1
    outer loop
      vertex 58.362 -9.67302 3
      vertex 57 -10 3
      vertex 57.9271 -9.85317 3
    endloop
  endfacet
  facet normal 0 0 1
    outer loop
      vertex 57.9271 -9.85317 3
      vertex 57 -10 3
      vertex 57.4693 -9.96306 3
    endloop
  endfacet
  facet normal 0 0 1
    outer loop
      vertex 59.9631 -7.4693 3
      vertex 57 -10 3
      vertex 59.8532 -7.92705 3
    endloop
  endfacet
  facet normal -0 0 1
    outer loop
      vertex 52.8961 -2.75806 3
      vertex 57 -10 3
      vertex 53.45 -2.51147 3
    endloop
  endfacet
  facet normal -0 0 1
    outer loop
      vertex 52.3031 -2.88411 3
      vertex 57 -10 3
      vertex 52.8961 -2.75806 3
    endloop
  endfacet
  facet normal -0 0 1
    outer loop
      vertex 51.6969 -2.88411 3
      vertex 57 -10 3
      vertex 52.3031 -2.88411 3
    endloop
  endfacet
  facet normal 0 0 1
    outer loop
      vertex 51.1039 -2.75806 3
      vertex 57 -10 3
      vertex 51.6969 -2.88411 3
    endloop
  endfacet
  facet normal 0 0 1
    outer loop
      vertex 50.55 -2.51147 3
      vertex 57 -10 3
      vertex 51.1039 -2.75806 3
    endloop
  endfacet
  facet normal 0 0 1
    outer loop
      vertex 50.0595 -2.15512 3
      vertex 57 -10 3
      vertex 50.55 -2.51147 3
    endloop
  endfacet
  facet normal 0 0 1
    outer loop
      vertex 6.2 -10 3
      vertex 50.0595 -2.15512 3
      vertex 49.6539 -1.70458 3
    endloop
  endfacet
  facet normal -0 0 1
    outer loop
      vertex 6.2 0 3
      vertex 49.1634 -0.602943 3
      vertex 49.1 0 3
    endloop
  endfacet
  facet normal 0 0 1
    outer loop
      vertex 6.2 -10 3
      vertex 49.1634 -0.602943 3
      vertex 6.2 0 3
    endloop
  endfacet
  facet normal 0 0 1
    outer loop
      vertex 49.1634 -0.602943 3
      vertex 6.2 -10 3
      vertex 49.3507 -1.17954 3
    endloop
  endfacet
  facet normal 0 0 1
    outer loop
      vertex 49.3507 -1.17954 3
      vertex 6.2 -10 3
      vertex 49.6539 -1.70458 3
    endloop
  endfacet
  facet normal 0 0 1
    outer loop
      vertex 50.0595 -2.15512 3
      vertex 6.2 -10 3
      vertex 57 -10 3
    endloop
  endfacet
  facet normal 0 0 1
    outer loop
      vertex -6.2 0 3
      vertex -49.1634 -0.602943 3
      vertex -6.2 -10 3
    endloop
  endfacet
  facet normal -0 0 1
    outer loop
      vertex -49.3507 -1.17954 3
      vertex -6.2 -10 3
      vertex -49.1634 -0.602943 3
    endloop
  endfacet
  facet normal -0 0 1
    outer loop
      vertex -49.6539 -1.70458 3
      vertex -6.2 -10 3
      vertex -49.3507 -1.17954 3
    endloop
  endfacet
  facet normal -0 0 1
    outer loop
      vertex -50.0595 -2.15512 3
      vertex -6.2 -10 3
      vertex -49.6539 -1.70458 3
    endloop
  endfacet
  facet normal 0 0 1
    outer loop
      vertex -57 -10 3
      vertex -50.0595 -2.15512 3
      vertex -50.55 -2.51147 3
    endloop
  endfacet
  facet normal 0 0 1
    outer loop
      vertex -57 -10 3
      vertex -50.55 -2.51147 3
      vertex -51.1039 -2.75806 3
    endloop
  endfacet
  facet normal 0 0 1
    outer loop
      vertex -57 -10 3
      vertex -51.1039 -2.75806 3
      vertex -51.6969 -2.88411 3
    endloop
  endfacet
  facet normal 0 0 1
    outer loop
      vertex -57 -10 3
      vertex -51.6969 -2.88411 3
      vertex -52.3031 -2.88411 3
    endloop
  endfacet
  facet normal 0 0 1
    outer loop
      vertex -54.8366 0.602943 3
      vertex -60 7 3
      vertex -54.9 0 3
    endloop
  endfacet
  facet normal 0 0 1
    outer loop
      vertex -50.0595 -2.15512 3
      vertex -57 -10 3
      vertex -6.2 -10 3
    endloop
  endfacet
  facet normal 0 0 1
    outer loop
      vertex -52.8961 -2.75806 3
      vertex -57 -10 3
      vertex -52.3031 -2.88411 3
    endloop
  endfacet
  facet normal 0 0 1
    outer loop
      vertex -53.45 -2.51147 3
      vertex -57 -10 3
      vertex -52.8961 -2.75806 3
    endloop
  endfacet
  facet normal 0 0 1
    outer loop
      vertex -60 -7 3
      vertex -53.45 -2.51147 3
      vertex -53.9405 -2.15512 3
    endloop
  endfacet
  facet normal 0 0 1
    outer loop
      vertex -60 -7 3
      vertex -53.9405 -2.15512 3
      vertex -54.3461 -1.70458 3
    endloop
  endfacet
  facet normal 0 0 1
    outer loop
      vertex -60 -7 3
      vertex -54.3461 -1.70458 3
      vertex -54.6493 -1.17954 3
    endloop
  endfacet
  facet normal 0 0 1
    outer loop
      vertex -60 -7 3
      vertex -54.6493 -1.17954 3
      vertex -54.8366 -0.602943 3
    endloop
  endfacet
  facet normal 0 0 1
    outer loop
      vertex -60 -7 3
      vertex -54.9 0 3
      vertex -60 7 3
    endloop
  endfacet
  facet normal 0 0 1
    outer loop
      vertex -60 7 3
      vertex -57 10 3
      vertex -57.4693 9.96306 3
    endloop
  endfacet
  facet normal 0 0 1
    outer loop
      vertex -54.9 0 3
      vertex -60 -7 3
      vertex -54.8366 -0.602943 3
    endloop
  endfacet
  facet normal 0 0 1
    outer loop
      vertex -60 7 3
      vertex -57.4693 9.96306 3
      vertex -57.9271 9.85317 3
    endloop
  endfacet
  facet normal 0 0 1
    outer loop
      vertex -53.45 -2.51147 3
      vertex -60 -7 3
      vertex -57 -10 3
    endloop
  endfacet
  facet normal 0 0 1
    outer loop
      vertex -60 7 3
      vertex -57.9271 9.85317 3
      vertex -58.362 9.67302 3
    endloop
  endfacet
  facet normal 0 0 1
    outer loop
      vertex -57 -10 3
      vertex -60 -7 3
      vertex -57.4693 -9.96306 3
    endloop
  endfacet
  facet normal 0 0 1
    outer loop
      vertex -60 7 3
      vertex -58.362 9.67302 3
      vertex -58.7634 9.42705 3
    endloop
  endfacet
  facet normal 0 0 1
    outer loop
      vertex -57.4693 -9.96306 3
      vertex -60 -7 3
      vertex -57.9271 -9.85317 3
    endloop
  endfacet
  facet normal 0 0 1
    outer loop
      vertex -60 7 3
      vertex -58.7634 9.42705 3
      vertex -59.1213 9.12132 3
    endloop
  endfacet
  facet normal 0 0 1
    outer loop
      vertex -57.9271 -9.85317 3
      vertex -60 -7 3
      vertex -58.362 -9.67302 3
    endloop
  endfacet
  facet normal 0 0 1
    outer loop
      vertex -60 7 3
      vertex -59.1213 9.12132 3
      vertex -59.4271 8.76336 3
    endloop
  endfacet
  facet normal 0 0 1
    outer loop
      vertex -58.362 -9.67302 3
      vertex -60 -7 3
      vertex -58.7634 -9.42705 3
    endloop
  endfacet
  facet normal 0 0 1
    outer loop
      vertex -60 7 3
      vertex -59.4271 8.76336 3
      vertex -59.673 8.36197 3
    endloop
  endfacet
  facet normal 0 0 1
    outer loop
      vertex -58.7634 -9.42705 3
      vertex -60 -7 3
      vertex -59.1213 -9.12132 3
    endloop
  endfacet
  facet normal 0 0 1
    outer loop
      vertex -60 7 3
      vertex -59.673 8.36197 3
      vertex -59.8532 7.92705 3
    endloop
  endfacet
  facet normal 0 0 1
    outer loop
      vertex -59.1213 -9.12132 3
      vertex -60 -7 3
      vertex -59.4271 -8.76336 3
    endloop
  endfacet
  facet normal 0 0 1
    outer loop
      vertex -60 7 3
      vertex -59.8532 7.92705 3
      vertex -59.9631 7.4693 3
    endloop
  endfacet
  facet normal 0 0 1
    outer loop
      vertex -59.4271 -8.76336 3
      vertex -60 -7 3
      vertex -59.673 -8.36197 3
    endloop
  endfacet
  facet normal 0 0 1
    outer loop
      vertex -59.673 -8.36197 3
      vertex -60 -7 3
      vertex -59.8532 -7.92705 3
    endloop
  endfacet
  facet normal 0 0 1
    outer loop
      vertex -59.8532 -7.92705 3
      vertex -60 -7 3
      vertex -59.9631 -7.4693 3
    endloop
  endfacet
  facet normal -0.522497 -0.852641 0
    outer loop
      vertex -58.7634 -9.42705 -3
      vertex -58.362 -9.67302 3
      vertex -58.7634 -9.42705 3
    endloop
  endfacet
  facet normal -0.522497 -0.852641 -0
    outer loop
      vertex -58.362 -9.67302 3
      vertex -58.7634 -9.42705 -3
      vertex -58.362 -9.67302 -3
    endloop
  endfacet
  facet normal -0.649449 -0.760405 0
    outer loop
      vertex -59.1213 -9.12132 -3
      vertex -58.7634 -9.42705 3
      vertex -59.1213 -9.12132 3
    endloop
  endfacet
  facet normal -0.649449 -0.760405 -0
    outer loop
      vertex -58.7634 -9.42705 3
      vertex -59.1213 -9.12132 -3
      vertex -58.7634 -9.42705 -3
    endloop
  endfacet
  facet normal -0.382686 -0.923879 0
    outer loop
      vertex -58.362 -9.67302 -3
      vertex -57.9271 -9.85317 3
      vertex -58.362 -9.67302 3
    endloop
  endfacet
  facet normal -0.382686 -0.923879 -0
    outer loop
      vertex -57.9271 -9.85317 3
      vertex -58.362 -9.67302 -3
      vertex -57.9271 -9.85317 -3
    endloop
  endfacet
  facet normal -0.852641 -0.522497 0
    outer loop
      vertex -59.4271 -8.76336 -3
      vertex -59.673 -8.36197 3
      vertex -59.673 -8.36197 -3
    endloop
  endfacet
  facet normal -0.852641 -0.522497 0
    outer loop
      vertex -59.673 -8.36197 3
      vertex -59.4271 -8.76336 -3
      vertex -59.4271 -8.76336 3
    endloop
  endfacet
  facet normal -0.760404 -0.649451 0
    outer loop
      vertex -59.1213 -9.12132 -3
      vertex -59.4271 -8.76336 3
      vertex -59.4271 -8.76336 -3
    endloop
  endfacet
  facet normal -0.760404 -0.649451 0
    outer loop
      vertex -59.4271 -8.76336 3
      vertex -59.1213 -9.12132 -3
      vertex -59.1213 -9.12132 3
    endloop
  endfacet
  facet normal 0 0 -1
    outer loop
      vertex -49.1634 -0.602943 -3
      vertex -6.2 0 -3
      vertex -6.2 -10 -3
    endloop
  endfacet
  facet normal -0 0 -1
    outer loop
      vertex -6.2 0 -3
      vertex -49.1634 -0.602943 -3
      vertex -49.1 0 -3
    endloop
  endfacet
  facet normal 0 0 -1
    outer loop
      vertex -6.2 -10 -3
      vertex -49.3507 -1.17954 -3
      vertex -49.1634 -0.602943 -3
    endloop
  endfacet
  facet normal 0 0 -1
    outer loop
      vertex -6.2 -10 -3
      vertex -49.6539 -1.70458 -3
      vertex -49.3507 -1.17954 -3
    endloop
  endfacet
  facet normal 0 0 -1
    outer loop
      vertex -6.2 -10 -3
      vertex -50.0595 -2.15512 -3
      vertex -49.6539 -1.70458 -3
    endloop
  endfacet
  facet normal 0 0 -1
    outer loop
      vertex -57 -10 -3
      vertex -50.0595 -2.15512 -3
      vertex -6.2 -10 -3
    endloop
  endfacet
  facet normal 0 0 -1
    outer loop
      vertex -50.0595 -2.15512 -3
      vertex -57 -10 -3
      vertex -50.55 -2.51147 -3
    endloop
  endfacet
  facet normal 0 0 -1
    outer loop
      vertex -50.55 -2.51147 -3
      vertex -57 -10 -3
      vertex -51.1039 -2.75806 -3
    endloop
  endfacet
  facet normal 0 0 -1
    outer loop
      vertex -51.1039 -2.75806 -3
      vertex -57 -10 -3
      vertex -51.6969 -2.88411 -3
    endloop
  endfacet
  facet normal -0 0 -1
    outer loop
      vertex -54.6493 -1.17954 -3
      vertex -60 -7 -3
      vertex -54.8366 -0.602943 -3
    endloop
  endfacet
  facet normal -0 0 -1
    outer loop
      vertex -54.3461 -1.70458 -3
      vertex -60 -7 -3
      vertex -54.6493 -1.17954 -3
    endloop
  endfacet
  facet normal -0 0 -1
    outer loop
      vertex -53.9405 -2.15512 -3
      vertex -60 -7 -3
      vertex -54.3461 -1.70458 -3
    endloop
  endfacet
  facet normal -0 0 -1
    outer loop
      vertex -53.45 -2.51147 -3
      vertex -60 -7 -3
      vertex -53.9405 -2.15512 -3
    endloop
  endfacet
  facet normal 0 0 -1
    outer loop
      vertex -60 -7 -3
      vertex -53.45 -2.51147 -3
      vertex -57 -10 -3
    endloop
  endfacet
  facet normal -0 0 -1
    outer loop
      vertex -52.8961 -2.75806 -3
      vertex -57 -10 -3
      vertex -53.45 -2.51147 -3
    endloop
  endfacet
  facet normal -0 0 -1
    outer loop
      vertex -52.3031 -2.88411 -3
      vertex -57 -10 -3
      vertex -52.8961 -2.75806 -3
    endloop
  endfacet
  facet normal -0 0 -1
    outer loop
      vertex -51.6969 -2.88411 -3
      vertex -57 -10 -3
      vertex -52.3031 -2.88411 -3
    endloop
  endfacet
  facet normal 0 0 -1
    outer loop
      vertex 57 -10 -3
      vertex 60 -7 -3
      vertex 59.9631 -7.4693 -3
    endloop
  endfacet
  facet normal 0 0 -1
    outer loop
      vertex 60 -7 -3
      vertex 54.9 0 -3
      vertex 60 7 -3
    endloop
  endfacet
  facet normal 0 0 -1
    outer loop
      vertex 57 -10 -3
      vertex 59.9631 -7.4693 -3
      vertex 59.8532 -7.92705 -3
    endloop
  endfacet
  facet normal 0 0 -1
    outer loop
      vertex 54.8366 0.602943 -3
      vertex 60 7 -3
      vertex 54.9 0 -3
    endloop
  endfacet
  facet normal 0 0 -1
    outer loop
      vertex 57 -10 -3
      vertex 59.8532 -7.92705 -3
      vertex 59.673 -8.36197 -3
    endloop
  endfacet
  facet normal 0 0 -1
    outer loop
      vertex 54.6493 1.17954 -3
      vertex 60 7 -3
      vertex 54.8366 0.602943 -3
    endloop
  endfacet
  facet normal 0 0 -1
    outer loop
      vertex 57 -10 -3
      vertex 59.673 -8.36197 -3
      vertex 59.4271 -8.76336 -3
    endloop
  endfacet
  facet normal 0 0 -1
    outer loop
      vertex 54.3461 1.70458 -3
      vertex 60 7 -3
      vertex 54.6493 1.17954 -3
    endloop
  endfacet
  facet normal 0 0 -1
    outer loop
      vertex 57 -10 -3
      vertex 59.4271 -8.76336 -3
      vertex 59.1213 -9.12132 -3
    endloop
  endfacet
  facet normal 0 0 -1
    outer loop
      vertex 53.9405 2.15512 -3
      vertex 60 7 -3
      vertex 54.3461 1.70458 -3
    endloop
  endfacet
  facet normal 0 0 -1
    outer loop
      vertex 57 -10 -3
      vertex 59.1213 -9.12132 -3
      vertex 58.7634 -9.42705 -3
    endloop
  endfacet
  facet normal 0 0 -1
    outer loop
      vertex 53.45 2.51147 -3
      vertex 60 7 -3
      vertex 53.9405 2.15512 -3
    endloop
  endfacet
  facet normal 0 0 -1
    outer loop
      vertex 57 -10 -3
      vertex 58.7634 -9.42705 -3
      vertex 58.362 -9.67302 -3
    endloop
  endfacet
  facet normal 0 -0 -1
    outer loop
      vertex 57 10 -3
      vertex 60 7 -3
      vertex 53.45 2.51147 -3
    endloop
  endfacet
  facet normal 0 0 -1
    outer loop
      vertex 57 -10 -3
      vertex 58.362 -9.67302 -3
      vertex 57.9271 -9.85317 -3
    endloop
  endfacet
  facet normal 0 0 -1
    outer loop
      vertex 60 7 -3
      vertex 57 10 -3
      vertex 59.9631 7.4693 -3
    endloop
  endfacet
  facet normal 0 0 -1
    outer loop
      vertex 57 -10 -3
      vertex 57.9271 -9.85317 -3
      vertex 57.4693 -9.96306 -3
    endloop
  endfacet
  facet normal 0 0 -1
    outer loop
      vertex 59.8532 7.92705 -3
      vertex 57 10 -3
      vertex 59.673 8.36197 -3
    endloop
  endfacet
  facet normal -0 0 -1
    outer loop
      vertex 60 -7 -3
      vertex 57 -10 -3
      vertex 53.45 -2.51147 -3
    endloop
  endfacet
  facet normal 0 0 -1
    outer loop
      vertex 59.673 8.36197 -3
      vertex 57 10 -3
      vertex 59.4271 8.76336 -3
    endloop
  endfacet
  facet normal 0 0 -1
    outer loop
      vertex 59.4271 8.76336 -3
      vertex 57 10 -3
      vertex 59.1213 9.12132 -3
    endloop
  endfacet
  facet normal 0 0 -1
    outer loop
      vertex 60 -7 -3
      vertex 54.8366 -0.602943 -3
      vertex 54.9 0 -3
    endloop
  endfacet
  facet normal 0 0 -1
    outer loop
      vertex 60 -7 -3
      vertex 54.6493 -1.17954 -3
      vertex 54.8366 -0.602943 -3
    endloop
  endfacet
  facet normal 0 0 -1
    outer loop
      vertex 60 -7 -3
      vertex 54.3461 -1.70458 -3
      vertex 54.6493 -1.17954 -3
    endloop
  endfacet
  facet normal 0 0 -1
    outer loop
      vertex 60 -7 -3
      vertex 53.9405 -2.15512 -3
      vertex 54.3461 -1.70458 -3
    endloop
  endfacet
  facet normal 0 0 -1
    outer loop
      vertex 60 -7 -3
      vertex 53.45 -2.51147 -3
      vertex 53.9405 -2.15512 -3
    endloop
  endfacet
  facet normal 0 0 -1
    outer loop
      vertex 57 -10 -3
      vertex 52.8961 -2.75806 -3
      vertex 53.45 -2.51147 -3
    endloop
  endfacet
  facet normal 0 0 -1
    outer loop
      vertex 57 -10 -3
      vertex 52.3031 -2.88411 -3
      vertex 52.8961 -2.75806 -3
    endloop
  endfacet
  facet normal 0 0 -1
    outer loop
      vertex 57 -10 -3
      vertex 51.6969 -2.88411 -3
      vertex 52.3031 -2.88411 -3
    endloop
  endfacet
  facet normal 0 0 -1
    outer loop
      vertex 57 -10 -3
      vertex 51.1039 -2.75806 -3
      vertex 51.6969 -2.88411 -3
    endloop
  endfacet
  facet normal 0 0 -1
    outer loop
      vertex 57 -10 -3
      vertex 50.55 -2.51147 -3
      vertex 51.1039 -2.75806 -3
    endloop
  endfacet
  facet normal 0 0 -1
    outer loop
      vertex 57 -10 -3
      vertex 50.0595 -2.15512 -3
      vertex 50.55 -2.51147 -3
    endloop
  endfacet
  facet normal 0 0 -1
    outer loop
      vertex 6.2 -10 -3
      vertex 50.0595 -2.15512 -3
      vertex 57 -10 -3
    endloop
  endfacet
  facet normal 0 0 -1
    outer loop
      vertex 6.2 0 -3
      vertex 49.1634 -0.602943 -3
      vertex 6.2 -10 -3
    endloop
  endfacet
  facet normal -0 0 -1
    outer loop
      vertex 49.3507 -1.17954 -3
      vertex 6.2 -10 -3
      vertex 49.1634 -0.602943 -3
    endloop
  endfacet
  facet normal -0 0 -1
    outer loop
      vertex 49.6539 -1.70458 -3
      vertex 6.2 -10 -3
      vertex 49.3507 -1.17954 -3
    endloop
  endfacet
  facet normal -0 0 -1
    outer loop
      vertex 50.0595 -2.15512 -3
      vertex 6.2 -10 -3
      vertex 49.6539 -1.70458 -3
    endloop
  endfacet
  facet normal 0 0 -1
    outer loop
      vertex 59.1213 9.12132 -3
      vertex 57 10 -3
      vertex 58.7634 9.42705 -3
    endloop
  endfacet
  facet normal 0 0 -1
    outer loop
      vertex 58.7634 9.42705 -3
      vertex 57 10 -3
      vertex 58.362 9.67302 -3
    endloop
  endfacet
  facet normal 0 0 -1
    outer loop
      vertex 58.362 9.67302 -3
      vertex 57 10 -3
      vertex 57.9271 9.85317 -3
    endloop
  endfacet
  facet normal 0 0 -1
    outer loop
      vertex 57.9271 9.85317 -3
      vertex 57 10 -3
      vertex 57.4693 9.96306 -3
    endloop
  endfacet
  facet normal 0 0 -1
    outer loop
      vertex 59.9631 7.4693 -3
      vertex 57 10 -3
      vertex 59.8532 7.92705 -3
    endloop
  endfacet
  facet normal 0 0 -1
    outer loop
      vertex 52.8961 2.75806 -3
      vertex 57 10 -3
      vertex 53.45 2.51147 -3
    endloop
  endfacet
  facet normal 0 0 -1
    outer loop
      vertex 52.3031 2.88411 -3
      vertex 57 10 -3
      vertex 52.8961 2.75806 -3
    endloop
  endfacet
  facet normal 0 0 -1
    outer loop
      vertex 51.6969 2.88411 -3
      vertex 57 10 -3
      vertex 52.3031 2.88411 -3
    endloop
  endfacet
  facet normal 0 0 -1
    outer loop
      vertex 51.1039 2.75806 -3
      vertex 57 10 -3
      vertex 51.6969 2.88411 -3
    endloop
  endfacet
  facet normal 0 0 -1
    outer loop
      vertex 50.55 2.51147 -3
      vertex 57 10 -3
      vertex 51.1039 2.75806 -3
    endloop
  endfacet
  facet normal 0 0 -1
    outer loop
      vertex 50.0595 2.15512 -3
      vertex 57 10 -3
      vertex 50.55 2.51147 -3
    endloop
  endfacet
  facet normal 0 0 -1
    outer loop
      vertex 5.0159 3.64427 -3
      vertex 50.0595 2.15512 -3
      vertex 49.6539 1.70458 -3
    endloop
  endfacet
  facet normal 0 0 -1
    outer loop
      vertex 49.1634 -0.602943 -3
      vertex 6.2 0 -3
      vertex 49.1 0 -3
    endloop
  endfacet
  facet normal 0 0 -1
    outer loop
      vertex 6.12367 0.969893 -3
      vertex 49.1 0 -3
      vertex 6.2 0 -3
    endloop
  endfacet
  facet normal 0 0 -1
    outer loop
      vertex 49.1 0 -3
      vertex 6.12367 0.969893 -3
      vertex 49.1634 0.602943 -3
    endloop
  endfacet
  facet normal 0 0 -1
    outer loop
      vertex 5.89655 1.9159 -3
      vertex 49.1634 0.602943 -3
      vertex 6.12367 0.969893 -3
    endloop
  endfacet
  facet normal 0 0 -1
    outer loop
      vertex 49.1634 0.602943 -3
      vertex 5.89655 1.9159 -3
      vertex 49.3507 1.17954 -3
    endloop
  endfacet
  facet normal 0 0 -1
    outer loop
      vertex 5.52424 2.81474 -3
      vertex 49.3507 1.17954 -3
      vertex 5.89655 1.9159 -3
    endloop
  endfacet
  facet normal 0 0 -1
    outer loop
      vertex 49.3507 1.17954 -3
      vertex 5.52424 2.81474 -3
      vertex 49.6539 1.70458 -3
    endloop
  endfacet
  facet normal 0 0 -1
    outer loop
      vertex 5.0159 3.64427 -3
      vertex 49.6539 1.70458 -3
      vertex 5.52424 2.81474 -3
    endloop
  endfacet
  facet normal 0 0 -1
    outer loop
      vertex 50.0595 2.15512 -3
      vertex 5.0159 3.64427 -3
      vertex 4.38406 4.38406 -3
    endloop
  endfacet
  facet normal 0 0 -1
    outer loop
      vertex 50.0595 2.15512 -3
      vertex 4.38406 4.38406 -3
      vertex 57 10 -3
    endloop
  endfacet
  facet normal 0 0 -1
    outer loop
      vertex 3.64427 5.0159 -3
      vertex 57 10 -3
      vertex 4.38406 4.38406 -3
    endloop
  endfacet
  facet normal 0 0 -1
    outer loop
      vertex 2.81474 5.52424 -3
      vertex 57 10 -3
      vertex 3.64427 5.0159 -3
    endloop
  endfacet
  facet normal 0 0 -1
    outer loop
      vertex 1.9159 5.89655 -3
      vertex 57 10 -3
      vertex 2.81474 5.52424 -3
    endloop
  endfacet
  facet normal 0 0 -1
    outer loop
      vertex 0.969893 6.12367 -3
      vertex 57 10 -3
      vertex 1.9159 5.89655 -3
    endloop
  endfacet
  facet normal 0 0 -1
    outer loop
      vertex 0 6.2 -3
      vertex 57 10 -3
      vertex 0.969893 6.12367 -3
    endloop
  endfacet
  facet normal 0 0 -1
    outer loop
      vertex -49.1 0 -3
      vertex -6.12367 0.969893 -3
      vertex -6.2 0 -3
    endloop
  endfacet
  facet normal 0 0 -1
    outer loop
      vertex -49.1634 0.602943 -3
      vertex -6.12367 0.969893 -3
      vertex -49.1 0 -3
    endloop
  endfacet
  facet normal -0 0 -1
    outer loop
      vertex -6.12367 0.969893 -3
      vertex -49.1634 0.602943 -3
      vertex -5.89655 1.9159 -3
    endloop
  endfacet
  facet normal 0 0 -1
    outer loop
      vertex -49.3507 1.17954 -3
      vertex -5.89655 1.9159 -3
      vertex -49.1634 0.602943 -3
    endloop
  endfacet
  facet normal -0 0 -1
    outer loop
      vertex -5.89655 1.9159 -3
      vertex -49.3507 1.17954 -3
      vertex -5.52424 2.81474 -3
    endloop
  endfacet
  facet normal 0 0 -1
    outer loop
      vertex -49.6539 1.70458 -3
      vertex -5.52424 2.81474 -3
      vertex -49.3507 1.17954 -3
    endloop
  endfacet
  facet normal -0 0 -1
    outer loop
      vertex -5.52424 2.81474 -3
      vertex -49.6539 1.70458 -3
      vertex -5.0159 3.64427 -3
    endloop
  endfacet
  facet normal 0 0 -1
    outer loop
      vertex -50.0595 2.15512 -3
      vertex -5.0159 3.64427 -3
      vertex -49.6539 1.70458 -3
    endloop
  endfacet
  facet normal -0 0 -1
    outer loop
      vertex -5.0159 3.64427 -3
      vertex -50.0595 2.15512 -3
      vertex -4.38406 4.38406 -3
    endloop
  endfacet
  facet normal 0 0 -1
    outer loop
      vertex -57 10 -3
      vertex -4.38406 4.38406 -3
      vertex -50.0595 2.15512 -3
    endloop
  endfacet
  facet normal 0 0 -1
    outer loop
      vertex -4.38406 4.38406 -3
      vertex -57 10 -3
      vertex -3.64427 5.0159 -3
    endloop
  endfacet
  facet normal 0 0 -1
    outer loop
      vertex -3.64427 5.0159 -3
      vertex -57 10 -3
      vertex -2.81474 5.52424 -3
    endloop
  endfacet
  facet normal 0 0 -1
    outer loop
      vertex -2.81474 5.52424 -3
      vertex -57 10 -3
      vertex -1.9159 5.89655 -3
    endloop
  endfacet
  facet normal 0 0 -1
    outer loop
      vertex -57 10 -3
      vertex -50.0595 2.15512 -3
      vertex -50.55 2.51147 -3
    endloop
  endfacet
  facet normal 0 0 -1
    outer loop
      vertex -1.9159 5.89655 -3
      vertex -57 10 -3
      vertex -0.969893 6.12367 -3
    endloop
  endfacet
  facet normal 0 0 -1
    outer loop
      vertex -57 10 -3
      vertex -50.55 2.51147 -3
      vertex -51.1039 2.75806 -3
    endloop
  endfacet
  facet normal 0 0 -1
    outer loop
      vertex -57 10 -3
      vertex -51.1039 2.75806 -3
      vertex -51.6969 2.88411 -3
    endloop
  endfacet
  facet normal 0 0 -1
    outer loop
      vertex -0.969893 6.12367 -3
      vertex -57 10 -3
      vertex 0 6.2 -3
    endloop
  endfacet
  facet normal 0 0 -1
    outer loop
      vertex -57 10 -3
      vertex -51.6969 2.88411 -3
      vertex -52.3031 2.88411 -3
    endloop
  endfacet
  facet normal -0 0 -1
    outer loop
      vertex -54.8366 -0.602943 -3
      vertex -60 -7 -3
      vertex -54.9 0 -3
    endloop
  endfacet
  facet normal 0 0 -1
    outer loop
      vertex 0 6.2 -3
      vertex -57 10 -3
      vertex 57 10 -3
    endloop
  endfacet
  facet normal 0 0 -1
    outer loop
      vertex -52.8961 2.75806 -3
      vertex -57 10 -3
      vertex -52.3031 2.88411 -3
    endloop
  endfacet
  facet normal 0 0 -1
    outer loop
      vertex -53.45 2.51147 -3
      vertex -57 10 -3
      vertex -52.8961 2.75806 -3
    endloop
  endfacet
  facet normal 0 0 -1
    outer loop
      vertex -60 7 -3
      vertex -53.45 2.51147 -3
      vertex -53.9405 2.15512 -3
    endloop
  endfacet
  facet normal 0 0 -1
    outer loop
      vertex -60 7 -3
      vertex -53.9405 2.15512 -3
      vertex -54.3461 1.70458 -3
    endloop
  endfacet
  facet normal 0 0 -1
    outer loop
      vertex -60 7 -3
      vertex -54.3461 1.70458 -3
      vertex -54.6493 1.17954 -3
    endloop
  endfacet
  facet normal 0 0 -1
    outer loop
      vertex -60 7 -3
      vertex -54.6493 1.17954 -3
      vertex -54.8366 0.602943 -3
    endloop
  endfacet
  facet normal 0 0 -1
    outer loop
      vertex -60 7 -3
      vertex -54.9 0 -3
      vertex -60 -7 -3
    endloop
  endfacet
  facet normal 0 0 -1
    outer loop
      vertex -60 -7 -3
      vertex -57 -10 -3
      vertex -57.4693 -9.96306 -3
    endloop
  endfacet
  facet normal 0 0 -1
    outer loop
      vertex -54.9 0 -3
      vertex -60 7 -3
      vertex -54.8366 0.602943 -3
    endloop
  endfacet
  facet normal 0 0 -1
    outer loop
      vertex -60 -7 -3
      vertex -57.4693 -9.96306 -3
      vertex -57.9271 -9.85317 -3
    endloop
  endfacet
  facet normal 0 0 -1
    outer loop
      vertex -53.45 2.51147 -3
      vertex -60 7 -3
      vertex -57 10 -3
    endloop
  endfacet
  facet normal 0 0 -1
    outer loop
      vertex -60 -7 -3
      vertex -57.9271 -9.85317 -3
      vertex -58.362 -9.67302 -3
    endloop
  endfacet
  facet normal 0 0 -1
    outer loop
      vertex -57 10 -3
      vertex -60 7 -3
      vertex -57.4693 9.96306 -3
    endloop
  endfacet
  facet normal 0 0 -1
    outer loop
      vertex -60 -7 -3
      vertex -58.362 -9.67302 -3
      vertex -58.7634 -9.42705 -3
    endloop
  endfacet
  facet normal 0 0 -1
    outer loop
      vertex -57.4693 9.96306 -3
      vertex -60 7 -3
      vertex -57.9271 9.85317 -3
    endloop
  endfacet
  facet normal 0 0 -1
    outer loop
      vertex -60 -7 -3
      vertex -58.7634 -9.42705 -3
      vertex -59.1213 -9.12132 -3
    endloop
  endfacet
  facet normal 0 0 -1
    outer loop
      vertex -57.9271 9.85317 -3
      vertex -60 7 -3
      vertex -58.362 9.67302 -3
    endloop
  endfacet
  facet normal 0 0 -1
    outer loop
      vertex -60 -7 -3
      vertex -59.1213 -9.12132 -3
      vertex -59.4271 -8.76336 -3
    endloop
  endfacet
  facet normal 0 0 -1
    outer loop
      vertex -58.362 9.67302 -3
      vertex -60 7 -3
      vertex -58.7634 9.42705 -3
    endloop
  endfacet
  facet normal 0 0 -1
    outer loop
      vertex -60 -7 -3
      vertex -59.4271 -8.76336 -3
      vertex -59.673 -8.36197 -3
    endloop
  endfacet
  facet normal 0 0 -1
    outer loop
      vertex -58.7634 9.42705 -3
      vertex -60 7 -3
      vertex -59.1213 9.12132 -3
    endloop
  endfacet
  facet normal 0 0 -1
    outer loop
      vertex -60 -7 -3
      vertex -59.673 -8.36197 -3
      vertex -59.8532 -7.92705 -3
    endloop
  endfacet
  facet normal 0 0 -1
    outer loop
      vertex -59.1213 9.12132 -3
      vertex -60 7 -3
      vertex -59.4271 8.76336 -3
    endloop
  endfacet
  facet normal 0 0 -1
    outer loop
      vertex -60 -7 -3
      vertex -59.8532 -7.92705 -3
      vertex -59.9631 -7.4693 -3
    endloop
  endfacet
  facet normal 0 0 -1
    outer loop
      vertex -59.4271 8.76336 -3
      vertex -60 7 -3
      vertex -59.673 8.36197 -3
    endloop
  endfacet
  facet normal 0 0 -1
    outer loop
      vertex -59.673 8.36197 -3
      vertex -60 7 -3
      vertex -59.8532 7.92705 -3
    endloop
  endfacet
  facet normal 0 0 -1
    outer loop
      vertex -59.8532 7.92705 -3
      vertex -60 7 -3
      vertex -59.9631 7.4693 -3
    endloop
  endfacet
  facet normal -0.233444 -0.97237 0
    outer loop
      vertex -57.9271 -9.85317 -3
      vertex -57.4693 -9.96306 3
      vertex -57.9271 -9.85317 3
    endloop
  endfacet
  facet normal -0.233444 -0.97237 -0
    outer loop
      vertex -57.4693 -9.96306 3
      vertex -57.9271 -9.85317 -3
      vertex -57.4693 -9.96306 -3
    endloop
  endfacet
  facet normal -0.92388 -0.382682 0
    outer loop
      vertex -59.673 -8.36197 -3
      vertex -59.8532 -7.92705 3
      vertex -59.8532 -7.92705 -3
    endloop
  endfacet
  facet normal -0.92388 -0.382682 0
    outer loop
      vertex -59.8532 -7.92705 3
      vertex -59.673 -8.36197 -3
      vertex -59.673 -8.36197 3
    endloop
  endfacet
  facet normal -0.996918 -0.0784569 0
    outer loop
      vertex -59.9631 -7.4693 -3
      vertex -60 -7 3
      vertex -60 -7 -3
    endloop
  endfacet
  facet normal -0.996918 -0.0784569 0
    outer loop
      vertex -60 -7 3
      vertex -59.9631 -7.4693 -3
      vertex -59.9631 -7.4693 3
    endloop
  endfacet
  facet normal -0.972369 -0.23345 0
    outer loop
      vertex -59.8532 -7.92705 -3
      vertex -59.9631 -7.4693 3
      vertex -59.9631 -7.4693 -3
    endloop
  endfacet
  facet normal -0.972369 -0.23345 0
    outer loop
      vertex -59.9631 -7.4693 3
      vertex -59.8532 -7.92705 -3
      vertex -59.8532 -7.92705 3
    endloop
  endfacet
  facet normal -0.996918 0.0784569 0
    outer loop
      vertex -60 7 -3
      vertex -59.9631 7.4693 3
      vertex -59.9631 7.4693 -3
    endloop
  endfacet
  facet normal -0.996918 0.0784569 0
    outer loop
      vertex -59.9631 7.4693 3
      vertex -60 7 -3
      vertex -60 7 3
    endloop
  endfacet
  facet normal -0.649449 0.760405 0
    outer loop
      vertex -58.7634 9.42705 -3
      vertex -59.1213 9.12132 3
      vertex -58.7634 9.42705 3
    endloop
  endfacet
  facet normal -0.649449 0.760405 0
    outer loop
      vertex -59.1213 9.12132 3
      vertex -58.7634 9.42705 -3
      vertex -59.1213 9.12132 -3
    endloop
  endfacet
  facet normal -0.382686 0.923879 0
    outer loop
      vertex -57.9271 9.85317 -3
      vertex -58.362 9.67302 3
      vertex -57.9271 9.85317 3
    endloop
  endfacet
  facet normal -0.382686 0.923879 0
    outer loop
      vertex -58.362 9.67302 3
      vertex -57.9271 9.85317 -3
      vertex -58.362 9.67302 -3
    endloop
  endfacet
  facet normal -0.852641 0.522497 0
    outer loop
      vertex -59.673 8.36197 -3
      vertex -59.4271 8.76336 3
      vertex -59.4271 8.76336 -3
    endloop
  endfacet
  facet normal -0.852641 0.522497 0
    outer loop
      vertex -59.4271 8.76336 3
      vertex -59.673 8.36197 -3
      vertex -59.673 8.36197 3
    endloop
  endfacet
  facet normal -0.760404 0.649451 0
    outer loop
      vertex -59.4271 8.76336 -3
      vertex -59.1213 9.12132 3
      vertex -59.1213 9.12132 -3
    endloop
  endfacet
  facet normal -0.760404 0.649451 0
    outer loop
      vertex -59.1213 9.12132 3
      vertex -59.4271 8.76336 -3
      vertex -59.4271 8.76336 3
    endloop
  endfacet
  facet normal -0.92388 0.382682 0
    outer loop
      vertex -59.8532 7.92705 -3
      vertex -59.673 8.36197 3
      vertex -59.673 8.36197 -3
    endloop
  endfacet
  facet normal -0.92388 0.382682 0
    outer loop
      vertex -59.673 8.36197 3
      vertex -59.8532 7.92705 -3
      vertex -59.8532 7.92705 3
    endloop
  endfacet
  facet normal -0.522497 0.852641 0
    outer loop
      vertex -58.362 9.67302 -3
      vertex -58.7634 9.42705 3
      vertex -58.362 9.67302 3
    endloop
  endfacet
  facet normal -0.522497 0.852641 0
    outer loop
      vertex -58.7634 9.42705 3
      vertex -58.362 9.67302 -3
      vertex -58.7634 9.42705 -3
    endloop
  endfacet
  facet normal -0.233444 0.97237 0
    outer loop
      vertex -57.4693 9.96306 -3
      vertex -57.9271 9.85317 3
      vertex -57.4693 9.96306 3
    endloop
  endfacet
  facet normal -0.233444 0.97237 0
    outer loop
      vertex -57.9271 9.85317 3
      vertex -57.4693 9.96306 -3
      vertex -57.9271 9.85317 -3
    endloop
  endfacet
  facet normal -0.972369 0.23345 0
    outer loop
      vertex -59.9631 7.4693 -3
      vertex -59.8532 7.92705 3
      vertex -59.8532 7.92705 -3
    endloop
  endfacet
  facet normal -0.972369 0.23345 0
    outer loop
      vertex -59.8532 7.92705 3
      vertex -59.9631 7.4693 -3
      vertex -59.9631 7.4693 3
    endloop
  endfacet
  facet normal -0.0784609 0.996917 0
    outer loop
      vertex -57 10 -3
      vertex -57.4693 9.96306 3
      vertex -57 10 3
    endloop
  endfacet
  facet normal -0.0784609 0.996917 0
    outer loop
      vertex -57.4693 9.96306 3
      vertex -57 10 -3
      vertex -57.4693 9.96306 -3
    endloop
  endfacet
  facet normal 0.0784609 -0.996917 0
    outer loop
      vertex 57 -10 -3
      vertex 57.4693 -9.96306 3
      vertex 57 -10 3
    endloop
  endfacet
  facet normal 0.0784609 -0.996917 0
    outer loop
      vertex 57.4693 -9.96306 3
      vertex 57 -10 -3
      vertex 57.4693 -9.96306 -3
    endloop
  endfacet
  facet normal 0.92388 -0.382682 0
    outer loop
      vertex 59.673 -8.36197 3
      vertex 59.8532 -7.92705 -3
      vertex 59.8532 -7.92705 3
    endloop
  endfacet
  facet normal 0.92388 -0.382682 0
    outer loop
      vertex 59.8532 -7.92705 -3
      vertex 59.673 -8.36197 3
      vertex 59.673 -8.36197 -3
    endloop
  endfacet
  facet normal 0.972369 -0.23345 0
    outer loop
      vertex 59.8532 -7.92705 3
      vertex 59.9631 -7.4693 -3
      vertex 59.9631 -7.4693 3
    endloop
  endfacet
  facet normal 0.972369 -0.23345 0
    outer loop
      vertex 59.9631 -7.4693 -3
      vertex 59.8532 -7.92705 3
      vertex 59.8532 -7.92705 -3
    endloop
  endfacet
  facet normal 0.233444 -0.97237 0
    outer loop
      vertex 57.4693 -9.96306 -3
      vertex 57.9271 -9.85317 3
      vertex 57.4693 -9.96306 3
    endloop
  endfacet
  facet normal 0.233444 -0.97237 0
    outer loop
      vertex 57.9271 -9.85317 3
      vertex 57.4693 -9.96306 -3
      vertex 57.9271 -9.85317 -3
    endloop
  endfacet
  facet normal 0.996918 -0.0784569 0
    outer loop
      vertex 59.9631 -7.4693 3
      vertex 60 -7 -3
      vertex 60 -7 3
    endloop
  endfacet
  facet normal 0.996918 -0.0784569 0
    outer loop
      vertex 60 -7 -3
      vertex 59.9631 -7.4693 3
      vertex 59.9631 -7.4693 -3
    endloop
  endfacet
  facet normal 0.852641 -0.522497 0
    outer loop
      vertex 59.4271 -8.76336 3
      vertex 59.673 -8.36197 -3
      vertex 59.673 -8.36197 3
    endloop
  endfacet
  facet normal 0.852641 -0.522497 0
    outer loop
      vertex 59.673 -8.36197 -3
      vertex 59.4271 -8.76336 3
      vertex 59.4271 -8.76336 -3
    endloop
  endfacet
  facet normal 0.522497 -0.852641 0
    outer loop
      vertex 58.362 -9.67302 -3
      vertex 58.7634 -9.42705 3
      vertex 58.362 -9.67302 3
    endloop
  endfacet
  facet normal 0.522497 -0.852641 0
    outer loop
      vertex 58.7634 -9.42705 3
      vertex 58.362 -9.67302 -3
      vertex 58.7634 -9.42705 -3
    endloop
  endfacet
  facet normal 0.382686 -0.923879 0
    outer loop
      vertex 57.9271 -9.85317 -3
      vertex 58.362 -9.67302 3
      vertex 57.9271 -9.85317 3
    endloop
  endfacet
  facet normal 0.382686 -0.923879 0
    outer loop
      vertex 58.362 -9.67302 3
      vertex 57.9271 -9.85317 -3
      vertex 58.362 -9.67302 -3
    endloop
  endfacet
  facet normal 0.649449 -0.760405 0
    outer loop
      vertex 58.7634 -9.42705 -3
      vertex 59.1213 -9.12132 3
      vertex 58.7634 -9.42705 3
    endloop
  endfacet
  facet normal 0.649449 -0.760405 0
    outer loop
      vertex 59.1213 -9.12132 3
      vertex 58.7634 -9.42705 -3
      vertex 59.1213 -9.12132 -3
    endloop
  endfacet
  facet normal 0.760404 -0.649451 0
    outer loop
      vertex 59.1213 -9.12132 3
      vertex 59.4271 -8.76336 -3
      vertex 59.4271 -8.76336 3
    endloop
  endfacet
  facet normal 0.760404 -0.649451 0
    outer loop
      vertex 59.4271 -8.76336 -3
      vertex 59.1213 -9.12132 3
      vertex 59.1213 -9.12132 -3
    endloop
  endfacet
  facet normal 0.996918 0.0784569 0
    outer loop
      vertex 60 7 3
      vertex 59.9631 7.4693 -3
      vertex 59.9631 7.4693 3
    endloop
  endfacet
  facet normal 0.996918 0.0784569 0
    outer loop
      vertex 59.9631 7.4693 -3
      vertex 60 7 3
      vertex 60 7 -3
    endloop
  endfacet
  facet normal 0.649449 0.760405 -0
    outer loop
      vertex 59.1213 9.12132 -3
      vertex 58.7634 9.42705 3
      vertex 59.1213 9.12132 3
    endloop
  endfacet
  facet normal 0.649449 0.760405 0
    outer loop
      vertex 58.7634 9.42705 3
      vertex 59.1213 9.12132 -3
      vertex 58.7634 9.42705 -3
    endloop
  endfacet
  facet normal 0.92388 0.382682 0
    outer loop
      vertex 59.8532 7.92705 3
      vertex 59.673 8.36197 -3
      vertex 59.673 8.36197 3
    endloop
  endfacet
  facet normal 0.92388 0.382682 0
    outer loop
      vertex 59.673 8.36197 -3
      vertex 59.8532 7.92705 3
      vertex 59.8532 7.92705 -3
    endloop
  endfacet
  facet normal 0.972369 0.23345 0
    outer loop
      vertex 59.9631 7.4693 3
      vertex 59.8532 7.92705 -3
      vertex 59.8532 7.92705 3
    endloop
  endfacet
  facet normal 0.972369 0.23345 0
    outer loop
      vertex 59.8532 7.92705 -3
      vertex 59.9631 7.4693 3
      vertex 59.9631 7.4693 -3
    endloop
  endfacet
  facet normal 0.852641 0.522497 0
    outer loop
      vertex 59.673 8.36197 3
      vertex 59.4271 8.76336 -3
      vertex 59.4271 8.76336 3
    endloop
  endfacet
  facet normal 0.852641 0.522497 0
    outer loop
      vertex 59.4271 8.76336 -3
      vertex 59.673 8.36197 3
      vertex 59.673 8.36197 -3
    endloop
  endfacet
  facet normal 0.382686 0.923879 -0
    outer loop
      vertex 58.362 9.67302 -3
      vertex 57.9271 9.85317 3
      vertex 58.362 9.67302 3
    endloop
  endfacet
  facet normal 0.382686 0.923879 0
    outer loop
      vertex 57.9271 9.85317 3
      vertex 58.362 9.67302 -3
      vertex 57.9271 9.85317 -3
    endloop
  endfacet
  facet normal 0.522497 0.852641 -0
    outer loop
      vertex 58.7634 9.42705 -3
      vertex 58.362 9.67302 3
      vertex 58.7634 9.42705 3
    endloop
  endfacet
  facet normal 0.522497 0.852641 0
    outer loop
      vertex 58.362 9.67302 3
      vertex 58.7634 9.42705 -3
      vertex 58.362 9.67302 -3
    endloop
  endfacet
  facet normal 0.233444 0.97237 -0
    outer loop
      vertex 57.9271 9.85317 -3
      vertex 57.4693 9.96306 3
      vertex 57.9271 9.85317 3
    endloop
  endfacet
  facet normal 0.233444 0.97237 0
    outer loop
      vertex 57.4693 9.96306 3
      vertex 57.9271 9.85317 -3
      vertex 57.4693 9.96306 -3
    endloop
  endfacet
  facet normal 0.0784609 0.996917 -0
    outer loop
      vertex 57.4693 9.96306 -3
      vertex 57 10 3
      vertex 57.4693 9.96306 3
    endloop
  endfacet
  facet normal 0.0784609 0.996917 0
    outer loop
      vertex 57 10 3
      vertex 57.4693 9.96306 -3
      vertex 57 10 -3
    endloop
  endfacet
  facet normal 0.760404 0.649451 0
    outer loop
      vertex 59.4271 8.76336 3
      vertex 59.1213 9.12132 -3
      vertex 59.1213 9.12132 3
    endloop
  endfacet
  facet normal 0.760404 0.649451 0
    outer loop
      vertex 59.1213 9.12132 -3
      vertex 59.4271 8.76336 3
      vertex 59.4271 8.76336 -3
    endloop
  endfacet
  facet normal 0 -1 0
    outer loop
      vertex 6.2 -10 -3
      vertex 57 -10 3
      vertex 6.2 -10 3
    endloop
  endfacet
  facet normal 0 -1 -0
    outer loop
      vertex 57 -10 3
      vertex 6.2 -10 -3
      vertex 57 -10 -3
    endloop
  endfacet
  facet normal 0 -1 0
    outer loop
      vertex -57 -10 -3
      vertex -6.2 -10 3
      vertex -57 -10 3
    endloop
  endfacet
  facet normal 0 -1 -0
    outer loop
      vertex -6.2 -10 3
      vertex -57 -10 -3
      vertex -6.2 -10 -3
    endloop
  endfacet
  facet normal 0 1 -0
    outer loop
      vertex 57 10 -3
      vertex -57 10 3
      vertex 57 10 3
    endloop
  endfacet
  facet normal 0 1 0
    outer loop
      vertex -57 10 3
      vertex 57 10 -3
      vertex -57 10 -3
    endloop
  endfacet
  facet normal -1 0 0
    outer loop
      vertex -60 -7 -3
      vertex -60 7 3
      vertex -60 7 -3
    endloop
  endfacet
  facet normal -1 -0 0
    outer loop
      vertex -60 7 3
      vertex -60 -7 -3
      vertex -60 -7 3
    endloop
  endfacet
  facet normal 1 -0 0
    outer loop
      vertex 60 -7 3
      vertex 60 7 -3
      vertex 60 7 3
    endloop
  endfacet
  facet normal 1 0 0
    outer loop
      vertex 60 7 -3
      vertex 60 -7 3
      vertex 60 -7 -3
    endloop
  endfacet
  facet normal -0.994522 -0.104531 0
    outer loop
      vertex -49.1 0 -3
      vertex -49.1634 0.602943 3
      vertex -49.1634 0.602943 -3
    endloop
  endfacet
  facet normal -0.994522 -0.104531 0
    outer loop
      vertex -49.1634 0.602943 3
      vertex -49.1 0 -3
      vertex -49.1 0 3
    endloop
  endfacet
  facet normal 0.994522 -0.104531 0
    outer loop
      vertex -54.9 0 3
      vertex -54.8366 0.602943 -3
      vertex -54.8366 0.602943 3
    endloop
  endfacet
  facet normal 0.994522 -0.104531 0
    outer loop
      vertex -54.8366 0.602943 -3
      vertex -54.9 0 3
      vertex -54.9 0 -3
    endloop
  endfacet
  facet normal 0 -1 0
    outer loop
      vertex -52.3031 2.88411 -3
      vertex -51.6969 2.88411 3
      vertex -52.3031 2.88411 3
    endloop
  endfacet
  facet normal 0 -1 -0
    outer loop
      vertex -51.6969 2.88411 3
      vertex -52.3031 2.88411 -3
      vertex -51.6969 2.88411 -3
    endloop
  endfacet
  facet normal 0 1 -0
    outer loop
      vertex -51.6969 -2.88411 -3
      vertex -52.3031 -2.88411 3
      vertex -51.6969 -2.88411 3
    endloop
  endfacet
  facet normal 0 1 0
    outer loop
      vertex -52.3031 -2.88411 3
      vertex -51.6969 -2.88411 -3
      vertex -52.3031 -2.88411 -3
    endloop
  endfacet
  facet normal -0.587786 -0.809017 0
    outer loop
      vertex -50.55 2.51147 -3
      vertex -50.0595 2.15512 3
      vertex -50.55 2.51147 3
    endloop
  endfacet
  facet normal -0.587786 -0.809017 -0
    outer loop
      vertex -50.0595 2.15512 3
      vertex -50.55 2.51147 -3
      vertex -50.0595 2.15512 -3
    endloop
  endfacet
  facet normal 0.587786 -0.809017 0
    outer loop
      vertex -53.9405 2.15512 -3
      vertex -53.45 2.51147 3
      vertex -53.9405 2.15512 3
    endloop
  endfacet
  facet normal 0.587786 -0.809017 0
    outer loop
      vertex -53.45 2.51147 3
      vertex -53.9405 2.15512 -3
      vertex -53.45 2.51147 -3
    endloop
  endfacet
  facet normal 0.406735 -0.913546 0
    outer loop
      vertex -53.45 2.51147 -3
      vertex -52.8961 2.75806 3
      vertex -53.45 2.51147 3
    endloop
  endfacet
  facet normal 0.406735 -0.913546 0
    outer loop
      vertex -52.8961 2.75806 3
      vertex -53.45 2.51147 -3
      vertex -52.8961 2.75806 -3
    endloop
  endfacet
  facet normal -0.866024 0.500003 0
    outer loop
      vertex -49.6539 -1.70458 -3
      vertex -49.3507 -1.17954 3
      vertex -49.3507 -1.17954 -3
    endloop
  endfacet
  facet normal -0.866024 0.500003 0
    outer loop
      vertex -49.3507 -1.17954 3
      vertex -49.6539 -1.70458 -3
      vertex -49.6539 -1.70458 3
    endloop
  endfacet
  facet normal -0.866024 -0.500003 0
    outer loop
      vertex -49.3507 1.17954 -3
      vertex -49.6539 1.70458 3
      vertex -49.6539 1.70458 -3
    endloop
  endfacet
  facet normal -0.866024 -0.500003 0
    outer loop
      vertex -49.6539 1.70458 3
      vertex -49.3507 1.17954 -3
      vertex -49.3507 1.17954 3
    endloop
  endfacet
  facet normal -0.951058 -0.309013 0
    outer loop
      vertex -49.1634 0.602943 -3
      vertex -49.3507 1.17954 3
      vertex -49.3507 1.17954 -3
    endloop
  endfacet
  facet normal -0.951058 -0.309013 0
    outer loop
      vertex -49.3507 1.17954 3
      vertex -49.1634 0.602943 -3
      vertex -49.1634 0.602943 3
    endloop
  endfacet
  facet normal -0.743146 -0.66913 0
    outer loop
      vertex -49.6539 1.70458 -3
      vertex -50.0595 2.15512 3
      vertex -50.0595 2.15512 -3
    endloop
  endfacet
  facet normal -0.743146 -0.66913 0
    outer loop
      vertex -50.0595 2.15512 3
      vertex -49.6539 1.70458 -3
      vertex -49.6539 1.70458 3
    endloop
  endfacet
  facet normal -0.207912 -0.978148 0
    outer loop
      vertex -51.6969 2.88411 -3
      vertex -51.1039 2.75806 3
      vertex -51.6969 2.88411 3
    endloop
  endfacet
  facet normal -0.207912 -0.978148 -0
    outer loop
      vertex -51.1039 2.75806 3
      vertex -51.6969 2.88411 -3
      vertex -51.1039 2.75806 -3
    endloop
  endfacet
  facet normal -0.406735 -0.913546 0
    outer loop
      vertex -51.1039 2.75806 -3
      vertex -50.55 2.51147 3
      vertex -51.1039 2.75806 3
    endloop
  endfacet
  facet normal -0.406735 -0.913546 -0
    outer loop
      vertex -50.55 2.51147 3
      vertex -51.1039 2.75806 -3
      vertex -50.55 2.51147 -3
    endloop
  endfacet
  facet normal 0.866026 -0.499998 0
    outer loop
      vertex -54.6493 1.17954 3
      vertex -54.3461 1.70458 -3
      vertex -54.3461 1.70458 3
    endloop
  endfacet
  facet normal 0.866026 -0.499998 0
    outer loop
      vertex -54.3461 1.70458 -3
      vertex -54.6493 1.17954 3
      vertex -54.6493 1.17954 -3
    endloop
  endfacet
  facet normal 0.743146 -0.66913 0
    outer loop
      vertex -54.3461 1.70458 3
      vertex -53.9405 2.15512 -3
      vertex -53.9405 2.15512 3
    endloop
  endfacet
  facet normal 0.743146 -0.66913 0
    outer loop
      vertex -53.9405 2.15512 -3
      vertex -54.3461 1.70458 3
      vertex -54.3461 1.70458 -3
    endloop
  endfacet
  facet normal 0.951056 -0.309019 0
    outer loop
      vertex -54.8366 0.602943 3
      vertex -54.6493 1.17954 -3
      vertex -54.6493 1.17954 3
    endloop
  endfacet
  facet normal 0.951056 -0.309019 0
    outer loop
      vertex -54.6493 1.17954 -3
      vertex -54.8366 0.602943 3
      vertex -54.8366 0.602943 -3
    endloop
  endfacet
  facet normal 0.207912 -0.978148 0
    outer loop
      vertex -52.8961 2.75806 -3
      vertex -52.3031 2.88411 3
      vertex -52.8961 2.75806 3
    endloop
  endfacet
  facet normal 0.207912 -0.978148 0
    outer loop
      vertex -52.3031 2.88411 3
      vertex -52.8961 2.75806 -3
      vertex -52.3031 2.88411 -3
    endloop
  endfacet
  facet normal -0.587786 0.809017 0
    outer loop
      vertex -50.0595 -2.15512 -3
      vertex -50.55 -2.51147 3
      vertex -50.0595 -2.15512 3
    endloop
  endfacet
  facet normal -0.587786 0.809017 0
    outer loop
      vertex -50.55 -2.51147 3
      vertex -50.0595 -2.15512 -3
      vertex -50.55 -2.51147 -3
    endloop
  endfacet
  facet normal -0.743146 0.66913 0
    outer loop
      vertex -50.0595 -2.15512 -3
      vertex -49.6539 -1.70458 3
      vertex -49.6539 -1.70458 -3
    endloop
  endfacet
  facet normal -0.743146 0.66913 0
    outer loop
      vertex -49.6539 -1.70458 3
      vertex -50.0595 -2.15512 -3
      vertex -50.0595 -2.15512 3
    endloop
  endfacet
  facet normal -0.951058 0.309013 0
    outer loop
      vertex -49.3507 -1.17954 -3
      vertex -49.1634 -0.602943 3
      vertex -49.1634 -0.602943 -3
    endloop
  endfacet
  facet normal -0.951058 0.309013 0
    outer loop
      vertex -49.1634 -0.602943 3
      vertex -49.3507 -1.17954 -3
      vertex -49.3507 -1.17954 3
    endloop
  endfacet
  facet normal -0.994522 0.104531 0
    outer loop
      vertex -49.1634 -0.602943 -3
      vertex -49.1 0 3
      vertex -49.1 0 -3
    endloop
  endfacet
  facet normal -0.994522 0.104531 0
    outer loop
      vertex -49.1 0 3
      vertex -49.1634 -0.602943 -3
      vertex -49.1634 -0.602943 3
    endloop
  endfacet
  facet normal 0.587786 0.809017 -0
    outer loop
      vertex -53.45 -2.51147 -3
      vertex -53.9405 -2.15512 3
      vertex -53.45 -2.51147 3
    endloop
  endfacet
  facet normal 0.587786 0.809017 0
    outer loop
      vertex -53.9405 -2.15512 3
      vertex -53.45 -2.51147 -3
      vertex -53.9405 -2.15512 -3
    endloop
  endfacet
  facet normal 0.866026 0.499998 0
    outer loop
      vertex -54.3461 -1.70458 3
      vertex -54.6493 -1.17954 -3
      vertex -54.6493 -1.17954 3
    endloop
  endfacet
  facet normal 0.866026 0.499998 0
    outer loop
      vertex -54.6493 -1.17954 -3
      vertex -54.3461 -1.70458 3
      vertex -54.3461 -1.70458 -3
    endloop
  endfacet
  facet normal 0.743146 0.66913 0
    outer loop
      vertex -53.9405 -2.15512 3
      vertex -54.3461 -1.70458 -3
      vertex -54.3461 -1.70458 3
    endloop
  endfacet
  facet normal 0.743146 0.66913 0
    outer loop
      vertex -54.3461 -1.70458 -3
      vertex -53.9405 -2.15512 3
      vertex -53.9405 -2.15512 -3
    endloop
  endfacet
  facet normal 0.207912 0.978148 -0
    outer loop
      vertex -52.3031 -2.88411 -3
      vertex -52.8961 -2.75806 3
      vertex -52.3031 -2.88411 3
    endloop
  endfacet
  facet normal 0.207912 0.978148 0
    outer loop
      vertex -52.8961 -2.75806 3
      vertex -52.3031 -2.88411 -3
      vertex -52.8961 -2.75806 -3
    endloop
  endfacet
  facet normal 0.951056 0.309019 0
    outer loop
      vertex -54.6493 -1.17954 3
      vertex -54.8366 -0.602943 -3
      vertex -54.8366 -0.602943 3
    endloop
  endfacet
  facet normal 0.951056 0.309019 0
    outer loop
      vertex -54.8366 -0.602943 -3
      vertex -54.6493 -1.17954 3
      vertex -54.6493 -1.17954 -3
    endloop
  endfacet
  facet normal 0.994522 0.104531 0
    outer loop
      vertex -54.8366 -0.602943 3
      vertex -54.9 0 -3
      vertex -54.9 0 3
    endloop
  endfacet
  facet normal 0.994522 0.104531 0
    outer loop
      vertex -54.9 0 -3
      vertex -54.8366 -0.602943 3
      vertex -54.8366 -0.602943 -3
    endloop
  endfacet
  facet normal -0.406735 0.913546 0
    outer loop
      vertex -50.55 -2.51147 -3
      vertex -51.1039 -2.75806 3
      vertex -50.55 -2.51147 3
    endloop
  endfacet
  facet normal -0.406735 0.913546 0
    outer loop
      vertex -51.1039 -2.75806 3
      vertex -50.55 -2.51147 -3
      vertex -51.1039 -2.75806 -3
    endloop
  endfacet
  facet normal -0.207912 0.978148 0
    outer loop
      vertex -51.1039 -2.75806 -3
      vertex -51.6969 -2.88411 3
      vertex -51.1039 -2.75806 3
    endloop
  endfacet
  facet normal -0.207912 0.978148 0
    outer loop
      vertex -51.6969 -2.88411 3
      vertex -51.1039 -2.75806 -3
      vertex -51.6969 -2.88411 -3
    endloop
  endfacet
  facet normal 0.406735 0.913546 -0
    outer loop
      vertex -52.8961 -2.75806 -3
      vertex -53.45 -2.51147 3
      vertex -52.8961 -2.75806 3
    endloop
  endfacet
  facet normal 0.406735 0.913546 0
    outer loop
      vertex -53.45 -2.51147 3
      vertex -52.8961 -2.75806 -3
      vertex -53.45 -2.51147 -3
    endloop
  endfacet
  facet normal -0.994522 -0.104531 0
    outer loop
      vertex 54.9 0 -3
      vertex 54.8366 0.602943 3
      vertex 54.8366 0.602943 -3
    endloop
  endfacet
  facet normal -0.994522 -0.104531 0
    outer loop
      vertex 54.8366 0.602943 3
      vertex 54.9 0 -3
      vertex 54.9 0 3
    endloop
  endfacet
  facet normal 0.994522 -0.104531 0
    outer loop
      vertex 49.1 0 3
      vertex 49.1634 0.602943 -3
      vertex 49.1634 0.602943 3
    endloop
  endfacet
  facet normal 0.994522 -0.104531 0
    outer loop
      vertex 49.1634 0.602943 -3
      vertex 49.1 0 3
      vertex 49.1 0 -3
    endloop
  endfacet
  facet normal 0 -1 0
    outer loop
      vertex 51.6969 2.88411 -3
      vertex 52.3031 2.88411 3
      vertex 51.6969 2.88411 3
    endloop
  endfacet
  facet normal 0 -1 -0
    outer loop
      vertex 52.3031 2.88411 3
      vertex 51.6969 2.88411 -3
      vertex 52.3031 2.88411 -3
    endloop
  endfacet
  facet normal 0 1 -0
    outer loop
      vertex 52.3031 -2.88411 -3
      vertex 51.6969 -2.88411 3
      vertex 52.3031 -2.88411 3
    endloop
  endfacet
  facet normal 0 1 0
    outer loop
      vertex 51.6969 -2.88411 3
      vertex 52.3031 -2.88411 -3
      vertex 51.6969 -2.88411 -3
    endloop
  endfacet
  facet normal -0.587786 -0.809017 0
    outer loop
      vertex 53.45 2.51147 -3
      vertex 53.9405 2.15512 3
      vertex 53.45 2.51147 3
    endloop
  endfacet
  facet normal -0.587786 -0.809017 -0
    outer loop
      vertex 53.9405 2.15512 3
      vertex 53.45 2.51147 -3
      vertex 53.9405 2.15512 -3
    endloop
  endfacet
  facet normal 0.587786 -0.809017 0
    outer loop
      vertex 50.0595 2.15512 -3
      vertex 50.55 2.51147 3
      vertex 50.0595 2.15512 3
    endloop
  endfacet
  facet normal 0.587786 -0.809017 0
    outer loop
      vertex 50.55 2.51147 3
      vertex 50.0595 2.15512 -3
      vertex 50.55 2.51147 -3
    endloop
  endfacet
  facet normal 0.406735 -0.913546 0
    outer loop
      vertex 50.55 2.51147 -3
      vertex 51.1039 2.75806 3
      vertex 50.55 2.51147 3
    endloop
  endfacet
  facet normal 0.406735 -0.913546 0
    outer loop
      vertex 51.1039 2.75806 3
      vertex 50.55 2.51147 -3
      vertex 51.1039 2.75806 -3
    endloop
  endfacet
  facet normal -0.866026 0.499998 0
    outer loop
      vertex 54.3461 -1.70458 -3
      vertex 54.6493 -1.17954 3
      vertex 54.6493 -1.17954 -3
    endloop
  endfacet
  facet normal -0.866026 0.499998 0
    outer loop
      vertex 54.6493 -1.17954 3
      vertex 54.3461 -1.70458 -3
      vertex 54.3461 -1.70458 3
    endloop
  endfacet
  facet normal -0.866026 -0.499998 0
    outer loop
      vertex 54.6493 1.17954 -3
      vertex 54.3461 1.70458 3
      vertex 54.3461 1.70458 -3
    endloop
  endfacet
  facet normal -0.866026 -0.499998 0
    outer loop
      vertex 54.3461 1.70458 3
      vertex 54.6493 1.17954 -3
      vertex 54.6493 1.17954 3
    endloop
  endfacet
  facet normal -0.951056 -0.309019 0
    outer loop
      vertex 54.8366 0.602943 -3
      vertex 54.6493 1.17954 3
      vertex 54.6493 1.17954 -3
    endloop
  endfacet
  facet normal -0.951056 -0.309019 0
    outer loop
      vertex 54.6493 1.17954 3
      vertex 54.8366 0.602943 -3
      vertex 54.8366 0.602943 3
    endloop
  endfacet
  facet normal -0.743146 -0.66913 0
    outer loop
      vertex 54.3461 1.70458 -3
      vertex 53.9405 2.15512 3
      vertex 53.9405 2.15512 -3
    endloop
  endfacet
  facet normal -0.743146 -0.66913 0
    outer loop
      vertex 53.9405 2.15512 3
      vertex 54.3461 1.70458 -3
      vertex 54.3461 1.70458 3
    endloop
  endfacet
  facet normal -0.207912 -0.978148 0
    outer loop
      vertex 52.3031 2.88411 -3
      vertex 52.8961 2.75806 3
      vertex 52.3031 2.88411 3
    endloop
  endfacet
  facet normal -0.207912 -0.978148 -0
    outer loop
      vertex 52.8961 2.75806 3
      vertex 52.3031 2.88411 -3
      vertex 52.8961 2.75806 -3
    endloop
  endfacet
  facet normal -0.406735 -0.913546 0
    outer loop
      vertex 52.8961 2.75806 -3
      vertex 53.45 2.51147 3
      vertex 52.8961 2.75806 3
    endloop
  endfacet
  facet normal -0.406735 -0.913546 -0
    outer loop
      vertex 53.45 2.51147 3
      vertex 52.8961 2.75806 -3
      vertex 53.45 2.51147 -3
    endloop
  endfacet
  facet normal 0.866024 -0.500003 0
    outer loop
      vertex 49.3507 1.17954 3
      vertex 49.6539 1.70458 -3
      vertex 49.6539 1.70458 3
    endloop
  endfacet
  facet normal 0.866024 -0.500003 0
    outer loop
      vertex 49.6539 1.70458 -3
      vertex 49.3507 1.17954 3
      vertex 49.3507 1.17954 -3
    endloop
  endfacet
  facet normal 0.743146 -0.66913 0
    outer loop
      vertex 49.6539 1.70458 3
      vertex 50.0595 2.15512 -3
      vertex 50.0595 2.15512 3
    endloop
  endfacet
  facet normal 0.743146 -0.66913 0
    outer loop
      vertex 50.0595 2.15512 -3
      vertex 49.6539 1.70458 3
      vertex 49.6539 1.70458 -3
    endloop
  endfacet
  facet normal 0.951058 -0.309013 0
    outer loop
      vertex 49.1634 0.602943 3
      vertex 49.3507 1.17954 -3
      vertex 49.3507 1.17954 3
    endloop
  endfacet
  facet normal 0.951058 -0.309013 0
    outer loop
      vertex 49.3507 1.17954 -3
      vertex 49.1634 0.602943 3
      vertex 49.1634 0.602943 -3
    endloop
  endfacet
  facet normal 0.207912 -0.978148 0
    outer loop
      vertex 51.1039 2.75806 -3
      vertex 51.6969 2.88411 3
      vertex 51.1039 2.75806 3
    endloop
  endfacet
  facet normal 0.207912 -0.978148 0
    outer loop
      vertex 51.6969 2.88411 3
      vertex 51.1039 2.75806 -3
      vertex 51.6969 2.88411 -3
    endloop
  endfacet
  facet normal -0.994522 0.104531 0
    outer loop
      vertex 54.8366 -0.602943 -3
      vertex 54.9 0 3
      vertex 54.9 0 -3
    endloop
  endfacet
  facet normal -0.994522 0.104531 0
    outer loop
      vertex 54.9 0 3
      vertex 54.8366 -0.602943 -3
      vertex 54.8366 -0.602943 3
    endloop
  endfacet
  facet normal -0.587786 0.809017 0
    outer loop
      vertex 53.9405 -2.15512 -3
      vertex 53.45 -2.51147 3
      vertex 53.9405 -2.15512 3
    endloop
  endfacet
  facet normal -0.587786 0.809017 0
    outer loop
      vertex 53.45 -2.51147 3
      vertex 53.9405 -2.15512 -3
      vertex 53.45 -2.51147 -3
    endloop
  endfacet
  facet normal -0.743146 0.66913 0
    outer loop
      vertex 53.9405 -2.15512 -3
      vertex 54.3461 -1.70458 3
      vertex 54.3461 -1.70458 -3
    endloop
  endfacet
  facet normal -0.743146 0.66913 0
    outer loop
      vertex 54.3461 -1.70458 3
      vertex 53.9405 -2.15512 -3
      vertex 53.9405 -2.15512 3
    endloop
  endfacet
  facet normal -0.951056 0.309019 0
    outer loop
      vertex 54.6493 -1.17954 -3
      vertex 54.8366 -0.602943 3
      vertex 54.8366 -0.602943 -3
    endloop
  endfacet
  facet normal -0.951056 0.309019 0
    outer loop
      vertex 54.8366 -0.602943 3
      vertex 54.6493 -1.17954 -3
      vertex 54.6493 -1.17954 3
    endloop
  endfacet
  facet normal 0.866024 0.500003 0
    outer loop
      vertex 49.6539 -1.70458 3
      vertex 49.3507 -1.17954 -3
      vertex 49.3507 -1.17954 3
    endloop
  endfacet
  facet normal 0.866024 0.500003 0
    outer loop
      vertex 49.3507 -1.17954 -3
      vertex 49.6539 -1.70458 3
      vertex 49.6539 -1.70458 -3
    endloop
  endfacet
  facet normal 0.743146 0.66913 0
    outer loop
      vertex 50.0595 -2.15512 3
      vertex 49.6539 -1.70458 -3
      vertex 49.6539 -1.70458 3
    endloop
  endfacet
  facet normal 0.743146 0.66913 0
    outer loop
      vertex 49.6539 -1.70458 -3
      vertex 50.0595 -2.15512 3
      vertex 50.0595 -2.15512 -3
    endloop
  endfacet
  facet normal 0.951058 0.309013 0
    outer loop
      vertex 49.3507 -1.17954 3
      vertex 49.1634 -0.602943 -3
      vertex 49.1634 -0.602943 3
    endloop
  endfacet
  facet normal 0.951058 0.309013 0
    outer loop
      vertex 49.1634 -0.602943 -3
      vertex 49.3507 -1.17954 3
      vertex 49.3507 -1.17954 -3
    endloop
  endfacet
  facet normal 0.994522 0.104531 0
    outer loop
      vertex 49.1634 -0.602943 3
      vertex 49.1 0 -3
      vertex 49.1 0 3
    endloop
  endfacet
  facet normal 0.994522 0.104531 0
    outer loop
      vertex 49.1 0 -3
      vertex 49.1634 -0.602943 3
      vertex 49.1634 -0.602943 -3
    endloop
  endfacet
  facet normal -0.406735 0.913546 0
    outer loop
      vertex 53.45 -2.51147 -3
      vertex 52.8961 -2.75806 3
      vertex 53.45 -2.51147 3
    endloop
  endfacet
  facet normal -0.406735 0.913546 0
    outer loop
      vertex 52.8961 -2.75806 3
      vertex 53.45 -2.51147 -3
      vertex 52.8961 -2.75806 -3
    endloop
  endfacet
  facet normal -0.207912 0.978148 0
    outer loop
      vertex 52.8961 -2.75806 -3
      vertex 52.3031 -2.88411 3
      vertex 52.8961 -2.75806 3
    endloop
  endfacet
  facet normal -0.207912 0.978148 0
    outer loop
      vertex 52.3031 -2.88411 3
      vertex 52.8961 -2.75806 -3
      vertex 52.3031 -2.88411 -3
    endloop
  endfacet
  facet normal 0.406735 0.913546 -0
    outer loop
      vertex 51.1039 -2.75806 -3
      vertex 50.55 -2.51147 3
      vertex 51.1039 -2.75806 3
    endloop
  endfacet
  facet normal 0.406735 0.913546 0
    outer loop
      vertex 50.55 -2.51147 3
      vertex 51.1039 -2.75806 -3
      vertex 50.55 -2.51147 -3
    endloop
  endfacet
  facet normal 0.587786 0.809017 -0
    outer loop
      vertex 50.55 -2.51147 -3
      vertex 50.0595 -2.15512 3
      vertex 50.55 -2.51147 3
    endloop
  endfacet
  facet normal 0.587786 0.809017 0
    outer loop
      vertex 50.0595 -2.15512 3
      vertex 50.55 -2.51147 -3
      vertex 50.0595 -2.15512 -3
    endloop
  endfacet
  facet normal 0.207912 0.978148 -0
    outer loop
      vertex 51.6969 -2.88411 -3
      vertex 51.1039 -2.75806 3
      vertex 51.6969 -2.88411 3
    endloop
  endfacet
  facet normal 0.207912 0.978148 0
    outer loop
      vertex 51.1039 -2.75806 3
      vertex 51.6969 -2.88411 -3
      vertex 51.1039 -2.75806 -3
    endloop
  endfacet
  facet normal -0.996917 -0.0784599 0
    outer loop
      vertex 6.2 0 -3
      vertex 6.12367 0.969893 3
      vertex 6.12367 0.969893 -3
    endloop
  endfacet
  facet normal -0.996917 -0.0784599 0
    outer loop
      vertex 6.12367 0.969893 3
      vertex 6.2 0 -3
      vertex 6.2 0 3
    endloop
  endfacet
  facet normal 0.85264 -0.522498 0
    outer loop
      vertex -5.52424 2.81474 3
      vertex -5.0159 3.64427 -3
      vertex -5.0159 3.64427 3
    endloop
  endfacet
  facet normal 0.85264 -0.522498 0
    outer loop
      vertex -5.0159 3.64427 -3
      vertex -5.52424 2.81474 3
      vertex -5.52424 2.81474 -3
    endloop
  endfacet
  facet normal -0.233445 -0.97237 0
    outer loop
      vertex 0.969893 6.12367 -3
      vertex 1.9159 5.89655 3
      vertex 0.969893 6.12367 3
    endloop
  endfacet
  facet normal -0.233445 -0.97237 -0
    outer loop
      vertex 1.9159 5.89655 3
      vertex 0.969893 6.12367 -3
      vertex 1.9159 5.89655 -3
    endloop
  endfacet
  facet normal -1 0 0
    outer loop
      vertex 6.2 -10 -3
      vertex 6.2 0 3
      vertex 6.2 0 -3
    endloop
  endfacet
  facet normal -1 -0 0
    outer loop
      vertex 6.2 0 3
      vertex 6.2 -10 -3
      vertex 6.2 -10 3
    endloop
  endfacet
  facet normal 1 -0 0
    outer loop
      vertex -6.2 -10 3
      vertex -6.2 0 -3
      vertex -6.2 0 3
    endloop
  endfacet
  facet normal 1 0 0
    outer loop
      vertex -6.2 0 -3
      vertex -6.2 -10 3
      vertex -6.2 -10 -3
    endloop
  endfacet
  facet normal -0.760406 -0.649447 0
    outer loop
      vertex 5.0159 3.64427 -3
      vertex 4.38406 4.38406 3
      vertex 4.38406 4.38406 -3
    endloop
  endfacet
  facet normal -0.760406 -0.649447 0
    outer loop
      vertex 4.38406 4.38406 3
      vertex 5.0159 3.64427 -3
      vertex 5.0159 3.64427 3
    endloop
  endfacet
  facet normal 0.382684 -0.923879 0
    outer loop
      vertex -2.81474 5.52424 -3
      vertex -1.9159 5.89655 3
      vertex -2.81474 5.52424 3
    endloop
  endfacet
  facet normal 0.382684 -0.923879 0
    outer loop
      vertex -1.9159 5.89655 3
      vertex -2.81474 5.52424 -3
      vertex -1.9159 5.89655 -3
    endloop
  endfacet
  facet normal -0.923879 -0.382684 0
    outer loop
      vertex 5.89655 1.9159 -3
      vertex 5.52424 2.81474 3
      vertex 5.52424 2.81474 -3
    endloop
  endfacet
  facet normal -0.923879 -0.382684 0
    outer loop
      vertex 5.52424 2.81474 3
      vertex 5.89655 1.9159 -3
      vertex 5.89655 1.9159 3
    endloop
  endfacet
  facet normal 0.996917 -0.0784599 0
    outer loop
      vertex -6.2 0 3
      vertex -6.12367 0.969893 -3
      vertex -6.12367 0.969893 3
    endloop
  endfacet
  facet normal 0.996917 -0.0784599 0
    outer loop
      vertex -6.12367 0.969893 -3
      vertex -6.2 0 3
      vertex -6.2 0 -3
    endloop
  endfacet
  facet normal 0.923879 -0.382684 0
    outer loop
      vertex -5.89655 1.9159 3
      vertex -5.52424 2.81474 -3
      vertex -5.52424 2.81474 3
    endloop
  endfacet
  facet normal 0.923879 -0.382684 0
    outer loop
      vertex -5.52424 2.81474 -3
      vertex -5.89655 1.9159 3
      vertex -5.89655 1.9159 -3
    endloop
  endfacet
  facet normal 0.649447 -0.760406 0
    outer loop
      vertex -4.38406 4.38406 -3
      vertex -3.64427 5.0159 3
      vertex -4.38406 4.38406 3
    endloop
  endfacet
  facet normal 0.649447 -0.760406 0
    outer loop
      vertex -3.64427 5.0159 3
      vertex -4.38406 4.38406 -3
      vertex -3.64427 5.0159 -3
    endloop
  endfacet
  facet normal 0.0784599 -0.996917 0
    outer loop
      vertex -0.969893 6.12367 -3
      vertex 0 6.2 3
      vertex -0.969893 6.12367 3
    endloop
  endfacet
  facet normal 0.0784599 -0.996917 0
    outer loop
      vertex 0 6.2 3
      vertex -0.969893 6.12367 -3
      vertex 0 6.2 -3
    endloop
  endfacet
  facet normal -0.0784599 -0.996917 0
    outer loop
      vertex 0 6.2 -3
      vertex 0.969893 6.12367 3
      vertex 0 6.2 3
    endloop
  endfacet
  facet normal -0.0784599 -0.996917 -0
    outer loop
      vertex 0.969893 6.12367 3
      vertex 0 6.2 -3
      vertex 0.969893 6.12367 -3
    endloop
  endfacet
  facet normal 0.233445 -0.97237 0
    outer loop
      vertex -1.9159 5.89655 -3
      vertex -0.969893 6.12367 3
      vertex -1.9159 5.89655 3
    endloop
  endfacet
  facet normal 0.233445 -0.97237 0
    outer loop
      vertex -0.969893 6.12367 3
      vertex -1.9159 5.89655 -3
      vertex -0.969893 6.12367 -3
    endloop
  endfacet
  facet normal 0.522498 -0.85264 0
    outer loop
      vertex -3.64427 5.0159 -3
      vertex -2.81474 5.52424 3
      vertex -3.64427 5.0159 3
    endloop
  endfacet
  facet normal 0.522498 -0.85264 0
    outer loop
      vertex -2.81474 5.52424 3
      vertex -3.64427 5.0159 -3
      vertex -2.81474 5.52424 -3
    endloop
  endfacet
  facet normal 0.760406 -0.649447 0
    outer loop
      vertex -5.0159 3.64427 3
      vertex -4.38406 4.38406 -3
      vertex -4.38406 4.38406 3
    endloop
  endfacet
  facet normal 0.760406 -0.649447 0
    outer loop
      vertex -4.38406 4.38406 -3
      vertex -5.0159 3.64427 3
      vertex -5.0159 3.64427 -3
    endloop
  endfacet
  facet normal -0.522498 -0.85264 0
    outer loop
      vertex 2.81474 5.52424 -3
      vertex 3.64427 5.0159 3
      vertex 2.81474 5.52424 3
    endloop
  endfacet
  facet normal -0.522498 -0.85264 -0
    outer loop
      vertex 3.64427 5.0159 3
      vertex 2.81474 5.52424 -3
      vertex 3.64427 5.0159 -3
    endloop
  endfacet
  facet normal -0.649447 -0.760406 0
    outer loop
      vertex 3.64427 5.0159 -3
      vertex 4.38406 4.38406 3
      vertex 3.64427 5.0159 3
    endloop
  endfacet
  facet normal -0.649447 -0.760406 -0
    outer loop
      vertex 4.38406 4.38406 3
      vertex 3.64427 5.0159 -3
      vertex 4.38406 4.38406 -3
    endloop
  endfacet
  facet normal -0.382684 -0.923879 0
    outer loop
      vertex 1.9159 5.89655 -3
      vertex 2.81474 5.52424 3
      vertex 1.9159 5.89655 3
    endloop
  endfacet
  facet normal -0.382684 -0.923879 -0
    outer loop
      vertex 2.81474 5.52424 3
      vertex 1.9159 5.89655 -3
      vertex 2.81474 5.52424 -3
    endloop
  endfacet
  facet normal -0.85264 -0.522498 0
    outer loop
      vertex 5.52424 2.81474 -3
      vertex 5.0159 3.64427 3
      vertex 5.0159 3.64427 -3
    endloop
  endfacet
  facet normal -0.85264 -0.522498 0
    outer loop
      vertex 5.0159 3.64427 3
      vertex 5.52424 2.81474 -3
      vertex 5.52424 2.81474 3
    endloop
  endfacet
  facet normal -0.97237 -0.233445 0
    outer loop
      vertex 6.12367 0.969893 -3
      vertex 5.89655 1.9159 3
      vertex 5.89655 1.9159 -3
    endloop
  endfacet
  facet normal -0.97237 -0.233445 0
    outer loop
      vertex 5.89655 1.9159 3
      vertex 6.12367 0.969893 -3
      vertex 6.12367 0.969893 3
    endloop
  endfacet
  facet normal 0.97237 -0.233445 0
    outer loop
      vertex -6.12367 0.969893 3
      vertex -5.89655 1.9159 -3
      vertex -5.89655 1.9159 3
    endloop
  endfacet
  facet normal 0.97237 -0.233445 0
    outer loop
      vertex -5.89655 1.9159 -3
      vertex -6.12367 0.969893 3
      vertex -6.12367 0.969893 -3
    endloop
  endfacet
endsolid OpenSCAD_Model
