solid OpenSCAD_Model
  facet normal -6.12323e-17 -1 0
    outer loop
      vertex 8.999 5.5722e-15 -0.5
      vertex 191.001 -5.5722e-15 0.5
      vertex 8.999 5.5722e-15 0.5
    endloop
  endfacet
  facet normal -6.12323e-17 -1 -0
    outer loop
      vertex 191.001 -5.5722e-15 0.5
      vertex 8.999 5.5722e-15 -0.5
      vertex 191.001 -5.5722e-15 -0.5
    endloop
  endfacet
  facet normal -0 0 1
    outer loop
      vertex 4.89859e-15 180 0.5
      vertex 8.999 20 0.5
      vertex 8.999 180 0.5
    endloop
  endfacet
  facet normal 0 0 1
    outer loop
      vertex 8.999 20 0.5
      vertex 4.89859e-15 180 0.5
      vertex -4.89859e-15 20 0.5
    endloop
  endfacet
  facet normal 0 0 1
    outer loop
      vertex 8.999 180 0.5
      vertex 191.001 180 0.5
      vertex 191.001 200 0.5
    endloop
  endfacet
  facet normal 0 0 1
    outer loop
      vertex 8.999 180 0.5
      vertex 191.001 200 0.5
      vertex 8.999 200 0.5
    endloop
  endfacet
  facet normal 0 0 1
    outer loop
      vertex 191.001 180 0.5
      vertex 8.999 180 0.5
      vertex 191.001 20 0.5
    endloop
  endfacet
  facet normal 0 0 1
    outer loop
      vertex 8.999 20 0.5
      vertex 191.001 20 0.5
      vertex 8.999 180 0.5
    endloop
  endfacet
  facet normal 0 0 1
    outer loop
      vertex 191.001 20 0.5
      vertex 8.999 20 0.5
      vertex 191.001 -5.5722e-15 0.5
    endloop
  endfacet
  facet normal 0 0 1
    outer loop
      vertex 191.001 -5.5722e-15 0.5
      vertex 8.999 20 0.5
      vertex 8.999 5.5722e-15 0.5
    endloop
  endfacet
  facet normal -0 0 1
    outer loop
      vertex 191.001 180 0.5
      vertex 200 20 0.5
      vertex 200 180 0.5
    endloop
  endfacet
  facet normal 0 0 1
    outer loop
      vertex 200 20 0.5
      vertex 191.001 180 0.5
      vertex 191.001 20 0.5
    endloop
  endfacet
  facet normal 0 1 -0
    outer loop
      vertex 191.001 200 -0.5
      vertex 8.999 200 0.5
      vertex 191.001 200 0.5
    endloop
  endfacet
  facet normal 0 1 0
    outer loop
      vertex 8.999 200 0.5
      vertex 191.001 200 -0.5
      vertex 8.999 200 -0.5
    endloop
  endfacet
  facet normal -1 6.12323e-17 0
    outer loop
      vertex -4.89859e-15 20 -0.5
      vertex 4.89859e-15 180 0.5
      vertex 4.89859e-15 180 -0.5
    endloop
  endfacet
  facet normal -1 6.12323e-17 0
    outer loop
      vertex 4.89859e-15 180 0.5
      vertex -4.89859e-15 20 -0.5
      vertex -4.89859e-15 20 0.5
    endloop
  endfacet
  facet normal 0 0 -1
    outer loop
      vertex 8.999 20 -0.5
      vertex 4.89859e-15 180 -0.5
      vertex 8.999 180 -0.5
    endloop
  endfacet
  facet normal 0 -0 -1
    outer loop
      vertex 4.89859e-15 180 -0.5
      vertex 8.999 20 -0.5
      vertex -4.89859e-15 20 -0.5
    endloop
  endfacet
  facet normal 0 0 -1
    outer loop
      vertex 200 20 -0.5
      vertex 191.001 180 -0.5
      vertex 200 180 -0.5
    endloop
  endfacet
  facet normal 0 0 -1
    outer loop
      vertex 191.001 20 -0.5
      vertex 191.001 180 -0.5
      vertex 200 20 -0.5
    endloop
  endfacet
  facet normal 0 0 -1
    outer loop
      vertex 8.999 180 -0.5
      vertex 191.001 180 -0.5
      vertex 191.001 20 -0.5
    endloop
  endfacet
  facet normal 0 0 -1
    outer loop
      vertex 8.999 20 -0.5
      vertex 191.001 20 -0.5
      vertex 8.999 5.5722e-15 -0.5
    endloop
  endfacet
  facet normal 0 0 -1
    outer loop
      vertex 8.999 180 -0.5
      vertex 191.001 20 -0.5
      vertex 8.999 20 -0.5
    endloop
  endfacet
  facet normal 0 0 -1
    outer loop
      vertex 191.001 180 -0.5
      vertex 8.999 180 -0.5
      vertex 191.001 200 -0.5
    endloop
  endfacet
  facet normal -0 0 -1
    outer loop
      vertex 191.001 200 -0.5
      vertex 8.999 180 -0.5
      vertex 8.999 200 -0.5
    endloop
  endfacet
  facet normal 0 0 -1
    outer loop
      vertex 191.001 -5.5722e-15 -0.5
      vertex 8.999 5.5722e-15 -0.5
      vertex 191.001 20 -0.5
    endloop
  endfacet
  facet normal 1 -0 0
    outer loop
      vertex 200 20 0.5
      vertex 200 180 -0.5
      vertex 200 180 0.5
    endloop
  endfacet
  facet normal 1 0 0
    outer loop
      vertex 200 180 -0.5
      vertex 200 20 0.5
      vertex 200 20 -0.5
    endloop
  endfacet
  facet normal 0 1 -0
    outer loop
      vertex 8.999 180 -0.5
      vertex 4.89859e-15 180 0.5
      vertex 8.999 180 0.5
    endloop
  endfacet
  facet normal 0 1 0
    outer loop
      vertex 4.89859e-15 180 0.5
      vertex 8.999 180 -0.5
      vertex 4.89859e-15 180 -0.5
    endloop
  endfacet
  facet normal -1 0 0
    outer loop
      vertex 8.999 180 -0.5
      vertex 8.999 200 0.5
      vertex 8.999 200 -0.5
    endloop
  endfacet
  facet normal -1 -0 0
    outer loop
      vertex 8.999 200 0.5
      vertex 8.999 180 -0.5
      vertex 8.999 180 0.5
    endloop
  endfacet
  facet normal 0 1 -0
    outer loop
      vertex 200 180 -0.5
      vertex 191.001 180 0.5
      vertex 200 180 0.5
    endloop
  endfacet
  facet normal 0 1 0
    outer loop
      vertex 191.001 180 0.5
      vertex 200 180 -0.5
      vertex 191.001 180 -0.5
    endloop
  endfacet
  facet normal 1 -0 0
    outer loop
      vertex 191.001 180 0.5
      vertex 191.001 200 -0.5
      vertex 191.001 200 0.5
    endloop
  endfacet
  facet normal 1 0 0
    outer loop
      vertex 191.001 200 -0.5
      vertex 191.001 180 0.5
      vertex 191.001 180 -0.5
    endloop
  endfacet
  facet normal 0 -1 0
    outer loop
      vertex -4.89859e-15 20 -0.5
      vertex 8.999 20 0.5
      vertex -4.89859e-15 20 0.5
    endloop
  endfacet
  facet normal 0 -1 -0
    outer loop
      vertex 8.999 20 0.5
      vertex -4.89859e-15 20 -0.5
      vertex 8.999 20 -0.5
    endloop
  endfacet
  facet normal -1 0 0
    outer loop
      vertex 8.999 5.5722e-15 -0.5
      vertex 8.999 20 0.5
      vertex 8.999 20 -0.5
    endloop
  endfacet
  facet normal -1 -0 0
    outer loop
      vertex 8.999 20 0.5
      vertex 8.999 5.5722e-15 -0.5
      vertex 8.999 5.5722e-15 0.5
    endloop
  endfacet
  facet normal 0 -1 0
    outer loop
      vertex 191.001 20 -0.5
      vertex 200 20 0.5
      vertex 191.001 20 0.5
    endloop
  endfacet
  facet normal 0 -1 -0
    outer loop
      vertex 200 20 0.5
      vertex 191.001 20 -0.5
      vertex 200 20 -0.5
    endloop
  endfacet
  facet normal 1 -0 0
    outer loop
      vertex 191.001 -5.5722e-15 0.5
      vertex 191.001 20 -0.5
      vertex 191.001 20 0.5
    endloop
  endfacet
  facet normal 1 0 0
    outer loop
      vertex 191.001 20 -0.5
      vertex 191.001 -5.5722e-15 0.5
      vertex 191.001 -5.5722e-15 -0.5
    endloop
  endfacet
endsolid OpenSCAD_Model
