<?xml version="1.0" standalone="no"?>
<!DOCTYPE svg PUBLIC "-//W3C//DTD SVG 1.1//EN" "http://www.w3.org/Graphics/SVG/1.1/DTD/svg11.dtd">
<svg width="40" height="40" viewBox="-20 -20 40 40" xmlns="http://www.w3.org/2000/svg" version="1.1">
<title>OpenSCAD Model</title>
<path d="
M 20,-20 L -20,-20 L -20,20 L 20,20 z
M -15.6404,-13.7501 L -15.7496,-13.7628 L -15.8578,-13.7822 L -15.9646,-13.8085 L -16.0695,-13.8413 L -16.1721,-13.8807
 L -16.2721,-13.9265 L -16.369,-13.9785 L -16.4624,-14.0364 L -16.552,-14.1001 L -16.6375,-14.1693 L -16.7184,-14.2437
 L -16.7945,-14.323 L -16.8654,-14.407 L -16.931,-14.4953 L -16.9909,-14.5874 L -17.0448,-14.6832 L -17.0927,-14.7822
 L -17.1342,-14.884 L -17.1693,-14.9882 L -17.1977,-15.0944 L -17.2195,-15.2021 L -17.2344,-15.3111 L -17.2424,-15.4207
 L -17.2436,-15.5306 L -17.2378,-15.6404 L -17.2252,-15.7496 L -17.2057,-15.8578 L -17.1795,-15.9646 L -17.1466,-16.0695
 L -17.1072,-16.1721 L -17.0615,-16.2721 L -17.0095,-16.369 L -16.9516,-16.4624 L -16.8879,-16.552 L -16.8187,-16.6375
 L -16.7443,-16.7184 L -16.665,-16.7945 L -16.581,-16.8654 L -16.4927,-16.931 L -16.4005,-16.9909 L -16.3047,-17.0448
 L -16.2058,-17.0927 L -16.104,-17.1342 L -15.9998,-17.1693 L -15.8936,-17.1977 L -15.7858,-17.2195 L -15.6769,-17.2344
 L -15.5673,-17.2424 L -15.4574,-17.2436 L -15.3476,-17.2378 L -15.2384,-17.2252 L -15.1302,-17.2057 L -15.0234,-17.1795
 L -14.9185,-17.1466 L -14.8158,-17.1072 L -14.7159,-17.0615 L -14.619,-17.0095 L -14.5256,-16.9516 L -14.4359,-16.8879
 L -14.3505,-16.8187 L -14.2696,-16.7443 L -14.1935,-16.665 L -14.1225,-16.581 L -14.057,-16.4927 L -13.9971,-16.4005
 L -13.9431,-16.3047 L -13.8953,-16.2058 L -13.8538,-16.104 L -13.8187,-15.9998 L -13.7902,-15.8936 L -13.7685,-15.7858
 L -13.7536,-15.6769 L -13.7455,-15.5673 L -13.7444,-15.4574 L -13.7501,-15.3476 L -13.7628,-15.2384 L -13.7822,-15.1302
 L -13.8085,-15.0234 L -13.8413,-14.9185 L -13.8807,-14.8158 L -13.9265,-14.7159 L -13.9785,-14.619 L -14.0364,-14.5256
 L -14.1001,-14.4359 L -14.1693,-14.3505 L -14.2437,-14.2696 L -14.323,-14.1935 L -14.407,-14.1225 L -14.4953,-14.057
 L -14.5874,-13.9971 L -14.6832,-13.9431 L -14.7822,-13.8953 L -14.884,-13.8538 L -14.9882,-13.8187 L -15.0944,-13.7902
 L -15.2021,-13.7685 L -15.3111,-13.7536 L -15.4207,-13.7455 L -15.5306,-13.7444 z
M 15.3476,-13.7501 L 15.2384,-13.7628 L 15.1302,-13.7822 L 15.0234,-13.8085 L 14.9185,-13.8413 L 14.8158,-13.8807
 L 14.7159,-13.9265 L 14.619,-13.9785 L 14.5256,-14.0364 L 14.4359,-14.1001 L 14.3505,-14.1693 L 14.2696,-14.2437
 L 14.1935,-14.323 L 14.1225,-14.407 L 14.057,-14.4953 L 13.9971,-14.5874 L 13.9431,-14.6832 L 13.8953,-14.7822
 L 13.8538,-14.884 L 13.8187,-14.9882 L 13.7902,-15.0944 L 13.7685,-15.2021 L 13.7536,-15.3111 L 13.7455,-15.4207
 L 13.7444,-15.5306 L 13.7501,-15.6404 L 13.7628,-15.7496 L 13.7822,-15.8578 L 13.8085,-15.9646 L 13.8413,-16.0695
 L 13.8807,-16.1721 L 13.9265,-16.2721 L 13.9785,-16.369 L 14.0364,-16.4624 L 14.1001,-16.552 L 14.1693,-16.6375
 L 14.2437,-16.7184 L 14.323,-16.7945 L 14.407,-16.8654 L 14.4953,-16.931 L 14.5874,-16.9909 L 14.6832,-17.0448
 L 14.7822,-17.0927 L 14.884,-17.1342 L 14.9882,-17.1693 L 15.0944,-17.1977 L 15.2021,-17.2195 L 15.3111,-17.2344
 L 15.4207,-17.2424 L 15.5306,-17.2436 L 15.6404,-17.2378 L 15.7496,-17.2252 L 15.8578,-17.2057 L 15.9646,-17.1795
 L 16.0695,-17.1466 L 16.1721,-17.1072 L 16.2721,-17.0615 L 16.369,-17.0095 L 16.4624,-16.9516 L 16.552,-16.8879
 L 16.6375,-16.8187 L 16.7184,-16.7443 L 16.7945,-16.665 L 16.8654,-16.581 L 16.931,-16.4927 L 16.9909,-16.4005
 L 17.0448,-16.3047 L 17.0927,-16.2058 L 17.1342,-16.104 L 17.1693,-15.9998 L 17.1977,-15.8936 L 17.2195,-15.7858
 L 17.2344,-15.6769 L 17.2424,-15.5673 L 17.2436,-15.4574 L 17.2378,-15.3476 L 17.2252,-15.2384 L 17.2057,-15.1302
 L 17.1795,-15.0234 L 17.1466,-14.9185 L 17.1072,-14.8158 L 17.0615,-14.7159 L 17.0095,-14.619 L 16.9516,-14.5256
 L 16.8879,-14.4359 L 16.8187,-14.3505 L 16.7443,-14.2696 L 16.665,-14.1935 L 16.581,-14.1225 L 16.4927,-14.057
 L 16.4005,-13.9971 L 16.3047,-13.9431 L 16.2058,-13.8953 L 16.104,-13.8538 L 15.9998,-13.8187 L 15.8936,-13.7902
 L 15.7858,-13.7685 L 15.6769,-13.7536 L 15.5673,-13.7455 L 15.4574,-13.7444 z
M -0.230316,10.9958 L -0.460556,10.9885 L -0.690582,10.9765 L -0.920303,10.9596 L -1.14961,10.9379 L -1.37843,10.9115
 L -1.60664,10.8802 L -1.83415,10.8442 L -2.06085,10.8034 L -2.28665,10.7579 L -2.51144,10.7076 L -2.73514,10.6527
 L -2.95763,10.593 L -3.17882,10.5288 L -3.39862,10.4599 L -3.61693,10.3864 L -3.83366,10.3084 L -4.04871,10.2259
 L -4.26196,10.1388 L -4.47336,10.0473 L -4.6828,9.95146 L -4.89018,9.85121 L -5.09541,9.74664 L -5.29842,9.63779
 L -5.4991,9.52472 L -5.69736,9.40746 L -5.89313,9.28609 L -6.0863,9.16063 L -6.27681,9.03116 L -6.46457,8.89772
 L -6.64949,8.76039 L -6.8315,8.61922 L -7.01051,8.47426 L -7.18645,8.32558 L -7.35922,8.17325 L -7.52878,8.01733
 L -7.69502,7.85791 L -7.85791,7.69502 L -8.01733,7.52878 L -8.17325,7.35922 L -8.32558,7.18645 L -8.47426,7.01051
 L -8.61922,6.8315 L -8.76039,6.64949 L -8.89772,6.46457 L -9.03116,6.27681 L -9.16063,6.0863 L -9.28609,5.89313
 L -9.40746,5.69736 L -9.52472,5.4991 L -9.63779,5.29842 L -9.74664,5.09541 L -9.85121,4.89018 L -9.95146,4.6828
 L -10.0473,4.47336 L -10.1388,4.26196 L -10.2259,4.04871 L -10.3084,3.83366 L -10.3864,3.61693 L -10.4599,3.39862
 L -10.5288,3.17882 L -10.593,2.95763 L -10.6527,2.73514 L -10.7076,2.51144 L -10.7579,2.28665 L -10.8034,2.06085
 L -10.8442,1.83415 L -10.8802,1.60664 L -10.9115,1.37843 L -10.9379,1.14961 L -10.9596,0.920303 L -10.9765,0.690582
 L -10.9885,0.460556 L -10.9958,0.230316 L -10.9982,-0 L -10.9958,-0.230316 L -10.9885,-0.460556 L -10.9765,-0.690582
 L -10.9596,-0.920303 L -10.9379,-1.14961 L -10.9115,-1.37843 L -10.8802,-1.60664 L -10.8442,-1.83415 L -10.8034,-2.06085
 L -10.7579,-2.28665 L -10.7076,-2.51144 L -10.6527,-2.73514 L -10.593,-2.95763 L -10.5288,-3.17882 L -10.4599,-3.39862
 L -10.3864,-3.61693 L -10.3084,-3.83366 L -10.2259,-4.04871 L -10.1388,-4.26196 L -10.0473,-4.47336 L -9.95146,-4.6828
 L -9.85121,-4.89018 L -9.74664,-5.09541 L -9.63779,-5.29842 L -9.52472,-5.4991 L -9.40746,-5.69736 L -9.28609,-5.89313
 L -9.16063,-6.0863 L -9.03116,-6.27681 L -8.89772,-6.46457 L -8.76039,-6.64949 L -8.61922,-6.8315 L -8.47426,-7.01051
 L -8.32558,-7.18645 L -8.17325,-7.35922 L -8.01733,-7.52878 L -7.85791,-7.69502 L -7.69502,-7.85791 L -7.52878,-8.01733
 L -7.35922,-8.17325 L -7.18645,-8.32558 L -7.01051,-8.47426 L -6.8315,-8.61922 L -6.64949,-8.76039 L -6.46457,-8.89772
 L -6.27681,-9.03116 L -6.0863,-9.16063 L -5.89313,-9.28609 L -5.69736,-9.40746 L -5.4991,-9.52472 L -5.29842,-9.63779
 L -5.09541,-9.74664 L -4.89018,-9.85121 L -4.6828,-9.95146 L -4.47336,-10.0473 L -4.26196,-10.1388 L -4.04871,-10.2259
 L -3.83366,-10.3084 L -3.61693,-10.3864 L -3.39862,-10.4599 L -3.17882,-10.5288 L -2.95763,-10.593 L -2.73514,-10.6527
 L -2.51144,-10.7076 L -2.28665,-10.7579 L -2.06085,-10.8034 L -1.83415,-10.8442 L -1.60664,-10.8802 L -1.37843,-10.9115
 L -1.14961,-10.9379 L -0.920303,-10.9596 L -0.690582,-10.9765 L -0.460556,-10.9885 L -0.230316,-10.9958 L 0,-10.9982
 L 0.230316,-10.9958 L 0.460556,-10.9885 L 0.690582,-10.9765 L 0.920303,-10.9596 L 1.14961,-10.9379 L 1.37843,-10.9115
 L 1.60664,-10.8802 L 1.83415,-10.8442 L 2.06085,-10.8034 L 2.28665,-10.7579 L 2.51144,-10.7076 L 2.73514,-10.6527
 L 2.95763,-10.593 L 3.17882,-10.5288 L 3.39862,-10.4599 L 3.61693,-10.3864 L 3.83366,-10.3084 L 4.04871,-10.2259
 L 4.26196,-10.1388 L 4.47336,-10.0473 L 4.6828,-9.95146 L 4.89018,-9.85121 L 5.09541,-9.74664 L 5.29842,-9.63779
 L 5.4991,-9.52472 L 5.69736,-9.40746 L 5.89313,-9.28609 L 6.0863,-9.16063 L 6.27681,-9.03116 L 6.46457,-8.89772
 L 6.64949,-8.76039 L 6.8315,-8.61922 L 7.01051,-8.47426 L 7.18645,-8.32558 L 7.35922,-8.17325 L 7.52878,-8.01733
 L 7.69502,-7.85791 L 7.85791,-7.69502 L 8.01733,-7.52878 L 8.17325,-7.35922 L 8.32558,-7.18645 L 8.47426,-7.01051
 L 8.61922,-6.8315 L 8.76039,-6.64949 L 8.89772,-6.46457 L 9.03116,-6.27681 L 9.16063,-6.0863 L 9.28609,-5.89313
 L 9.40746,-5.69736 L 9.52472,-5.4991 L 9.63779,-5.29842 L 9.74664,-5.09541 L 9.85121,-4.89018 L 9.95146,-4.6828
 L 10.0473,-4.47336 L 10.1388,-4.26196 L 10.2259,-4.04871 L 10.3084,-3.83366 L 10.3864,-3.61693 L 10.4599,-3.39862
 L 10.5288,-3.17882 L 10.593,-2.95763 L 10.6527,-2.73514 L 10.7076,-2.51144 L 10.7579,-2.28665 L 10.8034,-2.06085
 L 10.8442,-1.83415 L 10.8802,-1.60664 L 10.9115,-1.37843 L 10.9379,-1.14961 L 10.9596,-0.920303 L 10.9765,-0.690582
 L 10.9885,-0.460556 L 10.9958,-0.230316 L 10.9982,-0 L 10.9958,0.230316 L 10.9885,0.460556 L 10.9765,0.690582
 L 10.9596,0.920303 L 10.9379,1.14961 L 10.9115,1.37843 L 10.8802,1.60664 L 10.8442,1.83415 L 10.8034,2.06085
 L 10.7579,2.28665 L 10.7076,2.51144 L 10.6527,2.73514 L 10.593,2.95763 L 10.5288,3.17882 L 10.4599,3.39862
 L 10.3864,3.61693 L 10.3084,3.83366 L 10.2259,4.04871 L 10.1388,4.26196 L 10.0473,4.47336 L 9.95146,4.6828
 L 9.85121,4.89018 L 9.74664,5.09541 L 9.63779,5.29842 L 9.52472,5.4991 L 9.40746,5.69736 L 9.28609,5.89313
 L 9.16063,6.0863 L 9.03116,6.27681 L 8.89772,6.46457 L 8.76039,6.64949 L 8.61922,6.8315 L 8.47426,7.01051
 L 8.32558,7.18645 L 8.17325,7.35922 L 8.01733,7.52878 L 7.85791,7.69502 L 7.69502,7.85791 L 7.52878,8.01733
 L 7.35922,8.17325 L 7.18645,8.32558 L 7.01051,8.47426 L 6.8315,8.61922 L 6.64949,8.76039 L 6.46457,8.89772
 L 6.27681,9.03116 L 6.0863,9.16063 L 5.89313,9.28609 L 5.69736,9.40746 L 5.4991,9.52472 L 5.29842,9.63779
 L 5.09541,9.74664 L 4.89018,9.85121 L 4.6828,9.95146 L 4.47336,10.0473 L 4.26196,10.1388 L 4.04871,10.2259
 L 3.83366,10.3084 L 3.61693,10.3864 L 3.39862,10.4599 L 3.17882,10.5288 L 2.95763,10.593 L 2.73514,10.6527
 L 2.51144,10.7076 L 2.28665,10.7579 L 2.06085,10.8034 L 1.83415,10.8442 L 1.60664,10.8802 L 1.37843,10.9115
 L 1.14961,10.9379 L 0.920303,10.9596 L 0.690582,10.9765 L 0.460556,10.9885 L 0.230316,10.9958 L 0,10.9982
 z
M -15.6404,17.2378 L -15.7496,17.2252 L -15.8578,17.2057 L -15.9646,17.1795 L -16.0695,17.1466 L -16.1721,17.1072
 L -16.2721,17.0615 L -16.369,17.0095 L -16.4624,16.9516 L -16.552,16.8879 L -16.6375,16.8187 L -16.7184,16.7443
 L -16.7945,16.665 L -16.8654,16.581 L -16.931,16.4927 L -16.9909,16.4005 L -17.0448,16.3047 L -17.0927,16.2058
 L -17.1342,16.104 L -17.1693,15.9998 L -17.1977,15.8936 L -17.2195,15.7858 L -17.2344,15.6769 L -17.2424,15.5673
 L -17.2436,15.4574 L -17.2378,15.3476 L -17.2252,15.2384 L -17.2057,15.1302 L -17.1795,15.0234 L -17.1466,14.9185
 L -17.1072,14.8158 L -17.0615,14.7159 L -17.0095,14.619 L -16.9516,14.5256 L -16.8879,14.4359 L -16.8187,14.3505
 L -16.7443,14.2696 L -16.665,14.1935 L -16.581,14.1225 L -16.4927,14.057 L -16.4005,13.9971 L -16.3047,13.9431
 L -16.2058,13.8953 L -16.104,13.8538 L -15.9998,13.8187 L -15.8936,13.7902 L -15.7858,13.7685 L -15.6769,13.7536
 L -15.5673,13.7455 L -15.4574,13.7444 L -15.3476,13.7501 L -15.2384,13.7628 L -15.1302,13.7822 L -15.0234,13.8085
 L -14.9185,13.8413 L -14.8158,13.8807 L -14.7159,13.9265 L -14.619,13.9785 L -14.5256,14.0364 L -14.4359,14.1001
 L -14.3505,14.1693 L -14.2696,14.2437 L -14.1935,14.323 L -14.1225,14.407 L -14.057,14.4953 L -13.9971,14.5874
 L -13.9431,14.6832 L -13.8953,14.7822 L -13.8538,14.884 L -13.8187,14.9882 L -13.7902,15.0944 L -13.7685,15.2021
 L -13.7536,15.3111 L -13.7455,15.4207 L -13.7444,15.5306 L -13.7501,15.6404 L -13.7628,15.7496 L -13.7822,15.8578
 L -13.8085,15.9646 L -13.8413,16.0695 L -13.8807,16.1721 L -13.9265,16.2721 L -13.9785,16.369 L -14.0364,16.4624
 L -14.1001,16.552 L -14.1693,16.6375 L -14.2437,16.7184 L -14.323,16.7945 L -14.407,16.8654 L -14.4953,16.931
 L -14.5874,16.9909 L -14.6832,17.0448 L -14.7822,17.0927 L -14.884,17.1342 L -14.9882,17.1693 L -15.0944,17.1977
 L -15.2021,17.2195 L -15.3111,17.2344 L -15.4207,17.2424 L -15.5306,17.2436 z
M 15.3476,17.2378 L 15.2384,17.2252 L 15.1302,17.2057 L 15.0234,17.1795 L 14.9185,17.1466 L 14.8158,17.1072
 L 14.7159,17.0615 L 14.619,17.0095 L 14.5256,16.9516 L 14.4359,16.8879 L 14.3505,16.8187 L 14.2696,16.7443
 L 14.1935,16.665 L 14.1225,16.581 L 14.057,16.4927 L 13.9971,16.4005 L 13.9431,16.3047 L 13.8953,16.2058
 L 13.8538,16.104 L 13.8187,15.9998 L 13.7902,15.8936 L 13.7685,15.7858 L 13.7536,15.6769 L 13.7455,15.5673
 L 13.7444,15.4574 L 13.7501,15.3476 L 13.7628,15.2384 L 13.7822,15.1302 L 13.8085,15.0234 L 13.8413,14.9185
 L 13.8807,14.8158 L 13.9265,14.7159 L 13.9785,14.619 L 14.0364,14.5256 L 14.1001,14.4359 L 14.1693,14.3505
 L 14.2437,14.2696 L 14.323,14.1935 L 14.407,14.1225 L 14.4953,14.057 L 14.5874,13.9971 L 14.6832,13.9431
 L 14.7822,13.8953 L 14.884,13.8538 L 14.9882,13.8187 L 15.0944,13.7902 L 15.2021,13.7685 L 15.3111,13.7536
 L 15.4207,13.7455 L 15.5306,13.7444 L 15.6404,13.7501 L 15.7496,13.7628 L 15.8578,13.7822 L 15.9646,13.8085
 L 16.0695,13.8413 L 16.1721,13.8807 L 16.2721,13.9265 L 16.369,13.9785 L 16.4624,14.0364 L 16.552,14.1001
 L 16.6375,14.1693 L 16.7184,14.2437 L 16.7945,14.323 L 16.8654,14.407 L 16.931,14.4953 L 16.9909,14.5874
 L 17.0448,14.6832 L 17.0927,14.7822 L 17.1342,14.884 L 17.1693,14.9882 L 17.1977,15.0944 L 17.2195,15.2021
 L 17.2344,15.3111 L 17.2424,15.4207 L 17.2436,15.5306 L 17.2378,15.6404 L 17.2252,15.7496 L 17.2057,15.8578
 L 17.1795,15.9646 L 17.1466,16.0695 L 17.1072,16.1721 L 17.0615,16.2721 L 17.0095,16.369 L 16.9516,16.4624
 L 16.8879,16.552 L 16.8187,16.6375 L 16.7443,16.7184 L 16.665,16.7945 L 16.581,16.8654 L 16.4927,16.931
 L 16.4005,16.9909 L 16.3047,17.0448 L 16.2058,17.0927 L 16.104,17.1342 L 15.9998,17.1693 L 15.8936,17.1977
 L 15.7858,17.2195 L 15.6769,17.2344 L 15.5673,17.2424 L 15.4574,17.2436 z
" stroke="black" fill="lightgray" stroke-width="0.5"/></svg>
