solid OpenSCAD_Model
  facet normal -1 -0 -0
    outer loop
      vertex 0 50 5
      vertex 0 50 0
      vertex 0 5 5
    endloop
  endfacet
  facet normal -1 0 0
    outer loop
      vertex 0 0 23
      vertex 0 5 5
      vertex 0 0 0
    endloop
  endfacet
  facet normal -1 -0 -0
    outer loop
      vertex 0 5 23
      vertex 0 5 5
      vertex 0 0 23
    endloop
  endfacet
  facet normal -1 0 -0
    outer loop
      vertex 0 5 5
      vertex 0 50 0
      vertex 0 0 0
    endloop
  endfacet
  facet normal -0 -1 0
    outer loop
      vertex 30 0 23
      vertex 0 0 23
      vertex 25 0 15
    endloop
  endfacet
  facet normal 0 -1 0
    outer loop
      vertex 30 0 0
      vertex 5 0 5
      vertex 0 0 0
    endloop
  endfacet
  facet normal -0 -1 0
    outer loop
      vertex 5 0 15
      vertex 0 0 23
      vertex 0 0 0
    endloop
  endfacet
  facet normal 0 -1 0
    outer loop
      vertex 0 0 23
      vertex 5 0 15
      vertex 25 0 15
    endloop
  endfacet
  facet normal 0 -1 -0
    outer loop
      vertex 5 0 15
      vertex 0 0 0
      vertex 5 0 5
    endloop
  endfacet
  facet normal 0 -1 -0
    outer loop
      vertex 30 0 23
      vertex 25 0 15
      vertex 30 0 0
    endloop
  endfacet
  facet normal 0 -1 0
    outer loop
      vertex 25 0 15
      vertex 25 0 5
      vertex 30 0 0
    endloop
  endfacet
  facet normal -0 -1 -0
    outer loop
      vertex 25 0 5
      vertex 5 0 5
      vertex 30 0 0
    endloop
  endfacet
  facet normal 0 0 -1
    outer loop
      vertex 0 50 0
      vertex 10.1162 37.0427 0
      vertex 0 0 0
    endloop
  endfacet
  facet normal -0 -0 -1
    outer loop
      vertex 10.1162 38.9573 0
      vertex 10.1162 37.0427 0
      vertex 0 50 0
    endloop
  endfacet
  facet normal 0 -0 -1
    outer loop
      vertex 30 50 0
      vertex 30 0 0
      vertex 17.5418 36.1411 0
    endloop
  endfacet
  facet normal 0 -0 -1
    outer loop
      vertex 10.1162 37.0427 0
      vertex 11.006 35.3475 0
      vertex 0 0 0
    endloop
  endfacet
  facet normal 0 -0 -1
    outer loop
      vertex 14.4821 34.0292 0
      vertex 30 0 0
      vertex 0 0 0
    endloop
  endfacet
  facet normal -0 0 -1
    outer loop
      vertex 12.5816 34.2599 0
      vertex 0 0 0
      vertex 11.006 35.3475 0
    endloop
  endfacet
  facet normal -0 0 -1
    outer loop
      vertex 14.4821 34.0292 0
      vertex 0 0 0
      vertex 12.5816 34.2599 0
    endloop
  endfacet
  facet normal 0 0 -1
    outer loop
      vertex 30 0 0
      vertex 16.2723 34.7081 0
      vertex 17.5418 36.1411 0
    endloop
  endfacet
  facet normal 0 -0 -1
    outer loop
      vertex 16.2723 34.7081 0
      vertex 30 0 0
      vertex 14.4821 34.0292 0
    endloop
  endfacet
  facet normal 0 0 -1
    outer loop
      vertex 30 50 0
      vertex 17.5418 36.1411 0
      vertex 18 38 0
    endloop
  endfacet
  facet normal 0 0 -1
    outer loop
      vertex 30 50 0
      vertex 18 38 0
      vertex 17.5418 39.8589 0
    endloop
  endfacet
  facet normal 0 0 -1
    outer loop
      vertex 30 50 0
      vertex 17.5418 39.8589 0
      vertex 16.2723 41.2919 0
    endloop
  endfacet
  facet normal -0 0 -1
    outer loop
      vertex 30 50 0
      vertex 14.4821 41.9708 0
      vertex 0 50 0
    endloop
  endfacet
  facet normal 0 0 -1
    outer loop
      vertex 16.2723 41.2919 0
      vertex 14.4821 41.9708 0
      vertex 30 50 0
    endloop
  endfacet
  facet normal -0 0 -1
    outer loop
      vertex 14.4821 41.9708 0
      vertex 12.5816 41.7401 0
      vertex 0 50 0
    endloop
  endfacet
  facet normal -0 0 -1
    outer loop
      vertex 12.5816 41.7401 0
      vertex 11.006 40.6525 0
      vertex 0 50 0
    endloop
  endfacet
  facet normal -0 0 -1
    outer loop
      vertex 11.006 40.6525 0
      vertex 10.1162 38.9573 0
      vertex 0 50 0
    endloop
  endfacet
  facet normal 0 1 0
    outer loop
      vertex 0 50 5
      vertex 30 50 0
      vertex 0 50 0
    endloop
  endfacet
  facet normal -0 1 0
    outer loop
      vertex 0 50 5
      vertex 30 50 5
      vertex 30 50 0
    endloop
  endfacet
  facet normal 0 0 1
    outer loop
      vertex 10.1162 37.0427 5
      vertex 0 50 5
      vertex 0 5 5
    endloop
  endfacet
  facet normal 0 0 1
    outer loop
      vertex 5 5 5
      vertex 5 0 5
      vertex 25 0 5
    endloop
  endfacet
  facet normal 0 -0 1
    outer loop
      vertex 25 0 5
      vertex 25 5 5
      vertex 5 5 5
    endloop
  endfacet
  facet normal 0 0 1
    outer loop
      vertex 30 50 5
      vertex 0 50 5
      vertex 14.4821 41.9708 5
    endloop
  endfacet
  facet normal 0 0 1
    outer loop
      vertex 0 5 5
      vertex 5 5 5
      vertex 12.5816 34.2599 5
    endloop
  endfacet
  facet normal 0 0 1
    outer loop
      vertex 10.1162 38.9573 5
      vertex 0 50 5
      vertex 10.1162 37.0427 5
    endloop
  endfacet
  facet normal 0 0 1
    outer loop
      vertex 11.006 40.6525 5
      vertex 0 50 5
      vertex 10.1162 38.9573 5
    endloop
  endfacet
  facet normal 0 0 1
    outer loop
      vertex 0 50 5
      vertex 12.5816 41.7401 5
      vertex 14.4821 41.9708 5
    endloop
  endfacet
  facet normal 0 0 1
    outer loop
      vertex 12.5816 41.7401 5
      vertex 0 50 5
      vertex 11.006 40.6525 5
    endloop
  endfacet
  facet normal 0 0 1
    outer loop
      vertex 30 50 5
      vertex 14.4821 41.9708 5
      vertex 16.2723 41.2919 5
    endloop
  endfacet
  facet normal 0 0 1
    outer loop
      vertex 30 50 5
      vertex 16.2723 41.2919 5
      vertex 17.5418 39.8589 5
    endloop
  endfacet
  facet normal 0 0 1
    outer loop
      vertex 30 50 5
      vertex 17.5418 36.1411 5
      vertex 30 5 5
    endloop
  endfacet
  facet normal 0 0 1
    outer loop
      vertex 5 5 5
      vertex 25 5 5
      vertex 14.4821 34.0292 5
    endloop
  endfacet
  facet normal -0 0 1
    outer loop
      vertex 17.5418 39.8589 5
      vertex 18 38 5
      vertex 30 50 5
    endloop
  endfacet
  facet normal 0 0 1
    outer loop
      vertex 16.2723 34.7081 5
      vertex 25 5 5
      vertex 30 5 5
    endloop
  endfacet
  facet normal 0 0 1
    outer loop
      vertex 17.5418 36.1411 5
      vertex 30 50 5
      vertex 18 38 5
    endloop
  endfacet
  facet normal -0 0 1
    outer loop
      vertex 16.2723 34.7081 5
      vertex 30 5 5
      vertex 17.5418 36.1411 5
    endloop
  endfacet
  facet normal -0 0 1
    outer loop
      vertex 14.4821 34.0292 5
      vertex 25 5 5
      vertex 16.2723 34.7081 5
    endloop
  endfacet
  facet normal 0 0 1
    outer loop
      vertex 12.5816 34.2599 5
      vertex 5 5 5
      vertex 14.4821 34.0292 5
    endloop
  endfacet
  facet normal 0 0 1
    outer loop
      vertex 12.5816 34.2599 5
      vertex 11.006 35.3475 5
      vertex 0 5 5
    endloop
  endfacet
  facet normal 0 0 1
    outer loop
      vertex 11.006 35.3475 5
      vertex 10.1162 37.0427 5
      vertex 0 5 5
    endloop
  endfacet
  facet normal 1 0 0
    outer loop
      vertex 30 5 23
      vertex 30 0 23
      vertex 30 5 5
    endloop
  endfacet
  facet normal 1 0 0
    outer loop
      vertex 30 50 0
      vertex 30 5 5
      vertex 30 0 0
    endloop
  endfacet
  facet normal 1 0 0
    outer loop
      vertex 30 50 5
      vertex 30 5 5
      vertex 30 50 0
    endloop
  endfacet
  facet normal 1 0 0
    outer loop
      vertex 30 5 5
      vertex 30 0 23
      vertex 30 0 0
    endloop
  endfacet
  facet normal 1 -0 0
    outer loop
      vertex 10.1162 37.0427 5
      vertex 10.1162 38.9573 0
      vertex 10.1162 38.9573 5
    endloop
  endfacet
  facet normal 1 0 0
    outer loop
      vertex 10.1162 37.0427 5
      vertex 10.1162 37.0427 0
      vertex 10.1162 38.9573 0
    endloop
  endfacet
  facet normal 0.120537 0.992709 -0
    outer loop
      vertex 14.4821 34.0292 0
      vertex 12.5816 34.2599 5
      vertex 14.4821 34.0292 5
    endloop
  endfacet
  facet normal 0.120537 0.992709 0
    outer loop
      vertex 14.4821 34.0292 0
      vertex 12.5816 34.2599 0
      vertex 12.5816 34.2599 5
    endloop
  endfacet
  facet normal 0.885456 0.464723 -0
    outer loop
      vertex 10.1162 37.0427 0
      vertex 10.1162 37.0427 5
      vertex 11.006 35.3475 5
    endloop
  endfacet
  facet normal 0.885456 0.464723 -0
    outer loop
      vertex 11.006 35.3475 0
      vertex 10.1162 37.0427 0
      vertex 11.006 35.3475 5
    endloop
  endfacet
  facet normal 0.885456 -0.464723 0
    outer loop
      vertex 10.1162 38.9573 5
      vertex 11.006 40.6525 0
      vertex 11.006 40.6525 5
    endloop
  endfacet
  facet normal 0.885456 -0.464723 0
    outer loop
      vertex 10.1162 38.9573 5
      vertex 10.1162 38.9573 0
      vertex 11.006 40.6525 0
    endloop
  endfacet
  facet normal -0.354605 0.935016 0
    outer loop
      vertex 16.2723 34.7081 0
      vertex 14.4821 34.0292 5
      vertex 16.2723 34.7081 5
    endloop
  endfacet
  facet normal -0.354605 0.935016 0
    outer loop
      vertex 16.2723 34.7081 0
      vertex 14.4821 34.0292 0
      vertex 14.4821 34.0292 5
    endloop
  endfacet
  facet normal -0.970942 -0.239316 0
    outer loop
      vertex 17.5418 39.8589 0
      vertex 18 38 0
      vertex 18 38 5
    endloop
  endfacet
  facet normal -0.970942 -0.239316 -0
    outer loop
      vertex 17.5418 39.8589 5
      vertex 17.5418 39.8589 0
      vertex 18 38 5
    endloop
  endfacet
  facet normal 0.568065 0.822984 -0
    outer loop
      vertex 12.5816 34.2599 0
      vertex 11.006 35.3475 5
      vertex 12.5816 34.2599 5
    endloop
  endfacet
  facet normal 0.568065 0.822984 0
    outer loop
      vertex 12.5816 34.2599 0
      vertex 11.006 35.3475 0
      vertex 11.006 35.3475 5
    endloop
  endfacet
  facet normal -0.748511 0.663123 0
    outer loop
      vertex 17.5418 36.1411 0
      vertex 16.2723 34.7081 5
      vertex 17.5418 36.1411 5
    endloop
  endfacet
  facet normal -0.748511 0.663123 0
    outer loop
      vertex 17.5418 36.1411 0
      vertex 16.2723 34.7081 0
      vertex 16.2723 34.7081 5
    endloop
  endfacet
  facet normal -0.970942 0.239316 0
    outer loop
      vertex 18 38 0
      vertex 17.5418 36.1411 5
      vertex 18 38 5
    endloop
  endfacet
  facet normal -0.970942 0.239316 0
    outer loop
      vertex 18 38 0
      vertex 17.5418 36.1411 0
      vertex 17.5418 36.1411 5
    endloop
  endfacet
  facet normal -0.354605 -0.935016 0
    outer loop
      vertex 14.4821 41.9708 5
      vertex 16.2723 41.2919 0
      vertex 16.2723 41.2919 5
    endloop
  endfacet
  facet normal -0.354605 -0.935016 -0
    outer loop
      vertex 14.4821 41.9708 5
      vertex 14.4821 41.9708 0
      vertex 16.2723 41.2919 0
    endloop
  endfacet
  facet normal -0.748511 -0.663123 0
    outer loop
      vertex 16.2723 41.2919 0
      vertex 17.5418 39.8589 0
      vertex 17.5418 39.8589 5
    endloop
  endfacet
  facet normal -0.748511 -0.663123 -0
    outer loop
      vertex 16.2723 41.2919 5
      vertex 16.2723 41.2919 0
      vertex 17.5418 39.8589 5
    endloop
  endfacet
  facet normal 0.568065 -0.822984 0
    outer loop
      vertex 11.006 40.6525 5
      vertex 12.5816 41.7401 0
      vertex 12.5816 41.7401 5
    endloop
  endfacet
  facet normal 0.568065 -0.822984 0
    outer loop
      vertex 11.006 40.6525 5
      vertex 11.006 40.6525 0
      vertex 12.5816 41.7401 0
    endloop
  endfacet
  facet normal 0.120537 -0.992709 0
    outer loop
      vertex 12.5816 41.7401 5
      vertex 14.4821 41.9708 0
      vertex 14.4821 41.9708 5
    endloop
  endfacet
  facet normal 0.120537 -0.992709 0
    outer loop
      vertex 12.5816 41.7401 5
      vertex 12.5816 41.7401 0
      vertex 14.4821 41.9708 0
    endloop
  endfacet
  facet normal 0 1 0
    outer loop
      vertex 5 5 15
      vertex 5 5 5
      vertex 0 5 5
    endloop
  endfacet
  facet normal 0 1 0
    outer loop
      vertex 30 5 23
      vertex 30 5 5
      vertex 25 5 15
    endloop
  endfacet
  facet normal 0 1 0
    outer loop
      vertex 30 5 5
      vertex 25 5 5
      vertex 25 5 15
    endloop
  endfacet
  facet normal 0 1 0
    outer loop
      vertex 30 5 23
      vertex 25 5 15
      vertex 0 5 23
    endloop
  endfacet
  facet normal 0 1 0
    outer loop
      vertex 25 5 15
      vertex 5 5 15
      vertex 0 5 23
    endloop
  endfacet
  facet normal 0 1 0
    outer loop
      vertex 5 5 15
      vertex 0 5 5
      vertex 0 5 23
    endloop
  endfacet
  facet normal 0 0 1
    outer loop
      vertex 30 0 23
      vertex 0 5 23
      vertex 0 0 23
    endloop
  endfacet
  facet normal 0 -0 1
    outer loop
      vertex 30 0 23
      vertex 30 5 23
      vertex 0 5 23
    endloop
  endfacet
  facet normal 1 -0 0
    outer loop
      vertex 5 0 15
      vertex 5 5 5
      vertex 5 5 15
    endloop
  endfacet
  facet normal 1 0 0
    outer loop
      vertex 5 0 15
      vertex 5 0 5
      vertex 5 5 5
    endloop
  endfacet
  facet normal 0 0 -1
    outer loop
      vertex 25 0 15
      vertex 5 5 15
      vertex 25 5 15
    endloop
  endfacet
  facet normal 0 0 -1
    outer loop
      vertex 25 0 15
      vertex 5 0 15
      vertex 5 5 15
    endloop
  endfacet
  facet normal -1 0 0
    outer loop
      vertex 25 5 5
      vertex 25 0 15
      vertex 25 5 15
    endloop
  endfacet
  facet normal -1 0 0
    outer loop
      vertex 25 5 5
      vertex 25 0 5
      vertex 25 0 15
    endloop
  endfacet
endsolid OpenSCAD_Model
