solid OpenSCAD_Model
  facet normal -0.996917 -0.0784596 0
    outer loop
      vertex -9.87688 -1.56434 0
      vertex -10 0 3
      vertex -10 0 0
    endloop
  endfacet
  facet normal -0.996917 -0.0784596 0
    outer loop
      vertex -10 0 3
      vertex -9.87688 -1.56434 0
      vertex -9.87688 -1.56434 3
    endloop
  endfacet
  facet normal 1 -0 0
    outer loop
      vertex 25 -10 3
      vertex 25 10 0
      vertex 25 10 3
    endloop
  endfacet
  facet normal 1 0 0
    outer loop
      vertex 25 10 0
      vertex 25 -10 3
      vertex 25 -10 0
    endloop
  endfacet
  facet normal -0.233445 -0.97237 0
    outer loop
      vertex -3.09017 -9.51056 0
      vertex -1.56434 -9.87688 3
      vertex -3.09017 -9.51056 3
    endloop
  endfacet
  facet normal -0.233445 -0.97237 -0
    outer loop
      vertex -1.56434 -9.87688 3
      vertex -3.09017 -9.51056 0
      vertex -1.56434 -9.87688 0
    endloop
  endfacet
  facet normal -0.649448 -0.760406 0
    outer loop
      vertex -7.07107 -7.07107 0
      vertex -5.87785 -8.09017 3
      vertex -7.07107 -7.07107 3
    endloop
  endfacet
  facet normal -0.649448 -0.760406 -0
    outer loop
      vertex -5.87785 -8.09017 3
      vertex -7.07107 -7.07107 0
      vertex -5.87785 -8.09017 0
    endloop
  endfacet
  facet normal 0 -1 0
    outer loop
      vertex 0 -10 0
      vertex 25 -10 3
      vertex 0 -10 3
    endloop
  endfacet
  facet normal 0 -1 -0
    outer loop
      vertex 25 -10 3
      vertex 0 -10 0
      vertex 25 -10 0
    endloop
  endfacet
  facet normal -0.760406 -0.649448 0
    outer loop
      vertex -7.07107 -7.07107 0
      vertex -8.09017 -5.87785 3
      vertex -8.09017 -5.87785 0
    endloop
  endfacet
  facet normal -0.760406 -0.649448 0
    outer loop
      vertex -8.09017 -5.87785 3
      vertex -7.07107 -7.07107 0
      vertex -7.07107 -7.07107 3
    endloop
  endfacet
  facet normal 0 0 -1
    outer loop
      vertex -3.81543 1.11239 0
      vertex 0 10 0
      vertex -3.576 0.782849 0
    endloop
  endfacet
  facet normal 0 0 -1
    outer loop
      vertex 0 10 0
      vertex -3.81543 1.11239 0
      vertex -1.56434 9.87688 0
    endloop
  endfacet
  facet normal 0 0 -1
    outer loop
      vertex -4.12928 1.37203 0
      vertex -1.56434 9.87688 0
      vertex -3.81543 1.11239 0
    endloop
  endfacet
  facet normal 0 0 -1
    outer loop
      vertex -1.56434 9.87688 0
      vertex -4.12928 1.37203 0
      vertex -3.09017 9.51056 0
    endloop
  endfacet
  facet normal 0 0 -1
    outer loop
      vertex -4.5399 8.91006 0
      vertex -4.12928 1.37203 0
      vertex -4.49785 1.54547 0
    endloop
  endfacet
  facet normal 0 0 -1
    outer loop
      vertex -4.12928 1.37203 0
      vertex -4.5399 8.91006 0
      vertex -3.09017 9.51056 0
    endloop
  endfacet
  facet normal 0 0 -1
    outer loop
      vertex -5.87785 8.09017 0
      vertex -4.49785 1.54547 0
      vertex -4.89796 1.62179 0
    endloop
  endfacet
  facet normal 0 0 -1
    outer loop
      vertex -7.07107 7.07107 0
      vertex -4.89796 1.62179 0
      vertex -5.30449 1.59622 0
    endloop
  endfacet
  facet normal 0 0 -1
    outer loop
      vertex -8.09017 5.87785 0
      vertex -5.30449 1.59622 0
      vertex -5.69189 1.47034 0
    endloop
  endfacet
  facet normal 0 0 -1
    outer loop
      vertex -4.49785 1.54547 0
      vertex -5.87785 8.09017 0
      vertex -4.5399 8.91006 0
    endloop
  endfacet
  facet normal 0 0 -1
    outer loop
      vertex -8.91006 4.5399 0
      vertex -5.69189 1.47034 0
      vertex -6.03581 1.25208 0
    endloop
  endfacet
  facet normal 0 0 -1
    outer loop
      vertex -9.51056 3.09017 0
      vertex -6.03581 1.25208 0
      vertex -6.31465 0.955151 0
    endloop
  endfacet
  facet normal 0 0 -1
    outer loop
      vertex -9.87688 1.56434 0
      vertex -6.31465 0.955151 0
      vertex -6.51089 0.598202 0
    endloop
  endfacet
  facet normal 0 0 -1
    outer loop
      vertex -9.87688 1.56434 0
      vertex -6.51089 0.598202 0
      vertex -6.61219 0.203666 0
    endloop
  endfacet
  facet normal 0 0 -1
    outer loop
      vertex -4.89796 1.62179 0
      vertex -7.07107 7.07107 0
      vertex -5.87785 8.09017 0
    endloop
  endfacet
  facet normal 0 0 -1
    outer loop
      vertex -9.87688 -1.56434 0
      vertex -6.31465 -0.955151 0
      vertex -9.51056 -3.09017 0
    endloop
  endfacet
  facet normal -0 0 -1
    outer loop
      vertex -6.31465 -0.955151 0
      vertex -9.87688 -1.56434 0
      vertex -6.51089 -0.598202 0
    endloop
  endfacet
  facet normal 0 0 -1
    outer loop
      vertex -5.30449 1.59622 0
      vertex -8.09017 5.87785 0
      vertex -7.07107 7.07107 0
    endloop
  endfacet
  facet normal -0 0 -1
    outer loop
      vertex -6.51089 -0.598202 0
      vertex -9.87688 -1.56434 0
      vertex -6.61219 -0.203666 0
    endloop
  endfacet
  facet normal 0 0 -1
    outer loop
      vertex -5.69189 1.47034 0
      vertex -8.91006 4.5399 0
      vertex -8.09017 5.87785 0
    endloop
  endfacet
  facet normal 0 0 -1
    outer loop
      vertex -10 0 0
      vertex -6.61219 -0.203666 0
      vertex -9.87688 -1.56434 0
    endloop
  endfacet
  facet normal 0 0 -1
    outer loop
      vertex -6.03581 1.25208 0
      vertex -9.51056 3.09017 0
      vertex -8.91006 4.5399 0
    endloop
  endfacet
  facet normal 0 0 -1
    outer loop
      vertex -6.61219 -0.203666 0
      vertex -10 0 0
      vertex -6.61219 0.203666 0
    endloop
  endfacet
  facet normal 0 0 -1
    outer loop
      vertex -6.31465 0.955151 0
      vertex -9.87688 1.56434 0
      vertex -9.51056 3.09017 0
    endloop
  endfacet
  facet normal -0 0 -1
    outer loop
      vertex -6.61219 0.203666 0
      vertex -10 0 0
      vertex -9.87688 1.56434 0
    endloop
  endfacet
  facet normal 0 0 -1
    outer loop
      vertex 25 -10 0
      vertex 11.625 0 0
      vertex 25 10 0
    endloop
  endfacet
  facet normal 0 0 -1
    outer loop
      vertex 25 -10 0
      vertex 11.5739 -0.40412 0
      vertex 11.625 0 0
    endloop
  endfacet
  facet normal 0 0 -1
    outer loop
      vertex 25 -10 0
      vertex 11.424 -0.782849 0
      vertex 11.5739 -0.40412 0
    endloop
  endfacet
  facet normal 0 0 -1
    outer loop
      vertex 25 -10 0
      vertex 11.1846 -1.11239 0
      vertex 11.424 -0.782849 0
    endloop
  endfacet
  facet normal 0 0 -1
    outer loop
      vertex 25 -10 0
      vertex 10.8707 -1.37203 0
      vertex 11.1846 -1.11239 0
    endloop
  endfacet
  facet normal 0 0 -1
    outer loop
      vertex 25 -10 0
      vertex 10.5022 -1.54547 0
      vertex 10.8707 -1.37203 0
    endloop
  endfacet
  facet normal 0 0 -1
    outer loop
      vertex 25 -10 0
      vertex 10.102 -1.62179 0
      vertex 10.5022 -1.54547 0
    endloop
  endfacet
  facet normal 0 0 -1
    outer loop
      vertex 0 -10 0
      vertex 10.102 -1.62179 0
      vertex 25 -10 0
    endloop
  endfacet
  facet normal -0 0 -1
    outer loop
      vertex 10.102 -1.62179 0
      vertex 0 -10 0
      vertex 9.69551 -1.59622 0
    endloop
  endfacet
  facet normal 0 -0 -1
    outer loop
      vertex -3.42605 -0.40412 0
      vertex 8.48911 -0.598202 0
      vertex -3.576 -0.782849 0
    endloop
  endfacet
  facet normal 0 0 -1
    outer loop
      vertex -3.576 -0.782849 0
      vertex 8.48911 -0.598202 0
      vertex 0 -10 0
    endloop
  endfacet
  facet normal -0 0 -1
    outer loop
      vertex 8.68535 -0.955151 0
      vertex 0 -10 0
      vertex 8.48911 -0.598202 0
    endloop
  endfacet
  facet normal -0 0 -1
    outer loop
      vertex 8.96419 -1.25208 0
      vertex 0 -10 0
      vertex 8.68535 -0.955151 0
    endloop
  endfacet
  facet normal -0 0 -1
    outer loop
      vertex 9.30811 -1.47034 0
      vertex 0 -10 0
      vertex 8.96419 -1.25208 0
    endloop
  endfacet
  facet normal -0 0 -1
    outer loop
      vertex 9.69551 -1.59622 0
      vertex 0 -10 0
      vertex 9.30811 -1.47034 0
    endloop
  endfacet
  facet normal 0 0 -1
    outer loop
      vertex 11.5739 0.40412 0
      vertex 25 10 0
      vertex 11.625 0 0
    endloop
  endfacet
  facet normal 0 0 -1
    outer loop
      vertex 11.424 0.782849 0
      vertex 25 10 0
      vertex 11.5739 0.40412 0
    endloop
  endfacet
  facet normal 0 0 -1
    outer loop
      vertex 11.1846 1.11239 0
      vertex 25 10 0
      vertex 11.424 0.782849 0
    endloop
  endfacet
  facet normal 0 0 -1
    outer loop
      vertex 10.8707 1.37203 0
      vertex 25 10 0
      vertex 11.1846 1.11239 0
    endloop
  endfacet
  facet normal 0 0 -1
    outer loop
      vertex 10.5022 1.54547 0
      vertex 25 10 0
      vertex 10.8707 1.37203 0
    endloop
  endfacet
  facet normal 0 0 -1
    outer loop
      vertex 10.102 1.62179 0
      vertex 25 10 0
      vertex 10.5022 1.54547 0
    endloop
  endfacet
  facet normal 0 0 -1
    outer loop
      vertex 0 10 0
      vertex 10.102 1.62179 0
      vertex 9.69551 1.59622 0
    endloop
  endfacet
  facet normal 0 0 -1
    outer loop
      vertex 0 10 0
      vertex 9.69551 1.59622 0
      vertex 9.30811 1.47034 0
    endloop
  endfacet
  facet normal 0 0 -1
    outer loop
      vertex 8.48911 -0.598202 0
      vertex -3.42605 -0.40412 0
      vertex 8.38781 -0.203666 0
    endloop
  endfacet
  facet normal 0 -0 -1
    outer loop
      vertex -3.375 0 0
      vertex 8.38781 -0.203666 0
      vertex -3.42605 -0.40412 0
    endloop
  endfacet
  facet normal 0 0 -1
    outer loop
      vertex 10.102 1.62179 0
      vertex 0 10 0
      vertex 25 10 0
    endloop
  endfacet
  facet normal 0 0 -1
    outer loop
      vertex 8.96419 1.25208 0
      vertex 0 10 0
      vertex 9.30811 1.47034 0
    endloop
  endfacet
  facet normal 0 0 -1
    outer loop
      vertex 8.68535 0.955151 0
      vertex 0 10 0
      vertex 8.96419 1.25208 0
    endloop
  endfacet
  facet normal 0 0 -1
    outer loop
      vertex 8.38781 -0.203666 0
      vertex -3.375 0 0
      vertex 8.38781 0.203666 0
    endloop
  endfacet
  facet normal 0 0 -1
    outer loop
      vertex -3.81543 -1.11239 0
      vertex 0 -10 0
      vertex -1.56434 -9.87688 0
    endloop
  endfacet
  facet normal 0 0 -1
    outer loop
      vertex 8.48911 0.598202 0
      vertex 0 10 0
      vertex 8.68535 0.955151 0
    endloop
  endfacet
  facet normal 0 0 -1
    outer loop
      vertex -4.12928 -1.37203 0
      vertex -1.56434 -9.87688 0
      vertex -3.09017 -9.51056 0
    endloop
  endfacet
  facet normal 0 0 -1
    outer loop
      vertex -3.576 0.782849 0
      vertex 8.48911 0.598202 0
      vertex -3.42605 0.40412 0
    endloop
  endfacet
  facet normal 0 0 -1
    outer loop
      vertex 8.48911 0.598202 0
      vertex -3.576 0.782849 0
      vertex 0 10 0
    endloop
  endfacet
  facet normal 0 0 -1
    outer loop
      vertex 8.38781 0.203666 0
      vertex -3.42605 0.40412 0
      vertex 8.48911 0.598202 0
    endloop
  endfacet
  facet normal 0 0 -1
    outer loop
      vertex -3.42605 0.40412 0
      vertex 8.38781 0.203666 0
      vertex -3.375 0 0
    endloop
  endfacet
  facet normal 0 0 -1
    outer loop
      vertex 0 -10 0
      vertex -3.81543 -1.11239 0
      vertex -3.576 -0.782849 0
    endloop
  endfacet
  facet normal 0 0 -1
    outer loop
      vertex -1.56434 -9.87688 0
      vertex -4.12928 -1.37203 0
      vertex -3.81543 -1.11239 0
    endloop
  endfacet
  facet normal 0 0 -1
    outer loop
      vertex -4.5399 -8.91006 0
      vertex -4.12928 -1.37203 0
      vertex -3.09017 -9.51056 0
    endloop
  endfacet
  facet normal 0 0 -1
    outer loop
      vertex -4.12928 -1.37203 0
      vertex -4.5399 -8.91006 0
      vertex -4.49785 -1.54547 0
    endloop
  endfacet
  facet normal 0 0 -1
    outer loop
      vertex -5.87785 -8.09017 0
      vertex -4.49785 -1.54547 0
      vertex -4.5399 -8.91006 0
    endloop
  endfacet
  facet normal 0 0 -1
    outer loop
      vertex -4.49785 -1.54547 0
      vertex -5.87785 -8.09017 0
      vertex -4.89796 -1.62179 0
    endloop
  endfacet
  facet normal 0 0 -1
    outer loop
      vertex -7.07107 -7.07107 0
      vertex -4.89796 -1.62179 0
      vertex -5.87785 -8.09017 0
    endloop
  endfacet
  facet normal -0 0 -1
    outer loop
      vertex -4.89796 -1.62179 0
      vertex -7.07107 -7.07107 0
      vertex -5.30449 -1.59622 0
    endloop
  endfacet
  facet normal 0 0 -1
    outer loop
      vertex -8.09017 -5.87785 0
      vertex -5.30449 -1.59622 0
      vertex -7.07107 -7.07107 0
    endloop
  endfacet
  facet normal -0 0 -1
    outer loop
      vertex -5.30449 -1.59622 0
      vertex -8.09017 -5.87785 0
      vertex -5.69189 -1.47034 0
    endloop
  endfacet
  facet normal 0 0 -1
    outer loop
      vertex -8.91006 -4.5399 0
      vertex -5.69189 -1.47034 0
      vertex -8.09017 -5.87785 0
    endloop
  endfacet
  facet normal -0 0 -1
    outer loop
      vertex -5.69189 -1.47034 0
      vertex -8.91006 -4.5399 0
      vertex -6.03581 -1.25208 0
    endloop
  endfacet
  facet normal -0 0 -1
    outer loop
      vertex -6.03581 -1.25208 0
      vertex -9.51056 -3.09017 0
      vertex -6.31465 -0.955151 0
    endloop
  endfacet
  facet normal 0 0 -1
    outer loop
      vertex -9.51056 -3.09017 0
      vertex -6.03581 -1.25208 0
      vertex -8.91006 -4.5399 0
    endloop
  endfacet
  facet normal -0.649448 0.760406 0
    outer loop
      vertex -5.87785 8.09017 0
      vertex -7.07107 7.07107 3
      vertex -5.87785 8.09017 3
    endloop
  endfacet
  facet normal -0.649448 0.760406 0
    outer loop
      vertex -7.07107 7.07107 3
      vertex -5.87785 8.09017 0
      vertex -7.07107 7.07107 0
    endloop
  endfacet
  facet normal -0.233445 0.97237 0
    outer loop
      vertex -1.56434 9.87688 0
      vertex -3.09017 9.51056 3
      vertex -1.56434 9.87688 3
    endloop
  endfacet
  facet normal -0.233445 0.97237 0
    outer loop
      vertex -3.09017 9.51056 3
      vertex -1.56434 9.87688 0
      vertex -3.09017 9.51056 0
    endloop
  endfacet
  facet normal -0.382684 0.923879 0
    outer loop
      vertex -3.09017 9.51056 0
      vertex -4.5399 8.91006 3
      vertex -3.09017 9.51056 3
    endloop
  endfacet
  facet normal -0.382684 0.923879 0
    outer loop
      vertex -4.5399 8.91006 3
      vertex -3.09017 9.51056 0
      vertex -4.5399 8.91006 0
    endloop
  endfacet
  facet normal -0.760406 0.649448 0
    outer loop
      vertex -8.09017 5.87785 0
      vertex -7.07107 7.07107 3
      vertex -7.07107 7.07107 0
    endloop
  endfacet
  facet normal -0.760406 0.649448 0
    outer loop
      vertex -7.07107 7.07107 3
      vertex -8.09017 5.87785 0
      vertex -8.09017 5.87785 3
    endloop
  endfacet
  facet normal -0.923879 0.382684 0
    outer loop
      vertex -9.51056 3.09017 0
      vertex -8.91006 4.5399 3
      vertex -8.91006 4.5399 0
    endloop
  endfacet
  facet normal -0.923879 0.382684 0
    outer loop
      vertex -8.91006 4.5399 3
      vertex -9.51056 3.09017 0
      vertex -9.51056 3.09017 3
    endloop
  endfacet
  facet normal -0.85264 0.522498 0
    outer loop
      vertex -8.91006 4.5399 0
      vertex -8.09017 5.87785 3
      vertex -8.09017 5.87785 0
    endloop
  endfacet
  facet normal -0.85264 0.522498 0
    outer loop
      vertex -8.09017 5.87785 3
      vertex -8.91006 4.5399 0
      vertex -8.91006 4.5399 3
    endloop
  endfacet
  facet normal -0 0 1
    outer loop
      vertex -3.81543 -1.11239 3
      vertex 0 -10 3
      vertex -3.576 -0.782849 3
    endloop
  endfacet
  facet normal 0 0 1
    outer loop
      vertex 0 -10 3
      vertex -3.81543 -1.11239 3
      vertex -1.56434 -9.87688 3
    endloop
  endfacet
  facet normal -0 0 1
    outer loop
      vertex -4.12928 -1.37203 3
      vertex -1.56434 -9.87688 3
      vertex -3.81543 -1.11239 3
    endloop
  endfacet
  facet normal 0 0 1
    outer loop
      vertex -1.56434 -9.87688 3
      vertex -4.12928 -1.37203 3
      vertex -3.09017 -9.51056 3
    endloop
  endfacet
  facet normal 0 0 1
    outer loop
      vertex -4.5399 -8.91006 3
      vertex -4.12928 -1.37203 3
      vertex -4.49785 -1.54547 3
    endloop
  endfacet
  facet normal 0 0 1
    outer loop
      vertex -4.12928 -1.37203 3
      vertex -4.5399 -8.91006 3
      vertex -3.09017 -9.51056 3
    endloop
  endfacet
  facet normal 0 0 1
    outer loop
      vertex -5.87785 -8.09017 3
      vertex -4.49785 -1.54547 3
      vertex -4.89796 -1.62179 3
    endloop
  endfacet
  facet normal 0 0 1
    outer loop
      vertex -7.07107 -7.07107 3
      vertex -4.89796 -1.62179 3
      vertex -5.30449 -1.59622 3
    endloop
  endfacet
  facet normal 0 0 1
    outer loop
      vertex -8.09017 -5.87785 3
      vertex -5.30449 -1.59622 3
      vertex -5.69189 -1.47034 3
    endloop
  endfacet
  facet normal 0 0 1
    outer loop
      vertex -4.49785 -1.54547 3
      vertex -5.87785 -8.09017 3
      vertex -4.5399 -8.91006 3
    endloop
  endfacet
  facet normal 0 0 1
    outer loop
      vertex -8.91006 -4.5399 3
      vertex -5.69189 -1.47034 3
      vertex -6.03581 -1.25208 3
    endloop
  endfacet
  facet normal 0 0 1
    outer loop
      vertex -9.51056 -3.09017 3
      vertex -6.03581 -1.25208 3
      vertex -6.31465 -0.955151 3
    endloop
  endfacet
  facet normal 0 0 1
    outer loop
      vertex -9.87688 -1.56434 3
      vertex -6.31465 -0.955151 3
      vertex -6.51089 -0.598202 3
    endloop
  endfacet
  facet normal 0 0 1
    outer loop
      vertex -9.87688 -1.56434 3
      vertex -6.51089 -0.598202 3
      vertex -6.61219 -0.203666 3
    endloop
  endfacet
  facet normal 0 0 1
    outer loop
      vertex -4.89796 -1.62179 3
      vertex -7.07107 -7.07107 3
      vertex -5.87785 -8.09017 3
    endloop
  endfacet
  facet normal -0 0 1
    outer loop
      vertex -9.87688 1.56434 3
      vertex -6.31465 0.955151 3
      vertex -9.51056 3.09017 3
    endloop
  endfacet
  facet normal 0 0 1
    outer loop
      vertex -6.31465 0.955151 3
      vertex -9.87688 1.56434 3
      vertex -6.51089 0.598202 3
    endloop
  endfacet
  facet normal 0 0 1
    outer loop
      vertex -5.30449 -1.59622 3
      vertex -8.09017 -5.87785 3
      vertex -7.07107 -7.07107 3
    endloop
  endfacet
  facet normal 0 0 1
    outer loop
      vertex -6.51089 0.598202 3
      vertex -9.87688 1.56434 3
      vertex -6.61219 0.203666 3
    endloop
  endfacet
  facet normal 0 0 1
    outer loop
      vertex -5.69189 -1.47034 3
      vertex -8.91006 -4.5399 3
      vertex -8.09017 -5.87785 3
    endloop
  endfacet
  facet normal 0 0 1
    outer loop
      vertex -10 0 3
      vertex -6.61219 0.203666 3
      vertex -9.87688 1.56434 3
    endloop
  endfacet
  facet normal 0 0 1
    outer loop
      vertex -6.03581 -1.25208 3
      vertex -9.51056 -3.09017 3
      vertex -8.91006 -4.5399 3
    endloop
  endfacet
  facet normal 0 0 1
    outer loop
      vertex -6.61219 0.203666 3
      vertex -10 0 3
      vertex -6.61219 -0.203666 3
    endloop
  endfacet
  facet normal 0 0 1
    outer loop
      vertex -6.31465 -0.955151 3
      vertex -9.87688 -1.56434 3
      vertex -9.51056 -3.09017 3
    endloop
  endfacet
  facet normal 0 0 1
    outer loop
      vertex -6.61219 -0.203666 3
      vertex -10 0 3
      vertex -9.87688 -1.56434 3
    endloop
  endfacet
  facet normal 0 0 1
    outer loop
      vertex 25 10 3
      vertex 11.625 0 3
      vertex 25 -10 3
    endloop
  endfacet
  facet normal 0 0 1
    outer loop
      vertex 25 10 3
      vertex 11.5739 0.40412 3
      vertex 11.625 0 3
    endloop
  endfacet
  facet normal 0 0 1
    outer loop
      vertex 25 10 3
      vertex 11.424 0.782849 3
      vertex 11.5739 0.40412 3
    endloop
  endfacet
  facet normal 0 0 1
    outer loop
      vertex 25 10 3
      vertex 11.1846 1.11239 3
      vertex 11.424 0.782849 3
    endloop
  endfacet
  facet normal 0 0 1
    outer loop
      vertex 25 10 3
      vertex 10.8707 1.37203 3
      vertex 11.1846 1.11239 3
    endloop
  endfacet
  facet normal 0 0 1
    outer loop
      vertex 25 10 3
      vertex 10.5022 1.54547 3
      vertex 10.8707 1.37203 3
    endloop
  endfacet
  facet normal 0 0 1
    outer loop
      vertex 25 10 3
      vertex 10.102 1.62179 3
      vertex 10.5022 1.54547 3
    endloop
  endfacet
  facet normal -0 0 1
    outer loop
      vertex 0 10 3
      vertex 10.102 1.62179 3
      vertex 25 10 3
    endloop
  endfacet
  facet normal 0 0 1
    outer loop
      vertex 10.102 1.62179 3
      vertex 0 10 3
      vertex 9.69551 1.59622 3
    endloop
  endfacet
  facet normal 0 -0 1
    outer loop
      vertex -3.42605 0.40412 3
      vertex 8.48911 0.598202 3
      vertex -3.576 0.782849 3
    endloop
  endfacet
  facet normal -0 0 1
    outer loop
      vertex -3.576 0.782849 3
      vertex 8.48911 0.598202 3
      vertex 0 10 3
    endloop
  endfacet
  facet normal 0 0 1
    outer loop
      vertex 8.68535 0.955151 3
      vertex 0 10 3
      vertex 8.48911 0.598202 3
    endloop
  endfacet
  facet normal 0 0 1
    outer loop
      vertex 8.96419 1.25208 3
      vertex 0 10 3
      vertex 8.68535 0.955151 3
    endloop
  endfacet
  facet normal 0 0 1
    outer loop
      vertex 9.30811 1.47034 3
      vertex 0 10 3
      vertex 8.96419 1.25208 3
    endloop
  endfacet
  facet normal 0 0 1
    outer loop
      vertex 9.69551 1.59622 3
      vertex 0 10 3
      vertex 9.30811 1.47034 3
    endloop
  endfacet
  facet normal -0 0 1
    outer loop
      vertex 11.5739 -0.40412 3
      vertex 25 -10 3
      vertex 11.625 0 3
    endloop
  endfacet
  facet normal -0 0 1
    outer loop
      vertex 11.424 -0.782849 3
      vertex 25 -10 3
      vertex 11.5739 -0.40412 3
    endloop
  endfacet
  facet normal -0 0 1
    outer loop
      vertex 11.1846 -1.11239 3
      vertex 25 -10 3
      vertex 11.424 -0.782849 3
    endloop
  endfacet
  facet normal -0 0 1
    outer loop
      vertex 10.8707 -1.37203 3
      vertex 25 -10 3
      vertex 11.1846 -1.11239 3
    endloop
  endfacet
  facet normal -0 0 1
    outer loop
      vertex 10.5022 -1.54547 3
      vertex 25 -10 3
      vertex 10.8707 -1.37203 3
    endloop
  endfacet
  facet normal -0 0 1
    outer loop
      vertex 10.102 -1.62179 3
      vertex 25 -10 3
      vertex 10.5022 -1.54547 3
    endloop
  endfacet
  facet normal 0 0 1
    outer loop
      vertex 0 -10 3
      vertex 10.102 -1.62179 3
      vertex 9.69551 -1.59622 3
    endloop
  endfacet
  facet normal 0 0 1
    outer loop
      vertex 0 -10 3
      vertex 9.69551 -1.59622 3
      vertex 9.30811 -1.47034 3
    endloop
  endfacet
  facet normal 0 0 1
    outer loop
      vertex 8.48911 0.598202 3
      vertex -3.42605 0.40412 3
      vertex 8.38781 0.203666 3
    endloop
  endfacet
  facet normal 0 -0 1
    outer loop
      vertex -3.375 0 3
      vertex 8.38781 0.203666 3
      vertex -3.42605 0.40412 3
    endloop
  endfacet
  facet normal 0 0 1
    outer loop
      vertex 10.102 -1.62179 3
      vertex 0 -10 3
      vertex 25 -10 3
    endloop
  endfacet
  facet normal 0 0 1
    outer loop
      vertex 8.96419 -1.25208 3
      vertex 0 -10 3
      vertex 9.30811 -1.47034 3
    endloop
  endfacet
  facet normal 0 0 1
    outer loop
      vertex 8.68535 -0.955151 3
      vertex 0 -10 3
      vertex 8.96419 -1.25208 3
    endloop
  endfacet
  facet normal 0 0 1
    outer loop
      vertex 8.38781 0.203666 3
      vertex -3.375 0 3
      vertex 8.38781 -0.203666 3
    endloop
  endfacet
  facet normal 0 0 1
    outer loop
      vertex -3.81543 1.11239 3
      vertex 0 10 3
      vertex -1.56434 9.87688 3
    endloop
  endfacet
  facet normal 0 0 1
    outer loop
      vertex 8.48911 -0.598202 3
      vertex 0 -10 3
      vertex 8.68535 -0.955151 3
    endloop
  endfacet
  facet normal 0 0 1
    outer loop
      vertex -4.12928 1.37203 3
      vertex -1.56434 9.87688 3
      vertex -3.09017 9.51056 3
    endloop
  endfacet
  facet normal 0 0 1
    outer loop
      vertex -3.576 -0.782849 3
      vertex 8.48911 -0.598202 3
      vertex -3.42605 -0.40412 3
    endloop
  endfacet
  facet normal 0 0 1
    outer loop
      vertex 8.48911 -0.598202 3
      vertex -3.576 -0.782849 3
      vertex 0 -10 3
    endloop
  endfacet
  facet normal 0 0 1
    outer loop
      vertex 8.38781 -0.203666 3
      vertex -3.42605 -0.40412 3
      vertex 8.48911 -0.598202 3
    endloop
  endfacet
  facet normal 0 0 1
    outer loop
      vertex -3.42605 -0.40412 3
      vertex 8.38781 -0.203666 3
      vertex -3.375 0 3
    endloop
  endfacet
  facet normal 0 0 1
    outer loop
      vertex 0 10 3
      vertex -3.81543 1.11239 3
      vertex -3.576 0.782849 3
    endloop
  endfacet
  facet normal 0 0 1
    outer loop
      vertex -1.56434 9.87688 3
      vertex -4.12928 1.37203 3
      vertex -3.81543 1.11239 3
    endloop
  endfacet
  facet normal -0 0 1
    outer loop
      vertex -4.5399 8.91006 3
      vertex -4.12928 1.37203 3
      vertex -3.09017 9.51056 3
    endloop
  endfacet
  facet normal 0 0 1
    outer loop
      vertex -4.12928 1.37203 3
      vertex -4.5399 8.91006 3
      vertex -4.49785 1.54547 3
    endloop
  endfacet
  facet normal -0 0 1
    outer loop
      vertex -5.87785 8.09017 3
      vertex -4.49785 1.54547 3
      vertex -4.5399 8.91006 3
    endloop
  endfacet
  facet normal 0 0 1
    outer loop
      vertex -4.49785 1.54547 3
      vertex -5.87785 8.09017 3
      vertex -4.89796 1.62179 3
    endloop
  endfacet
  facet normal -0 0 1
    outer loop
      vertex -7.07107 7.07107 3
      vertex -4.89796 1.62179 3
      vertex -5.87785 8.09017 3
    endloop
  endfacet
  facet normal 0 0 1
    outer loop
      vertex -4.89796 1.62179 3
      vertex -7.07107 7.07107 3
      vertex -5.30449 1.59622 3
    endloop
  endfacet
  facet normal -0 0 1
    outer loop
      vertex -8.09017 5.87785 3
      vertex -5.30449 1.59622 3
      vertex -7.07107 7.07107 3
    endloop
  endfacet
  facet normal 0 0 1
    outer loop
      vertex -5.30449 1.59622 3
      vertex -8.09017 5.87785 3
      vertex -5.69189 1.47034 3
    endloop
  endfacet
  facet normal -0 0 1
    outer loop
      vertex -8.91006 4.5399 3
      vertex -5.69189 1.47034 3
      vertex -8.09017 5.87785 3
    endloop
  endfacet
  facet normal 0 0 1
    outer loop
      vertex -5.69189 1.47034 3
      vertex -8.91006 4.5399 3
      vertex -6.03581 1.25208 3
    endloop
  endfacet
  facet normal 0 0 1
    outer loop
      vertex -6.03581 1.25208 3
      vertex -9.51056 3.09017 3
      vertex -6.31465 0.955151 3
    endloop
  endfacet
  facet normal -0 0 1
    outer loop
      vertex -9.51056 3.09017 3
      vertex -6.03581 1.25208 3
      vertex -8.91006 4.5399 3
    endloop
  endfacet
  facet normal 0 1 -0
    outer loop
      vertex 25 10 0
      vertex 0 10 3
      vertex 25 10 3
    endloop
  endfacet
  facet normal 0 1 0
    outer loop
      vertex 0 10 3
      vertex 25 10 0
      vertex 0 10 0
    endloop
  endfacet
  facet normal -0.0784596 -0.996917 0
    outer loop
      vertex -1.56434 -9.87688 0
      vertex 0 -10 3
      vertex -1.56434 -9.87688 3
    endloop
  endfacet
  facet normal -0.0784596 -0.996917 -0
    outer loop
      vertex 0 -10 3
      vertex -1.56434 -9.87688 0
      vertex 0 -10 0
    endloop
  endfacet
  facet normal -0.382684 -0.923879 0
    outer loop
      vertex -4.5399 -8.91006 0
      vertex -3.09017 -9.51056 3
      vertex -4.5399 -8.91006 3
    endloop
  endfacet
  facet normal -0.382684 -0.923879 -0
    outer loop
      vertex -3.09017 -9.51056 3
      vertex -4.5399 -8.91006 0
      vertex -3.09017 -9.51056 0
    endloop
  endfacet
  facet normal -0.522498 -0.85264 0
    outer loop
      vertex -5.87785 -8.09017 0
      vertex -4.5399 -8.91006 3
      vertex -5.87785 -8.09017 3
    endloop
  endfacet
  facet normal -0.522498 -0.85264 -0
    outer loop
      vertex -4.5399 -8.91006 3
      vertex -5.87785 -8.09017 0
      vertex -4.5399 -8.91006 0
    endloop
  endfacet
  facet normal -0.522498 0.85264 0
    outer loop
      vertex -4.5399 8.91006 0
      vertex -5.87785 8.09017 3
      vertex -4.5399 8.91006 3
    endloop
  endfacet
  facet normal -0.522498 0.85264 0
    outer loop
      vertex -5.87785 8.09017 3
      vertex -4.5399 8.91006 0
      vertex -5.87785 8.09017 0
    endloop
  endfacet
  facet normal -0.996917 0.0784596 0
    outer loop
      vertex -10 0 0
      vertex -9.87688 1.56434 3
      vertex -9.87688 1.56434 0
    endloop
  endfacet
  facet normal -0.996917 0.0784596 0
    outer loop
      vertex -9.87688 1.56434 3
      vertex -10 0 0
      vertex -10 0 3
    endloop
  endfacet
  facet normal -0.97237 0.233445 0
    outer loop
      vertex -9.87688 1.56434 0
      vertex -9.51056 3.09017 3
      vertex -9.51056 3.09017 0
    endloop
  endfacet
  facet normal -0.97237 0.233445 0
    outer loop
      vertex -9.51056 3.09017 3
      vertex -9.87688 1.56434 0
      vertex -9.87688 1.56434 3
    endloop
  endfacet
  facet normal -0.923879 -0.382684 0
    outer loop
      vertex -8.91006 -4.5399 0
      vertex -9.51056 -3.09017 3
      vertex -9.51056 -3.09017 0
    endloop
  endfacet
  facet normal -0.923879 -0.382684 0
    outer loop
      vertex -9.51056 -3.09017 3
      vertex -8.91006 -4.5399 0
      vertex -8.91006 -4.5399 3
    endloop
  endfacet
  facet normal -0.97237 -0.233445 0
    outer loop
      vertex -9.51056 -3.09017 0
      vertex -9.87688 -1.56434 3
      vertex -9.87688 -1.56434 0
    endloop
  endfacet
  facet normal -0.97237 -0.233445 0
    outer loop
      vertex -9.87688 -1.56434 3
      vertex -9.51056 -3.09017 0
      vertex -9.51056 -3.09017 3
    endloop
  endfacet
  facet normal -0.0784596 0.996917 0
    outer loop
      vertex 0 10 0
      vertex -1.56434 9.87688 3
      vertex 0 10 3
    endloop
  endfacet
  facet normal -0.0784596 0.996917 0
    outer loop
      vertex -1.56434 9.87688 3
      vertex 0 10 0
      vertex -1.56434 9.87688 0
    endloop
  endfacet
  facet normal -0.85264 -0.522498 0
    outer loop
      vertex -8.09017 -5.87785 0
      vertex -8.91006 -4.5399 3
      vertex -8.91006 -4.5399 0
    endloop
  endfacet
  facet normal -0.85264 -0.522498 0
    outer loop
      vertex -8.91006 -4.5399 3
      vertex -8.09017 -5.87785 0
      vertex -8.09017 -5.87785 3
    endloop
  endfacet
  facet normal -0.992115 -0.125333 0
    outer loop
      vertex -3.375 0 0
      vertex -3.42605 0.40412 3
      vertex -3.42605 0.40412 0
    endloop
  endfacet
  facet normal -0.992115 -0.125333 0
    outer loop
      vertex -3.42605 0.40412 3
      vertex -3.375 0 0
      vertex -3.375 0 3
    endloop
  endfacet
  facet normal 1 -0 0
    outer loop
      vertex -6.61219 -0.203666 3
      vertex -6.61219 0.203666 0
      vertex -6.61219 0.203666 3
    endloop
  endfacet
  facet normal 1 0 0
    outer loop
      vertex -6.61219 0.203666 0
      vertex -6.61219 -0.203666 3
      vertex -6.61219 -0.203666 0
    endloop
  endfacet
  facet normal 0.0627903 -0.998027 0
    outer loop
      vertex -5.30449 1.59622 0
      vertex -4.89796 1.62179 3
      vertex -5.30449 1.59622 3
    endloop
  endfacet
  facet normal 0.0627903 -0.998027 0
    outer loop
      vertex -4.89796 1.62179 3
      vertex -5.30449 1.59622 0
      vertex -4.89796 1.62179 0
    endloop
  endfacet
  facet normal -0.187381 0.982287 0
    outer loop
      vertex -4.49785 -1.54547 0
      vertex -4.89796 -1.62179 3
      vertex -4.49785 -1.54547 3
    endloop
  endfacet
  facet normal -0.187381 0.982287 0
    outer loop
      vertex -4.89796 -1.62179 3
      vertex -4.49785 -1.54547 0
      vertex -4.89796 -1.62179 0
    endloop
  endfacet
  facet normal -0.637424 -0.770513 0
    outer loop
      vertex -4.12928 1.37203 0
      vertex -3.81543 1.11239 3
      vertex -4.12928 1.37203 3
    endloop
  endfacet
  facet normal -0.637424 -0.770513 -0
    outer loop
      vertex -3.81543 1.11239 3
      vertex -4.12928 1.37203 0
      vertex -3.81543 1.11239 0
    endloop
  endfacet
  facet normal -0.929777 -0.368124 0
    outer loop
      vertex -3.42605 0.40412 0
      vertex -3.576 0.782849 3
      vertex -3.576 0.782849 0
    endloop
  endfacet
  facet normal -0.929777 -0.368124 0
    outer loop
      vertex -3.576 0.782849 3
      vertex -3.42605 0.40412 0
      vertex -3.42605 0.40412 3
    endloop
  endfacet
  facet normal -0.42578 -0.904827 0
    outer loop
      vertex -4.49785 1.54547 0
      vertex -4.12928 1.37203 3
      vertex -4.49785 1.54547 3
    endloop
  endfacet
  facet normal -0.42578 -0.904827 -0
    outer loop
      vertex -4.12928 1.37203 3
      vertex -4.49785 1.54547 0
      vertex -4.12928 1.37203 0
    endloop
  endfacet
  facet normal 0.728968 -0.684547 0
    outer loop
      vertex -6.31465 0.955151 3
      vertex -6.03581 1.25208 0
      vertex -6.03581 1.25208 3
    endloop
  endfacet
  facet normal 0.728968 -0.684547 0
    outer loop
      vertex -6.03581 1.25208 0
      vertex -6.31465 0.955151 3
      vertex -6.31465 0.955151 0
    endloop
  endfacet
  facet normal 0.876307 -0.481753 0
    outer loop
      vertex -6.51089 0.598202 3
      vertex -6.31465 0.955151 0
      vertex -6.31465 0.955151 3
    endloop
  endfacet
  facet normal 0.876307 -0.481753 0
    outer loop
      vertex -6.31465 0.955151 0
      vertex -6.51089 0.598202 3
      vertex -6.51089 0.598202 0
    endloop
  endfacet
  facet normal 0.309016 -0.951057 0
    outer loop
      vertex -5.69189 1.47034 0
      vertex -5.30449 1.59622 3
      vertex -5.69189 1.47034 3
    endloop
  endfacet
  facet normal 0.309016 -0.951057 0
    outer loop
      vertex -5.30449 1.59622 3
      vertex -5.69189 1.47034 0
      vertex -5.30449 1.59622 0
    endloop
  endfacet
  facet normal -0.929777 0.368124 0
    outer loop
      vertex -3.576 -0.782849 0
      vertex -3.42605 -0.40412 3
      vertex -3.42605 -0.40412 0
    endloop
  endfacet
  facet normal -0.929777 0.368124 0
    outer loop
      vertex -3.42605 -0.40412 3
      vertex -3.576 -0.782849 0
      vertex -3.576 -0.782849 3
    endloop
  endfacet
  facet normal -0.809017 -0.587786 0
    outer loop
      vertex -3.576 0.782849 0
      vertex -3.81543 1.11239 3
      vertex -3.81543 1.11239 0
    endloop
  endfacet
  facet normal -0.809017 -0.587786 0
    outer loop
      vertex -3.81543 1.11239 3
      vertex -3.576 0.782849 0
      vertex -3.576 0.782849 3
    endloop
  endfacet
  facet normal -0.187381 -0.982287 0
    outer loop
      vertex -4.89796 1.62179 0
      vertex -4.49785 1.54547 3
      vertex -4.89796 1.62179 3
    endloop
  endfacet
  facet normal -0.187381 -0.982287 -0
    outer loop
      vertex -4.49785 1.54547 3
      vertex -4.89796 1.62179 0
      vertex -4.49785 1.54547 0
    endloop
  endfacet
  facet normal 0.968583 -0.248689 0
    outer loop
      vertex -6.61219 0.203666 3
      vertex -6.51089 0.598202 0
      vertex -6.51089 0.598202 3
    endloop
  endfacet
  facet normal 0.968583 -0.248689 0
    outer loop
      vertex -6.51089 0.598202 0
      vertex -6.61219 0.203666 3
      vertex -6.61219 0.203666 0
    endloop
  endfacet
  facet normal 0.535827 -0.844328 0
    outer loop
      vertex -6.03581 1.25208 0
      vertex -5.69189 1.47034 3
      vertex -6.03581 1.25208 3
    endloop
  endfacet
  facet normal 0.535827 -0.844328 0
    outer loop
      vertex -5.69189 1.47034 3
      vertex -6.03581 1.25208 0
      vertex -5.69189 1.47034 0
    endloop
  endfacet
  facet normal -0.992115 0.125333 0
    outer loop
      vertex -3.42605 -0.40412 0
      vertex -3.375 0 3
      vertex -3.375 0 0
    endloop
  endfacet
  facet normal -0.992115 0.125333 0
    outer loop
      vertex -3.375 0 3
      vertex -3.42605 -0.40412 0
      vertex -3.42605 -0.40412 3
    endloop
  endfacet
  facet normal -0.809017 0.587786 0
    outer loop
      vertex -3.81543 -1.11239 0
      vertex -3.576 -0.782849 3
      vertex -3.576 -0.782849 0
    endloop
  endfacet
  facet normal -0.809017 0.587786 0
    outer loop
      vertex -3.576 -0.782849 3
      vertex -3.81543 -1.11239 0
      vertex -3.81543 -1.11239 3
    endloop
  endfacet
  facet normal 0.535827 0.844328 -0
    outer loop
      vertex -5.69189 -1.47034 0
      vertex -6.03581 -1.25208 3
      vertex -5.69189 -1.47034 3
    endloop
  endfacet
  facet normal 0.535827 0.844328 0
    outer loop
      vertex -6.03581 -1.25208 3
      vertex -5.69189 -1.47034 0
      vertex -6.03581 -1.25208 0
    endloop
  endfacet
  facet normal 0.728968 0.684547 0
    outer loop
      vertex -6.03581 -1.25208 3
      vertex -6.31465 -0.955151 0
      vertex -6.31465 -0.955151 3
    endloop
  endfacet
  facet normal 0.728968 0.684547 0
    outer loop
      vertex -6.31465 -0.955151 0
      vertex -6.03581 -1.25208 3
      vertex -6.03581 -1.25208 0
    endloop
  endfacet
  facet normal 0.968583 0.248689 0
    outer loop
      vertex -6.51089 -0.598202 3
      vertex -6.61219 -0.203666 0
      vertex -6.61219 -0.203666 3
    endloop
  endfacet
  facet normal 0.968583 0.248689 0
    outer loop
      vertex -6.61219 -0.203666 0
      vertex -6.51089 -0.598202 3
      vertex -6.51089 -0.598202 0
    endloop
  endfacet
  facet normal -0.42578 0.904827 0
    outer loop
      vertex -4.12928 -1.37203 0
      vertex -4.49785 -1.54547 3
      vertex -4.12928 -1.37203 3
    endloop
  endfacet
  facet normal -0.42578 0.904827 0
    outer loop
      vertex -4.49785 -1.54547 3
      vertex -4.12928 -1.37203 0
      vertex -4.49785 -1.54547 0
    endloop
  endfacet
  facet normal 0.876307 0.481753 0
    outer loop
      vertex -6.31465 -0.955151 3
      vertex -6.51089 -0.598202 0
      vertex -6.51089 -0.598202 3
    endloop
  endfacet
  facet normal 0.876307 0.481753 0
    outer loop
      vertex -6.51089 -0.598202 0
      vertex -6.31465 -0.955151 3
      vertex -6.31465 -0.955151 0
    endloop
  endfacet
  facet normal -0.637424 0.770513 0
    outer loop
      vertex -3.81543 -1.11239 0
      vertex -4.12928 -1.37203 3
      vertex -3.81543 -1.11239 3
    endloop
  endfacet
  facet normal -0.637424 0.770513 0
    outer loop
      vertex -4.12928 -1.37203 3
      vertex -3.81543 -1.11239 0
      vertex -4.12928 -1.37203 0
    endloop
  endfacet
  facet normal 0.309016 0.951057 -0
    outer loop
      vertex -5.30449 -1.59622 0
      vertex -5.69189 -1.47034 3
      vertex -5.30449 -1.59622 3
    endloop
  endfacet
  facet normal 0.309016 0.951057 0
    outer loop
      vertex -5.69189 -1.47034 3
      vertex -5.30449 -1.59622 0
      vertex -5.69189 -1.47034 0
    endloop
  endfacet
  facet normal 0.0627903 0.998027 -0
    outer loop
      vertex -4.89796 -1.62179 0
      vertex -5.30449 -1.59622 3
      vertex -4.89796 -1.62179 3
    endloop
  endfacet
  facet normal 0.0627903 0.998027 0
    outer loop
      vertex -5.30449 -1.59622 3
      vertex -4.89796 -1.62179 0
      vertex -5.30449 -1.59622 0
    endloop
  endfacet
  facet normal -0.992114 -0.125335 0
    outer loop
      vertex 11.625 0 0
      vertex 11.5739 0.40412 3
      vertex 11.5739 0.40412 0
    endloop
  endfacet
  facet normal -0.992114 -0.125335 0
    outer loop
      vertex 11.5739 0.40412 3
      vertex 11.625 0 0
      vertex 11.625 0 3
    endloop
  endfacet
  facet normal 1 -0 0
    outer loop
      vertex 8.38781 -0.203666 3
      vertex 8.38781 0.203666 0
      vertex 8.38781 0.203666 3
    endloop
  endfacet
  facet normal 1 0 0
    outer loop
      vertex 8.38781 0.203666 0
      vertex 8.38781 -0.203666 3
      vertex 8.38781 -0.203666 0
    endloop
  endfacet
  facet normal 0.0627903 -0.998027 0
    outer loop
      vertex 9.69551 1.59622 0
      vertex 10.102 1.62179 3
      vertex 9.69551 1.59622 3
    endloop
  endfacet
  facet normal 0.0627903 -0.998027 0
    outer loop
      vertex 10.102 1.62179 3
      vertex 9.69551 1.59622 0
      vertex 10.102 1.62179 0
    endloop
  endfacet
  facet normal -0.187381 0.982287 0
    outer loop
      vertex 10.5022 -1.54547 0
      vertex 10.102 -1.62179 3
      vertex 10.5022 -1.54547 3
    endloop
  endfacet
  facet normal -0.187381 0.982287 0
    outer loop
      vertex 10.102 -1.62179 3
      vertex 10.5022 -1.54547 0
      vertex 10.102 -1.62179 0
    endloop
  endfacet
  facet normal -0.637424 -0.770513 0
    outer loop
      vertex 10.8707 1.37203 0
      vertex 11.1846 1.11239 3
      vertex 10.8707 1.37203 3
    endloop
  endfacet
  facet normal -0.637424 -0.770513 -0
    outer loop
      vertex 11.1846 1.11239 3
      vertex 10.8707 1.37203 0
      vertex 11.1846 1.11239 0
    endloop
  endfacet
  facet normal -0.929777 -0.368124 0
    outer loop
      vertex 11.5739 0.40412 0
      vertex 11.424 0.782849 3
      vertex 11.424 0.782849 0
    endloop
  endfacet
  facet normal -0.929777 -0.368124 0
    outer loop
      vertex 11.424 0.782849 3
      vertex 11.5739 0.40412 0
      vertex 11.5739 0.40412 3
    endloop
  endfacet
  facet normal -0.42578 -0.904827 0
    outer loop
      vertex 10.5022 1.54547 0
      vertex 10.8707 1.37203 3
      vertex 10.5022 1.54547 3
    endloop
  endfacet
  facet normal -0.42578 -0.904827 -0
    outer loop
      vertex 10.8707 1.37203 3
      vertex 10.5022 1.54547 0
      vertex 10.8707 1.37203 0
    endloop
  endfacet
  facet normal 0.728968 -0.684547 0
    outer loop
      vertex 8.68535 0.955151 3
      vertex 8.96419 1.25208 0
      vertex 8.96419 1.25208 3
    endloop
  endfacet
  facet normal 0.728968 -0.684547 0
    outer loop
      vertex 8.96419 1.25208 0
      vertex 8.68535 0.955151 3
      vertex 8.68535 0.955151 0
    endloop
  endfacet
  facet normal 0.876307 -0.481753 0
    outer loop
      vertex 8.48911 0.598202 3
      vertex 8.68535 0.955151 0
      vertex 8.68535 0.955151 3
    endloop
  endfacet
  facet normal 0.876307 -0.481753 0
    outer loop
      vertex 8.68535 0.955151 0
      vertex 8.48911 0.598202 3
      vertex 8.48911 0.598202 0
    endloop
  endfacet
  facet normal 0.309016 -0.951057 0
    outer loop
      vertex 9.30811 1.47034 0
      vertex 9.69551 1.59622 3
      vertex 9.30811 1.47034 3
    endloop
  endfacet
  facet normal 0.309016 -0.951057 0
    outer loop
      vertex 9.69551 1.59622 3
      vertex 9.30811 1.47034 0
      vertex 9.69551 1.59622 0
    endloop
  endfacet
  facet normal -0.809017 -0.587786 0
    outer loop
      vertex 11.424 0.782849 0
      vertex 11.1846 1.11239 3
      vertex 11.1846 1.11239 0
    endloop
  endfacet
  facet normal -0.809017 -0.587786 0
    outer loop
      vertex 11.1846 1.11239 3
      vertex 11.424 0.782849 0
      vertex 11.424 0.782849 3
    endloop
  endfacet
  facet normal -0.187381 -0.982287 0
    outer loop
      vertex 10.102 1.62179 0
      vertex 10.5022 1.54547 3
      vertex 10.102 1.62179 3
    endloop
  endfacet
  facet normal -0.187381 -0.982287 -0
    outer loop
      vertex 10.5022 1.54547 3
      vertex 10.102 1.62179 0
      vertex 10.5022 1.54547 0
    endloop
  endfacet
  facet normal 0.968583 -0.248689 0
    outer loop
      vertex 8.38781 0.203666 3
      vertex 8.48911 0.598202 0
      vertex 8.48911 0.598202 3
    endloop
  endfacet
  facet normal 0.968583 -0.248689 0
    outer loop
      vertex 8.48911 0.598202 0
      vertex 8.38781 0.203666 3
      vertex 8.38781 0.203666 0
    endloop
  endfacet
  facet normal 0.535827 -0.844328 0
    outer loop
      vertex 8.96419 1.25208 0
      vertex 9.30811 1.47034 3
      vertex 8.96419 1.25208 3
    endloop
  endfacet
  facet normal 0.535827 -0.844328 0
    outer loop
      vertex 9.30811 1.47034 3
      vertex 8.96419 1.25208 0
      vertex 9.30811 1.47034 0
    endloop
  endfacet
  facet normal -0.992114 0.125335 0
    outer loop
      vertex 11.5739 -0.40412 0
      vertex 11.625 0 3
      vertex 11.625 0 0
    endloop
  endfacet
  facet normal -0.992114 0.125335 0
    outer loop
      vertex 11.625 0 3
      vertex 11.5739 -0.40412 0
      vertex 11.5739 -0.40412 3
    endloop
  endfacet
  facet normal -0.809017 0.587786 0
    outer loop
      vertex 11.1846 -1.11239 0
      vertex 11.424 -0.782849 3
      vertex 11.424 -0.782849 0
    endloop
  endfacet
  facet normal -0.809017 0.587786 0
    outer loop
      vertex 11.424 -0.782849 3
      vertex 11.1846 -1.11239 0
      vertex 11.1846 -1.11239 3
    endloop
  endfacet
  facet normal -0.929777 0.368124 0
    outer loop
      vertex 11.424 -0.782849 0
      vertex 11.5739 -0.40412 3
      vertex 11.5739 -0.40412 0
    endloop
  endfacet
  facet normal -0.929777 0.368124 0
    outer loop
      vertex 11.5739 -0.40412 3
      vertex 11.424 -0.782849 0
      vertex 11.424 -0.782849 3
    endloop
  endfacet
  facet normal 0.535827 0.844328 -0
    outer loop
      vertex 9.30811 -1.47034 0
      vertex 8.96419 -1.25208 3
      vertex 9.30811 -1.47034 3
    endloop
  endfacet
  facet normal 0.535827 0.844328 0
    outer loop
      vertex 8.96419 -1.25208 3
      vertex 9.30811 -1.47034 0
      vertex 8.96419 -1.25208 0
    endloop
  endfacet
  facet normal 0.728968 0.684547 0
    outer loop
      vertex 8.96419 -1.25208 3
      vertex 8.68535 -0.955151 0
      vertex 8.68535 -0.955151 3
    endloop
  endfacet
  facet normal 0.728968 0.684547 0
    outer loop
      vertex 8.68535 -0.955151 0
      vertex 8.96419 -1.25208 3
      vertex 8.96419 -1.25208 0
    endloop
  endfacet
  facet normal 0.0627903 0.998027 -0
    outer loop
      vertex 10.102 -1.62179 0
      vertex 9.69551 -1.59622 3
      vertex 10.102 -1.62179 3
    endloop
  endfacet
  facet normal 0.0627903 0.998027 0
    outer loop
      vertex 9.69551 -1.59622 3
      vertex 10.102 -1.62179 0
      vertex 9.69551 -1.59622 0
    endloop
  endfacet
  facet normal 0.876307 0.481753 0
    outer loop
      vertex 8.68535 -0.955151 3
      vertex 8.48911 -0.598202 0
      vertex 8.48911 -0.598202 3
    endloop
  endfacet
  facet normal 0.876307 0.481753 0
    outer loop
      vertex 8.48911 -0.598202 0
      vertex 8.68535 -0.955151 3
      vertex 8.68535 -0.955151 0
    endloop
  endfacet
  facet normal 0.968583 0.248689 0
    outer loop
      vertex 8.48911 -0.598202 3
      vertex 8.38781 -0.203666 0
      vertex 8.38781 -0.203666 3
    endloop
  endfacet
  facet normal 0.968583 0.248689 0
    outer loop
      vertex 8.38781 -0.203666 0
      vertex 8.48911 -0.598202 3
      vertex 8.48911 -0.598202 0
    endloop
  endfacet
  facet normal -0.637424 0.770513 0
    outer loop
      vertex 11.1846 -1.11239 0
      vertex 10.8707 -1.37203 3
      vertex 11.1846 -1.11239 3
    endloop
  endfacet
  facet normal -0.637424 0.770513 0
    outer loop
      vertex 10.8707 -1.37203 3
      vertex 11.1846 -1.11239 0
      vertex 10.8707 -1.37203 0
    endloop
  endfacet
  facet normal -0.42578 0.904827 0
    outer loop
      vertex 10.8707 -1.37203 0
      vertex 10.5022 -1.54547 3
      vertex 10.8707 -1.37203 3
    endloop
  endfacet
  facet normal -0.42578 0.904827 0
    outer loop
      vertex 10.5022 -1.54547 3
      vertex 10.8707 -1.37203 0
      vertex 10.5022 -1.54547 0
    endloop
  endfacet
  facet normal 0.309016 0.951057 -0
    outer loop
      vertex 9.69551 -1.59622 0
      vertex 9.30811 -1.47034 3
      vertex 9.69551 -1.59622 3
    endloop
  endfacet
  facet normal 0.309016 0.951057 0
    outer loop
      vertex 9.30811 -1.47034 3
      vertex 9.69551 -1.59622 0
      vertex 9.30811 -1.47034 0
    endloop
  endfacet
endsolid OpenSCAD_Model
