solid OpenSCAD_Model
  facet normal 0.999391 0.0348996 0
    outer loop
      vertex 105 0 -0.1
      vertex 104.744 7.32443 -5.1
      vertex 104.744 7.32443 -0.1
    endloop
  endfacet
  facet normal 0.999391 0.0348996 0
    outer loop
      vertex 104.744 7.32443 -5.1
      vertex 105 0 -0.1
      vertex 105 0 -5.1
    endloop
  endfacet
  facet normal 0.994522 0.104528 0
    outer loop
      vertex 104.744 7.32443 -0.1
      vertex 103.978 14.6132 -5.1
      vertex 103.978 14.6132 -0.1
    endloop
  endfacet
  facet normal 0.994522 0.104528 0
    outer loop
      vertex 103.978 14.6132 -5.1
      vertex 104.744 7.32443 -0.1
      vertex 104.744 7.32443 -5.1
    endloop
  endfacet
  facet normal 0.984808 0.173649 0
    outer loop
      vertex 103.978 14.6132 -0.1
      vertex 102.705 21.8307 -5.1
      vertex 102.705 21.8307 -0.1
    endloop
  endfacet
  facet normal 0.984808 0.173649 0
    outer loop
      vertex 102.705 21.8307 -5.1
      vertex 103.978 14.6132 -0.1
      vertex 103.978 14.6132 -5.1
    endloop
  endfacet
  facet normal 0.970296 0.241922 0
    outer loop
      vertex 102.705 21.8307 -0.1
      vertex 100.932 28.9419 -5.1
      vertex 100.932 28.9419 -0.1
    endloop
  endfacet
  facet normal 0.970296 0.241922 0
    outer loop
      vertex 100.932 28.9419 -5.1
      vertex 102.705 21.8307 -0.1
      vertex 102.705 21.8307 -5.1
    endloop
  endfacet
  facet normal 0.951056 0.309017 0
    outer loop
      vertex 100.932 28.9419 -0.1
      vertex 98.6677 35.9121 -5.1
      vertex 98.6677 35.9121 -0.1
    endloop
  endfacet
  facet normal 0.951056 0.309017 0
    outer loop
      vertex 98.6677 35.9121 -5.1
      vertex 100.932 28.9419 -0.1
      vertex 100.932 28.9419 -5.1
    endloop
  endfacet
  facet normal 0.927184 0.374607 0
    outer loop
      vertex 98.6677 35.9121 -0.1
      vertex 95.9223 42.7073 -5.1
      vertex 95.9223 42.7073 -0.1
    endloop
  endfacet
  facet normal 0.927184 0.374607 0
    outer loop
      vertex 95.9223 42.7073 -5.1
      vertex 98.6677 35.9121 -0.1
      vertex 98.6677 35.9121 -5.1
    endloop
  endfacet
  facet normal 0.898794 0.438371 0
    outer loop
      vertex 95.9223 42.7073 -0.1
      vertex 92.7095 49.2945 -5.1
      vertex 92.7095 49.2945 -0.1
    endloop
  endfacet
  facet normal 0.898794 0.438371 0
    outer loop
      vertex 92.7095 49.2945 -5.1
      vertex 95.9223 42.7073 -0.1
      vertex 95.9223 42.7073 -5.1
    endloop
  endfacet
  facet normal 0.866026 0.5 0
    outer loop
      vertex 92.7095 49.2945 -0.1
      vertex 89.0451 55.6415 -5.1
      vertex 89.0451 55.6415 -0.1
    endloop
  endfacet
  facet normal 0.866026 0.5 0
    outer loop
      vertex 89.0451 55.6415 -5.1
      vertex 92.7095 49.2945 -0.1
      vertex 92.7095 49.2945 -5.1
    endloop
  endfacet
  facet normal 0.829038 0.559193 0
    outer loop
      vertex 89.0451 55.6415 -0.1
      vertex 84.9468 61.7175 -5.1
      vertex 84.9468 61.7175 -0.1
    endloop
  endfacet
  facet normal 0.829038 0.559193 0
    outer loop
      vertex 84.9468 61.7175 -5.1
      vertex 89.0451 55.6415 -0.1
      vertex 89.0451 55.6415 -5.1
    endloop
  endfacet
  facet normal 0.788011 0.615661 0
    outer loop
      vertex 84.9468 61.7175 -0.1
      vertex 80.4347 67.4927 -5.1
      vertex 80.4347 67.4927 -0.1
    endloop
  endfacet
  facet normal 0.788011 0.615661 0
    outer loop
      vertex 80.4347 67.4927 -5.1
      vertex 84.9468 61.7175 -0.1
      vertex 84.9468 61.7175 -5.1
    endloop
  endfacet
  facet normal 0.743145 0.669131 0
    outer loop
      vertex 80.4347 67.4927 -0.1
      vertex 75.5307 72.9391 -5.1
      vertex 75.5307 72.9391 -0.1
    endloop
  endfacet
  facet normal 0.743145 0.669131 0
    outer loop
      vertex 75.5307 72.9391 -5.1
      vertex 80.4347 67.4927 -0.1
      vertex 80.4347 67.4927 -5.1
    endloop
  endfacet
  facet normal 0.694658 0.71934 -0
    outer loop
      vertex 75.5307 72.9391 -5.1
      vertex 70.2587 78.0302 -0.1
      vertex 75.5307 72.9391 -0.1
    endloop
  endfacet
  facet normal 0.694658 0.71934 0
    outer loop
      vertex 70.2587 78.0302 -0.1
      vertex 75.5307 72.9391 -5.1
      vertex 70.2587 78.0302 -5.1
    endloop
  endfacet
  facet normal 0.642788 0.766044 -0
    outer loop
      vertex 70.2587 78.0302 -5.1
      vertex 64.6445 82.7411 -0.1
      vertex 70.2587 78.0302 -0.1
    endloop
  endfacet
  facet normal 0.642788 0.766044 0
    outer loop
      vertex 64.6445 82.7411 -0.1
      vertex 70.2587 78.0302 -5.1
      vertex 64.6445 82.7411 -5.1
    endloop
  endfacet
  facet normal 0.587785 0.809017 -0
    outer loop
      vertex 64.6445 82.7411 -5.1
      vertex 58.7153 87.0489 -0.1
      vertex 64.6445 82.7411 -0.1
    endloop
  endfacet
  facet normal 0.587785 0.809017 0
    outer loop
      vertex 58.7153 87.0489 -0.1
      vertex 64.6445 82.7411 -5.1
      vertex 58.7153 87.0489 -5.1
    endloop
  endfacet
  facet normal 0.52992 0.848048 -0
    outer loop
      vertex 58.7153 87.0489 -5.1
      vertex 52.5 90.9327 -0.1
      vertex 58.7153 87.0489 -0.1
    endloop
  endfacet
  facet normal 0.52992 0.848048 0
    outer loop
      vertex 52.5 90.9327 -0.1
      vertex 58.7153 87.0489 -5.1
      vertex 52.5 90.9327 -5.1
    endloop
  endfacet
  facet normal 0.469471 0.882948 -0
    outer loop
      vertex 52.5 90.9327 -5.1
      vertex 46.029 94.3734 -0.1
      vertex 52.5 90.9327 -0.1
    endloop
  endfacet
  facet normal 0.469471 0.882948 0
    outer loop
      vertex 46.029 94.3734 -0.1
      vertex 52.5 90.9327 -5.1
      vertex 46.029 94.3734 -5.1
    endloop
  endfacet
  facet normal 0.406736 0.913546 -0
    outer loop
      vertex 46.029 94.3734 -5.1
      vertex 39.3337 97.3543 -0.1
      vertex 46.029 94.3734 -0.1
    endloop
  endfacet
  facet normal 0.406736 0.913546 0
    outer loop
      vertex 39.3337 97.3543 -0.1
      vertex 46.029 94.3734 -5.1
      vertex 39.3337 97.3543 -5.1
    endloop
  endfacet
  facet normal 0.34202 0.939693 -0
    outer loop
      vertex 39.3337 97.3543 -5.1
      vertex 32.4468 99.8609 -0.1
      vertex 39.3337 97.3543 -0.1
    endloop
  endfacet
  facet normal 0.34202 0.939693 0
    outer loop
      vertex 32.4468 99.8609 -0.1
      vertex 39.3337 97.3543 -5.1
      vertex 32.4468 99.8609 -5.1
    endloop
  endfacet
  facet normal 0.275638 0.961262 -0
    outer loop
      vertex 32.4468 99.8609 -5.1
      vertex 25.4018 101.881 -0.1
      vertex 32.4468 99.8609 -0.1
    endloop
  endfacet
  facet normal 0.275638 0.961262 0
    outer loop
      vertex 25.4018 101.881 -0.1
      vertex 32.4468 99.8609 -5.1
      vertex 25.4018 101.881 -5.1
    endloop
  endfacet
  facet normal 0.207912 0.978148 -0
    outer loop
      vertex 25.4018 101.881 -5.1
      vertex 18.2331 103.405 -0.1
      vertex 25.4018 101.881 -0.1
    endloop
  endfacet
  facet normal 0.207912 0.978148 0
    outer loop
      vertex 18.2331 103.405 -0.1
      vertex 25.4018 101.881 -5.1
      vertex 18.2331 103.405 -5.1
    endloop
  endfacet
  facet normal 0.139173 0.990268 -0
    outer loop
      vertex 18.2331 103.405 -5.1
      vertex 10.9755 104.425 -0.1
      vertex 18.2331 103.405 -0.1
    endloop
  endfacet
  facet normal 0.139173 0.990268 0
    outer loop
      vertex 10.9755 104.425 -0.1
      vertex 18.2331 103.405 -5.1
      vertex 10.9755 104.425 -5.1
    endloop
  endfacet
  facet normal 0.0697565 0.997564 -0
    outer loop
      vertex 10.9755 104.425 -5.1
      vertex 3.66445 104.936 -0.1
      vertex 10.9755 104.425 -0.1
    endloop
  endfacet
  facet normal 0.0697565 0.997564 0
    outer loop
      vertex 3.66445 104.936 -0.1
      vertex 10.9755 104.425 -5.1
      vertex 3.66445 104.936 -5.1
    endloop
  endfacet
  facet normal 0 1 -0
    outer loop
      vertex 3.66445 104.936 -5.1
      vertex -3.66445 104.936 -0.1
      vertex 3.66445 104.936 -0.1
    endloop
  endfacet
  facet normal 0 1 0
    outer loop
      vertex -3.66445 104.936 -0.1
      vertex 3.66445 104.936 -5.1
      vertex -3.66445 104.936 -5.1
    endloop
  endfacet
  facet normal -0.0697565 0.997564 0
    outer loop
      vertex -3.66445 104.936 -5.1
      vertex -10.9755 104.425 -0.1
      vertex -3.66445 104.936 -0.1
    endloop
  endfacet
  facet normal -0.0697565 0.997564 0
    outer loop
      vertex -10.9755 104.425 -0.1
      vertex -3.66445 104.936 -5.1
      vertex -10.9755 104.425 -5.1
    endloop
  endfacet
  facet normal -0.139173 0.990268 0
    outer loop
      vertex -10.9755 104.425 -5.1
      vertex -18.2331 103.405 -0.1
      vertex -10.9755 104.425 -0.1
    endloop
  endfacet
  facet normal -0.139173 0.990268 0
    outer loop
      vertex -18.2331 103.405 -0.1
      vertex -10.9755 104.425 -5.1
      vertex -18.2331 103.405 -5.1
    endloop
  endfacet
  facet normal -0.207912 0.978148 0
    outer loop
      vertex -18.2331 103.405 -5.1
      vertex -25.4018 101.881 -0.1
      vertex -18.2331 103.405 -0.1
    endloop
  endfacet
  facet normal -0.207912 0.978148 0
    outer loop
      vertex -25.4018 101.881 -0.1
      vertex -18.2331 103.405 -5.1
      vertex -25.4018 101.881 -5.1
    endloop
  endfacet
  facet normal -0.275638 0.961262 0
    outer loop
      vertex -25.4018 101.881 -5.1
      vertex -32.4468 99.8609 -0.1
      vertex -25.4018 101.881 -0.1
    endloop
  endfacet
  facet normal -0.275638 0.961262 0
    outer loop
      vertex -32.4468 99.8609 -0.1
      vertex -25.4018 101.881 -5.1
      vertex -32.4468 99.8609 -5.1
    endloop
  endfacet
  facet normal -0.34202 0.939693 0
    outer loop
      vertex -32.4468 99.8609 -5.1
      vertex -39.3337 97.3543 -0.1
      vertex -32.4468 99.8609 -0.1
    endloop
  endfacet
  facet normal -0.34202 0.939693 0
    outer loop
      vertex -39.3337 97.3543 -0.1
      vertex -32.4468 99.8609 -5.1
      vertex -39.3337 97.3543 -5.1
    endloop
  endfacet
  facet normal -0.406736 0.913546 0
    outer loop
      vertex -39.3337 97.3543 -5.1
      vertex -46.029 94.3734 -0.1
      vertex -39.3337 97.3543 -0.1
    endloop
  endfacet
  facet normal -0.406736 0.913546 0
    outer loop
      vertex -46.029 94.3734 -0.1
      vertex -39.3337 97.3543 -5.1
      vertex -46.029 94.3734 -5.1
    endloop
  endfacet
  facet normal -0.469471 0.882948 0
    outer loop
      vertex -46.029 94.3734 -5.1
      vertex -52.5 90.9327 -0.1
      vertex -46.029 94.3734 -0.1
    endloop
  endfacet
  facet normal -0.469471 0.882948 0
    outer loop
      vertex -52.5 90.9327 -0.1
      vertex -46.029 94.3734 -5.1
      vertex -52.5 90.9327 -5.1
    endloop
  endfacet
  facet normal -0.52992 0.848048 0
    outer loop
      vertex -52.5 90.9327 -5.1
      vertex -58.7153 87.0489 -0.1
      vertex -52.5 90.9327 -0.1
    endloop
  endfacet
  facet normal -0.52992 0.848048 0
    outer loop
      vertex -58.7153 87.0489 -0.1
      vertex -52.5 90.9327 -5.1
      vertex -58.7153 87.0489 -5.1
    endloop
  endfacet
  facet normal -0.587785 0.809017 0
    outer loop
      vertex -58.7153 87.0489 -5.1
      vertex -64.6445 82.7411 -0.1
      vertex -58.7153 87.0489 -0.1
    endloop
  endfacet
  facet normal -0.587785 0.809017 0
    outer loop
      vertex -64.6445 82.7411 -0.1
      vertex -58.7153 87.0489 -5.1
      vertex -64.6445 82.7411 -5.1
    endloop
  endfacet
  facet normal -0.642788 0.766044 0
    outer loop
      vertex -64.6445 82.7411 -5.1
      vertex -70.2587 78.0302 -0.1
      vertex -64.6445 82.7411 -0.1
    endloop
  endfacet
  facet normal -0.642788 0.766044 0
    outer loop
      vertex -70.2587 78.0302 -0.1
      vertex -64.6445 82.7411 -5.1
      vertex -70.2587 78.0302 -5.1
    endloop
  endfacet
  facet normal -0.694658 0.71934 0
    outer loop
      vertex -70.2587 78.0302 -5.1
      vertex -75.5307 72.9391 -0.1
      vertex -70.2587 78.0302 -0.1
    endloop
  endfacet
  facet normal -0.694658 0.71934 0
    outer loop
      vertex -75.5307 72.9391 -0.1
      vertex -70.2587 78.0302 -5.1
      vertex -75.5307 72.9391 -5.1
    endloop
  endfacet
  facet normal -0.743145 0.669131 0
    outer loop
      vertex -80.4347 67.4927 -5.1
      vertex -75.5307 72.9391 -0.1
      vertex -75.5307 72.9391 -5.1
    endloop
  endfacet
  facet normal -0.743145 0.669131 0
    outer loop
      vertex -75.5307 72.9391 -0.1
      vertex -80.4347 67.4927 -5.1
      vertex -80.4347 67.4927 -0.1
    endloop
  endfacet
  facet normal -0.788011 0.615661 0
    outer loop
      vertex -84.9468 61.7175 -5.1
      vertex -80.4347 67.4927 -0.1
      vertex -80.4347 67.4927 -5.1
    endloop
  endfacet
  facet normal -0.788011 0.615661 0
    outer loop
      vertex -80.4347 67.4927 -0.1
      vertex -84.9468 61.7175 -5.1
      vertex -84.9468 61.7175 -0.1
    endloop
  endfacet
  facet normal -0.829038 0.559193 0
    outer loop
      vertex -89.0451 55.6415 -5.1
      vertex -84.9468 61.7175 -0.1
      vertex -84.9468 61.7175 -5.1
    endloop
  endfacet
  facet normal -0.829038 0.559193 0
    outer loop
      vertex -84.9468 61.7175 -0.1
      vertex -89.0451 55.6415 -5.1
      vertex -89.0451 55.6415 -0.1
    endloop
  endfacet
  facet normal -0.866026 0.5 0
    outer loop
      vertex -92.7095 49.2945 -5.1
      vertex -89.0451 55.6415 -0.1
      vertex -89.0451 55.6415 -5.1
    endloop
  endfacet
  facet normal -0.866026 0.5 0
    outer loop
      vertex -89.0451 55.6415 -0.1
      vertex -92.7095 49.2945 -5.1
      vertex -92.7095 49.2945 -0.1
    endloop
  endfacet
  facet normal -0.898794 0.438371 0
    outer loop
      vertex -95.9223 42.7073 -5.1
      vertex -92.7095 49.2945 -0.1
      vertex -92.7095 49.2945 -5.1
    endloop
  endfacet
  facet normal -0.898794 0.438371 0
    outer loop
      vertex -92.7095 49.2945 -0.1
      vertex -95.9223 42.7073 -5.1
      vertex -95.9223 42.7073 -0.1
    endloop
  endfacet
  facet normal -0.927184 0.374607 0
    outer loop
      vertex -98.6677 35.9121 -5.1
      vertex -95.9223 42.7073 -0.1
      vertex -95.9223 42.7073 -5.1
    endloop
  endfacet
  facet normal -0.927184 0.374607 0
    outer loop
      vertex -95.9223 42.7073 -0.1
      vertex -98.6677 35.9121 -5.1
      vertex -98.6677 35.9121 -0.1
    endloop
  endfacet
  facet normal -0.951056 0.309017 0
    outer loop
      vertex -100.932 28.9419 -5.1
      vertex -98.6677 35.9121 -0.1
      vertex -98.6677 35.9121 -5.1
    endloop
  endfacet
  facet normal -0.951056 0.309017 0
    outer loop
      vertex -98.6677 35.9121 -0.1
      vertex -100.932 28.9419 -5.1
      vertex -100.932 28.9419 -0.1
    endloop
  endfacet
  facet normal -0.970296 0.241922 0
    outer loop
      vertex -102.705 21.8307 -5.1
      vertex -100.932 28.9419 -0.1
      vertex -100.932 28.9419 -5.1
    endloop
  endfacet
  facet normal -0.970296 0.241922 0
    outer loop
      vertex -100.932 28.9419 -0.1
      vertex -102.705 21.8307 -5.1
      vertex -102.705 21.8307 -0.1
    endloop
  endfacet
  facet normal -0.984808 0.173649 0
    outer loop
      vertex -103.978 14.6132 -5.1
      vertex -102.705 21.8307 -0.1
      vertex -102.705 21.8307 -5.1
    endloop
  endfacet
  facet normal -0.984808 0.173649 0
    outer loop
      vertex -102.705 21.8307 -0.1
      vertex -103.978 14.6132 -5.1
      vertex -103.978 14.6132 -0.1
    endloop
  endfacet
  facet normal -0.994522 0.104528 0
    outer loop
      vertex -104.744 7.32443 -5.1
      vertex -103.978 14.6132 -0.1
      vertex -103.978 14.6132 -5.1
    endloop
  endfacet
  facet normal -0.994522 0.104528 0
    outer loop
      vertex -103.978 14.6132 -0.1
      vertex -104.744 7.32443 -5.1
      vertex -104.744 7.32443 -0.1
    endloop
  endfacet
  facet normal -0.999391 0.0348996 0
    outer loop
      vertex -105 1.28588e-14 -5.1
      vertex -104.744 7.32443 -0.1
      vertex -104.744 7.32443 -5.1
    endloop
  endfacet
  facet normal -0.999391 0.0348996 0
    outer loop
      vertex -104.744 7.32443 -0.1
      vertex -105 1.28588e-14 -5.1
      vertex -105 1.28588e-14 -0.1
    endloop
  endfacet
  facet normal -0.999391 -0.0348996 0
    outer loop
      vertex -104.744 -7.32443 -5.1
      vertex -105 1.28588e-14 -0.1
      vertex -105 1.28588e-14 -5.1
    endloop
  endfacet
  facet normal -0.999391 -0.0348996 0
    outer loop
      vertex -105 1.28588e-14 -0.1
      vertex -104.744 -7.32443 -5.1
      vertex -104.744 -7.32443 -0.1
    endloop
  endfacet
  facet normal -0.994522 -0.104528 0
    outer loop
      vertex -103.978 -14.6132 -5.1
      vertex -104.744 -7.32443 -0.1
      vertex -104.744 -7.32443 -5.1
    endloop
  endfacet
  facet normal -0.994522 -0.104528 0
    outer loop
      vertex -104.744 -7.32443 -0.1
      vertex -103.978 -14.6132 -5.1
      vertex -103.978 -14.6132 -0.1
    endloop
  endfacet
  facet normal -0.984808 -0.173649 0
    outer loop
      vertex -102.705 -21.8307 -5.1
      vertex -103.978 -14.6132 -0.1
      vertex -103.978 -14.6132 -5.1
    endloop
  endfacet
  facet normal -0.984808 -0.173649 0
    outer loop
      vertex -103.978 -14.6132 -0.1
      vertex -102.705 -21.8307 -5.1
      vertex -102.705 -21.8307 -0.1
    endloop
  endfacet
  facet normal -0.970296 -0.241922 0
    outer loop
      vertex -100.932 -28.9419 -5.1
      vertex -102.705 -21.8307 -0.1
      vertex -102.705 -21.8307 -5.1
    endloop
  endfacet
  facet normal -0.970296 -0.241922 0
    outer loop
      vertex -102.705 -21.8307 -0.1
      vertex -100.932 -28.9419 -5.1
      vertex -100.932 -28.9419 -0.1
    endloop
  endfacet
  facet normal -0.951056 -0.309017 0
    outer loop
      vertex -98.6677 -35.9121 -5.1
      vertex -100.932 -28.9419 -0.1
      vertex -100.932 -28.9419 -5.1
    endloop
  endfacet
  facet normal -0.951056 -0.309017 0
    outer loop
      vertex -100.932 -28.9419 -0.1
      vertex -98.6677 -35.9121 -5.1
      vertex -98.6677 -35.9121 -0.1
    endloop
  endfacet
  facet normal -0.927184 -0.374607 0
    outer loop
      vertex -95.9223 -42.7073 -5.1
      vertex -98.6677 -35.9121 -0.1
      vertex -98.6677 -35.9121 -5.1
    endloop
  endfacet
  facet normal -0.927184 -0.374607 0
    outer loop
      vertex -98.6677 -35.9121 -0.1
      vertex -95.9223 -42.7073 -5.1
      vertex -95.9223 -42.7073 -0.1
    endloop
  endfacet
  facet normal -0.898794 -0.438371 0
    outer loop
      vertex -92.7095 -49.2945 -5.1
      vertex -95.9223 -42.7073 -0.1
      vertex -95.9223 -42.7073 -5.1
    endloop
  endfacet
  facet normal -0.898794 -0.438371 0
    outer loop
      vertex -95.9223 -42.7073 -0.1
      vertex -92.7095 -49.2945 -5.1
      vertex -92.7095 -49.2945 -0.1
    endloop
  endfacet
  facet normal -0.866026 -0.5 0
    outer loop
      vertex -89.0451 -55.6415 -5.1
      vertex -92.7095 -49.2945 -0.1
      vertex -92.7095 -49.2945 -5.1
    endloop
  endfacet
  facet normal -0.866026 -0.5 0
    outer loop
      vertex -92.7095 -49.2945 -0.1
      vertex -89.0451 -55.6415 -5.1
      vertex -89.0451 -55.6415 -0.1
    endloop
  endfacet
  facet normal -0.829038 -0.559193 0
    outer loop
      vertex -84.9468 -61.7175 -5.1
      vertex -89.0451 -55.6415 -0.1
      vertex -89.0451 -55.6415 -5.1
    endloop
  endfacet
  facet normal -0.829038 -0.559193 0
    outer loop
      vertex -89.0451 -55.6415 -0.1
      vertex -84.9468 -61.7175 -5.1
      vertex -84.9468 -61.7175 -0.1
    endloop
  endfacet
  facet normal -0.788011 -0.615661 0
    outer loop
      vertex -80.4347 -67.4927 -5.1
      vertex -84.9468 -61.7175 -0.1
      vertex -84.9468 -61.7175 -5.1
    endloop
  endfacet
  facet normal -0.788011 -0.615661 0
    outer loop
      vertex -84.9468 -61.7175 -0.1
      vertex -80.4347 -67.4927 -5.1
      vertex -80.4347 -67.4927 -0.1
    endloop
  endfacet
  facet normal -0.743145 -0.669131 0
    outer loop
      vertex -75.5307 -72.9391 -5.1
      vertex -80.4347 -67.4927 -0.1
      vertex -80.4347 -67.4927 -5.1
    endloop
  endfacet
  facet normal -0.743145 -0.669131 0
    outer loop
      vertex -80.4347 -67.4927 -0.1
      vertex -75.5307 -72.9391 -5.1
      vertex -75.5307 -72.9391 -0.1
    endloop
  endfacet
  facet normal -0.694658 -0.71934 0
    outer loop
      vertex -75.5307 -72.9391 -5.1
      vertex -70.2587 -78.0302 -0.1
      vertex -75.5307 -72.9391 -0.1
    endloop
  endfacet
  facet normal -0.694658 -0.71934 -0
    outer loop
      vertex -70.2587 -78.0302 -0.1
      vertex -75.5307 -72.9391 -5.1
      vertex -70.2587 -78.0302 -5.1
    endloop
  endfacet
  facet normal -0.642788 -0.766044 0
    outer loop
      vertex -70.2587 -78.0302 -5.1
      vertex -64.6445 -82.7411 -0.1
      vertex -70.2587 -78.0302 -0.1
    endloop
  endfacet
  facet normal -0.642788 -0.766044 -0
    outer loop
      vertex -64.6445 -82.7411 -0.1
      vertex -70.2587 -78.0302 -5.1
      vertex -64.6445 -82.7411 -5.1
    endloop
  endfacet
  facet normal -0.587785 -0.809017 0
    outer loop
      vertex -64.6445 -82.7411 -5.1
      vertex -58.7153 -87.0489 -0.1
      vertex -64.6445 -82.7411 -0.1
    endloop
  endfacet
  facet normal -0.587785 -0.809017 -0
    outer loop
      vertex -58.7153 -87.0489 -0.1
      vertex -64.6445 -82.7411 -5.1
      vertex -58.7153 -87.0489 -5.1
    endloop
  endfacet
  facet normal -0.52992 -0.848048 0
    outer loop
      vertex -58.7153 -87.0489 -5.1
      vertex -52.5 -90.9327 -0.1
      vertex -58.7153 -87.0489 -0.1
    endloop
  endfacet
  facet normal -0.52992 -0.848048 -0
    outer loop
      vertex -52.5 -90.9327 -0.1
      vertex -58.7153 -87.0489 -5.1
      vertex -52.5 -90.9327 -5.1
    endloop
  endfacet
  facet normal -0.469471 -0.882948 0
    outer loop
      vertex -52.5 -90.9327 -5.1
      vertex -46.029 -94.3734 -0.1
      vertex -52.5 -90.9327 -0.1
    endloop
  endfacet
  facet normal -0.469471 -0.882948 -0
    outer loop
      vertex -46.029 -94.3734 -0.1
      vertex -52.5 -90.9327 -5.1
      vertex -46.029 -94.3734 -5.1
    endloop
  endfacet
  facet normal -0.406736 -0.913546 0
    outer loop
      vertex -46.029 -94.3734 -5.1
      vertex -39.3337 -97.3543 -0.1
      vertex -46.029 -94.3734 -0.1
    endloop
  endfacet
  facet normal -0.406736 -0.913546 -0
    outer loop
      vertex -39.3337 -97.3543 -0.1
      vertex -46.029 -94.3734 -5.1
      vertex -39.3337 -97.3543 -5.1
    endloop
  endfacet
  facet normal -0.34202 -0.939693 0
    outer loop
      vertex -39.3337 -97.3543 -5.1
      vertex -32.4468 -99.8609 -0.1
      vertex -39.3337 -97.3543 -0.1
    endloop
  endfacet
  facet normal -0.34202 -0.939693 -0
    outer loop
      vertex -32.4468 -99.8609 -0.1
      vertex -39.3337 -97.3543 -5.1
      vertex -32.4468 -99.8609 -5.1
    endloop
  endfacet
  facet normal -0.275638 -0.961262 0
    outer loop
      vertex -32.4468 -99.8609 -5.1
      vertex -25.4018 -101.881 -0.1
      vertex -32.4468 -99.8609 -0.1
    endloop
  endfacet
  facet normal -0.275638 -0.961262 -0
    outer loop
      vertex -25.4018 -101.881 -0.1
      vertex -32.4468 -99.8609 -5.1
      vertex -25.4018 -101.881 -5.1
    endloop
  endfacet
  facet normal -0.207912 -0.978148 0
    outer loop
      vertex -25.4018 -101.881 -5.1
      vertex -18.2331 -103.405 -0.1
      vertex -25.4018 -101.881 -0.1
    endloop
  endfacet
  facet normal -0.207912 -0.978148 -0
    outer loop
      vertex -18.2331 -103.405 -0.1
      vertex -25.4018 -101.881 -5.1
      vertex -18.2331 -103.405 -5.1
    endloop
  endfacet
  facet normal -0.139173 -0.990268 0
    outer loop
      vertex -18.2331 -103.405 -5.1
      vertex -10.9755 -104.425 -0.1
      vertex -18.2331 -103.405 -0.1
    endloop
  endfacet
  facet normal -0.139173 -0.990268 -0
    outer loop
      vertex -10.9755 -104.425 -0.1
      vertex -18.2331 -103.405 -5.1
      vertex -10.9755 -104.425 -5.1
    endloop
  endfacet
  facet normal -0.0697565 -0.997564 0
    outer loop
      vertex -10.9755 -104.425 -5.1
      vertex -3.66445 -104.936 -0.1
      vertex -10.9755 -104.425 -0.1
    endloop
  endfacet
  facet normal -0.0697565 -0.997564 -0
    outer loop
      vertex -3.66445 -104.936 -0.1
      vertex -10.9755 -104.425 -5.1
      vertex -3.66445 -104.936 -5.1
    endloop
  endfacet
  facet normal 0 -1 0
    outer loop
      vertex -3.66445 -104.936 -5.1
      vertex 3.66445 -104.936 -0.1
      vertex -3.66445 -104.936 -0.1
    endloop
  endfacet
  facet normal 0 -1 -0
    outer loop
      vertex 3.66445 -104.936 -0.1
      vertex -3.66445 -104.936 -5.1
      vertex 3.66445 -104.936 -5.1
    endloop
  endfacet
  facet normal 0.0697565 -0.997564 0
    outer loop
      vertex 3.66445 -104.936 -5.1
      vertex 10.9755 -104.425 -0.1
      vertex 3.66445 -104.936 -0.1
    endloop
  endfacet
  facet normal 0.0697565 -0.997564 0
    outer loop
      vertex 10.9755 -104.425 -0.1
      vertex 3.66445 -104.936 -5.1
      vertex 10.9755 -104.425 -5.1
    endloop
  endfacet
  facet normal 0.139173 -0.990268 0
    outer loop
      vertex 10.9755 -104.425 -5.1
      vertex 18.2331 -103.405 -0.1
      vertex 10.9755 -104.425 -0.1
    endloop
  endfacet
  facet normal 0.139173 -0.990268 0
    outer loop
      vertex 18.2331 -103.405 -0.1
      vertex 10.9755 -104.425 -5.1
      vertex 18.2331 -103.405 -5.1
    endloop
  endfacet
  facet normal 0.207912 -0.978148 0
    outer loop
      vertex 18.2331 -103.405 -5.1
      vertex 25.4018 -101.881 -0.1
      vertex 18.2331 -103.405 -0.1
    endloop
  endfacet
  facet normal 0.207912 -0.978148 0
    outer loop
      vertex 25.4018 -101.881 -0.1
      vertex 18.2331 -103.405 -5.1
      vertex 25.4018 -101.881 -5.1
    endloop
  endfacet
  facet normal 0.275638 -0.961262 0
    outer loop
      vertex 25.4018 -101.881 -5.1
      vertex 32.4468 -99.8609 -0.1
      vertex 25.4018 -101.881 -0.1
    endloop
  endfacet
  facet normal 0.275638 -0.961262 0
    outer loop
      vertex 32.4468 -99.8609 -0.1
      vertex 25.4018 -101.881 -5.1
      vertex 32.4468 -99.8609 -5.1
    endloop
  endfacet
  facet normal 0.34202 -0.939693 0
    outer loop
      vertex 32.4468 -99.8609 -5.1
      vertex 39.3337 -97.3543 -0.1
      vertex 32.4468 -99.8609 -0.1
    endloop
  endfacet
  facet normal 0.34202 -0.939693 0
    outer loop
      vertex 39.3337 -97.3543 -0.1
      vertex 32.4468 -99.8609 -5.1
      vertex 39.3337 -97.3543 -5.1
    endloop
  endfacet
  facet normal 0.406736 -0.913546 0
    outer loop
      vertex 39.3337 -97.3543 -5.1
      vertex 46.029 -94.3734 -0.1
      vertex 39.3337 -97.3543 -0.1
    endloop
  endfacet
  facet normal 0.406736 -0.913546 0
    outer loop
      vertex 46.029 -94.3734 -0.1
      vertex 39.3337 -97.3543 -5.1
      vertex 46.029 -94.3734 -5.1
    endloop
  endfacet
  facet normal 0.469471 -0.882948 0
    outer loop
      vertex 46.029 -94.3734 -5.1
      vertex 52.5 -90.9327 -0.1
      vertex 46.029 -94.3734 -0.1
    endloop
  endfacet
  facet normal 0.469471 -0.882948 0
    outer loop
      vertex 52.5 -90.9327 -0.1
      vertex 46.029 -94.3734 -5.1
      vertex 52.5 -90.9327 -5.1
    endloop
  endfacet
  facet normal 0.52992 -0.848048 0
    outer loop
      vertex 52.5 -90.9327 -5.1
      vertex 58.7153 -87.0489 -0.1
      vertex 52.5 -90.9327 -0.1
    endloop
  endfacet
  facet normal 0.52992 -0.848048 0
    outer loop
      vertex 58.7153 -87.0489 -0.1
      vertex 52.5 -90.9327 -5.1
      vertex 58.7153 -87.0489 -5.1
    endloop
  endfacet
  facet normal 0.587785 -0.809017 0
    outer loop
      vertex 58.7153 -87.0489 -5.1
      vertex 64.6445 -82.7411 -0.1
      vertex 58.7153 -87.0489 -0.1
    endloop
  endfacet
  facet normal 0.587785 -0.809017 0
    outer loop
      vertex 64.6445 -82.7411 -0.1
      vertex 58.7153 -87.0489 -5.1
      vertex 64.6445 -82.7411 -5.1
    endloop
  endfacet
  facet normal 0.642788 -0.766044 0
    outer loop
      vertex 64.6445 -82.7411 -5.1
      vertex 70.2587 -78.0302 -0.1
      vertex 64.6445 -82.7411 -0.1
    endloop
  endfacet
  facet normal 0.642788 -0.766044 0
    outer loop
      vertex 70.2587 -78.0302 -0.1
      vertex 64.6445 -82.7411 -5.1
      vertex 70.2587 -78.0302 -5.1
    endloop
  endfacet
  facet normal 0.694658 -0.71934 0
    outer loop
      vertex 70.2587 -78.0302 -5.1
      vertex 75.5307 -72.9391 -0.1
      vertex 70.2587 -78.0302 -0.1
    endloop
  endfacet
  facet normal 0.694658 -0.71934 0
    outer loop
      vertex 75.5307 -72.9391 -0.1
      vertex 70.2587 -78.0302 -5.1
      vertex 75.5307 -72.9391 -5.1
    endloop
  endfacet
  facet normal 0.743145 -0.669131 0
    outer loop
      vertex 75.5307 -72.9391 -0.1
      vertex 80.4347 -67.4927 -5.1
      vertex 80.4347 -67.4927 -0.1
    endloop
  endfacet
  facet normal 0.743145 -0.669131 0
    outer loop
      vertex 80.4347 -67.4927 -5.1
      vertex 75.5307 -72.9391 -0.1
      vertex 75.5307 -72.9391 -5.1
    endloop
  endfacet
  facet normal 0.788011 -0.615661 0
    outer loop
      vertex 80.4347 -67.4927 -0.1
      vertex 84.9468 -61.7175 -5.1
      vertex 84.9468 -61.7175 -0.1
    endloop
  endfacet
  facet normal 0.788011 -0.615661 0
    outer loop
      vertex 84.9468 -61.7175 -5.1
      vertex 80.4347 -67.4927 -0.1
      vertex 80.4347 -67.4927 -5.1
    endloop
  endfacet
  facet normal 0.829038 -0.559193 0
    outer loop
      vertex 84.9468 -61.7175 -0.1
      vertex 89.0451 -55.6415 -5.1
      vertex 89.0451 -55.6415 -0.1
    endloop
  endfacet
  facet normal 0.829038 -0.559193 0
    outer loop
      vertex 89.0451 -55.6415 -5.1
      vertex 84.9468 -61.7175 -0.1
      vertex 84.9468 -61.7175 -5.1
    endloop
  endfacet
  facet normal 0.866026 -0.5 0
    outer loop
      vertex 89.0451 -55.6415 -0.1
      vertex 92.7095 -49.2945 -5.1
      vertex 92.7095 -49.2945 -0.1
    endloop
  endfacet
  facet normal 0.866026 -0.5 0
    outer loop
      vertex 92.7095 -49.2945 -5.1
      vertex 89.0451 -55.6415 -0.1
      vertex 89.0451 -55.6415 -5.1
    endloop
  endfacet
  facet normal 0.898794 -0.438371 0
    outer loop
      vertex 92.7095 -49.2945 -0.1
      vertex 95.9223 -42.7073 -5.1
      vertex 95.9223 -42.7073 -0.1
    endloop
  endfacet
  facet normal 0.898794 -0.438371 0
    outer loop
      vertex 95.9223 -42.7073 -5.1
      vertex 92.7095 -49.2945 -0.1
      vertex 92.7095 -49.2945 -5.1
    endloop
  endfacet
  facet normal 0.927184 -0.374607 0
    outer loop
      vertex 95.9223 -42.7073 -0.1
      vertex 98.6677 -35.9121 -5.1
      vertex 98.6677 -35.9121 -0.1
    endloop
  endfacet
  facet normal 0.927184 -0.374607 0
    outer loop
      vertex 98.6677 -35.9121 -5.1
      vertex 95.9223 -42.7073 -0.1
      vertex 95.9223 -42.7073 -5.1
    endloop
  endfacet
  facet normal 0.951056 -0.309017 0
    outer loop
      vertex 98.6677 -35.9121 -0.1
      vertex 100.932 -28.9419 -5.1
      vertex 100.932 -28.9419 -0.1
    endloop
  endfacet
  facet normal 0.951056 -0.309017 0
    outer loop
      vertex 100.932 -28.9419 -5.1
      vertex 98.6677 -35.9121 -0.1
      vertex 98.6677 -35.9121 -5.1
    endloop
  endfacet
  facet normal 0.970296 -0.241922 0
    outer loop
      vertex 100.932 -28.9419 -0.1
      vertex 102.705 -21.8307 -5.1
      vertex 102.705 -21.8307 -0.1
    endloop
  endfacet
  facet normal 0.970296 -0.241922 0
    outer loop
      vertex 102.705 -21.8307 -5.1
      vertex 100.932 -28.9419 -0.1
      vertex 100.932 -28.9419 -5.1
    endloop
  endfacet
  facet normal 0.984808 -0.173649 0
    outer loop
      vertex 102.705 -21.8307 -0.1
      vertex 103.978 -14.6132 -5.1
      vertex 103.978 -14.6132 -0.1
    endloop
  endfacet
  facet normal 0.984808 -0.173649 0
    outer loop
      vertex 103.978 -14.6132 -5.1
      vertex 102.705 -21.8307 -0.1
      vertex 102.705 -21.8307 -5.1
    endloop
  endfacet
  facet normal 0.994522 -0.104528 0
    outer loop
      vertex 103.978 -14.6132 -0.1
      vertex 104.744 -7.32443 -5.1
      vertex 104.744 -7.32443 -0.1
    endloop
  endfacet
  facet normal 0.994522 -0.104528 0
    outer loop
      vertex 104.744 -7.32443 -5.1
      vertex 103.978 -14.6132 -0.1
      vertex 103.978 -14.6132 -5.1
    endloop
  endfacet
  facet normal 0.999391 -0.0348996 0
    outer loop
      vertex 104.744 -7.32443 -0.1
      vertex 105 0 -5.1
      vertex 105 0 -0.1
    endloop
  endfacet
  facet normal 0.999391 -0.0348996 0
    outer loop
      vertex 105 0 -5.1
      vertex 104.744 -7.32443 -0.1
      vertex 104.744 -7.32443 -5.1
    endloop
  endfacet
  facet normal 0 0 -1
    outer loop
      vertex 104.744 -7.32443 -5.1
      vertex 104.744 7.32443 -5.1
      vertex 105 0 -5.1
    endloop
  endfacet
  facet normal 0 0 -1
    outer loop
      vertex 103.978 -14.6132 -5.1
      vertex 104.744 7.32443 -5.1
      vertex 104.744 -7.32443 -5.1
    endloop
  endfacet
  facet normal 0 0 -1
    outer loop
      vertex 103.978 -14.6132 -5.1
      vertex 103.978 14.6132 -5.1
      vertex 104.744 7.32443 -5.1
    endloop
  endfacet
  facet normal 0 0 -1
    outer loop
      vertex 102.705 -21.8307 -5.1
      vertex 103.978 14.6132 -5.1
      vertex 103.978 -14.6132 -5.1
    endloop
  endfacet
  facet normal 0 0 -1
    outer loop
      vertex 102.705 -21.8307 -5.1
      vertex 102.705 21.8307 -5.1
      vertex 103.978 14.6132 -5.1
    endloop
  endfacet
  facet normal 0 0 -1
    outer loop
      vertex 100.932 -28.9419 -5.1
      vertex 102.705 21.8307 -5.1
      vertex 102.705 -21.8307 -5.1
    endloop
  endfacet
  facet normal 0 0 -1
    outer loop
      vertex 100.932 -28.9419 -5.1
      vertex 100.932 28.9419 -5.1
      vertex 102.705 21.8307 -5.1
    endloop
  endfacet
  facet normal 0 0 -1
    outer loop
      vertex 98.6677 -35.9121 -5.1
      vertex 100.932 28.9419 -5.1
      vertex 100.932 -28.9419 -5.1
    endloop
  endfacet
  facet normal 0 0 -1
    outer loop
      vertex 98.6677 -35.9121 -5.1
      vertex 98.6677 35.9121 -5.1
      vertex 100.932 28.9419 -5.1
    endloop
  endfacet
  facet normal 0 0 -1
    outer loop
      vertex 95.9223 -42.7073 -5.1
      vertex 98.6677 35.9121 -5.1
      vertex 98.6677 -35.9121 -5.1
    endloop
  endfacet
  facet normal 0 0 -1
    outer loop
      vertex 95.9223 -42.7073 -5.1
      vertex 95.9223 42.7073 -5.1
      vertex 98.6677 35.9121 -5.1
    endloop
  endfacet
  facet normal 0 0 -1
    outer loop
      vertex 92.7095 -49.2945 -5.1
      vertex 95.9223 42.7073 -5.1
      vertex 95.9223 -42.7073 -5.1
    endloop
  endfacet
  facet normal 0 0 -1
    outer loop
      vertex 92.7095 -49.2945 -5.1
      vertex 92.7095 49.2945 -5.1
      vertex 95.9223 42.7073 -5.1
    endloop
  endfacet
  facet normal 0 0 -1
    outer loop
      vertex 89.0451 -55.6415 -5.1
      vertex 92.7095 49.2945 -5.1
      vertex 92.7095 -49.2945 -5.1
    endloop
  endfacet
  facet normal 0 0 -1
    outer loop
      vertex 89.0451 -55.6415 -5.1
      vertex 89.0451 55.6415 -5.1
      vertex 92.7095 49.2945 -5.1
    endloop
  endfacet
  facet normal 0 0 -1
    outer loop
      vertex 84.9468 -61.7175 -5.1
      vertex 89.0451 55.6415 -5.1
      vertex 89.0451 -55.6415 -5.1
    endloop
  endfacet
  facet normal 0 0 -1
    outer loop
      vertex 84.9468 -61.7175 -5.1
      vertex 84.9468 61.7175 -5.1
      vertex 89.0451 55.6415 -5.1
    endloop
  endfacet
  facet normal 0 0 -1
    outer loop
      vertex 80.4347 -67.4927 -5.1
      vertex 84.9468 61.7175 -5.1
      vertex 84.9468 -61.7175 -5.1
    endloop
  endfacet
  facet normal 0 0 -1
    outer loop
      vertex 80.4347 -67.4927 -5.1
      vertex 80.4347 67.4927 -5.1
      vertex 84.9468 61.7175 -5.1
    endloop
  endfacet
  facet normal 0 0 -1
    outer loop
      vertex 75.5307 -72.9391 -5.1
      vertex 80.4347 67.4927 -5.1
      vertex 80.4347 -67.4927 -5.1
    endloop
  endfacet
  facet normal 0 0 -1
    outer loop
      vertex 75.5307 -72.9391 -5.1
      vertex 75.5307 72.9391 -5.1
      vertex 80.4347 67.4927 -5.1
    endloop
  endfacet
  facet normal 0 0 -1
    outer loop
      vertex 70.2587 -78.0302 -5.1
      vertex 75.5307 72.9391 -5.1
      vertex 75.5307 -72.9391 -5.1
    endloop
  endfacet
  facet normal 0 0 -1
    outer loop
      vertex 70.2587 -78.0302 -5.1
      vertex 70.2587 78.0302 -5.1
      vertex 75.5307 72.9391 -5.1
    endloop
  endfacet
  facet normal 0 0 -1
    outer loop
      vertex 64.6445 -82.7411 -5.1
      vertex 70.2587 78.0302 -5.1
      vertex 70.2587 -78.0302 -5.1
    endloop
  endfacet
  facet normal 0 0 -1
    outer loop
      vertex 64.6445 -82.7411 -5.1
      vertex 64.6445 82.7411 -5.1
      vertex 70.2587 78.0302 -5.1
    endloop
  endfacet
  facet normal 0 0 -1
    outer loop
      vertex 58.7153 -87.0489 -5.1
      vertex 64.6445 82.7411 -5.1
      vertex 64.6445 -82.7411 -5.1
    endloop
  endfacet
  facet normal 0 0 -1
    outer loop
      vertex 58.7153 -87.0489 -5.1
      vertex 58.7153 87.0489 -5.1
      vertex 64.6445 82.7411 -5.1
    endloop
  endfacet
  facet normal 0 0 -1
    outer loop
      vertex 52.5 -90.9327 -5.1
      vertex 58.7153 87.0489 -5.1
      vertex 58.7153 -87.0489 -5.1
    endloop
  endfacet
  facet normal 0 0 -1
    outer loop
      vertex 52.5 -90.9327 -5.1
      vertex 52.5 90.9327 -5.1
      vertex 58.7153 87.0489 -5.1
    endloop
  endfacet
  facet normal 0 0 -1
    outer loop
      vertex 46.029 -94.3734 -5.1
      vertex 52.5 90.9327 -5.1
      vertex 52.5 -90.9327 -5.1
    endloop
  endfacet
  facet normal 0 0 -1
    outer loop
      vertex 46.029 -94.3734 -5.1
      vertex 46.029 94.3734 -5.1
      vertex 52.5 90.9327 -5.1
    endloop
  endfacet
  facet normal 0 0 -1
    outer loop
      vertex 39.3337 -97.3543 -5.1
      vertex 46.029 94.3734 -5.1
      vertex 46.029 -94.3734 -5.1
    endloop
  endfacet
  facet normal 0 0 -1
    outer loop
      vertex 39.3337 -97.3543 -5.1
      vertex 39.3337 97.3543 -5.1
      vertex 46.029 94.3734 -5.1
    endloop
  endfacet
  facet normal 0 0 -1
    outer loop
      vertex 32.4468 -99.8609 -5.1
      vertex 39.3337 97.3543 -5.1
      vertex 39.3337 -97.3543 -5.1
    endloop
  endfacet
  facet normal 0 0 -1
    outer loop
      vertex 32.4468 -99.8609 -5.1
      vertex 32.4468 99.8609 -5.1
      vertex 39.3337 97.3543 -5.1
    endloop
  endfacet
  facet normal 0 0 -1
    outer loop
      vertex 25.4018 -101.881 -5.1
      vertex 32.4468 99.8609 -5.1
      vertex 32.4468 -99.8609 -5.1
    endloop
  endfacet
  facet normal 0 0 -1
    outer loop
      vertex 25.4018 -101.881 -5.1
      vertex 25.4018 101.881 -5.1
      vertex 32.4468 99.8609 -5.1
    endloop
  endfacet
  facet normal 0 0 -1
    outer loop
      vertex 18.2331 -103.405 -5.1
      vertex 25.4018 101.881 -5.1
      vertex 25.4018 -101.881 -5.1
    endloop
  endfacet
  facet normal 0 0 -1
    outer loop
      vertex 18.2331 -103.405 -5.1
      vertex 18.2331 103.405 -5.1
      vertex 25.4018 101.881 -5.1
    endloop
  endfacet
  facet normal 0 0 -1
    outer loop
      vertex 10.9755 -104.425 -5.1
      vertex 18.2331 103.405 -5.1
      vertex 18.2331 -103.405 -5.1
    endloop
  endfacet
  facet normal 0 0 -1
    outer loop
      vertex 10.9755 -104.425 -5.1
      vertex 10.9755 104.425 -5.1
      vertex 18.2331 103.405 -5.1
    endloop
  endfacet
  facet normal 0 0 -1
    outer loop
      vertex 3.66445 -104.936 -5.1
      vertex 10.9755 104.425 -5.1
      vertex 10.9755 -104.425 -5.1
    endloop
  endfacet
  facet normal 0 0 -1
    outer loop
      vertex 3.66445 -104.936 -5.1
      vertex 3.66445 104.936 -5.1
      vertex 10.9755 104.425 -5.1
    endloop
  endfacet
  facet normal 0 0 -1
    outer loop
      vertex -3.66445 -104.936 -5.1
      vertex 3.66445 104.936 -5.1
      vertex 3.66445 -104.936 -5.1
    endloop
  endfacet
  facet normal 0 0 -1
    outer loop
      vertex -3.66445 -104.936 -5.1
      vertex -3.66445 104.936 -5.1
      vertex 3.66445 104.936 -5.1
    endloop
  endfacet
  facet normal 0 0 -1
    outer loop
      vertex -10.9755 -104.425 -5.1
      vertex -3.66445 104.936 -5.1
      vertex -3.66445 -104.936 -5.1
    endloop
  endfacet
  facet normal 0 0 -1
    outer loop
      vertex -10.9755 -104.425 -5.1
      vertex -10.9755 104.425 -5.1
      vertex -3.66445 104.936 -5.1
    endloop
  endfacet
  facet normal 0 0 -1
    outer loop
      vertex -18.2331 -103.405 -5.1
      vertex -10.9755 104.425 -5.1
      vertex -10.9755 -104.425 -5.1
    endloop
  endfacet
  facet normal 0 0 -1
    outer loop
      vertex -18.2331 -103.405 -5.1
      vertex -18.2331 103.405 -5.1
      vertex -10.9755 104.425 -5.1
    endloop
  endfacet
  facet normal 0 0 -1
    outer loop
      vertex -25.4018 -101.881 -5.1
      vertex -18.2331 103.405 -5.1
      vertex -18.2331 -103.405 -5.1
    endloop
  endfacet
  facet normal 0 0 -1
    outer loop
      vertex -25.4018 -101.881 -5.1
      vertex -25.4018 101.881 -5.1
      vertex -18.2331 103.405 -5.1
    endloop
  endfacet
  facet normal 0 0 -1
    outer loop
      vertex -32.4468 -99.8609 -5.1
      vertex -25.4018 101.881 -5.1
      vertex -25.4018 -101.881 -5.1
    endloop
  endfacet
  facet normal 0 0 -1
    outer loop
      vertex -32.4468 -99.8609 -5.1
      vertex -32.4468 99.8609 -5.1
      vertex -25.4018 101.881 -5.1
    endloop
  endfacet
  facet normal 0 0 -1
    outer loop
      vertex -39.3337 -97.3543 -5.1
      vertex -32.4468 99.8609 -5.1
      vertex -32.4468 -99.8609 -5.1
    endloop
  endfacet
  facet normal 0 0 -1
    outer loop
      vertex -39.3337 -97.3543 -5.1
      vertex -39.3337 97.3543 -5.1
      vertex -32.4468 99.8609 -5.1
    endloop
  endfacet
  facet normal 0 0 -1
    outer loop
      vertex -46.029 -94.3734 -5.1
      vertex -39.3337 97.3543 -5.1
      vertex -39.3337 -97.3543 -5.1
    endloop
  endfacet
  facet normal 0 0 -1
    outer loop
      vertex -46.029 -94.3734 -5.1
      vertex -46.029 94.3734 -5.1
      vertex -39.3337 97.3543 -5.1
    endloop
  endfacet
  facet normal 0 0 -1
    outer loop
      vertex -52.5 -90.9327 -5.1
      vertex -46.029 94.3734 -5.1
      vertex -46.029 -94.3734 -5.1
    endloop
  endfacet
  facet normal 0 0 -1
    outer loop
      vertex -52.5 -90.9327 -5.1
      vertex -52.5 90.9327 -5.1
      vertex -46.029 94.3734 -5.1
    endloop
  endfacet
  facet normal 0 0 -1
    outer loop
      vertex -58.7153 -87.0489 -5.1
      vertex -52.5 90.9327 -5.1
      vertex -52.5 -90.9327 -5.1
    endloop
  endfacet
  facet normal 0 0 -1
    outer loop
      vertex -58.7153 -87.0489 -5.1
      vertex -58.7153 87.0489 -5.1
      vertex -52.5 90.9327 -5.1
    endloop
  endfacet
  facet normal 0 0 -1
    outer loop
      vertex -64.6445 -82.7411 -5.1
      vertex -58.7153 87.0489 -5.1
      vertex -58.7153 -87.0489 -5.1
    endloop
  endfacet
  facet normal 0 0 -1
    outer loop
      vertex -64.6445 -82.7411 -5.1
      vertex -64.6445 82.7411 -5.1
      vertex -58.7153 87.0489 -5.1
    endloop
  endfacet
  facet normal 0 0 -1
    outer loop
      vertex -70.2587 -78.0302 -5.1
      vertex -64.6445 82.7411 -5.1
      vertex -64.6445 -82.7411 -5.1
    endloop
  endfacet
  facet normal 0 0 -1
    outer loop
      vertex -70.2587 -78.0302 -5.1
      vertex -70.2587 78.0302 -5.1
      vertex -64.6445 82.7411 -5.1
    endloop
  endfacet
  facet normal 0 0 -1
    outer loop
      vertex -75.5307 -72.9391 -5.1
      vertex -70.2587 78.0302 -5.1
      vertex -70.2587 -78.0302 -5.1
    endloop
  endfacet
  facet normal 0 0 -1
    outer loop
      vertex -75.5307 -72.9391 -5.1
      vertex -75.5307 72.9391 -5.1
      vertex -70.2587 78.0302 -5.1
    endloop
  endfacet
  facet normal 0 0 -1
    outer loop
      vertex -80.4347 -67.4927 -5.1
      vertex -75.5307 72.9391 -5.1
      vertex -75.5307 -72.9391 -5.1
    endloop
  endfacet
  facet normal 0 0 -1
    outer loop
      vertex -80.4347 -67.4927 -5.1
      vertex -80.4347 67.4927 -5.1
      vertex -75.5307 72.9391 -5.1
    endloop
  endfacet
  facet normal 0 0 -1
    outer loop
      vertex -84.9468 -61.7175 -5.1
      vertex -80.4347 67.4927 -5.1
      vertex -80.4347 -67.4927 -5.1
    endloop
  endfacet
  facet normal 0 0 -1
    outer loop
      vertex -84.9468 -61.7175 -5.1
      vertex -84.9468 61.7175 -5.1
      vertex -80.4347 67.4927 -5.1
    endloop
  endfacet
  facet normal 0 0 -1
    outer loop
      vertex -89.0451 -55.6415 -5.1
      vertex -84.9468 61.7175 -5.1
      vertex -84.9468 -61.7175 -5.1
    endloop
  endfacet
  facet normal 0 0 -1
    outer loop
      vertex -89.0451 -55.6415 -5.1
      vertex -89.0451 55.6415 -5.1
      vertex -84.9468 61.7175 -5.1
    endloop
  endfacet
  facet normal 0 0 -1
    outer loop
      vertex -92.7095 -49.2945 -5.1
      vertex -89.0451 55.6415 -5.1
      vertex -89.0451 -55.6415 -5.1
    endloop
  endfacet
  facet normal 0 0 -1
    outer loop
      vertex -92.7095 -49.2945 -5.1
      vertex -92.7095 49.2945 -5.1
      vertex -89.0451 55.6415 -5.1
    endloop
  endfacet
  facet normal 0 0 -1
    outer loop
      vertex -95.9223 -42.7073 -5.1
      vertex -92.7095 49.2945 -5.1
      vertex -92.7095 -49.2945 -5.1
    endloop
  endfacet
  facet normal 0 0 -1
    outer loop
      vertex -95.9223 -42.7073 -5.1
      vertex -95.9223 42.7073 -5.1
      vertex -92.7095 49.2945 -5.1
    endloop
  endfacet
  facet normal 0 0 -1
    outer loop
      vertex -98.6677 -35.9121 -5.1
      vertex -95.9223 42.7073 -5.1
      vertex -95.9223 -42.7073 -5.1
    endloop
  endfacet
  facet normal 0 0 -1
    outer loop
      vertex -98.6677 -35.9121 -5.1
      vertex -98.6677 35.9121 -5.1
      vertex -95.9223 42.7073 -5.1
    endloop
  endfacet
  facet normal 0 0 -1
    outer loop
      vertex -100.932 -28.9419 -5.1
      vertex -98.6677 35.9121 -5.1
      vertex -98.6677 -35.9121 -5.1
    endloop
  endfacet
  facet normal 0 0 -1
    outer loop
      vertex -100.932 -28.9419 -5.1
      vertex -100.932 28.9419 -5.1
      vertex -98.6677 35.9121 -5.1
    endloop
  endfacet
  facet normal 0 0 -1
    outer loop
      vertex -102.705 -21.8307 -5.1
      vertex -100.932 28.9419 -5.1
      vertex -100.932 -28.9419 -5.1
    endloop
  endfacet
  facet normal 0 0 -1
    outer loop
      vertex -102.705 -21.8307 -5.1
      vertex -102.705 21.8307 -5.1
      vertex -100.932 28.9419 -5.1
    endloop
  endfacet
  facet normal 0 0 -1
    outer loop
      vertex -103.978 -14.6132 -5.1
      vertex -102.705 21.8307 -5.1
      vertex -102.705 -21.8307 -5.1
    endloop
  endfacet
  facet normal 0 0 -1
    outer loop
      vertex -103.978 -14.6132 -5.1
      vertex -103.978 14.6132 -5.1
      vertex -102.705 21.8307 -5.1
    endloop
  endfacet
  facet normal 0 0 -1
    outer loop
      vertex -104.744 -7.32443 -5.1
      vertex -103.978 14.6132 -5.1
      vertex -103.978 -14.6132 -5.1
    endloop
  endfacet
  facet normal 0 0 -1
    outer loop
      vertex -104.744 -7.32443 -5.1
      vertex -104.744 7.32443 -5.1
      vertex -103.978 14.6132 -5.1
    endloop
  endfacet
  facet normal 0 -0 -1
    outer loop
      vertex -104.744 7.32443 -5.1
      vertex -104.744 -7.32443 -5.1
      vertex -105 1.28588e-14 -5.1
    endloop
  endfacet
  facet normal 0 0 1
    outer loop
      vertex 104.744 7.32443 -0.1
      vertex 104.744 -7.32443 -0.1
      vertex 105 0 -0.1
    endloop
  endfacet
  facet normal 0 0 1
    outer loop
      vertex 103.978 14.6132 -0.1
      vertex 104.744 -7.32443 -0.1
      vertex 104.744 7.32443 -0.1
    endloop
  endfacet
  facet normal 0 0 1
    outer loop
      vertex 103.978 14.6132 -0.1
      vertex 103.978 -14.6132 -0.1
      vertex 104.744 -7.32443 -0.1
    endloop
  endfacet
  facet normal 0 0 1
    outer loop
      vertex 102.705 21.8307 -0.1
      vertex 103.978 -14.6132 -0.1
      vertex 103.978 14.6132 -0.1
    endloop
  endfacet
  facet normal 0 0 1
    outer loop
      vertex 102.705 21.8307 -0.1
      vertex 102.705 -21.8307 -0.1
      vertex 103.978 -14.6132 -0.1
    endloop
  endfacet
  facet normal 0 0 1
    outer loop
      vertex 100.932 28.9419 -0.1
      vertex 102.705 -21.8307 -0.1
      vertex 102.705 21.8307 -0.1
    endloop
  endfacet
  facet normal 0 0 1
    outer loop
      vertex 100.932 28.9419 -0.1
      vertex 100.932 -28.9419 -0.1
      vertex 102.705 -21.8307 -0.1
    endloop
  endfacet
  facet normal 0 0 1
    outer loop
      vertex 98.6677 35.9121 -0.1
      vertex 100.932 -28.9419 -0.1
      vertex 100.932 28.9419 -0.1
    endloop
  endfacet
  facet normal 0 0 1
    outer loop
      vertex 98.6677 35.9121 -0.1
      vertex 98.6677 -35.9121 -0.1
      vertex 100.932 -28.9419 -0.1
    endloop
  endfacet
  facet normal 0 0 1
    outer loop
      vertex 95.9223 42.7073 -0.1
      vertex 98.6677 -35.9121 -0.1
      vertex 98.6677 35.9121 -0.1
    endloop
  endfacet
  facet normal 0 0 1
    outer loop
      vertex 95.9223 42.7073 -0.1
      vertex 95.9223 -42.7073 -0.1
      vertex 98.6677 -35.9121 -0.1
    endloop
  endfacet
  facet normal 0 0 1
    outer loop
      vertex 92.7095 49.2945 -0.1
      vertex 95.9223 -42.7073 -0.1
      vertex 95.9223 42.7073 -0.1
    endloop
  endfacet
  facet normal 0 0 1
    outer loop
      vertex 92.7095 49.2945 -0.1
      vertex 92.7095 -49.2945 -0.1
      vertex 95.9223 -42.7073 -0.1
    endloop
  endfacet
  facet normal 0 0 1
    outer loop
      vertex 89.0451 55.6415 -0.1
      vertex 92.7095 -49.2945 -0.1
      vertex 92.7095 49.2945 -0.1
    endloop
  endfacet
  facet normal 0 0 1
    outer loop
      vertex 89.0451 55.6415 -0.1
      vertex 89.0451 -55.6415 -0.1
      vertex 92.7095 -49.2945 -0.1
    endloop
  endfacet
  facet normal 0 0 1
    outer loop
      vertex 84.9468 61.7175 -0.1
      vertex 89.0451 -55.6415 -0.1
      vertex 89.0451 55.6415 -0.1
    endloop
  endfacet
  facet normal 0 0 1
    outer loop
      vertex 84.9468 61.7175 -0.1
      vertex 84.9468 -61.7175 -0.1
      vertex 89.0451 -55.6415 -0.1
    endloop
  endfacet
  facet normal 0 0 1
    outer loop
      vertex 80.4347 67.4927 -0.1
      vertex 84.9468 -61.7175 -0.1
      vertex 84.9468 61.7175 -0.1
    endloop
  endfacet
  facet normal 0 0 1
    outer loop
      vertex 80.4347 67.4927 -0.1
      vertex 80.4347 -67.4927 -0.1
      vertex 84.9468 -61.7175 -0.1
    endloop
  endfacet
  facet normal 0 0 1
    outer loop
      vertex 75.5307 72.9391 -0.1
      vertex 80.4347 -67.4927 -0.1
      vertex 80.4347 67.4927 -0.1
    endloop
  endfacet
  facet normal 0 0 1
    outer loop
      vertex 75.5307 72.9391 -0.1
      vertex 75.5307 -72.9391 -0.1
      vertex 80.4347 -67.4927 -0.1
    endloop
  endfacet
  facet normal 0 0 1
    outer loop
      vertex 70.2587 78.0302 -0.1
      vertex 75.5307 -72.9391 -0.1
      vertex 75.5307 72.9391 -0.1
    endloop
  endfacet
  facet normal 0 0 1
    outer loop
      vertex 70.2587 78.0302 -0.1
      vertex 70.2587 -78.0302 -0.1
      vertex 75.5307 -72.9391 -0.1
    endloop
  endfacet
  facet normal 0 0 1
    outer loop
      vertex 64.6445 82.7411 -0.1
      vertex 70.2587 -78.0302 -0.1
      vertex 70.2587 78.0302 -0.1
    endloop
  endfacet
  facet normal 0 0 1
    outer loop
      vertex 64.6445 82.7411 -0.1
      vertex 64.6445 -82.7411 -0.1
      vertex 70.2587 -78.0302 -0.1
    endloop
  endfacet
  facet normal 0 0 1
    outer loop
      vertex 58.7153 87.0489 -0.1
      vertex 64.6445 -82.7411 -0.1
      vertex 64.6445 82.7411 -0.1
    endloop
  endfacet
  facet normal 0 0 1
    outer loop
      vertex 58.7153 87.0489 -0.1
      vertex 58.7153 -87.0489 -0.1
      vertex 64.6445 -82.7411 -0.1
    endloop
  endfacet
  facet normal 0 0 1
    outer loop
      vertex 52.5 90.9327 -0.1
      vertex 58.7153 -87.0489 -0.1
      vertex 58.7153 87.0489 -0.1
    endloop
  endfacet
  facet normal 0 0 1
    outer loop
      vertex 52.5 90.9327 -0.1
      vertex 52.5 -90.9327 -0.1
      vertex 58.7153 -87.0489 -0.1
    endloop
  endfacet
  facet normal 0 0 1
    outer loop
      vertex 46.029 94.3734 -0.1
      vertex 52.5 -90.9327 -0.1
      vertex 52.5 90.9327 -0.1
    endloop
  endfacet
  facet normal 0 0 1
    outer loop
      vertex 46.029 94.3734 -0.1
      vertex 46.029 -94.3734 -0.1
      vertex 52.5 -90.9327 -0.1
    endloop
  endfacet
  facet normal 0 0 1
    outer loop
      vertex 39.3337 97.3543 -0.1
      vertex 46.029 -94.3734 -0.1
      vertex 46.029 94.3734 -0.1
    endloop
  endfacet
  facet normal 0 0 1
    outer loop
      vertex 39.3337 97.3543 -0.1
      vertex 39.3337 -97.3543 -0.1
      vertex 46.029 -94.3734 -0.1
    endloop
  endfacet
  facet normal 0 0 1
    outer loop
      vertex 32.4468 99.8609 -0.1
      vertex 39.3337 -97.3543 -0.1
      vertex 39.3337 97.3543 -0.1
    endloop
  endfacet
  facet normal 0 0 1
    outer loop
      vertex 32.4468 99.8609 -0.1
      vertex 32.4468 -99.8609 -0.1
      vertex 39.3337 -97.3543 -0.1
    endloop
  endfacet
  facet normal 0 0 1
    outer loop
      vertex 25.4018 101.881 -0.1
      vertex 32.4468 -99.8609 -0.1
      vertex 32.4468 99.8609 -0.1
    endloop
  endfacet
  facet normal 0 0 1
    outer loop
      vertex 25.4018 101.881 -0.1
      vertex 25.4018 -101.881 -0.1
      vertex 32.4468 -99.8609 -0.1
    endloop
  endfacet
  facet normal 0 0 1
    outer loop
      vertex 18.2331 103.405 -0.1
      vertex 25.4018 -101.881 -0.1
      vertex 25.4018 101.881 -0.1
    endloop
  endfacet
  facet normal 0 0 1
    outer loop
      vertex 18.2331 103.405 -0.1
      vertex 18.2331 -103.405 -0.1
      vertex 25.4018 -101.881 -0.1
    endloop
  endfacet
  facet normal 0 0 1
    outer loop
      vertex 10.9755 104.425 -0.1
      vertex 18.2331 -103.405 -0.1
      vertex 18.2331 103.405 -0.1
    endloop
  endfacet
  facet normal 0 0 1
    outer loop
      vertex 10.9755 104.425 -0.1
      vertex 10.9755 -104.425 -0.1
      vertex 18.2331 -103.405 -0.1
    endloop
  endfacet
  facet normal 0 0 1
    outer loop
      vertex 3.66445 104.936 -0.1
      vertex 10.9755 -104.425 -0.1
      vertex 10.9755 104.425 -0.1
    endloop
  endfacet
  facet normal 0 0 1
    outer loop
      vertex 3.66445 104.936 -0.1
      vertex 3.66445 -104.936 -0.1
      vertex 10.9755 -104.425 -0.1
    endloop
  endfacet
  facet normal -0 0 1
    outer loop
      vertex -3.66445 104.936 -0.1
      vertex 3.66445 -104.936 -0.1
      vertex 3.66445 104.936 -0.1
    endloop
  endfacet
  facet normal 0 0 1
    outer loop
      vertex -3.66445 104.936 -0.1
      vertex -3.66445 -104.936 -0.1
      vertex 3.66445 -104.936 -0.1
    endloop
  endfacet
  facet normal -0 0 1
    outer loop
      vertex -10.9755 104.425 -0.1
      vertex -3.66445 -104.936 -0.1
      vertex -3.66445 104.936 -0.1
    endloop
  endfacet
  facet normal 0 0 1
    outer loop
      vertex -10.9755 104.425 -0.1
      vertex -10.9755 -104.425 -0.1
      vertex -3.66445 -104.936 -0.1
    endloop
  endfacet
  facet normal -0 0 1
    outer loop
      vertex -18.2331 103.405 -0.1
      vertex -10.9755 -104.425 -0.1
      vertex -10.9755 104.425 -0.1
    endloop
  endfacet
  facet normal 0 0 1
    outer loop
      vertex -18.2331 103.405 -0.1
      vertex -18.2331 -103.405 -0.1
      vertex -10.9755 -104.425 -0.1
    endloop
  endfacet
  facet normal -0 0 1
    outer loop
      vertex -25.4018 101.881 -0.1
      vertex -18.2331 -103.405 -0.1
      vertex -18.2331 103.405 -0.1
    endloop
  endfacet
  facet normal 0 0 1
    outer loop
      vertex -25.4018 101.881 -0.1
      vertex -25.4018 -101.881 -0.1
      vertex -18.2331 -103.405 -0.1
    endloop
  endfacet
  facet normal -0 0 1
    outer loop
      vertex -32.4468 99.8609 -0.1
      vertex -25.4018 -101.881 -0.1
      vertex -25.4018 101.881 -0.1
    endloop
  endfacet
  facet normal 0 0 1
    outer loop
      vertex -32.4468 99.8609 -0.1
      vertex -32.4468 -99.8609 -0.1
      vertex -25.4018 -101.881 -0.1
    endloop
  endfacet
  facet normal -0 0 1
    outer loop
      vertex -39.3337 97.3543 -0.1
      vertex -32.4468 -99.8609 -0.1
      vertex -32.4468 99.8609 -0.1
    endloop
  endfacet
  facet normal 0 0 1
    outer loop
      vertex -39.3337 97.3543 -0.1
      vertex -39.3337 -97.3543 -0.1
      vertex -32.4468 -99.8609 -0.1
    endloop
  endfacet
  facet normal -0 0 1
    outer loop
      vertex -46.029 94.3734 -0.1
      vertex -39.3337 -97.3543 -0.1
      vertex -39.3337 97.3543 -0.1
    endloop
  endfacet
  facet normal 0 0 1
    outer loop
      vertex -46.029 94.3734 -0.1
      vertex -46.029 -94.3734 -0.1
      vertex -39.3337 -97.3543 -0.1
    endloop
  endfacet
  facet normal -0 0 1
    outer loop
      vertex -52.5 90.9327 -0.1
      vertex -46.029 -94.3734 -0.1
      vertex -46.029 94.3734 -0.1
    endloop
  endfacet
  facet normal 0 0 1
    outer loop
      vertex -52.5 90.9327 -0.1
      vertex -52.5 -90.9327 -0.1
      vertex -46.029 -94.3734 -0.1
    endloop
  endfacet
  facet normal -0 0 1
    outer loop
      vertex -58.7153 87.0489 -0.1
      vertex -52.5 -90.9327 -0.1
      vertex -52.5 90.9327 -0.1
    endloop
  endfacet
  facet normal 0 0 1
    outer loop
      vertex -58.7153 87.0489 -0.1
      vertex -58.7153 -87.0489 -0.1
      vertex -52.5 -90.9327 -0.1
    endloop
  endfacet
  facet normal -0 0 1
    outer loop
      vertex -64.6445 82.7411 -0.1
      vertex -58.7153 -87.0489 -0.1
      vertex -58.7153 87.0489 -0.1
    endloop
  endfacet
  facet normal 0 0 1
    outer loop
      vertex -64.6445 82.7411 -0.1
      vertex -64.6445 -82.7411 -0.1
      vertex -58.7153 -87.0489 -0.1
    endloop
  endfacet
  facet normal -0 0 1
    outer loop
      vertex -70.2587 78.0302 -0.1
      vertex -64.6445 -82.7411 -0.1
      vertex -64.6445 82.7411 -0.1
    endloop
  endfacet
  facet normal 0 0 1
    outer loop
      vertex -70.2587 78.0302 -0.1
      vertex -70.2587 -78.0302 -0.1
      vertex -64.6445 -82.7411 -0.1
    endloop
  endfacet
  facet normal -0 0 1
    outer loop
      vertex -75.5307 72.9391 -0.1
      vertex -70.2587 -78.0302 -0.1
      vertex -70.2587 78.0302 -0.1
    endloop
  endfacet
  facet normal 0 0 1
    outer loop
      vertex -75.5307 72.9391 -0.1
      vertex -75.5307 -72.9391 -0.1
      vertex -70.2587 -78.0302 -0.1
    endloop
  endfacet
  facet normal -0 0 1
    outer loop
      vertex -80.4347 67.4927 -0.1
      vertex -75.5307 -72.9391 -0.1
      vertex -75.5307 72.9391 -0.1
    endloop
  endfacet
  facet normal 0 0 1
    outer loop
      vertex -80.4347 67.4927 -0.1
      vertex -80.4347 -67.4927 -0.1
      vertex -75.5307 -72.9391 -0.1
    endloop
  endfacet
  facet normal -0 0 1
    outer loop
      vertex -84.9468 61.7175 -0.1
      vertex -80.4347 -67.4927 -0.1
      vertex -80.4347 67.4927 -0.1
    endloop
  endfacet
  facet normal 0 0 1
    outer loop
      vertex -84.9468 61.7175 -0.1
      vertex -84.9468 -61.7175 -0.1
      vertex -80.4347 -67.4927 -0.1
    endloop
  endfacet
  facet normal -0 0 1
    outer loop
      vertex -89.0451 55.6415 -0.1
      vertex -84.9468 -61.7175 -0.1
      vertex -84.9468 61.7175 -0.1
    endloop
  endfacet
  facet normal 0 0 1
    outer loop
      vertex -89.0451 55.6415 -0.1
      vertex -89.0451 -55.6415 -0.1
      vertex -84.9468 -61.7175 -0.1
    endloop
  endfacet
  facet normal -0 0 1
    outer loop
      vertex -92.7095 49.2945 -0.1
      vertex -89.0451 -55.6415 -0.1
      vertex -89.0451 55.6415 -0.1
    endloop
  endfacet
  facet normal 0 0 1
    outer loop
      vertex -92.7095 49.2945 -0.1
      vertex -92.7095 -49.2945 -0.1
      vertex -89.0451 -55.6415 -0.1
    endloop
  endfacet
  facet normal -0 0 1
    outer loop
      vertex -95.9223 42.7073 -0.1
      vertex -92.7095 -49.2945 -0.1
      vertex -92.7095 49.2945 -0.1
    endloop
  endfacet
  facet normal 0 0 1
    outer loop
      vertex -95.9223 42.7073 -0.1
      vertex -95.9223 -42.7073 -0.1
      vertex -92.7095 -49.2945 -0.1
    endloop
  endfacet
  facet normal -0 0 1
    outer loop
      vertex -98.6677 35.9121 -0.1
      vertex -95.9223 -42.7073 -0.1
      vertex -95.9223 42.7073 -0.1
    endloop
  endfacet
  facet normal 0 0 1
    outer loop
      vertex -98.6677 35.9121 -0.1
      vertex -98.6677 -35.9121 -0.1
      vertex -95.9223 -42.7073 -0.1
    endloop
  endfacet
  facet normal -0 0 1
    outer loop
      vertex -100.932 28.9419 -0.1
      vertex -98.6677 -35.9121 -0.1
      vertex -98.6677 35.9121 -0.1
    endloop
  endfacet
  facet normal 0 0 1
    outer loop
      vertex -100.932 28.9419 -0.1
      vertex -100.932 -28.9419 -0.1
      vertex -98.6677 -35.9121 -0.1
    endloop
  endfacet
  facet normal -0 0 1
    outer loop
      vertex -102.705 21.8307 -0.1
      vertex -100.932 -28.9419 -0.1
      vertex -100.932 28.9419 -0.1
    endloop
  endfacet
  facet normal 0 0 1
    outer loop
      vertex -102.705 21.8307 -0.1
      vertex -102.705 -21.8307 -0.1
      vertex -100.932 -28.9419 -0.1
    endloop
  endfacet
  facet normal -0 0 1
    outer loop
      vertex -103.978 14.6132 -0.1
      vertex -102.705 -21.8307 -0.1
      vertex -102.705 21.8307 -0.1
    endloop
  endfacet
  facet normal 0 0 1
    outer loop
      vertex -103.978 14.6132 -0.1
      vertex -103.978 -14.6132 -0.1
      vertex -102.705 -21.8307 -0.1
    endloop
  endfacet
  facet normal -0 0 1
    outer loop
      vertex -104.744 7.32443 -0.1
      vertex -103.978 -14.6132 -0.1
      vertex -103.978 14.6132 -0.1
    endloop
  endfacet
  facet normal 0 0 1
    outer loop
      vertex -104.744 7.32443 -0.1
      vertex -104.744 -7.32443 -0.1
      vertex -103.978 -14.6132 -0.1
    endloop
  endfacet
  facet normal 0 -0 1
    outer loop
      vertex -104.744 -7.32443 -0.1
      vertex -104.744 7.32443 -0.1
      vertex -105 1.28588e-14 -0.1
    endloop
  endfacet
endsolid OpenSCAD_Model
