solid OpenSCAD_Model
  facet normal -1 0 0
    outer loop
      vertex 0 4.8995 0
      vertex 0 12.5 5
      vertex 0 12.5 0
    endloop
  endfacet
  facet normal -1 -0 0
    outer loop
      vertex 0 12.5 5
      vertex 0 4.8995 0
      vertex 0 4.8995 5
    endloop
  endfacet
  facet normal 0 0 1
    outer loop
      vertex 4.5 12.5 5
      vertex 0 12.5 5
      vertex 4.5 9.2 5
    endloop
  endfacet
  facet normal 0 0 1
    outer loop
      vertex 17.5 9.2 5
      vertex 22 12.5 5
      vertex 17.5 12.5 5
    endloop
  endfacet
  facet normal 0 0 1
    outer loop
      vertex 22 12.5 5
      vertex 17.5 9.2 5
      vertex 22 5 5
    endloop
  endfacet
  facet normal 0 0 1
    outer loop
      vertex 13 4.5 5
      vertex 22 5 5
      vertex 17.5 9.2 5
    endloop
  endfacet
  facet normal 0 0 1
    outer loop
      vertex 22 5 5
      vertex 13 4.5 5
      vertex 17 0 5
    endloop
  endfacet
  facet normal 0 0 1
    outer loop
      vertex 17.5 9.2 5
      vertex 12.9754 4.81287 5
      vertex 13 4.5 5
    endloop
  endfacet
  facet normal 0 0 1
    outer loop
      vertex 17.5 9.2 5
      vertex 12.9021 5.11803 5
      vertex 12.9754 4.81287 5
    endloop
  endfacet
  facet normal 0 0 1
    outer loop
      vertex 17.5 9.2 5
      vertex 12.782 5.40798 5
      vertex 12.9021 5.11803 5
    endloop
  endfacet
  facet normal 0 0 1
    outer loop
      vertex 17.5 9.2 5
      vertex 12.618 5.67557 5
      vertex 12.782 5.40798 5
    endloop
  endfacet
  facet normal 0 0 1
    outer loop
      vertex 17.5 9.2 5
      vertex 12.4142 5.91421 5
      vertex 12.618 5.67557 5
    endloop
  endfacet
  facet normal 0 0 1
    outer loop
      vertex 17.5 9.2 5
      vertex 12.1756 6.11803 5
      vertex 12.4142 5.91421 5
    endloop
  endfacet
  facet normal 0 0 1
    outer loop
      vertex 17.5 9.2 5
      vertex 11.908 6.28201 5
      vertex 12.1756 6.11803 5
    endloop
  endfacet
  facet normal 0 0 1
    outer loop
      vertex 17.5 9.2 5
      vertex 11.618 6.40211 5
      vertex 11.908 6.28201 5
    endloop
  endfacet
  facet normal 0 0 1
    outer loop
      vertex 17.5 9.2 5
      vertex 11.3129 6.47538 5
      vertex 11.618 6.40211 5
    endloop
  endfacet
  facet normal 0 0 1
    outer loop
      vertex 17.5 9.2 5
      vertex 11 6.5 5
      vertex 11.3129 6.47538 5
    endloop
  endfacet
  facet normal -0 0 1
    outer loop
      vertex 4.5 9.2 5
      vertex 11 6.5 5
      vertex 17.5 9.2 5
    endloop
  endfacet
  facet normal 0 0 1
    outer loop
      vertex 11 6.5 5
      vertex 4.5 9.2 5
      vertex 10.6871 6.47538 5
    endloop
  endfacet
  facet normal 0 0 1
    outer loop
      vertex 4.5 9.2 5
      vertex 9 4.5 5
      vertex 9.02462 4.81287 5
    endloop
  endfacet
  facet normal 0 0 1
    outer loop
      vertex 4.5 9.2 5
      vertex 9.02462 4.81287 5
      vertex 9.09789 5.11803 5
    endloop
  endfacet
  facet normal 0 0 1
    outer loop
      vertex 4.5 9.2 5
      vertex 9.09789 5.11803 5
      vertex 9.21799 5.40798 5
    endloop
  endfacet
  facet normal 0 0 1
    outer loop
      vertex 4.5 9.2 5
      vertex 9.21799 5.40798 5
      vertex 9.38197 5.67557 5
    endloop
  endfacet
  facet normal 0 0 1
    outer loop
      vertex 10.6871 6.47538 5
      vertex 4.5 9.2 5
      vertex 10.382 6.40211 5
    endloop
  endfacet
  facet normal 0 0 1
    outer loop
      vertex 4.5 9.2 5
      vertex 10.092 6.28201 5
      vertex 10.382 6.40211 5
    endloop
  endfacet
  facet normal 0 0 1
    outer loop
      vertex 4.5 9.2 5
      vertex 9.82443 6.11803 5
      vertex 10.092 6.28201 5
    endloop
  endfacet
  facet normal 0 0 1
    outer loop
      vertex 4.5 9.2 5
      vertex 9.58579 5.91421 5
      vertex 9.82443 6.11803 5
    endloop
  endfacet
  facet normal 0 0 1
    outer loop
      vertex 4.5 9.2 5
      vertex 9.38197 5.67557 5
      vertex 9.58579 5.91421 5
    endloop
  endfacet
  facet normal 0 0 1
    outer loop
      vertex 9 4.5 5
      vertex 4.5 9.2 5
      vertex 0 4.8995 5
    endloop
  endfacet
  facet normal 0 0 1
    outer loop
      vertex 0 4.8995 5
      vertex 4.5 9.2 5
      vertex 0 12.5 5
    endloop
  endfacet
  facet normal 0 0 1
    outer loop
      vertex 9 4.5 5
      vertex 0 4.8995 5
      vertex 4.8995 0 5
    endloop
  endfacet
  facet normal -0 0 1
    outer loop
      vertex 12.9754 4.18713 5
      vertex 17 0 5
      vertex 13 4.5 5
    endloop
  endfacet
  facet normal -0 0 1
    outer loop
      vertex 12.9021 3.88197 5
      vertex 17 0 5
      vertex 12.9754 4.18713 5
    endloop
  endfacet
  facet normal -0 0 1
    outer loop
      vertex 12.782 3.59202 5
      vertex 17 0 5
      vertex 12.9021 3.88197 5
    endloop
  endfacet
  facet normal -0 0 1
    outer loop
      vertex 12.618 3.32443 5
      vertex 17 0 5
      vertex 12.782 3.59202 5
    endloop
  endfacet
  facet normal -0 0 1
    outer loop
      vertex 12.4142 3.08579 5
      vertex 17 0 5
      vertex 12.618 3.32443 5
    endloop
  endfacet
  facet normal -0 0 1
    outer loop
      vertex 12.1756 2.88197 5
      vertex 17 0 5
      vertex 12.4142 3.08579 5
    endloop
  endfacet
  facet normal -0 0 1
    outer loop
      vertex 11.908 2.71799 5
      vertex 17 0 5
      vertex 12.1756 2.88197 5
    endloop
  endfacet
  facet normal -0 0 1
    outer loop
      vertex 11.618 2.59789 5
      vertex 17 0 5
      vertex 11.908 2.71799 5
    endloop
  endfacet
  facet normal -0 0 1
    outer loop
      vertex 11.3129 2.52462 5
      vertex 17 0 5
      vertex 11.618 2.59789 5
    endloop
  endfacet
  facet normal -0 0 1
    outer loop
      vertex 11 2.5 5
      vertex 17 0 5
      vertex 11.3129 2.52462 5
    endloop
  endfacet
  facet normal 0 0 1
    outer loop
      vertex 4.8995 0 5
      vertex 11 2.5 5
      vertex 10.6871 2.52462 5
    endloop
  endfacet
  facet normal 0 0 1
    outer loop
      vertex 4.8995 0 5
      vertex 10.6871 2.52462 5
      vertex 10.382 2.59789 5
    endloop
  endfacet
  facet normal 0 0 1
    outer loop
      vertex 11 2.5 5
      vertex 4.8995 0 5
      vertex 17 0 5
    endloop
  endfacet
  facet normal 0 0 1
    outer loop
      vertex 10.092 2.71799 5
      vertex 4.8995 0 5
      vertex 10.382 2.59789 5
    endloop
  endfacet
  facet normal 0 0 1
    outer loop
      vertex 9.82443 2.88197 5
      vertex 4.8995 0 5
      vertex 10.092 2.71799 5
    endloop
  endfacet
  facet normal 0 0 1
    outer loop
      vertex 9.58579 3.08579 5
      vertex 4.8995 0 5
      vertex 9.82443 2.88197 5
    endloop
  endfacet
  facet normal 0 0 1
    outer loop
      vertex 9.38197 3.32443 5
      vertex 4.8995 0 5
      vertex 9.58579 3.08579 5
    endloop
  endfacet
  facet normal 0 0 1
    outer loop
      vertex 9.21799 3.59202 5
      vertex 4.8995 0 5
      vertex 9.38197 3.32443 5
    endloop
  endfacet
  facet normal 0 0 1
    outer loop
      vertex 9.09789 3.88197 5
      vertex 4.8995 0 5
      vertex 9.21799 3.59202 5
    endloop
  endfacet
  facet normal 0 0 1
    outer loop
      vertex 9.02462 4.18713 5
      vertex 4.8995 0 5
      vertex 9.09789 3.88197 5
    endloop
  endfacet
  facet normal 0 0 1
    outer loop
      vertex 4.8995 0 5
      vertex 9.02462 4.18713 5
      vertex 9 4.5 5
    endloop
  endfacet
  facet normal 1 -0 0
    outer loop
      vertex 22 5 5
      vertex 22 12.5 0
      vertex 22 12.5 5
    endloop
  endfacet
  facet normal 1 0 0
    outer loop
      vertex 22 12.5 0
      vertex 22 5 5
      vertex 22 5 0
    endloop
  endfacet
  facet normal 0 1 -0
    outer loop
      vertex 22 12.5 0
      vertex 17.5 12.5 5
      vertex 22 12.5 5
    endloop
  endfacet
  facet normal 0 1 0
    outer loop
      vertex 17.5 12.5 5
      vertex 22 12.5 0
      vertex 17.5 12.5 0
    endloop
  endfacet
  facet normal 0 1 -0
    outer loop
      vertex 4.5 12.5 0
      vertex 0 12.5 5
      vertex 4.5 12.5 5
    endloop
  endfacet
  facet normal 0 1 0
    outer loop
      vertex 0 12.5 5
      vertex 4.5 12.5 0
      vertex 0 12.5 0
    endloop
  endfacet
  facet normal 0 0 -1
    outer loop
      vertex 17 0 0
      vertex 12.9754 4.18713 0
      vertex 13 4.5 0
    endloop
  endfacet
  facet normal 0 0 -1
    outer loop
      vertex 17 0 0
      vertex 12.9021 3.88197 0
      vertex 12.9754 4.18713 0
    endloop
  endfacet
  facet normal 0 0 -1
    outer loop
      vertex 17 0 0
      vertex 12.782 3.59202 0
      vertex 12.9021 3.88197 0
    endloop
  endfacet
  facet normal 0 0 -1
    outer loop
      vertex 17 0 0
      vertex 12.618 3.32443 0
      vertex 12.782 3.59202 0
    endloop
  endfacet
  facet normal 0 0 -1
    outer loop
      vertex 17 0 0
      vertex 12.4142 3.08579 0
      vertex 12.618 3.32443 0
    endloop
  endfacet
  facet normal 0 0 -1
    outer loop
      vertex 17 0 0
      vertex 12.1756 2.88197 0
      vertex 12.4142 3.08579 0
    endloop
  endfacet
  facet normal 0 0 -1
    outer loop
      vertex 17 0 0
      vertex 11.908 2.71799 0
      vertex 12.1756 2.88197 0
    endloop
  endfacet
  facet normal 0 0 -1
    outer loop
      vertex 17 0 0
      vertex 11.618 2.59789 0
      vertex 11.908 2.71799 0
    endloop
  endfacet
  facet normal 0 0 -1
    outer loop
      vertex 17 0 0
      vertex 11.3129 2.52462 0
      vertex 11.618 2.59789 0
    endloop
  endfacet
  facet normal 0 0 -1
    outer loop
      vertex 17 0 0
      vertex 11 2.5 0
      vertex 11.3129 2.52462 0
    endloop
  endfacet
  facet normal 0 0 -1
    outer loop
      vertex 4.8995 0 0
      vertex 11 2.5 0
      vertex 17 0 0
    endloop
  endfacet
  facet normal -0 0 -1
    outer loop
      vertex 11 2.5 0
      vertex 4.8995 0 0
      vertex 10.6871 2.52462 0
    endloop
  endfacet
  facet normal -0 0 -1
    outer loop
      vertex 9.02462 4.18713 0
      vertex 4.8995 0 0
      vertex 9 4.5 0
    endloop
  endfacet
  facet normal -0 0 -1
    outer loop
      vertex 9.09789 3.88197 0
      vertex 4.8995 0 0
      vertex 9.02462 4.18713 0
    endloop
  endfacet
  facet normal -0 0 -1
    outer loop
      vertex 9.21799 3.59202 0
      vertex 4.8995 0 0
      vertex 9.09789 3.88197 0
    endloop
  endfacet
  facet normal -0 0 -1
    outer loop
      vertex 9.38197 3.32443 0
      vertex 4.8995 0 0
      vertex 9.21799 3.59202 0
    endloop
  endfacet
  facet normal -0 0 -1
    outer loop
      vertex 9.58579 3.08579 0
      vertex 4.8995 0 0
      vertex 9.38197 3.32443 0
    endloop
  endfacet
  facet normal -0 0 -1
    outer loop
      vertex 9.82443 2.88197 0
      vertex 4.8995 0 0
      vertex 9.58579 3.08579 0
    endloop
  endfacet
  facet normal -0 0 -1
    outer loop
      vertex 10.092 2.71799 0
      vertex 4.8995 0 0
      vertex 9.82443 2.88197 0
    endloop
  endfacet
  facet normal -0 0 -1
    outer loop
      vertex 10.382 2.59789 0
      vertex 4.8995 0 0
      vertex 10.092 2.71799 0
    endloop
  endfacet
  facet normal -0 0 -1
    outer loop
      vertex 10.6871 2.52462 0
      vertex 4.8995 0 0
      vertex 10.382 2.59789 0
    endloop
  endfacet
  facet normal 0 0 -1
    outer loop
      vertex 22 5 0
      vertex 17.5 9.2 0
      vertex 22 12.5 0
    endloop
  endfacet
  facet normal 0 0 -1
    outer loop
      vertex 13 4.5 0
      vertex 22 5 0
      vertex 17 0 0
    endloop
  endfacet
  facet normal -0 0 -1
    outer loop
      vertex 22 5 0
      vertex 13 4.5 0
      vertex 17.5 9.2 0
    endloop
  endfacet
  facet normal 0 0 -1
    outer loop
      vertex 12.9754 4.81287 0
      vertex 17.5 9.2 0
      vertex 13 4.5 0
    endloop
  endfacet
  facet normal 0 0 -1
    outer loop
      vertex 12.9021 5.11803 0
      vertex 17.5 9.2 0
      vertex 12.9754 4.81287 0
    endloop
  endfacet
  facet normal 0 0 -1
    outer loop
      vertex 12.782 5.40798 0
      vertex 17.5 9.2 0
      vertex 12.9021 5.11803 0
    endloop
  endfacet
  facet normal 0 0 -1
    outer loop
      vertex 12.618 5.67557 0
      vertex 17.5 9.2 0
      vertex 12.782 5.40798 0
    endloop
  endfacet
  facet normal 0 0 -1
    outer loop
      vertex 12.4142 5.91421 0
      vertex 17.5 9.2 0
      vertex 12.618 5.67557 0
    endloop
  endfacet
  facet normal 0 0 -1
    outer loop
      vertex 12.1756 6.11803 0
      vertex 17.5 9.2 0
      vertex 12.4142 5.91421 0
    endloop
  endfacet
  facet normal 0 0 -1
    outer loop
      vertex 11.908 6.28201 0
      vertex 17.5 9.2 0
      vertex 12.1756 6.11803 0
    endloop
  endfacet
  facet normal 0 0 -1
    outer loop
      vertex 11.618 6.40211 0
      vertex 17.5 9.2 0
      vertex 11.908 6.28201 0
    endloop
  endfacet
  facet normal 0 0 -1
    outer loop
      vertex 11.3129 6.47538 0
      vertex 17.5 9.2 0
      vertex 11.618 6.40211 0
    endloop
  endfacet
  facet normal 0 0 -1
    outer loop
      vertex 11 6.5 0
      vertex 17.5 9.2 0
      vertex 11.3129 6.47538 0
    endloop
  endfacet
  facet normal 0 0 -1
    outer loop
      vertex 4.5 9.2 0
      vertex 11 6.5 0
      vertex 10.6871 6.47538 0
    endloop
  endfacet
  facet normal 0 0 -1
    outer loop
      vertex 4.5 9.2 0
      vertex 10.6871 6.47538 0
      vertex 10.382 6.40211 0
    endloop
  endfacet
  facet normal 0 0 -1
    outer loop
      vertex 0 4.8995 0
      vertex 9 4.5 0
      vertex 4.8995 0 0
    endloop
  endfacet
  facet normal 0 -0 -1
    outer loop
      vertex 4.5 9.2 0
      vertex 9 4.5 0
      vertex 0 4.8995 0
    endloop
  endfacet
  facet normal 0 0 -1
    outer loop
      vertex 9 4.5 0
      vertex 4.5 9.2 0
      vertex 9.02462 4.81287 0
    endloop
  endfacet
  facet normal 0 0 -1
    outer loop
      vertex 9.09789 5.11803 0
      vertex 4.5 9.2 0
      vertex 9.21799 5.40798 0
    endloop
  endfacet
  facet normal 0 0 -1
    outer loop
      vertex 11 6.5 0
      vertex 4.5 9.2 0
      vertex 17.5 9.2 0
    endloop
  endfacet
  facet normal 0 0 -1
    outer loop
      vertex 10.092 6.28201 0
      vertex 4.5 9.2 0
      vertex 10.382 6.40211 0
    endloop
  endfacet
  facet normal 0 0 -1
    outer loop
      vertex 9.82443 6.11803 0
      vertex 4.5 9.2 0
      vertex 10.092 6.28201 0
    endloop
  endfacet
  facet normal 0 0 -1
    outer loop
      vertex 9.58579 5.91421 0
      vertex 4.5 9.2 0
      vertex 9.82443 6.11803 0
    endloop
  endfacet
  facet normal 0 0 -1
    outer loop
      vertex 9.38197 5.67557 0
      vertex 4.5 9.2 0
      vertex 9.58579 5.91421 0
    endloop
  endfacet
  facet normal 0 0 -1
    outer loop
      vertex 9.21799 5.40798 0
      vertex 4.5 9.2 0
      vertex 9.38197 5.67557 0
    endloop
  endfacet
  facet normal 0 0 -1
    outer loop
      vertex 9.02462 4.81287 0
      vertex 4.5 9.2 0
      vertex 9.09789 5.11803 0
    endloop
  endfacet
  facet normal 0 0 -1
    outer loop
      vertex 0 12.5 0
      vertex 4.5 9.2 0
      vertex 0 4.8995 0
    endloop
  endfacet
  facet normal 0 0 -1
    outer loop
      vertex 4.5 9.2 0
      vertex 0 12.5 0
      vertex 4.5 12.5 0
    endloop
  endfacet
  facet normal -0 0 -1
    outer loop
      vertex 22 12.5 0
      vertex 17.5 9.2 0
      vertex 17.5 12.5 0
    endloop
  endfacet
  facet normal 0 -1 0
    outer loop
      vertex 4.8995 0 0
      vertex 17 0 5
      vertex 4.8995 0 5
    endloop
  endfacet
  facet normal 0 -1 -0
    outer loop
      vertex 17 0 5
      vertex 4.8995 0 0
      vertex 17 0 0
    endloop
  endfacet
  facet normal 1 -0 0
    outer loop
      vertex 4.5 9.2 5
      vertex 4.5 12.5 0
      vertex 4.5 12.5 5
    endloop
  endfacet
  facet normal 1 0 0
    outer loop
      vertex 4.5 12.5 0
      vertex 4.5 9.2 5
      vertex 4.5 9.2 0
    endloop
  endfacet
  facet normal -1 0 0
    outer loop
      vertex 17.5 9.2 0
      vertex 17.5 12.5 5
      vertex 17.5 12.5 0
    endloop
  endfacet
  facet normal -1 -0 0
    outer loop
      vertex 17.5 12.5 5
      vertex 17.5 9.2 0
      vertex 17.5 9.2 5
    endloop
  endfacet
  facet normal 0 1 -0
    outer loop
      vertex 17.5 9.2 0
      vertex 4.5 9.2 5
      vertex 17.5 9.2 5
    endloop
  endfacet
  facet normal 0 1 0
    outer loop
      vertex 4.5 9.2 5
      vertex 17.5 9.2 0
      vertex 4.5 9.2 0
    endloop
  endfacet
  facet normal -0.996917 -0.078461 0
    outer loop
      vertex 13 4.5 0
      vertex 12.9754 4.81287 5
      vertex 12.9754 4.81287 0
    endloop
  endfacet
  facet normal -0.996917 -0.078461 0
    outer loop
      vertex 12.9754 4.81287 5
      vertex 13 4.5 0
      vertex 13 4.5 5
    endloop
  endfacet
  facet normal 0.996917 0.0784578 0
    outer loop
      vertex 9.02462 4.18713 5
      vertex 9 4.5 0
      vertex 9 4.5 5
    endloop
  endfacet
  facet normal 0.996917 0.0784578 0
    outer loop
      vertex 9 4.5 0
      vertex 9.02462 4.18713 5
      vertex 9.02462 4.18713 0
    endloop
  endfacet
  facet normal 0.0784608 -0.996917 0
    outer loop
      vertex 10.6871 6.47538 0
      vertex 11 6.5 5
      vertex 10.6871 6.47538 5
    endloop
  endfacet
  facet normal 0.0784608 -0.996917 0
    outer loop
      vertex 11 6.5 5
      vertex 10.6871 6.47538 0
      vertex 11 6.5 0
    endloop
  endfacet
  facet normal -0.649448 -0.760406 0
    outer loop
      vertex 12.1756 6.11803 0
      vertex 12.4142 5.91421 5
      vertex 12.1756 6.11803 5
    endloop
  endfacet
  facet normal -0.649448 -0.760406 -0
    outer loop
      vertex 12.4142 5.91421 5
      vertex 12.1756 6.11803 0
      vertex 12.4142 5.91421 0
    endloop
  endfacet
  facet normal 0.760406 -0.649448 0
    outer loop
      vertex 9.38197 5.67557 5
      vertex 9.58579 5.91421 0
      vertex 9.58579 5.91421 5
    endloop
  endfacet
  facet normal 0.760406 -0.649448 0
    outer loop
      vertex 9.58579 5.91421 0
      vertex 9.38197 5.67557 5
      vertex 9.38197 5.67557 0
    endloop
  endfacet
  facet normal 0.382683 -0.92388 0
    outer loop
      vertex 10.092 6.28201 0
      vertex 10.382 6.40211 5
      vertex 10.092 6.28201 5
    endloop
  endfacet
  facet normal 0.382683 -0.92388 0
    outer loop
      vertex 10.382 6.40211 5
      vertex 10.092 6.28201 0
      vertex 10.382 6.40211 0
    endloop
  endfacet
  facet normal -0.92388 -0.382683 0
    outer loop
      vertex 12.9021 5.11803 0
      vertex 12.782 5.40798 5
      vertex 12.782 5.40798 0
    endloop
  endfacet
  facet normal -0.92388 -0.382683 0
    outer loop
      vertex 12.782 5.40798 5
      vertex 12.9021 5.11803 0
      vertex 12.9021 5.11803 5
    endloop
  endfacet
  facet normal -0.97237 -0.233444 0
    outer loop
      vertex 12.9754 4.81287 0
      vertex 12.9021 5.11803 5
      vertex 12.9021 5.11803 0
    endloop
  endfacet
  facet normal -0.97237 -0.233444 0
    outer loop
      vertex 12.9021 5.11803 5
      vertex 12.9754 4.81287 0
      vertex 12.9754 4.81287 5
    endloop
  endfacet
  facet normal -0.85264 -0.5225 0
    outer loop
      vertex 12.782 5.40798 0
      vertex 12.618 5.67557 5
      vertex 12.618 5.67557 0
    endloop
  endfacet
  facet normal -0.85264 -0.5225 0
    outer loop
      vertex 12.618 5.67557 5
      vertex 12.782 5.40798 0
      vertex 12.782 5.40798 5
    endloop
  endfacet
  facet normal -0.382683 -0.92388 0
    outer loop
      vertex 11.618 6.40211 0
      vertex 11.908 6.28201 5
      vertex 11.618 6.40211 5
    endloop
  endfacet
  facet normal -0.382683 -0.92388 -0
    outer loop
      vertex 11.908 6.28201 5
      vertex 11.618 6.40211 0
      vertex 11.908 6.28201 0
    endloop
  endfacet
  facet normal -0.5225 -0.85264 0
    outer loop
      vertex 11.908 6.28201 0
      vertex 12.1756 6.11803 5
      vertex 11.908 6.28201 5
    endloop
  endfacet
  facet normal -0.5225 -0.85264 -0
    outer loop
      vertex 12.1756 6.11803 5
      vertex 11.908 6.28201 0
      vertex 12.1756 6.11803 0
    endloop
  endfacet
  facet normal 0.92388 -0.382683 0
    outer loop
      vertex 9.09789 5.11803 5
      vertex 9.21799 5.40798 0
      vertex 9.21799 5.40798 5
    endloop
  endfacet
  facet normal 0.92388 -0.382683 0
    outer loop
      vertex 9.21799 5.40798 0
      vertex 9.09789 5.11803 5
      vertex 9.09789 5.11803 0
    endloop
  endfacet
  facet normal 0.85264 -0.5225 0
    outer loop
      vertex 9.21799 5.40798 5
      vertex 9.38197 5.67557 0
      vertex 9.38197 5.67557 5
    endloop
  endfacet
  facet normal 0.85264 -0.5225 0
    outer loop
      vertex 9.38197 5.67557 0
      vertex 9.21799 5.40798 5
      vertex 9.21799 5.40798 0
    endloop
  endfacet
  facet normal 0.97237 -0.233444 0
    outer loop
      vertex 9.02462 4.81287 5
      vertex 9.09789 5.11803 0
      vertex 9.09789 5.11803 5
    endloop
  endfacet
  facet normal 0.97237 -0.233444 0
    outer loop
      vertex 9.09789 5.11803 0
      vertex 9.02462 4.81287 5
      vertex 9.02462 4.81287 0
    endloop
  endfacet
  facet normal 0.5225 -0.85264 0
    outer loop
      vertex 9.82443 6.11803 0
      vertex 10.092 6.28201 5
      vertex 9.82443 6.11803 5
    endloop
  endfacet
  facet normal 0.5225 -0.85264 0
    outer loop
      vertex 10.092 6.28201 5
      vertex 9.82443 6.11803 0
      vertex 10.092 6.28201 0
    endloop
  endfacet
  facet normal 0.233444 -0.97237 0
    outer loop
      vertex 10.382 6.40211 0
      vertex 10.6871 6.47538 5
      vertex 10.382 6.40211 5
    endloop
  endfacet
  facet normal 0.233444 -0.97237 0
    outer loop
      vertex 10.6871 6.47538 5
      vertex 10.382 6.40211 0
      vertex 10.6871 6.47538 0
    endloop
  endfacet
  facet normal -0.233444 0.97237 0
    outer loop
      vertex 11.618 2.59789 0
      vertex 11.3129 2.52462 5
      vertex 11.618 2.59789 5
    endloop
  endfacet
  facet normal -0.233444 0.97237 0
    outer loop
      vertex 11.3129 2.52462 5
      vertex 11.618 2.59789 0
      vertex 11.3129 2.52462 0
    endloop
  endfacet
  facet normal -0.760406 0.649448 0
    outer loop
      vertex 12.4142 3.08579 0
      vertex 12.618 3.32443 5
      vertex 12.618 3.32443 0
    endloop
  endfacet
  facet normal -0.760406 0.649448 0
    outer loop
      vertex 12.618 3.32443 5
      vertex 12.4142 3.08579 0
      vertex 12.4142 3.08579 5
    endloop
  endfacet
  facet normal -0.5225 0.85264 0
    outer loop
      vertex 12.1756 2.88197 0
      vertex 11.908 2.71799 5
      vertex 12.1756 2.88197 5
    endloop
  endfacet
  facet normal -0.5225 0.85264 0
    outer loop
      vertex 11.908 2.71799 5
      vertex 12.1756 2.88197 0
      vertex 11.908 2.71799 0
    endloop
  endfacet
  facet normal -0.85264 0.5225 0
    outer loop
      vertex 12.618 3.32443 0
      vertex 12.782 3.59202 5
      vertex 12.782 3.59202 0
    endloop
  endfacet
  facet normal -0.85264 0.5225 0
    outer loop
      vertex 12.782 3.59202 5
      vertex 12.618 3.32443 0
      vertex 12.618 3.32443 5
    endloop
  endfacet
  facet normal -0.97237 0.233444 0
    outer loop
      vertex 12.9021 3.88197 0
      vertex 12.9754 4.18713 5
      vertex 12.9754 4.18713 0
    endloop
  endfacet
  facet normal -0.97237 0.233444 0
    outer loop
      vertex 12.9754 4.18713 5
      vertex 12.9021 3.88197 0
      vertex 12.9021 3.88197 5
    endloop
  endfacet
  facet normal 0.382683 0.92388 -0
    outer loop
      vertex 10.382 2.59789 0
      vertex 10.092 2.71799 5
      vertex 10.382 2.59789 5
    endloop
  endfacet
  facet normal 0.382683 0.92388 0
    outer loop
      vertex 10.092 2.71799 5
      vertex 10.382 2.59789 0
      vertex 10.092 2.71799 0
    endloop
  endfacet
  facet normal 0.5225 0.85264 -0
    outer loop
      vertex 10.092 2.71799 0
      vertex 9.82443 2.88197 5
      vertex 10.092 2.71799 5
    endloop
  endfacet
  facet normal 0.5225 0.85264 0
    outer loop
      vertex 9.82443 2.88197 5
      vertex 10.092 2.71799 0
      vertex 9.82443 2.88197 0
    endloop
  endfacet
  facet normal 0.233444 0.97237 -0
    outer loop
      vertex 10.6871 2.52462 0
      vertex 10.382 2.59789 5
      vertex 10.6871 2.52462 5
    endloop
  endfacet
  facet normal 0.233444 0.97237 0
    outer loop
      vertex 10.382 2.59789 5
      vertex 10.6871 2.52462 0
      vertex 10.382 2.59789 0
    endloop
  endfacet
  facet normal 0.85264 0.5225 0
    outer loop
      vertex 9.38197 3.32443 5
      vertex 9.21799 3.59202 0
      vertex 9.21799 3.59202 5
    endloop
  endfacet
  facet normal 0.85264 0.5225 0
    outer loop
      vertex 9.21799 3.59202 0
      vertex 9.38197 3.32443 5
      vertex 9.38197 3.32443 0
    endloop
  endfacet
  facet normal 0.760406 0.649448 0
    outer loop
      vertex 9.58579 3.08579 5
      vertex 9.38197 3.32443 0
      vertex 9.38197 3.32443 5
    endloop
  endfacet
  facet normal 0.760406 0.649448 0
    outer loop
      vertex 9.38197 3.32443 0
      vertex 9.58579 3.08579 5
      vertex 9.58579 3.08579 0
    endloop
  endfacet
  facet normal 0.97237 0.233444 0
    outer loop
      vertex 9.09789 3.88197 5
      vertex 9.02462 4.18713 0
      vertex 9.02462 4.18713 5
    endloop
  endfacet
  facet normal 0.97237 0.233444 0
    outer loop
      vertex 9.02462 4.18713 0
      vertex 9.09789 3.88197 5
      vertex 9.09789 3.88197 0
    endloop
  endfacet
  facet normal -0.233444 -0.97237 0
    outer loop
      vertex 11.3129 6.47538 0
      vertex 11.618 6.40211 5
      vertex 11.3129 6.47538 5
    endloop
  endfacet
  facet normal -0.233444 -0.97237 -0
    outer loop
      vertex 11.618 6.40211 5
      vertex 11.3129 6.47538 0
      vertex 11.618 6.40211 0
    endloop
  endfacet
  facet normal -0.078461 -0.996917 0
    outer loop
      vertex 11 6.5 0
      vertex 11.3129 6.47538 5
      vertex 11 6.5 5
    endloop
  endfacet
  facet normal -0.078461 -0.996917 -0
    outer loop
      vertex 11.3129 6.47538 5
      vertex 11 6.5 0
      vertex 11.3129 6.47538 0
    endloop
  endfacet
  facet normal 0.996917 -0.078458 0
    outer loop
      vertex 9 4.5 5
      vertex 9.02462 4.81287 0
      vertex 9.02462 4.81287 5
    endloop
  endfacet
  facet normal 0.996917 -0.078458 0
    outer loop
      vertex 9.02462 4.81287 0
      vertex 9 4.5 5
      vertex 9 4.5 0
    endloop
  endfacet
  facet normal -0.996917 0.0784608 0
    outer loop
      vertex 12.9754 4.18713 0
      vertex 13 4.5 5
      vertex 13 4.5 0
    endloop
  endfacet
  facet normal -0.996917 0.0784608 0
    outer loop
      vertex 13 4.5 5
      vertex 12.9754 4.18713 0
      vertex 12.9754 4.18713 5
    endloop
  endfacet
  facet normal -0.382683 0.92388 0
    outer loop
      vertex 11.908 2.71799 0
      vertex 11.618 2.59789 5
      vertex 11.908 2.71799 5
    endloop
  endfacet
  facet normal -0.382683 0.92388 0
    outer loop
      vertex 11.618 2.59789 5
      vertex 11.908 2.71799 0
      vertex 11.618 2.59789 0
    endloop
  endfacet
  facet normal -0.649448 0.760406 0
    outer loop
      vertex 12.4142 3.08579 0
      vertex 12.1756 2.88197 5
      vertex 12.4142 3.08579 5
    endloop
  endfacet
  facet normal -0.649448 0.760406 0
    outer loop
      vertex 12.1756 2.88197 5
      vertex 12.4142 3.08579 0
      vertex 12.1756 2.88197 0
    endloop
  endfacet
  facet normal -0.92388 0.382683 0
    outer loop
      vertex 12.782 3.59202 0
      vertex 12.9021 3.88197 5
      vertex 12.9021 3.88197 0
    endloop
  endfacet
  facet normal -0.92388 0.382683 0
    outer loop
      vertex 12.9021 3.88197 5
      vertex 12.782 3.59202 0
      vertex 12.782 3.59202 5
    endloop
  endfacet
  facet normal 0.0784578 0.996917 -0
    outer loop
      vertex 11 2.5 0
      vertex 10.6871 2.52462 5
      vertex 11 2.5 5
    endloop
  endfacet
  facet normal 0.0784578 0.996917 0
    outer loop
      vertex 10.6871 2.52462 5
      vertex 11 2.5 0
      vertex 10.6871 2.52462 0
    endloop
  endfacet
  facet normal 0.649448 0.760406 -0
    outer loop
      vertex 9.82443 2.88197 0
      vertex 9.58579 3.08579 5
      vertex 9.82443 2.88197 5
    endloop
  endfacet
  facet normal 0.649448 0.760406 0
    outer loop
      vertex 9.58579 3.08579 5
      vertex 9.82443 2.88197 0
      vertex 9.58579 3.08579 0
    endloop
  endfacet
  facet normal 0.92388 0.382683 0
    outer loop
      vertex 9.21799 3.59202 5
      vertex 9.09789 3.88197 0
      vertex 9.09789 3.88197 5
    endloop
  endfacet
  facet normal 0.92388 0.382683 0
    outer loop
      vertex 9.09789 3.88197 0
      vertex 9.21799 3.59202 5
      vertex 9.21799 3.59202 0
    endloop
  endfacet
  facet normal -0.760406 -0.649448 0
    outer loop
      vertex 12.618 5.67557 0
      vertex 12.4142 5.91421 5
      vertex 12.4142 5.91421 0
    endloop
  endfacet
  facet normal -0.760406 -0.649448 0
    outer loop
      vertex 12.4142 5.91421 5
      vertex 12.618 5.67557 0
      vertex 12.618 5.67557 5
    endloop
  endfacet
  facet normal 0.649448 -0.760406 0
    outer loop
      vertex 9.58579 5.91421 0
      vertex 9.82443 6.11803 5
      vertex 9.58579 5.91421 5
    endloop
  endfacet
  facet normal 0.649448 -0.760406 0
    outer loop
      vertex 9.82443 6.11803 5
      vertex 9.58579 5.91421 0
      vertex 9.82443 6.11803 0
    endloop
  endfacet
  facet normal -0.078458 0.996917 0
    outer loop
      vertex 11.3129 2.52462 0
      vertex 11 2.5 5
      vertex 11.3129 2.52462 5
    endloop
  endfacet
  facet normal -0.078458 0.996917 0
    outer loop
      vertex 11 2.5 5
      vertex 11.3129 2.52462 0
      vertex 11 2.5 0
    endloop
  endfacet
  facet normal -0.707107 -0.707107 0
    outer loop
      vertex 4.8995 0 0
      vertex 0 4.8995 5
      vertex 0 4.8995 0
    endloop
  endfacet
  facet normal -0.707107 -0.707107 0
    outer loop
      vertex 0 4.8995 5
      vertex 4.8995 0 0
      vertex 4.8995 0 5
    endloop
  endfacet
  facet normal 0.707107 -0.707107 0
    outer loop
      vertex 17 0 5
      vertex 22 5 0
      vertex 22 5 5
    endloop
  endfacet
  facet normal 0.707107 -0.707107 0
    outer loop
      vertex 22 5 0
      vertex 17 0 5
      vertex 17 0 0
    endloop
  endfacet
endsolid OpenSCAD_Model
