solid OpenSCAD_Model
  facet normal -1 0 0
    outer loop
      vertex -12.5 -10 2.5
      vertex -12.5 10 -2.5
      vertex -12.5 -10 -2.5
    endloop
  endfacet
  facet normal -1 0 0
    outer loop
      vertex -12.5 -10 2.5
      vertex -12.5 10 2.5
      vertex -12.5 10 -2.5
    endloop
  endfacet
  facet normal -0 -1 0
    outer loop
      vertex 7.5 -10 2.5
      vertex -12.5 -10 2.5
      vertex -12.5 -10 -2.5
    endloop
  endfacet
  facet normal -0 -1 0
    outer loop
      vertex 12.5 -10 27
      vertex -2.5 -10 27
      vertex 7.5 -10 23
    endloop
  endfacet
  facet normal 0 -1 0
    outer loop
      vertex -2.5 -10 27
      vertex -2.5 -10 23
      vertex 7.5 -10 23
    endloop
  endfacet
  facet normal 0 -1 -0
    outer loop
      vertex 12.5 -10 27
      vertex 7.5 -10 2.5
      vertex 12.5 -10 -2.5
    endloop
  endfacet
  facet normal 0 -1 0
    outer loop
      vertex 7.5 -10 23
      vertex 7.5 -10 2.5
      vertex 12.5 -10 27
    endloop
  endfacet
  facet normal 0 -1 0
    outer loop
      vertex 12.5 -10 -2.5
      vertex 7.5 -10 2.5
      vertex -12.5 -10 -2.5
    endloop
  endfacet
  facet normal 0 0 -1
    outer loop
      vertex -12.5 10 -2.5
      vertex 12.5 -10 -2.5
      vertex -12.5 -10 -2.5
    endloop
  endfacet
  facet normal 0 0 -1
    outer loop
      vertex -12.5 10 -2.5
      vertex 12.5 10 -2.5
      vertex 12.5 -10 -2.5
    endloop
  endfacet
  facet normal 0 1 0
    outer loop
      vertex 7.5 10 2.5
      vertex 12.5 10 -2.5
      vertex -12.5 10 -2.5
    endloop
  endfacet
  facet normal -0 1 0
    outer loop
      vertex -12.5 10 2.5
      vertex 7.5 10 2.5
      vertex -12.5 10 -2.5
    endloop
  endfacet
  facet normal 0 1 0
    outer loop
      vertex 12.5 10 27
      vertex 12.5 10 -2.5
      vertex 7.5 10 2.5
    endloop
  endfacet
  facet normal 0 1 0
    outer loop
      vertex -2.5 10 23
      vertex -2.5 10 27
      vertex 7.5 10 23
    endloop
  endfacet
  facet normal -0 1 0
    outer loop
      vertex -2.5 10 27
      vertex 12.5 10 27
      vertex 7.5 10 23
    endloop
  endfacet
  facet normal 0 1 0
    outer loop
      vertex 12.5 10 27
      vertex 7.5 10 2.5
      vertex 7.5 10 23
    endloop
  endfacet
  facet normal 0 0 1
    outer loop
      vertex 7.5 -10 2.5
      vertex -12.5 10 2.5
      vertex -12.5 -10 2.5
    endloop
  endfacet
  facet normal 0 -0 1
    outer loop
      vertex 7.5 -10 2.5
      vertex 7.5 10 2.5
      vertex -12.5 10 2.5
    endloop
  endfacet
  facet normal 1 0 0
    outer loop
      vertex 12.5 10 -2.5
      vertex 12.5 -10 27
      vertex 12.5 -10 -2.5
    endloop
  endfacet
  facet normal 1 0 -0
    outer loop
      vertex 12.5 10 -2.5
      vertex 12.5 10 27
      vertex 12.5 -10 27
    endloop
  endfacet
  facet normal -1 0 0
    outer loop
      vertex 7.5 -10 23
      vertex 7.5 10 2.5
      vertex 7.5 -10 2.5
    endloop
  endfacet
  facet normal -1 0 0
    outer loop
      vertex 7.5 -10 23
      vertex 7.5 10 23
      vertex 7.5 10 2.5
    endloop
  endfacet
  facet normal -1 0 0
    outer loop
      vertex -2.5 -10 27
      vertex -2.5 10 23
      vertex -2.5 -10 23
    endloop
  endfacet
  facet normal -1 0 0
    outer loop
      vertex -2.5 -10 27
      vertex -2.5 10 27
      vertex -2.5 10 23
    endloop
  endfacet
  facet normal 0 0 -1
    outer loop
      vertex -2.5 10 23
      vertex 7.5 -10 23
      vertex -2.5 -10 23
    endloop
  endfacet
  facet normal 0 0 -1
    outer loop
      vertex -2.5 10 23
      vertex 7.5 10 23
      vertex 7.5 -10 23
    endloop
  endfacet
  facet normal 0 0 1
    outer loop
      vertex 12.5 -10 27
      vertex -2.5 10 27
      vertex -2.5 -10 27
    endloop
  endfacet
  facet normal 0 -0 1
    outer loop
      vertex 12.5 -10 27
      vertex 12.5 10 27
      vertex -2.5 10 27
    endloop
  endfacet
endsolid OpenSCAD_Model
